G04 #@! TF.GenerationSoftware,KiCad,Pcbnew,(5.0.1-dev-70-gb7b125d83)*
G04 #@! TF.CreationDate,2019-01-31T16:17:19+01:00*
G04 #@! TF.ProjectId,vitamins_included,766974616D696E735F696E636C756465,rev?*
G04 #@! TF.SameCoordinates,Original*
G04 #@! TF.FileFunction,Paste,Bot*
G04 #@! TF.FilePolarity,Positive*
%FSLAX46Y46*%
G04 Gerber Fmt 4.6, Leading zero omitted, Abs format (unit mm)*
G04 Created by KiCad (PCBNEW (5.0.1-dev-70-gb7b125d83)) date 01/31/19 16:17:19*
%MOMM*%
%LPD*%
G01*
G04 APERTURE LIST*
%ADD10C,0.100000*%
%ADD11C,0.875000*%
%ADD12R,1.500000X1.000000*%
%ADD13R,2.550000X2.500000*%
%ADD14R,0.800000X0.900000*%
%ADD15R,2.800000X2.000000*%
%ADD16R,2.800000X2.200000*%
%ADD17R,2.800000X2.800000*%
%ADD18R,0.299720X0.998220*%
%ADD19R,0.998220X0.299720*%
%ADD20R,5.080000X5.080000*%
%ADD21R,2.500000X1.800000*%
%ADD22R,2.180000X1.600000*%
%ADD23R,2.400000X1.900000*%
%ADD24C,0.850000*%
%ADD25C,1.000000*%
%ADD26R,0.600000X1.160000*%
%ADD27R,0.300000X1.160000*%
%ADD28O,0.900000X1.700000*%
%ADD29O,0.900000X2.000000*%
G04 APERTURE END LIST*
D10*
G04 #@! TO.C,C12*
G36*
X77327691Y-67526053D02*
X77348926Y-67529203D01*
X77369750Y-67534419D01*
X77389962Y-67541651D01*
X77409368Y-67550830D01*
X77427781Y-67561866D01*
X77445024Y-67574654D01*
X77460930Y-67589070D01*
X77475346Y-67604976D01*
X77488134Y-67622219D01*
X77499170Y-67640632D01*
X77508349Y-67660038D01*
X77515581Y-67680250D01*
X77520797Y-67701074D01*
X77523947Y-67722309D01*
X77525000Y-67743750D01*
X77525000Y-68256250D01*
X77523947Y-68277691D01*
X77520797Y-68298926D01*
X77515581Y-68319750D01*
X77508349Y-68339962D01*
X77499170Y-68359368D01*
X77488134Y-68377781D01*
X77475346Y-68395024D01*
X77460930Y-68410930D01*
X77445024Y-68425346D01*
X77427781Y-68438134D01*
X77409368Y-68449170D01*
X77389962Y-68458349D01*
X77369750Y-68465581D01*
X77348926Y-68470797D01*
X77327691Y-68473947D01*
X77306250Y-68475000D01*
X76868750Y-68475000D01*
X76847309Y-68473947D01*
X76826074Y-68470797D01*
X76805250Y-68465581D01*
X76785038Y-68458349D01*
X76765632Y-68449170D01*
X76747219Y-68438134D01*
X76729976Y-68425346D01*
X76714070Y-68410930D01*
X76699654Y-68395024D01*
X76686866Y-68377781D01*
X76675830Y-68359368D01*
X76666651Y-68339962D01*
X76659419Y-68319750D01*
X76654203Y-68298926D01*
X76651053Y-68277691D01*
X76650000Y-68256250D01*
X76650000Y-67743750D01*
X76651053Y-67722309D01*
X76654203Y-67701074D01*
X76659419Y-67680250D01*
X76666651Y-67660038D01*
X76675830Y-67640632D01*
X76686866Y-67622219D01*
X76699654Y-67604976D01*
X76714070Y-67589070D01*
X76729976Y-67574654D01*
X76747219Y-67561866D01*
X76765632Y-67550830D01*
X76785038Y-67541651D01*
X76805250Y-67534419D01*
X76826074Y-67529203D01*
X76847309Y-67526053D01*
X76868750Y-67525000D01*
X77306250Y-67525000D01*
X77327691Y-67526053D01*
X77327691Y-67526053D01*
G37*
D11*
X77087500Y-68000000D03*
D10*
G36*
X75752691Y-67526053D02*
X75773926Y-67529203D01*
X75794750Y-67534419D01*
X75814962Y-67541651D01*
X75834368Y-67550830D01*
X75852781Y-67561866D01*
X75870024Y-67574654D01*
X75885930Y-67589070D01*
X75900346Y-67604976D01*
X75913134Y-67622219D01*
X75924170Y-67640632D01*
X75933349Y-67660038D01*
X75940581Y-67680250D01*
X75945797Y-67701074D01*
X75948947Y-67722309D01*
X75950000Y-67743750D01*
X75950000Y-68256250D01*
X75948947Y-68277691D01*
X75945797Y-68298926D01*
X75940581Y-68319750D01*
X75933349Y-68339962D01*
X75924170Y-68359368D01*
X75913134Y-68377781D01*
X75900346Y-68395024D01*
X75885930Y-68410930D01*
X75870024Y-68425346D01*
X75852781Y-68438134D01*
X75834368Y-68449170D01*
X75814962Y-68458349D01*
X75794750Y-68465581D01*
X75773926Y-68470797D01*
X75752691Y-68473947D01*
X75731250Y-68475000D01*
X75293750Y-68475000D01*
X75272309Y-68473947D01*
X75251074Y-68470797D01*
X75230250Y-68465581D01*
X75210038Y-68458349D01*
X75190632Y-68449170D01*
X75172219Y-68438134D01*
X75154976Y-68425346D01*
X75139070Y-68410930D01*
X75124654Y-68395024D01*
X75111866Y-68377781D01*
X75100830Y-68359368D01*
X75091651Y-68339962D01*
X75084419Y-68319750D01*
X75079203Y-68298926D01*
X75076053Y-68277691D01*
X75075000Y-68256250D01*
X75075000Y-67743750D01*
X75076053Y-67722309D01*
X75079203Y-67701074D01*
X75084419Y-67680250D01*
X75091651Y-67660038D01*
X75100830Y-67640632D01*
X75111866Y-67622219D01*
X75124654Y-67604976D01*
X75139070Y-67589070D01*
X75154976Y-67574654D01*
X75172219Y-67561866D01*
X75190632Y-67550830D01*
X75210038Y-67541651D01*
X75230250Y-67534419D01*
X75251074Y-67529203D01*
X75272309Y-67526053D01*
X75293750Y-67525000D01*
X75731250Y-67525000D01*
X75752691Y-67526053D01*
X75752691Y-67526053D01*
G37*
D11*
X75512500Y-68000000D03*
G04 #@! TD*
D10*
G04 #@! TO.C,C13*
G36*
X94652691Y-48426053D02*
X94673926Y-48429203D01*
X94694750Y-48434419D01*
X94714962Y-48441651D01*
X94734368Y-48450830D01*
X94752781Y-48461866D01*
X94770024Y-48474654D01*
X94785930Y-48489070D01*
X94800346Y-48504976D01*
X94813134Y-48522219D01*
X94824170Y-48540632D01*
X94833349Y-48560038D01*
X94840581Y-48580250D01*
X94845797Y-48601074D01*
X94848947Y-48622309D01*
X94850000Y-48643750D01*
X94850000Y-49156250D01*
X94848947Y-49177691D01*
X94845797Y-49198926D01*
X94840581Y-49219750D01*
X94833349Y-49239962D01*
X94824170Y-49259368D01*
X94813134Y-49277781D01*
X94800346Y-49295024D01*
X94785930Y-49310930D01*
X94770024Y-49325346D01*
X94752781Y-49338134D01*
X94734368Y-49349170D01*
X94714962Y-49358349D01*
X94694750Y-49365581D01*
X94673926Y-49370797D01*
X94652691Y-49373947D01*
X94631250Y-49375000D01*
X94193750Y-49375000D01*
X94172309Y-49373947D01*
X94151074Y-49370797D01*
X94130250Y-49365581D01*
X94110038Y-49358349D01*
X94090632Y-49349170D01*
X94072219Y-49338134D01*
X94054976Y-49325346D01*
X94039070Y-49310930D01*
X94024654Y-49295024D01*
X94011866Y-49277781D01*
X94000830Y-49259368D01*
X93991651Y-49239962D01*
X93984419Y-49219750D01*
X93979203Y-49198926D01*
X93976053Y-49177691D01*
X93975000Y-49156250D01*
X93975000Y-48643750D01*
X93976053Y-48622309D01*
X93979203Y-48601074D01*
X93984419Y-48580250D01*
X93991651Y-48560038D01*
X94000830Y-48540632D01*
X94011866Y-48522219D01*
X94024654Y-48504976D01*
X94039070Y-48489070D01*
X94054976Y-48474654D01*
X94072219Y-48461866D01*
X94090632Y-48450830D01*
X94110038Y-48441651D01*
X94130250Y-48434419D01*
X94151074Y-48429203D01*
X94172309Y-48426053D01*
X94193750Y-48425000D01*
X94631250Y-48425000D01*
X94652691Y-48426053D01*
X94652691Y-48426053D01*
G37*
D11*
X94412500Y-48900000D03*
D10*
G36*
X96227691Y-48426053D02*
X96248926Y-48429203D01*
X96269750Y-48434419D01*
X96289962Y-48441651D01*
X96309368Y-48450830D01*
X96327781Y-48461866D01*
X96345024Y-48474654D01*
X96360930Y-48489070D01*
X96375346Y-48504976D01*
X96388134Y-48522219D01*
X96399170Y-48540632D01*
X96408349Y-48560038D01*
X96415581Y-48580250D01*
X96420797Y-48601074D01*
X96423947Y-48622309D01*
X96425000Y-48643750D01*
X96425000Y-49156250D01*
X96423947Y-49177691D01*
X96420797Y-49198926D01*
X96415581Y-49219750D01*
X96408349Y-49239962D01*
X96399170Y-49259368D01*
X96388134Y-49277781D01*
X96375346Y-49295024D01*
X96360930Y-49310930D01*
X96345024Y-49325346D01*
X96327781Y-49338134D01*
X96309368Y-49349170D01*
X96289962Y-49358349D01*
X96269750Y-49365581D01*
X96248926Y-49370797D01*
X96227691Y-49373947D01*
X96206250Y-49375000D01*
X95768750Y-49375000D01*
X95747309Y-49373947D01*
X95726074Y-49370797D01*
X95705250Y-49365581D01*
X95685038Y-49358349D01*
X95665632Y-49349170D01*
X95647219Y-49338134D01*
X95629976Y-49325346D01*
X95614070Y-49310930D01*
X95599654Y-49295024D01*
X95586866Y-49277781D01*
X95575830Y-49259368D01*
X95566651Y-49239962D01*
X95559419Y-49219750D01*
X95554203Y-49198926D01*
X95551053Y-49177691D01*
X95550000Y-49156250D01*
X95550000Y-48643750D01*
X95551053Y-48622309D01*
X95554203Y-48601074D01*
X95559419Y-48580250D01*
X95566651Y-48560038D01*
X95575830Y-48540632D01*
X95586866Y-48522219D01*
X95599654Y-48504976D01*
X95614070Y-48489070D01*
X95629976Y-48474654D01*
X95647219Y-48461866D01*
X95665632Y-48450830D01*
X95685038Y-48441651D01*
X95705250Y-48434419D01*
X95726074Y-48429203D01*
X95747309Y-48426053D01*
X95768750Y-48425000D01*
X96206250Y-48425000D01*
X96227691Y-48426053D01*
X96227691Y-48426053D01*
G37*
D11*
X95987500Y-48900000D03*
G04 #@! TD*
D10*
G04 #@! TO.C,C14*
G36*
X71977691Y-27576053D02*
X71998926Y-27579203D01*
X72019750Y-27584419D01*
X72039962Y-27591651D01*
X72059368Y-27600830D01*
X72077781Y-27611866D01*
X72095024Y-27624654D01*
X72110930Y-27639070D01*
X72125346Y-27654976D01*
X72138134Y-27672219D01*
X72149170Y-27690632D01*
X72158349Y-27710038D01*
X72165581Y-27730250D01*
X72170797Y-27751074D01*
X72173947Y-27772309D01*
X72175000Y-27793750D01*
X72175000Y-28231250D01*
X72173947Y-28252691D01*
X72170797Y-28273926D01*
X72165581Y-28294750D01*
X72158349Y-28314962D01*
X72149170Y-28334368D01*
X72138134Y-28352781D01*
X72125346Y-28370024D01*
X72110930Y-28385930D01*
X72095024Y-28400346D01*
X72077781Y-28413134D01*
X72059368Y-28424170D01*
X72039962Y-28433349D01*
X72019750Y-28440581D01*
X71998926Y-28445797D01*
X71977691Y-28448947D01*
X71956250Y-28450000D01*
X71443750Y-28450000D01*
X71422309Y-28448947D01*
X71401074Y-28445797D01*
X71380250Y-28440581D01*
X71360038Y-28433349D01*
X71340632Y-28424170D01*
X71322219Y-28413134D01*
X71304976Y-28400346D01*
X71289070Y-28385930D01*
X71274654Y-28370024D01*
X71261866Y-28352781D01*
X71250830Y-28334368D01*
X71241651Y-28314962D01*
X71234419Y-28294750D01*
X71229203Y-28273926D01*
X71226053Y-28252691D01*
X71225000Y-28231250D01*
X71225000Y-27793750D01*
X71226053Y-27772309D01*
X71229203Y-27751074D01*
X71234419Y-27730250D01*
X71241651Y-27710038D01*
X71250830Y-27690632D01*
X71261866Y-27672219D01*
X71274654Y-27654976D01*
X71289070Y-27639070D01*
X71304976Y-27624654D01*
X71322219Y-27611866D01*
X71340632Y-27600830D01*
X71360038Y-27591651D01*
X71380250Y-27584419D01*
X71401074Y-27579203D01*
X71422309Y-27576053D01*
X71443750Y-27575000D01*
X71956250Y-27575000D01*
X71977691Y-27576053D01*
X71977691Y-27576053D01*
G37*
D11*
X71700000Y-28012500D03*
D10*
G36*
X71977691Y-29151053D02*
X71998926Y-29154203D01*
X72019750Y-29159419D01*
X72039962Y-29166651D01*
X72059368Y-29175830D01*
X72077781Y-29186866D01*
X72095024Y-29199654D01*
X72110930Y-29214070D01*
X72125346Y-29229976D01*
X72138134Y-29247219D01*
X72149170Y-29265632D01*
X72158349Y-29285038D01*
X72165581Y-29305250D01*
X72170797Y-29326074D01*
X72173947Y-29347309D01*
X72175000Y-29368750D01*
X72175000Y-29806250D01*
X72173947Y-29827691D01*
X72170797Y-29848926D01*
X72165581Y-29869750D01*
X72158349Y-29889962D01*
X72149170Y-29909368D01*
X72138134Y-29927781D01*
X72125346Y-29945024D01*
X72110930Y-29960930D01*
X72095024Y-29975346D01*
X72077781Y-29988134D01*
X72059368Y-29999170D01*
X72039962Y-30008349D01*
X72019750Y-30015581D01*
X71998926Y-30020797D01*
X71977691Y-30023947D01*
X71956250Y-30025000D01*
X71443750Y-30025000D01*
X71422309Y-30023947D01*
X71401074Y-30020797D01*
X71380250Y-30015581D01*
X71360038Y-30008349D01*
X71340632Y-29999170D01*
X71322219Y-29988134D01*
X71304976Y-29975346D01*
X71289070Y-29960930D01*
X71274654Y-29945024D01*
X71261866Y-29927781D01*
X71250830Y-29909368D01*
X71241651Y-29889962D01*
X71234419Y-29869750D01*
X71229203Y-29848926D01*
X71226053Y-29827691D01*
X71225000Y-29806250D01*
X71225000Y-29368750D01*
X71226053Y-29347309D01*
X71229203Y-29326074D01*
X71234419Y-29305250D01*
X71241651Y-29285038D01*
X71250830Y-29265632D01*
X71261866Y-29247219D01*
X71274654Y-29229976D01*
X71289070Y-29214070D01*
X71304976Y-29199654D01*
X71322219Y-29186866D01*
X71340632Y-29175830D01*
X71360038Y-29166651D01*
X71380250Y-29159419D01*
X71401074Y-29154203D01*
X71422309Y-29151053D01*
X71443750Y-29150000D01*
X71956250Y-29150000D01*
X71977691Y-29151053D01*
X71977691Y-29151053D01*
G37*
D11*
X71700000Y-29587500D03*
G04 #@! TD*
D12*
G04 #@! TO.C,D30*
X21850000Y-43800000D03*
X21850000Y-47000000D03*
X16950000Y-43800000D03*
X16950000Y-47000000D03*
G04 #@! TD*
G04 #@! TO.C,D31*
X35650000Y-66100000D03*
X35650000Y-62900000D03*
X40550000Y-66100000D03*
X40550000Y-62900000D03*
G04 #@! TD*
G04 #@! TO.C,D29*
X35500000Y-29000000D03*
X35500000Y-25800000D03*
X40400000Y-29000000D03*
X40400000Y-25800000D03*
G04 #@! TD*
D10*
G04 #@! TO.C,C10*
G36*
X20427691Y-48526053D02*
X20448926Y-48529203D01*
X20469750Y-48534419D01*
X20489962Y-48541651D01*
X20509368Y-48550830D01*
X20527781Y-48561866D01*
X20545024Y-48574654D01*
X20560930Y-48589070D01*
X20575346Y-48604976D01*
X20588134Y-48622219D01*
X20599170Y-48640632D01*
X20608349Y-48660038D01*
X20615581Y-48680250D01*
X20620797Y-48701074D01*
X20623947Y-48722309D01*
X20625000Y-48743750D01*
X20625000Y-49256250D01*
X20623947Y-49277691D01*
X20620797Y-49298926D01*
X20615581Y-49319750D01*
X20608349Y-49339962D01*
X20599170Y-49359368D01*
X20588134Y-49377781D01*
X20575346Y-49395024D01*
X20560930Y-49410930D01*
X20545024Y-49425346D01*
X20527781Y-49438134D01*
X20509368Y-49449170D01*
X20489962Y-49458349D01*
X20469750Y-49465581D01*
X20448926Y-49470797D01*
X20427691Y-49473947D01*
X20406250Y-49475000D01*
X19968750Y-49475000D01*
X19947309Y-49473947D01*
X19926074Y-49470797D01*
X19905250Y-49465581D01*
X19885038Y-49458349D01*
X19865632Y-49449170D01*
X19847219Y-49438134D01*
X19829976Y-49425346D01*
X19814070Y-49410930D01*
X19799654Y-49395024D01*
X19786866Y-49377781D01*
X19775830Y-49359368D01*
X19766651Y-49339962D01*
X19759419Y-49319750D01*
X19754203Y-49298926D01*
X19751053Y-49277691D01*
X19750000Y-49256250D01*
X19750000Y-48743750D01*
X19751053Y-48722309D01*
X19754203Y-48701074D01*
X19759419Y-48680250D01*
X19766651Y-48660038D01*
X19775830Y-48640632D01*
X19786866Y-48622219D01*
X19799654Y-48604976D01*
X19814070Y-48589070D01*
X19829976Y-48574654D01*
X19847219Y-48561866D01*
X19865632Y-48550830D01*
X19885038Y-48541651D01*
X19905250Y-48534419D01*
X19926074Y-48529203D01*
X19947309Y-48526053D01*
X19968750Y-48525000D01*
X20406250Y-48525000D01*
X20427691Y-48526053D01*
X20427691Y-48526053D01*
G37*
D11*
X20187500Y-49000000D03*
D10*
G36*
X18852691Y-48526053D02*
X18873926Y-48529203D01*
X18894750Y-48534419D01*
X18914962Y-48541651D01*
X18934368Y-48550830D01*
X18952781Y-48561866D01*
X18970024Y-48574654D01*
X18985930Y-48589070D01*
X19000346Y-48604976D01*
X19013134Y-48622219D01*
X19024170Y-48640632D01*
X19033349Y-48660038D01*
X19040581Y-48680250D01*
X19045797Y-48701074D01*
X19048947Y-48722309D01*
X19050000Y-48743750D01*
X19050000Y-49256250D01*
X19048947Y-49277691D01*
X19045797Y-49298926D01*
X19040581Y-49319750D01*
X19033349Y-49339962D01*
X19024170Y-49359368D01*
X19013134Y-49377781D01*
X19000346Y-49395024D01*
X18985930Y-49410930D01*
X18970024Y-49425346D01*
X18952781Y-49438134D01*
X18934368Y-49449170D01*
X18914962Y-49458349D01*
X18894750Y-49465581D01*
X18873926Y-49470797D01*
X18852691Y-49473947D01*
X18831250Y-49475000D01*
X18393750Y-49475000D01*
X18372309Y-49473947D01*
X18351074Y-49470797D01*
X18330250Y-49465581D01*
X18310038Y-49458349D01*
X18290632Y-49449170D01*
X18272219Y-49438134D01*
X18254976Y-49425346D01*
X18239070Y-49410930D01*
X18224654Y-49395024D01*
X18211866Y-49377781D01*
X18200830Y-49359368D01*
X18191651Y-49339962D01*
X18184419Y-49319750D01*
X18179203Y-49298926D01*
X18176053Y-49277691D01*
X18175000Y-49256250D01*
X18175000Y-48743750D01*
X18176053Y-48722309D01*
X18179203Y-48701074D01*
X18184419Y-48680250D01*
X18191651Y-48660038D01*
X18200830Y-48640632D01*
X18211866Y-48622219D01*
X18224654Y-48604976D01*
X18239070Y-48589070D01*
X18254976Y-48574654D01*
X18272219Y-48561866D01*
X18290632Y-48550830D01*
X18310038Y-48541651D01*
X18330250Y-48534419D01*
X18351074Y-48529203D01*
X18372309Y-48526053D01*
X18393750Y-48525000D01*
X18831250Y-48525000D01*
X18852691Y-48526053D01*
X18852691Y-48526053D01*
G37*
D11*
X18612500Y-49000000D03*
G04 #@! TD*
D10*
G04 #@! TO.C,C9*
G36*
X38915191Y-30626053D02*
X38936426Y-30629203D01*
X38957250Y-30634419D01*
X38977462Y-30641651D01*
X38996868Y-30650830D01*
X39015281Y-30661866D01*
X39032524Y-30674654D01*
X39048430Y-30689070D01*
X39062846Y-30704976D01*
X39075634Y-30722219D01*
X39086670Y-30740632D01*
X39095849Y-30760038D01*
X39103081Y-30780250D01*
X39108297Y-30801074D01*
X39111447Y-30822309D01*
X39112500Y-30843750D01*
X39112500Y-31356250D01*
X39111447Y-31377691D01*
X39108297Y-31398926D01*
X39103081Y-31419750D01*
X39095849Y-31439962D01*
X39086670Y-31459368D01*
X39075634Y-31477781D01*
X39062846Y-31495024D01*
X39048430Y-31510930D01*
X39032524Y-31525346D01*
X39015281Y-31538134D01*
X38996868Y-31549170D01*
X38977462Y-31558349D01*
X38957250Y-31565581D01*
X38936426Y-31570797D01*
X38915191Y-31573947D01*
X38893750Y-31575000D01*
X38456250Y-31575000D01*
X38434809Y-31573947D01*
X38413574Y-31570797D01*
X38392750Y-31565581D01*
X38372538Y-31558349D01*
X38353132Y-31549170D01*
X38334719Y-31538134D01*
X38317476Y-31525346D01*
X38301570Y-31510930D01*
X38287154Y-31495024D01*
X38274366Y-31477781D01*
X38263330Y-31459368D01*
X38254151Y-31439962D01*
X38246919Y-31419750D01*
X38241703Y-31398926D01*
X38238553Y-31377691D01*
X38237500Y-31356250D01*
X38237500Y-30843750D01*
X38238553Y-30822309D01*
X38241703Y-30801074D01*
X38246919Y-30780250D01*
X38254151Y-30760038D01*
X38263330Y-30740632D01*
X38274366Y-30722219D01*
X38287154Y-30704976D01*
X38301570Y-30689070D01*
X38317476Y-30674654D01*
X38334719Y-30661866D01*
X38353132Y-30650830D01*
X38372538Y-30641651D01*
X38392750Y-30634419D01*
X38413574Y-30629203D01*
X38434809Y-30626053D01*
X38456250Y-30625000D01*
X38893750Y-30625000D01*
X38915191Y-30626053D01*
X38915191Y-30626053D01*
G37*
D11*
X38675000Y-31100000D03*
D10*
G36*
X37340191Y-30626053D02*
X37361426Y-30629203D01*
X37382250Y-30634419D01*
X37402462Y-30641651D01*
X37421868Y-30650830D01*
X37440281Y-30661866D01*
X37457524Y-30674654D01*
X37473430Y-30689070D01*
X37487846Y-30704976D01*
X37500634Y-30722219D01*
X37511670Y-30740632D01*
X37520849Y-30760038D01*
X37528081Y-30780250D01*
X37533297Y-30801074D01*
X37536447Y-30822309D01*
X37537500Y-30843750D01*
X37537500Y-31356250D01*
X37536447Y-31377691D01*
X37533297Y-31398926D01*
X37528081Y-31419750D01*
X37520849Y-31439962D01*
X37511670Y-31459368D01*
X37500634Y-31477781D01*
X37487846Y-31495024D01*
X37473430Y-31510930D01*
X37457524Y-31525346D01*
X37440281Y-31538134D01*
X37421868Y-31549170D01*
X37402462Y-31558349D01*
X37382250Y-31565581D01*
X37361426Y-31570797D01*
X37340191Y-31573947D01*
X37318750Y-31575000D01*
X36881250Y-31575000D01*
X36859809Y-31573947D01*
X36838574Y-31570797D01*
X36817750Y-31565581D01*
X36797538Y-31558349D01*
X36778132Y-31549170D01*
X36759719Y-31538134D01*
X36742476Y-31525346D01*
X36726570Y-31510930D01*
X36712154Y-31495024D01*
X36699366Y-31477781D01*
X36688330Y-31459368D01*
X36679151Y-31439962D01*
X36671919Y-31419750D01*
X36666703Y-31398926D01*
X36663553Y-31377691D01*
X36662500Y-31356250D01*
X36662500Y-30843750D01*
X36663553Y-30822309D01*
X36666703Y-30801074D01*
X36671919Y-30780250D01*
X36679151Y-30760038D01*
X36688330Y-30740632D01*
X36699366Y-30722219D01*
X36712154Y-30704976D01*
X36726570Y-30689070D01*
X36742476Y-30674654D01*
X36759719Y-30661866D01*
X36778132Y-30650830D01*
X36797538Y-30641651D01*
X36817750Y-30634419D01*
X36838574Y-30629203D01*
X36859809Y-30626053D01*
X36881250Y-30625000D01*
X37318750Y-30625000D01*
X37340191Y-30626053D01*
X37340191Y-30626053D01*
G37*
D11*
X37100000Y-31100000D03*
G04 #@! TD*
D10*
G04 #@! TO.C,C11*
G36*
X37452691Y-67626053D02*
X37473926Y-67629203D01*
X37494750Y-67634419D01*
X37514962Y-67641651D01*
X37534368Y-67650830D01*
X37552781Y-67661866D01*
X37570024Y-67674654D01*
X37585930Y-67689070D01*
X37600346Y-67704976D01*
X37613134Y-67722219D01*
X37624170Y-67740632D01*
X37633349Y-67760038D01*
X37640581Y-67780250D01*
X37645797Y-67801074D01*
X37648947Y-67822309D01*
X37650000Y-67843750D01*
X37650000Y-68356250D01*
X37648947Y-68377691D01*
X37645797Y-68398926D01*
X37640581Y-68419750D01*
X37633349Y-68439962D01*
X37624170Y-68459368D01*
X37613134Y-68477781D01*
X37600346Y-68495024D01*
X37585930Y-68510930D01*
X37570024Y-68525346D01*
X37552781Y-68538134D01*
X37534368Y-68549170D01*
X37514962Y-68558349D01*
X37494750Y-68565581D01*
X37473926Y-68570797D01*
X37452691Y-68573947D01*
X37431250Y-68575000D01*
X36993750Y-68575000D01*
X36972309Y-68573947D01*
X36951074Y-68570797D01*
X36930250Y-68565581D01*
X36910038Y-68558349D01*
X36890632Y-68549170D01*
X36872219Y-68538134D01*
X36854976Y-68525346D01*
X36839070Y-68510930D01*
X36824654Y-68495024D01*
X36811866Y-68477781D01*
X36800830Y-68459368D01*
X36791651Y-68439962D01*
X36784419Y-68419750D01*
X36779203Y-68398926D01*
X36776053Y-68377691D01*
X36775000Y-68356250D01*
X36775000Y-67843750D01*
X36776053Y-67822309D01*
X36779203Y-67801074D01*
X36784419Y-67780250D01*
X36791651Y-67760038D01*
X36800830Y-67740632D01*
X36811866Y-67722219D01*
X36824654Y-67704976D01*
X36839070Y-67689070D01*
X36854976Y-67674654D01*
X36872219Y-67661866D01*
X36890632Y-67650830D01*
X36910038Y-67641651D01*
X36930250Y-67634419D01*
X36951074Y-67629203D01*
X36972309Y-67626053D01*
X36993750Y-67625000D01*
X37431250Y-67625000D01*
X37452691Y-67626053D01*
X37452691Y-67626053D01*
G37*
D11*
X37212500Y-68100000D03*
D10*
G36*
X39027691Y-67626053D02*
X39048926Y-67629203D01*
X39069750Y-67634419D01*
X39089962Y-67641651D01*
X39109368Y-67650830D01*
X39127781Y-67661866D01*
X39145024Y-67674654D01*
X39160930Y-67689070D01*
X39175346Y-67704976D01*
X39188134Y-67722219D01*
X39199170Y-67740632D01*
X39208349Y-67760038D01*
X39215581Y-67780250D01*
X39220797Y-67801074D01*
X39223947Y-67822309D01*
X39225000Y-67843750D01*
X39225000Y-68356250D01*
X39223947Y-68377691D01*
X39220797Y-68398926D01*
X39215581Y-68419750D01*
X39208349Y-68439962D01*
X39199170Y-68459368D01*
X39188134Y-68477781D01*
X39175346Y-68495024D01*
X39160930Y-68510930D01*
X39145024Y-68525346D01*
X39127781Y-68538134D01*
X39109368Y-68549170D01*
X39089962Y-68558349D01*
X39069750Y-68565581D01*
X39048926Y-68570797D01*
X39027691Y-68573947D01*
X39006250Y-68575000D01*
X38568750Y-68575000D01*
X38547309Y-68573947D01*
X38526074Y-68570797D01*
X38505250Y-68565581D01*
X38485038Y-68558349D01*
X38465632Y-68549170D01*
X38447219Y-68538134D01*
X38429976Y-68525346D01*
X38414070Y-68510930D01*
X38399654Y-68495024D01*
X38386866Y-68477781D01*
X38375830Y-68459368D01*
X38366651Y-68439962D01*
X38359419Y-68419750D01*
X38354203Y-68398926D01*
X38351053Y-68377691D01*
X38350000Y-68356250D01*
X38350000Y-67843750D01*
X38351053Y-67822309D01*
X38354203Y-67801074D01*
X38359419Y-67780250D01*
X38366651Y-67760038D01*
X38375830Y-67740632D01*
X38386866Y-67722219D01*
X38399654Y-67704976D01*
X38414070Y-67689070D01*
X38429976Y-67674654D01*
X38447219Y-67661866D01*
X38465632Y-67650830D01*
X38485038Y-67641651D01*
X38505250Y-67634419D01*
X38526074Y-67629203D01*
X38547309Y-67626053D01*
X38568750Y-67625000D01*
X39006250Y-67625000D01*
X39027691Y-67626053D01*
X39027691Y-67626053D01*
G37*
D11*
X38787500Y-68100000D03*
G04 #@! TD*
D12*
G04 #@! TO.C,D34*
X78650000Y-62900000D03*
X78650000Y-66100000D03*
X73750000Y-62900000D03*
X73750000Y-66100000D03*
G04 #@! TD*
G04 #@! TO.C,D32*
X78750000Y-24800000D03*
X78750000Y-28000000D03*
X73850000Y-24800000D03*
X73850000Y-28000000D03*
G04 #@! TD*
G04 #@! TO.C,D33*
X97750000Y-43800000D03*
X97750000Y-47000000D03*
X92850000Y-43800000D03*
X92850000Y-47000000D03*
G04 #@! TD*
D13*
G04 #@! TO.C,SW5*
X93060000Y-19390000D03*
X79610000Y-21930000D03*
G04 #@! TD*
D14*
G04 #@! TO.C,D3*
X88334000Y-24788000D03*
X90234000Y-24788000D03*
X89284000Y-26788000D03*
G04 #@! TD*
D15*
G04 #@! TO.C,P4*
X98892500Y-1728000D03*
D16*
X91492500Y-6428000D03*
X98892500Y-4528000D03*
D17*
X98892500Y-13928000D03*
G04 #@! TD*
D14*
G04 #@! TO.C,D1*
X27882000Y-25042000D03*
X29782000Y-25042000D03*
X28832000Y-27042000D03*
G04 #@! TD*
D13*
G04 #@! TO.C,SW14*
X35910000Y-57490000D03*
X22460000Y-60030000D03*
G04 #@! TD*
D10*
G04 #@! TO.C,R5*
G36*
X52627691Y-2826053D02*
X52648926Y-2829203D01*
X52669750Y-2834419D01*
X52689962Y-2841651D01*
X52709368Y-2850830D01*
X52727781Y-2861866D01*
X52745024Y-2874654D01*
X52760930Y-2889070D01*
X52775346Y-2904976D01*
X52788134Y-2922219D01*
X52799170Y-2940632D01*
X52808349Y-2960038D01*
X52815581Y-2980250D01*
X52820797Y-3001074D01*
X52823947Y-3022309D01*
X52825000Y-3043750D01*
X52825000Y-3556250D01*
X52823947Y-3577691D01*
X52820797Y-3598926D01*
X52815581Y-3619750D01*
X52808349Y-3639962D01*
X52799170Y-3659368D01*
X52788134Y-3677781D01*
X52775346Y-3695024D01*
X52760930Y-3710930D01*
X52745024Y-3725346D01*
X52727781Y-3738134D01*
X52709368Y-3749170D01*
X52689962Y-3758349D01*
X52669750Y-3765581D01*
X52648926Y-3770797D01*
X52627691Y-3773947D01*
X52606250Y-3775000D01*
X52168750Y-3775000D01*
X52147309Y-3773947D01*
X52126074Y-3770797D01*
X52105250Y-3765581D01*
X52085038Y-3758349D01*
X52065632Y-3749170D01*
X52047219Y-3738134D01*
X52029976Y-3725346D01*
X52014070Y-3710930D01*
X51999654Y-3695024D01*
X51986866Y-3677781D01*
X51975830Y-3659368D01*
X51966651Y-3639962D01*
X51959419Y-3619750D01*
X51954203Y-3598926D01*
X51951053Y-3577691D01*
X51950000Y-3556250D01*
X51950000Y-3043750D01*
X51951053Y-3022309D01*
X51954203Y-3001074D01*
X51959419Y-2980250D01*
X51966651Y-2960038D01*
X51975830Y-2940632D01*
X51986866Y-2922219D01*
X51999654Y-2904976D01*
X52014070Y-2889070D01*
X52029976Y-2874654D01*
X52047219Y-2861866D01*
X52065632Y-2850830D01*
X52085038Y-2841651D01*
X52105250Y-2834419D01*
X52126074Y-2829203D01*
X52147309Y-2826053D01*
X52168750Y-2825000D01*
X52606250Y-2825000D01*
X52627691Y-2826053D01*
X52627691Y-2826053D01*
G37*
D11*
X52387500Y-3300000D03*
D10*
G36*
X51052691Y-2826053D02*
X51073926Y-2829203D01*
X51094750Y-2834419D01*
X51114962Y-2841651D01*
X51134368Y-2850830D01*
X51152781Y-2861866D01*
X51170024Y-2874654D01*
X51185930Y-2889070D01*
X51200346Y-2904976D01*
X51213134Y-2922219D01*
X51224170Y-2940632D01*
X51233349Y-2960038D01*
X51240581Y-2980250D01*
X51245797Y-3001074D01*
X51248947Y-3022309D01*
X51250000Y-3043750D01*
X51250000Y-3556250D01*
X51248947Y-3577691D01*
X51245797Y-3598926D01*
X51240581Y-3619750D01*
X51233349Y-3639962D01*
X51224170Y-3659368D01*
X51213134Y-3677781D01*
X51200346Y-3695024D01*
X51185930Y-3710930D01*
X51170024Y-3725346D01*
X51152781Y-3738134D01*
X51134368Y-3749170D01*
X51114962Y-3758349D01*
X51094750Y-3765581D01*
X51073926Y-3770797D01*
X51052691Y-3773947D01*
X51031250Y-3775000D01*
X50593750Y-3775000D01*
X50572309Y-3773947D01*
X50551074Y-3770797D01*
X50530250Y-3765581D01*
X50510038Y-3758349D01*
X50490632Y-3749170D01*
X50472219Y-3738134D01*
X50454976Y-3725346D01*
X50439070Y-3710930D01*
X50424654Y-3695024D01*
X50411866Y-3677781D01*
X50400830Y-3659368D01*
X50391651Y-3639962D01*
X50384419Y-3619750D01*
X50379203Y-3598926D01*
X50376053Y-3577691D01*
X50375000Y-3556250D01*
X50375000Y-3043750D01*
X50376053Y-3022309D01*
X50379203Y-3001074D01*
X50384419Y-2980250D01*
X50391651Y-2960038D01*
X50400830Y-2940632D01*
X50411866Y-2922219D01*
X50424654Y-2904976D01*
X50439070Y-2889070D01*
X50454976Y-2874654D01*
X50472219Y-2861866D01*
X50490632Y-2850830D01*
X50510038Y-2841651D01*
X50530250Y-2834419D01*
X50551074Y-2829203D01*
X50572309Y-2826053D01*
X50593750Y-2825000D01*
X51031250Y-2825000D01*
X51052691Y-2826053D01*
X51052691Y-2826053D01*
G37*
D11*
X50812500Y-3300000D03*
G04 #@! TD*
D13*
G04 #@! TO.C,SW2*
X35910000Y-19390000D03*
X22460000Y-21930000D03*
G04 #@! TD*
D10*
G04 #@! TO.C,R1*
G36*
X75224191Y-34967053D02*
X75245426Y-34970203D01*
X75266250Y-34975419D01*
X75286462Y-34982651D01*
X75305868Y-34991830D01*
X75324281Y-35002866D01*
X75341524Y-35015654D01*
X75357430Y-35030070D01*
X75371846Y-35045976D01*
X75384634Y-35063219D01*
X75395670Y-35081632D01*
X75404849Y-35101038D01*
X75412081Y-35121250D01*
X75417297Y-35142074D01*
X75420447Y-35163309D01*
X75421500Y-35184750D01*
X75421500Y-35622250D01*
X75420447Y-35643691D01*
X75417297Y-35664926D01*
X75412081Y-35685750D01*
X75404849Y-35705962D01*
X75395670Y-35725368D01*
X75384634Y-35743781D01*
X75371846Y-35761024D01*
X75357430Y-35776930D01*
X75341524Y-35791346D01*
X75324281Y-35804134D01*
X75305868Y-35815170D01*
X75286462Y-35824349D01*
X75266250Y-35831581D01*
X75245426Y-35836797D01*
X75224191Y-35839947D01*
X75202750Y-35841000D01*
X74690250Y-35841000D01*
X74668809Y-35839947D01*
X74647574Y-35836797D01*
X74626750Y-35831581D01*
X74606538Y-35824349D01*
X74587132Y-35815170D01*
X74568719Y-35804134D01*
X74551476Y-35791346D01*
X74535570Y-35776930D01*
X74521154Y-35761024D01*
X74508366Y-35743781D01*
X74497330Y-35725368D01*
X74488151Y-35705962D01*
X74480919Y-35685750D01*
X74475703Y-35664926D01*
X74472553Y-35643691D01*
X74471500Y-35622250D01*
X74471500Y-35184750D01*
X74472553Y-35163309D01*
X74475703Y-35142074D01*
X74480919Y-35121250D01*
X74488151Y-35101038D01*
X74497330Y-35081632D01*
X74508366Y-35063219D01*
X74521154Y-35045976D01*
X74535570Y-35030070D01*
X74551476Y-35015654D01*
X74568719Y-35002866D01*
X74587132Y-34991830D01*
X74606538Y-34982651D01*
X74626750Y-34975419D01*
X74647574Y-34970203D01*
X74668809Y-34967053D01*
X74690250Y-34966000D01*
X75202750Y-34966000D01*
X75224191Y-34967053D01*
X75224191Y-34967053D01*
G37*
D11*
X74946500Y-35403500D03*
D10*
G36*
X75224191Y-33392053D02*
X75245426Y-33395203D01*
X75266250Y-33400419D01*
X75286462Y-33407651D01*
X75305868Y-33416830D01*
X75324281Y-33427866D01*
X75341524Y-33440654D01*
X75357430Y-33455070D01*
X75371846Y-33470976D01*
X75384634Y-33488219D01*
X75395670Y-33506632D01*
X75404849Y-33526038D01*
X75412081Y-33546250D01*
X75417297Y-33567074D01*
X75420447Y-33588309D01*
X75421500Y-33609750D01*
X75421500Y-34047250D01*
X75420447Y-34068691D01*
X75417297Y-34089926D01*
X75412081Y-34110750D01*
X75404849Y-34130962D01*
X75395670Y-34150368D01*
X75384634Y-34168781D01*
X75371846Y-34186024D01*
X75357430Y-34201930D01*
X75341524Y-34216346D01*
X75324281Y-34229134D01*
X75305868Y-34240170D01*
X75286462Y-34249349D01*
X75266250Y-34256581D01*
X75245426Y-34261797D01*
X75224191Y-34264947D01*
X75202750Y-34266000D01*
X74690250Y-34266000D01*
X74668809Y-34264947D01*
X74647574Y-34261797D01*
X74626750Y-34256581D01*
X74606538Y-34249349D01*
X74587132Y-34240170D01*
X74568719Y-34229134D01*
X74551476Y-34216346D01*
X74535570Y-34201930D01*
X74521154Y-34186024D01*
X74508366Y-34168781D01*
X74497330Y-34150368D01*
X74488151Y-34130962D01*
X74480919Y-34110750D01*
X74475703Y-34089926D01*
X74472553Y-34068691D01*
X74471500Y-34047250D01*
X74471500Y-33609750D01*
X74472553Y-33588309D01*
X74475703Y-33567074D01*
X74480919Y-33546250D01*
X74488151Y-33526038D01*
X74497330Y-33506632D01*
X74508366Y-33488219D01*
X74521154Y-33470976D01*
X74535570Y-33455070D01*
X74551476Y-33440654D01*
X74568719Y-33427866D01*
X74587132Y-33416830D01*
X74606538Y-33407651D01*
X74626750Y-33400419D01*
X74647574Y-33395203D01*
X74668809Y-33392053D01*
X74690250Y-33391000D01*
X75202750Y-33391000D01*
X75224191Y-33392053D01*
X75224191Y-33392053D01*
G37*
D11*
X74946500Y-33828500D03*
G04 #@! TD*
D14*
G04 #@! TO.C,D5*
X57407000Y-45838000D03*
X58357000Y-43838000D03*
X56457000Y-43838000D03*
G04 #@! TD*
G04 #@! TO.C,D9*
X89538000Y-65142000D03*
X90488000Y-63142000D03*
X88588000Y-63142000D03*
G04 #@! TD*
G04 #@! TO.C,D4*
X26100000Y-45838000D03*
X27050000Y-43838000D03*
X25150000Y-43838000D03*
G04 #@! TD*
G04 #@! TO.C,D11*
X57153000Y-77207000D03*
X58103000Y-75207000D03*
X56203000Y-75207000D03*
G04 #@! TD*
D18*
G04 #@! TO.C,U1*
X54568158Y-7825280D03*
X55068538Y-7825280D03*
X55568918Y-7825280D03*
X56069298Y-7825280D03*
X56569678Y-7825280D03*
X57067518Y-7825280D03*
X57565358Y-7825280D03*
X58065738Y-7825280D03*
X58566118Y-7825280D03*
X59066498Y-7825280D03*
X59566878Y-7825280D03*
D19*
X60415238Y-8673640D03*
X60415238Y-9174020D03*
X60415238Y-9674400D03*
X60415238Y-10174780D03*
X60415238Y-10675160D03*
X60415238Y-11173000D03*
X60415238Y-11670840D03*
X60415238Y-12171220D03*
X60415238Y-12671600D03*
X60415238Y-13171980D03*
X60415238Y-13672360D03*
D18*
X59566878Y-14520720D03*
X59066498Y-14520720D03*
X58566118Y-14520720D03*
X58065738Y-14520720D03*
X57565358Y-14520720D03*
X57067518Y-14520720D03*
X56569678Y-14520720D03*
X56069298Y-14520720D03*
X55568918Y-14520720D03*
X55068538Y-14520720D03*
X54568158Y-14520720D03*
D19*
X53719798Y-13672360D03*
X53719798Y-13171980D03*
X53719798Y-12671600D03*
X53719798Y-12171220D03*
X53719798Y-11670840D03*
X53719798Y-11173000D03*
X53719798Y-10675160D03*
X53719798Y-10174780D03*
X53719798Y-9674400D03*
X53719798Y-9174020D03*
X53719798Y-8673640D03*
D20*
X57067518Y-11173000D03*
G04 #@! TD*
D13*
G04 #@! TO.C,SW22*
X59290000Y-71460000D03*
X72740000Y-68920000D03*
G04 #@! TD*
D10*
G04 #@! TO.C,R3*
G36*
X57961691Y-20551053D02*
X57982926Y-20554203D01*
X58003750Y-20559419D01*
X58023962Y-20566651D01*
X58043368Y-20575830D01*
X58061781Y-20586866D01*
X58079024Y-20599654D01*
X58094930Y-20614070D01*
X58109346Y-20629976D01*
X58122134Y-20647219D01*
X58133170Y-20665632D01*
X58142349Y-20685038D01*
X58149581Y-20705250D01*
X58154797Y-20726074D01*
X58157947Y-20747309D01*
X58159000Y-20768750D01*
X58159000Y-21206250D01*
X58157947Y-21227691D01*
X58154797Y-21248926D01*
X58149581Y-21269750D01*
X58142349Y-21289962D01*
X58133170Y-21309368D01*
X58122134Y-21327781D01*
X58109346Y-21345024D01*
X58094930Y-21360930D01*
X58079024Y-21375346D01*
X58061781Y-21388134D01*
X58043368Y-21399170D01*
X58023962Y-21408349D01*
X58003750Y-21415581D01*
X57982926Y-21420797D01*
X57961691Y-21423947D01*
X57940250Y-21425000D01*
X57427750Y-21425000D01*
X57406309Y-21423947D01*
X57385074Y-21420797D01*
X57364250Y-21415581D01*
X57344038Y-21408349D01*
X57324632Y-21399170D01*
X57306219Y-21388134D01*
X57288976Y-21375346D01*
X57273070Y-21360930D01*
X57258654Y-21345024D01*
X57245866Y-21327781D01*
X57234830Y-21309368D01*
X57225651Y-21289962D01*
X57218419Y-21269750D01*
X57213203Y-21248926D01*
X57210053Y-21227691D01*
X57209000Y-21206250D01*
X57209000Y-20768750D01*
X57210053Y-20747309D01*
X57213203Y-20726074D01*
X57218419Y-20705250D01*
X57225651Y-20685038D01*
X57234830Y-20665632D01*
X57245866Y-20647219D01*
X57258654Y-20629976D01*
X57273070Y-20614070D01*
X57288976Y-20599654D01*
X57306219Y-20586866D01*
X57324632Y-20575830D01*
X57344038Y-20566651D01*
X57364250Y-20559419D01*
X57385074Y-20554203D01*
X57406309Y-20551053D01*
X57427750Y-20550000D01*
X57940250Y-20550000D01*
X57961691Y-20551053D01*
X57961691Y-20551053D01*
G37*
D11*
X57684000Y-20987500D03*
D10*
G36*
X57961691Y-18976053D02*
X57982926Y-18979203D01*
X58003750Y-18984419D01*
X58023962Y-18991651D01*
X58043368Y-19000830D01*
X58061781Y-19011866D01*
X58079024Y-19024654D01*
X58094930Y-19039070D01*
X58109346Y-19054976D01*
X58122134Y-19072219D01*
X58133170Y-19090632D01*
X58142349Y-19110038D01*
X58149581Y-19130250D01*
X58154797Y-19151074D01*
X58157947Y-19172309D01*
X58159000Y-19193750D01*
X58159000Y-19631250D01*
X58157947Y-19652691D01*
X58154797Y-19673926D01*
X58149581Y-19694750D01*
X58142349Y-19714962D01*
X58133170Y-19734368D01*
X58122134Y-19752781D01*
X58109346Y-19770024D01*
X58094930Y-19785930D01*
X58079024Y-19800346D01*
X58061781Y-19813134D01*
X58043368Y-19824170D01*
X58023962Y-19833349D01*
X58003750Y-19840581D01*
X57982926Y-19845797D01*
X57961691Y-19848947D01*
X57940250Y-19850000D01*
X57427750Y-19850000D01*
X57406309Y-19848947D01*
X57385074Y-19845797D01*
X57364250Y-19840581D01*
X57344038Y-19833349D01*
X57324632Y-19824170D01*
X57306219Y-19813134D01*
X57288976Y-19800346D01*
X57273070Y-19785930D01*
X57258654Y-19770024D01*
X57245866Y-19752781D01*
X57234830Y-19734368D01*
X57225651Y-19714962D01*
X57218419Y-19694750D01*
X57213203Y-19673926D01*
X57210053Y-19652691D01*
X57209000Y-19631250D01*
X57209000Y-19193750D01*
X57210053Y-19172309D01*
X57213203Y-19151074D01*
X57218419Y-19130250D01*
X57225651Y-19110038D01*
X57234830Y-19090632D01*
X57245866Y-19072219D01*
X57258654Y-19054976D01*
X57273070Y-19039070D01*
X57288976Y-19024654D01*
X57306219Y-19011866D01*
X57324632Y-19000830D01*
X57344038Y-18991651D01*
X57364250Y-18984419D01*
X57385074Y-18979203D01*
X57406309Y-18976053D01*
X57427750Y-18975000D01*
X57940250Y-18975000D01*
X57961691Y-18976053D01*
X57961691Y-18976053D01*
G37*
D11*
X57684000Y-19412500D03*
G04 #@! TD*
D13*
G04 #@! TO.C,SW17*
X93060000Y-57490000D03*
X79610000Y-60030000D03*
G04 #@! TD*
G04 #@! TO.C,SW20*
X21190000Y-71460000D03*
X34640000Y-68920000D03*
G04 #@! TD*
D10*
G04 #@! TO.C,R13*
G36*
X50977691Y-14576053D02*
X50998926Y-14579203D01*
X51019750Y-14584419D01*
X51039962Y-14591651D01*
X51059368Y-14600830D01*
X51077781Y-14611866D01*
X51095024Y-14624654D01*
X51110930Y-14639070D01*
X51125346Y-14654976D01*
X51138134Y-14672219D01*
X51149170Y-14690632D01*
X51158349Y-14710038D01*
X51165581Y-14730250D01*
X51170797Y-14751074D01*
X51173947Y-14772309D01*
X51175000Y-14793750D01*
X51175000Y-15231250D01*
X51173947Y-15252691D01*
X51170797Y-15273926D01*
X51165581Y-15294750D01*
X51158349Y-15314962D01*
X51149170Y-15334368D01*
X51138134Y-15352781D01*
X51125346Y-15370024D01*
X51110930Y-15385930D01*
X51095024Y-15400346D01*
X51077781Y-15413134D01*
X51059368Y-15424170D01*
X51039962Y-15433349D01*
X51019750Y-15440581D01*
X50998926Y-15445797D01*
X50977691Y-15448947D01*
X50956250Y-15450000D01*
X50443750Y-15450000D01*
X50422309Y-15448947D01*
X50401074Y-15445797D01*
X50380250Y-15440581D01*
X50360038Y-15433349D01*
X50340632Y-15424170D01*
X50322219Y-15413134D01*
X50304976Y-15400346D01*
X50289070Y-15385930D01*
X50274654Y-15370024D01*
X50261866Y-15352781D01*
X50250830Y-15334368D01*
X50241651Y-15314962D01*
X50234419Y-15294750D01*
X50229203Y-15273926D01*
X50226053Y-15252691D01*
X50225000Y-15231250D01*
X50225000Y-14793750D01*
X50226053Y-14772309D01*
X50229203Y-14751074D01*
X50234419Y-14730250D01*
X50241651Y-14710038D01*
X50250830Y-14690632D01*
X50261866Y-14672219D01*
X50274654Y-14654976D01*
X50289070Y-14639070D01*
X50304976Y-14624654D01*
X50322219Y-14611866D01*
X50340632Y-14600830D01*
X50360038Y-14591651D01*
X50380250Y-14584419D01*
X50401074Y-14579203D01*
X50422309Y-14576053D01*
X50443750Y-14575000D01*
X50956250Y-14575000D01*
X50977691Y-14576053D01*
X50977691Y-14576053D01*
G37*
D11*
X50700000Y-15012500D03*
D10*
G36*
X50977691Y-16151053D02*
X50998926Y-16154203D01*
X51019750Y-16159419D01*
X51039962Y-16166651D01*
X51059368Y-16175830D01*
X51077781Y-16186866D01*
X51095024Y-16199654D01*
X51110930Y-16214070D01*
X51125346Y-16229976D01*
X51138134Y-16247219D01*
X51149170Y-16265632D01*
X51158349Y-16285038D01*
X51165581Y-16305250D01*
X51170797Y-16326074D01*
X51173947Y-16347309D01*
X51175000Y-16368750D01*
X51175000Y-16806250D01*
X51173947Y-16827691D01*
X51170797Y-16848926D01*
X51165581Y-16869750D01*
X51158349Y-16889962D01*
X51149170Y-16909368D01*
X51138134Y-16927781D01*
X51125346Y-16945024D01*
X51110930Y-16960930D01*
X51095024Y-16975346D01*
X51077781Y-16988134D01*
X51059368Y-16999170D01*
X51039962Y-17008349D01*
X51019750Y-17015581D01*
X50998926Y-17020797D01*
X50977691Y-17023947D01*
X50956250Y-17025000D01*
X50443750Y-17025000D01*
X50422309Y-17023947D01*
X50401074Y-17020797D01*
X50380250Y-17015581D01*
X50360038Y-17008349D01*
X50340632Y-16999170D01*
X50322219Y-16988134D01*
X50304976Y-16975346D01*
X50289070Y-16960930D01*
X50274654Y-16945024D01*
X50261866Y-16927781D01*
X50250830Y-16909368D01*
X50241651Y-16889962D01*
X50234419Y-16869750D01*
X50229203Y-16848926D01*
X50226053Y-16827691D01*
X50225000Y-16806250D01*
X50225000Y-16368750D01*
X50226053Y-16347309D01*
X50229203Y-16326074D01*
X50234419Y-16305250D01*
X50241651Y-16285038D01*
X50250830Y-16265632D01*
X50261866Y-16247219D01*
X50274654Y-16229976D01*
X50289070Y-16214070D01*
X50304976Y-16199654D01*
X50322219Y-16186866D01*
X50340632Y-16175830D01*
X50360038Y-16166651D01*
X50380250Y-16159419D01*
X50401074Y-16154203D01*
X50422309Y-16151053D01*
X50443750Y-16150000D01*
X50956250Y-16150000D01*
X50977691Y-16151053D01*
X50977691Y-16151053D01*
G37*
D11*
X50700000Y-16587500D03*
G04 #@! TD*
D14*
G04 #@! TO.C,D7*
X27181000Y-65015000D03*
X28131000Y-63015000D03*
X26231000Y-63015000D03*
G04 #@! TD*
D13*
G04 #@! TO.C,SW19*
X2140000Y-71460000D03*
X15590000Y-68920000D03*
G04 #@! TD*
G04 #@! TO.C,SW3*
X54960000Y-19390000D03*
X41510000Y-21930000D03*
G04 #@! TD*
G04 #@! TO.C,SW12*
X112110000Y-38440000D03*
X98660000Y-40980000D03*
G04 #@! TD*
G04 #@! TO.C,SW21*
X40240000Y-71460000D03*
X53690000Y-68920000D03*
G04 #@! TD*
G04 #@! TO.C,SW16*
X74010000Y-57490000D03*
X60560000Y-60030000D03*
G04 #@! TD*
G04 #@! TO.C,SW9*
X54960000Y-38440000D03*
X41510000Y-40980000D03*
G04 #@! TD*
D14*
G04 #@! TO.C,D10*
X18103000Y-75207000D03*
X20003000Y-75207000D03*
X19053000Y-77207000D03*
G04 #@! TD*
G04 #@! TO.C,D12*
X76076000Y-77207000D03*
X77026000Y-75207000D03*
X75126000Y-75207000D03*
G04 #@! TD*
D10*
G04 #@! TO.C,R4*
G36*
X52627691Y-4326053D02*
X52648926Y-4329203D01*
X52669750Y-4334419D01*
X52689962Y-4341651D01*
X52709368Y-4350830D01*
X52727781Y-4361866D01*
X52745024Y-4374654D01*
X52760930Y-4389070D01*
X52775346Y-4404976D01*
X52788134Y-4422219D01*
X52799170Y-4440632D01*
X52808349Y-4460038D01*
X52815581Y-4480250D01*
X52820797Y-4501074D01*
X52823947Y-4522309D01*
X52825000Y-4543750D01*
X52825000Y-5056250D01*
X52823947Y-5077691D01*
X52820797Y-5098926D01*
X52815581Y-5119750D01*
X52808349Y-5139962D01*
X52799170Y-5159368D01*
X52788134Y-5177781D01*
X52775346Y-5195024D01*
X52760930Y-5210930D01*
X52745024Y-5225346D01*
X52727781Y-5238134D01*
X52709368Y-5249170D01*
X52689962Y-5258349D01*
X52669750Y-5265581D01*
X52648926Y-5270797D01*
X52627691Y-5273947D01*
X52606250Y-5275000D01*
X52168750Y-5275000D01*
X52147309Y-5273947D01*
X52126074Y-5270797D01*
X52105250Y-5265581D01*
X52085038Y-5258349D01*
X52065632Y-5249170D01*
X52047219Y-5238134D01*
X52029976Y-5225346D01*
X52014070Y-5210930D01*
X51999654Y-5195024D01*
X51986866Y-5177781D01*
X51975830Y-5159368D01*
X51966651Y-5139962D01*
X51959419Y-5119750D01*
X51954203Y-5098926D01*
X51951053Y-5077691D01*
X51950000Y-5056250D01*
X51950000Y-4543750D01*
X51951053Y-4522309D01*
X51954203Y-4501074D01*
X51959419Y-4480250D01*
X51966651Y-4460038D01*
X51975830Y-4440632D01*
X51986866Y-4422219D01*
X51999654Y-4404976D01*
X52014070Y-4389070D01*
X52029976Y-4374654D01*
X52047219Y-4361866D01*
X52065632Y-4350830D01*
X52085038Y-4341651D01*
X52105250Y-4334419D01*
X52126074Y-4329203D01*
X52147309Y-4326053D01*
X52168750Y-4325000D01*
X52606250Y-4325000D01*
X52627691Y-4326053D01*
X52627691Y-4326053D01*
G37*
D11*
X52387500Y-4800000D03*
D10*
G36*
X51052691Y-4326053D02*
X51073926Y-4329203D01*
X51094750Y-4334419D01*
X51114962Y-4341651D01*
X51134368Y-4350830D01*
X51152781Y-4361866D01*
X51170024Y-4374654D01*
X51185930Y-4389070D01*
X51200346Y-4404976D01*
X51213134Y-4422219D01*
X51224170Y-4440632D01*
X51233349Y-4460038D01*
X51240581Y-4480250D01*
X51245797Y-4501074D01*
X51248947Y-4522309D01*
X51250000Y-4543750D01*
X51250000Y-5056250D01*
X51248947Y-5077691D01*
X51245797Y-5098926D01*
X51240581Y-5119750D01*
X51233349Y-5139962D01*
X51224170Y-5159368D01*
X51213134Y-5177781D01*
X51200346Y-5195024D01*
X51185930Y-5210930D01*
X51170024Y-5225346D01*
X51152781Y-5238134D01*
X51134368Y-5249170D01*
X51114962Y-5258349D01*
X51094750Y-5265581D01*
X51073926Y-5270797D01*
X51052691Y-5273947D01*
X51031250Y-5275000D01*
X50593750Y-5275000D01*
X50572309Y-5273947D01*
X50551074Y-5270797D01*
X50530250Y-5265581D01*
X50510038Y-5258349D01*
X50490632Y-5249170D01*
X50472219Y-5238134D01*
X50454976Y-5225346D01*
X50439070Y-5210930D01*
X50424654Y-5195024D01*
X50411866Y-5177781D01*
X50400830Y-5159368D01*
X50391651Y-5139962D01*
X50384419Y-5119750D01*
X50379203Y-5098926D01*
X50376053Y-5077691D01*
X50375000Y-5056250D01*
X50375000Y-4543750D01*
X50376053Y-4522309D01*
X50379203Y-4501074D01*
X50384419Y-4480250D01*
X50391651Y-4460038D01*
X50400830Y-4440632D01*
X50411866Y-4422219D01*
X50424654Y-4404976D01*
X50439070Y-4389070D01*
X50454976Y-4374654D01*
X50472219Y-4361866D01*
X50490632Y-4350830D01*
X50510038Y-4341651D01*
X50530250Y-4334419D01*
X50551074Y-4329203D01*
X50572309Y-4326053D01*
X50593750Y-4325000D01*
X51031250Y-4325000D01*
X51052691Y-4326053D01*
X51052691Y-4326053D01*
G37*
D11*
X50812500Y-4800000D03*
G04 #@! TD*
D14*
G04 #@! TO.C,D6*
X88450000Y-43838000D03*
X90350000Y-43838000D03*
X89400000Y-45838000D03*
G04 #@! TD*
D10*
G04 #@! TO.C,R2*
G36*
X77637191Y-34967053D02*
X77658426Y-34970203D01*
X77679250Y-34975419D01*
X77699462Y-34982651D01*
X77718868Y-34991830D01*
X77737281Y-35002866D01*
X77754524Y-35015654D01*
X77770430Y-35030070D01*
X77784846Y-35045976D01*
X77797634Y-35063219D01*
X77808670Y-35081632D01*
X77817849Y-35101038D01*
X77825081Y-35121250D01*
X77830297Y-35142074D01*
X77833447Y-35163309D01*
X77834500Y-35184750D01*
X77834500Y-35622250D01*
X77833447Y-35643691D01*
X77830297Y-35664926D01*
X77825081Y-35685750D01*
X77817849Y-35705962D01*
X77808670Y-35725368D01*
X77797634Y-35743781D01*
X77784846Y-35761024D01*
X77770430Y-35776930D01*
X77754524Y-35791346D01*
X77737281Y-35804134D01*
X77718868Y-35815170D01*
X77699462Y-35824349D01*
X77679250Y-35831581D01*
X77658426Y-35836797D01*
X77637191Y-35839947D01*
X77615750Y-35841000D01*
X77103250Y-35841000D01*
X77081809Y-35839947D01*
X77060574Y-35836797D01*
X77039750Y-35831581D01*
X77019538Y-35824349D01*
X77000132Y-35815170D01*
X76981719Y-35804134D01*
X76964476Y-35791346D01*
X76948570Y-35776930D01*
X76934154Y-35761024D01*
X76921366Y-35743781D01*
X76910330Y-35725368D01*
X76901151Y-35705962D01*
X76893919Y-35685750D01*
X76888703Y-35664926D01*
X76885553Y-35643691D01*
X76884500Y-35622250D01*
X76884500Y-35184750D01*
X76885553Y-35163309D01*
X76888703Y-35142074D01*
X76893919Y-35121250D01*
X76901151Y-35101038D01*
X76910330Y-35081632D01*
X76921366Y-35063219D01*
X76934154Y-35045976D01*
X76948570Y-35030070D01*
X76964476Y-35015654D01*
X76981719Y-35002866D01*
X77000132Y-34991830D01*
X77019538Y-34982651D01*
X77039750Y-34975419D01*
X77060574Y-34970203D01*
X77081809Y-34967053D01*
X77103250Y-34966000D01*
X77615750Y-34966000D01*
X77637191Y-34967053D01*
X77637191Y-34967053D01*
G37*
D11*
X77359500Y-35403500D03*
D10*
G36*
X77637191Y-33392053D02*
X77658426Y-33395203D01*
X77679250Y-33400419D01*
X77699462Y-33407651D01*
X77718868Y-33416830D01*
X77737281Y-33427866D01*
X77754524Y-33440654D01*
X77770430Y-33455070D01*
X77784846Y-33470976D01*
X77797634Y-33488219D01*
X77808670Y-33506632D01*
X77817849Y-33526038D01*
X77825081Y-33546250D01*
X77830297Y-33567074D01*
X77833447Y-33588309D01*
X77834500Y-33609750D01*
X77834500Y-34047250D01*
X77833447Y-34068691D01*
X77830297Y-34089926D01*
X77825081Y-34110750D01*
X77817849Y-34130962D01*
X77808670Y-34150368D01*
X77797634Y-34168781D01*
X77784846Y-34186024D01*
X77770430Y-34201930D01*
X77754524Y-34216346D01*
X77737281Y-34229134D01*
X77718868Y-34240170D01*
X77699462Y-34249349D01*
X77679250Y-34256581D01*
X77658426Y-34261797D01*
X77637191Y-34264947D01*
X77615750Y-34266000D01*
X77103250Y-34266000D01*
X77081809Y-34264947D01*
X77060574Y-34261797D01*
X77039750Y-34256581D01*
X77019538Y-34249349D01*
X77000132Y-34240170D01*
X76981719Y-34229134D01*
X76964476Y-34216346D01*
X76948570Y-34201930D01*
X76934154Y-34186024D01*
X76921366Y-34168781D01*
X76910330Y-34150368D01*
X76901151Y-34130962D01*
X76893919Y-34110750D01*
X76888703Y-34089926D01*
X76885553Y-34068691D01*
X76884500Y-34047250D01*
X76884500Y-33609750D01*
X76885553Y-33588309D01*
X76888703Y-33567074D01*
X76893919Y-33546250D01*
X76901151Y-33526038D01*
X76910330Y-33506632D01*
X76921366Y-33488219D01*
X76934154Y-33470976D01*
X76948570Y-33455070D01*
X76964476Y-33440654D01*
X76981719Y-33427866D01*
X77000132Y-33416830D01*
X77019538Y-33407651D01*
X77039750Y-33400419D01*
X77060574Y-33395203D01*
X77081809Y-33392053D01*
X77103250Y-33391000D01*
X77615750Y-33391000D01*
X77637191Y-33392053D01*
X77637191Y-33392053D01*
G37*
D11*
X77359500Y-33828500D03*
G04 #@! TD*
D10*
G04 #@! TO.C,R11*
G36*
X50527691Y-13126053D02*
X50548926Y-13129203D01*
X50569750Y-13134419D01*
X50589962Y-13141651D01*
X50609368Y-13150830D01*
X50627781Y-13161866D01*
X50645024Y-13174654D01*
X50660930Y-13189070D01*
X50675346Y-13204976D01*
X50688134Y-13222219D01*
X50699170Y-13240632D01*
X50708349Y-13260038D01*
X50715581Y-13280250D01*
X50720797Y-13301074D01*
X50723947Y-13322309D01*
X50725000Y-13343750D01*
X50725000Y-13856250D01*
X50723947Y-13877691D01*
X50720797Y-13898926D01*
X50715581Y-13919750D01*
X50708349Y-13939962D01*
X50699170Y-13959368D01*
X50688134Y-13977781D01*
X50675346Y-13995024D01*
X50660930Y-14010930D01*
X50645024Y-14025346D01*
X50627781Y-14038134D01*
X50609368Y-14049170D01*
X50589962Y-14058349D01*
X50569750Y-14065581D01*
X50548926Y-14070797D01*
X50527691Y-14073947D01*
X50506250Y-14075000D01*
X50068750Y-14075000D01*
X50047309Y-14073947D01*
X50026074Y-14070797D01*
X50005250Y-14065581D01*
X49985038Y-14058349D01*
X49965632Y-14049170D01*
X49947219Y-14038134D01*
X49929976Y-14025346D01*
X49914070Y-14010930D01*
X49899654Y-13995024D01*
X49886866Y-13977781D01*
X49875830Y-13959368D01*
X49866651Y-13939962D01*
X49859419Y-13919750D01*
X49854203Y-13898926D01*
X49851053Y-13877691D01*
X49850000Y-13856250D01*
X49850000Y-13343750D01*
X49851053Y-13322309D01*
X49854203Y-13301074D01*
X49859419Y-13280250D01*
X49866651Y-13260038D01*
X49875830Y-13240632D01*
X49886866Y-13222219D01*
X49899654Y-13204976D01*
X49914070Y-13189070D01*
X49929976Y-13174654D01*
X49947219Y-13161866D01*
X49965632Y-13150830D01*
X49985038Y-13141651D01*
X50005250Y-13134419D01*
X50026074Y-13129203D01*
X50047309Y-13126053D01*
X50068750Y-13125000D01*
X50506250Y-13125000D01*
X50527691Y-13126053D01*
X50527691Y-13126053D01*
G37*
D11*
X50287500Y-13600000D03*
D10*
G36*
X48952691Y-13126053D02*
X48973926Y-13129203D01*
X48994750Y-13134419D01*
X49014962Y-13141651D01*
X49034368Y-13150830D01*
X49052781Y-13161866D01*
X49070024Y-13174654D01*
X49085930Y-13189070D01*
X49100346Y-13204976D01*
X49113134Y-13222219D01*
X49124170Y-13240632D01*
X49133349Y-13260038D01*
X49140581Y-13280250D01*
X49145797Y-13301074D01*
X49148947Y-13322309D01*
X49150000Y-13343750D01*
X49150000Y-13856250D01*
X49148947Y-13877691D01*
X49145797Y-13898926D01*
X49140581Y-13919750D01*
X49133349Y-13939962D01*
X49124170Y-13959368D01*
X49113134Y-13977781D01*
X49100346Y-13995024D01*
X49085930Y-14010930D01*
X49070024Y-14025346D01*
X49052781Y-14038134D01*
X49034368Y-14049170D01*
X49014962Y-14058349D01*
X48994750Y-14065581D01*
X48973926Y-14070797D01*
X48952691Y-14073947D01*
X48931250Y-14075000D01*
X48493750Y-14075000D01*
X48472309Y-14073947D01*
X48451074Y-14070797D01*
X48430250Y-14065581D01*
X48410038Y-14058349D01*
X48390632Y-14049170D01*
X48372219Y-14038134D01*
X48354976Y-14025346D01*
X48339070Y-14010930D01*
X48324654Y-13995024D01*
X48311866Y-13977781D01*
X48300830Y-13959368D01*
X48291651Y-13939962D01*
X48284419Y-13919750D01*
X48279203Y-13898926D01*
X48276053Y-13877691D01*
X48275000Y-13856250D01*
X48275000Y-13343750D01*
X48276053Y-13322309D01*
X48279203Y-13301074D01*
X48284419Y-13280250D01*
X48291651Y-13260038D01*
X48300830Y-13240632D01*
X48311866Y-13222219D01*
X48324654Y-13204976D01*
X48339070Y-13189070D01*
X48354976Y-13174654D01*
X48372219Y-13161866D01*
X48390632Y-13150830D01*
X48410038Y-13141651D01*
X48430250Y-13134419D01*
X48451074Y-13129203D01*
X48472309Y-13126053D01*
X48493750Y-13125000D01*
X48931250Y-13125000D01*
X48952691Y-13126053D01*
X48952691Y-13126053D01*
G37*
D11*
X48712500Y-13600000D03*
G04 #@! TD*
D21*
G04 #@! TO.C,D25*
X23800000Y-13600000D03*
X19800000Y-13600000D03*
G04 #@! TD*
D13*
G04 #@! TO.C,SW23*
X78340000Y-71460000D03*
X91790000Y-68920000D03*
G04 #@! TD*
D14*
G04 #@! TO.C,D8*
X57026000Y-65015000D03*
X57976000Y-63015000D03*
X56076000Y-63015000D03*
G04 #@! TD*
D10*
G04 #@! TO.C,R6*
G36*
X62998691Y-4613053D02*
X63019926Y-4616203D01*
X63040750Y-4621419D01*
X63060962Y-4628651D01*
X63080368Y-4637830D01*
X63098781Y-4648866D01*
X63116024Y-4661654D01*
X63131930Y-4676070D01*
X63146346Y-4691976D01*
X63159134Y-4709219D01*
X63170170Y-4727632D01*
X63179349Y-4747038D01*
X63186581Y-4767250D01*
X63191797Y-4788074D01*
X63194947Y-4809309D01*
X63196000Y-4830750D01*
X63196000Y-5343250D01*
X63194947Y-5364691D01*
X63191797Y-5385926D01*
X63186581Y-5406750D01*
X63179349Y-5426962D01*
X63170170Y-5446368D01*
X63159134Y-5464781D01*
X63146346Y-5482024D01*
X63131930Y-5497930D01*
X63116024Y-5512346D01*
X63098781Y-5525134D01*
X63080368Y-5536170D01*
X63060962Y-5545349D01*
X63040750Y-5552581D01*
X63019926Y-5557797D01*
X62998691Y-5560947D01*
X62977250Y-5562000D01*
X62539750Y-5562000D01*
X62518309Y-5560947D01*
X62497074Y-5557797D01*
X62476250Y-5552581D01*
X62456038Y-5545349D01*
X62436632Y-5536170D01*
X62418219Y-5525134D01*
X62400976Y-5512346D01*
X62385070Y-5497930D01*
X62370654Y-5482024D01*
X62357866Y-5464781D01*
X62346830Y-5446368D01*
X62337651Y-5426962D01*
X62330419Y-5406750D01*
X62325203Y-5385926D01*
X62322053Y-5364691D01*
X62321000Y-5343250D01*
X62321000Y-4830750D01*
X62322053Y-4809309D01*
X62325203Y-4788074D01*
X62330419Y-4767250D01*
X62337651Y-4747038D01*
X62346830Y-4727632D01*
X62357866Y-4709219D01*
X62370654Y-4691976D01*
X62385070Y-4676070D01*
X62400976Y-4661654D01*
X62418219Y-4648866D01*
X62436632Y-4637830D01*
X62456038Y-4628651D01*
X62476250Y-4621419D01*
X62497074Y-4616203D01*
X62518309Y-4613053D01*
X62539750Y-4612000D01*
X62977250Y-4612000D01*
X62998691Y-4613053D01*
X62998691Y-4613053D01*
G37*
D11*
X62758500Y-5087000D03*
D10*
G36*
X61423691Y-4613053D02*
X61444926Y-4616203D01*
X61465750Y-4621419D01*
X61485962Y-4628651D01*
X61505368Y-4637830D01*
X61523781Y-4648866D01*
X61541024Y-4661654D01*
X61556930Y-4676070D01*
X61571346Y-4691976D01*
X61584134Y-4709219D01*
X61595170Y-4727632D01*
X61604349Y-4747038D01*
X61611581Y-4767250D01*
X61616797Y-4788074D01*
X61619947Y-4809309D01*
X61621000Y-4830750D01*
X61621000Y-5343250D01*
X61619947Y-5364691D01*
X61616797Y-5385926D01*
X61611581Y-5406750D01*
X61604349Y-5426962D01*
X61595170Y-5446368D01*
X61584134Y-5464781D01*
X61571346Y-5482024D01*
X61556930Y-5497930D01*
X61541024Y-5512346D01*
X61523781Y-5525134D01*
X61505368Y-5536170D01*
X61485962Y-5545349D01*
X61465750Y-5552581D01*
X61444926Y-5557797D01*
X61423691Y-5560947D01*
X61402250Y-5562000D01*
X60964750Y-5562000D01*
X60943309Y-5560947D01*
X60922074Y-5557797D01*
X60901250Y-5552581D01*
X60881038Y-5545349D01*
X60861632Y-5536170D01*
X60843219Y-5525134D01*
X60825976Y-5512346D01*
X60810070Y-5497930D01*
X60795654Y-5482024D01*
X60782866Y-5464781D01*
X60771830Y-5446368D01*
X60762651Y-5426962D01*
X60755419Y-5406750D01*
X60750203Y-5385926D01*
X60747053Y-5364691D01*
X60746000Y-5343250D01*
X60746000Y-4830750D01*
X60747053Y-4809309D01*
X60750203Y-4788074D01*
X60755419Y-4767250D01*
X60762651Y-4747038D01*
X60771830Y-4727632D01*
X60782866Y-4709219D01*
X60795654Y-4691976D01*
X60810070Y-4676070D01*
X60825976Y-4661654D01*
X60843219Y-4648866D01*
X60861632Y-4637830D01*
X60881038Y-4628651D01*
X60901250Y-4621419D01*
X60922074Y-4616203D01*
X60943309Y-4613053D01*
X60964750Y-4612000D01*
X61402250Y-4612000D01*
X61423691Y-4613053D01*
X61423691Y-4613053D01*
G37*
D11*
X61183500Y-5087000D03*
G04 #@! TD*
D14*
G04 #@! TO.C,D2*
X65281000Y-26915000D03*
X66231000Y-24915000D03*
X64331000Y-24915000D03*
G04 #@! TD*
D10*
G04 #@! TO.C,R15*
G36*
X77327691Y-18126053D02*
X77348926Y-18129203D01*
X77369750Y-18134419D01*
X77389962Y-18141651D01*
X77409368Y-18150830D01*
X77427781Y-18161866D01*
X77445024Y-18174654D01*
X77460930Y-18189070D01*
X77475346Y-18204976D01*
X77488134Y-18222219D01*
X77499170Y-18240632D01*
X77508349Y-18260038D01*
X77515581Y-18280250D01*
X77520797Y-18301074D01*
X77523947Y-18322309D01*
X77525000Y-18343750D01*
X77525000Y-18781250D01*
X77523947Y-18802691D01*
X77520797Y-18823926D01*
X77515581Y-18844750D01*
X77508349Y-18864962D01*
X77499170Y-18884368D01*
X77488134Y-18902781D01*
X77475346Y-18920024D01*
X77460930Y-18935930D01*
X77445024Y-18950346D01*
X77427781Y-18963134D01*
X77409368Y-18974170D01*
X77389962Y-18983349D01*
X77369750Y-18990581D01*
X77348926Y-18995797D01*
X77327691Y-18998947D01*
X77306250Y-19000000D01*
X76793750Y-19000000D01*
X76772309Y-18998947D01*
X76751074Y-18995797D01*
X76730250Y-18990581D01*
X76710038Y-18983349D01*
X76690632Y-18974170D01*
X76672219Y-18963134D01*
X76654976Y-18950346D01*
X76639070Y-18935930D01*
X76624654Y-18920024D01*
X76611866Y-18902781D01*
X76600830Y-18884368D01*
X76591651Y-18864962D01*
X76584419Y-18844750D01*
X76579203Y-18823926D01*
X76576053Y-18802691D01*
X76575000Y-18781250D01*
X76575000Y-18343750D01*
X76576053Y-18322309D01*
X76579203Y-18301074D01*
X76584419Y-18280250D01*
X76591651Y-18260038D01*
X76600830Y-18240632D01*
X76611866Y-18222219D01*
X76624654Y-18204976D01*
X76639070Y-18189070D01*
X76654976Y-18174654D01*
X76672219Y-18161866D01*
X76690632Y-18150830D01*
X76710038Y-18141651D01*
X76730250Y-18134419D01*
X76751074Y-18129203D01*
X76772309Y-18126053D01*
X76793750Y-18125000D01*
X77306250Y-18125000D01*
X77327691Y-18126053D01*
X77327691Y-18126053D01*
G37*
D11*
X77050000Y-18562500D03*
D10*
G36*
X77327691Y-19701053D02*
X77348926Y-19704203D01*
X77369750Y-19709419D01*
X77389962Y-19716651D01*
X77409368Y-19725830D01*
X77427781Y-19736866D01*
X77445024Y-19749654D01*
X77460930Y-19764070D01*
X77475346Y-19779976D01*
X77488134Y-19797219D01*
X77499170Y-19815632D01*
X77508349Y-19835038D01*
X77515581Y-19855250D01*
X77520797Y-19876074D01*
X77523947Y-19897309D01*
X77525000Y-19918750D01*
X77525000Y-20356250D01*
X77523947Y-20377691D01*
X77520797Y-20398926D01*
X77515581Y-20419750D01*
X77508349Y-20439962D01*
X77499170Y-20459368D01*
X77488134Y-20477781D01*
X77475346Y-20495024D01*
X77460930Y-20510930D01*
X77445024Y-20525346D01*
X77427781Y-20538134D01*
X77409368Y-20549170D01*
X77389962Y-20558349D01*
X77369750Y-20565581D01*
X77348926Y-20570797D01*
X77327691Y-20573947D01*
X77306250Y-20575000D01*
X76793750Y-20575000D01*
X76772309Y-20573947D01*
X76751074Y-20570797D01*
X76730250Y-20565581D01*
X76710038Y-20558349D01*
X76690632Y-20549170D01*
X76672219Y-20538134D01*
X76654976Y-20525346D01*
X76639070Y-20510930D01*
X76624654Y-20495024D01*
X76611866Y-20477781D01*
X76600830Y-20459368D01*
X76591651Y-20439962D01*
X76584419Y-20419750D01*
X76579203Y-20398926D01*
X76576053Y-20377691D01*
X76575000Y-20356250D01*
X76575000Y-19918750D01*
X76576053Y-19897309D01*
X76579203Y-19876074D01*
X76584419Y-19855250D01*
X76591651Y-19835038D01*
X76600830Y-19815632D01*
X76611866Y-19797219D01*
X76624654Y-19779976D01*
X76639070Y-19764070D01*
X76654976Y-19749654D01*
X76672219Y-19736866D01*
X76690632Y-19725830D01*
X76710038Y-19716651D01*
X76730250Y-19709419D01*
X76751074Y-19704203D01*
X76772309Y-19701053D01*
X76793750Y-19700000D01*
X77306250Y-19700000D01*
X77327691Y-19701053D01*
X77327691Y-19701053D01*
G37*
D11*
X77050000Y-20137500D03*
G04 #@! TD*
D22*
G04 #@! TO.C,SW49*
X81110000Y-11700000D03*
X90290000Y-11700000D03*
G04 #@! TD*
D13*
G04 #@! TO.C,SW10*
X74010000Y-38440000D03*
X60560000Y-40980000D03*
G04 #@! TD*
D23*
G04 #@! TO.C,Y1*
X65250000Y-12550000D03*
X65250000Y-8450000D03*
G04 #@! TD*
D10*
G04 #@! TO.C,D27*
G36*
X81758329Y-14226023D02*
X81778957Y-14229083D01*
X81799185Y-14234150D01*
X81818820Y-14241176D01*
X81837672Y-14250092D01*
X81855559Y-14260813D01*
X81872309Y-14273235D01*
X81887760Y-14287240D01*
X81901765Y-14302691D01*
X81914187Y-14319441D01*
X81924908Y-14337328D01*
X81933824Y-14356180D01*
X81940850Y-14375815D01*
X81945917Y-14396043D01*
X81948977Y-14416671D01*
X81950000Y-14437500D01*
X81950000Y-14862500D01*
X81948977Y-14883329D01*
X81945917Y-14903957D01*
X81940850Y-14924185D01*
X81933824Y-14943820D01*
X81924908Y-14962672D01*
X81914187Y-14980559D01*
X81901765Y-14997309D01*
X81887760Y-15012760D01*
X81872309Y-15026765D01*
X81855559Y-15039187D01*
X81837672Y-15049908D01*
X81818820Y-15058824D01*
X81799185Y-15065850D01*
X81778957Y-15070917D01*
X81758329Y-15073977D01*
X81737500Y-15075000D01*
X80937500Y-15075000D01*
X80916671Y-15073977D01*
X80896043Y-15070917D01*
X80875815Y-15065850D01*
X80856180Y-15058824D01*
X80837328Y-15049908D01*
X80819441Y-15039187D01*
X80802691Y-15026765D01*
X80787240Y-15012760D01*
X80773235Y-14997309D01*
X80760813Y-14980559D01*
X80750092Y-14962672D01*
X80741176Y-14943820D01*
X80734150Y-14924185D01*
X80729083Y-14903957D01*
X80726023Y-14883329D01*
X80725000Y-14862500D01*
X80725000Y-14437500D01*
X80726023Y-14416671D01*
X80729083Y-14396043D01*
X80734150Y-14375815D01*
X80741176Y-14356180D01*
X80750092Y-14337328D01*
X80760813Y-14319441D01*
X80773235Y-14302691D01*
X80787240Y-14287240D01*
X80802691Y-14273235D01*
X80819441Y-14260813D01*
X80837328Y-14250092D01*
X80856180Y-14241176D01*
X80875815Y-14234150D01*
X80896043Y-14229083D01*
X80916671Y-14226023D01*
X80937500Y-14225000D01*
X81737500Y-14225000D01*
X81758329Y-14226023D01*
X81758329Y-14226023D01*
G37*
D24*
X81337500Y-14650000D03*
D10*
G36*
X83383329Y-14226023D02*
X83403957Y-14229083D01*
X83424185Y-14234150D01*
X83443820Y-14241176D01*
X83462672Y-14250092D01*
X83480559Y-14260813D01*
X83497309Y-14273235D01*
X83512760Y-14287240D01*
X83526765Y-14302691D01*
X83539187Y-14319441D01*
X83549908Y-14337328D01*
X83558824Y-14356180D01*
X83565850Y-14375815D01*
X83570917Y-14396043D01*
X83573977Y-14416671D01*
X83575000Y-14437500D01*
X83575000Y-14862500D01*
X83573977Y-14883329D01*
X83570917Y-14903957D01*
X83565850Y-14924185D01*
X83558824Y-14943820D01*
X83549908Y-14962672D01*
X83539187Y-14980559D01*
X83526765Y-14997309D01*
X83512760Y-15012760D01*
X83497309Y-15026765D01*
X83480559Y-15039187D01*
X83462672Y-15049908D01*
X83443820Y-15058824D01*
X83424185Y-15065850D01*
X83403957Y-15070917D01*
X83383329Y-15073977D01*
X83362500Y-15075000D01*
X82562500Y-15075000D01*
X82541671Y-15073977D01*
X82521043Y-15070917D01*
X82500815Y-15065850D01*
X82481180Y-15058824D01*
X82462328Y-15049908D01*
X82444441Y-15039187D01*
X82427691Y-15026765D01*
X82412240Y-15012760D01*
X82398235Y-14997309D01*
X82385813Y-14980559D01*
X82375092Y-14962672D01*
X82366176Y-14943820D01*
X82359150Y-14924185D01*
X82354083Y-14903957D01*
X82351023Y-14883329D01*
X82350000Y-14862500D01*
X82350000Y-14437500D01*
X82351023Y-14416671D01*
X82354083Y-14396043D01*
X82359150Y-14375815D01*
X82366176Y-14356180D01*
X82375092Y-14337328D01*
X82385813Y-14319441D01*
X82398235Y-14302691D01*
X82412240Y-14287240D01*
X82427691Y-14273235D01*
X82444441Y-14260813D01*
X82462328Y-14250092D01*
X82481180Y-14241176D01*
X82500815Y-14234150D01*
X82521043Y-14229083D01*
X82541671Y-14226023D01*
X82562500Y-14225000D01*
X83362500Y-14225000D01*
X83383329Y-14226023D01*
X83383329Y-14226023D01*
G37*
D24*
X82962500Y-14650000D03*
G04 #@! TD*
D25*
G04 #@! TO.C,SW24*
X102585000Y-76540000D03*
D10*
G36*
X103860000Y-76540000D02*
X103860000Y-77790000D01*
X101310000Y-77790000D01*
X101310000Y-75290000D01*
X102585000Y-75290000D01*
X103860000Y-76540000D01*
X103860000Y-76540000D01*
G37*
D13*
X89135000Y-79080000D03*
G04 #@! TD*
G04 #@! TO.C,SW7*
X16860000Y-38440000D03*
X3410000Y-40980000D03*
G04 #@! TD*
G04 #@! TO.C,SW11*
X93060000Y-38440000D03*
X79610000Y-40980000D03*
G04 #@! TD*
D10*
G04 #@! TO.C,C2*
G36*
X68277691Y-10926053D02*
X68298926Y-10929203D01*
X68319750Y-10934419D01*
X68339962Y-10941651D01*
X68359368Y-10950830D01*
X68377781Y-10961866D01*
X68395024Y-10974654D01*
X68410930Y-10989070D01*
X68425346Y-11004976D01*
X68438134Y-11022219D01*
X68449170Y-11040632D01*
X68458349Y-11060038D01*
X68465581Y-11080250D01*
X68470797Y-11101074D01*
X68473947Y-11122309D01*
X68475000Y-11143750D01*
X68475000Y-11581250D01*
X68473947Y-11602691D01*
X68470797Y-11623926D01*
X68465581Y-11644750D01*
X68458349Y-11664962D01*
X68449170Y-11684368D01*
X68438134Y-11702781D01*
X68425346Y-11720024D01*
X68410930Y-11735930D01*
X68395024Y-11750346D01*
X68377781Y-11763134D01*
X68359368Y-11774170D01*
X68339962Y-11783349D01*
X68319750Y-11790581D01*
X68298926Y-11795797D01*
X68277691Y-11798947D01*
X68256250Y-11800000D01*
X67743750Y-11800000D01*
X67722309Y-11798947D01*
X67701074Y-11795797D01*
X67680250Y-11790581D01*
X67660038Y-11783349D01*
X67640632Y-11774170D01*
X67622219Y-11763134D01*
X67604976Y-11750346D01*
X67589070Y-11735930D01*
X67574654Y-11720024D01*
X67561866Y-11702781D01*
X67550830Y-11684368D01*
X67541651Y-11664962D01*
X67534419Y-11644750D01*
X67529203Y-11623926D01*
X67526053Y-11602691D01*
X67525000Y-11581250D01*
X67525000Y-11143750D01*
X67526053Y-11122309D01*
X67529203Y-11101074D01*
X67534419Y-11080250D01*
X67541651Y-11060038D01*
X67550830Y-11040632D01*
X67561866Y-11022219D01*
X67574654Y-11004976D01*
X67589070Y-10989070D01*
X67604976Y-10974654D01*
X67622219Y-10961866D01*
X67640632Y-10950830D01*
X67660038Y-10941651D01*
X67680250Y-10934419D01*
X67701074Y-10929203D01*
X67722309Y-10926053D01*
X67743750Y-10925000D01*
X68256250Y-10925000D01*
X68277691Y-10926053D01*
X68277691Y-10926053D01*
G37*
D11*
X68000000Y-11362500D03*
D10*
G36*
X68277691Y-12501053D02*
X68298926Y-12504203D01*
X68319750Y-12509419D01*
X68339962Y-12516651D01*
X68359368Y-12525830D01*
X68377781Y-12536866D01*
X68395024Y-12549654D01*
X68410930Y-12564070D01*
X68425346Y-12579976D01*
X68438134Y-12597219D01*
X68449170Y-12615632D01*
X68458349Y-12635038D01*
X68465581Y-12655250D01*
X68470797Y-12676074D01*
X68473947Y-12697309D01*
X68475000Y-12718750D01*
X68475000Y-13156250D01*
X68473947Y-13177691D01*
X68470797Y-13198926D01*
X68465581Y-13219750D01*
X68458349Y-13239962D01*
X68449170Y-13259368D01*
X68438134Y-13277781D01*
X68425346Y-13295024D01*
X68410930Y-13310930D01*
X68395024Y-13325346D01*
X68377781Y-13338134D01*
X68359368Y-13349170D01*
X68339962Y-13358349D01*
X68319750Y-13365581D01*
X68298926Y-13370797D01*
X68277691Y-13373947D01*
X68256250Y-13375000D01*
X67743750Y-13375000D01*
X67722309Y-13373947D01*
X67701074Y-13370797D01*
X67680250Y-13365581D01*
X67660038Y-13358349D01*
X67640632Y-13349170D01*
X67622219Y-13338134D01*
X67604976Y-13325346D01*
X67589070Y-13310930D01*
X67574654Y-13295024D01*
X67561866Y-13277781D01*
X67550830Y-13259368D01*
X67541651Y-13239962D01*
X67534419Y-13219750D01*
X67529203Y-13198926D01*
X67526053Y-13177691D01*
X67525000Y-13156250D01*
X67525000Y-12718750D01*
X67526053Y-12697309D01*
X67529203Y-12676074D01*
X67534419Y-12655250D01*
X67541651Y-12635038D01*
X67550830Y-12615632D01*
X67561866Y-12597219D01*
X67574654Y-12579976D01*
X67589070Y-12564070D01*
X67604976Y-12549654D01*
X67622219Y-12536866D01*
X67640632Y-12525830D01*
X67660038Y-12516651D01*
X67680250Y-12509419D01*
X67701074Y-12504203D01*
X67722309Y-12501053D01*
X67743750Y-12500000D01*
X68256250Y-12500000D01*
X68277691Y-12501053D01*
X68277691Y-12501053D01*
G37*
D11*
X68000000Y-12937500D03*
G04 #@! TD*
D26*
G04 #@! TO.C,J9*
X32800000Y-7130000D03*
X32000000Y-7130000D03*
X32800000Y-7130000D03*
X32000000Y-7130000D03*
X26400000Y-7130000D03*
X26400000Y-7130000D03*
X27200000Y-7130000D03*
X27200000Y-7130000D03*
D27*
X31350000Y-7130000D03*
X30350000Y-7130000D03*
X30850000Y-7130000D03*
X28350000Y-7130000D03*
X27850000Y-7130000D03*
X29850000Y-7130000D03*
X29350000Y-7130000D03*
X28850000Y-7130000D03*
D28*
X33830000Y-2140000D03*
X25280000Y-2140000D03*
D29*
X33920000Y-6310000D03*
X25280000Y-6310000D03*
G04 #@! TD*
D13*
G04 #@! TO.C,SW13*
X16860000Y-57490000D03*
X3410000Y-60030000D03*
G04 #@! TD*
G04 #@! TO.C,SW15*
X54960000Y-57490000D03*
X41510000Y-60030000D03*
G04 #@! TD*
D10*
G04 #@! TO.C,C3*
G36*
X68277691Y-9251053D02*
X68298926Y-9254203D01*
X68319750Y-9259419D01*
X68339962Y-9266651D01*
X68359368Y-9275830D01*
X68377781Y-9286866D01*
X68395024Y-9299654D01*
X68410930Y-9314070D01*
X68425346Y-9329976D01*
X68438134Y-9347219D01*
X68449170Y-9365632D01*
X68458349Y-9385038D01*
X68465581Y-9405250D01*
X68470797Y-9426074D01*
X68473947Y-9447309D01*
X68475000Y-9468750D01*
X68475000Y-9906250D01*
X68473947Y-9927691D01*
X68470797Y-9948926D01*
X68465581Y-9969750D01*
X68458349Y-9989962D01*
X68449170Y-10009368D01*
X68438134Y-10027781D01*
X68425346Y-10045024D01*
X68410930Y-10060930D01*
X68395024Y-10075346D01*
X68377781Y-10088134D01*
X68359368Y-10099170D01*
X68339962Y-10108349D01*
X68319750Y-10115581D01*
X68298926Y-10120797D01*
X68277691Y-10123947D01*
X68256250Y-10125000D01*
X67743750Y-10125000D01*
X67722309Y-10123947D01*
X67701074Y-10120797D01*
X67680250Y-10115581D01*
X67660038Y-10108349D01*
X67640632Y-10099170D01*
X67622219Y-10088134D01*
X67604976Y-10075346D01*
X67589070Y-10060930D01*
X67574654Y-10045024D01*
X67561866Y-10027781D01*
X67550830Y-10009368D01*
X67541651Y-9989962D01*
X67534419Y-9969750D01*
X67529203Y-9948926D01*
X67526053Y-9927691D01*
X67525000Y-9906250D01*
X67525000Y-9468750D01*
X67526053Y-9447309D01*
X67529203Y-9426074D01*
X67534419Y-9405250D01*
X67541651Y-9385038D01*
X67550830Y-9365632D01*
X67561866Y-9347219D01*
X67574654Y-9329976D01*
X67589070Y-9314070D01*
X67604976Y-9299654D01*
X67622219Y-9286866D01*
X67640632Y-9275830D01*
X67660038Y-9266651D01*
X67680250Y-9259419D01*
X67701074Y-9254203D01*
X67722309Y-9251053D01*
X67743750Y-9250000D01*
X68256250Y-9250000D01*
X68277691Y-9251053D01*
X68277691Y-9251053D01*
G37*
D11*
X68000000Y-9687500D03*
D10*
G36*
X68277691Y-7676053D02*
X68298926Y-7679203D01*
X68319750Y-7684419D01*
X68339962Y-7691651D01*
X68359368Y-7700830D01*
X68377781Y-7711866D01*
X68395024Y-7724654D01*
X68410930Y-7739070D01*
X68425346Y-7754976D01*
X68438134Y-7772219D01*
X68449170Y-7790632D01*
X68458349Y-7810038D01*
X68465581Y-7830250D01*
X68470797Y-7851074D01*
X68473947Y-7872309D01*
X68475000Y-7893750D01*
X68475000Y-8331250D01*
X68473947Y-8352691D01*
X68470797Y-8373926D01*
X68465581Y-8394750D01*
X68458349Y-8414962D01*
X68449170Y-8434368D01*
X68438134Y-8452781D01*
X68425346Y-8470024D01*
X68410930Y-8485930D01*
X68395024Y-8500346D01*
X68377781Y-8513134D01*
X68359368Y-8524170D01*
X68339962Y-8533349D01*
X68319750Y-8540581D01*
X68298926Y-8545797D01*
X68277691Y-8548947D01*
X68256250Y-8550000D01*
X67743750Y-8550000D01*
X67722309Y-8548947D01*
X67701074Y-8545797D01*
X67680250Y-8540581D01*
X67660038Y-8533349D01*
X67640632Y-8524170D01*
X67622219Y-8513134D01*
X67604976Y-8500346D01*
X67589070Y-8485930D01*
X67574654Y-8470024D01*
X67561866Y-8452781D01*
X67550830Y-8434368D01*
X67541651Y-8414962D01*
X67534419Y-8394750D01*
X67529203Y-8373926D01*
X67526053Y-8352691D01*
X67525000Y-8331250D01*
X67525000Y-7893750D01*
X67526053Y-7872309D01*
X67529203Y-7851074D01*
X67534419Y-7830250D01*
X67541651Y-7810038D01*
X67550830Y-7790632D01*
X67561866Y-7772219D01*
X67574654Y-7754976D01*
X67589070Y-7739070D01*
X67604976Y-7724654D01*
X67622219Y-7711866D01*
X67640632Y-7700830D01*
X67660038Y-7691651D01*
X67680250Y-7684419D01*
X67701074Y-7679203D01*
X67722309Y-7676053D01*
X67743750Y-7675000D01*
X68256250Y-7675000D01*
X68277691Y-7676053D01*
X68277691Y-7676053D01*
G37*
D11*
X68000000Y-8112500D03*
G04 #@! TD*
D13*
G04 #@! TO.C,SW1*
X16860000Y-19390000D03*
X3410000Y-21930000D03*
G04 #@! TD*
D10*
G04 #@! TO.C,C1*
G36*
X51611691Y-8740053D02*
X51632926Y-8743203D01*
X51653750Y-8748419D01*
X51673962Y-8755651D01*
X51693368Y-8764830D01*
X51711781Y-8775866D01*
X51729024Y-8788654D01*
X51744930Y-8803070D01*
X51759346Y-8818976D01*
X51772134Y-8836219D01*
X51783170Y-8854632D01*
X51792349Y-8874038D01*
X51799581Y-8894250D01*
X51804797Y-8915074D01*
X51807947Y-8936309D01*
X51809000Y-8957750D01*
X51809000Y-9395250D01*
X51807947Y-9416691D01*
X51804797Y-9437926D01*
X51799581Y-9458750D01*
X51792349Y-9478962D01*
X51783170Y-9498368D01*
X51772134Y-9516781D01*
X51759346Y-9534024D01*
X51744930Y-9549930D01*
X51729024Y-9564346D01*
X51711781Y-9577134D01*
X51693368Y-9588170D01*
X51673962Y-9597349D01*
X51653750Y-9604581D01*
X51632926Y-9609797D01*
X51611691Y-9612947D01*
X51590250Y-9614000D01*
X51077750Y-9614000D01*
X51056309Y-9612947D01*
X51035074Y-9609797D01*
X51014250Y-9604581D01*
X50994038Y-9597349D01*
X50974632Y-9588170D01*
X50956219Y-9577134D01*
X50938976Y-9564346D01*
X50923070Y-9549930D01*
X50908654Y-9534024D01*
X50895866Y-9516781D01*
X50884830Y-9498368D01*
X50875651Y-9478962D01*
X50868419Y-9458750D01*
X50863203Y-9437926D01*
X50860053Y-9416691D01*
X50859000Y-9395250D01*
X50859000Y-8957750D01*
X50860053Y-8936309D01*
X50863203Y-8915074D01*
X50868419Y-8894250D01*
X50875651Y-8874038D01*
X50884830Y-8854632D01*
X50895866Y-8836219D01*
X50908654Y-8818976D01*
X50923070Y-8803070D01*
X50938976Y-8788654D01*
X50956219Y-8775866D01*
X50974632Y-8764830D01*
X50994038Y-8755651D01*
X51014250Y-8748419D01*
X51035074Y-8743203D01*
X51056309Y-8740053D01*
X51077750Y-8739000D01*
X51590250Y-8739000D01*
X51611691Y-8740053D01*
X51611691Y-8740053D01*
G37*
D11*
X51334000Y-9176500D03*
D10*
G36*
X51611691Y-7165053D02*
X51632926Y-7168203D01*
X51653750Y-7173419D01*
X51673962Y-7180651D01*
X51693368Y-7189830D01*
X51711781Y-7200866D01*
X51729024Y-7213654D01*
X51744930Y-7228070D01*
X51759346Y-7243976D01*
X51772134Y-7261219D01*
X51783170Y-7279632D01*
X51792349Y-7299038D01*
X51799581Y-7319250D01*
X51804797Y-7340074D01*
X51807947Y-7361309D01*
X51809000Y-7382750D01*
X51809000Y-7820250D01*
X51807947Y-7841691D01*
X51804797Y-7862926D01*
X51799581Y-7883750D01*
X51792349Y-7903962D01*
X51783170Y-7923368D01*
X51772134Y-7941781D01*
X51759346Y-7959024D01*
X51744930Y-7974930D01*
X51729024Y-7989346D01*
X51711781Y-8002134D01*
X51693368Y-8013170D01*
X51673962Y-8022349D01*
X51653750Y-8029581D01*
X51632926Y-8034797D01*
X51611691Y-8037947D01*
X51590250Y-8039000D01*
X51077750Y-8039000D01*
X51056309Y-8037947D01*
X51035074Y-8034797D01*
X51014250Y-8029581D01*
X50994038Y-8022349D01*
X50974632Y-8013170D01*
X50956219Y-8002134D01*
X50938976Y-7989346D01*
X50923070Y-7974930D01*
X50908654Y-7959024D01*
X50895866Y-7941781D01*
X50884830Y-7923368D01*
X50875651Y-7903962D01*
X50868419Y-7883750D01*
X50863203Y-7862926D01*
X50860053Y-7841691D01*
X50859000Y-7820250D01*
X50859000Y-7382750D01*
X50860053Y-7361309D01*
X50863203Y-7340074D01*
X50868419Y-7319250D01*
X50875651Y-7299038D01*
X50884830Y-7279632D01*
X50895866Y-7261219D01*
X50908654Y-7243976D01*
X50923070Y-7228070D01*
X50938976Y-7213654D01*
X50956219Y-7200866D01*
X50974632Y-7189830D01*
X50994038Y-7180651D01*
X51014250Y-7173419D01*
X51035074Y-7168203D01*
X51056309Y-7165053D01*
X51077750Y-7164000D01*
X51590250Y-7164000D01*
X51611691Y-7165053D01*
X51611691Y-7165053D01*
G37*
D11*
X51334000Y-7601500D03*
G04 #@! TD*
D13*
G04 #@! TO.C,SW8*
X35910000Y-38440000D03*
X22460000Y-40980000D03*
G04 #@! TD*
D10*
G04 #@! TO.C,C4*
G36*
X56945691Y-4701453D02*
X56966926Y-4704603D01*
X56987750Y-4709819D01*
X57007962Y-4717051D01*
X57027368Y-4726230D01*
X57045781Y-4737266D01*
X57063024Y-4750054D01*
X57078930Y-4764470D01*
X57093346Y-4780376D01*
X57106134Y-4797619D01*
X57117170Y-4816032D01*
X57126349Y-4835438D01*
X57133581Y-4855650D01*
X57138797Y-4876474D01*
X57141947Y-4897709D01*
X57143000Y-4919150D01*
X57143000Y-5356650D01*
X57141947Y-5378091D01*
X57138797Y-5399326D01*
X57133581Y-5420150D01*
X57126349Y-5440362D01*
X57117170Y-5459768D01*
X57106134Y-5478181D01*
X57093346Y-5495424D01*
X57078930Y-5511330D01*
X57063024Y-5525746D01*
X57045781Y-5538534D01*
X57027368Y-5549570D01*
X57007962Y-5558749D01*
X56987750Y-5565981D01*
X56966926Y-5571197D01*
X56945691Y-5574347D01*
X56924250Y-5575400D01*
X56411750Y-5575400D01*
X56390309Y-5574347D01*
X56369074Y-5571197D01*
X56348250Y-5565981D01*
X56328038Y-5558749D01*
X56308632Y-5549570D01*
X56290219Y-5538534D01*
X56272976Y-5525746D01*
X56257070Y-5511330D01*
X56242654Y-5495424D01*
X56229866Y-5478181D01*
X56218830Y-5459768D01*
X56209651Y-5440362D01*
X56202419Y-5420150D01*
X56197203Y-5399326D01*
X56194053Y-5378091D01*
X56193000Y-5356650D01*
X56193000Y-4919150D01*
X56194053Y-4897709D01*
X56197203Y-4876474D01*
X56202419Y-4855650D01*
X56209651Y-4835438D01*
X56218830Y-4816032D01*
X56229866Y-4797619D01*
X56242654Y-4780376D01*
X56257070Y-4764470D01*
X56272976Y-4750054D01*
X56290219Y-4737266D01*
X56308632Y-4726230D01*
X56328038Y-4717051D01*
X56348250Y-4709819D01*
X56369074Y-4704603D01*
X56390309Y-4701453D01*
X56411750Y-4700400D01*
X56924250Y-4700400D01*
X56945691Y-4701453D01*
X56945691Y-4701453D01*
G37*
D11*
X56668000Y-5137900D03*
D10*
G36*
X56945691Y-3126453D02*
X56966926Y-3129603D01*
X56987750Y-3134819D01*
X57007962Y-3142051D01*
X57027368Y-3151230D01*
X57045781Y-3162266D01*
X57063024Y-3175054D01*
X57078930Y-3189470D01*
X57093346Y-3205376D01*
X57106134Y-3222619D01*
X57117170Y-3241032D01*
X57126349Y-3260438D01*
X57133581Y-3280650D01*
X57138797Y-3301474D01*
X57141947Y-3322709D01*
X57143000Y-3344150D01*
X57143000Y-3781650D01*
X57141947Y-3803091D01*
X57138797Y-3824326D01*
X57133581Y-3845150D01*
X57126349Y-3865362D01*
X57117170Y-3884768D01*
X57106134Y-3903181D01*
X57093346Y-3920424D01*
X57078930Y-3936330D01*
X57063024Y-3950746D01*
X57045781Y-3963534D01*
X57027368Y-3974570D01*
X57007962Y-3983749D01*
X56987750Y-3990981D01*
X56966926Y-3996197D01*
X56945691Y-3999347D01*
X56924250Y-4000400D01*
X56411750Y-4000400D01*
X56390309Y-3999347D01*
X56369074Y-3996197D01*
X56348250Y-3990981D01*
X56328038Y-3983749D01*
X56308632Y-3974570D01*
X56290219Y-3963534D01*
X56272976Y-3950746D01*
X56257070Y-3936330D01*
X56242654Y-3920424D01*
X56229866Y-3903181D01*
X56218830Y-3884768D01*
X56209651Y-3865362D01*
X56202419Y-3845150D01*
X56197203Y-3824326D01*
X56194053Y-3803091D01*
X56193000Y-3781650D01*
X56193000Y-3344150D01*
X56194053Y-3322709D01*
X56197203Y-3301474D01*
X56202419Y-3280650D01*
X56209651Y-3260438D01*
X56218830Y-3241032D01*
X56229866Y-3222619D01*
X56242654Y-3205376D01*
X56257070Y-3189470D01*
X56272976Y-3175054D01*
X56290219Y-3162266D01*
X56308632Y-3151230D01*
X56328038Y-3142051D01*
X56348250Y-3134819D01*
X56369074Y-3129603D01*
X56390309Y-3126453D01*
X56411750Y-3125400D01*
X56924250Y-3125400D01*
X56945691Y-3126453D01*
X56945691Y-3126453D01*
G37*
D11*
X56668000Y-3562900D03*
G04 #@! TD*
D13*
G04 #@! TO.C,SW6*
X112110000Y-19390000D03*
X98660000Y-21930000D03*
G04 #@! TD*
G04 #@! TO.C,SW18*
X112110000Y-57490000D03*
X98660000Y-60030000D03*
G04 #@! TD*
G04 #@! TO.C,SW4*
X74010000Y-19390000D03*
X60560000Y-21930000D03*
G04 #@! TD*
D25*
G04 #@! TO.C,SW24*
X97390000Y-71460000D03*
D10*
G36*
X96115000Y-71460000D02*
X96115000Y-70210000D01*
X98665000Y-70210000D01*
X98665000Y-72710000D01*
X97390000Y-72710000D01*
X96115000Y-71460000D01*
X96115000Y-71460000D01*
G37*
D13*
X110840000Y-68920000D03*
G04 #@! TD*
M02*
