G04 #@! TF.GenerationSoftware,KiCad,Pcbnew,(5.0.1-dev-70-gb7b125d83)*
G04 #@! TF.CreationDate,2019-02-21T05:05:45+01:00*
G04 #@! TF.ProjectId,vitamins_included,766974616D696E735F696E636C756465,rev?*
G04 #@! TF.SameCoordinates,Original*
G04 #@! TF.FileFunction,Legend,Top*
G04 #@! TF.FilePolarity,Positive*
%FSLAX46Y46*%
G04 Gerber Fmt 4.6, Leading zero omitted, Abs format (unit mm)*
G04 Created by KiCad (PCBNEW (5.0.1-dev-70-gb7b125d83)) date 02/21/19 05:05:45*
%MOMM*%
%LPD*%
G01*
G04 APERTURE LIST*
%ADD10C,0.200000*%
%ADD11C,0.300000*%
%ADD12C,0.120000*%
%ADD13C,0.180000*%
G04 APERTURE END LIST*
D10*
X55652000Y-28836000D02*
X55652000Y-30106000D01*
X57429646Y-30614264D02*
G75*
G03X57430000Y-29598001I-380646J508264D01*
G01*
X57049000Y-31487128D02*
X57049000Y-30106000D01*
X58192567Y-31375489D02*
G75*
G03X58192000Y-28836000I-1143567J1269489D01*
G01*
X56287000Y-30106000D02*
X56287000Y-28836000D01*
X56287000Y-30106000D02*
X56287000Y-31376000D01*
X56287000Y-29344000D02*
X57049000Y-28709000D01*
X57820464Y-30986799D02*
G75*
G03X57811000Y-29217000I-771464J880799D01*
G01*
X57049000Y-28709000D02*
X57049000Y-30106000D01*
X55652000Y-31376000D02*
X55652000Y-30106000D01*
X56287000Y-28836000D02*
X55652000Y-28836000D01*
X56287000Y-31376000D02*
X55652000Y-31376000D01*
X56287000Y-30852128D02*
X57049000Y-31487128D01*
D11*
X56045761Y-28171642D02*
X57036238Y-28171642D01*
X56541000Y-27676404D02*
X56541000Y-28666880D01*
X51216523Y-49512904D02*
X48835571Y-49512904D01*
X48835571Y-44512904D01*
X52883190Y-46893857D02*
X54549857Y-46893857D01*
X55264142Y-49512904D02*
X52883190Y-49512904D01*
X52883190Y-44512904D01*
X55264142Y-44512904D01*
X56692714Y-44512904D02*
X59549857Y-44512904D01*
X58121285Y-49512904D02*
X58121285Y-44512904D01*
X61454619Y-44512904D02*
X60978428Y-45465285D01*
X63359380Y-49274809D02*
X64073666Y-49512904D01*
X65264142Y-49512904D01*
X65740333Y-49274809D01*
X65978428Y-49036714D01*
X66216523Y-48560523D01*
X66216523Y-48084333D01*
X65978428Y-47608142D01*
X65740333Y-47370047D01*
X65264142Y-47131952D01*
X64311761Y-46893857D01*
X63835571Y-46655761D01*
X63597476Y-46417666D01*
X63359380Y-45941476D01*
X63359380Y-45465285D01*
X63597476Y-44989095D01*
X63835571Y-44751000D01*
X64311761Y-44512904D01*
X65502238Y-44512904D01*
X66216523Y-44751000D01*
D12*
G04 #@! TO.C,J2*
X73270000Y-6730000D02*
X73270000Y-4070000D01*
X70670000Y-6730000D02*
X73270000Y-6730000D01*
X70670000Y-4070000D02*
X73270000Y-4070000D01*
X70670000Y-6730000D02*
X70670000Y-4070000D01*
X69400000Y-6730000D02*
X68070000Y-6730000D01*
X68070000Y-6730000D02*
X68070000Y-5400000D01*
D13*
X68171428Y-3878571D02*
X68171428Y-2878571D01*
X68171428Y-3164285D02*
X68242857Y-3021428D01*
X68314285Y-2950000D01*
X68457142Y-2878571D01*
X68600000Y-2878571D01*
X69671428Y-3807142D02*
X69528571Y-3878571D01*
X69242857Y-3878571D01*
X69100000Y-3807142D01*
X69028571Y-3664285D01*
X69028571Y-3092857D01*
X69100000Y-2950000D01*
X69242857Y-2878571D01*
X69528571Y-2878571D01*
X69671428Y-2950000D01*
X69742857Y-3092857D01*
X69742857Y-3235714D01*
X69028571Y-3378571D01*
X70314285Y-3807142D02*
X70457142Y-3878571D01*
X70742857Y-3878571D01*
X70885714Y-3807142D01*
X70957142Y-3664285D01*
X70957142Y-3592857D01*
X70885714Y-3450000D01*
X70742857Y-3378571D01*
X70528571Y-3378571D01*
X70385714Y-3307142D01*
X70314285Y-3164285D01*
X70314285Y-3092857D01*
X70385714Y-2950000D01*
X70528571Y-2878571D01*
X70742857Y-2878571D01*
X70885714Y-2950000D01*
X72171428Y-3807142D02*
X72028571Y-3878571D01*
X71742857Y-3878571D01*
X71600000Y-3807142D01*
X71528571Y-3664285D01*
X71528571Y-3092857D01*
X71600000Y-2950000D01*
X71742857Y-2878571D01*
X72028571Y-2878571D01*
X72171428Y-2950000D01*
X72242857Y-3092857D01*
X72242857Y-3235714D01*
X71528571Y-3378571D01*
X72671428Y-2878571D02*
X73242857Y-2878571D01*
X72885714Y-2378571D02*
X72885714Y-3664285D01*
X72957142Y-3807142D01*
X73100000Y-3878571D01*
X73242857Y-3878571D01*
G04 #@! TD*
M02*
