G04 #@! TF.GenerationSoftware,KiCad,Pcbnew,(5.0.1-dev-70-gb7b125d83)*
G04 #@! TF.CreationDate,2019-02-21T05:05:45+01:00*
G04 #@! TF.ProjectId,vitamins_included,766974616D696E735F696E636C756465,rev?*
G04 #@! TF.SameCoordinates,Original*
G04 #@! TF.FileFunction,Legend,Bot*
G04 #@! TF.FilePolarity,Positive*
%FSLAX46Y46*%
G04 Gerber Fmt 4.6, Leading zero omitted, Abs format (unit mm)*
G04 Created by KiCad (PCBNEW (5.0.1-dev-70-gb7b125d83)) date 02/21/19 05:05:45*
%MOMM*%
%LPD*%
G01*
G04 APERTURE LIST*
%ADD10C,0.200000*%
%ADD11C,0.300000*%
%ADD12C,0.350000*%
%ADD13C,0.150000*%
%ADD14C,0.120000*%
%ADD15C,0.100000*%
%ADD16C,0.066040*%
%ADD17C,0.127000*%
%ADD18C,0.010000*%
%ADD19C,0.101600*%
G04 APERTURE END LIST*
D10*
X58128500Y-29344000D02*
X57366500Y-28709000D01*
X58128500Y-30106000D02*
X58128500Y-28836000D01*
X58128500Y-28836000D02*
X58763500Y-28836000D01*
X57049354Y-30614264D02*
G75*
G02X57049000Y-29598001I380646J508264D01*
G01*
X57366500Y-31487128D02*
X57366500Y-30106000D01*
X58128500Y-30106000D02*
X58128500Y-31376000D01*
X58128500Y-30852128D02*
X57366500Y-31487128D01*
X56286433Y-31375489D02*
G75*
G02X56287000Y-28836000I1143567J1269489D01*
G01*
X58763500Y-28836000D02*
X58763500Y-30106000D01*
X57366500Y-28709000D02*
X57366500Y-30106000D01*
X56658536Y-30986799D02*
G75*
G02X56668000Y-29217000I771464J880799D01*
G01*
X58128500Y-31376000D02*
X58763500Y-31376000D01*
X58763500Y-31376000D02*
X58763500Y-30106000D01*
D11*
X67343857Y-52322809D02*
X66629571Y-52560904D01*
X65439095Y-52560904D01*
X64962904Y-52322809D01*
X64724809Y-52084714D01*
X64486714Y-51608523D01*
X64486714Y-51132333D01*
X64724809Y-50656142D01*
X64962904Y-50418047D01*
X65439095Y-50179952D01*
X66391476Y-49941857D01*
X66867666Y-49703761D01*
X67105761Y-49465666D01*
X67343857Y-48989476D01*
X67343857Y-48513285D01*
X67105761Y-48037095D01*
X66867666Y-47799000D01*
X66391476Y-47560904D01*
X65201000Y-47560904D01*
X64486714Y-47799000D01*
X62343857Y-52560904D02*
X62343857Y-47560904D01*
X60439095Y-47560904D01*
X59962904Y-47799000D01*
X59724809Y-48037095D01*
X59486714Y-48513285D01*
X59486714Y-49227571D01*
X59724809Y-49703761D01*
X59962904Y-49941857D01*
X60439095Y-50179952D01*
X62343857Y-50179952D01*
X54962904Y-52560904D02*
X57343857Y-52560904D01*
X57343857Y-47560904D01*
X53296238Y-52560904D02*
X53296238Y-47560904D01*
X51629571Y-47560904D02*
X48772428Y-47560904D01*
X50201000Y-52560904D02*
X50201000Y-47560904D01*
X88733571Y-2178571D02*
X89447857Y-2178571D01*
X89447857Y-678571D01*
X87662142Y-2107142D02*
X87805000Y-2178571D01*
X88090714Y-2178571D01*
X88233571Y-2107142D01*
X88305000Y-1964285D01*
X88305000Y-1392857D01*
X88233571Y-1250000D01*
X88090714Y-1178571D01*
X87805000Y-1178571D01*
X87662142Y-1250000D01*
X87590714Y-1392857D01*
X87590714Y-1535714D01*
X88305000Y-1678571D01*
X87162142Y-1178571D02*
X86590714Y-1178571D01*
X86947857Y-678571D02*
X86947857Y-1964285D01*
X86876428Y-2107142D01*
X86733571Y-2178571D01*
X86590714Y-2178571D01*
X86019285Y-678571D02*
X86162142Y-964285D01*
X85447857Y-2107142D02*
X85305000Y-2178571D01*
X85019285Y-2178571D01*
X84876428Y-2107142D01*
X84805000Y-1964285D01*
X84805000Y-1892857D01*
X84876428Y-1750000D01*
X85019285Y-1678571D01*
X85233571Y-1678571D01*
X85376428Y-1607142D01*
X85447857Y-1464285D01*
X85447857Y-1392857D01*
X85376428Y-1250000D01*
X85233571Y-1178571D01*
X85019285Y-1178571D01*
X84876428Y-1250000D01*
X83090714Y-2107142D02*
X82876428Y-2178571D01*
X82519285Y-2178571D01*
X82376428Y-2107142D01*
X82305000Y-2035714D01*
X82233571Y-1892857D01*
X82233571Y-1750000D01*
X82305000Y-1607142D01*
X82376428Y-1535714D01*
X82519285Y-1464285D01*
X82805000Y-1392857D01*
X82947857Y-1321428D01*
X83019285Y-1250000D01*
X83090714Y-1107142D01*
X83090714Y-964285D01*
X83019285Y-821428D01*
X82947857Y-750000D01*
X82805000Y-678571D01*
X82447857Y-678571D01*
X82233571Y-750000D01*
X81590714Y-1178571D02*
X81590714Y-2678571D01*
X81590714Y-1250000D02*
X81447857Y-1178571D01*
X81162142Y-1178571D01*
X81019285Y-1250000D01*
X80947857Y-1321428D01*
X80876428Y-1464285D01*
X80876428Y-1892857D01*
X80947857Y-2035714D01*
X81019285Y-2107142D01*
X81162142Y-2178571D01*
X81447857Y-2178571D01*
X81590714Y-2107142D01*
X80019285Y-2178571D02*
X80162142Y-2107142D01*
X80233571Y-1964285D01*
X80233571Y-678571D01*
X79447857Y-2178571D02*
X79447857Y-1178571D01*
X79447857Y-678571D02*
X79519285Y-750000D01*
X79447857Y-821428D01*
X79376428Y-750000D01*
X79447857Y-678571D01*
X79447857Y-821428D01*
X78947857Y-1178571D02*
X78376428Y-1178571D01*
X78733571Y-678571D02*
X78733571Y-1964285D01*
X78662142Y-2107142D01*
X78519285Y-2178571D01*
X78376428Y-2178571D01*
X77805000Y-2107142D02*
X77805000Y-2178571D01*
X77876428Y-2321428D01*
X77947857Y-2392857D01*
X76162142Y-1178571D02*
X75805000Y-2178571D01*
X75447857Y-1178571D01*
X74876428Y-2178571D02*
X74876428Y-1178571D01*
X74876428Y-678571D02*
X74947857Y-750000D01*
X74876428Y-821428D01*
X74805000Y-750000D01*
X74876428Y-678571D01*
X74876428Y-821428D01*
X74376428Y-1178571D02*
X73805000Y-1178571D01*
X74162142Y-678571D02*
X74162142Y-1964285D01*
X74090714Y-2107142D01*
X73947857Y-2178571D01*
X73805000Y-2178571D01*
X72662142Y-2178571D02*
X72662142Y-1392857D01*
X72733571Y-1250000D01*
X72876428Y-1178571D01*
X73162142Y-1178571D01*
X73305000Y-1250000D01*
X72662142Y-2107142D02*
X72805000Y-2178571D01*
X73162142Y-2178571D01*
X73305000Y-2107142D01*
X73376428Y-1964285D01*
X73376428Y-1821428D01*
X73305000Y-1678571D01*
X73162142Y-1607142D01*
X72805000Y-1607142D01*
X72662142Y-1535714D01*
X71947857Y-2178571D02*
X71947857Y-1178571D01*
X71947857Y-1321428D02*
X71876428Y-1250000D01*
X71733571Y-1178571D01*
X71519285Y-1178571D01*
X71376428Y-1250000D01*
X71305000Y-1392857D01*
X71305000Y-2178571D01*
X71305000Y-1392857D02*
X71233571Y-1250000D01*
X71090714Y-1178571D01*
X70876428Y-1178571D01*
X70733571Y-1250000D01*
X70662142Y-1392857D01*
X70662142Y-2178571D01*
X69947857Y-2178571D02*
X69947857Y-1178571D01*
X69947857Y-678571D02*
X70019285Y-750000D01*
X69947857Y-821428D01*
X69876428Y-750000D01*
X69947857Y-678571D01*
X69947857Y-821428D01*
X69233571Y-1178571D02*
X69233571Y-2178571D01*
X69233571Y-1321428D02*
X69162142Y-1250000D01*
X69019285Y-1178571D01*
X68805000Y-1178571D01*
X68662142Y-1250000D01*
X68590714Y-1392857D01*
X68590714Y-2178571D01*
X67947857Y-2107142D02*
X67805000Y-2178571D01*
X67519285Y-2178571D01*
X67376428Y-2107142D01*
X67305000Y-1964285D01*
X67305000Y-1892857D01*
X67376428Y-1750000D01*
X67519285Y-1678571D01*
X67733571Y-1678571D01*
X67876428Y-1607142D01*
X67947857Y-1464285D01*
X67947857Y-1392857D01*
X67876428Y-1250000D01*
X67733571Y-1178571D01*
X67519285Y-1178571D01*
X67376428Y-1250000D01*
X65519285Y-2178571D02*
X65519285Y-1178571D01*
X65519285Y-678571D02*
X65590714Y-750000D01*
X65519285Y-821428D01*
X65447857Y-750000D01*
X65519285Y-678571D01*
X65519285Y-821428D01*
X64805000Y-1178571D02*
X64805000Y-2178571D01*
X64805000Y-1321428D02*
X64733571Y-1250000D01*
X64590714Y-1178571D01*
X64376428Y-1178571D01*
X64233571Y-1250000D01*
X64162142Y-1392857D01*
X64162142Y-2178571D01*
X62805000Y-2107142D02*
X62947857Y-2178571D01*
X63233571Y-2178571D01*
X63376428Y-2107142D01*
X63447857Y-2035714D01*
X63519285Y-1892857D01*
X63519285Y-1464285D01*
X63447857Y-1321428D01*
X63376428Y-1250000D01*
X63233571Y-1178571D01*
X62947857Y-1178571D01*
X62805000Y-1250000D01*
X61947857Y-2178571D02*
X62090714Y-2107142D01*
X62162142Y-1964285D01*
X62162142Y-678571D01*
X60733571Y-1178571D02*
X60733571Y-2178571D01*
X61376428Y-1178571D02*
X61376428Y-1964285D01*
X61305000Y-2107142D01*
X61162142Y-2178571D01*
X60947857Y-2178571D01*
X60805000Y-2107142D01*
X60733571Y-2035714D01*
X59376428Y-2178571D02*
X59376428Y-678571D01*
X59376428Y-2107142D02*
X59519285Y-2178571D01*
X59805000Y-2178571D01*
X59947857Y-2107142D01*
X60019285Y-2035714D01*
X60090714Y-1892857D01*
X60090714Y-1464285D01*
X60019285Y-1321428D01*
X59947857Y-1250000D01*
X59805000Y-1178571D01*
X59519285Y-1178571D01*
X59376428Y-1250000D01*
X58090714Y-2107142D02*
X58233571Y-2178571D01*
X58519285Y-2178571D01*
X58662142Y-2107142D01*
X58733571Y-1964285D01*
X58733571Y-1392857D01*
X58662142Y-1250000D01*
X58519285Y-1178571D01*
X58233571Y-1178571D01*
X58090714Y-1250000D01*
X58019285Y-1392857D01*
X58019285Y-1535714D01*
X58733571Y-1678571D01*
X56733571Y-2178571D02*
X56733571Y-678571D01*
X56733571Y-2107142D02*
X56876428Y-2178571D01*
X57162142Y-2178571D01*
X57304999Y-2107142D01*
X57376428Y-2035714D01*
X57447857Y-1892857D01*
X57447857Y-1464285D01*
X57376428Y-1321428D01*
X57304999Y-1250000D01*
X57162142Y-1178571D01*
X56876428Y-1178571D01*
X56733571Y-1250000D01*
X54876428Y-2178571D02*
X54876428Y-678571D01*
X54876428Y-1250000D02*
X54733571Y-1178571D01*
X54447857Y-1178571D01*
X54305000Y-1250000D01*
X54233571Y-1321428D01*
X54162142Y-1464285D01*
X54162142Y-1892857D01*
X54233571Y-2035714D01*
X54305000Y-2107142D01*
X54447857Y-2178571D01*
X54733571Y-2178571D01*
X54876428Y-2107142D01*
X53662142Y-1178571D02*
X53305000Y-2178571D01*
X52947857Y-1178571D02*
X53305000Y-2178571D01*
X53447857Y-2535714D01*
X53519285Y-2607142D01*
X53662142Y-2678571D01*
X51233571Y-2178571D02*
X51233571Y-678571D01*
X50876428Y-678571D01*
X50662142Y-750000D01*
X50519285Y-892857D01*
X50447857Y-1035714D01*
X50376428Y-1321428D01*
X50376428Y-1535714D01*
X50447857Y-1821428D01*
X50519285Y-1964285D01*
X50662142Y-2107142D01*
X50876428Y-2178571D01*
X51233571Y-2178571D01*
X49090714Y-1178571D02*
X49090714Y-2178571D01*
X49733571Y-1178571D02*
X49733571Y-1964285D01*
X49662142Y-2107142D01*
X49519285Y-2178571D01*
X49305000Y-2178571D01*
X49162142Y-2107142D01*
X49090714Y-2035714D01*
X47733571Y-2107142D02*
X47876428Y-2178571D01*
X48162142Y-2178571D01*
X48305000Y-2107142D01*
X48376428Y-2035714D01*
X48447857Y-1892857D01*
X48447857Y-1464285D01*
X48376428Y-1321428D01*
X48305000Y-1250000D01*
X48162142Y-1178571D01*
X47876428Y-1178571D01*
X47733571Y-1250000D01*
X47090714Y-2178571D02*
X47090714Y-678571D01*
X46947857Y-1607142D02*
X46519285Y-2178571D01*
X46519285Y-1178571D02*
X47090714Y-1750000D01*
X45662142Y-2178571D02*
X45805000Y-2107142D01*
X45876428Y-1964285D01*
X45876428Y-678571D01*
X44519285Y-2107142D02*
X44662142Y-2178571D01*
X44947857Y-2178571D01*
X45090714Y-2107142D01*
X45162142Y-1964285D01*
X45162142Y-1392857D01*
X45090714Y-1250000D01*
X44947857Y-1178571D01*
X44662142Y-1178571D01*
X44519285Y-1250000D01*
X44447857Y-1392857D01*
X44447857Y-1535714D01*
X45162142Y-1678571D01*
X43876428Y-821428D02*
X43805000Y-750000D01*
X43662142Y-678571D01*
X43305000Y-678571D01*
X43162142Y-750000D01*
X43090714Y-821428D01*
X43019285Y-964285D01*
X43019285Y-1107142D01*
X43090714Y-1321428D01*
X43947857Y-2178571D01*
X43019285Y-2178571D01*
X42305000Y-2178571D02*
X42019285Y-2178571D01*
X41876428Y-2107142D01*
X41805000Y-2035714D01*
X41662142Y-1821428D01*
X41590714Y-1535714D01*
X41590714Y-964285D01*
X41662142Y-821428D01*
X41733571Y-750000D01*
X41876428Y-678571D01*
X42162142Y-678571D01*
X42305000Y-750000D01*
X42376428Y-821428D01*
X42447857Y-964285D01*
X42447857Y-1321428D01*
X42376428Y-1464285D01*
X42305000Y-1535714D01*
X42162142Y-1607142D01*
X41876428Y-1607142D01*
X41733571Y-1535714D01*
X41662142Y-1464285D01*
X41590714Y-1321428D01*
X12892857Y-10267000D02*
X11750000Y-10267000D01*
X9892857Y-10800333D02*
X9892857Y-9400333D01*
X9535714Y-9400333D01*
X9321428Y-9467000D01*
X9178571Y-9600333D01*
X9107142Y-9733666D01*
X9035714Y-10000333D01*
X9035714Y-10200333D01*
X9107142Y-10467000D01*
X9178571Y-10600333D01*
X9321428Y-10733666D01*
X9535714Y-10800333D01*
X9892857Y-10800333D01*
X7250000Y-10267000D02*
X6107142Y-10267000D01*
X6678571Y-10800333D02*
X6678571Y-9733666D01*
D10*
X43330857Y-79552571D02*
X43330857Y-78052571D01*
X42973714Y-78052571D01*
X42759428Y-78124000D01*
X42616571Y-78266857D01*
X42545142Y-78409714D01*
X42473714Y-78695428D01*
X42473714Y-78909714D01*
X42545142Y-79195428D01*
X42616571Y-79338285D01*
X42759428Y-79481142D01*
X42973714Y-79552571D01*
X43330857Y-79552571D01*
X41259428Y-79481142D02*
X41402285Y-79552571D01*
X41688000Y-79552571D01*
X41830857Y-79481142D01*
X41902285Y-79338285D01*
X41902285Y-78766857D01*
X41830857Y-78624000D01*
X41688000Y-78552571D01*
X41402285Y-78552571D01*
X41259428Y-78624000D01*
X41188000Y-78766857D01*
X41188000Y-78909714D01*
X41902285Y-79052571D01*
X40616571Y-79481142D02*
X40473714Y-79552571D01*
X40188000Y-79552571D01*
X40045142Y-79481142D01*
X39973714Y-79338285D01*
X39973714Y-79266857D01*
X40045142Y-79124000D01*
X40188000Y-79052571D01*
X40402285Y-79052571D01*
X40545142Y-78981142D01*
X40616571Y-78838285D01*
X40616571Y-78766857D01*
X40545142Y-78624000D01*
X40402285Y-78552571D01*
X40188000Y-78552571D01*
X40045142Y-78624000D01*
X39330857Y-79552571D02*
X39330857Y-78552571D01*
X39330857Y-78052571D02*
X39402285Y-78124000D01*
X39330857Y-78195428D01*
X39259428Y-78124000D01*
X39330857Y-78052571D01*
X39330857Y-78195428D01*
X37973714Y-78552571D02*
X37973714Y-79766857D01*
X38045142Y-79909714D01*
X38116571Y-79981142D01*
X38259428Y-80052571D01*
X38473714Y-80052571D01*
X38616571Y-79981142D01*
X37973714Y-79481142D02*
X38116571Y-79552571D01*
X38402285Y-79552571D01*
X38545142Y-79481142D01*
X38616571Y-79409714D01*
X38688000Y-79266857D01*
X38688000Y-78838285D01*
X38616571Y-78695428D01*
X38545142Y-78624000D01*
X38402285Y-78552571D01*
X38116571Y-78552571D01*
X37973714Y-78624000D01*
X37259428Y-78552571D02*
X37259428Y-79552571D01*
X37259428Y-78695428D02*
X37188000Y-78624000D01*
X37045142Y-78552571D01*
X36830857Y-78552571D01*
X36688000Y-78624000D01*
X36616571Y-78766857D01*
X36616571Y-79552571D01*
X35330857Y-79481142D02*
X35473714Y-79552571D01*
X35759428Y-79552571D01*
X35902285Y-79481142D01*
X35973714Y-79338285D01*
X35973714Y-78766857D01*
X35902285Y-78624000D01*
X35759428Y-78552571D01*
X35473714Y-78552571D01*
X35330857Y-78624000D01*
X35259428Y-78766857D01*
X35259428Y-78909714D01*
X35973714Y-79052571D01*
X33973714Y-79552571D02*
X33973714Y-78052571D01*
X33973714Y-79481142D02*
X34116571Y-79552571D01*
X34402285Y-79552571D01*
X34545142Y-79481142D01*
X34616571Y-79409714D01*
X34687999Y-79266857D01*
X34687999Y-78838285D01*
X34616571Y-78695428D01*
X34545142Y-78624000D01*
X34402285Y-78552571D01*
X34116571Y-78552571D01*
X33973714Y-78624000D01*
X27545142Y-79552571D02*
X27545142Y-78552571D01*
X27545142Y-78695428D02*
X27473714Y-78624000D01*
X27330857Y-78552571D01*
X27116571Y-78552571D01*
X26973714Y-78624000D01*
X26902285Y-78766857D01*
X26902285Y-79552571D01*
X26902285Y-78766857D02*
X26830857Y-78624000D01*
X26688000Y-78552571D01*
X26473714Y-78552571D01*
X26330857Y-78624000D01*
X26259428Y-78766857D01*
X26259428Y-79552571D01*
X24902285Y-79552571D02*
X24902285Y-78766857D01*
X24973714Y-78624000D01*
X25116571Y-78552571D01*
X25402285Y-78552571D01*
X25545142Y-78624000D01*
X24902285Y-79481142D02*
X25045142Y-79552571D01*
X25402285Y-79552571D01*
X25545142Y-79481142D01*
X25616571Y-79338285D01*
X25616571Y-79195428D01*
X25545142Y-79052571D01*
X25402285Y-78981142D01*
X25045142Y-78981142D01*
X24902285Y-78909714D01*
X23545142Y-79552571D02*
X23545142Y-78052571D01*
X23545142Y-79481142D02*
X23687999Y-79552571D01*
X23973714Y-79552571D01*
X24116571Y-79481142D01*
X24187999Y-79409714D01*
X24259428Y-79266857D01*
X24259428Y-78838285D01*
X24187999Y-78695428D01*
X24116571Y-78624000D01*
X23973714Y-78552571D01*
X23687999Y-78552571D01*
X23545142Y-78624000D01*
X22259428Y-79481142D02*
X22402285Y-79552571D01*
X22687999Y-79552571D01*
X22830857Y-79481142D01*
X22902285Y-79338285D01*
X22902285Y-78766857D01*
X22830857Y-78624000D01*
X22687999Y-78552571D01*
X22402285Y-78552571D01*
X22259428Y-78624000D01*
X22187999Y-78766857D01*
X22187999Y-78909714D01*
X22902285Y-79052571D01*
X20402285Y-79552571D02*
X20402285Y-78552571D01*
X20402285Y-78052571D02*
X20473714Y-78124000D01*
X20402285Y-78195428D01*
X20330857Y-78124000D01*
X20402285Y-78052571D01*
X20402285Y-78195428D01*
X19688000Y-78552571D02*
X19688000Y-79552571D01*
X19688000Y-78695428D02*
X19616571Y-78624000D01*
X19473714Y-78552571D01*
X19259428Y-78552571D01*
X19116571Y-78624000D01*
X19045142Y-78766857D01*
X19045142Y-79552571D01*
X17188000Y-79552571D02*
X17188000Y-78052571D01*
X16830857Y-78052571D01*
X16616571Y-78124000D01*
X16473714Y-78266857D01*
X16402285Y-78409714D01*
X16330857Y-78695428D01*
X16330857Y-78909714D01*
X16402285Y-79195428D01*
X16473714Y-79338285D01*
X16616571Y-79481142D01*
X16830857Y-79552571D01*
X17188000Y-79552571D01*
X15116571Y-79481142D02*
X15259428Y-79552571D01*
X15545142Y-79552571D01*
X15688000Y-79481142D01*
X15759428Y-79338285D01*
X15759428Y-78766857D01*
X15688000Y-78624000D01*
X15545142Y-78552571D01*
X15259428Y-78552571D01*
X15116571Y-78624000D01*
X15045142Y-78766857D01*
X15045142Y-78909714D01*
X15759428Y-79052571D01*
X14402285Y-78552571D02*
X14402285Y-79552571D01*
X14402285Y-78695428D02*
X14330857Y-78624000D01*
X14188000Y-78552571D01*
X13973714Y-78552571D01*
X13830857Y-78624000D01*
X13759428Y-78766857D01*
X13759428Y-79552571D01*
X13045142Y-79552571D02*
X13045142Y-78552571D01*
X13045142Y-78695428D02*
X12973714Y-78624000D01*
X12830857Y-78552571D01*
X12616571Y-78552571D01*
X12473714Y-78624000D01*
X12402285Y-78766857D01*
X12402285Y-79552571D01*
X12402285Y-78766857D02*
X12330857Y-78624000D01*
X12188000Y-78552571D01*
X11973714Y-78552571D01*
X11830857Y-78624000D01*
X11759428Y-78766857D01*
X11759428Y-79552571D01*
X10402285Y-79552571D02*
X10402285Y-78766857D01*
X10473714Y-78624000D01*
X10616571Y-78552571D01*
X10902285Y-78552571D01*
X11045142Y-78624000D01*
X10402285Y-79481142D02*
X10545142Y-79552571D01*
X10902285Y-79552571D01*
X11045142Y-79481142D01*
X11116571Y-79338285D01*
X11116571Y-79195428D01*
X11045142Y-79052571D01*
X10902285Y-78981142D01*
X10545142Y-78981142D01*
X10402285Y-78909714D01*
X9688000Y-79552571D02*
X9688000Y-78552571D01*
X9688000Y-78838285D02*
X9616571Y-78695428D01*
X9545142Y-78624000D01*
X9402285Y-78552571D01*
X9259428Y-78552571D01*
X8759428Y-79552571D02*
X8759428Y-78052571D01*
X8616571Y-78981142D02*
X8188000Y-79552571D01*
X8188000Y-78552571D02*
X8759428Y-79124000D01*
X7473714Y-79481142D02*
X7473714Y-79552571D01*
X7545142Y-79695428D01*
X7616571Y-79766857D01*
X5688000Y-78766857D02*
X5188000Y-78766857D01*
X4973714Y-79552571D02*
X5688000Y-79552571D01*
X5688000Y-78052571D01*
X4973714Y-78052571D01*
X4330857Y-78052571D02*
X4330857Y-79266857D01*
X4259428Y-79409714D01*
X4188000Y-79481142D01*
X4045142Y-79552571D01*
X3759428Y-79552571D01*
X3616571Y-79481142D01*
X3545142Y-79409714D01*
X3473714Y-79266857D01*
X3473714Y-78052571D01*
D11*
X57379261Y-28166857D02*
X58369738Y-28166857D01*
X57874500Y-28662095D02*
X57874500Y-27671619D01*
D12*
X31855833Y-79597809D02*
X31855833Y-78759714D01*
X31932023Y-78607333D01*
X32084404Y-78531142D01*
X32389166Y-78531142D01*
X32541547Y-78607333D01*
X31855833Y-79521619D02*
X32008214Y-79597809D01*
X32389166Y-79597809D01*
X32541547Y-79521619D01*
X32617738Y-79369238D01*
X32617738Y-79216857D01*
X32541547Y-79064476D01*
X32389166Y-78988285D01*
X32008214Y-78988285D01*
X31855833Y-78912095D01*
X31093928Y-78531142D02*
X31093928Y-79597809D01*
X31093928Y-78683523D02*
X31017738Y-78607333D01*
X30865357Y-78531142D01*
X30636785Y-78531142D01*
X30484404Y-78607333D01*
X30408214Y-78759714D01*
X30408214Y-79597809D01*
X28960595Y-79597809D02*
X28960595Y-77997809D01*
X28960595Y-79521619D02*
X29112976Y-79597809D01*
X29417738Y-79597809D01*
X29570119Y-79521619D01*
X29646309Y-79445428D01*
X29722500Y-79293047D01*
X29722500Y-78835904D01*
X29646309Y-78683523D01*
X29570119Y-78607333D01*
X29417738Y-78531142D01*
X29112976Y-78531142D01*
X28960595Y-78607333D01*
D11*
X83664285Y-30903571D02*
X83664285Y-29403571D01*
X83021428Y-29546428D02*
X82950000Y-29475000D01*
X82807142Y-29403571D01*
X82450000Y-29403571D01*
X82307142Y-29475000D01*
X82235714Y-29546428D01*
X82164285Y-29689285D01*
X82164285Y-29832142D01*
X82235714Y-30046428D01*
X83092857Y-30903571D01*
X82164285Y-30903571D01*
X80664285Y-30760714D02*
X80735714Y-30832142D01*
X80950000Y-30903571D01*
X81092857Y-30903571D01*
X81307142Y-30832142D01*
X81450000Y-30689285D01*
X81521428Y-30546428D01*
X81592857Y-30260714D01*
X81592857Y-30046428D01*
X81521428Y-29760714D01*
X81450000Y-29617857D01*
X81307142Y-29475000D01*
X81092857Y-29403571D01*
X80950000Y-29403571D01*
X80735714Y-29475000D01*
X80664285Y-29546428D01*
X85414285Y-33453571D02*
X85414285Y-31953571D01*
X84842857Y-31953571D01*
X84700000Y-32025000D01*
X84628571Y-32096428D01*
X84557142Y-32239285D01*
X84557142Y-32453571D01*
X84628571Y-32596428D01*
X84700000Y-32667857D01*
X84842857Y-32739285D01*
X85414285Y-32739285D01*
X83271428Y-32453571D02*
X83271428Y-33453571D01*
X83914285Y-32453571D02*
X83914285Y-33239285D01*
X83842857Y-33382142D01*
X83700000Y-33453571D01*
X83485714Y-33453571D01*
X83342857Y-33382142D01*
X83271428Y-33310714D01*
X82342857Y-33453571D02*
X82485714Y-33382142D01*
X82557142Y-33239285D01*
X82557142Y-31953571D01*
X81557142Y-33453571D02*
X81700000Y-33382142D01*
X81771428Y-33239285D01*
X81771428Y-31953571D01*
X80342857Y-32453571D02*
X80342857Y-33453571D01*
X80985714Y-32453571D02*
X80985714Y-33239285D01*
X80914285Y-33382142D01*
X80771428Y-33453571D01*
X80557142Y-33453571D01*
X80414285Y-33382142D01*
X80342857Y-33310714D01*
X79628571Y-32453571D02*
X79628571Y-33953571D01*
X79628571Y-32525000D02*
X79485714Y-32453571D01*
X79200000Y-32453571D01*
X79057142Y-32525000D01*
X78985714Y-32596428D01*
X78914285Y-32739285D01*
X78914285Y-33167857D01*
X78985714Y-33310714D01*
X79057142Y-33382142D01*
X79200000Y-33453571D01*
X79485714Y-33453571D01*
X79628571Y-33382142D01*
D13*
X87442857Y-9542857D02*
X87842857Y-8971428D01*
X88128571Y-9542857D02*
X88128571Y-8342857D01*
X87671428Y-8342857D01*
X87557142Y-8400000D01*
X87500000Y-8457142D01*
X87442857Y-8571428D01*
X87442857Y-8742857D01*
X87500000Y-8857142D01*
X87557142Y-8914285D01*
X87671428Y-8971428D01*
X88128571Y-8971428D01*
X86928571Y-8914285D02*
X86528571Y-8914285D01*
X86357142Y-9542857D02*
X86928571Y-9542857D01*
X86928571Y-8342857D01*
X86357142Y-8342857D01*
X85900000Y-9485714D02*
X85728571Y-9542857D01*
X85442857Y-9542857D01*
X85328571Y-9485714D01*
X85271428Y-9428571D01*
X85214285Y-9314285D01*
X85214285Y-9200000D01*
X85271428Y-9085714D01*
X85328571Y-9028571D01*
X85442857Y-8971428D01*
X85671428Y-8914285D01*
X85785714Y-8857142D01*
X85842857Y-8800000D01*
X85900000Y-8685714D01*
X85900000Y-8571428D01*
X85842857Y-8457142D01*
X85785714Y-8400000D01*
X85671428Y-8342857D01*
X85385714Y-8342857D01*
X85214285Y-8400000D01*
X84700000Y-8914285D02*
X84300000Y-8914285D01*
X84128571Y-9542857D02*
X84700000Y-9542857D01*
X84700000Y-8342857D01*
X84128571Y-8342857D01*
X83785714Y-8342857D02*
X83100000Y-8342857D01*
X83442857Y-9542857D02*
X83442857Y-8342857D01*
D11*
X50647857Y-30603571D02*
X50647857Y-29103571D01*
X50147857Y-30175000D01*
X49647857Y-29103571D01*
X49647857Y-30603571D01*
X48290714Y-30603571D02*
X48290714Y-29817857D01*
X48362142Y-29675000D01*
X48505000Y-29603571D01*
X48790714Y-29603571D01*
X48933571Y-29675000D01*
X48290714Y-30532142D02*
X48433571Y-30603571D01*
X48790714Y-30603571D01*
X48933571Y-30532142D01*
X49005000Y-30389285D01*
X49005000Y-30246428D01*
X48933571Y-30103571D01*
X48790714Y-30032142D01*
X48433571Y-30032142D01*
X48290714Y-29960714D01*
X46933571Y-30603571D02*
X46933571Y-29103571D01*
X46933571Y-30532142D02*
X47076428Y-30603571D01*
X47362142Y-30603571D01*
X47505000Y-30532142D01*
X47576428Y-30460714D01*
X47647857Y-30317857D01*
X47647857Y-29889285D01*
X47576428Y-29746428D01*
X47505000Y-29675000D01*
X47362142Y-29603571D01*
X47076428Y-29603571D01*
X46933571Y-29675000D01*
X45647857Y-30532142D02*
X45790714Y-30603571D01*
X46076428Y-30603571D01*
X46219285Y-30532142D01*
X46290714Y-30389285D01*
X46290714Y-29817857D01*
X46219285Y-29675000D01*
X46076428Y-29603571D01*
X45790714Y-29603571D01*
X45647857Y-29675000D01*
X45576428Y-29817857D01*
X45576428Y-29960714D01*
X46290714Y-30103571D01*
X43790714Y-30603571D02*
X43790714Y-29603571D01*
X43790714Y-29103571D02*
X43862142Y-29175000D01*
X43790714Y-29246428D01*
X43719285Y-29175000D01*
X43790714Y-29103571D01*
X43790714Y-29246428D01*
X43076428Y-29603571D02*
X43076428Y-30603571D01*
X43076428Y-29746428D02*
X43005000Y-29675000D01*
X42862142Y-29603571D01*
X42647857Y-29603571D01*
X42505000Y-29675000D01*
X42433571Y-29817857D01*
X42433571Y-30603571D01*
X50647857Y-32153571D02*
X50647857Y-33653571D01*
X50647857Y-32225000D02*
X50505000Y-32153571D01*
X50219285Y-32153571D01*
X50076428Y-32225000D01*
X50005000Y-32296428D01*
X49933571Y-32439285D01*
X49933571Y-32867857D01*
X50005000Y-33010714D01*
X50076428Y-33082142D01*
X50219285Y-33153571D01*
X50505000Y-33153571D01*
X50647857Y-33082142D01*
X48647857Y-33153571D02*
X48647857Y-32367857D01*
X48719285Y-32225000D01*
X48862142Y-32153571D01*
X49147857Y-32153571D01*
X49290714Y-32225000D01*
X48647857Y-33082142D02*
X48790714Y-33153571D01*
X49147857Y-33153571D01*
X49290714Y-33082142D01*
X49362142Y-32939285D01*
X49362142Y-32796428D01*
X49290714Y-32653571D01*
X49147857Y-32582142D01*
X48790714Y-32582142D01*
X48647857Y-32510714D01*
X47933571Y-33153571D02*
X47933571Y-32153571D01*
X47933571Y-32439285D02*
X47862142Y-32296428D01*
X47790714Y-32225000D01*
X47647857Y-32153571D01*
X47505000Y-32153571D01*
X47219285Y-32153571D02*
X46647857Y-32153571D01*
X47005000Y-31653571D02*
X47005000Y-32939285D01*
X46933571Y-33082142D01*
X46790714Y-33153571D01*
X46647857Y-33153571D01*
X46147857Y-32153571D02*
X46147857Y-33153571D01*
X46147857Y-32296428D02*
X46076428Y-32225000D01*
X45933571Y-32153571D01*
X45719285Y-32153571D01*
X45576428Y-32225000D01*
X45505000Y-32367857D01*
X45505000Y-33153571D01*
X44219285Y-33082142D02*
X44362142Y-33153571D01*
X44647857Y-33153571D01*
X44790714Y-33082142D01*
X44862142Y-32939285D01*
X44862142Y-32367857D01*
X44790714Y-32225000D01*
X44647857Y-32153571D01*
X44362142Y-32153571D01*
X44219285Y-32225000D01*
X44147857Y-32367857D01*
X44147857Y-32510714D01*
X44862142Y-32653571D01*
X43505000Y-33153571D02*
X43505000Y-32153571D01*
X43505000Y-32439285D02*
X43433571Y-32296428D01*
X43362142Y-32225000D01*
X43219285Y-32153571D01*
X43076428Y-32153571D01*
X42647857Y-33082142D02*
X42505000Y-33153571D01*
X42219285Y-33153571D01*
X42076428Y-33082142D01*
X42005000Y-32939285D01*
X42005000Y-32867857D01*
X42076428Y-32725000D01*
X42219285Y-32653571D01*
X42433571Y-32653571D01*
X42576428Y-32582142D01*
X42647857Y-32439285D01*
X42647857Y-32367857D01*
X42576428Y-32225000D01*
X42433571Y-32153571D01*
X42219285Y-32153571D01*
X42076428Y-32225000D01*
X41362142Y-33153571D02*
X41362142Y-31653571D01*
X40719285Y-33153571D02*
X40719285Y-32367857D01*
X40790714Y-32225000D01*
X40933571Y-32153571D01*
X41147857Y-32153571D01*
X41290714Y-32225000D01*
X41362142Y-32296428D01*
X40005000Y-33153571D02*
X40005000Y-32153571D01*
X40005000Y-31653571D02*
X40076428Y-31725000D01*
X40005000Y-31796428D01*
X39933571Y-31725000D01*
X40005000Y-31653571D01*
X40005000Y-31796428D01*
X39290714Y-32153571D02*
X39290714Y-33653571D01*
X39290714Y-32225000D02*
X39147857Y-32153571D01*
X38862142Y-32153571D01*
X38719285Y-32225000D01*
X38647857Y-32296428D01*
X38576428Y-32439285D01*
X38576428Y-32867857D01*
X38647857Y-33010714D01*
X38719285Y-33082142D01*
X38862142Y-33153571D01*
X39147857Y-33153571D01*
X39290714Y-33082142D01*
X36933571Y-32153571D02*
X36647857Y-33153571D01*
X36362142Y-32439285D01*
X36076428Y-33153571D01*
X35790714Y-32153571D01*
X35219285Y-33153571D02*
X35219285Y-32153571D01*
X35219285Y-31653571D02*
X35290714Y-31725000D01*
X35219285Y-31796428D01*
X35147857Y-31725000D01*
X35219285Y-31653571D01*
X35219285Y-31796428D01*
X34719285Y-32153571D02*
X34147857Y-32153571D01*
X34505000Y-31653571D02*
X34505000Y-32939285D01*
X34433571Y-33082142D01*
X34290714Y-33153571D01*
X34147857Y-33153571D01*
X33647857Y-33153571D02*
X33647857Y-31653571D01*
X33005000Y-33153571D02*
X33005000Y-32367857D01*
X33076428Y-32225000D01*
X33219285Y-32153571D01*
X33433571Y-32153571D01*
X33576428Y-32225000D01*
X33647857Y-32296428D01*
X81335714Y-79328571D02*
X81335714Y-80542857D01*
X81407142Y-80685714D01*
X81478571Y-80757142D01*
X81621428Y-80828571D01*
X81835714Y-80828571D01*
X81978571Y-80757142D01*
X81335714Y-80257142D02*
X81478571Y-80328571D01*
X81764285Y-80328571D01*
X81907142Y-80257142D01*
X81978571Y-80185714D01*
X82050000Y-80042857D01*
X82050000Y-79614285D01*
X81978571Y-79471428D01*
X81907142Y-79400000D01*
X81764285Y-79328571D01*
X81478571Y-79328571D01*
X81335714Y-79400000D01*
X80621428Y-80328571D02*
X80621428Y-79328571D01*
X80621428Y-78828571D02*
X80692857Y-78900000D01*
X80621428Y-78971428D01*
X80550000Y-78900000D01*
X80621428Y-78828571D01*
X80621428Y-78971428D01*
X80121428Y-79328571D02*
X79550000Y-79328571D01*
X79907142Y-78828571D02*
X79907142Y-80114285D01*
X79835714Y-80257142D01*
X79692857Y-80328571D01*
X79550000Y-80328571D01*
X79050000Y-80185714D02*
X78978571Y-80257142D01*
X79050000Y-80328571D01*
X79121428Y-80257142D01*
X79050000Y-80185714D01*
X79050000Y-80328571D01*
X78335714Y-80328571D02*
X78335714Y-79328571D01*
X78335714Y-78828571D02*
X78407142Y-78900000D01*
X78335714Y-78971428D01*
X78264285Y-78900000D01*
X78335714Y-78828571D01*
X78335714Y-78971428D01*
X77407142Y-80328571D02*
X77550000Y-80257142D01*
X77621428Y-80185714D01*
X77692857Y-80042857D01*
X77692857Y-79614285D01*
X77621428Y-79471428D01*
X77550000Y-79400000D01*
X77407142Y-79328571D01*
X77192857Y-79328571D01*
X77050000Y-79400000D01*
X76978571Y-79471428D01*
X76907142Y-79614285D01*
X76907142Y-80042857D01*
X76978571Y-80185714D01*
X77050000Y-80257142D01*
X77192857Y-80328571D01*
X77407142Y-80328571D01*
X75192857Y-78757142D02*
X76478571Y-80685714D01*
X74835714Y-79328571D02*
X74478571Y-80328571D01*
X74121428Y-79328571D01*
X73550000Y-80328571D02*
X73550000Y-79328571D01*
X73550000Y-78828571D02*
X73621428Y-78900000D01*
X73550000Y-78971428D01*
X73478571Y-78900000D01*
X73550000Y-78828571D01*
X73550000Y-78971428D01*
X73050000Y-79328571D02*
X72478571Y-79328571D01*
X72835714Y-78828571D02*
X72835714Y-80114285D01*
X72764285Y-80257142D01*
X72621428Y-80328571D01*
X72478571Y-80328571D01*
X71335714Y-80328571D02*
X71335714Y-79542857D01*
X71407142Y-79400000D01*
X71550000Y-79328571D01*
X71835714Y-79328571D01*
X71978571Y-79400000D01*
X71335714Y-80257142D02*
X71478571Y-80328571D01*
X71835714Y-80328571D01*
X71978571Y-80257142D01*
X72050000Y-80114285D01*
X72050000Y-79971428D01*
X71978571Y-79828571D01*
X71835714Y-79757142D01*
X71478571Y-79757142D01*
X71335714Y-79685714D01*
X70621428Y-79757142D02*
X69478571Y-79757142D01*
X68764285Y-80328571D02*
X68764285Y-79328571D01*
X68764285Y-78828571D02*
X68835714Y-78900000D01*
X68764285Y-78971428D01*
X68692857Y-78900000D01*
X68764285Y-78828571D01*
X68764285Y-78971428D01*
X68050000Y-79328571D02*
X68050000Y-80328571D01*
X68050000Y-79471428D02*
X67978571Y-79400000D01*
X67835714Y-79328571D01*
X67621428Y-79328571D01*
X67478571Y-79400000D01*
X67407142Y-79542857D01*
X67407142Y-80328571D01*
X66050000Y-80257142D02*
X66192857Y-80328571D01*
X66478571Y-80328571D01*
X66621428Y-80257142D01*
X66692857Y-80185714D01*
X66764285Y-80042857D01*
X66764285Y-79614285D01*
X66692857Y-79471428D01*
X66621428Y-79400000D01*
X66478571Y-79328571D01*
X66192857Y-79328571D01*
X66050000Y-79400000D01*
D14*
G04 #@! TO.C,C12*
X76462779Y-67490000D02*
X76137221Y-67490000D01*
X76462779Y-68510000D02*
X76137221Y-68510000D01*
G04 #@! TO.C,C13*
X95362779Y-49410000D02*
X95037221Y-49410000D01*
X95362779Y-48390000D02*
X95037221Y-48390000D01*
G04 #@! TO.C,C14*
X71190000Y-28962779D02*
X71190000Y-28637221D01*
X72210000Y-28962779D02*
X72210000Y-28637221D01*
G04 #@! TO.C,D30*
X15750000Y-48150000D02*
X15750000Y-47000000D01*
X23050000Y-48150000D02*
X15750000Y-48150000D01*
X23050000Y-42650000D02*
X15750000Y-42650000D01*
G04 #@! TO.C,D31*
X41750000Y-61750000D02*
X34450000Y-61750000D01*
X41750000Y-67250000D02*
X34450000Y-67250000D01*
X34450000Y-67250000D02*
X34450000Y-66100000D01*
G04 #@! TO.C,D29*
X41600000Y-24650000D02*
X34300000Y-24650000D01*
X41600000Y-30150000D02*
X34300000Y-30150000D01*
X34300000Y-30150000D02*
X34300000Y-29000000D01*
G04 #@! TO.C,C10*
X19562779Y-48490000D02*
X19237221Y-48490000D01*
X19562779Y-49510000D02*
X19237221Y-49510000D01*
G04 #@! TO.C,C9*
X38050279Y-30590000D02*
X37724721Y-30590000D01*
X38050279Y-31610000D02*
X37724721Y-31610000D01*
G04 #@! TO.C,C11*
X38162779Y-68610000D02*
X37837221Y-68610000D01*
X38162779Y-67590000D02*
X37837221Y-67590000D01*
G04 #@! TO.C,D34*
X72550000Y-67250000D02*
X72550000Y-66100000D01*
X79850000Y-67250000D02*
X72550000Y-67250000D01*
X79850000Y-61750000D02*
X72550000Y-61750000D01*
G04 #@! TO.C,D32*
X72650000Y-29150000D02*
X72650000Y-28000000D01*
X79950000Y-29150000D02*
X72650000Y-29150000D01*
X79950000Y-23650000D02*
X72650000Y-23650000D01*
G04 #@! TO.C,D33*
X91650000Y-48150000D02*
X91650000Y-47000000D01*
X98950000Y-48150000D02*
X91650000Y-48150000D01*
X98950000Y-42650000D02*
X91650000Y-42650000D01*
G04 #@! TO.C,D3*
X90864000Y-26548000D02*
X89934000Y-26548000D01*
X87704000Y-26548000D02*
X88634000Y-26548000D01*
X87704000Y-26548000D02*
X87704000Y-24388000D01*
X90864000Y-26548000D02*
X90864000Y-25088000D01*
D15*
G04 #@! TO.C,P4*
X93287500Y372000D02*
X93287500Y-1128000D01*
X97478500Y372000D02*
X93287500Y372000D01*
X97478500Y-1128000D02*
X97478500Y372000D01*
X91842500Y-1128000D02*
X98542500Y-1128000D01*
X91842500Y-16628000D02*
X98542500Y-16628000D01*
X91842500Y-1128000D02*
X91842500Y-16628000D01*
X98542500Y-1128000D02*
X98542500Y-16628000D01*
D14*
G04 #@! TO.C,D1*
X30412000Y-26802000D02*
X29482000Y-26802000D01*
X27252000Y-26802000D02*
X28182000Y-26802000D01*
X27252000Y-26802000D02*
X27252000Y-24642000D01*
X30412000Y-26802000D02*
X30412000Y-25342000D01*
G04 #@! TO.C,R5*
X51437221Y-2790000D02*
X51762779Y-2790000D01*
X51437221Y-3810000D02*
X51762779Y-3810000D01*
G04 #@! TO.C,R1*
X75456500Y-34453221D02*
X75456500Y-34778779D01*
X74436500Y-34453221D02*
X74436500Y-34778779D01*
G04 #@! TO.C,D5*
X58987000Y-45598000D02*
X58987000Y-44138000D01*
X55827000Y-45598000D02*
X55827000Y-43438000D01*
X55827000Y-45598000D02*
X56757000Y-45598000D01*
X58987000Y-45598000D02*
X58057000Y-45598000D01*
G04 #@! TO.C,D9*
X91118000Y-64902000D02*
X91118000Y-63442000D01*
X87958000Y-64902000D02*
X87958000Y-62742000D01*
X87958000Y-64902000D02*
X88888000Y-64902000D01*
X91118000Y-64902000D02*
X90188000Y-64902000D01*
G04 #@! TO.C,D4*
X27680000Y-45598000D02*
X27680000Y-44138000D01*
X24520000Y-45598000D02*
X24520000Y-43438000D01*
X24520000Y-45598000D02*
X25450000Y-45598000D01*
X27680000Y-45598000D02*
X26750000Y-45598000D01*
G04 #@! TO.C,D11*
X58733000Y-76967000D02*
X58733000Y-75507000D01*
X55573000Y-76967000D02*
X55573000Y-74807000D01*
X55573000Y-76967000D02*
X56503000Y-76967000D01*
X58733000Y-76967000D02*
X57803000Y-76967000D01*
D16*
G04 #@! TO.C,U1*
X60565098Y-7675420D02*
X60565098Y-14670580D01*
X60565098Y-14670580D02*
X53569938Y-14670580D01*
X53569938Y-7675420D02*
X53569938Y-14670580D01*
X60565098Y-7675420D02*
X53569938Y-7675420D01*
D17*
X54359878Y-7675420D02*
X53569938Y-8465360D01*
X59866598Y-7675420D02*
X60565098Y-7675420D01*
X60565098Y-7675420D02*
X60565098Y-8373920D01*
X60565098Y-13972080D02*
X60565098Y-14670580D01*
X60565098Y-14670580D02*
X59866598Y-14670580D01*
X54268438Y-14670580D02*
X53569938Y-14670580D01*
X53569938Y-14670580D02*
X53569938Y-13972080D01*
D15*
X54161926Y-7363000D02*
G75*
G03X54161926Y-7363000I-269408J0D01*
G01*
D14*
G04 #@! TO.C,R3*
X58194000Y-20037221D02*
X58194000Y-20362779D01*
X57174000Y-20037221D02*
X57174000Y-20362779D01*
G04 #@! TO.C,R13*
X50190000Y-15962779D02*
X50190000Y-15637221D01*
X51210000Y-15962779D02*
X51210000Y-15637221D01*
G04 #@! TO.C,D7*
X28761000Y-64775000D02*
X28761000Y-63315000D01*
X25601000Y-64775000D02*
X25601000Y-62615000D01*
X25601000Y-64775000D02*
X26531000Y-64775000D01*
X28761000Y-64775000D02*
X27831000Y-64775000D01*
G04 #@! TO.C,P3*
X13370000Y-11328000D02*
X13370000Y-13988000D01*
X8230000Y-11328000D02*
X13370000Y-11328000D01*
X8230000Y-13988000D02*
X13370000Y-13988000D01*
X8230000Y-11328000D02*
X8230000Y-13988000D01*
X6960000Y-11328000D02*
X5630000Y-11328000D01*
X5630000Y-11328000D02*
X5630000Y-12658000D01*
G04 #@! TO.C,D10*
X20633000Y-76967000D02*
X19703000Y-76967000D01*
X17473000Y-76967000D02*
X18403000Y-76967000D01*
X17473000Y-76967000D02*
X17473000Y-74807000D01*
X20633000Y-76967000D02*
X20633000Y-75507000D01*
D18*
G04 #@! TO.C,G\002A\002A\002A*
G36*
X5245438Y-29296259D02*
X4657772Y-29296384D01*
X4121898Y-29296614D01*
X3635489Y-29296970D01*
X3196221Y-29297470D01*
X2801765Y-29298132D01*
X2449797Y-29298977D01*
X2137990Y-29300022D01*
X1864017Y-29301287D01*
X1625553Y-29302790D01*
X1420271Y-29304551D01*
X1245846Y-29306588D01*
X1099950Y-29308920D01*
X980258Y-29311567D01*
X884443Y-29314546D01*
X810180Y-29317878D01*
X755142Y-29321580D01*
X717002Y-29325673D01*
X693436Y-29330174D01*
X682115Y-29335103D01*
X680222Y-29338555D01*
X684812Y-29343773D01*
X700131Y-29348551D01*
X728507Y-29352907D01*
X772265Y-29356862D01*
X833732Y-29360433D01*
X915234Y-29363640D01*
X1019097Y-29366502D01*
X1147647Y-29369037D01*
X1303210Y-29371264D01*
X1488114Y-29373203D01*
X1704683Y-29374872D01*
X1955244Y-29376290D01*
X2242123Y-29377476D01*
X2567647Y-29378449D01*
X2934142Y-29379228D01*
X3343934Y-29379832D01*
X3799349Y-29380279D01*
X4302713Y-29380589D01*
X4856353Y-29380781D01*
X5462594Y-29380873D01*
X5887222Y-29380888D01*
X6529006Y-29380851D01*
X7116672Y-29380727D01*
X7652547Y-29380496D01*
X8138955Y-29380140D01*
X8578224Y-29379640D01*
X8972679Y-29378978D01*
X9324647Y-29378133D01*
X9636455Y-29377088D01*
X9910427Y-29375823D01*
X10148891Y-29374320D01*
X10354173Y-29372559D01*
X10528599Y-29370522D01*
X10674494Y-29368190D01*
X10794186Y-29365543D01*
X10890001Y-29362564D01*
X10964264Y-29359232D01*
X11019303Y-29355530D01*
X11057442Y-29351437D01*
X11081009Y-29346936D01*
X11092329Y-29342007D01*
X11094222Y-29338555D01*
X11089633Y-29333337D01*
X11074313Y-29328560D01*
X11045937Y-29324203D01*
X11002179Y-29320248D01*
X10940712Y-29316677D01*
X10859210Y-29313470D01*
X10755347Y-29310609D01*
X10626797Y-29308073D01*
X10471234Y-29305846D01*
X10286331Y-29303907D01*
X10069762Y-29302238D01*
X9819200Y-29300820D01*
X9532321Y-29299634D01*
X9206797Y-29298661D01*
X8840302Y-29297882D01*
X8430511Y-29297278D01*
X7975096Y-29296831D01*
X7471731Y-29296521D01*
X6918092Y-29296329D01*
X6311850Y-29296237D01*
X5887222Y-29296222D01*
X5245438Y-29296259D01*
X5245438Y-29296259D01*
G37*
X5245438Y-29296259D02*
X4657772Y-29296384D01*
X4121898Y-29296614D01*
X3635489Y-29296970D01*
X3196221Y-29297470D01*
X2801765Y-29298132D01*
X2449797Y-29298977D01*
X2137990Y-29300022D01*
X1864017Y-29301287D01*
X1625553Y-29302790D01*
X1420271Y-29304551D01*
X1245846Y-29306588D01*
X1099950Y-29308920D01*
X980258Y-29311567D01*
X884443Y-29314546D01*
X810180Y-29317878D01*
X755142Y-29321580D01*
X717002Y-29325673D01*
X693436Y-29330174D01*
X682115Y-29335103D01*
X680222Y-29338555D01*
X684812Y-29343773D01*
X700131Y-29348551D01*
X728507Y-29352907D01*
X772265Y-29356862D01*
X833732Y-29360433D01*
X915234Y-29363640D01*
X1019097Y-29366502D01*
X1147647Y-29369037D01*
X1303210Y-29371264D01*
X1488114Y-29373203D01*
X1704683Y-29374872D01*
X1955244Y-29376290D01*
X2242123Y-29377476D01*
X2567647Y-29378449D01*
X2934142Y-29379228D01*
X3343934Y-29379832D01*
X3799349Y-29380279D01*
X4302713Y-29380589D01*
X4856353Y-29380781D01*
X5462594Y-29380873D01*
X5887222Y-29380888D01*
X6529006Y-29380851D01*
X7116672Y-29380727D01*
X7652547Y-29380496D01*
X8138955Y-29380140D01*
X8578224Y-29379640D01*
X8972679Y-29378978D01*
X9324647Y-29378133D01*
X9636455Y-29377088D01*
X9910427Y-29375823D01*
X10148891Y-29374320D01*
X10354173Y-29372559D01*
X10528599Y-29370522D01*
X10674494Y-29368190D01*
X10794186Y-29365543D01*
X10890001Y-29362564D01*
X10964264Y-29359232D01*
X11019303Y-29355530D01*
X11057442Y-29351437D01*
X11081009Y-29346936D01*
X11092329Y-29342007D01*
X11094222Y-29338555D01*
X11089633Y-29333337D01*
X11074313Y-29328560D01*
X11045937Y-29324203D01*
X11002179Y-29320248D01*
X10940712Y-29316677D01*
X10859210Y-29313470D01*
X10755347Y-29310609D01*
X10626797Y-29308073D01*
X10471234Y-29305846D01*
X10286331Y-29303907D01*
X10069762Y-29302238D01*
X9819200Y-29300820D01*
X9532321Y-29299634D01*
X9206797Y-29298661D01*
X8840302Y-29297882D01*
X8430511Y-29297278D01*
X7975096Y-29296831D01*
X7471731Y-29296521D01*
X6918092Y-29296329D01*
X6311850Y-29296237D01*
X5887222Y-29296222D01*
X5245438Y-29296259D01*
G36*
X24135686Y-29296248D02*
X23430948Y-29296335D01*
X22778694Y-29296494D01*
X22176945Y-29296737D01*
X21623719Y-29297075D01*
X21117038Y-29297521D01*
X20654922Y-29298085D01*
X20235389Y-29298780D01*
X19856461Y-29299616D01*
X19516157Y-29300607D01*
X19212498Y-29301763D01*
X18943502Y-29303095D01*
X18707191Y-29304617D01*
X18501584Y-29306338D01*
X18324700Y-29308272D01*
X18174561Y-29310429D01*
X18049186Y-29312822D01*
X17946595Y-29315461D01*
X17864808Y-29318359D01*
X17801845Y-29321527D01*
X17755726Y-29324977D01*
X17724471Y-29328720D01*
X17706100Y-29332768D01*
X17698633Y-29337133D01*
X17698222Y-29338555D01*
X17702707Y-29343021D01*
X17717480Y-29347166D01*
X17744523Y-29351003D01*
X17785815Y-29354543D01*
X17843336Y-29357797D01*
X17919066Y-29360778D01*
X18014986Y-29363496D01*
X18133075Y-29365964D01*
X18275313Y-29368193D01*
X18443680Y-29370195D01*
X18640156Y-29371981D01*
X18866722Y-29373563D01*
X19125358Y-29374953D01*
X19418042Y-29376163D01*
X19746756Y-29377203D01*
X20113480Y-29378086D01*
X20520193Y-29378824D01*
X20968875Y-29379427D01*
X21461507Y-29379908D01*
X22000069Y-29380279D01*
X22586540Y-29380550D01*
X23222900Y-29380734D01*
X23911130Y-29380842D01*
X24653210Y-29380886D01*
X24894889Y-29380888D01*
X25654091Y-29380862D01*
X26358830Y-29380775D01*
X27011084Y-29380616D01*
X27612833Y-29380373D01*
X28166058Y-29380035D01*
X28672739Y-29379589D01*
X29134856Y-29379025D01*
X29554388Y-29378330D01*
X29933316Y-29377494D01*
X30273620Y-29376503D01*
X30577280Y-29375348D01*
X30846275Y-29374015D01*
X31082587Y-29372493D01*
X31288194Y-29370772D01*
X31465077Y-29368838D01*
X31615216Y-29366681D01*
X31740591Y-29364289D01*
X31843182Y-29361649D01*
X31924969Y-29358751D01*
X31987932Y-29355583D01*
X32034051Y-29352134D01*
X32065307Y-29348390D01*
X32083678Y-29344342D01*
X32091145Y-29339977D01*
X32091555Y-29338555D01*
X32087071Y-29334089D01*
X32072297Y-29329944D01*
X32045255Y-29326107D01*
X32003963Y-29322567D01*
X31946442Y-29319313D01*
X31870711Y-29316332D01*
X31774792Y-29313614D01*
X31656703Y-29311146D01*
X31514465Y-29308917D01*
X31346098Y-29306915D01*
X31149621Y-29305129D01*
X30923055Y-29303547D01*
X30664420Y-29302157D01*
X30371735Y-29300947D01*
X30043021Y-29299907D01*
X29676298Y-29299024D01*
X29269585Y-29298286D01*
X28820902Y-29297683D01*
X28328271Y-29297202D01*
X27789709Y-29296831D01*
X27203238Y-29296560D01*
X26566878Y-29296376D01*
X25878647Y-29296268D01*
X25136568Y-29296224D01*
X24894889Y-29296222D01*
X24135686Y-29296248D01*
X24135686Y-29296248D01*
G37*
X24135686Y-29296248D02*
X23430948Y-29296335D01*
X22778694Y-29296494D01*
X22176945Y-29296737D01*
X21623719Y-29297075D01*
X21117038Y-29297521D01*
X20654922Y-29298085D01*
X20235389Y-29298780D01*
X19856461Y-29299616D01*
X19516157Y-29300607D01*
X19212498Y-29301763D01*
X18943502Y-29303095D01*
X18707191Y-29304617D01*
X18501584Y-29306338D01*
X18324700Y-29308272D01*
X18174561Y-29310429D01*
X18049186Y-29312822D01*
X17946595Y-29315461D01*
X17864808Y-29318359D01*
X17801845Y-29321527D01*
X17755726Y-29324977D01*
X17724471Y-29328720D01*
X17706100Y-29332768D01*
X17698633Y-29337133D01*
X17698222Y-29338555D01*
X17702707Y-29343021D01*
X17717480Y-29347166D01*
X17744523Y-29351003D01*
X17785815Y-29354543D01*
X17843336Y-29357797D01*
X17919066Y-29360778D01*
X18014986Y-29363496D01*
X18133075Y-29365964D01*
X18275313Y-29368193D01*
X18443680Y-29370195D01*
X18640156Y-29371981D01*
X18866722Y-29373563D01*
X19125358Y-29374953D01*
X19418042Y-29376163D01*
X19746756Y-29377203D01*
X20113480Y-29378086D01*
X20520193Y-29378824D01*
X20968875Y-29379427D01*
X21461507Y-29379908D01*
X22000069Y-29380279D01*
X22586540Y-29380550D01*
X23222900Y-29380734D01*
X23911130Y-29380842D01*
X24653210Y-29380886D01*
X24894889Y-29380888D01*
X25654091Y-29380862D01*
X26358830Y-29380775D01*
X27011084Y-29380616D01*
X27612833Y-29380373D01*
X28166058Y-29380035D01*
X28672739Y-29379589D01*
X29134856Y-29379025D01*
X29554388Y-29378330D01*
X29933316Y-29377494D01*
X30273620Y-29376503D01*
X30577280Y-29375348D01*
X30846275Y-29374015D01*
X31082587Y-29372493D01*
X31288194Y-29370772D01*
X31465077Y-29368838D01*
X31615216Y-29366681D01*
X31740591Y-29364289D01*
X31843182Y-29361649D01*
X31924969Y-29358751D01*
X31987932Y-29355583D01*
X32034051Y-29352134D01*
X32065307Y-29348390D01*
X32083678Y-29344342D01*
X32091145Y-29339977D01*
X32091555Y-29338555D01*
X32087071Y-29334089D01*
X32072297Y-29329944D01*
X32045255Y-29326107D01*
X32003963Y-29322567D01*
X31946442Y-29319313D01*
X31870711Y-29316332D01*
X31774792Y-29313614D01*
X31656703Y-29311146D01*
X31514465Y-29308917D01*
X31346098Y-29306915D01*
X31149621Y-29305129D01*
X30923055Y-29303547D01*
X30664420Y-29302157D01*
X30371735Y-29300947D01*
X30043021Y-29299907D01*
X29676298Y-29299024D01*
X29269585Y-29298286D01*
X28820902Y-29297683D01*
X28328271Y-29297202D01*
X27789709Y-29296831D01*
X27203238Y-29296560D01*
X26566878Y-29296376D01*
X25878647Y-29296268D01*
X25136568Y-29296224D01*
X24894889Y-29296222D01*
X24135686Y-29296248D01*
G36*
X3286406Y-29695279D02*
X3250212Y-29705066D01*
X3248444Y-29708116D01*
X3262794Y-29735073D01*
X3303686Y-29804649D01*
X3367882Y-29911513D01*
X3452144Y-30050333D01*
X3553235Y-30215780D01*
X3667916Y-30402522D01*
X3792951Y-30605229D01*
X3812889Y-30637474D01*
X4377333Y-31550049D01*
X4377333Y-33049777D01*
X4603111Y-33049777D01*
X4603111Y-31537242D01*
X5193845Y-30621343D01*
X5784580Y-29705444D01*
X5684766Y-29696508D01*
X5607656Y-29694057D01*
X5552939Y-29700017D01*
X5549691Y-29701103D01*
X5526386Y-29727235D01*
X5476396Y-29795218D01*
X5403566Y-29899427D01*
X5311740Y-30034235D01*
X5204761Y-30194017D01*
X5086473Y-30373148D01*
X4998821Y-30507317D01*
X4875712Y-30695763D01*
X4762093Y-30868118D01*
X4661654Y-31018902D01*
X4578089Y-31142635D01*
X4515089Y-31233838D01*
X4476347Y-31287032D01*
X4465551Y-31298721D01*
X4447103Y-31275245D01*
X4402822Y-31209181D01*
X4336266Y-31106127D01*
X4250996Y-30971683D01*
X4150569Y-30811448D01*
X4038545Y-30631022D01*
X3954321Y-30494387D01*
X3460754Y-29691333D01*
X3354599Y-29691333D01*
X3286406Y-29695279D01*
X3286406Y-29695279D01*
G37*
X3286406Y-29695279D02*
X3250212Y-29705066D01*
X3248444Y-29708116D01*
X3262794Y-29735073D01*
X3303686Y-29804649D01*
X3367882Y-29911513D01*
X3452144Y-30050333D01*
X3553235Y-30215780D01*
X3667916Y-30402522D01*
X3792951Y-30605229D01*
X3812889Y-30637474D01*
X4377333Y-31550049D01*
X4377333Y-33049777D01*
X4603111Y-33049777D01*
X4603111Y-31537242D01*
X5193845Y-30621343D01*
X5784580Y-29705444D01*
X5684766Y-29696508D01*
X5607656Y-29694057D01*
X5552939Y-29700017D01*
X5549691Y-29701103D01*
X5526386Y-29727235D01*
X5476396Y-29795218D01*
X5403566Y-29899427D01*
X5311740Y-30034235D01*
X5204761Y-30194017D01*
X5086473Y-30373148D01*
X4998821Y-30507317D01*
X4875712Y-30695763D01*
X4762093Y-30868118D01*
X4661654Y-31018902D01*
X4578089Y-31142635D01*
X4515089Y-31233838D01*
X4476347Y-31287032D01*
X4465551Y-31298721D01*
X4447103Y-31275245D01*
X4402822Y-31209181D01*
X4336266Y-31106127D01*
X4250996Y-30971683D01*
X4150569Y-30811448D01*
X4038545Y-30631022D01*
X3954321Y-30494387D01*
X3460754Y-29691333D01*
X3354599Y-29691333D01*
X3286406Y-29695279D01*
G36*
X6268222Y-29860666D02*
X7820444Y-29860666D01*
X7820444Y-31215333D01*
X6381111Y-31215333D01*
X6381111Y-31384666D01*
X7820444Y-31384666D01*
X7820444Y-32852222D01*
X6211778Y-32852222D01*
X6211778Y-33049777D01*
X8046222Y-33049777D01*
X8046222Y-29691333D01*
X6268222Y-29691333D01*
X6268222Y-29860666D01*
X6268222Y-29860666D01*
G37*
X6268222Y-29860666D02*
X7820444Y-29860666D01*
X7820444Y-31215333D01*
X6381111Y-31215333D01*
X6381111Y-31384666D01*
X7820444Y-31384666D01*
X7820444Y-32852222D01*
X6211778Y-32852222D01*
X6211778Y-33049777D01*
X8046222Y-33049777D01*
X8046222Y-29691333D01*
X6268222Y-29691333D01*
X6268222Y-29860666D01*
G36*
X10692502Y-30474500D02*
X10685000Y-31257666D01*
X9891835Y-30474500D01*
X9098671Y-29691333D01*
X8850555Y-29691377D01*
X10477421Y-31280453D01*
X9579321Y-32163600D01*
X8681222Y-33046746D01*
X8831865Y-33048262D01*
X8982507Y-33049777D01*
X9833754Y-32215780D01*
X10685000Y-31381783D01*
X10692475Y-32215780D01*
X10699951Y-33049777D01*
X10924889Y-33049777D01*
X10924889Y-29691333D01*
X10700004Y-29691333D01*
X10692502Y-30474500D01*
X10692502Y-30474500D01*
G37*
X10692502Y-30474500D02*
X10685000Y-31257666D01*
X9891835Y-30474500D01*
X9098671Y-29691333D01*
X8850555Y-29691377D01*
X10477421Y-31280453D01*
X9579321Y-32163600D01*
X8681222Y-33046746D01*
X8831865Y-33048262D01*
X8982507Y-33049777D01*
X9833754Y-32215780D01*
X10685000Y-31381783D01*
X10692475Y-32215780D01*
X10699951Y-33049777D01*
X10924889Y-33049777D01*
X10924889Y-29691333D01*
X10700004Y-29691333D01*
X10692502Y-30474500D01*
G36*
X19391555Y-32852222D02*
X17782889Y-32852222D01*
X17782889Y-33049777D01*
X19617333Y-33049777D01*
X19617333Y-29691333D01*
X19391555Y-29691333D01*
X19391555Y-32852222D01*
X19391555Y-32852222D01*
G37*
X19391555Y-32852222D02*
X17782889Y-32852222D01*
X17782889Y-33049777D01*
X19617333Y-33049777D01*
X19617333Y-29691333D01*
X19391555Y-29691333D01*
X19391555Y-32852222D01*
G36*
X20520444Y-29860666D02*
X22072667Y-29860666D01*
X22072667Y-31215333D01*
X20633333Y-31215333D01*
X20633333Y-31384666D01*
X22072667Y-31384666D01*
X22072667Y-32852222D01*
X20464000Y-32852222D01*
X20464000Y-33049777D01*
X22298444Y-33049777D01*
X22298444Y-29691333D01*
X20520444Y-29691333D01*
X20520444Y-29860666D01*
X20520444Y-29860666D01*
G37*
X20520444Y-29860666D02*
X22072667Y-29860666D01*
X22072667Y-31215333D01*
X20633333Y-31215333D01*
X20633333Y-31384666D01*
X22072667Y-31384666D01*
X22072667Y-32852222D01*
X20464000Y-32852222D01*
X20464000Y-33049777D01*
X22298444Y-33049777D01*
X22298444Y-29691333D01*
X20520444Y-29691333D01*
X20520444Y-29860666D01*
G36*
X25554051Y-29696848D02*
X25423274Y-29705444D01*
X25333071Y-29945333D01*
X25304489Y-30021620D01*
X25258689Y-30144203D01*
X25198137Y-30306474D01*
X25125294Y-30501825D01*
X25042624Y-30723650D01*
X24952591Y-30965340D01*
X24857657Y-31220288D01*
X24782708Y-31421640D01*
X24689288Y-31670955D01*
X24601303Y-31902500D01*
X24520766Y-32111210D01*
X24449691Y-32292018D01*
X24390089Y-32439858D01*
X24343976Y-32549665D01*
X24313363Y-32616373D01*
X24300457Y-32635195D01*
X24287176Y-32604989D01*
X24257008Y-32526430D01*
X24211732Y-32404436D01*
X24153129Y-32243922D01*
X24082978Y-32049806D01*
X24003059Y-31827003D01*
X23915152Y-31580430D01*
X23821038Y-31315002D01*
X23763419Y-31151833D01*
X23248472Y-29691333D01*
X23005420Y-29691333D01*
X23085876Y-29910055D01*
X23110797Y-29978209D01*
X23152831Y-30093642D01*
X23209875Y-30250564D01*
X23279826Y-30443179D01*
X23360581Y-30665697D01*
X23450039Y-30912324D01*
X23546096Y-31177266D01*
X23646650Y-31454733D01*
X23695394Y-31589277D01*
X24224454Y-33049777D01*
X24320668Y-33049777D01*
X24388981Y-33040457D01*
X24427940Y-33017697D01*
X24429476Y-33014500D01*
X24441597Y-32982097D01*
X24471825Y-32901876D01*
X24518284Y-32778805D01*
X24579094Y-32617853D01*
X24652379Y-32423987D01*
X24736259Y-32202177D01*
X24828857Y-31957392D01*
X24928295Y-31694600D01*
X24981508Y-31554000D01*
X25086496Y-31276546D01*
X25187820Y-31008641D01*
X25283270Y-30756137D01*
X25370638Y-30524884D01*
X25447714Y-30320731D01*
X25512289Y-30149530D01*
X25562153Y-30017130D01*
X25595097Y-29929382D01*
X25602887Y-29908515D01*
X25684827Y-29688252D01*
X25554051Y-29696848D01*
X25554051Y-29696848D01*
G37*
X25554051Y-29696848D02*
X25423274Y-29705444D01*
X25333071Y-29945333D01*
X25304489Y-30021620D01*
X25258689Y-30144203D01*
X25198137Y-30306474D01*
X25125294Y-30501825D01*
X25042624Y-30723650D01*
X24952591Y-30965340D01*
X24857657Y-31220288D01*
X24782708Y-31421640D01*
X24689288Y-31670955D01*
X24601303Y-31902500D01*
X24520766Y-32111210D01*
X24449691Y-32292018D01*
X24390089Y-32439858D01*
X24343976Y-32549665D01*
X24313363Y-32616373D01*
X24300457Y-32635195D01*
X24287176Y-32604989D01*
X24257008Y-32526430D01*
X24211732Y-32404436D01*
X24153129Y-32243922D01*
X24082978Y-32049806D01*
X24003059Y-31827003D01*
X23915152Y-31580430D01*
X23821038Y-31315002D01*
X23763419Y-31151833D01*
X23248472Y-29691333D01*
X23005420Y-29691333D01*
X23085876Y-29910055D01*
X23110797Y-29978209D01*
X23152831Y-30093642D01*
X23209875Y-30250564D01*
X23279826Y-30443179D01*
X23360581Y-30665697D01*
X23450039Y-30912324D01*
X23546096Y-31177266D01*
X23646650Y-31454733D01*
X23695394Y-31589277D01*
X24224454Y-33049777D01*
X24320668Y-33049777D01*
X24388981Y-33040457D01*
X24427940Y-33017697D01*
X24429476Y-33014500D01*
X24441597Y-32982097D01*
X24471825Y-32901876D01*
X24518284Y-32778805D01*
X24579094Y-32617853D01*
X24652379Y-32423987D01*
X24736259Y-32202177D01*
X24828857Y-31957392D01*
X24928295Y-31694600D01*
X24981508Y-31554000D01*
X25086496Y-31276546D01*
X25187820Y-31008641D01*
X25283270Y-30756137D01*
X25370638Y-30524884D01*
X25447714Y-30320731D01*
X25512289Y-30149530D01*
X25562153Y-30017130D01*
X25595097Y-29929382D01*
X25602887Y-29908515D01*
X25684827Y-29688252D01*
X25554051Y-29696848D01*
G36*
X29692667Y-33049777D02*
X29854944Y-33049365D01*
X30017222Y-33048953D01*
X30906222Y-31509716D01*
X31795222Y-29970480D01*
X31802519Y-31510129D01*
X31809815Y-33049777D01*
X32006889Y-33049777D01*
X32006889Y-29691333D01*
X31682333Y-29692935D01*
X30807444Y-31218033D01*
X29932555Y-32743130D01*
X29925257Y-31217231D01*
X29917958Y-29691333D01*
X29692667Y-29691333D01*
X29692667Y-33049777D01*
X29692667Y-33049777D01*
G37*
X29692667Y-33049777D02*
X29854944Y-33049365D01*
X30017222Y-33048953D01*
X30906222Y-31509716D01*
X31795222Y-29970480D01*
X31802519Y-31510129D01*
X31809815Y-33049777D01*
X32006889Y-33049777D01*
X32006889Y-29691333D01*
X31682333Y-29692935D01*
X30807444Y-31218033D01*
X29932555Y-32743130D01*
X29925257Y-31217231D01*
X29917958Y-29691333D01*
X29692667Y-29691333D01*
X29692667Y-33049777D01*
G36*
X1537785Y-29648451D02*
X1347738Y-29660136D01*
X1177599Y-29681609D01*
X1082389Y-29701428D01*
X984194Y-29729873D01*
X911742Y-29757116D01*
X878545Y-29777940D01*
X877778Y-29780441D01*
X889768Y-29822233D01*
X918689Y-29886134D01*
X919486Y-29887679D01*
X961194Y-29968334D01*
X1166430Y-29894183D01*
X1272940Y-29859006D01*
X1369692Y-29836742D01*
X1475986Y-29824584D01*
X1611117Y-29819724D01*
X1682111Y-29819182D01*
X1825790Y-29820205D01*
X1929147Y-29825879D01*
X2008262Y-29838720D01*
X2079218Y-29861244D01*
X2150796Y-29892534D01*
X2304403Y-29992243D01*
X2419140Y-30123989D01*
X2491114Y-30278297D01*
X2516427Y-30445692D01*
X2491185Y-30616700D01*
X2471257Y-30671929D01*
X2425411Y-30762734D01*
X2365453Y-30840886D01*
X2283877Y-30911470D01*
X2173177Y-30979570D01*
X2025847Y-31050271D01*
X1834379Y-31128657D01*
X1748473Y-31161522D01*
X1553956Y-31236337D01*
X1403422Y-31298185D01*
X1287295Y-31351911D01*
X1195999Y-31402360D01*
X1119956Y-31454377D01*
X1049591Y-31512810D01*
X1043647Y-31518153D01*
X910125Y-31672127D01*
X821921Y-31854003D01*
X776561Y-32069254D01*
X772343Y-32117798D01*
X778716Y-32359937D01*
X831797Y-32572771D01*
X929891Y-32753813D01*
X1071304Y-32900575D01*
X1254345Y-33010571D01*
X1419137Y-33067760D01*
X1571109Y-33096130D01*
X1754579Y-33113965D01*
X1945380Y-33120095D01*
X2119348Y-33113348D01*
X2190111Y-33105140D01*
X2298114Y-33086583D01*
X2416698Y-33062833D01*
X2533014Y-33036924D01*
X2634216Y-33011887D01*
X2707458Y-32990753D01*
X2739891Y-32976554D01*
X2740444Y-32975275D01*
X2730613Y-32943905D01*
X2706364Y-32881866D01*
X2700399Y-32867455D01*
X2660354Y-32771613D01*
X2453455Y-32845395D01*
X2352031Y-32878710D01*
X2259739Y-32900532D01*
X2159185Y-32913272D01*
X2032974Y-32919339D01*
X1907889Y-32920977D01*
X1756627Y-32920493D01*
X1647252Y-32915866D01*
X1565249Y-32905153D01*
X1496103Y-32886415D01*
X1425299Y-32857709D01*
X1421291Y-32855903D01*
X1248801Y-32751226D01*
X1122521Y-32614171D01*
X1042628Y-32445023D01*
X1009297Y-32244062D01*
X1008258Y-32189000D01*
X1033933Y-31999276D01*
X1109100Y-31835777D01*
X1229274Y-31700022D01*
X1288708Y-31650533D01*
X1349194Y-31607983D01*
X1420419Y-31567579D01*
X1512070Y-31524528D01*
X1633834Y-31474037D01*
X1795399Y-31411311D01*
X1869891Y-31383026D01*
X2128711Y-31276516D01*
X2335570Y-31170176D01*
X2494710Y-31058944D01*
X2610372Y-30937760D01*
X2686798Y-30801563D01*
X2728229Y-30645292D01*
X2738907Y-30463888D01*
X2733307Y-30352814D01*
X2691846Y-30153132D01*
X2602466Y-29982834D01*
X2466141Y-29843102D01*
X2283847Y-29735121D01*
X2195129Y-29699980D01*
X2076411Y-29672318D01*
X1917217Y-29654523D01*
X1732643Y-29646574D01*
X1537785Y-29648451D01*
X1537785Y-29648451D01*
G37*
X1537785Y-29648451D02*
X1347738Y-29660136D01*
X1177599Y-29681609D01*
X1082389Y-29701428D01*
X984194Y-29729873D01*
X911742Y-29757116D01*
X878545Y-29777940D01*
X877778Y-29780441D01*
X889768Y-29822233D01*
X918689Y-29886134D01*
X919486Y-29887679D01*
X961194Y-29968334D01*
X1166430Y-29894183D01*
X1272940Y-29859006D01*
X1369692Y-29836742D01*
X1475986Y-29824584D01*
X1611117Y-29819724D01*
X1682111Y-29819182D01*
X1825790Y-29820205D01*
X1929147Y-29825879D01*
X2008262Y-29838720D01*
X2079218Y-29861244D01*
X2150796Y-29892534D01*
X2304403Y-29992243D01*
X2419140Y-30123989D01*
X2491114Y-30278297D01*
X2516427Y-30445692D01*
X2491185Y-30616700D01*
X2471257Y-30671929D01*
X2425411Y-30762734D01*
X2365453Y-30840886D01*
X2283877Y-30911470D01*
X2173177Y-30979570D01*
X2025847Y-31050271D01*
X1834379Y-31128657D01*
X1748473Y-31161522D01*
X1553956Y-31236337D01*
X1403422Y-31298185D01*
X1287295Y-31351911D01*
X1195999Y-31402360D01*
X1119956Y-31454377D01*
X1049591Y-31512810D01*
X1043647Y-31518153D01*
X910125Y-31672127D01*
X821921Y-31854003D01*
X776561Y-32069254D01*
X772343Y-32117798D01*
X778716Y-32359937D01*
X831797Y-32572771D01*
X929891Y-32753813D01*
X1071304Y-32900575D01*
X1254345Y-33010571D01*
X1419137Y-33067760D01*
X1571109Y-33096130D01*
X1754579Y-33113965D01*
X1945380Y-33120095D01*
X2119348Y-33113348D01*
X2190111Y-33105140D01*
X2298114Y-33086583D01*
X2416698Y-33062833D01*
X2533014Y-33036924D01*
X2634216Y-33011887D01*
X2707458Y-32990753D01*
X2739891Y-32976554D01*
X2740444Y-32975275D01*
X2730613Y-32943905D01*
X2706364Y-32881866D01*
X2700399Y-32867455D01*
X2660354Y-32771613D01*
X2453455Y-32845395D01*
X2352031Y-32878710D01*
X2259739Y-32900532D01*
X2159185Y-32913272D01*
X2032974Y-32919339D01*
X1907889Y-32920977D01*
X1756627Y-32920493D01*
X1647252Y-32915866D01*
X1565249Y-32905153D01*
X1496103Y-32886415D01*
X1425299Y-32857709D01*
X1421291Y-32855903D01*
X1248801Y-32751226D01*
X1122521Y-32614171D01*
X1042628Y-32445023D01*
X1009297Y-32244062D01*
X1008258Y-32189000D01*
X1033933Y-31999276D01*
X1109100Y-31835777D01*
X1229274Y-31700022D01*
X1288708Y-31650533D01*
X1349194Y-31607983D01*
X1420419Y-31567579D01*
X1512070Y-31524528D01*
X1633834Y-31474037D01*
X1795399Y-31411311D01*
X1869891Y-31383026D01*
X2128711Y-31276516D01*
X2335570Y-31170176D01*
X2494710Y-31058944D01*
X2610372Y-30937760D01*
X2686798Y-30801563D01*
X2728229Y-30645292D01*
X2738907Y-30463888D01*
X2733307Y-30352814D01*
X2691846Y-30153132D01*
X2602466Y-29982834D01*
X2466141Y-29843102D01*
X2283847Y-29735121D01*
X2195129Y-29699980D01*
X2076411Y-29672318D01*
X1917217Y-29654523D01*
X1732643Y-29646574D01*
X1537785Y-29648451D01*
G36*
X27297348Y-29643230D02*
X27115744Y-29661509D01*
X26957483Y-29689811D01*
X26862413Y-29717966D01*
X26659667Y-29825731D01*
X26483236Y-29981149D01*
X26335869Y-30180582D01*
X26220316Y-30420393D01*
X26146422Y-30665000D01*
X26118699Y-30831028D01*
X26100585Y-31035967D01*
X26092072Y-31263527D01*
X26093149Y-31497420D01*
X26103808Y-31721355D01*
X26124038Y-31919044D01*
X26147233Y-32047888D01*
X26234161Y-32335981D01*
X26349890Y-32576177D01*
X26496378Y-32770231D01*
X26675584Y-32919899D01*
X26889466Y-33026937D01*
X27139980Y-33093100D01*
X27338558Y-33116057D01*
X27471982Y-33120003D01*
X27608042Y-33116448D01*
X27717522Y-33106163D01*
X27718505Y-33106010D01*
X27976572Y-33041918D01*
X28198890Y-32935557D01*
X28386674Y-32785760D01*
X28541140Y-32591361D01*
X28663505Y-32351193D01*
X28738557Y-32127304D01*
X28760997Y-32037846D01*
X28777229Y-31950210D01*
X28788202Y-31852752D01*
X28794867Y-31733823D01*
X28798170Y-31581778D01*
X28799062Y-31384970D01*
X28799062Y-31384666D01*
X28798658Y-31297480D01*
X28571060Y-31297480D01*
X28569575Y-31517061D01*
X28559848Y-31725810D01*
X28541891Y-31907059D01*
X28525100Y-32005555D01*
X28446902Y-32268354D01*
X28335102Y-32490617D01*
X28191587Y-32669908D01*
X28018243Y-32803790D01*
X27848261Y-32880261D01*
X27671674Y-32919468D01*
X27472339Y-32934127D01*
X27269708Y-32924941D01*
X27083237Y-32892616D01*
X26952670Y-32847798D01*
X26774357Y-32741163D01*
X26627640Y-32599315D01*
X26511388Y-32419575D01*
X26424465Y-32199266D01*
X26365739Y-31935709D01*
X26334076Y-31626225D01*
X26327399Y-31370555D01*
X26338616Y-31038753D01*
X26373016Y-30754440D01*
X26431903Y-30513072D01*
X26516583Y-30310105D01*
X26628359Y-30140998D01*
X26704076Y-30058615D01*
X26829659Y-29957089D01*
X26970529Y-29886206D01*
X27137723Y-29842429D01*
X27342280Y-29822219D01*
X27449000Y-29819873D01*
X27591366Y-29820598D01*
X27693923Y-29825914D01*
X27773274Y-29838551D01*
X27846024Y-29861241D01*
X27928776Y-29896713D01*
X27935762Y-29899925D01*
X28125234Y-30014696D01*
X28280132Y-30169523D01*
X28402210Y-30366904D01*
X28493223Y-30609338D01*
X28525950Y-30740402D01*
X28549258Y-30892484D01*
X28564291Y-31083732D01*
X28571060Y-31297480D01*
X28798658Y-31297480D01*
X28798146Y-31187101D01*
X28794779Y-31034401D01*
X28788031Y-30915009D01*
X28776973Y-30817367D01*
X28760676Y-30729918D01*
X28739711Y-30646539D01*
X28639268Y-30364270D01*
X28505606Y-30126858D01*
X28339215Y-29934819D01*
X28140586Y-29788667D01*
X27910208Y-29688917D01*
X27799058Y-29659891D01*
X27657320Y-29641285D01*
X27483978Y-29636110D01*
X27297348Y-29643230D01*
X27297348Y-29643230D01*
G37*
X27297348Y-29643230D02*
X27115744Y-29661509D01*
X26957483Y-29689811D01*
X26862413Y-29717966D01*
X26659667Y-29825731D01*
X26483236Y-29981149D01*
X26335869Y-30180582D01*
X26220316Y-30420393D01*
X26146422Y-30665000D01*
X26118699Y-30831028D01*
X26100585Y-31035967D01*
X26092072Y-31263527D01*
X26093149Y-31497420D01*
X26103808Y-31721355D01*
X26124038Y-31919044D01*
X26147233Y-32047888D01*
X26234161Y-32335981D01*
X26349890Y-32576177D01*
X26496378Y-32770231D01*
X26675584Y-32919899D01*
X26889466Y-33026937D01*
X27139980Y-33093100D01*
X27338558Y-33116057D01*
X27471982Y-33120003D01*
X27608042Y-33116448D01*
X27717522Y-33106163D01*
X27718505Y-33106010D01*
X27976572Y-33041918D01*
X28198890Y-32935557D01*
X28386674Y-32785760D01*
X28541140Y-32591361D01*
X28663505Y-32351193D01*
X28738557Y-32127304D01*
X28760997Y-32037846D01*
X28777229Y-31950210D01*
X28788202Y-31852752D01*
X28794867Y-31733823D01*
X28798170Y-31581778D01*
X28799062Y-31384970D01*
X28799062Y-31384666D01*
X28798658Y-31297480D01*
X28571060Y-31297480D01*
X28569575Y-31517061D01*
X28559848Y-31725810D01*
X28541891Y-31907059D01*
X28525100Y-32005555D01*
X28446902Y-32268354D01*
X28335102Y-32490617D01*
X28191587Y-32669908D01*
X28018243Y-32803790D01*
X27848261Y-32880261D01*
X27671674Y-32919468D01*
X27472339Y-32934127D01*
X27269708Y-32924941D01*
X27083237Y-32892616D01*
X26952670Y-32847798D01*
X26774357Y-32741163D01*
X26627640Y-32599315D01*
X26511388Y-32419575D01*
X26424465Y-32199266D01*
X26365739Y-31935709D01*
X26334076Y-31626225D01*
X26327399Y-31370555D01*
X26338616Y-31038753D01*
X26373016Y-30754440D01*
X26431903Y-30513072D01*
X26516583Y-30310105D01*
X26628359Y-30140998D01*
X26704076Y-30058615D01*
X26829659Y-29957089D01*
X26970529Y-29886206D01*
X27137723Y-29842429D01*
X27342280Y-29822219D01*
X27449000Y-29819873D01*
X27591366Y-29820598D01*
X27693923Y-29825914D01*
X27773274Y-29838551D01*
X27846024Y-29861241D01*
X27928776Y-29896713D01*
X27935762Y-29899925D01*
X28125234Y-30014696D01*
X28280132Y-30169523D01*
X28402210Y-30366904D01*
X28493223Y-30609338D01*
X28525950Y-30740402D01*
X28549258Y-30892484D01*
X28564291Y-31083732D01*
X28571060Y-31297480D01*
X28798658Y-31297480D01*
X28798146Y-31187101D01*
X28794779Y-31034401D01*
X28788031Y-30915009D01*
X28776973Y-30817367D01*
X28760676Y-30729918D01*
X28739711Y-30646539D01*
X28639268Y-30364270D01*
X28505606Y-30126858D01*
X28339215Y-29934819D01*
X28140586Y-29788667D01*
X27910208Y-29688917D01*
X27799058Y-29659891D01*
X27657320Y-29641285D01*
X27483978Y-29636110D01*
X27297348Y-29643230D01*
G36*
X5251068Y-33473116D02*
X4668959Y-33473150D01*
X4138496Y-33473238D01*
X3657280Y-33473406D01*
X3222912Y-33473680D01*
X2832993Y-33474087D01*
X2485124Y-33474652D01*
X2176905Y-33475401D01*
X1905937Y-33476361D01*
X1669822Y-33477556D01*
X1466160Y-33479015D01*
X1292552Y-33480761D01*
X1146598Y-33482822D01*
X1025901Y-33485223D01*
X928060Y-33487990D01*
X850677Y-33491150D01*
X791352Y-33494728D01*
X747686Y-33498750D01*
X717281Y-33503243D01*
X697736Y-33508232D01*
X686653Y-33513743D01*
X681633Y-33519803D01*
X680277Y-33526437D01*
X680222Y-33529555D01*
X680725Y-33536451D01*
X683832Y-33542761D01*
X691943Y-33548511D01*
X707456Y-33553728D01*
X732772Y-33558436D01*
X770289Y-33562663D01*
X822406Y-33566434D01*
X891522Y-33569775D01*
X980037Y-33572713D01*
X1090349Y-33575272D01*
X1224858Y-33577480D01*
X1385963Y-33579362D01*
X1576063Y-33580944D01*
X1797557Y-33582252D01*
X2052845Y-33583313D01*
X2344324Y-33584152D01*
X2674396Y-33584795D01*
X3045458Y-33585268D01*
X3459909Y-33585598D01*
X3920150Y-33585810D01*
X4428579Y-33585930D01*
X4987595Y-33585984D01*
X5599597Y-33585999D01*
X5887222Y-33586000D01*
X6523377Y-33585994D01*
X7105486Y-33585960D01*
X7635949Y-33585872D01*
X8117164Y-33585704D01*
X8551532Y-33585430D01*
X8941451Y-33585023D01*
X9289321Y-33584458D01*
X9597540Y-33583709D01*
X9868507Y-33582749D01*
X10104622Y-33581554D01*
X10308285Y-33580096D01*
X10481893Y-33578349D01*
X10627846Y-33576288D01*
X10748543Y-33573887D01*
X10846384Y-33571120D01*
X10923767Y-33567960D01*
X10983092Y-33564382D01*
X11026758Y-33560360D01*
X11057164Y-33555867D01*
X11076708Y-33550878D01*
X11087791Y-33545367D01*
X11092811Y-33539307D01*
X11094168Y-33532673D01*
X11094222Y-33529555D01*
X11093720Y-33522659D01*
X11090612Y-33516349D01*
X11082502Y-33510599D01*
X11066988Y-33505382D01*
X11041672Y-33500674D01*
X11004156Y-33496447D01*
X10952039Y-33492676D01*
X10882922Y-33489335D01*
X10794408Y-33486397D01*
X10684095Y-33483838D01*
X10549586Y-33481630D01*
X10388481Y-33479748D01*
X10198381Y-33478166D01*
X9976887Y-33476858D01*
X9721600Y-33475797D01*
X9430120Y-33474958D01*
X9100049Y-33474315D01*
X8728987Y-33473842D01*
X8314535Y-33473512D01*
X7854294Y-33473300D01*
X7345866Y-33473180D01*
X6786850Y-33473126D01*
X6174848Y-33473111D01*
X5887222Y-33473111D01*
X5251068Y-33473116D01*
X5251068Y-33473116D01*
G37*
X5251068Y-33473116D02*
X4668959Y-33473150D01*
X4138496Y-33473238D01*
X3657280Y-33473406D01*
X3222912Y-33473680D01*
X2832993Y-33474087D01*
X2485124Y-33474652D01*
X2176905Y-33475401D01*
X1905937Y-33476361D01*
X1669822Y-33477556D01*
X1466160Y-33479015D01*
X1292552Y-33480761D01*
X1146598Y-33482822D01*
X1025901Y-33485223D01*
X928060Y-33487990D01*
X850677Y-33491150D01*
X791352Y-33494728D01*
X747686Y-33498750D01*
X717281Y-33503243D01*
X697736Y-33508232D01*
X686653Y-33513743D01*
X681633Y-33519803D01*
X680277Y-33526437D01*
X680222Y-33529555D01*
X680725Y-33536451D01*
X683832Y-33542761D01*
X691943Y-33548511D01*
X707456Y-33553728D01*
X732772Y-33558436D01*
X770289Y-33562663D01*
X822406Y-33566434D01*
X891522Y-33569775D01*
X980037Y-33572713D01*
X1090349Y-33575272D01*
X1224858Y-33577480D01*
X1385963Y-33579362D01*
X1576063Y-33580944D01*
X1797557Y-33582252D01*
X2052845Y-33583313D01*
X2344324Y-33584152D01*
X2674396Y-33584795D01*
X3045458Y-33585268D01*
X3459909Y-33585598D01*
X3920150Y-33585810D01*
X4428579Y-33585930D01*
X4987595Y-33585984D01*
X5599597Y-33585999D01*
X5887222Y-33586000D01*
X6523377Y-33585994D01*
X7105486Y-33585960D01*
X7635949Y-33585872D01*
X8117164Y-33585704D01*
X8551532Y-33585430D01*
X8941451Y-33585023D01*
X9289321Y-33584458D01*
X9597540Y-33583709D01*
X9868507Y-33582749D01*
X10104622Y-33581554D01*
X10308285Y-33580096D01*
X10481893Y-33578349D01*
X10627846Y-33576288D01*
X10748543Y-33573887D01*
X10846384Y-33571120D01*
X10923767Y-33567960D01*
X10983092Y-33564382D01*
X11026758Y-33560360D01*
X11057164Y-33555867D01*
X11076708Y-33550878D01*
X11087791Y-33545367D01*
X11092811Y-33539307D01*
X11094168Y-33532673D01*
X11094222Y-33529555D01*
X11093720Y-33522659D01*
X11090612Y-33516349D01*
X11082502Y-33510599D01*
X11066988Y-33505382D01*
X11041672Y-33500674D01*
X11004156Y-33496447D01*
X10952039Y-33492676D01*
X10882922Y-33489335D01*
X10794408Y-33486397D01*
X10684095Y-33483838D01*
X10549586Y-33481630D01*
X10388481Y-33479748D01*
X10198381Y-33478166D01*
X9976887Y-33476858D01*
X9721600Y-33475797D01*
X9430120Y-33474958D01*
X9100049Y-33474315D01*
X8728987Y-33473842D01*
X8314535Y-33473512D01*
X7854294Y-33473300D01*
X7345866Y-33473180D01*
X6786850Y-33473126D01*
X6174848Y-33473111D01*
X5887222Y-33473111D01*
X5251068Y-33473116D01*
G36*
X24142180Y-33473114D02*
X23443875Y-33473134D01*
X22797933Y-33473188D01*
X22202313Y-33473291D01*
X21654975Y-33473459D01*
X21153878Y-33473708D01*
X20696980Y-33474054D01*
X20282242Y-33474514D01*
X19907623Y-33475102D01*
X19571081Y-33475836D01*
X19270577Y-33476732D01*
X19004069Y-33477804D01*
X18769516Y-33479070D01*
X18564879Y-33480545D01*
X18388115Y-33482245D01*
X18237185Y-33484186D01*
X18110048Y-33486385D01*
X18004663Y-33488857D01*
X17918989Y-33491618D01*
X17850986Y-33494684D01*
X17798612Y-33498072D01*
X17759828Y-33501797D01*
X17732592Y-33505875D01*
X17714863Y-33510323D01*
X17704602Y-33515156D01*
X17699766Y-33520390D01*
X17698316Y-33526042D01*
X17698222Y-33529555D01*
X17698636Y-33535459D01*
X17701240Y-33540936D01*
X17708073Y-33546002D01*
X17721177Y-33550673D01*
X17742592Y-33554966D01*
X17774359Y-33558896D01*
X17818518Y-33562480D01*
X17877112Y-33565733D01*
X17952179Y-33568671D01*
X18045761Y-33571310D01*
X18159899Y-33573667D01*
X18296634Y-33575758D01*
X18458005Y-33577597D01*
X18646055Y-33579202D01*
X18862823Y-33580589D01*
X19110350Y-33581772D01*
X19390677Y-33582769D01*
X19705845Y-33583596D01*
X20057895Y-33584268D01*
X20448867Y-33584801D01*
X20880802Y-33585212D01*
X21355740Y-33585516D01*
X21875723Y-33585730D01*
X22442792Y-33585869D01*
X23058986Y-33585949D01*
X23726347Y-33585987D01*
X24446915Y-33585999D01*
X24894889Y-33586000D01*
X25647598Y-33585996D01*
X26345902Y-33585976D01*
X26991844Y-33585922D01*
X27587464Y-33585819D01*
X28134802Y-33585652D01*
X28635900Y-33585402D01*
X29092797Y-33585056D01*
X29507535Y-33584596D01*
X29882155Y-33584008D01*
X30218696Y-33583274D01*
X30519201Y-33582379D01*
X30785709Y-33581306D01*
X31020261Y-33580040D01*
X31224899Y-33578566D01*
X31401662Y-33576865D01*
X31552592Y-33574924D01*
X31679729Y-33572725D01*
X31785114Y-33570253D01*
X31870788Y-33567492D01*
X31938792Y-33564426D01*
X31991165Y-33561038D01*
X32029950Y-33557313D01*
X32057186Y-33553235D01*
X32074914Y-33548787D01*
X32085176Y-33543954D01*
X32090011Y-33538720D01*
X32091461Y-33533069D01*
X32091555Y-33529555D01*
X32091141Y-33523651D01*
X32088538Y-33518175D01*
X32081705Y-33513108D01*
X32068601Y-33508437D01*
X32047186Y-33504144D01*
X32015419Y-33500214D01*
X31971259Y-33496630D01*
X31912666Y-33493377D01*
X31837599Y-33490439D01*
X31744016Y-33487800D01*
X31629878Y-33485443D01*
X31493144Y-33483353D01*
X31331772Y-33481513D01*
X31143723Y-33479908D01*
X30926955Y-33478522D01*
X30679428Y-33477338D01*
X30399101Y-33476341D01*
X30083932Y-33475514D01*
X29731883Y-33474842D01*
X29340911Y-33474309D01*
X28908976Y-33473898D01*
X28434037Y-33473594D01*
X27914054Y-33473380D01*
X27346986Y-33473241D01*
X26730792Y-33473161D01*
X26063431Y-33473123D01*
X25342863Y-33473111D01*
X24894889Y-33473111D01*
X24142180Y-33473114D01*
X24142180Y-33473114D01*
G37*
X24142180Y-33473114D02*
X23443875Y-33473134D01*
X22797933Y-33473188D01*
X22202313Y-33473291D01*
X21654975Y-33473459D01*
X21153878Y-33473708D01*
X20696980Y-33474054D01*
X20282242Y-33474514D01*
X19907623Y-33475102D01*
X19571081Y-33475836D01*
X19270577Y-33476732D01*
X19004069Y-33477804D01*
X18769516Y-33479070D01*
X18564879Y-33480545D01*
X18388115Y-33482245D01*
X18237185Y-33484186D01*
X18110048Y-33486385D01*
X18004663Y-33488857D01*
X17918989Y-33491618D01*
X17850986Y-33494684D01*
X17798612Y-33498072D01*
X17759828Y-33501797D01*
X17732592Y-33505875D01*
X17714863Y-33510323D01*
X17704602Y-33515156D01*
X17699766Y-33520390D01*
X17698316Y-33526042D01*
X17698222Y-33529555D01*
X17698636Y-33535459D01*
X17701240Y-33540936D01*
X17708073Y-33546002D01*
X17721177Y-33550673D01*
X17742592Y-33554966D01*
X17774359Y-33558896D01*
X17818518Y-33562480D01*
X17877112Y-33565733D01*
X17952179Y-33568671D01*
X18045761Y-33571310D01*
X18159899Y-33573667D01*
X18296634Y-33575758D01*
X18458005Y-33577597D01*
X18646055Y-33579202D01*
X18862823Y-33580589D01*
X19110350Y-33581772D01*
X19390677Y-33582769D01*
X19705845Y-33583596D01*
X20057895Y-33584268D01*
X20448867Y-33584801D01*
X20880802Y-33585212D01*
X21355740Y-33585516D01*
X21875723Y-33585730D01*
X22442792Y-33585869D01*
X23058986Y-33585949D01*
X23726347Y-33585987D01*
X24446915Y-33585999D01*
X24894889Y-33586000D01*
X25647598Y-33585996D01*
X26345902Y-33585976D01*
X26991844Y-33585922D01*
X27587464Y-33585819D01*
X28134802Y-33585652D01*
X28635900Y-33585402D01*
X29092797Y-33585056D01*
X29507535Y-33584596D01*
X29882155Y-33584008D01*
X30218696Y-33583274D01*
X30519201Y-33582379D01*
X30785709Y-33581306D01*
X31020261Y-33580040D01*
X31224899Y-33578566D01*
X31401662Y-33576865D01*
X31552592Y-33574924D01*
X31679729Y-33572725D01*
X31785114Y-33570253D01*
X31870788Y-33567492D01*
X31938792Y-33564426D01*
X31991165Y-33561038D01*
X32029950Y-33557313D01*
X32057186Y-33553235D01*
X32074914Y-33548787D01*
X32085176Y-33543954D01*
X32090011Y-33538720D01*
X32091461Y-33533069D01*
X32091555Y-33529555D01*
X32091141Y-33523651D01*
X32088538Y-33518175D01*
X32081705Y-33513108D01*
X32068601Y-33508437D01*
X32047186Y-33504144D01*
X32015419Y-33500214D01*
X31971259Y-33496630D01*
X31912666Y-33493377D01*
X31837599Y-33490439D01*
X31744016Y-33487800D01*
X31629878Y-33485443D01*
X31493144Y-33483353D01*
X31331772Y-33481513D01*
X31143723Y-33479908D01*
X30926955Y-33478522D01*
X30679428Y-33477338D01*
X30399101Y-33476341D01*
X30083932Y-33475514D01*
X29731883Y-33474842D01*
X29340911Y-33474309D01*
X28908976Y-33473898D01*
X28434037Y-33473594D01*
X27914054Y-33473380D01*
X27346986Y-33473241D01*
X26730792Y-33473161D01*
X26063431Y-33473123D01*
X25342863Y-33473111D01*
X24894889Y-33473111D01*
X24142180Y-33473114D01*
G36*
X14577434Y-28252000D02*
X14411881Y-28252401D01*
X14292829Y-28254488D01*
X14210337Y-28259583D01*
X14154464Y-28269009D01*
X14115267Y-28284090D01*
X14082806Y-28306149D01*
X14066185Y-28320045D01*
X13987000Y-28388090D01*
X13968916Y-29268000D01*
X13310807Y-29268000D01*
X13098386Y-29268388D01*
X12935114Y-29269887D01*
X12813700Y-29272999D01*
X12726852Y-29278226D01*
X12667277Y-29286070D01*
X12627685Y-29297033D01*
X12600782Y-29311617D01*
X12593352Y-29317388D01*
X12563747Y-29360906D01*
X12517667Y-29454374D01*
X12456638Y-29594245D01*
X12382185Y-29776973D01*
X12295833Y-29999010D01*
X12262669Y-30086444D01*
X12190008Y-30278444D01*
X12122758Y-30454785D01*
X12063787Y-30608053D01*
X12015965Y-30730832D01*
X11982160Y-30815707D01*
X11965240Y-30855265D01*
X11965117Y-30855500D01*
X11913029Y-30895263D01*
X11844245Y-30904888D01*
X11756275Y-30921257D01*
X11682960Y-30958839D01*
X11643332Y-31000589D01*
X11623173Y-31055385D01*
X11616563Y-31142249D01*
X11616333Y-31172950D01*
X11619968Y-31269975D01*
X11635684Y-31331579D01*
X11670701Y-31378573D01*
X11695518Y-31401221D01*
X11767382Y-31447299D01*
X11837343Y-31469072D01*
X11843685Y-31469333D01*
X11912667Y-31469333D01*
X11912667Y-32106711D01*
X12237556Y-32850544D01*
X12322856Y-33043299D01*
X12403204Y-33220085D01*
X12475281Y-33373971D01*
X12535768Y-33498023D01*
X12581348Y-33585310D01*
X12608701Y-33628901D01*
X12611501Y-33631624D01*
X12641955Y-33644113D01*
X12700172Y-33653757D01*
X12791791Y-33660847D01*
X12922448Y-33665679D01*
X13097783Y-33668544D01*
X13323433Y-33669735D01*
X13344944Y-33669769D01*
X14029333Y-33670666D01*
X14029333Y-33798371D01*
X14041722Y-33885835D01*
X14074334Y-33993906D01*
X14120341Y-34107493D01*
X14172912Y-34211505D01*
X14225218Y-34290852D01*
X14270085Y-34330314D01*
X14317178Y-34337957D01*
X14405751Y-34343939D01*
X14520845Y-34347435D01*
X14591166Y-34348000D01*
X14720410Y-34346816D01*
X14806109Y-34341629D01*
X14861140Y-34329985D01*
X14898383Y-34309431D01*
X14924412Y-34284500D01*
X15003805Y-34174615D01*
X15070875Y-34039641D01*
X15116022Y-33902260D01*
X15130000Y-33798604D01*
X15130000Y-33670666D01*
X15805760Y-33670666D01*
X16018282Y-33670503D01*
X16181718Y-33669596D01*
X16303427Y-33667318D01*
X16390767Y-33663040D01*
X16451095Y-33656136D01*
X16491771Y-33645978D01*
X16520153Y-33631938D01*
X16543599Y-33613390D01*
X16550430Y-33607166D01*
X16582521Y-33561638D01*
X16633142Y-33469080D01*
X16699712Y-33334811D01*
X16779648Y-33164148D01*
X16870369Y-32962408D01*
X16933004Y-32819197D01*
X17246667Y-32094727D01*
X17246667Y-31475615D01*
X17344633Y-31457236D01*
X17439635Y-31419991D01*
X17498910Y-31347208D01*
X17526124Y-31233104D01*
X17528889Y-31166720D01*
X17514517Y-31039052D01*
X17468812Y-30956129D01*
X17387886Y-30913372D01*
X17306584Y-30904888D01*
X17197168Y-30904888D01*
X16909517Y-30135833D01*
X16834491Y-29937523D01*
X16763911Y-29755260D01*
X16700645Y-29596119D01*
X16647565Y-29467180D01*
X16607537Y-29375517D01*
X16583434Y-29328209D01*
X16580541Y-29324444D01*
X16557690Y-29310528D01*
X16515000Y-29299323D01*
X16446053Y-29290329D01*
X16344432Y-29283045D01*
X16203716Y-29276974D01*
X16017489Y-29271613D01*
X15855774Y-29268000D01*
X15172333Y-29253888D01*
X15164569Y-28810879D01*
X15161197Y-28622949D01*
X15153721Y-28482639D01*
X15134847Y-28383005D01*
X15097282Y-28317105D01*
X15033730Y-28277995D01*
X14936898Y-28258732D01*
X14799491Y-28252373D01*
X14614215Y-28251975D01*
X14577434Y-28252000D01*
X14577434Y-28252000D01*
G37*
X14577434Y-28252000D02*
X14411881Y-28252401D01*
X14292829Y-28254488D01*
X14210337Y-28259583D01*
X14154464Y-28269009D01*
X14115267Y-28284090D01*
X14082806Y-28306149D01*
X14066185Y-28320045D01*
X13987000Y-28388090D01*
X13968916Y-29268000D01*
X13310807Y-29268000D01*
X13098386Y-29268388D01*
X12935114Y-29269887D01*
X12813700Y-29272999D01*
X12726852Y-29278226D01*
X12667277Y-29286070D01*
X12627685Y-29297033D01*
X12600782Y-29311617D01*
X12593352Y-29317388D01*
X12563747Y-29360906D01*
X12517667Y-29454374D01*
X12456638Y-29594245D01*
X12382185Y-29776973D01*
X12295833Y-29999010D01*
X12262669Y-30086444D01*
X12190008Y-30278444D01*
X12122758Y-30454785D01*
X12063787Y-30608053D01*
X12015965Y-30730832D01*
X11982160Y-30815707D01*
X11965240Y-30855265D01*
X11965117Y-30855500D01*
X11913029Y-30895263D01*
X11844245Y-30904888D01*
X11756275Y-30921257D01*
X11682960Y-30958839D01*
X11643332Y-31000589D01*
X11623173Y-31055385D01*
X11616563Y-31142249D01*
X11616333Y-31172950D01*
X11619968Y-31269975D01*
X11635684Y-31331579D01*
X11670701Y-31378573D01*
X11695518Y-31401221D01*
X11767382Y-31447299D01*
X11837343Y-31469072D01*
X11843685Y-31469333D01*
X11912667Y-31469333D01*
X11912667Y-32106711D01*
X12237556Y-32850544D01*
X12322856Y-33043299D01*
X12403204Y-33220085D01*
X12475281Y-33373971D01*
X12535768Y-33498023D01*
X12581348Y-33585310D01*
X12608701Y-33628901D01*
X12611501Y-33631624D01*
X12641955Y-33644113D01*
X12700172Y-33653757D01*
X12791791Y-33660847D01*
X12922448Y-33665679D01*
X13097783Y-33668544D01*
X13323433Y-33669735D01*
X13344944Y-33669769D01*
X14029333Y-33670666D01*
X14029333Y-33798371D01*
X14041722Y-33885835D01*
X14074334Y-33993906D01*
X14120341Y-34107493D01*
X14172912Y-34211505D01*
X14225218Y-34290852D01*
X14270085Y-34330314D01*
X14317178Y-34337957D01*
X14405751Y-34343939D01*
X14520845Y-34347435D01*
X14591166Y-34348000D01*
X14720410Y-34346816D01*
X14806109Y-34341629D01*
X14861140Y-34329985D01*
X14898383Y-34309431D01*
X14924412Y-34284500D01*
X15003805Y-34174615D01*
X15070875Y-34039641D01*
X15116022Y-33902260D01*
X15130000Y-33798604D01*
X15130000Y-33670666D01*
X15805760Y-33670666D01*
X16018282Y-33670503D01*
X16181718Y-33669596D01*
X16303427Y-33667318D01*
X16390767Y-33663040D01*
X16451095Y-33656136D01*
X16491771Y-33645978D01*
X16520153Y-33631938D01*
X16543599Y-33613390D01*
X16550430Y-33607166D01*
X16582521Y-33561638D01*
X16633142Y-33469080D01*
X16699712Y-33334811D01*
X16779648Y-33164148D01*
X16870369Y-32962408D01*
X16933004Y-32819197D01*
X17246667Y-32094727D01*
X17246667Y-31475615D01*
X17344633Y-31457236D01*
X17439635Y-31419991D01*
X17498910Y-31347208D01*
X17526124Y-31233104D01*
X17528889Y-31166720D01*
X17514517Y-31039052D01*
X17468812Y-30956129D01*
X17387886Y-30913372D01*
X17306584Y-30904888D01*
X17197168Y-30904888D01*
X16909517Y-30135833D01*
X16834491Y-29937523D01*
X16763911Y-29755260D01*
X16700645Y-29596119D01*
X16647565Y-29467180D01*
X16607537Y-29375517D01*
X16583434Y-29328209D01*
X16580541Y-29324444D01*
X16557690Y-29310528D01*
X16515000Y-29299323D01*
X16446053Y-29290329D01*
X16344432Y-29283045D01*
X16203716Y-29276974D01*
X16017489Y-29271613D01*
X15855774Y-29268000D01*
X15172333Y-29253888D01*
X15164569Y-28810879D01*
X15161197Y-28622949D01*
X15153721Y-28482639D01*
X15134847Y-28383005D01*
X15097282Y-28317105D01*
X15033730Y-28277995D01*
X14936898Y-28258732D01*
X14799491Y-28252373D01*
X14614215Y-28251975D01*
X14577434Y-28252000D01*
D14*
G04 #@! TO.C,D12*
X77656000Y-76967000D02*
X77656000Y-75507000D01*
X74496000Y-76967000D02*
X74496000Y-74807000D01*
X74496000Y-76967000D02*
X75426000Y-76967000D01*
X77656000Y-76967000D02*
X76726000Y-76967000D01*
G04 #@! TO.C,J3*
X77520000Y-12230000D02*
X77520000Y-11595000D01*
X77520000Y-11595000D02*
X76885000Y-11595000D01*
G04 #@! TO.C,R4*
X51437221Y-4290000D02*
X51762779Y-4290000D01*
X51437221Y-5310000D02*
X51762779Y-5310000D01*
G04 #@! TO.C,D6*
X90980000Y-45598000D02*
X90050000Y-45598000D01*
X87820000Y-45598000D02*
X88750000Y-45598000D01*
X87820000Y-45598000D02*
X87820000Y-43438000D01*
X90980000Y-45598000D02*
X90980000Y-44138000D01*
G04 #@! TO.C,R2*
X77869500Y-34453221D02*
X77869500Y-34778779D01*
X76849500Y-34453221D02*
X76849500Y-34778779D01*
G04 #@! TO.C,R11*
X49337221Y-13090000D02*
X49662779Y-13090000D01*
X49337221Y-14110000D02*
X49662779Y-14110000D01*
G04 #@! TO.C,D25*
X18400000Y-15250000D02*
X23800000Y-15250000D01*
X18400000Y-11950000D02*
X23800000Y-11950000D01*
X18400000Y-15250000D02*
X18400000Y-11950000D01*
G04 #@! TO.C,D8*
X58606000Y-64775000D02*
X58606000Y-63315000D01*
X55446000Y-64775000D02*
X55446000Y-62615000D01*
X55446000Y-64775000D02*
X56376000Y-64775000D01*
X58606000Y-64775000D02*
X57676000Y-64775000D01*
G04 #@! TO.C,R6*
X61808221Y-4577000D02*
X62133779Y-4577000D01*
X61808221Y-5597000D02*
X62133779Y-5597000D01*
G04 #@! TO.C,D2*
X66861000Y-26675000D02*
X66861000Y-25215000D01*
X63701000Y-26675000D02*
X63701000Y-24515000D01*
X63701000Y-26675000D02*
X64631000Y-26675000D01*
X66861000Y-26675000D02*
X65931000Y-26675000D01*
G04 #@! TO.C,R15*
X76540000Y-19187221D02*
X76540000Y-19512779D01*
X77560000Y-19187221D02*
X77560000Y-19512779D01*
G04 #@! TO.C,SW49*
X82640000Y-13510000D02*
X88760000Y-13510000D01*
X88760000Y-13510000D02*
X88760000Y-9890000D01*
X88760000Y-9890000D02*
X82640000Y-9890000D01*
X82640000Y-9890000D02*
X82640000Y-13510000D01*
G04 #@! TO.C,Y1*
X67050000Y-7800000D02*
X67050000Y-13700000D01*
X67050000Y-13700000D02*
X63450000Y-13700000D01*
X63450000Y-13700000D02*
X63450000Y-7800000D01*
G04 #@! TO.C,D27*
X82950000Y-15335000D02*
X80465000Y-15335000D01*
X80465000Y-15335000D02*
X80465000Y-13965000D01*
X80465000Y-13965000D02*
X82950000Y-13965000D01*
G04 #@! TO.C,C2*
X67490000Y-12312779D02*
X67490000Y-11987221D01*
X68510000Y-12312779D02*
X68510000Y-11987221D01*
D15*
G04 #@! TO.C,J9*
X25130000Y-40000D02*
X34070000Y-40000D01*
D14*
X25130000Y-5050000D02*
X25130000Y-3250000D01*
X25130000Y460000D02*
X25130000Y-1000000D01*
X34070000Y460000D02*
X34070000Y-1000000D01*
X34070000Y-5050000D02*
X34070000Y-3250000D01*
X34070000Y460000D02*
X25130000Y460000D01*
G04 #@! TO.C,C3*
X68510000Y-8737221D02*
X68510000Y-9062779D01*
X67490000Y-8737221D02*
X67490000Y-9062779D01*
G04 #@! TO.C,C1*
X51844000Y-8226221D02*
X51844000Y-8551779D01*
X50824000Y-8226221D02*
X50824000Y-8551779D01*
G04 #@! TO.C,C4*
X57178000Y-4187621D02*
X57178000Y-4513179D01*
X56158000Y-4187621D02*
X56158000Y-4513179D01*
G04 #@! TO.C,C12*
D13*
X76942857Y-69757142D02*
X76990476Y-69804761D01*
X77133333Y-69852380D01*
X77228571Y-69852380D01*
X77371428Y-69804761D01*
X77466666Y-69709523D01*
X77514285Y-69614285D01*
X77561904Y-69423809D01*
X77561904Y-69280952D01*
X77514285Y-69090476D01*
X77466666Y-68995238D01*
X77371428Y-68900000D01*
X77228571Y-68852380D01*
X77133333Y-68852380D01*
X76990476Y-68900000D01*
X76942857Y-68947619D01*
X75990476Y-69852380D02*
X76561904Y-69852380D01*
X76276190Y-69852380D02*
X76276190Y-68852380D01*
X76371428Y-68995238D01*
X76466666Y-69090476D01*
X76561904Y-69138095D01*
X75609523Y-68947619D02*
X75561904Y-68900000D01*
X75466666Y-68852380D01*
X75228571Y-68852380D01*
X75133333Y-68900000D01*
X75085714Y-68947619D01*
X75038095Y-69042857D01*
X75038095Y-69138095D01*
X75085714Y-69280952D01*
X75657142Y-69852380D01*
X75038095Y-69852380D01*
G04 #@! TO.C,C13*
X95842857Y-50557142D02*
X95890476Y-50604761D01*
X96033333Y-50652380D01*
X96128571Y-50652380D01*
X96271428Y-50604761D01*
X96366666Y-50509523D01*
X96414285Y-50414285D01*
X96461904Y-50223809D01*
X96461904Y-50080952D01*
X96414285Y-49890476D01*
X96366666Y-49795238D01*
X96271428Y-49700000D01*
X96128571Y-49652380D01*
X96033333Y-49652380D01*
X95890476Y-49700000D01*
X95842857Y-49747619D01*
X94890476Y-50652380D02*
X95461904Y-50652380D01*
X95176190Y-50652380D02*
X95176190Y-49652380D01*
X95271428Y-49795238D01*
X95366666Y-49890476D01*
X95461904Y-49938095D01*
X94557142Y-49652380D02*
X93938095Y-49652380D01*
X94271428Y-50033333D01*
X94128571Y-50033333D01*
X94033333Y-50080952D01*
X93985714Y-50128571D01*
X93938095Y-50223809D01*
X93938095Y-50461904D01*
X93985714Y-50557142D01*
X94033333Y-50604761D01*
X94128571Y-50652380D01*
X94414285Y-50652380D01*
X94509523Y-50604761D01*
X94557142Y-50557142D01*
G04 #@! TO.C,C14*
X70757142Y-28557142D02*
X70804761Y-28509523D01*
X70852380Y-28366666D01*
X70852380Y-28271428D01*
X70804761Y-28128571D01*
X70709523Y-28033333D01*
X70614285Y-27985714D01*
X70423809Y-27938095D01*
X70280952Y-27938095D01*
X70090476Y-27985714D01*
X69995238Y-28033333D01*
X69900000Y-28128571D01*
X69852380Y-28271428D01*
X69852380Y-28366666D01*
X69900000Y-28509523D01*
X69947619Y-28557142D01*
X70852380Y-29509523D02*
X70852380Y-28938095D01*
X70852380Y-29223809D02*
X69852380Y-29223809D01*
X69995238Y-29128571D01*
X70090476Y-29033333D01*
X70138095Y-28938095D01*
X70185714Y-30366666D02*
X70852380Y-30366666D01*
X69804761Y-30128571D02*
X70519047Y-29890476D01*
X70519047Y-30509523D01*
G04 #@! TO.C,D30*
X20614285Y-42352380D02*
X20614285Y-41352380D01*
X20376190Y-41352380D01*
X20233333Y-41400000D01*
X20138095Y-41495238D01*
X20090476Y-41590476D01*
X20042857Y-41780952D01*
X20042857Y-41923809D01*
X20090476Y-42114285D01*
X20138095Y-42209523D01*
X20233333Y-42304761D01*
X20376190Y-42352380D01*
X20614285Y-42352380D01*
X19709523Y-41352380D02*
X19090476Y-41352380D01*
X19423809Y-41733333D01*
X19280952Y-41733333D01*
X19185714Y-41780952D01*
X19138095Y-41828571D01*
X19090476Y-41923809D01*
X19090476Y-42161904D01*
X19138095Y-42257142D01*
X19185714Y-42304761D01*
X19280952Y-42352380D01*
X19566666Y-42352380D01*
X19661904Y-42304761D01*
X19709523Y-42257142D01*
X18471428Y-41352380D02*
X18376190Y-41352380D01*
X18280952Y-41400000D01*
X18233333Y-41447619D01*
X18185714Y-41542857D01*
X18138095Y-41733333D01*
X18138095Y-41971428D01*
X18185714Y-42161904D01*
X18233333Y-42257142D01*
X18280952Y-42304761D01*
X18376190Y-42352380D01*
X18471428Y-42352380D01*
X18566666Y-42304761D01*
X18614285Y-42257142D01*
X18661904Y-42161904D01*
X18709523Y-41971428D01*
X18709523Y-41733333D01*
X18661904Y-41542857D01*
X18614285Y-41447619D01*
X18566666Y-41400000D01*
X18471428Y-41352380D01*
X23264285Y-44252380D02*
X23835714Y-44252380D01*
X23550000Y-44252380D02*
X23550000Y-43252380D01*
X23645238Y-43395238D01*
X23740476Y-43490476D01*
X23835714Y-43538095D01*
G04 #@! TO.C,D31*
X39314285Y-61452380D02*
X39314285Y-60452380D01*
X39076190Y-60452380D01*
X38933333Y-60500000D01*
X38838095Y-60595238D01*
X38790476Y-60690476D01*
X38742857Y-60880952D01*
X38742857Y-61023809D01*
X38790476Y-61214285D01*
X38838095Y-61309523D01*
X38933333Y-61404761D01*
X39076190Y-61452380D01*
X39314285Y-61452380D01*
X38409523Y-60452380D02*
X37790476Y-60452380D01*
X38123809Y-60833333D01*
X37980952Y-60833333D01*
X37885714Y-60880952D01*
X37838095Y-60928571D01*
X37790476Y-61023809D01*
X37790476Y-61261904D01*
X37838095Y-61357142D01*
X37885714Y-61404761D01*
X37980952Y-61452380D01*
X38266666Y-61452380D01*
X38361904Y-61404761D01*
X38409523Y-61357142D01*
X36838095Y-61452380D02*
X37409523Y-61452380D01*
X37123809Y-61452380D02*
X37123809Y-60452380D01*
X37219047Y-60595238D01*
X37314285Y-60690476D01*
X37409523Y-60738095D01*
X41964285Y-63352380D02*
X42535714Y-63352380D01*
X42250000Y-63352380D02*
X42250000Y-62352380D01*
X42345238Y-62495238D01*
X42440476Y-62590476D01*
X42535714Y-62638095D01*
G04 #@! TO.C,D29*
X39164285Y-24352380D02*
X39164285Y-23352380D01*
X38926190Y-23352380D01*
X38783333Y-23400000D01*
X38688095Y-23495238D01*
X38640476Y-23590476D01*
X38592857Y-23780952D01*
X38592857Y-23923809D01*
X38640476Y-24114285D01*
X38688095Y-24209523D01*
X38783333Y-24304761D01*
X38926190Y-24352380D01*
X39164285Y-24352380D01*
X38211904Y-23447619D02*
X38164285Y-23400000D01*
X38069047Y-23352380D01*
X37830952Y-23352380D01*
X37735714Y-23400000D01*
X37688095Y-23447619D01*
X37640476Y-23542857D01*
X37640476Y-23638095D01*
X37688095Y-23780952D01*
X38259523Y-24352380D01*
X37640476Y-24352380D01*
X37164285Y-24352380D02*
X36973809Y-24352380D01*
X36878571Y-24304761D01*
X36830952Y-24257142D01*
X36735714Y-24114285D01*
X36688095Y-23923809D01*
X36688095Y-23542857D01*
X36735714Y-23447619D01*
X36783333Y-23400000D01*
X36878571Y-23352380D01*
X37069047Y-23352380D01*
X37164285Y-23400000D01*
X37211904Y-23447619D01*
X37259523Y-23542857D01*
X37259523Y-23780952D01*
X37211904Y-23876190D01*
X37164285Y-23923809D01*
X37069047Y-23971428D01*
X36878571Y-23971428D01*
X36783333Y-23923809D01*
X36735714Y-23876190D01*
X36688095Y-23780952D01*
X41814285Y-26252380D02*
X42385714Y-26252380D01*
X42100000Y-26252380D02*
X42100000Y-25252380D01*
X42195238Y-25395238D01*
X42290476Y-25490476D01*
X42385714Y-25538095D01*
G04 #@! TO.C,C10*
X20042857Y-50757142D02*
X20090476Y-50804761D01*
X20233333Y-50852380D01*
X20328571Y-50852380D01*
X20471428Y-50804761D01*
X20566666Y-50709523D01*
X20614285Y-50614285D01*
X20661904Y-50423809D01*
X20661904Y-50280952D01*
X20614285Y-50090476D01*
X20566666Y-49995238D01*
X20471428Y-49900000D01*
X20328571Y-49852380D01*
X20233333Y-49852380D01*
X20090476Y-49900000D01*
X20042857Y-49947619D01*
X19090476Y-50852380D02*
X19661904Y-50852380D01*
X19376190Y-50852380D02*
X19376190Y-49852380D01*
X19471428Y-49995238D01*
X19566666Y-50090476D01*
X19661904Y-50138095D01*
X18471428Y-49852380D02*
X18376190Y-49852380D01*
X18280952Y-49900000D01*
X18233333Y-49947619D01*
X18185714Y-50042857D01*
X18138095Y-50233333D01*
X18138095Y-50471428D01*
X18185714Y-50661904D01*
X18233333Y-50757142D01*
X18280952Y-50804761D01*
X18376190Y-50852380D01*
X18471428Y-50852380D01*
X18566666Y-50804761D01*
X18614285Y-50757142D01*
X18661904Y-50661904D01*
X18709523Y-50471428D01*
X18709523Y-50233333D01*
X18661904Y-50042857D01*
X18614285Y-49947619D01*
X18566666Y-49900000D01*
X18471428Y-49852380D01*
G04 #@! TO.C,C9*
X35766666Y-31257142D02*
X35814285Y-31304761D01*
X35957142Y-31352380D01*
X36052380Y-31352380D01*
X36195238Y-31304761D01*
X36290476Y-31209523D01*
X36338095Y-31114285D01*
X36385714Y-30923809D01*
X36385714Y-30780952D01*
X36338095Y-30590476D01*
X36290476Y-30495238D01*
X36195238Y-30400000D01*
X36052380Y-30352380D01*
X35957142Y-30352380D01*
X35814285Y-30400000D01*
X35766666Y-30447619D01*
X35290476Y-31352380D02*
X35100000Y-31352380D01*
X35004761Y-31304761D01*
X34957142Y-31257142D01*
X34861904Y-31114285D01*
X34814285Y-30923809D01*
X34814285Y-30542857D01*
X34861904Y-30447619D01*
X34909523Y-30400000D01*
X35004761Y-30352380D01*
X35195238Y-30352380D01*
X35290476Y-30400000D01*
X35338095Y-30447619D01*
X35385714Y-30542857D01*
X35385714Y-30780952D01*
X35338095Y-30876190D01*
X35290476Y-30923809D01*
X35195238Y-30971428D01*
X35004761Y-30971428D01*
X34909523Y-30923809D01*
X34861904Y-30876190D01*
X34814285Y-30780952D01*
G04 #@! TO.C,C11*
X38642857Y-69757142D02*
X38690476Y-69804761D01*
X38833333Y-69852380D01*
X38928571Y-69852380D01*
X39071428Y-69804761D01*
X39166666Y-69709523D01*
X39214285Y-69614285D01*
X39261904Y-69423809D01*
X39261904Y-69280952D01*
X39214285Y-69090476D01*
X39166666Y-68995238D01*
X39071428Y-68900000D01*
X38928571Y-68852380D01*
X38833333Y-68852380D01*
X38690476Y-68900000D01*
X38642857Y-68947619D01*
X37690476Y-69852380D02*
X38261904Y-69852380D01*
X37976190Y-69852380D02*
X37976190Y-68852380D01*
X38071428Y-68995238D01*
X38166666Y-69090476D01*
X38261904Y-69138095D01*
X36738095Y-69852380D02*
X37309523Y-69852380D01*
X37023809Y-69852380D02*
X37023809Y-68852380D01*
X37119047Y-68995238D01*
X37214285Y-69090476D01*
X37309523Y-69138095D01*
G04 #@! TO.C,D34*
X77414285Y-61452380D02*
X77414285Y-60452380D01*
X77176190Y-60452380D01*
X77033333Y-60500000D01*
X76938095Y-60595238D01*
X76890476Y-60690476D01*
X76842857Y-60880952D01*
X76842857Y-61023809D01*
X76890476Y-61214285D01*
X76938095Y-61309523D01*
X77033333Y-61404761D01*
X77176190Y-61452380D01*
X77414285Y-61452380D01*
X76509523Y-60452380D02*
X75890476Y-60452380D01*
X76223809Y-60833333D01*
X76080952Y-60833333D01*
X75985714Y-60880952D01*
X75938095Y-60928571D01*
X75890476Y-61023809D01*
X75890476Y-61261904D01*
X75938095Y-61357142D01*
X75985714Y-61404761D01*
X76080952Y-61452380D01*
X76366666Y-61452380D01*
X76461904Y-61404761D01*
X76509523Y-61357142D01*
X75033333Y-60785714D02*
X75033333Y-61452380D01*
X75271428Y-60404761D02*
X75509523Y-61119047D01*
X74890476Y-61119047D01*
X80064285Y-63352380D02*
X80635714Y-63352380D01*
X80350000Y-63352380D02*
X80350000Y-62352380D01*
X80445238Y-62495238D01*
X80540476Y-62590476D01*
X80635714Y-62638095D01*
G04 #@! TO.C,D32*
X77514285Y-23352380D02*
X77514285Y-22352380D01*
X77276190Y-22352380D01*
X77133333Y-22400000D01*
X77038095Y-22495238D01*
X76990476Y-22590476D01*
X76942857Y-22780952D01*
X76942857Y-22923809D01*
X76990476Y-23114285D01*
X77038095Y-23209523D01*
X77133333Y-23304761D01*
X77276190Y-23352380D01*
X77514285Y-23352380D01*
X76609523Y-22352380D02*
X75990476Y-22352380D01*
X76323809Y-22733333D01*
X76180952Y-22733333D01*
X76085714Y-22780952D01*
X76038095Y-22828571D01*
X75990476Y-22923809D01*
X75990476Y-23161904D01*
X76038095Y-23257142D01*
X76085714Y-23304761D01*
X76180952Y-23352380D01*
X76466666Y-23352380D01*
X76561904Y-23304761D01*
X76609523Y-23257142D01*
X75609523Y-22447619D02*
X75561904Y-22400000D01*
X75466666Y-22352380D01*
X75228571Y-22352380D01*
X75133333Y-22400000D01*
X75085714Y-22447619D01*
X75038095Y-22542857D01*
X75038095Y-22638095D01*
X75085714Y-22780952D01*
X75657142Y-23352380D01*
X75038095Y-23352380D01*
X80164285Y-25252380D02*
X80735714Y-25252380D01*
X80450000Y-25252380D02*
X80450000Y-24252380D01*
X80545238Y-24395238D01*
X80640476Y-24490476D01*
X80735714Y-24538095D01*
G04 #@! TO.C,D33*
X96514285Y-42352380D02*
X96514285Y-41352380D01*
X96276190Y-41352380D01*
X96133333Y-41400000D01*
X96038095Y-41495238D01*
X95990476Y-41590476D01*
X95942857Y-41780952D01*
X95942857Y-41923809D01*
X95990476Y-42114285D01*
X96038095Y-42209523D01*
X96133333Y-42304761D01*
X96276190Y-42352380D01*
X96514285Y-42352380D01*
X95609523Y-41352380D02*
X94990476Y-41352380D01*
X95323809Y-41733333D01*
X95180952Y-41733333D01*
X95085714Y-41780952D01*
X95038095Y-41828571D01*
X94990476Y-41923809D01*
X94990476Y-42161904D01*
X95038095Y-42257142D01*
X95085714Y-42304761D01*
X95180952Y-42352380D01*
X95466666Y-42352380D01*
X95561904Y-42304761D01*
X95609523Y-42257142D01*
X94657142Y-41352380D02*
X94038095Y-41352380D01*
X94371428Y-41733333D01*
X94228571Y-41733333D01*
X94133333Y-41780952D01*
X94085714Y-41828571D01*
X94038095Y-41923809D01*
X94038095Y-42161904D01*
X94085714Y-42257142D01*
X94133333Y-42304761D01*
X94228571Y-42352380D01*
X94514285Y-42352380D01*
X94609523Y-42304761D01*
X94657142Y-42257142D01*
X99164285Y-44252380D02*
X99735714Y-44252380D01*
X99450000Y-44252380D02*
X99450000Y-43252380D01*
X99545238Y-43395238D01*
X99640476Y-43490476D01*
X99735714Y-43538095D01*
G04 #@! TO.C,SW5*
X84333333Y-25004761D02*
X84190476Y-25052380D01*
X83952380Y-25052380D01*
X83857142Y-25004761D01*
X83809523Y-24957142D01*
X83761904Y-24861904D01*
X83761904Y-24766666D01*
X83809523Y-24671428D01*
X83857142Y-24623809D01*
X83952380Y-24576190D01*
X84142857Y-24528571D01*
X84238095Y-24480952D01*
X84285714Y-24433333D01*
X84333333Y-24338095D01*
X84333333Y-24242857D01*
X84285714Y-24147619D01*
X84238095Y-24100000D01*
X84142857Y-24052380D01*
X83904761Y-24052380D01*
X83761904Y-24100000D01*
X83428571Y-24052380D02*
X83190476Y-25052380D01*
X83000000Y-24338095D01*
X82809523Y-25052380D01*
X82571428Y-24052380D01*
X81714285Y-24052380D02*
X82190476Y-24052380D01*
X82238095Y-24528571D01*
X82190476Y-24480952D01*
X82095238Y-24433333D01*
X81857142Y-24433333D01*
X81761904Y-24480952D01*
X81714285Y-24528571D01*
X81666666Y-24623809D01*
X81666666Y-24861904D01*
X81714285Y-24957142D01*
X81761904Y-25004761D01*
X81857142Y-25052380D01*
X82095238Y-25052380D01*
X82190476Y-25004761D01*
X82238095Y-24957142D01*
G04 #@! TO.C,D3*
X87236380Y-25049904D02*
X86236380Y-25049904D01*
X86236380Y-25288000D01*
X86284000Y-25430857D01*
X86379238Y-25526095D01*
X86474476Y-25573714D01*
X86664952Y-25621333D01*
X86807809Y-25621333D01*
X86998285Y-25573714D01*
X87093523Y-25526095D01*
X87188761Y-25430857D01*
X87236380Y-25288000D01*
X87236380Y-25049904D01*
X86236380Y-25954666D02*
X86236380Y-26573714D01*
X86617333Y-26240380D01*
X86617333Y-26383238D01*
X86664952Y-26478476D01*
X86712571Y-26526095D01*
X86807809Y-26573714D01*
X87045904Y-26573714D01*
X87141142Y-26526095D01*
X87188761Y-26478476D01*
X87236380Y-26383238D01*
X87236380Y-26097523D01*
X87188761Y-26002285D01*
X87141142Y-25954666D01*
G04 #@! TO.C,P4*
X99952380Y-8161904D02*
X98952380Y-8161904D01*
X98952380Y-8542857D01*
X99000000Y-8638095D01*
X99047619Y-8685714D01*
X99142857Y-8733333D01*
X99285714Y-8733333D01*
X99380952Y-8685714D01*
X99428571Y-8638095D01*
X99476190Y-8542857D01*
X99476190Y-8161904D01*
X99285714Y-9590476D02*
X99952380Y-9590476D01*
X98904761Y-9352380D02*
X99619047Y-9114285D01*
X99619047Y-9733333D01*
G04 #@! TO.C,D1*
X26784380Y-25303904D02*
X25784380Y-25303904D01*
X25784380Y-25542000D01*
X25832000Y-25684857D01*
X25927238Y-25780095D01*
X26022476Y-25827714D01*
X26212952Y-25875333D01*
X26355809Y-25875333D01*
X26546285Y-25827714D01*
X26641523Y-25780095D01*
X26736761Y-25684857D01*
X26784380Y-25542000D01*
X26784380Y-25303904D01*
X26784380Y-26827714D02*
X26784380Y-26256285D01*
X26784380Y-26542000D02*
X25784380Y-26542000D01*
X25927238Y-26446761D01*
X26022476Y-26351523D01*
X26070095Y-26256285D01*
G04 #@! TO.C,SW14*
X30359523Y-52354761D02*
X30216666Y-52402380D01*
X29978571Y-52402380D01*
X29883333Y-52354761D01*
X29835714Y-52307142D01*
X29788095Y-52211904D01*
X29788095Y-52116666D01*
X29835714Y-52021428D01*
X29883333Y-51973809D01*
X29978571Y-51926190D01*
X30169047Y-51878571D01*
X30264285Y-51830952D01*
X30311904Y-51783333D01*
X30359523Y-51688095D01*
X30359523Y-51592857D01*
X30311904Y-51497619D01*
X30264285Y-51450000D01*
X30169047Y-51402380D01*
X29930952Y-51402380D01*
X29788095Y-51450000D01*
X29454761Y-51402380D02*
X29216666Y-52402380D01*
X29026190Y-51688095D01*
X28835714Y-52402380D01*
X28597619Y-51402380D01*
X27692857Y-52402380D02*
X28264285Y-52402380D01*
X27978571Y-52402380D02*
X27978571Y-51402380D01*
X28073809Y-51545238D01*
X28169047Y-51640476D01*
X28264285Y-51688095D01*
X26835714Y-51735714D02*
X26835714Y-52402380D01*
X27073809Y-51354761D02*
X27311904Y-52069047D01*
X26692857Y-52069047D01*
G04 #@! TO.C,R5*
X49304166Y-3771880D02*
X49637500Y-3295690D01*
X49875595Y-3771880D02*
X49875595Y-2771880D01*
X49494642Y-2771880D01*
X49399404Y-2819500D01*
X49351785Y-2867119D01*
X49304166Y-2962357D01*
X49304166Y-3105214D01*
X49351785Y-3200452D01*
X49399404Y-3248071D01*
X49494642Y-3295690D01*
X49875595Y-3295690D01*
X48399404Y-2771880D02*
X48875595Y-2771880D01*
X48923214Y-3248071D01*
X48875595Y-3200452D01*
X48780357Y-3152833D01*
X48542261Y-3152833D01*
X48447023Y-3200452D01*
X48399404Y-3248071D01*
X48351785Y-3343309D01*
X48351785Y-3581404D01*
X48399404Y-3676642D01*
X48447023Y-3724261D01*
X48542261Y-3771880D01*
X48780357Y-3771880D01*
X48875595Y-3724261D01*
X48923214Y-3676642D01*
G04 #@! TO.C,SW2*
X33833333Y-25004761D02*
X33690476Y-25052380D01*
X33452380Y-25052380D01*
X33357142Y-25004761D01*
X33309523Y-24957142D01*
X33261904Y-24861904D01*
X33261904Y-24766666D01*
X33309523Y-24671428D01*
X33357142Y-24623809D01*
X33452380Y-24576190D01*
X33642857Y-24528571D01*
X33738095Y-24480952D01*
X33785714Y-24433333D01*
X33833333Y-24338095D01*
X33833333Y-24242857D01*
X33785714Y-24147619D01*
X33738095Y-24100000D01*
X33642857Y-24052380D01*
X33404761Y-24052380D01*
X33261904Y-24100000D01*
X32928571Y-24052380D02*
X32690476Y-25052380D01*
X32500000Y-24338095D01*
X32309523Y-25052380D01*
X32071428Y-24052380D01*
X31738095Y-24147619D02*
X31690476Y-24100000D01*
X31595238Y-24052380D01*
X31357142Y-24052380D01*
X31261904Y-24100000D01*
X31214285Y-24147619D01*
X31166666Y-24242857D01*
X31166666Y-24338095D01*
X31214285Y-24480952D01*
X31785714Y-25052380D01*
X31166666Y-25052380D01*
G04 #@! TO.C,R1*
X73566666Y-34252380D02*
X73900000Y-33776190D01*
X74138095Y-34252380D02*
X74138095Y-33252380D01*
X73757142Y-33252380D01*
X73661904Y-33300000D01*
X73614285Y-33347619D01*
X73566666Y-33442857D01*
X73566666Y-33585714D01*
X73614285Y-33680952D01*
X73661904Y-33728571D01*
X73757142Y-33776190D01*
X74138095Y-33776190D01*
X72614285Y-34252380D02*
X73185714Y-34252380D01*
X72900000Y-34252380D02*
X72900000Y-33252380D01*
X72995238Y-33395238D01*
X73090476Y-33490476D01*
X73185714Y-33538095D01*
G04 #@! TO.C,D5*
X55359380Y-44099904D02*
X54359380Y-44099904D01*
X54359380Y-44338000D01*
X54407000Y-44480857D01*
X54502238Y-44576095D01*
X54597476Y-44623714D01*
X54787952Y-44671333D01*
X54930809Y-44671333D01*
X55121285Y-44623714D01*
X55216523Y-44576095D01*
X55311761Y-44480857D01*
X55359380Y-44338000D01*
X55359380Y-44099904D01*
X54359380Y-45576095D02*
X54359380Y-45099904D01*
X54835571Y-45052285D01*
X54787952Y-45099904D01*
X54740333Y-45195142D01*
X54740333Y-45433238D01*
X54787952Y-45528476D01*
X54835571Y-45576095D01*
X54930809Y-45623714D01*
X55168904Y-45623714D01*
X55264142Y-45576095D01*
X55311761Y-45528476D01*
X55359380Y-45433238D01*
X55359380Y-45195142D01*
X55311761Y-45099904D01*
X55264142Y-45052285D01*
G04 #@! TO.C,D9*
X87490380Y-63403904D02*
X86490380Y-63403904D01*
X86490380Y-63642000D01*
X86538000Y-63784857D01*
X86633238Y-63880095D01*
X86728476Y-63927714D01*
X86918952Y-63975333D01*
X87061809Y-63975333D01*
X87252285Y-63927714D01*
X87347523Y-63880095D01*
X87442761Y-63784857D01*
X87490380Y-63642000D01*
X87490380Y-63403904D01*
X87490380Y-64451523D02*
X87490380Y-64642000D01*
X87442761Y-64737238D01*
X87395142Y-64784857D01*
X87252285Y-64880095D01*
X87061809Y-64927714D01*
X86680857Y-64927714D01*
X86585619Y-64880095D01*
X86538000Y-64832476D01*
X86490380Y-64737238D01*
X86490380Y-64546761D01*
X86538000Y-64451523D01*
X86585619Y-64403904D01*
X86680857Y-64356285D01*
X86918952Y-64356285D01*
X87014190Y-64403904D01*
X87061809Y-64451523D01*
X87109428Y-64546761D01*
X87109428Y-64737238D01*
X87061809Y-64832476D01*
X87014190Y-64880095D01*
X86918952Y-64927714D01*
G04 #@! TO.C,D4*
X26838095Y-47652380D02*
X26838095Y-46652380D01*
X26600000Y-46652380D01*
X26457142Y-46700000D01*
X26361904Y-46795238D01*
X26314285Y-46890476D01*
X26266666Y-47080952D01*
X26266666Y-47223809D01*
X26314285Y-47414285D01*
X26361904Y-47509523D01*
X26457142Y-47604761D01*
X26600000Y-47652380D01*
X26838095Y-47652380D01*
X25409523Y-46985714D02*
X25409523Y-47652380D01*
X25647619Y-46604761D02*
X25885714Y-47319047D01*
X25266666Y-47319047D01*
G04 #@! TO.C,D11*
X55105380Y-74992714D02*
X54105380Y-74992714D01*
X54105380Y-75230809D01*
X54153000Y-75373666D01*
X54248238Y-75468904D01*
X54343476Y-75516523D01*
X54533952Y-75564142D01*
X54676809Y-75564142D01*
X54867285Y-75516523D01*
X54962523Y-75468904D01*
X55057761Y-75373666D01*
X55105380Y-75230809D01*
X55105380Y-74992714D01*
X55105380Y-76516523D02*
X55105380Y-75945095D01*
X55105380Y-76230809D02*
X54105380Y-76230809D01*
X54248238Y-76135571D01*
X54343476Y-76040333D01*
X54391095Y-75945095D01*
X55105380Y-77468904D02*
X55105380Y-76897476D01*
X55105380Y-77183190D02*
X54105380Y-77183190D01*
X54248238Y-77087952D01*
X54343476Y-76992714D01*
X54391095Y-76897476D01*
G04 #@! TO.C,U1*
D19*
X59477333Y-15776166D02*
X59477333Y-16495833D01*
X59435000Y-16580500D01*
X59392666Y-16622833D01*
X59308000Y-16665166D01*
X59138666Y-16665166D01*
X59054000Y-16622833D01*
X59011666Y-16580500D01*
X58969333Y-16495833D01*
X58969333Y-15776166D01*
X58080333Y-16665166D02*
X58588333Y-16665166D01*
X58334333Y-16665166D02*
X58334333Y-15776166D01*
X58419000Y-15903166D01*
X58503666Y-15987833D01*
X58588333Y-16030166D01*
G04 #@! TO.C,SW22*
D13*
X68459523Y-66654761D02*
X68316666Y-66702380D01*
X68078571Y-66702380D01*
X67983333Y-66654761D01*
X67935714Y-66607142D01*
X67888095Y-66511904D01*
X67888095Y-66416666D01*
X67935714Y-66321428D01*
X67983333Y-66273809D01*
X68078571Y-66226190D01*
X68269047Y-66178571D01*
X68364285Y-66130952D01*
X68411904Y-66083333D01*
X68459523Y-65988095D01*
X68459523Y-65892857D01*
X68411904Y-65797619D01*
X68364285Y-65750000D01*
X68269047Y-65702380D01*
X68030952Y-65702380D01*
X67888095Y-65750000D01*
X67554761Y-65702380D02*
X67316666Y-66702380D01*
X67126190Y-65988095D01*
X66935714Y-66702380D01*
X66697619Y-65702380D01*
X66364285Y-65797619D02*
X66316666Y-65750000D01*
X66221428Y-65702380D01*
X65983333Y-65702380D01*
X65888095Y-65750000D01*
X65840476Y-65797619D01*
X65792857Y-65892857D01*
X65792857Y-65988095D01*
X65840476Y-66130952D01*
X66411904Y-66702380D01*
X65792857Y-66702380D01*
X65411904Y-65797619D02*
X65364285Y-65750000D01*
X65269047Y-65702380D01*
X65030952Y-65702380D01*
X64935714Y-65750000D01*
X64888095Y-65797619D01*
X64840476Y-65892857D01*
X64840476Y-65988095D01*
X64888095Y-66130952D01*
X65459523Y-66702380D01*
X64840476Y-66702380D01*
G04 #@! TO.C,R3*
X57816666Y-18652380D02*
X58150000Y-18176190D01*
X58388095Y-18652380D02*
X58388095Y-17652380D01*
X58007142Y-17652380D01*
X57911904Y-17700000D01*
X57864285Y-17747619D01*
X57816666Y-17842857D01*
X57816666Y-17985714D01*
X57864285Y-18080952D01*
X57911904Y-18128571D01*
X58007142Y-18176190D01*
X58388095Y-18176190D01*
X57483333Y-17652380D02*
X56864285Y-17652380D01*
X57197619Y-18033333D01*
X57054761Y-18033333D01*
X56959523Y-18080952D01*
X56911904Y-18128571D01*
X56864285Y-18223809D01*
X56864285Y-18461904D01*
X56911904Y-18557142D01*
X56959523Y-18604761D01*
X57054761Y-18652380D01*
X57340476Y-18652380D01*
X57435714Y-18604761D01*
X57483333Y-18557142D01*
G04 #@! TO.C,SW17*
X87509523Y-52354761D02*
X87366666Y-52402380D01*
X87128571Y-52402380D01*
X87033333Y-52354761D01*
X86985714Y-52307142D01*
X86938095Y-52211904D01*
X86938095Y-52116666D01*
X86985714Y-52021428D01*
X87033333Y-51973809D01*
X87128571Y-51926190D01*
X87319047Y-51878571D01*
X87414285Y-51830952D01*
X87461904Y-51783333D01*
X87509523Y-51688095D01*
X87509523Y-51592857D01*
X87461904Y-51497619D01*
X87414285Y-51450000D01*
X87319047Y-51402380D01*
X87080952Y-51402380D01*
X86938095Y-51450000D01*
X86604761Y-51402380D02*
X86366666Y-52402380D01*
X86176190Y-51688095D01*
X85985714Y-52402380D01*
X85747619Y-51402380D01*
X84842857Y-52402380D02*
X85414285Y-52402380D01*
X85128571Y-52402380D02*
X85128571Y-51402380D01*
X85223809Y-51545238D01*
X85319047Y-51640476D01*
X85414285Y-51688095D01*
X84509523Y-51402380D02*
X83842857Y-51402380D01*
X84271428Y-52402380D01*
G04 #@! TO.C,SW20*
X34109523Y-66604761D02*
X33966666Y-66652380D01*
X33728571Y-66652380D01*
X33633333Y-66604761D01*
X33585714Y-66557142D01*
X33538095Y-66461904D01*
X33538095Y-66366666D01*
X33585714Y-66271428D01*
X33633333Y-66223809D01*
X33728571Y-66176190D01*
X33919047Y-66128571D01*
X34014285Y-66080952D01*
X34061904Y-66033333D01*
X34109523Y-65938095D01*
X34109523Y-65842857D01*
X34061904Y-65747619D01*
X34014285Y-65700000D01*
X33919047Y-65652380D01*
X33680952Y-65652380D01*
X33538095Y-65700000D01*
X33204761Y-65652380D02*
X32966666Y-66652380D01*
X32776190Y-65938095D01*
X32585714Y-66652380D01*
X32347619Y-65652380D01*
X32014285Y-65747619D02*
X31966666Y-65700000D01*
X31871428Y-65652380D01*
X31633333Y-65652380D01*
X31538095Y-65700000D01*
X31490476Y-65747619D01*
X31442857Y-65842857D01*
X31442857Y-65938095D01*
X31490476Y-66080952D01*
X32061904Y-66652380D01*
X31442857Y-66652380D01*
X30823809Y-65652380D02*
X30728571Y-65652380D01*
X30633333Y-65700000D01*
X30585714Y-65747619D01*
X30538095Y-65842857D01*
X30490476Y-66033333D01*
X30490476Y-66271428D01*
X30538095Y-66461904D01*
X30585714Y-66557142D01*
X30633333Y-66604761D01*
X30728571Y-66652380D01*
X30823809Y-66652380D01*
X30919047Y-66604761D01*
X30966666Y-66557142D01*
X31014285Y-66461904D01*
X31061904Y-66271428D01*
X31061904Y-66033333D01*
X31014285Y-65842857D01*
X30966666Y-65747619D01*
X30919047Y-65700000D01*
X30823809Y-65652380D01*
G04 #@! TO.C,R13*
X52052380Y-12107142D02*
X51576190Y-11773809D01*
X52052380Y-11535714D02*
X51052380Y-11535714D01*
X51052380Y-11916666D01*
X51100000Y-12011904D01*
X51147619Y-12059523D01*
X51242857Y-12107142D01*
X51385714Y-12107142D01*
X51480952Y-12059523D01*
X51528571Y-12011904D01*
X51576190Y-11916666D01*
X51576190Y-11535714D01*
X52052380Y-13059523D02*
X52052380Y-12488095D01*
X52052380Y-12773809D02*
X51052380Y-12773809D01*
X51195238Y-12678571D01*
X51290476Y-12583333D01*
X51338095Y-12488095D01*
X51052380Y-13392857D02*
X51052380Y-14011904D01*
X51433333Y-13678571D01*
X51433333Y-13821428D01*
X51480952Y-13916666D01*
X51528571Y-13964285D01*
X51623809Y-14011904D01*
X51861904Y-14011904D01*
X51957142Y-13964285D01*
X52004761Y-13916666D01*
X52052380Y-13821428D01*
X52052380Y-13535714D01*
X52004761Y-13440476D01*
X51957142Y-13392857D01*
G04 #@! TO.C,D7*
X25133380Y-63276904D02*
X24133380Y-63276904D01*
X24133380Y-63515000D01*
X24181000Y-63657857D01*
X24276238Y-63753095D01*
X24371476Y-63800714D01*
X24561952Y-63848333D01*
X24704809Y-63848333D01*
X24895285Y-63800714D01*
X24990523Y-63753095D01*
X25085761Y-63657857D01*
X25133380Y-63515000D01*
X25133380Y-63276904D01*
X24133380Y-64181666D02*
X24133380Y-64848333D01*
X25133380Y-64419761D01*
G04 #@! TO.C,SW19*
X15409523Y-66704761D02*
X15266666Y-66752380D01*
X15028571Y-66752380D01*
X14933333Y-66704761D01*
X14885714Y-66657142D01*
X14838095Y-66561904D01*
X14838095Y-66466666D01*
X14885714Y-66371428D01*
X14933333Y-66323809D01*
X15028571Y-66276190D01*
X15219047Y-66228571D01*
X15314285Y-66180952D01*
X15361904Y-66133333D01*
X15409523Y-66038095D01*
X15409523Y-65942857D01*
X15361904Y-65847619D01*
X15314285Y-65800000D01*
X15219047Y-65752380D01*
X14980952Y-65752380D01*
X14838095Y-65800000D01*
X14504761Y-65752380D02*
X14266666Y-66752380D01*
X14076190Y-66038095D01*
X13885714Y-66752380D01*
X13647619Y-65752380D01*
X12742857Y-66752380D02*
X13314285Y-66752380D01*
X13028571Y-66752380D02*
X13028571Y-65752380D01*
X13123809Y-65895238D01*
X13219047Y-65990476D01*
X13314285Y-66038095D01*
X12266666Y-66752380D02*
X12076190Y-66752380D01*
X11980952Y-66704761D01*
X11933333Y-66657142D01*
X11838095Y-66514285D01*
X11790476Y-66323809D01*
X11790476Y-65942857D01*
X11838095Y-65847619D01*
X11885714Y-65800000D01*
X11980952Y-65752380D01*
X12171428Y-65752380D01*
X12266666Y-65800000D01*
X12314285Y-65847619D01*
X12361904Y-65942857D01*
X12361904Y-66180952D01*
X12314285Y-66276190D01*
X12266666Y-66323809D01*
X12171428Y-66371428D01*
X11980952Y-66371428D01*
X11885714Y-66323809D01*
X11838095Y-66276190D01*
X11790476Y-66180952D01*
G04 #@! TO.C,SW3*
X48933333Y-25004761D02*
X48790476Y-25052380D01*
X48552380Y-25052380D01*
X48457142Y-25004761D01*
X48409523Y-24957142D01*
X48361904Y-24861904D01*
X48361904Y-24766666D01*
X48409523Y-24671428D01*
X48457142Y-24623809D01*
X48552380Y-24576190D01*
X48742857Y-24528571D01*
X48838095Y-24480952D01*
X48885714Y-24433333D01*
X48933333Y-24338095D01*
X48933333Y-24242857D01*
X48885714Y-24147619D01*
X48838095Y-24100000D01*
X48742857Y-24052380D01*
X48504761Y-24052380D01*
X48361904Y-24100000D01*
X48028571Y-24052380D02*
X47790476Y-25052380D01*
X47600000Y-24338095D01*
X47409523Y-25052380D01*
X47171428Y-24052380D01*
X46885714Y-24052380D02*
X46266666Y-24052380D01*
X46600000Y-24433333D01*
X46457142Y-24433333D01*
X46361904Y-24480952D01*
X46314285Y-24528571D01*
X46266666Y-24623809D01*
X46266666Y-24861904D01*
X46314285Y-24957142D01*
X46361904Y-25004761D01*
X46457142Y-25052380D01*
X46742857Y-25052380D01*
X46838095Y-25004761D01*
X46885714Y-24957142D01*
G04 #@! TO.C,SW12*
X106559523Y-44104761D02*
X106416666Y-44152380D01*
X106178571Y-44152380D01*
X106083333Y-44104761D01*
X106035714Y-44057142D01*
X105988095Y-43961904D01*
X105988095Y-43866666D01*
X106035714Y-43771428D01*
X106083333Y-43723809D01*
X106178571Y-43676190D01*
X106369047Y-43628571D01*
X106464285Y-43580952D01*
X106511904Y-43533333D01*
X106559523Y-43438095D01*
X106559523Y-43342857D01*
X106511904Y-43247619D01*
X106464285Y-43200000D01*
X106369047Y-43152380D01*
X106130952Y-43152380D01*
X105988095Y-43200000D01*
X105654761Y-43152380D02*
X105416666Y-44152380D01*
X105226190Y-43438095D01*
X105035714Y-44152380D01*
X104797619Y-43152380D01*
X103892857Y-44152380D02*
X104464285Y-44152380D01*
X104178571Y-44152380D02*
X104178571Y-43152380D01*
X104273809Y-43295238D01*
X104369047Y-43390476D01*
X104464285Y-43438095D01*
X103511904Y-43247619D02*
X103464285Y-43200000D01*
X103369047Y-43152380D01*
X103130952Y-43152380D01*
X103035714Y-43200000D01*
X102988095Y-43247619D01*
X102940476Y-43342857D01*
X102940476Y-43438095D01*
X102988095Y-43580952D01*
X103559523Y-44152380D01*
X102940476Y-44152380D01*
G04 #@! TO.C,SW21*
X49409523Y-66654761D02*
X49266666Y-66702380D01*
X49028571Y-66702380D01*
X48933333Y-66654761D01*
X48885714Y-66607142D01*
X48838095Y-66511904D01*
X48838095Y-66416666D01*
X48885714Y-66321428D01*
X48933333Y-66273809D01*
X49028571Y-66226190D01*
X49219047Y-66178571D01*
X49314285Y-66130952D01*
X49361904Y-66083333D01*
X49409523Y-65988095D01*
X49409523Y-65892857D01*
X49361904Y-65797619D01*
X49314285Y-65750000D01*
X49219047Y-65702380D01*
X48980952Y-65702380D01*
X48838095Y-65750000D01*
X48504761Y-65702380D02*
X48266666Y-66702380D01*
X48076190Y-65988095D01*
X47885714Y-66702380D01*
X47647619Y-65702380D01*
X47314285Y-65797619D02*
X47266666Y-65750000D01*
X47171428Y-65702380D01*
X46933333Y-65702380D01*
X46838095Y-65750000D01*
X46790476Y-65797619D01*
X46742857Y-65892857D01*
X46742857Y-65988095D01*
X46790476Y-66130952D01*
X47361904Y-66702380D01*
X46742857Y-66702380D01*
X45790476Y-66702380D02*
X46361904Y-66702380D01*
X46076190Y-66702380D02*
X46076190Y-65702380D01*
X46171428Y-65845238D01*
X46266666Y-65940476D01*
X46361904Y-65988095D01*
G04 #@! TO.C,SW16*
X73409523Y-52354761D02*
X73266666Y-52402380D01*
X73028571Y-52402380D01*
X72933333Y-52354761D01*
X72885714Y-52307142D01*
X72838095Y-52211904D01*
X72838095Y-52116666D01*
X72885714Y-52021428D01*
X72933333Y-51973809D01*
X73028571Y-51926190D01*
X73219047Y-51878571D01*
X73314285Y-51830952D01*
X73361904Y-51783333D01*
X73409523Y-51688095D01*
X73409523Y-51592857D01*
X73361904Y-51497619D01*
X73314285Y-51450000D01*
X73219047Y-51402380D01*
X72980952Y-51402380D01*
X72838095Y-51450000D01*
X72504761Y-51402380D02*
X72266666Y-52402380D01*
X72076190Y-51688095D01*
X71885714Y-52402380D01*
X71647619Y-51402380D01*
X70742857Y-52402380D02*
X71314285Y-52402380D01*
X71028571Y-52402380D02*
X71028571Y-51402380D01*
X71123809Y-51545238D01*
X71219047Y-51640476D01*
X71314285Y-51688095D01*
X69885714Y-51402380D02*
X70076190Y-51402380D01*
X70171428Y-51450000D01*
X70219047Y-51497619D01*
X70314285Y-51640476D01*
X70361904Y-51830952D01*
X70361904Y-52211904D01*
X70314285Y-52307142D01*
X70266666Y-52354761D01*
X70171428Y-52402380D01*
X69980952Y-52402380D01*
X69885714Y-52354761D01*
X69838095Y-52307142D01*
X69790476Y-52211904D01*
X69790476Y-51973809D01*
X69838095Y-51878571D01*
X69885714Y-51830952D01*
X69980952Y-51783333D01*
X70171428Y-51783333D01*
X70266666Y-51830952D01*
X70314285Y-51878571D01*
X70361904Y-51973809D01*
G04 #@! TO.C,SW9*
X48908333Y-44104761D02*
X48765476Y-44152380D01*
X48527380Y-44152380D01*
X48432142Y-44104761D01*
X48384523Y-44057142D01*
X48336904Y-43961904D01*
X48336904Y-43866666D01*
X48384523Y-43771428D01*
X48432142Y-43723809D01*
X48527380Y-43676190D01*
X48717857Y-43628571D01*
X48813095Y-43580952D01*
X48860714Y-43533333D01*
X48908333Y-43438095D01*
X48908333Y-43342857D01*
X48860714Y-43247619D01*
X48813095Y-43200000D01*
X48717857Y-43152380D01*
X48479761Y-43152380D01*
X48336904Y-43200000D01*
X48003571Y-43152380D02*
X47765476Y-44152380D01*
X47575000Y-43438095D01*
X47384523Y-44152380D01*
X47146428Y-43152380D01*
X46717857Y-44152380D02*
X46527380Y-44152380D01*
X46432142Y-44104761D01*
X46384523Y-44057142D01*
X46289285Y-43914285D01*
X46241666Y-43723809D01*
X46241666Y-43342857D01*
X46289285Y-43247619D01*
X46336904Y-43200000D01*
X46432142Y-43152380D01*
X46622619Y-43152380D01*
X46717857Y-43200000D01*
X46765476Y-43247619D01*
X46813095Y-43342857D01*
X46813095Y-43580952D01*
X46765476Y-43676190D01*
X46717857Y-43723809D01*
X46622619Y-43771428D01*
X46432142Y-43771428D01*
X46336904Y-43723809D01*
X46289285Y-43676190D01*
X46241666Y-43580952D01*
G04 #@! TO.C,P3*
X19309523Y-9952380D02*
X19071428Y-10952380D01*
X18880952Y-10238095D01*
X18690476Y-10952380D01*
X18452380Y-9952380D01*
X18119047Y-10904761D02*
X17976190Y-10952380D01*
X17738095Y-10952380D01*
X17642857Y-10904761D01*
X17595238Y-10857142D01*
X17547619Y-10761904D01*
X17547619Y-10666666D01*
X17595238Y-10571428D01*
X17642857Y-10523809D01*
X17738095Y-10476190D01*
X17928571Y-10428571D01*
X18023809Y-10380952D01*
X18071428Y-10333333D01*
X18119047Y-10238095D01*
X18119047Y-10142857D01*
X18071428Y-10047619D01*
X18023809Y-10000000D01*
X17928571Y-9952380D01*
X17690476Y-9952380D01*
X17547619Y-10000000D01*
X17166666Y-10047619D02*
X17119047Y-10000000D01*
X17023809Y-9952380D01*
X16785714Y-9952380D01*
X16690476Y-10000000D01*
X16642857Y-10047619D01*
X16595238Y-10142857D01*
X16595238Y-10238095D01*
X16642857Y-10380952D01*
X17214285Y-10952380D01*
X16595238Y-10952380D01*
X16023809Y-10380952D02*
X16119047Y-10333333D01*
X16166666Y-10285714D01*
X16214285Y-10190476D01*
X16214285Y-10142857D01*
X16166666Y-10047619D01*
X16119047Y-10000000D01*
X16023809Y-9952380D01*
X15833333Y-9952380D01*
X15738095Y-10000000D01*
X15690476Y-10047619D01*
X15642857Y-10142857D01*
X15642857Y-10190476D01*
X15690476Y-10285714D01*
X15738095Y-10333333D01*
X15833333Y-10380952D01*
X16023809Y-10380952D01*
X16119047Y-10428571D01*
X16166666Y-10476190D01*
X16214285Y-10571428D01*
X16214285Y-10761904D01*
X16166666Y-10857142D01*
X16119047Y-10904761D01*
X16023809Y-10952380D01*
X15833333Y-10952380D01*
X15738095Y-10904761D01*
X15690476Y-10857142D01*
X15642857Y-10761904D01*
X15642857Y-10571428D01*
X15690476Y-10476190D01*
X15738095Y-10428571D01*
X15833333Y-10380952D01*
X14690476Y-10952380D02*
X15261904Y-10952380D01*
X14976190Y-10952380D02*
X14976190Y-9952380D01*
X15071428Y-10095238D01*
X15166666Y-10190476D01*
X15261904Y-10238095D01*
X14309523Y-10047619D02*
X14261904Y-10000000D01*
X14166666Y-9952380D01*
X13928571Y-9952380D01*
X13833333Y-10000000D01*
X13785714Y-10047619D01*
X13738095Y-10142857D01*
X13738095Y-10238095D01*
X13785714Y-10380952D01*
X14357142Y-10952380D01*
X13738095Y-10952380D01*
G04 #@! TO.C,D10*
X19124285Y-74119380D02*
X19124285Y-73119380D01*
X18886190Y-73119380D01*
X18743333Y-73167000D01*
X18648095Y-73262238D01*
X18600476Y-73357476D01*
X18552857Y-73547952D01*
X18552857Y-73690809D01*
X18600476Y-73881285D01*
X18648095Y-73976523D01*
X18743333Y-74071761D01*
X18886190Y-74119380D01*
X19124285Y-74119380D01*
X17600476Y-74119380D02*
X18171904Y-74119380D01*
X17886190Y-74119380D02*
X17886190Y-73119380D01*
X17981428Y-73262238D01*
X18076666Y-73357476D01*
X18171904Y-73405095D01*
X16981428Y-73119380D02*
X16886190Y-73119380D01*
X16790952Y-73167000D01*
X16743333Y-73214619D01*
X16695714Y-73309857D01*
X16648095Y-73500333D01*
X16648095Y-73738428D01*
X16695714Y-73928904D01*
X16743333Y-74024142D01*
X16790952Y-74071761D01*
X16886190Y-74119380D01*
X16981428Y-74119380D01*
X17076666Y-74071761D01*
X17124285Y-74024142D01*
X17171904Y-73928904D01*
X17219523Y-73738428D01*
X17219523Y-73500333D01*
X17171904Y-73309857D01*
X17124285Y-73214619D01*
X17076666Y-73167000D01*
X16981428Y-73119380D01*
G04 #@! TO.C,D12*
X74028380Y-74992714D02*
X73028380Y-74992714D01*
X73028380Y-75230809D01*
X73076000Y-75373666D01*
X73171238Y-75468904D01*
X73266476Y-75516523D01*
X73456952Y-75564142D01*
X73599809Y-75564142D01*
X73790285Y-75516523D01*
X73885523Y-75468904D01*
X73980761Y-75373666D01*
X74028380Y-75230809D01*
X74028380Y-74992714D01*
X74028380Y-76516523D02*
X74028380Y-75945095D01*
X74028380Y-76230809D02*
X73028380Y-76230809D01*
X73171238Y-76135571D01*
X73266476Y-76040333D01*
X73314095Y-75945095D01*
X73123619Y-76897476D02*
X73076000Y-76945095D01*
X73028380Y-77040333D01*
X73028380Y-77278428D01*
X73076000Y-77373666D01*
X73123619Y-77421285D01*
X73218857Y-77468904D01*
X73314095Y-77468904D01*
X73456952Y-77421285D01*
X74028380Y-76849857D01*
X74028380Y-77468904D01*
G04 #@! TO.C,J3*
X78652380Y-13666666D02*
X79366666Y-13666666D01*
X79509523Y-13619047D01*
X79604761Y-13523809D01*
X79652380Y-13380952D01*
X79652380Y-13285714D01*
X78652380Y-14047619D02*
X78652380Y-14666666D01*
X79033333Y-14333333D01*
X79033333Y-14476190D01*
X79080952Y-14571428D01*
X79128571Y-14619047D01*
X79223809Y-14666666D01*
X79461904Y-14666666D01*
X79557142Y-14619047D01*
X79604761Y-14571428D01*
X79652380Y-14476190D01*
X79652380Y-14190476D01*
X79604761Y-14095238D01*
X79557142Y-14047619D01*
G04 #@! TO.C,R4*
X49304166Y-5247880D02*
X49637500Y-4771690D01*
X49875595Y-5247880D02*
X49875595Y-4247880D01*
X49494642Y-4247880D01*
X49399404Y-4295500D01*
X49351785Y-4343119D01*
X49304166Y-4438357D01*
X49304166Y-4581214D01*
X49351785Y-4676452D01*
X49399404Y-4724071D01*
X49494642Y-4771690D01*
X49875595Y-4771690D01*
X48447023Y-4581214D02*
X48447023Y-5247880D01*
X48685119Y-4200261D02*
X48923214Y-4914547D01*
X48304166Y-4914547D01*
G04 #@! TO.C,D6*
X87352380Y-44099904D02*
X86352380Y-44099904D01*
X86352380Y-44338000D01*
X86400000Y-44480857D01*
X86495238Y-44576095D01*
X86590476Y-44623714D01*
X86780952Y-44671333D01*
X86923809Y-44671333D01*
X87114285Y-44623714D01*
X87209523Y-44576095D01*
X87304761Y-44480857D01*
X87352380Y-44338000D01*
X87352380Y-44099904D01*
X86352380Y-45528476D02*
X86352380Y-45338000D01*
X86400000Y-45242761D01*
X86447619Y-45195142D01*
X86590476Y-45099904D01*
X86780952Y-45052285D01*
X87161904Y-45052285D01*
X87257142Y-45099904D01*
X87304761Y-45147523D01*
X87352380Y-45242761D01*
X87352380Y-45433238D01*
X87304761Y-45528476D01*
X87257142Y-45576095D01*
X87161904Y-45623714D01*
X86923809Y-45623714D01*
X86828571Y-45576095D01*
X86780952Y-45528476D01*
X86733333Y-45433238D01*
X86733333Y-45242761D01*
X86780952Y-45147523D01*
X86828571Y-45099904D01*
X86923809Y-45052285D01*
G04 #@! TO.C,R2*
X77566666Y-37252380D02*
X77900000Y-36776190D01*
X78138095Y-37252380D02*
X78138095Y-36252380D01*
X77757142Y-36252380D01*
X77661904Y-36300000D01*
X77614285Y-36347619D01*
X77566666Y-36442857D01*
X77566666Y-36585714D01*
X77614285Y-36680952D01*
X77661904Y-36728571D01*
X77757142Y-36776190D01*
X78138095Y-36776190D01*
X77185714Y-36347619D02*
X77138095Y-36300000D01*
X77042857Y-36252380D01*
X76804761Y-36252380D01*
X76709523Y-36300000D01*
X76661904Y-36347619D01*
X76614285Y-36442857D01*
X76614285Y-36538095D01*
X76661904Y-36680952D01*
X77233333Y-37252380D01*
X76614285Y-37252380D01*
G04 #@! TO.C,R11*
X50142857Y-12852380D02*
X50476190Y-12376190D01*
X50714285Y-12852380D02*
X50714285Y-11852380D01*
X50333333Y-11852380D01*
X50238095Y-11900000D01*
X50190476Y-11947619D01*
X50142857Y-12042857D01*
X50142857Y-12185714D01*
X50190476Y-12280952D01*
X50238095Y-12328571D01*
X50333333Y-12376190D01*
X50714285Y-12376190D01*
X49190476Y-12852380D02*
X49761904Y-12852380D01*
X49476190Y-12852380D02*
X49476190Y-11852380D01*
X49571428Y-11995238D01*
X49666666Y-12090476D01*
X49761904Y-12138095D01*
X48238095Y-12852380D02*
X48809523Y-12852380D01*
X48523809Y-12852380D02*
X48523809Y-11852380D01*
X48619047Y-11995238D01*
X48714285Y-12090476D01*
X48809523Y-12138095D01*
G04 #@! TO.C,J7*
X87276190Y-7004761D02*
X87133333Y-7052380D01*
X86895238Y-7052380D01*
X86800000Y-7004761D01*
X86752380Y-6957142D01*
X86704761Y-6861904D01*
X86704761Y-6766666D01*
X86752380Y-6671428D01*
X86800000Y-6623809D01*
X86895238Y-6576190D01*
X87085714Y-6528571D01*
X87180952Y-6480952D01*
X87228571Y-6433333D01*
X87276190Y-6338095D01*
X87276190Y-6242857D01*
X87228571Y-6147619D01*
X87180952Y-6100000D01*
X87085714Y-6052380D01*
X86847619Y-6052380D01*
X86704761Y-6100000D01*
X86276190Y-7052380D02*
X86276190Y-6385714D01*
X86276190Y-6052380D02*
X86323809Y-6100000D01*
X86276190Y-6147619D01*
X86228571Y-6100000D01*
X86276190Y-6052380D01*
X86276190Y-6147619D01*
X85371428Y-6385714D02*
X85371428Y-7195238D01*
X85419047Y-7290476D01*
X85466666Y-7338095D01*
X85561904Y-7385714D01*
X85704761Y-7385714D01*
X85800000Y-7338095D01*
X85371428Y-7004761D02*
X85466666Y-7052380D01*
X85657142Y-7052380D01*
X85752380Y-7004761D01*
X85800000Y-6957142D01*
X85847619Y-6861904D01*
X85847619Y-6576190D01*
X85800000Y-6480952D01*
X85752380Y-6433333D01*
X85657142Y-6385714D01*
X85466666Y-6385714D01*
X85371428Y-6433333D01*
G04 #@! TO.C,D25*
X21414285Y-16652380D02*
X21414285Y-15652380D01*
X21176190Y-15652380D01*
X21033333Y-15700000D01*
X20938095Y-15795238D01*
X20890476Y-15890476D01*
X20842857Y-16080952D01*
X20842857Y-16223809D01*
X20890476Y-16414285D01*
X20938095Y-16509523D01*
X21033333Y-16604761D01*
X21176190Y-16652380D01*
X21414285Y-16652380D01*
X20461904Y-15747619D02*
X20414285Y-15700000D01*
X20319047Y-15652380D01*
X20080952Y-15652380D01*
X19985714Y-15700000D01*
X19938095Y-15747619D01*
X19890476Y-15842857D01*
X19890476Y-15938095D01*
X19938095Y-16080952D01*
X20509523Y-16652380D01*
X19890476Y-16652380D01*
X18985714Y-15652380D02*
X19461904Y-15652380D01*
X19509523Y-16128571D01*
X19461904Y-16080952D01*
X19366666Y-16033333D01*
X19128571Y-16033333D01*
X19033333Y-16080952D01*
X18985714Y-16128571D01*
X18938095Y-16223809D01*
X18938095Y-16461904D01*
X18985714Y-16557142D01*
X19033333Y-16604761D01*
X19128571Y-16652380D01*
X19366666Y-16652380D01*
X19461904Y-16604761D01*
X19509523Y-16557142D01*
G04 #@! TO.C,SW23*
X87509523Y-66654761D02*
X87366666Y-66702380D01*
X87128571Y-66702380D01*
X87033333Y-66654761D01*
X86985714Y-66607142D01*
X86938095Y-66511904D01*
X86938095Y-66416666D01*
X86985714Y-66321428D01*
X87033333Y-66273809D01*
X87128571Y-66226190D01*
X87319047Y-66178571D01*
X87414285Y-66130952D01*
X87461904Y-66083333D01*
X87509523Y-65988095D01*
X87509523Y-65892857D01*
X87461904Y-65797619D01*
X87414285Y-65750000D01*
X87319047Y-65702380D01*
X87080952Y-65702380D01*
X86938095Y-65750000D01*
X86604761Y-65702380D02*
X86366666Y-66702380D01*
X86176190Y-65988095D01*
X85985714Y-66702380D01*
X85747619Y-65702380D01*
X85414285Y-65797619D02*
X85366666Y-65750000D01*
X85271428Y-65702380D01*
X85033333Y-65702380D01*
X84938095Y-65750000D01*
X84890476Y-65797619D01*
X84842857Y-65892857D01*
X84842857Y-65988095D01*
X84890476Y-66130952D01*
X85461904Y-66702380D01*
X84842857Y-66702380D01*
X84509523Y-65702380D02*
X83890476Y-65702380D01*
X84223809Y-66083333D01*
X84080952Y-66083333D01*
X83985714Y-66130952D01*
X83938095Y-66178571D01*
X83890476Y-66273809D01*
X83890476Y-66511904D01*
X83938095Y-66607142D01*
X83985714Y-66654761D01*
X84080952Y-66702380D01*
X84366666Y-66702380D01*
X84461904Y-66654761D01*
X84509523Y-66607142D01*
G04 #@! TO.C,D8*
X54978380Y-63276904D02*
X53978380Y-63276904D01*
X53978380Y-63515000D01*
X54026000Y-63657857D01*
X54121238Y-63753095D01*
X54216476Y-63800714D01*
X54406952Y-63848333D01*
X54549809Y-63848333D01*
X54740285Y-63800714D01*
X54835523Y-63753095D01*
X54930761Y-63657857D01*
X54978380Y-63515000D01*
X54978380Y-63276904D01*
X54406952Y-64419761D02*
X54359333Y-64324523D01*
X54311714Y-64276904D01*
X54216476Y-64229285D01*
X54168857Y-64229285D01*
X54073619Y-64276904D01*
X54026000Y-64324523D01*
X53978380Y-64419761D01*
X53978380Y-64610238D01*
X54026000Y-64705476D01*
X54073619Y-64753095D01*
X54168857Y-64800714D01*
X54216476Y-64800714D01*
X54311714Y-64753095D01*
X54359333Y-64705476D01*
X54406952Y-64610238D01*
X54406952Y-64419761D01*
X54454571Y-64324523D01*
X54502190Y-64276904D01*
X54597428Y-64229285D01*
X54787904Y-64229285D01*
X54883142Y-64276904D01*
X54930761Y-64324523D01*
X54978380Y-64419761D01*
X54978380Y-64610238D01*
X54930761Y-64705476D01*
X54883142Y-64753095D01*
X54787904Y-64800714D01*
X54597428Y-64800714D01*
X54502190Y-64753095D01*
X54454571Y-64705476D01*
X54406952Y-64610238D01*
G04 #@! TO.C,R6*
X62137666Y-4252380D02*
X62471000Y-3776190D01*
X62709095Y-4252380D02*
X62709095Y-3252380D01*
X62328142Y-3252380D01*
X62232904Y-3300000D01*
X62185285Y-3347619D01*
X62137666Y-3442857D01*
X62137666Y-3585714D01*
X62185285Y-3680952D01*
X62232904Y-3728571D01*
X62328142Y-3776190D01*
X62709095Y-3776190D01*
X61280523Y-3252380D02*
X61471000Y-3252380D01*
X61566238Y-3300000D01*
X61613857Y-3347619D01*
X61709095Y-3490476D01*
X61756714Y-3680952D01*
X61756714Y-4061904D01*
X61709095Y-4157142D01*
X61661476Y-4204761D01*
X61566238Y-4252380D01*
X61375761Y-4252380D01*
X61280523Y-4204761D01*
X61232904Y-4157142D01*
X61185285Y-4061904D01*
X61185285Y-3823809D01*
X61232904Y-3728571D01*
X61280523Y-3680952D01*
X61375761Y-3633333D01*
X61566238Y-3633333D01*
X61661476Y-3680952D01*
X61709095Y-3728571D01*
X61756714Y-3823809D01*
G04 #@! TO.C,D2*
X63233380Y-25176904D02*
X62233380Y-25176904D01*
X62233380Y-25415000D01*
X62281000Y-25557857D01*
X62376238Y-25653095D01*
X62471476Y-25700714D01*
X62661952Y-25748333D01*
X62804809Y-25748333D01*
X62995285Y-25700714D01*
X63090523Y-25653095D01*
X63185761Y-25557857D01*
X63233380Y-25415000D01*
X63233380Y-25176904D01*
X62328619Y-26129285D02*
X62281000Y-26176904D01*
X62233380Y-26272142D01*
X62233380Y-26510238D01*
X62281000Y-26605476D01*
X62328619Y-26653095D01*
X62423857Y-26700714D01*
X62519095Y-26700714D01*
X62661952Y-26653095D01*
X63233380Y-26081666D01*
X63233380Y-26700714D01*
G04 #@! TO.C,R15*
X79742857Y-19802380D02*
X80076190Y-19326190D01*
X80314285Y-19802380D02*
X80314285Y-18802380D01*
X79933333Y-18802380D01*
X79838095Y-18850000D01*
X79790476Y-18897619D01*
X79742857Y-18992857D01*
X79742857Y-19135714D01*
X79790476Y-19230952D01*
X79838095Y-19278571D01*
X79933333Y-19326190D01*
X80314285Y-19326190D01*
X78790476Y-19802380D02*
X79361904Y-19802380D01*
X79076190Y-19802380D02*
X79076190Y-18802380D01*
X79171428Y-18945238D01*
X79266666Y-19040476D01*
X79361904Y-19088095D01*
X77885714Y-18802380D02*
X78361904Y-18802380D01*
X78409523Y-19278571D01*
X78361904Y-19230952D01*
X78266666Y-19183333D01*
X78028571Y-19183333D01*
X77933333Y-19230952D01*
X77885714Y-19278571D01*
X77838095Y-19373809D01*
X77838095Y-19611904D01*
X77885714Y-19707142D01*
X77933333Y-19754761D01*
X78028571Y-19802380D01*
X78266666Y-19802380D01*
X78361904Y-19754761D01*
X78409523Y-19707142D01*
G04 #@! TO.C,SW10*
X68459523Y-44104761D02*
X68316666Y-44152380D01*
X68078571Y-44152380D01*
X67983333Y-44104761D01*
X67935714Y-44057142D01*
X67888095Y-43961904D01*
X67888095Y-43866666D01*
X67935714Y-43771428D01*
X67983333Y-43723809D01*
X68078571Y-43676190D01*
X68269047Y-43628571D01*
X68364285Y-43580952D01*
X68411904Y-43533333D01*
X68459523Y-43438095D01*
X68459523Y-43342857D01*
X68411904Y-43247619D01*
X68364285Y-43200000D01*
X68269047Y-43152380D01*
X68030952Y-43152380D01*
X67888095Y-43200000D01*
X67554761Y-43152380D02*
X67316666Y-44152380D01*
X67126190Y-43438095D01*
X66935714Y-44152380D01*
X66697619Y-43152380D01*
X65792857Y-44152380D02*
X66364285Y-44152380D01*
X66078571Y-44152380D02*
X66078571Y-43152380D01*
X66173809Y-43295238D01*
X66269047Y-43390476D01*
X66364285Y-43438095D01*
X65173809Y-43152380D02*
X65078571Y-43152380D01*
X64983333Y-43200000D01*
X64935714Y-43247619D01*
X64888095Y-43342857D01*
X64840476Y-43533333D01*
X64840476Y-43771428D01*
X64888095Y-43961904D01*
X64935714Y-44057142D01*
X64983333Y-44104761D01*
X65078571Y-44152380D01*
X65173809Y-44152380D01*
X65269047Y-44104761D01*
X65316666Y-44057142D01*
X65364285Y-43961904D01*
X65411904Y-43771428D01*
X65411904Y-43533333D01*
X65364285Y-43342857D01*
X65316666Y-43247619D01*
X65269047Y-43200000D01*
X65173809Y-43152380D01*
G04 #@! TO.C,Y1*
X66476190Y-6476190D02*
X66476190Y-6952380D01*
X66809523Y-5952380D02*
X66476190Y-6476190D01*
X66142857Y-5952380D01*
X65285714Y-6952380D02*
X65857142Y-6952380D01*
X65571428Y-6952380D02*
X65571428Y-5952380D01*
X65666666Y-6095238D01*
X65761904Y-6190476D01*
X65857142Y-6238095D01*
G04 #@! TO.C,D27*
D14*
X83421428Y-16311904D02*
X83421428Y-15511904D01*
X83230952Y-15511904D01*
X83116666Y-15550000D01*
X83040476Y-15626190D01*
X83002380Y-15702380D01*
X82964285Y-15854761D01*
X82964285Y-15969047D01*
X83002380Y-16121428D01*
X83040476Y-16197619D01*
X83116666Y-16273809D01*
X83230952Y-16311904D01*
X83421428Y-16311904D01*
X82659523Y-15588095D02*
X82621428Y-15550000D01*
X82545238Y-15511904D01*
X82354761Y-15511904D01*
X82278571Y-15550000D01*
X82240476Y-15588095D01*
X82202380Y-15664285D01*
X82202380Y-15740476D01*
X82240476Y-15854761D01*
X82697619Y-16311904D01*
X82202380Y-16311904D01*
X81935714Y-15511904D02*
X81402380Y-15511904D01*
X81745238Y-16311904D01*
G04 #@! TO.C,SW24*
D13*
X97009523Y-69354761D02*
X96866666Y-69402380D01*
X96628571Y-69402380D01*
X96533333Y-69354761D01*
X96485714Y-69307142D01*
X96438095Y-69211904D01*
X96438095Y-69116666D01*
X96485714Y-69021428D01*
X96533333Y-68973809D01*
X96628571Y-68926190D01*
X96819047Y-68878571D01*
X96914285Y-68830952D01*
X96961904Y-68783333D01*
X97009523Y-68688095D01*
X97009523Y-68592857D01*
X96961904Y-68497619D01*
X96914285Y-68450000D01*
X96819047Y-68402380D01*
X96580952Y-68402380D01*
X96438095Y-68450000D01*
X96104761Y-68402380D02*
X95866666Y-69402380D01*
X95676190Y-68688095D01*
X95485714Y-69402380D01*
X95247619Y-68402380D01*
X94914285Y-68497619D02*
X94866666Y-68450000D01*
X94771428Y-68402380D01*
X94533333Y-68402380D01*
X94438095Y-68450000D01*
X94390476Y-68497619D01*
X94342857Y-68592857D01*
X94342857Y-68688095D01*
X94390476Y-68830952D01*
X94961904Y-69402380D01*
X94342857Y-69402380D01*
X93485714Y-68735714D02*
X93485714Y-69402380D01*
X93723809Y-68354761D02*
X93961904Y-69069047D01*
X93342857Y-69069047D01*
G04 #@! TO.C,SW7*
X10858333Y-44104761D02*
X10715476Y-44152380D01*
X10477380Y-44152380D01*
X10382142Y-44104761D01*
X10334523Y-44057142D01*
X10286904Y-43961904D01*
X10286904Y-43866666D01*
X10334523Y-43771428D01*
X10382142Y-43723809D01*
X10477380Y-43676190D01*
X10667857Y-43628571D01*
X10763095Y-43580952D01*
X10810714Y-43533333D01*
X10858333Y-43438095D01*
X10858333Y-43342857D01*
X10810714Y-43247619D01*
X10763095Y-43200000D01*
X10667857Y-43152380D01*
X10429761Y-43152380D01*
X10286904Y-43200000D01*
X9953571Y-43152380D02*
X9715476Y-44152380D01*
X9525000Y-43438095D01*
X9334523Y-44152380D01*
X9096428Y-43152380D01*
X8810714Y-43152380D02*
X8144047Y-43152380D01*
X8572619Y-44152380D01*
G04 #@! TO.C,SW11*
X84659523Y-44154761D02*
X84516666Y-44202380D01*
X84278571Y-44202380D01*
X84183333Y-44154761D01*
X84135714Y-44107142D01*
X84088095Y-44011904D01*
X84088095Y-43916666D01*
X84135714Y-43821428D01*
X84183333Y-43773809D01*
X84278571Y-43726190D01*
X84469047Y-43678571D01*
X84564285Y-43630952D01*
X84611904Y-43583333D01*
X84659523Y-43488095D01*
X84659523Y-43392857D01*
X84611904Y-43297619D01*
X84564285Y-43250000D01*
X84469047Y-43202380D01*
X84230952Y-43202380D01*
X84088095Y-43250000D01*
X83754761Y-43202380D02*
X83516666Y-44202380D01*
X83326190Y-43488095D01*
X83135714Y-44202380D01*
X82897619Y-43202380D01*
X81992857Y-44202380D02*
X82564285Y-44202380D01*
X82278571Y-44202380D02*
X82278571Y-43202380D01*
X82373809Y-43345238D01*
X82469047Y-43440476D01*
X82564285Y-43488095D01*
X81040476Y-44202380D02*
X81611904Y-44202380D01*
X81326190Y-44202380D02*
X81326190Y-43202380D01*
X81421428Y-43345238D01*
X81516666Y-43440476D01*
X81611904Y-43488095D01*
G04 #@! TO.C,C2*
X69787142Y-11983333D02*
X69834761Y-11935714D01*
X69882380Y-11792857D01*
X69882380Y-11697619D01*
X69834761Y-11554761D01*
X69739523Y-11459523D01*
X69644285Y-11411904D01*
X69453809Y-11364285D01*
X69310952Y-11364285D01*
X69120476Y-11411904D01*
X69025238Y-11459523D01*
X68930000Y-11554761D01*
X68882380Y-11697619D01*
X68882380Y-11792857D01*
X68930000Y-11935714D01*
X68977619Y-11983333D01*
X68977619Y-12364285D02*
X68930000Y-12411904D01*
X68882380Y-12507142D01*
X68882380Y-12745238D01*
X68930000Y-12840476D01*
X68977619Y-12888095D01*
X69072857Y-12935714D01*
X69168095Y-12935714D01*
X69310952Y-12888095D01*
X69882380Y-12316666D01*
X69882380Y-12935714D01*
G04 #@! TO.C,J9*
X29933333Y-8552380D02*
X29933333Y-9266666D01*
X29980952Y-9409523D01*
X30076190Y-9504761D01*
X30219047Y-9552380D01*
X30314285Y-9552380D01*
X29409523Y-9552380D02*
X29219047Y-9552380D01*
X29123809Y-9504761D01*
X29076190Y-9457142D01*
X28980952Y-9314285D01*
X28933333Y-9123809D01*
X28933333Y-8742857D01*
X28980952Y-8647619D01*
X29028571Y-8600000D01*
X29123809Y-8552380D01*
X29314285Y-8552380D01*
X29409523Y-8600000D01*
X29457142Y-8647619D01*
X29504761Y-8742857D01*
X29504761Y-8980952D01*
X29457142Y-9076190D01*
X29409523Y-9123809D01*
X29314285Y-9171428D01*
X29123809Y-9171428D01*
X29028571Y-9123809D01*
X28980952Y-9076190D01*
X28933333Y-8980952D01*
G04 #@! TO.C,SW13*
X11259523Y-52354761D02*
X11116666Y-52402380D01*
X10878571Y-52402380D01*
X10783333Y-52354761D01*
X10735714Y-52307142D01*
X10688095Y-52211904D01*
X10688095Y-52116666D01*
X10735714Y-52021428D01*
X10783333Y-51973809D01*
X10878571Y-51926190D01*
X11069047Y-51878571D01*
X11164285Y-51830952D01*
X11211904Y-51783333D01*
X11259523Y-51688095D01*
X11259523Y-51592857D01*
X11211904Y-51497619D01*
X11164285Y-51450000D01*
X11069047Y-51402380D01*
X10830952Y-51402380D01*
X10688095Y-51450000D01*
X10354761Y-51402380D02*
X10116666Y-52402380D01*
X9926190Y-51688095D01*
X9735714Y-52402380D01*
X9497619Y-51402380D01*
X8592857Y-52402380D02*
X9164285Y-52402380D01*
X8878571Y-52402380D02*
X8878571Y-51402380D01*
X8973809Y-51545238D01*
X9069047Y-51640476D01*
X9164285Y-51688095D01*
X8259523Y-51402380D02*
X7640476Y-51402380D01*
X7973809Y-51783333D01*
X7830952Y-51783333D01*
X7735714Y-51830952D01*
X7688095Y-51878571D01*
X7640476Y-51973809D01*
X7640476Y-52211904D01*
X7688095Y-52307142D01*
X7735714Y-52354761D01*
X7830952Y-52402380D01*
X8116666Y-52402380D01*
X8211904Y-52354761D01*
X8259523Y-52307142D01*
G04 #@! TO.C,SW15*
X45109523Y-52354761D02*
X44966666Y-52402380D01*
X44728571Y-52402380D01*
X44633333Y-52354761D01*
X44585714Y-52307142D01*
X44538095Y-52211904D01*
X44538095Y-52116666D01*
X44585714Y-52021428D01*
X44633333Y-51973809D01*
X44728571Y-51926190D01*
X44919047Y-51878571D01*
X45014285Y-51830952D01*
X45061904Y-51783333D01*
X45109523Y-51688095D01*
X45109523Y-51592857D01*
X45061904Y-51497619D01*
X45014285Y-51450000D01*
X44919047Y-51402380D01*
X44680952Y-51402380D01*
X44538095Y-51450000D01*
X44204761Y-51402380D02*
X43966666Y-52402380D01*
X43776190Y-51688095D01*
X43585714Y-52402380D01*
X43347619Y-51402380D01*
X42442857Y-52402380D02*
X43014285Y-52402380D01*
X42728571Y-52402380D02*
X42728571Y-51402380D01*
X42823809Y-51545238D01*
X42919047Y-51640476D01*
X43014285Y-51688095D01*
X41538095Y-51402380D02*
X42014285Y-51402380D01*
X42061904Y-51878571D01*
X42014285Y-51830952D01*
X41919047Y-51783333D01*
X41680952Y-51783333D01*
X41585714Y-51830952D01*
X41538095Y-51878571D01*
X41490476Y-51973809D01*
X41490476Y-52211904D01*
X41538095Y-52307142D01*
X41585714Y-52354761D01*
X41680952Y-52402380D01*
X41919047Y-52402380D01*
X42014285Y-52354761D01*
X42061904Y-52307142D01*
G04 #@! TO.C,C3*
X69857142Y-8733333D02*
X69904761Y-8685714D01*
X69952380Y-8542857D01*
X69952380Y-8447619D01*
X69904761Y-8304761D01*
X69809523Y-8209523D01*
X69714285Y-8161904D01*
X69523809Y-8114285D01*
X69380952Y-8114285D01*
X69190476Y-8161904D01*
X69095238Y-8209523D01*
X69000000Y-8304761D01*
X68952380Y-8447619D01*
X68952380Y-8542857D01*
X69000000Y-8685714D01*
X69047619Y-8733333D01*
X68952380Y-9066666D02*
X68952380Y-9685714D01*
X69333333Y-9352380D01*
X69333333Y-9495238D01*
X69380952Y-9590476D01*
X69428571Y-9638095D01*
X69523809Y-9685714D01*
X69761904Y-9685714D01*
X69857142Y-9638095D01*
X69904761Y-9590476D01*
X69952380Y-9495238D01*
X69952380Y-9209523D01*
X69904761Y-9114285D01*
X69857142Y-9066666D01*
G04 #@! TO.C,SW1*
X6333333Y-25104761D02*
X6190476Y-25152380D01*
X5952380Y-25152380D01*
X5857142Y-25104761D01*
X5809523Y-25057142D01*
X5761904Y-24961904D01*
X5761904Y-24866666D01*
X5809523Y-24771428D01*
X5857142Y-24723809D01*
X5952380Y-24676190D01*
X6142857Y-24628571D01*
X6238095Y-24580952D01*
X6285714Y-24533333D01*
X6333333Y-24438095D01*
X6333333Y-24342857D01*
X6285714Y-24247619D01*
X6238095Y-24200000D01*
X6142857Y-24152380D01*
X5904761Y-24152380D01*
X5761904Y-24200000D01*
X5428571Y-24152380D02*
X5190476Y-25152380D01*
X5000000Y-24438095D01*
X4809523Y-25152380D01*
X4571428Y-24152380D01*
X3666666Y-25152380D02*
X4238095Y-25152380D01*
X3952380Y-25152380D02*
X3952380Y-24152380D01*
X4047619Y-24295238D01*
X4142857Y-24390476D01*
X4238095Y-24438095D01*
G04 #@! TO.C,C1*
X50261142Y-8222333D02*
X50308761Y-8174714D01*
X50356380Y-8031857D01*
X50356380Y-7936619D01*
X50308761Y-7793761D01*
X50213523Y-7698523D01*
X50118285Y-7650904D01*
X49927809Y-7603285D01*
X49784952Y-7603285D01*
X49594476Y-7650904D01*
X49499238Y-7698523D01*
X49404000Y-7793761D01*
X49356380Y-7936619D01*
X49356380Y-8031857D01*
X49404000Y-8174714D01*
X49451619Y-8222333D01*
X50356380Y-9174714D02*
X50356380Y-8603285D01*
X50356380Y-8889000D02*
X49356380Y-8889000D01*
X49499238Y-8793761D01*
X49594476Y-8698523D01*
X49642095Y-8603285D01*
G04 #@! TO.C,SW8*
X35533333Y-44104761D02*
X35390476Y-44152380D01*
X35152380Y-44152380D01*
X35057142Y-44104761D01*
X35009523Y-44057142D01*
X34961904Y-43961904D01*
X34961904Y-43866666D01*
X35009523Y-43771428D01*
X35057142Y-43723809D01*
X35152380Y-43676190D01*
X35342857Y-43628571D01*
X35438095Y-43580952D01*
X35485714Y-43533333D01*
X35533333Y-43438095D01*
X35533333Y-43342857D01*
X35485714Y-43247619D01*
X35438095Y-43200000D01*
X35342857Y-43152380D01*
X35104761Y-43152380D01*
X34961904Y-43200000D01*
X34628571Y-43152380D02*
X34390476Y-44152380D01*
X34200000Y-43438095D01*
X34009523Y-44152380D01*
X33771428Y-43152380D01*
X33247619Y-43580952D02*
X33342857Y-43533333D01*
X33390476Y-43485714D01*
X33438095Y-43390476D01*
X33438095Y-43342857D01*
X33390476Y-43247619D01*
X33342857Y-43200000D01*
X33247619Y-43152380D01*
X33057142Y-43152380D01*
X32961904Y-43200000D01*
X32914285Y-43247619D01*
X32866666Y-43342857D01*
X32866666Y-43390476D01*
X32914285Y-43485714D01*
X32961904Y-43533333D01*
X33057142Y-43580952D01*
X33247619Y-43580952D01*
X33342857Y-43628571D01*
X33390476Y-43676190D01*
X33438095Y-43771428D01*
X33438095Y-43961904D01*
X33390476Y-44057142D01*
X33342857Y-44104761D01*
X33247619Y-44152380D01*
X33057142Y-44152380D01*
X32961904Y-44104761D01*
X32914285Y-44057142D01*
X32866666Y-43961904D01*
X32866666Y-43771428D01*
X32914285Y-43676190D01*
X32961904Y-43628571D01*
X33057142Y-43580952D01*
G04 #@! TO.C,C4*
X55595142Y-4183733D02*
X55642761Y-4136114D01*
X55690380Y-3993257D01*
X55690380Y-3898019D01*
X55642761Y-3755161D01*
X55547523Y-3659923D01*
X55452285Y-3612304D01*
X55261809Y-3564685D01*
X55118952Y-3564685D01*
X54928476Y-3612304D01*
X54833238Y-3659923D01*
X54738000Y-3755161D01*
X54690380Y-3898019D01*
X54690380Y-3993257D01*
X54738000Y-4136114D01*
X54785619Y-4183733D01*
X55023714Y-5040876D02*
X55690380Y-5040876D01*
X54642761Y-4802780D02*
X55357047Y-4564685D01*
X55357047Y-5183733D01*
G04 #@! TO.C,SW6*
X110033333Y-25004761D02*
X109890476Y-25052380D01*
X109652380Y-25052380D01*
X109557142Y-25004761D01*
X109509523Y-24957142D01*
X109461904Y-24861904D01*
X109461904Y-24766666D01*
X109509523Y-24671428D01*
X109557142Y-24623809D01*
X109652380Y-24576190D01*
X109842857Y-24528571D01*
X109938095Y-24480952D01*
X109985714Y-24433333D01*
X110033333Y-24338095D01*
X110033333Y-24242857D01*
X109985714Y-24147619D01*
X109938095Y-24100000D01*
X109842857Y-24052380D01*
X109604761Y-24052380D01*
X109461904Y-24100000D01*
X109128571Y-24052380D02*
X108890476Y-25052380D01*
X108700000Y-24338095D01*
X108509523Y-25052380D01*
X108271428Y-24052380D01*
X107461904Y-24052380D02*
X107652380Y-24052380D01*
X107747619Y-24100000D01*
X107795238Y-24147619D01*
X107890476Y-24290476D01*
X107938095Y-24480952D01*
X107938095Y-24861904D01*
X107890476Y-24957142D01*
X107842857Y-25004761D01*
X107747619Y-25052380D01*
X107557142Y-25052380D01*
X107461904Y-25004761D01*
X107414285Y-24957142D01*
X107366666Y-24861904D01*
X107366666Y-24623809D01*
X107414285Y-24528571D01*
X107461904Y-24480952D01*
X107557142Y-24433333D01*
X107747619Y-24433333D01*
X107842857Y-24480952D01*
X107890476Y-24528571D01*
X107938095Y-24623809D01*
G04 #@! TO.C,SW18*
X106559523Y-52354761D02*
X106416666Y-52402380D01*
X106178571Y-52402380D01*
X106083333Y-52354761D01*
X106035714Y-52307142D01*
X105988095Y-52211904D01*
X105988095Y-52116666D01*
X106035714Y-52021428D01*
X106083333Y-51973809D01*
X106178571Y-51926190D01*
X106369047Y-51878571D01*
X106464285Y-51830952D01*
X106511904Y-51783333D01*
X106559523Y-51688095D01*
X106559523Y-51592857D01*
X106511904Y-51497619D01*
X106464285Y-51450000D01*
X106369047Y-51402380D01*
X106130952Y-51402380D01*
X105988095Y-51450000D01*
X105654761Y-51402380D02*
X105416666Y-52402380D01*
X105226190Y-51688095D01*
X105035714Y-52402380D01*
X104797619Y-51402380D01*
X103892857Y-52402380D02*
X104464285Y-52402380D01*
X104178571Y-52402380D02*
X104178571Y-51402380D01*
X104273809Y-51545238D01*
X104369047Y-51640476D01*
X104464285Y-51688095D01*
X103321428Y-51830952D02*
X103416666Y-51783333D01*
X103464285Y-51735714D01*
X103511904Y-51640476D01*
X103511904Y-51592857D01*
X103464285Y-51497619D01*
X103416666Y-51450000D01*
X103321428Y-51402380D01*
X103130952Y-51402380D01*
X103035714Y-51450000D01*
X102988095Y-51497619D01*
X102940476Y-51592857D01*
X102940476Y-51640476D01*
X102988095Y-51735714D01*
X103035714Y-51783333D01*
X103130952Y-51830952D01*
X103321428Y-51830952D01*
X103416666Y-51878571D01*
X103464285Y-51926190D01*
X103511904Y-52021428D01*
X103511904Y-52211904D01*
X103464285Y-52307142D01*
X103416666Y-52354761D01*
X103321428Y-52402380D01*
X103130952Y-52402380D01*
X103035714Y-52354761D01*
X102988095Y-52307142D01*
X102940476Y-52211904D01*
X102940476Y-52021428D01*
X102988095Y-51926190D01*
X103035714Y-51878571D01*
X103130952Y-51830952D01*
G04 #@! TO.C,SW4*
X71233333Y-25004761D02*
X71090476Y-25052380D01*
X70852380Y-25052380D01*
X70757142Y-25004761D01*
X70709523Y-24957142D01*
X70661904Y-24861904D01*
X70661904Y-24766666D01*
X70709523Y-24671428D01*
X70757142Y-24623809D01*
X70852380Y-24576190D01*
X71042857Y-24528571D01*
X71138095Y-24480952D01*
X71185714Y-24433333D01*
X71233333Y-24338095D01*
X71233333Y-24242857D01*
X71185714Y-24147619D01*
X71138095Y-24100000D01*
X71042857Y-24052380D01*
X70804761Y-24052380D01*
X70661904Y-24100000D01*
X70328571Y-24052380D02*
X70090476Y-25052380D01*
X69900000Y-24338095D01*
X69709523Y-25052380D01*
X69471428Y-24052380D01*
X68661904Y-24385714D02*
X68661904Y-25052380D01*
X68900000Y-24004761D02*
X69138095Y-24719047D01*
X68519047Y-24719047D01*
G04 #@! TO.C,SW24*
X106559523Y-80154761D02*
X106416666Y-80202380D01*
X106178571Y-80202380D01*
X106083333Y-80154761D01*
X106035714Y-80107142D01*
X105988095Y-80011904D01*
X105988095Y-79916666D01*
X106035714Y-79821428D01*
X106083333Y-79773809D01*
X106178571Y-79726190D01*
X106369047Y-79678571D01*
X106464285Y-79630952D01*
X106511904Y-79583333D01*
X106559523Y-79488095D01*
X106559523Y-79392857D01*
X106511904Y-79297619D01*
X106464285Y-79250000D01*
X106369047Y-79202380D01*
X106130952Y-79202380D01*
X105988095Y-79250000D01*
X105654761Y-79202380D02*
X105416666Y-80202380D01*
X105226190Y-79488095D01*
X105035714Y-80202380D01*
X104797619Y-79202380D01*
X104464285Y-79297619D02*
X104416666Y-79250000D01*
X104321428Y-79202380D01*
X104083333Y-79202380D01*
X103988095Y-79250000D01*
X103940476Y-79297619D01*
X103892857Y-79392857D01*
X103892857Y-79488095D01*
X103940476Y-79630952D01*
X104511904Y-80202380D01*
X103892857Y-80202380D01*
X103035714Y-79535714D02*
X103035714Y-80202380D01*
X103273809Y-79154761D02*
X103511904Y-79869047D01*
X102892857Y-79869047D01*
G04 #@! TD*
M02*
