M48
;DRILL file {KiCad (5.0.1-dev-70-gb7b125d83)} date 01/31/19 16:17:21
;FORMAT={2:4/ absolute / inch / suppress leading zeros}
FMAT,2
INCH,TZ
T1C0.0157
T2C0.0236
T3C0.0394
T4C0.0236
T5C0.0390
T6C0.0669
T7C0.0866
T8C0.1181
T9C0.1260
T10C0.1575
%
G90
G05
M72
T1
X472Y-26535
X472Y-29134
X709Y-6535
X984Y-10394
X1201Y-27103
X2126Y-10394
X2740Y-4983
X2756Y-26693
X3740Y-4983
X4882Y-19252
X5472Y-30354
X5910Y-5503
X6101Y-23653
X6760Y-6353
X6851Y-16103
X7126Y-8740
X7201Y-27403
X7441Y-4134
X7913Y-17283
X7913Y-18189
X7953Y-8740
X7992Y-7008
X8031Y-4134
X8622Y-29961
X8751Y-7753
X8751Y-15253
X9252Y-17244
X9409Y-24646
X9449Y-15157
X9606Y-9449
X9901Y-29953
X9961Y-13386
X10709Y-3406
X10709Y-3740
X10787Y-4685
X11220Y-3346
X11457Y-4094
X11535Y-25906
X11575Y-8228
X11850Y-4094
X12047Y-4685
X12047Y-11890
X12087Y-3346
X12251Y-23853
X12402Y-19803
X12441Y-5906
X12551Y-29953
X12559Y-16496
X12598Y-3406
X12598Y-3740
X13031Y-11417
X13268Y-10197
X13780Y-4803
X13780Y-5709
X14449Y-8937
X14801Y-30396
X14921Y-11024
X15079Y-10157
X15157Y-25906
X15315Y-846
X15354Y-24724
X15401Y-18096
X15410Y-6403
X15689Y-3091
X15851Y-27053
X15951Y-7553
X16535Y-10157
X17480Y-9646
X17756Y-29961
X17913Y-3583
X17953Y-5827
X17992Y-26772
X18071Y-12165
X18228Y-19528
X18740Y-2717
X19094Y-10000
X19252Y-3583
X19701Y-8803
X20669Y-5551
X20709Y-3307
X20984Y-10000
X21220Y-6220
X21339Y-2520
X21651Y-8503
X21651Y-14203
X21651Y-23453
X21811Y-6811
X22323Y-6378
X22323Y-28386
X22468Y-4399
X22480Y-26772
X22756Y-6732
X23031Y-1496
X23228Y-1850
X23351Y-9553
X23386Y-2283
X23543Y-6378
X23780Y-2559
X23819Y-25596
X23851Y-16953
X23901Y-24503
X24016Y-9921
X24173Y-11063
X24360Y-4853
X24400Y-2510
X24801Y-29853
X24882Y-5984
X25315Y-4134
X25354Y-2126
X25709Y-4134
X25866Y-27835
X26299Y-12244
X26417Y-1969
X26535Y-2362
X26732Y-19370
X27087Y-8976
X27402Y-4370
X27441Y-26024
X27520Y-28701
X27520Y-29882
X27677Y-8780
X27677Y-10806
X27756Y-3937
X28268Y-3386
X28346Y-26024
X28386Y-8425
X28976Y-13819
X29016Y-5000
X29055Y-10394
X29055Y-11614
X29094Y-5669
X29331Y-8937
X29449Y-2323
X29724Y-26220
X29921Y-7598
X29921Y-27992
X30079Y-19409
X30197Y-16850
X30236Y-24764
X30256Y-3307
X30276Y-25945
X30512Y-10394
X30551Y-11614
X30787Y-7205
X30827Y-4291
X30866Y-13937
X31142Y-5079
X31220Y-12638
X31417Y-6024
X31654Y-13425
X31850Y-10551
X31850Y-27087
X32165Y-12362
X32451Y-30353
X32520Y-20945
X32520Y-22441
X32539Y-6909
X32677Y-5197
X32677Y-11181
X32860Y-2603
X32953Y-13110
X33001Y-886
X33301Y-27803
X33622Y-5433
X33622Y-8937
X33622Y-10276
X33976Y-15315
X34094Y-9134
X34094Y-12362
X34094Y-23031
X34488Y-5748
X34764Y-9213
X34961Y-14173
X35000Y-12087
X35000Y-21063
X35001Y-6253
X35667Y-8937
X35751Y-23753
X36024Y-16142
X36575Y-3504
X36651Y-14303
X37520Y-20394
X37756Y-18189
X37795Y-17283
X37927Y-1495
X38451Y-15203
X38858Y-11732
X38858Y-22598
X39094Y-10591
X39451Y-26853
X39606Y-9843
X39961Y-7126
X40079Y-18465
X40984Y-11890
X41339Y-8504
X41496Y-18465
X42953Y-18465
X44331Y-6496
X44331Y-16772
X44409Y-8583
X44409Y-14094
X44409Y-21575
X44409Y-23780
T3
X27323Y-2126
X28323Y-2126
X22510Y-10353
X22510Y-12951
T4
X10516Y-2295
X12791Y-2295
T5
X29620Y-6315
X30020Y-4315
X30420Y-6315
T6
X1740Y-6634
X5740Y-6634
X31740Y-14134
X35740Y-14134
X16740Y-14134
X20740Y-14134
X39240Y-14134
X43240Y-14134
X31740Y-21634
X35740Y-21634
X1740Y-14134
X5740Y-14134
X37477Y-2216
X37477Y-4972
X24240Y-21634
X28240Y-21634
X16740Y-6634
X20740Y-6634
X9240Y-29134
X13240Y-29134
X31740Y-29134
X35740Y-29134
X16740Y-21634
X20740Y-21634
X35490Y-29134
X39490Y-29134
X39240Y-21634
X43240Y-21634
X16740Y-29134
X20740Y-29134
X24240Y-6634
X28240Y-6634
X24240Y-29134
X28240Y-29134
X1740Y-21634
X5740Y-21634
X39240Y-6634
X43240Y-6634
X31740Y-6634
X35740Y-6634
X1740Y-29134
X5740Y-29134
X9240Y-6634
X13240Y-6634
X24240Y-14134
X28240Y-14134
X9240Y-14134
X13240Y-14134
X39240Y-29134
X43240Y-29134
X9240Y-21634
X13240Y-21634
T7
X3740Y-10384
X41240Y-25384
X3740Y-25384
X41240Y-10384
T8
X2740Y-8634
X5240Y-7634
X32740Y-16134
X35240Y-15134
X17740Y-16134
X20240Y-15134
X40240Y-16134
X42740Y-15134
X32740Y-23634
X35240Y-22634
X2740Y-16134
X5240Y-15134
X25240Y-23634
X27740Y-22634
X17740Y-8634
X20240Y-7634
X9740Y-28134
X12240Y-27134
X32240Y-28134
X34740Y-27134
X17740Y-23634
X20240Y-22634
X36490Y-31134
X38990Y-30134
X40240Y-23634
X42740Y-22634
X17240Y-28134
X19740Y-27134
X25240Y-8634
X27740Y-7634
X24740Y-28134
X27240Y-27134
X2740Y-23634
X5240Y-22634
X40240Y-8634
X42740Y-7634
X32740Y-8634
X35240Y-7634
X2240Y-28134
X4740Y-27134
X10240Y-8634
X12740Y-7634
X25240Y-16134
X27740Y-15134
X10240Y-16134
X12740Y-15134
X39740Y-28134
X42240Y-27134
X10240Y-23634
X12740Y-22634
T9
X7480Y-25394
X37402Y-10630
X37402Y-25394
X7480Y-10630
T10
X3740Y-6634
X33740Y-14134
X18740Y-14134
X41240Y-14134
X33740Y-21634
X3740Y-14134
X26240Y-21634
X18740Y-6634
X11240Y-29134
X33740Y-29134
X18740Y-21634
X37490Y-29134
X41240Y-21634
X18740Y-29134
X26240Y-6634
X26240Y-29134
X3740Y-21634
X41240Y-6634
X33740Y-6634
X3740Y-29134
X11240Y-6634
X26240Y-14134
X11240Y-14134
X41240Y-29134
X11240Y-21634
T2
X9953Y-685G85X9953Y-1000
G05
X9953Y-2268G85X9953Y-2701
G05
X13319Y-685G85X13319Y-1000
G05
X13354Y-2268G85X13354Y-2701
G05
T0
M30
