G04 #@! TF.GenerationSoftware,KiCad,Pcbnew,(5.0.1-dev-70-gb7b125d83)*
G04 #@! TF.CreationDate,2019-01-31T16:17:19+01:00*
G04 #@! TF.ProjectId,vitamins_included,766974616D696E735F696E636C756465,rev?*
G04 #@! TF.SameCoordinates,Original*
G04 #@! TF.FileFunction,Soldermask,Top*
G04 #@! TF.FilePolarity,Negative*
%FSLAX46Y46*%
G04 Gerber Fmt 4.6, Leading zero omitted, Abs format (unit mm)*
G04 Created by KiCad (PCBNEW (5.0.1-dev-70-gb7b125d83)) date 01/31/19 16:17:19*
%MOMM*%
%LPD*%
G01*
G04 APERTURE LIST*
%ADD10C,0.010000*%
%ADD11C,3.200000*%
%ADD12C,1.900000*%
%ADD13C,4.200000*%
%ADD14C,6.200000*%
%ADD15C,1.190600*%
%ADD16R,2.200000X2.200000*%
%ADD17C,2.200000*%
%ADD18R,1.900000X1.900000*%
%ADD19O,1.900000X1.900000*%
%ADD20C,0.800000*%
%ADD21O,1.100000X1.900000*%
%ADD22O,1.100000X2.200000*%
%ADD23C,2.400000*%
G04 APERTURE END LIST*
D10*
G04 #@! TO.C,G\002A\002A\002A*
G36*
X40406148Y-4685709D02*
X40557675Y-4835617D01*
X40595591Y-4936409D01*
X40590035Y-5174006D01*
X40469597Y-5333970D01*
X40280419Y-5391067D01*
X40068640Y-5320063D01*
X39999714Y-5262285D01*
X39887686Y-5118433D01*
X39894031Y-4985259D01*
X40020089Y-4801290D01*
X40209649Y-4670204D01*
X40406148Y-4685709D01*
X40406148Y-4685709D01*
G37*
X40406148Y-4685709D02*
X40557675Y-4835617D01*
X40595591Y-4936409D01*
X40590035Y-5174006D01*
X40469597Y-5333970D01*
X40280419Y-5391067D01*
X40068640Y-5320063D01*
X39999714Y-5262285D01*
X39887686Y-5118433D01*
X39894031Y-4985259D01*
X40020089Y-4801290D01*
X40209649Y-4670204D01*
X40406148Y-4685709D01*
G36*
X39281477Y-4696842D02*
X39432006Y-4840593D01*
X39522698Y-4994418D01*
X39528000Y-5029044D01*
X39464510Y-5156230D01*
X39321001Y-5297052D01*
X39167909Y-5387457D01*
X39125214Y-5395333D01*
X38995490Y-5340710D01*
X38899047Y-5262285D01*
X38791094Y-5106386D01*
X38766000Y-5014333D01*
X38831721Y-4850494D01*
X38980867Y-4699034D01*
X39139925Y-4633333D01*
X39281477Y-4696842D01*
X39281477Y-4696842D01*
G37*
X39281477Y-4696842D02*
X39432006Y-4840593D01*
X39522698Y-4994418D01*
X39528000Y-5029044D01*
X39464510Y-5156230D01*
X39321001Y-5297052D01*
X39167909Y-5387457D01*
X39125214Y-5395333D01*
X38995490Y-5340710D01*
X38899047Y-5262285D01*
X38791094Y-5106386D01*
X38766000Y-5014333D01*
X38831721Y-4850494D01*
X38980867Y-4699034D01*
X39139925Y-4633333D01*
X39281477Y-4696842D01*
G36*
X46987919Y-2162640D02*
X47933817Y-2475473D01*
X48217897Y-2600277D01*
X48861726Y-2963902D01*
X49363271Y-3397037D01*
X49741455Y-3917376D01*
X49849105Y-4125333D01*
X49942579Y-4337867D01*
X50005184Y-4533714D01*
X50042999Y-4755008D01*
X50062106Y-5043888D01*
X50068583Y-5442488D01*
X50069000Y-5649333D01*
X50056755Y-6240491D01*
X50009333Y-6725422D01*
X49910705Y-7135255D01*
X49744844Y-7501121D01*
X49495719Y-7854150D01*
X49147301Y-8225471D01*
X48683563Y-8646215D01*
X48402718Y-8885456D01*
X48124360Y-9151906D01*
X47883992Y-9438996D01*
X47749370Y-9653020D01*
X47623194Y-10001007D01*
X47576915Y-10330932D01*
X47612718Y-10596732D01*
X47698333Y-10729333D01*
X47814614Y-10867107D01*
X47770273Y-10952538D01*
X47566241Y-10984024D01*
X47550167Y-10984160D01*
X47317125Y-11020896D01*
X47017622Y-11114176D01*
X46830500Y-11191932D01*
X46386000Y-11398876D01*
X46386000Y-11179447D01*
X46377846Y-11055307D01*
X46325923Y-10996079D01*
X46189037Y-10987194D01*
X45925998Y-11014083D01*
X45920333Y-11014749D01*
X45614506Y-11032497D01*
X45461604Y-11000446D01*
X45455241Y-10926196D01*
X45589036Y-10817347D01*
X45856602Y-10681499D01*
X46251557Y-10526252D01*
X46363331Y-10487379D01*
X47021000Y-10263666D01*
X47046269Y-9732089D01*
X47053571Y-9431290D01*
X47027955Y-9238641D01*
X46951626Y-9093637D01*
X46814247Y-8943221D01*
X46546932Y-8752804D01*
X46299540Y-8720999D01*
X46084188Y-8837266D01*
X45912992Y-9091062D01*
X45798071Y-9471848D01*
X45754605Y-9865035D01*
X45733200Y-10348333D01*
X45408198Y-10401171D01*
X45062159Y-10535425D01*
X44888352Y-10697504D01*
X44693508Y-10941000D01*
X44693087Y-10660127D01*
X44679886Y-10472971D01*
X44618368Y-10414741D01*
X44502167Y-10437025D01*
X44297207Y-10537971D01*
X44121167Y-10669156D01*
X43930667Y-10843517D01*
X43930667Y-10665921D01*
X44007019Y-10416871D01*
X44208837Y-10175469D01*
X44495265Y-9981145D01*
X44732423Y-9892147D01*
X44914137Y-9843428D01*
X45035376Y-9784764D01*
X45115647Y-9682372D01*
X45174460Y-9502469D01*
X45231324Y-9211271D01*
X45275594Y-8951541D01*
X45312082Y-8636404D01*
X45292707Y-8461178D01*
X45271301Y-8434660D01*
X45165110Y-8404500D01*
X44919487Y-8351391D01*
X44561940Y-8280762D01*
X44119976Y-8198042D01*
X43621102Y-8108660D01*
X43606883Y-8106167D01*
X42664163Y-7931097D01*
X41872947Y-7761267D01*
X41215737Y-7591284D01*
X40675039Y-7415755D01*
X40233355Y-7229289D01*
X39873190Y-7026494D01*
X39697333Y-6901269D01*
X39501039Y-6705169D01*
X39312215Y-6446924D01*
X39167981Y-6185106D01*
X39105460Y-5978285D01*
X39105100Y-5966833D01*
X39043216Y-5848638D01*
X38884533Y-5818666D01*
X38653633Y-5745691D01*
X38386937Y-5540870D01*
X38365963Y-5520230D01*
X38190051Y-5329764D01*
X38108506Y-5171632D01*
X38095587Y-4980024D01*
X38202813Y-4980024D01*
X38303708Y-5283192D01*
X38489163Y-5522767D01*
X38730426Y-5676685D01*
X38998748Y-5722883D01*
X39265377Y-5639295D01*
X39392341Y-5538689D01*
X39547001Y-5364080D01*
X39642492Y-5221189D01*
X39697585Y-5141335D01*
X39752174Y-5221189D01*
X39929948Y-5471103D01*
X40181726Y-5657797D01*
X40443005Y-5733919D01*
X40450763Y-5734000D01*
X40756393Y-5662585D01*
X40988308Y-5473742D01*
X41139752Y-5205575D01*
X41203974Y-4896186D01*
X41174220Y-4583679D01*
X41043737Y-4306155D01*
X40805771Y-4101719D01*
X40745131Y-4073141D01*
X40423880Y-4007522D01*
X40134827Y-4100749D01*
X39866296Y-4351843D01*
X39724116Y-4494384D01*
X39642985Y-4498853D01*
X39636833Y-4486299D01*
X39462030Y-4219682D01*
X39190309Y-4032756D01*
X39056577Y-3991087D01*
X38786300Y-4016958D01*
X38521085Y-4167878D01*
X38310862Y-4405613D01*
X38215228Y-4635328D01*
X38202813Y-4980024D01*
X38095587Y-4980024D01*
X38094912Y-4970027D01*
X38109552Y-4784425D01*
X38160090Y-4482176D01*
X38263069Y-4272132D01*
X38417791Y-4109195D01*
X38647827Y-3962143D01*
X38908488Y-3878325D01*
X39145057Y-3867069D01*
X39302815Y-3937708D01*
X39316323Y-3955982D01*
X39406317Y-3957174D01*
X39581535Y-3861292D01*
X39710841Y-3765482D01*
X39857584Y-3651958D01*
X39989168Y-3573600D01*
X40141881Y-3522300D01*
X40352015Y-3489947D01*
X40655860Y-3468432D01*
X41089706Y-3449645D01*
X41131565Y-3448000D01*
X42210087Y-3405666D01*
X42668210Y-3055289D01*
X43457482Y-2550826D01*
X44290098Y-2208836D01*
X45160049Y-2029814D01*
X46061326Y-2014251D01*
X46987919Y-2162640D01*
X46987919Y-2162640D01*
G37*
X46987919Y-2162640D02*
X47933817Y-2475473D01*
X48217897Y-2600277D01*
X48861726Y-2963902D01*
X49363271Y-3397037D01*
X49741455Y-3917376D01*
X49849105Y-4125333D01*
X49942579Y-4337867D01*
X50005184Y-4533714D01*
X50042999Y-4755008D01*
X50062106Y-5043888D01*
X50068583Y-5442488D01*
X50069000Y-5649333D01*
X50056755Y-6240491D01*
X50009333Y-6725422D01*
X49910705Y-7135255D01*
X49744844Y-7501121D01*
X49495719Y-7854150D01*
X49147301Y-8225471D01*
X48683563Y-8646215D01*
X48402718Y-8885456D01*
X48124360Y-9151906D01*
X47883992Y-9438996D01*
X47749370Y-9653020D01*
X47623194Y-10001007D01*
X47576915Y-10330932D01*
X47612718Y-10596732D01*
X47698333Y-10729333D01*
X47814614Y-10867107D01*
X47770273Y-10952538D01*
X47566241Y-10984024D01*
X47550167Y-10984160D01*
X47317125Y-11020896D01*
X47017622Y-11114176D01*
X46830500Y-11191932D01*
X46386000Y-11398876D01*
X46386000Y-11179447D01*
X46377846Y-11055307D01*
X46325923Y-10996079D01*
X46189037Y-10987194D01*
X45925998Y-11014083D01*
X45920333Y-11014749D01*
X45614506Y-11032497D01*
X45461604Y-11000446D01*
X45455241Y-10926196D01*
X45589036Y-10817347D01*
X45856602Y-10681499D01*
X46251557Y-10526252D01*
X46363331Y-10487379D01*
X47021000Y-10263666D01*
X47046269Y-9732089D01*
X47053571Y-9431290D01*
X47027955Y-9238641D01*
X46951626Y-9093637D01*
X46814247Y-8943221D01*
X46546932Y-8752804D01*
X46299540Y-8720999D01*
X46084188Y-8837266D01*
X45912992Y-9091062D01*
X45798071Y-9471848D01*
X45754605Y-9865035D01*
X45733200Y-10348333D01*
X45408198Y-10401171D01*
X45062159Y-10535425D01*
X44888352Y-10697504D01*
X44693508Y-10941000D01*
X44693087Y-10660127D01*
X44679886Y-10472971D01*
X44618368Y-10414741D01*
X44502167Y-10437025D01*
X44297207Y-10537971D01*
X44121167Y-10669156D01*
X43930667Y-10843517D01*
X43930667Y-10665921D01*
X44007019Y-10416871D01*
X44208837Y-10175469D01*
X44495265Y-9981145D01*
X44732423Y-9892147D01*
X44914137Y-9843428D01*
X45035376Y-9784764D01*
X45115647Y-9682372D01*
X45174460Y-9502469D01*
X45231324Y-9211271D01*
X45275594Y-8951541D01*
X45312082Y-8636404D01*
X45292707Y-8461178D01*
X45271301Y-8434660D01*
X45165110Y-8404500D01*
X44919487Y-8351391D01*
X44561940Y-8280762D01*
X44119976Y-8198042D01*
X43621102Y-8108660D01*
X43606883Y-8106167D01*
X42664163Y-7931097D01*
X41872947Y-7761267D01*
X41215737Y-7591284D01*
X40675039Y-7415755D01*
X40233355Y-7229289D01*
X39873190Y-7026494D01*
X39697333Y-6901269D01*
X39501039Y-6705169D01*
X39312215Y-6446924D01*
X39167981Y-6185106D01*
X39105460Y-5978285D01*
X39105100Y-5966833D01*
X39043216Y-5848638D01*
X38884533Y-5818666D01*
X38653633Y-5745691D01*
X38386937Y-5540870D01*
X38365963Y-5520230D01*
X38190051Y-5329764D01*
X38108506Y-5171632D01*
X38095587Y-4980024D01*
X38202813Y-4980024D01*
X38303708Y-5283192D01*
X38489163Y-5522767D01*
X38730426Y-5676685D01*
X38998748Y-5722883D01*
X39265377Y-5639295D01*
X39392341Y-5538689D01*
X39547001Y-5364080D01*
X39642492Y-5221189D01*
X39697585Y-5141335D01*
X39752174Y-5221189D01*
X39929948Y-5471103D01*
X40181726Y-5657797D01*
X40443005Y-5733919D01*
X40450763Y-5734000D01*
X40756393Y-5662585D01*
X40988308Y-5473742D01*
X41139752Y-5205575D01*
X41203974Y-4896186D01*
X41174220Y-4583679D01*
X41043737Y-4306155D01*
X40805771Y-4101719D01*
X40745131Y-4073141D01*
X40423880Y-4007522D01*
X40134827Y-4100749D01*
X39866296Y-4351843D01*
X39724116Y-4494384D01*
X39642985Y-4498853D01*
X39636833Y-4486299D01*
X39462030Y-4219682D01*
X39190309Y-4032756D01*
X39056577Y-3991087D01*
X38786300Y-4016958D01*
X38521085Y-4167878D01*
X38310862Y-4405613D01*
X38215228Y-4635328D01*
X38202813Y-4980024D01*
X38095587Y-4980024D01*
X38094912Y-4970027D01*
X38109552Y-4784425D01*
X38160090Y-4482176D01*
X38263069Y-4272132D01*
X38417791Y-4109195D01*
X38647827Y-3962143D01*
X38908488Y-3878325D01*
X39145057Y-3867069D01*
X39302815Y-3937708D01*
X39316323Y-3955982D01*
X39406317Y-3957174D01*
X39581535Y-3861292D01*
X39710841Y-3765482D01*
X39857584Y-3651958D01*
X39989168Y-3573600D01*
X40141881Y-3522300D01*
X40352015Y-3489947D01*
X40655860Y-3468432D01*
X41089706Y-3449645D01*
X41131565Y-3448000D01*
X42210087Y-3405666D01*
X42668210Y-3055289D01*
X43457482Y-2550826D01*
X44290098Y-2208836D01*
X45160049Y-2029814D01*
X46061326Y-2014251D01*
X46987919Y-2162640D01*
G04 #@! TD*
D11*
G04 #@! TO.C,SW5*
X83160000Y-21930000D03*
X89510000Y-19390000D03*
D12*
X80620000Y-16850000D03*
X90780000Y-16850000D03*
D13*
X85700000Y-16850000D03*
G04 #@! TD*
D12*
G04 #@! TO.C,P4*
X95192500Y-12628000D03*
X95192500Y-5628000D03*
G04 #@! TD*
D11*
G04 #@! TO.C,SW14*
X26010000Y-60030000D03*
X32360000Y-57490000D03*
D12*
X23470000Y-54950000D03*
X33630000Y-54950000D03*
D13*
X28550000Y-54950000D03*
G04 #@! TD*
D11*
G04 #@! TO.C,SW2*
X26010000Y-21930000D03*
X32360000Y-19390000D03*
D12*
X23470000Y-16850000D03*
X33630000Y-16850000D03*
D13*
X28550000Y-16850000D03*
G04 #@! TD*
D14*
G04 #@! TO.C,REF\002A\002A*
X95000000Y-27000000D03*
G04 #@! TD*
D11*
G04 #@! TO.C,SW22*
X69190000Y-68920000D03*
X62840000Y-71460000D03*
D12*
X71730000Y-74000000D03*
X61570000Y-74000000D03*
D13*
X66650000Y-74000000D03*
G04 #@! TD*
D11*
G04 #@! TO.C,SW17*
X83160000Y-60030000D03*
X89510000Y-57490000D03*
D12*
X80620000Y-54950000D03*
X90780000Y-54950000D03*
D13*
X85700000Y-54950000D03*
G04 #@! TD*
D11*
G04 #@! TO.C,SW20*
X31090000Y-68920000D03*
X24740000Y-71460000D03*
D12*
X33630000Y-74000000D03*
X23470000Y-74000000D03*
D13*
X28550000Y-74000000D03*
G04 #@! TD*
D14*
G04 #@! TO.C,REF\002A\002A*
X19000000Y-64500000D03*
G04 #@! TD*
D11*
G04 #@! TO.C,SW19*
X12040000Y-68920000D03*
X5690000Y-71460000D03*
D12*
X14580000Y-74000000D03*
X4420000Y-74000000D03*
D13*
X9500000Y-74000000D03*
G04 #@! TD*
D11*
G04 #@! TO.C,SW3*
X45060000Y-21930000D03*
X51410000Y-19390000D03*
D12*
X42520000Y-16850000D03*
X52680000Y-16850000D03*
D13*
X47600000Y-16850000D03*
G04 #@! TD*
D11*
G04 #@! TO.C,SW12*
X102210000Y-40980000D03*
X108560000Y-38440000D03*
D12*
X99670000Y-35900000D03*
X109830000Y-35900000D03*
D13*
X104750000Y-35900000D03*
G04 #@! TD*
D11*
G04 #@! TO.C,SW21*
X50140000Y-68920000D03*
X43790000Y-71460000D03*
D12*
X52680000Y-74000000D03*
X42520000Y-74000000D03*
D13*
X47600000Y-74000000D03*
G04 #@! TD*
D11*
G04 #@! TO.C,SW16*
X64110000Y-60030000D03*
X70460000Y-57490000D03*
D12*
X61570000Y-54950000D03*
X71730000Y-54950000D03*
D13*
X66650000Y-54950000D03*
G04 #@! TD*
D11*
G04 #@! TO.C,SW9*
X45060000Y-40980000D03*
X51410000Y-38440000D03*
D12*
X42520000Y-35900000D03*
X52680000Y-35900000D03*
D13*
X47600000Y-35900000D03*
G04 #@! TD*
D14*
G04 #@! TO.C,REF\002A\002A*
X95000000Y-64500000D03*
G04 #@! TD*
D15*
G04 #@! TO.C,J3*
X76250000Y-10960000D03*
X77266000Y-16040000D03*
X75234000Y-16040000D03*
G04 #@! TD*
D16*
G04 #@! TO.C,J1*
X57176000Y-26296000D03*
D17*
X57176000Y-32896000D03*
G04 #@! TD*
D11*
G04 #@! TO.C,SW23*
X88240000Y-68920000D03*
X81890000Y-71460000D03*
D12*
X90780000Y-74000000D03*
X80620000Y-74000000D03*
D13*
X85700000Y-74000000D03*
G04 #@! TD*
D18*
G04 #@! TO.C,J2*
X69400000Y-5400000D03*
D19*
X71940000Y-5400000D03*
G04 #@! TD*
D11*
G04 #@! TO.C,SW10*
X64110000Y-40980000D03*
X70460000Y-38440000D03*
D12*
X61570000Y-35900000D03*
X71730000Y-35900000D03*
D13*
X66650000Y-35900000D03*
G04 #@! TD*
D11*
G04 #@! TO.C,SW24*
X92685000Y-79080000D03*
X99035000Y-76540000D03*
D12*
X90145000Y-74000000D03*
X100305000Y-74000000D03*
D13*
X95225000Y-74000000D03*
G04 #@! TD*
D11*
G04 #@! TO.C,SW7*
X6960000Y-40980000D03*
X13310000Y-38440000D03*
D12*
X4420000Y-35900000D03*
X14580000Y-35900000D03*
D13*
X9500000Y-35900000D03*
G04 #@! TD*
D11*
G04 #@! TO.C,SW11*
X83160000Y-40980000D03*
X89510000Y-38440000D03*
D12*
X80620000Y-35900000D03*
X90780000Y-35900000D03*
D13*
X85700000Y-35900000D03*
G04 #@! TD*
D20*
G04 #@! TO.C,J9*
X26710000Y-5830000D03*
X32490000Y-5830000D03*
D21*
X33830000Y-2140000D03*
X25280000Y-2140000D03*
D22*
X33920000Y-6310000D03*
X25280000Y-6310000D03*
G04 #@! TD*
D11*
G04 #@! TO.C,SW13*
X6960000Y-60030000D03*
X13310000Y-57490000D03*
D12*
X4420000Y-54950000D03*
X14580000Y-54950000D03*
D13*
X9500000Y-54950000D03*
G04 #@! TD*
D11*
G04 #@! TO.C,SW15*
X45060000Y-60030000D03*
X51410000Y-57490000D03*
D12*
X42520000Y-54950000D03*
X52680000Y-54950000D03*
D13*
X47600000Y-54950000D03*
G04 #@! TD*
D11*
G04 #@! TO.C,SW1*
X6960000Y-21930000D03*
X13310000Y-19390000D03*
D12*
X4420000Y-16850000D03*
X14580000Y-16850000D03*
D13*
X9500000Y-16850000D03*
G04 #@! TD*
D11*
G04 #@! TO.C,SW8*
X26010000Y-40980000D03*
X32360000Y-38440000D03*
D12*
X23470000Y-35900000D03*
X33630000Y-35900000D03*
D13*
X28550000Y-35900000D03*
G04 #@! TD*
D11*
G04 #@! TO.C,SW6*
X102210000Y-21930000D03*
X108560000Y-19390000D03*
D12*
X99670000Y-16850000D03*
X109830000Y-16850000D03*
D13*
X104750000Y-16850000D03*
G04 #@! TD*
D11*
G04 #@! TO.C,SW18*
X102210000Y-60030000D03*
X108560000Y-57490000D03*
D12*
X99670000Y-54950000D03*
X109830000Y-54950000D03*
D13*
X104750000Y-54950000D03*
G04 #@! TD*
D14*
G04 #@! TO.C,REF\002A\002A*
X19000000Y-27000000D03*
G04 #@! TD*
D11*
G04 #@! TO.C,SW4*
X64110000Y-21930000D03*
X70460000Y-19390000D03*
D12*
X61570000Y-16850000D03*
X71730000Y-16850000D03*
D13*
X66650000Y-16850000D03*
G04 #@! TD*
D23*
G04 #@! TO.C,REF\002A\002A*
X104750000Y-64475000D03*
G04 #@! TD*
G04 #@! TO.C,REF\002A\002A*
X9500000Y-26375000D03*
G04 #@! TD*
D11*
G04 #@! TO.C,SW24*
X107290000Y-68920000D03*
X100940000Y-71460000D03*
D12*
X109830000Y-74000000D03*
X99670000Y-74000000D03*
D13*
X104750000Y-74000000D03*
G04 #@! TD*
D23*
G04 #@! TO.C,REF\002A\002A*
X104750000Y-26375000D03*
G04 #@! TD*
G04 #@! TO.C,REF\002A\002A*
X9500000Y-64475000D03*
G04 #@! TD*
M02*
