G04 #@! TF.GenerationSoftware,KiCad,Pcbnew,(5.0.1-dev-70-gb7b125d83)*
G04 #@! TF.CreationDate,2019-01-31T16:17:19+01:00*
G04 #@! TF.ProjectId,vitamins_included,766974616D696E735F696E636C756465,rev?*
G04 #@! TF.SameCoordinates,Original*
G04 #@! TF.FileFunction,Soldermask,Bot*
G04 #@! TF.FilePolarity,Negative*
%FSLAX46Y46*%
G04 Gerber Fmt 4.6, Leading zero omitted, Abs format (unit mm)*
G04 Created by KiCad (PCBNEW (5.0.1-dev-70-gb7b125d83)) date 01/31/19 16:17:19*
%MOMM*%
%LPD*%
G01*
G04 APERTURE LIST*
%ADD10C,0.100000*%
%ADD11C,1.075000*%
%ADD12R,1.700000X1.200000*%
%ADD13C,2.000000*%
%ADD14R,2.750000X2.700000*%
%ADD15C,3.200000*%
%ADD16C,1.900000*%
%ADD17C,4.200000*%
%ADD18R,1.000000X1.100000*%
%ADD19R,3.000000X2.200000*%
%ADD20R,3.000000X2.400000*%
%ADD21R,3.000000X3.000000*%
%ADD22C,6.200000*%
%ADD23R,0.499720X1.198220*%
%ADD24R,1.198220X0.499720*%
%ADD25R,5.280000X5.280000*%
%ADD26R,1.700000X3.200000*%
%ADD27C,0.987400*%
%ADD28C,1.190600*%
%ADD29R,2.200000X2.200000*%
%ADD30C,2.200000*%
%ADD31R,3.200000X1.700000*%
%ADD32R,2.700000X2.000000*%
%ADD33R,1.900000X1.900000*%
%ADD34O,1.900000X1.900000*%
%ADD35R,2.380000X1.800000*%
%ADD36R,2.600000X2.100000*%
%ADD37C,1.050000*%
%ADD38C,1.000000*%
%ADD39R,0.800000X1.360000*%
%ADD40C,0.800000*%
%ADD41R,0.500000X1.360000*%
%ADD42O,1.100000X1.900000*%
%ADD43O,1.100000X2.200000*%
%ADD44C,2.400000*%
G04 APERTURE END LIST*
D10*
G04 #@! TO.C,C12*
G36*
X77382592Y-67426294D02*
X77408681Y-67430164D01*
X77434264Y-67436572D01*
X77459096Y-67445457D01*
X77482938Y-67456734D01*
X77505560Y-67470293D01*
X77526743Y-67486003D01*
X77546285Y-67503715D01*
X77563997Y-67523257D01*
X77579707Y-67544440D01*
X77593266Y-67567062D01*
X77604543Y-67590904D01*
X77613428Y-67615736D01*
X77619836Y-67641319D01*
X77623706Y-67667408D01*
X77625000Y-67693750D01*
X77625000Y-68306250D01*
X77623706Y-68332592D01*
X77619836Y-68358681D01*
X77613428Y-68384264D01*
X77604543Y-68409096D01*
X77593266Y-68432938D01*
X77579707Y-68455560D01*
X77563997Y-68476743D01*
X77546285Y-68496285D01*
X77526743Y-68513997D01*
X77505560Y-68529707D01*
X77482938Y-68543266D01*
X77459096Y-68554543D01*
X77434264Y-68563428D01*
X77408681Y-68569836D01*
X77382592Y-68573706D01*
X77356250Y-68575000D01*
X76818750Y-68575000D01*
X76792408Y-68573706D01*
X76766319Y-68569836D01*
X76740736Y-68563428D01*
X76715904Y-68554543D01*
X76692062Y-68543266D01*
X76669440Y-68529707D01*
X76648257Y-68513997D01*
X76628715Y-68496285D01*
X76611003Y-68476743D01*
X76595293Y-68455560D01*
X76581734Y-68432938D01*
X76570457Y-68409096D01*
X76561572Y-68384264D01*
X76555164Y-68358681D01*
X76551294Y-68332592D01*
X76550000Y-68306250D01*
X76550000Y-67693750D01*
X76551294Y-67667408D01*
X76555164Y-67641319D01*
X76561572Y-67615736D01*
X76570457Y-67590904D01*
X76581734Y-67567062D01*
X76595293Y-67544440D01*
X76611003Y-67523257D01*
X76628715Y-67503715D01*
X76648257Y-67486003D01*
X76669440Y-67470293D01*
X76692062Y-67456734D01*
X76715904Y-67445457D01*
X76740736Y-67436572D01*
X76766319Y-67430164D01*
X76792408Y-67426294D01*
X76818750Y-67425000D01*
X77356250Y-67425000D01*
X77382592Y-67426294D01*
X77382592Y-67426294D01*
G37*
D11*
X77087500Y-68000000D03*
D10*
G36*
X75807592Y-67426294D02*
X75833681Y-67430164D01*
X75859264Y-67436572D01*
X75884096Y-67445457D01*
X75907938Y-67456734D01*
X75930560Y-67470293D01*
X75951743Y-67486003D01*
X75971285Y-67503715D01*
X75988997Y-67523257D01*
X76004707Y-67544440D01*
X76018266Y-67567062D01*
X76029543Y-67590904D01*
X76038428Y-67615736D01*
X76044836Y-67641319D01*
X76048706Y-67667408D01*
X76050000Y-67693750D01*
X76050000Y-68306250D01*
X76048706Y-68332592D01*
X76044836Y-68358681D01*
X76038428Y-68384264D01*
X76029543Y-68409096D01*
X76018266Y-68432938D01*
X76004707Y-68455560D01*
X75988997Y-68476743D01*
X75971285Y-68496285D01*
X75951743Y-68513997D01*
X75930560Y-68529707D01*
X75907938Y-68543266D01*
X75884096Y-68554543D01*
X75859264Y-68563428D01*
X75833681Y-68569836D01*
X75807592Y-68573706D01*
X75781250Y-68575000D01*
X75243750Y-68575000D01*
X75217408Y-68573706D01*
X75191319Y-68569836D01*
X75165736Y-68563428D01*
X75140904Y-68554543D01*
X75117062Y-68543266D01*
X75094440Y-68529707D01*
X75073257Y-68513997D01*
X75053715Y-68496285D01*
X75036003Y-68476743D01*
X75020293Y-68455560D01*
X75006734Y-68432938D01*
X74995457Y-68409096D01*
X74986572Y-68384264D01*
X74980164Y-68358681D01*
X74976294Y-68332592D01*
X74975000Y-68306250D01*
X74975000Y-67693750D01*
X74976294Y-67667408D01*
X74980164Y-67641319D01*
X74986572Y-67615736D01*
X74995457Y-67590904D01*
X75006734Y-67567062D01*
X75020293Y-67544440D01*
X75036003Y-67523257D01*
X75053715Y-67503715D01*
X75073257Y-67486003D01*
X75094440Y-67470293D01*
X75117062Y-67456734D01*
X75140904Y-67445457D01*
X75165736Y-67436572D01*
X75191319Y-67430164D01*
X75217408Y-67426294D01*
X75243750Y-67425000D01*
X75781250Y-67425000D01*
X75807592Y-67426294D01*
X75807592Y-67426294D01*
G37*
D11*
X75512500Y-68000000D03*
G04 #@! TD*
D10*
G04 #@! TO.C,C13*
G36*
X94707592Y-48326294D02*
X94733681Y-48330164D01*
X94759264Y-48336572D01*
X94784096Y-48345457D01*
X94807938Y-48356734D01*
X94830560Y-48370293D01*
X94851743Y-48386003D01*
X94871285Y-48403715D01*
X94888997Y-48423257D01*
X94904707Y-48444440D01*
X94918266Y-48467062D01*
X94929543Y-48490904D01*
X94938428Y-48515736D01*
X94944836Y-48541319D01*
X94948706Y-48567408D01*
X94950000Y-48593750D01*
X94950000Y-49206250D01*
X94948706Y-49232592D01*
X94944836Y-49258681D01*
X94938428Y-49284264D01*
X94929543Y-49309096D01*
X94918266Y-49332938D01*
X94904707Y-49355560D01*
X94888997Y-49376743D01*
X94871285Y-49396285D01*
X94851743Y-49413997D01*
X94830560Y-49429707D01*
X94807938Y-49443266D01*
X94784096Y-49454543D01*
X94759264Y-49463428D01*
X94733681Y-49469836D01*
X94707592Y-49473706D01*
X94681250Y-49475000D01*
X94143750Y-49475000D01*
X94117408Y-49473706D01*
X94091319Y-49469836D01*
X94065736Y-49463428D01*
X94040904Y-49454543D01*
X94017062Y-49443266D01*
X93994440Y-49429707D01*
X93973257Y-49413997D01*
X93953715Y-49396285D01*
X93936003Y-49376743D01*
X93920293Y-49355560D01*
X93906734Y-49332938D01*
X93895457Y-49309096D01*
X93886572Y-49284264D01*
X93880164Y-49258681D01*
X93876294Y-49232592D01*
X93875000Y-49206250D01*
X93875000Y-48593750D01*
X93876294Y-48567408D01*
X93880164Y-48541319D01*
X93886572Y-48515736D01*
X93895457Y-48490904D01*
X93906734Y-48467062D01*
X93920293Y-48444440D01*
X93936003Y-48423257D01*
X93953715Y-48403715D01*
X93973257Y-48386003D01*
X93994440Y-48370293D01*
X94017062Y-48356734D01*
X94040904Y-48345457D01*
X94065736Y-48336572D01*
X94091319Y-48330164D01*
X94117408Y-48326294D01*
X94143750Y-48325000D01*
X94681250Y-48325000D01*
X94707592Y-48326294D01*
X94707592Y-48326294D01*
G37*
D11*
X94412500Y-48900000D03*
D10*
G36*
X96282592Y-48326294D02*
X96308681Y-48330164D01*
X96334264Y-48336572D01*
X96359096Y-48345457D01*
X96382938Y-48356734D01*
X96405560Y-48370293D01*
X96426743Y-48386003D01*
X96446285Y-48403715D01*
X96463997Y-48423257D01*
X96479707Y-48444440D01*
X96493266Y-48467062D01*
X96504543Y-48490904D01*
X96513428Y-48515736D01*
X96519836Y-48541319D01*
X96523706Y-48567408D01*
X96525000Y-48593750D01*
X96525000Y-49206250D01*
X96523706Y-49232592D01*
X96519836Y-49258681D01*
X96513428Y-49284264D01*
X96504543Y-49309096D01*
X96493266Y-49332938D01*
X96479707Y-49355560D01*
X96463997Y-49376743D01*
X96446285Y-49396285D01*
X96426743Y-49413997D01*
X96405560Y-49429707D01*
X96382938Y-49443266D01*
X96359096Y-49454543D01*
X96334264Y-49463428D01*
X96308681Y-49469836D01*
X96282592Y-49473706D01*
X96256250Y-49475000D01*
X95718750Y-49475000D01*
X95692408Y-49473706D01*
X95666319Y-49469836D01*
X95640736Y-49463428D01*
X95615904Y-49454543D01*
X95592062Y-49443266D01*
X95569440Y-49429707D01*
X95548257Y-49413997D01*
X95528715Y-49396285D01*
X95511003Y-49376743D01*
X95495293Y-49355560D01*
X95481734Y-49332938D01*
X95470457Y-49309096D01*
X95461572Y-49284264D01*
X95455164Y-49258681D01*
X95451294Y-49232592D01*
X95450000Y-49206250D01*
X95450000Y-48593750D01*
X95451294Y-48567408D01*
X95455164Y-48541319D01*
X95461572Y-48515736D01*
X95470457Y-48490904D01*
X95481734Y-48467062D01*
X95495293Y-48444440D01*
X95511003Y-48423257D01*
X95528715Y-48403715D01*
X95548257Y-48386003D01*
X95569440Y-48370293D01*
X95592062Y-48356734D01*
X95615904Y-48345457D01*
X95640736Y-48336572D01*
X95666319Y-48330164D01*
X95692408Y-48326294D01*
X95718750Y-48325000D01*
X96256250Y-48325000D01*
X96282592Y-48326294D01*
X96282592Y-48326294D01*
G37*
D11*
X95987500Y-48900000D03*
G04 #@! TD*
D10*
G04 #@! TO.C,C14*
G36*
X72032592Y-27476294D02*
X72058681Y-27480164D01*
X72084264Y-27486572D01*
X72109096Y-27495457D01*
X72132938Y-27506734D01*
X72155560Y-27520293D01*
X72176743Y-27536003D01*
X72196285Y-27553715D01*
X72213997Y-27573257D01*
X72229707Y-27594440D01*
X72243266Y-27617062D01*
X72254543Y-27640904D01*
X72263428Y-27665736D01*
X72269836Y-27691319D01*
X72273706Y-27717408D01*
X72275000Y-27743750D01*
X72275000Y-28281250D01*
X72273706Y-28307592D01*
X72269836Y-28333681D01*
X72263428Y-28359264D01*
X72254543Y-28384096D01*
X72243266Y-28407938D01*
X72229707Y-28430560D01*
X72213997Y-28451743D01*
X72196285Y-28471285D01*
X72176743Y-28488997D01*
X72155560Y-28504707D01*
X72132938Y-28518266D01*
X72109096Y-28529543D01*
X72084264Y-28538428D01*
X72058681Y-28544836D01*
X72032592Y-28548706D01*
X72006250Y-28550000D01*
X71393750Y-28550000D01*
X71367408Y-28548706D01*
X71341319Y-28544836D01*
X71315736Y-28538428D01*
X71290904Y-28529543D01*
X71267062Y-28518266D01*
X71244440Y-28504707D01*
X71223257Y-28488997D01*
X71203715Y-28471285D01*
X71186003Y-28451743D01*
X71170293Y-28430560D01*
X71156734Y-28407938D01*
X71145457Y-28384096D01*
X71136572Y-28359264D01*
X71130164Y-28333681D01*
X71126294Y-28307592D01*
X71125000Y-28281250D01*
X71125000Y-27743750D01*
X71126294Y-27717408D01*
X71130164Y-27691319D01*
X71136572Y-27665736D01*
X71145457Y-27640904D01*
X71156734Y-27617062D01*
X71170293Y-27594440D01*
X71186003Y-27573257D01*
X71203715Y-27553715D01*
X71223257Y-27536003D01*
X71244440Y-27520293D01*
X71267062Y-27506734D01*
X71290904Y-27495457D01*
X71315736Y-27486572D01*
X71341319Y-27480164D01*
X71367408Y-27476294D01*
X71393750Y-27475000D01*
X72006250Y-27475000D01*
X72032592Y-27476294D01*
X72032592Y-27476294D01*
G37*
D11*
X71700000Y-28012500D03*
D10*
G36*
X72032592Y-29051294D02*
X72058681Y-29055164D01*
X72084264Y-29061572D01*
X72109096Y-29070457D01*
X72132938Y-29081734D01*
X72155560Y-29095293D01*
X72176743Y-29111003D01*
X72196285Y-29128715D01*
X72213997Y-29148257D01*
X72229707Y-29169440D01*
X72243266Y-29192062D01*
X72254543Y-29215904D01*
X72263428Y-29240736D01*
X72269836Y-29266319D01*
X72273706Y-29292408D01*
X72275000Y-29318750D01*
X72275000Y-29856250D01*
X72273706Y-29882592D01*
X72269836Y-29908681D01*
X72263428Y-29934264D01*
X72254543Y-29959096D01*
X72243266Y-29982938D01*
X72229707Y-30005560D01*
X72213997Y-30026743D01*
X72196285Y-30046285D01*
X72176743Y-30063997D01*
X72155560Y-30079707D01*
X72132938Y-30093266D01*
X72109096Y-30104543D01*
X72084264Y-30113428D01*
X72058681Y-30119836D01*
X72032592Y-30123706D01*
X72006250Y-30125000D01*
X71393750Y-30125000D01*
X71367408Y-30123706D01*
X71341319Y-30119836D01*
X71315736Y-30113428D01*
X71290904Y-30104543D01*
X71267062Y-30093266D01*
X71244440Y-30079707D01*
X71223257Y-30063997D01*
X71203715Y-30046285D01*
X71186003Y-30026743D01*
X71170293Y-30005560D01*
X71156734Y-29982938D01*
X71145457Y-29959096D01*
X71136572Y-29934264D01*
X71130164Y-29908681D01*
X71126294Y-29882592D01*
X71125000Y-29856250D01*
X71125000Y-29318750D01*
X71126294Y-29292408D01*
X71130164Y-29266319D01*
X71136572Y-29240736D01*
X71145457Y-29215904D01*
X71156734Y-29192062D01*
X71170293Y-29169440D01*
X71186003Y-29148257D01*
X71203715Y-29128715D01*
X71223257Y-29111003D01*
X71244440Y-29095293D01*
X71267062Y-29081734D01*
X71290904Y-29070457D01*
X71315736Y-29061572D01*
X71341319Y-29055164D01*
X71367408Y-29051294D01*
X71393750Y-29050000D01*
X72006250Y-29050000D01*
X72032592Y-29051294D01*
X72032592Y-29051294D01*
G37*
D11*
X71700000Y-29587500D03*
G04 #@! TD*
D12*
G04 #@! TO.C,D30*
X21850000Y-43800000D03*
X21850000Y-47000000D03*
X16950000Y-43800000D03*
X16950000Y-47000000D03*
G04 #@! TD*
G04 #@! TO.C,D31*
X35650000Y-66100000D03*
X35650000Y-62900000D03*
X40550000Y-66100000D03*
X40550000Y-62900000D03*
G04 #@! TD*
G04 #@! TO.C,D29*
X35500000Y-29000000D03*
X35500000Y-25800000D03*
X40400000Y-29000000D03*
X40400000Y-25800000D03*
G04 #@! TD*
D10*
G04 #@! TO.C,C10*
G36*
X20482592Y-48426294D02*
X20508681Y-48430164D01*
X20534264Y-48436572D01*
X20559096Y-48445457D01*
X20582938Y-48456734D01*
X20605560Y-48470293D01*
X20626743Y-48486003D01*
X20646285Y-48503715D01*
X20663997Y-48523257D01*
X20679707Y-48544440D01*
X20693266Y-48567062D01*
X20704543Y-48590904D01*
X20713428Y-48615736D01*
X20719836Y-48641319D01*
X20723706Y-48667408D01*
X20725000Y-48693750D01*
X20725000Y-49306250D01*
X20723706Y-49332592D01*
X20719836Y-49358681D01*
X20713428Y-49384264D01*
X20704543Y-49409096D01*
X20693266Y-49432938D01*
X20679707Y-49455560D01*
X20663997Y-49476743D01*
X20646285Y-49496285D01*
X20626743Y-49513997D01*
X20605560Y-49529707D01*
X20582938Y-49543266D01*
X20559096Y-49554543D01*
X20534264Y-49563428D01*
X20508681Y-49569836D01*
X20482592Y-49573706D01*
X20456250Y-49575000D01*
X19918750Y-49575000D01*
X19892408Y-49573706D01*
X19866319Y-49569836D01*
X19840736Y-49563428D01*
X19815904Y-49554543D01*
X19792062Y-49543266D01*
X19769440Y-49529707D01*
X19748257Y-49513997D01*
X19728715Y-49496285D01*
X19711003Y-49476743D01*
X19695293Y-49455560D01*
X19681734Y-49432938D01*
X19670457Y-49409096D01*
X19661572Y-49384264D01*
X19655164Y-49358681D01*
X19651294Y-49332592D01*
X19650000Y-49306250D01*
X19650000Y-48693750D01*
X19651294Y-48667408D01*
X19655164Y-48641319D01*
X19661572Y-48615736D01*
X19670457Y-48590904D01*
X19681734Y-48567062D01*
X19695293Y-48544440D01*
X19711003Y-48523257D01*
X19728715Y-48503715D01*
X19748257Y-48486003D01*
X19769440Y-48470293D01*
X19792062Y-48456734D01*
X19815904Y-48445457D01*
X19840736Y-48436572D01*
X19866319Y-48430164D01*
X19892408Y-48426294D01*
X19918750Y-48425000D01*
X20456250Y-48425000D01*
X20482592Y-48426294D01*
X20482592Y-48426294D01*
G37*
D11*
X20187500Y-49000000D03*
D10*
G36*
X18907592Y-48426294D02*
X18933681Y-48430164D01*
X18959264Y-48436572D01*
X18984096Y-48445457D01*
X19007938Y-48456734D01*
X19030560Y-48470293D01*
X19051743Y-48486003D01*
X19071285Y-48503715D01*
X19088997Y-48523257D01*
X19104707Y-48544440D01*
X19118266Y-48567062D01*
X19129543Y-48590904D01*
X19138428Y-48615736D01*
X19144836Y-48641319D01*
X19148706Y-48667408D01*
X19150000Y-48693750D01*
X19150000Y-49306250D01*
X19148706Y-49332592D01*
X19144836Y-49358681D01*
X19138428Y-49384264D01*
X19129543Y-49409096D01*
X19118266Y-49432938D01*
X19104707Y-49455560D01*
X19088997Y-49476743D01*
X19071285Y-49496285D01*
X19051743Y-49513997D01*
X19030560Y-49529707D01*
X19007938Y-49543266D01*
X18984096Y-49554543D01*
X18959264Y-49563428D01*
X18933681Y-49569836D01*
X18907592Y-49573706D01*
X18881250Y-49575000D01*
X18343750Y-49575000D01*
X18317408Y-49573706D01*
X18291319Y-49569836D01*
X18265736Y-49563428D01*
X18240904Y-49554543D01*
X18217062Y-49543266D01*
X18194440Y-49529707D01*
X18173257Y-49513997D01*
X18153715Y-49496285D01*
X18136003Y-49476743D01*
X18120293Y-49455560D01*
X18106734Y-49432938D01*
X18095457Y-49409096D01*
X18086572Y-49384264D01*
X18080164Y-49358681D01*
X18076294Y-49332592D01*
X18075000Y-49306250D01*
X18075000Y-48693750D01*
X18076294Y-48667408D01*
X18080164Y-48641319D01*
X18086572Y-48615736D01*
X18095457Y-48590904D01*
X18106734Y-48567062D01*
X18120293Y-48544440D01*
X18136003Y-48523257D01*
X18153715Y-48503715D01*
X18173257Y-48486003D01*
X18194440Y-48470293D01*
X18217062Y-48456734D01*
X18240904Y-48445457D01*
X18265736Y-48436572D01*
X18291319Y-48430164D01*
X18317408Y-48426294D01*
X18343750Y-48425000D01*
X18881250Y-48425000D01*
X18907592Y-48426294D01*
X18907592Y-48426294D01*
G37*
D11*
X18612500Y-49000000D03*
G04 #@! TD*
D10*
G04 #@! TO.C,C9*
G36*
X38970092Y-30526294D02*
X38996181Y-30530164D01*
X39021764Y-30536572D01*
X39046596Y-30545457D01*
X39070438Y-30556734D01*
X39093060Y-30570293D01*
X39114243Y-30586003D01*
X39133785Y-30603715D01*
X39151497Y-30623257D01*
X39167207Y-30644440D01*
X39180766Y-30667062D01*
X39192043Y-30690904D01*
X39200928Y-30715736D01*
X39207336Y-30741319D01*
X39211206Y-30767408D01*
X39212500Y-30793750D01*
X39212500Y-31406250D01*
X39211206Y-31432592D01*
X39207336Y-31458681D01*
X39200928Y-31484264D01*
X39192043Y-31509096D01*
X39180766Y-31532938D01*
X39167207Y-31555560D01*
X39151497Y-31576743D01*
X39133785Y-31596285D01*
X39114243Y-31613997D01*
X39093060Y-31629707D01*
X39070438Y-31643266D01*
X39046596Y-31654543D01*
X39021764Y-31663428D01*
X38996181Y-31669836D01*
X38970092Y-31673706D01*
X38943750Y-31675000D01*
X38406250Y-31675000D01*
X38379908Y-31673706D01*
X38353819Y-31669836D01*
X38328236Y-31663428D01*
X38303404Y-31654543D01*
X38279562Y-31643266D01*
X38256940Y-31629707D01*
X38235757Y-31613997D01*
X38216215Y-31596285D01*
X38198503Y-31576743D01*
X38182793Y-31555560D01*
X38169234Y-31532938D01*
X38157957Y-31509096D01*
X38149072Y-31484264D01*
X38142664Y-31458681D01*
X38138794Y-31432592D01*
X38137500Y-31406250D01*
X38137500Y-30793750D01*
X38138794Y-30767408D01*
X38142664Y-30741319D01*
X38149072Y-30715736D01*
X38157957Y-30690904D01*
X38169234Y-30667062D01*
X38182793Y-30644440D01*
X38198503Y-30623257D01*
X38216215Y-30603715D01*
X38235757Y-30586003D01*
X38256940Y-30570293D01*
X38279562Y-30556734D01*
X38303404Y-30545457D01*
X38328236Y-30536572D01*
X38353819Y-30530164D01*
X38379908Y-30526294D01*
X38406250Y-30525000D01*
X38943750Y-30525000D01*
X38970092Y-30526294D01*
X38970092Y-30526294D01*
G37*
D11*
X38675000Y-31100000D03*
D10*
G36*
X37395092Y-30526294D02*
X37421181Y-30530164D01*
X37446764Y-30536572D01*
X37471596Y-30545457D01*
X37495438Y-30556734D01*
X37518060Y-30570293D01*
X37539243Y-30586003D01*
X37558785Y-30603715D01*
X37576497Y-30623257D01*
X37592207Y-30644440D01*
X37605766Y-30667062D01*
X37617043Y-30690904D01*
X37625928Y-30715736D01*
X37632336Y-30741319D01*
X37636206Y-30767408D01*
X37637500Y-30793750D01*
X37637500Y-31406250D01*
X37636206Y-31432592D01*
X37632336Y-31458681D01*
X37625928Y-31484264D01*
X37617043Y-31509096D01*
X37605766Y-31532938D01*
X37592207Y-31555560D01*
X37576497Y-31576743D01*
X37558785Y-31596285D01*
X37539243Y-31613997D01*
X37518060Y-31629707D01*
X37495438Y-31643266D01*
X37471596Y-31654543D01*
X37446764Y-31663428D01*
X37421181Y-31669836D01*
X37395092Y-31673706D01*
X37368750Y-31675000D01*
X36831250Y-31675000D01*
X36804908Y-31673706D01*
X36778819Y-31669836D01*
X36753236Y-31663428D01*
X36728404Y-31654543D01*
X36704562Y-31643266D01*
X36681940Y-31629707D01*
X36660757Y-31613997D01*
X36641215Y-31596285D01*
X36623503Y-31576743D01*
X36607793Y-31555560D01*
X36594234Y-31532938D01*
X36582957Y-31509096D01*
X36574072Y-31484264D01*
X36567664Y-31458681D01*
X36563794Y-31432592D01*
X36562500Y-31406250D01*
X36562500Y-30793750D01*
X36563794Y-30767408D01*
X36567664Y-30741319D01*
X36574072Y-30715736D01*
X36582957Y-30690904D01*
X36594234Y-30667062D01*
X36607793Y-30644440D01*
X36623503Y-30623257D01*
X36641215Y-30603715D01*
X36660757Y-30586003D01*
X36681940Y-30570293D01*
X36704562Y-30556734D01*
X36728404Y-30545457D01*
X36753236Y-30536572D01*
X36778819Y-30530164D01*
X36804908Y-30526294D01*
X36831250Y-30525000D01*
X37368750Y-30525000D01*
X37395092Y-30526294D01*
X37395092Y-30526294D01*
G37*
D11*
X37100000Y-31100000D03*
G04 #@! TD*
D10*
G04 #@! TO.C,C11*
G36*
X37507592Y-67526294D02*
X37533681Y-67530164D01*
X37559264Y-67536572D01*
X37584096Y-67545457D01*
X37607938Y-67556734D01*
X37630560Y-67570293D01*
X37651743Y-67586003D01*
X37671285Y-67603715D01*
X37688997Y-67623257D01*
X37704707Y-67644440D01*
X37718266Y-67667062D01*
X37729543Y-67690904D01*
X37738428Y-67715736D01*
X37744836Y-67741319D01*
X37748706Y-67767408D01*
X37750000Y-67793750D01*
X37750000Y-68406250D01*
X37748706Y-68432592D01*
X37744836Y-68458681D01*
X37738428Y-68484264D01*
X37729543Y-68509096D01*
X37718266Y-68532938D01*
X37704707Y-68555560D01*
X37688997Y-68576743D01*
X37671285Y-68596285D01*
X37651743Y-68613997D01*
X37630560Y-68629707D01*
X37607938Y-68643266D01*
X37584096Y-68654543D01*
X37559264Y-68663428D01*
X37533681Y-68669836D01*
X37507592Y-68673706D01*
X37481250Y-68675000D01*
X36943750Y-68675000D01*
X36917408Y-68673706D01*
X36891319Y-68669836D01*
X36865736Y-68663428D01*
X36840904Y-68654543D01*
X36817062Y-68643266D01*
X36794440Y-68629707D01*
X36773257Y-68613997D01*
X36753715Y-68596285D01*
X36736003Y-68576743D01*
X36720293Y-68555560D01*
X36706734Y-68532938D01*
X36695457Y-68509096D01*
X36686572Y-68484264D01*
X36680164Y-68458681D01*
X36676294Y-68432592D01*
X36675000Y-68406250D01*
X36675000Y-67793750D01*
X36676294Y-67767408D01*
X36680164Y-67741319D01*
X36686572Y-67715736D01*
X36695457Y-67690904D01*
X36706734Y-67667062D01*
X36720293Y-67644440D01*
X36736003Y-67623257D01*
X36753715Y-67603715D01*
X36773257Y-67586003D01*
X36794440Y-67570293D01*
X36817062Y-67556734D01*
X36840904Y-67545457D01*
X36865736Y-67536572D01*
X36891319Y-67530164D01*
X36917408Y-67526294D01*
X36943750Y-67525000D01*
X37481250Y-67525000D01*
X37507592Y-67526294D01*
X37507592Y-67526294D01*
G37*
D11*
X37212500Y-68100000D03*
D10*
G36*
X39082592Y-67526294D02*
X39108681Y-67530164D01*
X39134264Y-67536572D01*
X39159096Y-67545457D01*
X39182938Y-67556734D01*
X39205560Y-67570293D01*
X39226743Y-67586003D01*
X39246285Y-67603715D01*
X39263997Y-67623257D01*
X39279707Y-67644440D01*
X39293266Y-67667062D01*
X39304543Y-67690904D01*
X39313428Y-67715736D01*
X39319836Y-67741319D01*
X39323706Y-67767408D01*
X39325000Y-67793750D01*
X39325000Y-68406250D01*
X39323706Y-68432592D01*
X39319836Y-68458681D01*
X39313428Y-68484264D01*
X39304543Y-68509096D01*
X39293266Y-68532938D01*
X39279707Y-68555560D01*
X39263997Y-68576743D01*
X39246285Y-68596285D01*
X39226743Y-68613997D01*
X39205560Y-68629707D01*
X39182938Y-68643266D01*
X39159096Y-68654543D01*
X39134264Y-68663428D01*
X39108681Y-68669836D01*
X39082592Y-68673706D01*
X39056250Y-68675000D01*
X38518750Y-68675000D01*
X38492408Y-68673706D01*
X38466319Y-68669836D01*
X38440736Y-68663428D01*
X38415904Y-68654543D01*
X38392062Y-68643266D01*
X38369440Y-68629707D01*
X38348257Y-68613997D01*
X38328715Y-68596285D01*
X38311003Y-68576743D01*
X38295293Y-68555560D01*
X38281734Y-68532938D01*
X38270457Y-68509096D01*
X38261572Y-68484264D01*
X38255164Y-68458681D01*
X38251294Y-68432592D01*
X38250000Y-68406250D01*
X38250000Y-67793750D01*
X38251294Y-67767408D01*
X38255164Y-67741319D01*
X38261572Y-67715736D01*
X38270457Y-67690904D01*
X38281734Y-67667062D01*
X38295293Y-67644440D01*
X38311003Y-67623257D01*
X38328715Y-67603715D01*
X38348257Y-67586003D01*
X38369440Y-67570293D01*
X38392062Y-67556734D01*
X38415904Y-67545457D01*
X38440736Y-67536572D01*
X38466319Y-67530164D01*
X38492408Y-67526294D01*
X38518750Y-67525000D01*
X39056250Y-67525000D01*
X39082592Y-67526294D01*
X39082592Y-67526294D01*
G37*
D11*
X38787500Y-68100000D03*
G04 #@! TD*
D12*
G04 #@! TO.C,D34*
X78650000Y-62900000D03*
X78650000Y-66100000D03*
X73750000Y-62900000D03*
X73750000Y-66100000D03*
G04 #@! TD*
G04 #@! TO.C,D32*
X78750000Y-24800000D03*
X78750000Y-28000000D03*
X73850000Y-24800000D03*
X73850000Y-28000000D03*
G04 #@! TD*
G04 #@! TO.C,D33*
X97750000Y-43800000D03*
X97750000Y-47000000D03*
X92850000Y-43800000D03*
X92850000Y-47000000D03*
G04 #@! TD*
D13*
G04 #@! TO.C,FID1*
X5000000Y-46000000D03*
G04 #@! TD*
D14*
G04 #@! TO.C,SW5*
X93060000Y-19390000D03*
X79610000Y-21930000D03*
D15*
X83160000Y-21930000D03*
X89510000Y-19390000D03*
D16*
X80620000Y-16850000D03*
X90780000Y-16850000D03*
D17*
X85700000Y-16850000D03*
G04 #@! TD*
D18*
G04 #@! TO.C,D3*
X88334000Y-24788000D03*
X90234000Y-24788000D03*
X89284000Y-26788000D03*
G04 #@! TD*
D19*
G04 #@! TO.C,P4*
X98892500Y-1728000D03*
D20*
X91492500Y-6428000D03*
X98892500Y-4528000D03*
D21*
X98892500Y-13928000D03*
D16*
X95192500Y-12628000D03*
X95192500Y-5628000D03*
G04 #@! TD*
D18*
G04 #@! TO.C,D1*
X27882000Y-25042000D03*
X29782000Y-25042000D03*
X28832000Y-27042000D03*
G04 #@! TD*
D14*
G04 #@! TO.C,SW14*
X35910000Y-57490000D03*
X22460000Y-60030000D03*
D15*
X26010000Y-60030000D03*
X32360000Y-57490000D03*
D16*
X23470000Y-54950000D03*
X33630000Y-54950000D03*
D17*
X28550000Y-54950000D03*
G04 #@! TD*
D10*
G04 #@! TO.C,R5*
G36*
X52682592Y-2726294D02*
X52708681Y-2730164D01*
X52734264Y-2736572D01*
X52759096Y-2745457D01*
X52782938Y-2756734D01*
X52805560Y-2770293D01*
X52826743Y-2786003D01*
X52846285Y-2803715D01*
X52863997Y-2823257D01*
X52879707Y-2844440D01*
X52893266Y-2867062D01*
X52904543Y-2890904D01*
X52913428Y-2915736D01*
X52919836Y-2941319D01*
X52923706Y-2967408D01*
X52925000Y-2993750D01*
X52925000Y-3606250D01*
X52923706Y-3632592D01*
X52919836Y-3658681D01*
X52913428Y-3684264D01*
X52904543Y-3709096D01*
X52893266Y-3732938D01*
X52879707Y-3755560D01*
X52863997Y-3776743D01*
X52846285Y-3796285D01*
X52826743Y-3813997D01*
X52805560Y-3829707D01*
X52782938Y-3843266D01*
X52759096Y-3854543D01*
X52734264Y-3863428D01*
X52708681Y-3869836D01*
X52682592Y-3873706D01*
X52656250Y-3875000D01*
X52118750Y-3875000D01*
X52092408Y-3873706D01*
X52066319Y-3869836D01*
X52040736Y-3863428D01*
X52015904Y-3854543D01*
X51992062Y-3843266D01*
X51969440Y-3829707D01*
X51948257Y-3813997D01*
X51928715Y-3796285D01*
X51911003Y-3776743D01*
X51895293Y-3755560D01*
X51881734Y-3732938D01*
X51870457Y-3709096D01*
X51861572Y-3684264D01*
X51855164Y-3658681D01*
X51851294Y-3632592D01*
X51850000Y-3606250D01*
X51850000Y-2993750D01*
X51851294Y-2967408D01*
X51855164Y-2941319D01*
X51861572Y-2915736D01*
X51870457Y-2890904D01*
X51881734Y-2867062D01*
X51895293Y-2844440D01*
X51911003Y-2823257D01*
X51928715Y-2803715D01*
X51948257Y-2786003D01*
X51969440Y-2770293D01*
X51992062Y-2756734D01*
X52015904Y-2745457D01*
X52040736Y-2736572D01*
X52066319Y-2730164D01*
X52092408Y-2726294D01*
X52118750Y-2725000D01*
X52656250Y-2725000D01*
X52682592Y-2726294D01*
X52682592Y-2726294D01*
G37*
D11*
X52387500Y-3300000D03*
D10*
G36*
X51107592Y-2726294D02*
X51133681Y-2730164D01*
X51159264Y-2736572D01*
X51184096Y-2745457D01*
X51207938Y-2756734D01*
X51230560Y-2770293D01*
X51251743Y-2786003D01*
X51271285Y-2803715D01*
X51288997Y-2823257D01*
X51304707Y-2844440D01*
X51318266Y-2867062D01*
X51329543Y-2890904D01*
X51338428Y-2915736D01*
X51344836Y-2941319D01*
X51348706Y-2967408D01*
X51350000Y-2993750D01*
X51350000Y-3606250D01*
X51348706Y-3632592D01*
X51344836Y-3658681D01*
X51338428Y-3684264D01*
X51329543Y-3709096D01*
X51318266Y-3732938D01*
X51304707Y-3755560D01*
X51288997Y-3776743D01*
X51271285Y-3796285D01*
X51251743Y-3813997D01*
X51230560Y-3829707D01*
X51207938Y-3843266D01*
X51184096Y-3854543D01*
X51159264Y-3863428D01*
X51133681Y-3869836D01*
X51107592Y-3873706D01*
X51081250Y-3875000D01*
X50543750Y-3875000D01*
X50517408Y-3873706D01*
X50491319Y-3869836D01*
X50465736Y-3863428D01*
X50440904Y-3854543D01*
X50417062Y-3843266D01*
X50394440Y-3829707D01*
X50373257Y-3813997D01*
X50353715Y-3796285D01*
X50336003Y-3776743D01*
X50320293Y-3755560D01*
X50306734Y-3732938D01*
X50295457Y-3709096D01*
X50286572Y-3684264D01*
X50280164Y-3658681D01*
X50276294Y-3632592D01*
X50275000Y-3606250D01*
X50275000Y-2993750D01*
X50276294Y-2967408D01*
X50280164Y-2941319D01*
X50286572Y-2915736D01*
X50295457Y-2890904D01*
X50306734Y-2867062D01*
X50320293Y-2844440D01*
X50336003Y-2823257D01*
X50353715Y-2803715D01*
X50373257Y-2786003D01*
X50394440Y-2770293D01*
X50417062Y-2756734D01*
X50440904Y-2745457D01*
X50465736Y-2736572D01*
X50491319Y-2730164D01*
X50517408Y-2726294D01*
X50543750Y-2725000D01*
X51081250Y-2725000D01*
X51107592Y-2726294D01*
X51107592Y-2726294D01*
G37*
D11*
X50812500Y-3300000D03*
G04 #@! TD*
D14*
G04 #@! TO.C,SW2*
X35910000Y-19390000D03*
X22460000Y-21930000D03*
D15*
X26010000Y-21930000D03*
X32360000Y-19390000D03*
D16*
X23470000Y-16850000D03*
X33630000Y-16850000D03*
D17*
X28550000Y-16850000D03*
G04 #@! TD*
D10*
G04 #@! TO.C,R1*
G36*
X75279092Y-34867294D02*
X75305181Y-34871164D01*
X75330764Y-34877572D01*
X75355596Y-34886457D01*
X75379438Y-34897734D01*
X75402060Y-34911293D01*
X75423243Y-34927003D01*
X75442785Y-34944715D01*
X75460497Y-34964257D01*
X75476207Y-34985440D01*
X75489766Y-35008062D01*
X75501043Y-35031904D01*
X75509928Y-35056736D01*
X75516336Y-35082319D01*
X75520206Y-35108408D01*
X75521500Y-35134750D01*
X75521500Y-35672250D01*
X75520206Y-35698592D01*
X75516336Y-35724681D01*
X75509928Y-35750264D01*
X75501043Y-35775096D01*
X75489766Y-35798938D01*
X75476207Y-35821560D01*
X75460497Y-35842743D01*
X75442785Y-35862285D01*
X75423243Y-35879997D01*
X75402060Y-35895707D01*
X75379438Y-35909266D01*
X75355596Y-35920543D01*
X75330764Y-35929428D01*
X75305181Y-35935836D01*
X75279092Y-35939706D01*
X75252750Y-35941000D01*
X74640250Y-35941000D01*
X74613908Y-35939706D01*
X74587819Y-35935836D01*
X74562236Y-35929428D01*
X74537404Y-35920543D01*
X74513562Y-35909266D01*
X74490940Y-35895707D01*
X74469757Y-35879997D01*
X74450215Y-35862285D01*
X74432503Y-35842743D01*
X74416793Y-35821560D01*
X74403234Y-35798938D01*
X74391957Y-35775096D01*
X74383072Y-35750264D01*
X74376664Y-35724681D01*
X74372794Y-35698592D01*
X74371500Y-35672250D01*
X74371500Y-35134750D01*
X74372794Y-35108408D01*
X74376664Y-35082319D01*
X74383072Y-35056736D01*
X74391957Y-35031904D01*
X74403234Y-35008062D01*
X74416793Y-34985440D01*
X74432503Y-34964257D01*
X74450215Y-34944715D01*
X74469757Y-34927003D01*
X74490940Y-34911293D01*
X74513562Y-34897734D01*
X74537404Y-34886457D01*
X74562236Y-34877572D01*
X74587819Y-34871164D01*
X74613908Y-34867294D01*
X74640250Y-34866000D01*
X75252750Y-34866000D01*
X75279092Y-34867294D01*
X75279092Y-34867294D01*
G37*
D11*
X74946500Y-35403500D03*
D10*
G36*
X75279092Y-33292294D02*
X75305181Y-33296164D01*
X75330764Y-33302572D01*
X75355596Y-33311457D01*
X75379438Y-33322734D01*
X75402060Y-33336293D01*
X75423243Y-33352003D01*
X75442785Y-33369715D01*
X75460497Y-33389257D01*
X75476207Y-33410440D01*
X75489766Y-33433062D01*
X75501043Y-33456904D01*
X75509928Y-33481736D01*
X75516336Y-33507319D01*
X75520206Y-33533408D01*
X75521500Y-33559750D01*
X75521500Y-34097250D01*
X75520206Y-34123592D01*
X75516336Y-34149681D01*
X75509928Y-34175264D01*
X75501043Y-34200096D01*
X75489766Y-34223938D01*
X75476207Y-34246560D01*
X75460497Y-34267743D01*
X75442785Y-34287285D01*
X75423243Y-34304997D01*
X75402060Y-34320707D01*
X75379438Y-34334266D01*
X75355596Y-34345543D01*
X75330764Y-34354428D01*
X75305181Y-34360836D01*
X75279092Y-34364706D01*
X75252750Y-34366000D01*
X74640250Y-34366000D01*
X74613908Y-34364706D01*
X74587819Y-34360836D01*
X74562236Y-34354428D01*
X74537404Y-34345543D01*
X74513562Y-34334266D01*
X74490940Y-34320707D01*
X74469757Y-34304997D01*
X74450215Y-34287285D01*
X74432503Y-34267743D01*
X74416793Y-34246560D01*
X74403234Y-34223938D01*
X74391957Y-34200096D01*
X74383072Y-34175264D01*
X74376664Y-34149681D01*
X74372794Y-34123592D01*
X74371500Y-34097250D01*
X74371500Y-33559750D01*
X74372794Y-33533408D01*
X74376664Y-33507319D01*
X74383072Y-33481736D01*
X74391957Y-33456904D01*
X74403234Y-33433062D01*
X74416793Y-33410440D01*
X74432503Y-33389257D01*
X74450215Y-33369715D01*
X74469757Y-33352003D01*
X74490940Y-33336293D01*
X74513562Y-33322734D01*
X74537404Y-33311457D01*
X74562236Y-33302572D01*
X74587819Y-33296164D01*
X74613908Y-33292294D01*
X74640250Y-33291000D01*
X75252750Y-33291000D01*
X75279092Y-33292294D01*
X75279092Y-33292294D01*
G37*
D11*
X74946500Y-33828500D03*
G04 #@! TD*
D18*
G04 #@! TO.C,D5*
X57407000Y-45838000D03*
X58357000Y-43838000D03*
X56457000Y-43838000D03*
G04 #@! TD*
G04 #@! TO.C,D9*
X89538000Y-65142000D03*
X90488000Y-63142000D03*
X88588000Y-63142000D03*
G04 #@! TD*
D22*
G04 #@! TO.C,REF\002A\002A*
X95000000Y-27000000D03*
G04 #@! TD*
D18*
G04 #@! TO.C,D4*
X26100000Y-45838000D03*
X27050000Y-43838000D03*
X25150000Y-43838000D03*
G04 #@! TD*
G04 #@! TO.C,D11*
X57153000Y-77207000D03*
X58103000Y-75207000D03*
X56203000Y-75207000D03*
G04 #@! TD*
D23*
G04 #@! TO.C,U1*
X54568158Y-7825280D03*
X55068538Y-7825280D03*
X55568918Y-7825280D03*
X56069298Y-7825280D03*
X56569678Y-7825280D03*
X57067518Y-7825280D03*
X57565358Y-7825280D03*
X58065738Y-7825280D03*
X58566118Y-7825280D03*
X59066498Y-7825280D03*
X59566878Y-7825280D03*
D24*
X60415238Y-8673640D03*
X60415238Y-9174020D03*
X60415238Y-9674400D03*
X60415238Y-10174780D03*
X60415238Y-10675160D03*
X60415238Y-11173000D03*
X60415238Y-11670840D03*
X60415238Y-12171220D03*
X60415238Y-12671600D03*
X60415238Y-13171980D03*
X60415238Y-13672360D03*
D23*
X59566878Y-14520720D03*
X59066498Y-14520720D03*
X58566118Y-14520720D03*
X58065738Y-14520720D03*
X57565358Y-14520720D03*
X57067518Y-14520720D03*
X56569678Y-14520720D03*
X56069298Y-14520720D03*
X55568918Y-14520720D03*
X55068538Y-14520720D03*
X54568158Y-14520720D03*
D24*
X53719798Y-13672360D03*
X53719798Y-13171980D03*
X53719798Y-12671600D03*
X53719798Y-12171220D03*
X53719798Y-11670840D03*
X53719798Y-11173000D03*
X53719798Y-10675160D03*
X53719798Y-10174780D03*
X53719798Y-9674400D03*
X53719798Y-9174020D03*
X53719798Y-8673640D03*
D25*
X57067518Y-11173000D03*
G04 #@! TD*
D14*
G04 #@! TO.C,SW22*
X59290000Y-71460000D03*
X72740000Y-68920000D03*
D15*
X69190000Y-68920000D03*
X62840000Y-71460000D03*
D16*
X71730000Y-74000000D03*
X61570000Y-74000000D03*
D17*
X66650000Y-74000000D03*
G04 #@! TD*
D10*
G04 #@! TO.C,R3*
G36*
X58016592Y-20451294D02*
X58042681Y-20455164D01*
X58068264Y-20461572D01*
X58093096Y-20470457D01*
X58116938Y-20481734D01*
X58139560Y-20495293D01*
X58160743Y-20511003D01*
X58180285Y-20528715D01*
X58197997Y-20548257D01*
X58213707Y-20569440D01*
X58227266Y-20592062D01*
X58238543Y-20615904D01*
X58247428Y-20640736D01*
X58253836Y-20666319D01*
X58257706Y-20692408D01*
X58259000Y-20718750D01*
X58259000Y-21256250D01*
X58257706Y-21282592D01*
X58253836Y-21308681D01*
X58247428Y-21334264D01*
X58238543Y-21359096D01*
X58227266Y-21382938D01*
X58213707Y-21405560D01*
X58197997Y-21426743D01*
X58180285Y-21446285D01*
X58160743Y-21463997D01*
X58139560Y-21479707D01*
X58116938Y-21493266D01*
X58093096Y-21504543D01*
X58068264Y-21513428D01*
X58042681Y-21519836D01*
X58016592Y-21523706D01*
X57990250Y-21525000D01*
X57377750Y-21525000D01*
X57351408Y-21523706D01*
X57325319Y-21519836D01*
X57299736Y-21513428D01*
X57274904Y-21504543D01*
X57251062Y-21493266D01*
X57228440Y-21479707D01*
X57207257Y-21463997D01*
X57187715Y-21446285D01*
X57170003Y-21426743D01*
X57154293Y-21405560D01*
X57140734Y-21382938D01*
X57129457Y-21359096D01*
X57120572Y-21334264D01*
X57114164Y-21308681D01*
X57110294Y-21282592D01*
X57109000Y-21256250D01*
X57109000Y-20718750D01*
X57110294Y-20692408D01*
X57114164Y-20666319D01*
X57120572Y-20640736D01*
X57129457Y-20615904D01*
X57140734Y-20592062D01*
X57154293Y-20569440D01*
X57170003Y-20548257D01*
X57187715Y-20528715D01*
X57207257Y-20511003D01*
X57228440Y-20495293D01*
X57251062Y-20481734D01*
X57274904Y-20470457D01*
X57299736Y-20461572D01*
X57325319Y-20455164D01*
X57351408Y-20451294D01*
X57377750Y-20450000D01*
X57990250Y-20450000D01*
X58016592Y-20451294D01*
X58016592Y-20451294D01*
G37*
D11*
X57684000Y-20987500D03*
D10*
G36*
X58016592Y-18876294D02*
X58042681Y-18880164D01*
X58068264Y-18886572D01*
X58093096Y-18895457D01*
X58116938Y-18906734D01*
X58139560Y-18920293D01*
X58160743Y-18936003D01*
X58180285Y-18953715D01*
X58197997Y-18973257D01*
X58213707Y-18994440D01*
X58227266Y-19017062D01*
X58238543Y-19040904D01*
X58247428Y-19065736D01*
X58253836Y-19091319D01*
X58257706Y-19117408D01*
X58259000Y-19143750D01*
X58259000Y-19681250D01*
X58257706Y-19707592D01*
X58253836Y-19733681D01*
X58247428Y-19759264D01*
X58238543Y-19784096D01*
X58227266Y-19807938D01*
X58213707Y-19830560D01*
X58197997Y-19851743D01*
X58180285Y-19871285D01*
X58160743Y-19888997D01*
X58139560Y-19904707D01*
X58116938Y-19918266D01*
X58093096Y-19929543D01*
X58068264Y-19938428D01*
X58042681Y-19944836D01*
X58016592Y-19948706D01*
X57990250Y-19950000D01*
X57377750Y-19950000D01*
X57351408Y-19948706D01*
X57325319Y-19944836D01*
X57299736Y-19938428D01*
X57274904Y-19929543D01*
X57251062Y-19918266D01*
X57228440Y-19904707D01*
X57207257Y-19888997D01*
X57187715Y-19871285D01*
X57170003Y-19851743D01*
X57154293Y-19830560D01*
X57140734Y-19807938D01*
X57129457Y-19784096D01*
X57120572Y-19759264D01*
X57114164Y-19733681D01*
X57110294Y-19707592D01*
X57109000Y-19681250D01*
X57109000Y-19143750D01*
X57110294Y-19117408D01*
X57114164Y-19091319D01*
X57120572Y-19065736D01*
X57129457Y-19040904D01*
X57140734Y-19017062D01*
X57154293Y-18994440D01*
X57170003Y-18973257D01*
X57187715Y-18953715D01*
X57207257Y-18936003D01*
X57228440Y-18920293D01*
X57251062Y-18906734D01*
X57274904Y-18895457D01*
X57299736Y-18886572D01*
X57325319Y-18880164D01*
X57351408Y-18876294D01*
X57377750Y-18875000D01*
X57990250Y-18875000D01*
X58016592Y-18876294D01*
X58016592Y-18876294D01*
G37*
D11*
X57684000Y-19412500D03*
G04 #@! TD*
D14*
G04 #@! TO.C,SW17*
X93060000Y-57490000D03*
X79610000Y-60030000D03*
D15*
X83160000Y-60030000D03*
X89510000Y-57490000D03*
D16*
X80620000Y-54950000D03*
X90780000Y-54950000D03*
D17*
X85700000Y-54950000D03*
G04 #@! TD*
D14*
G04 #@! TO.C,SW20*
X21190000Y-71460000D03*
X34640000Y-68920000D03*
D15*
X31090000Y-68920000D03*
X24740000Y-71460000D03*
D16*
X33630000Y-74000000D03*
X23470000Y-74000000D03*
D17*
X28550000Y-74000000D03*
G04 #@! TD*
D13*
G04 #@! TO.C,FID6*
X3500000Y-12750000D03*
G04 #@! TD*
D22*
G04 #@! TO.C,REF\002A\002A*
X19000000Y-64500000D03*
G04 #@! TD*
D10*
G04 #@! TO.C,R13*
G36*
X51032592Y-14476294D02*
X51058681Y-14480164D01*
X51084264Y-14486572D01*
X51109096Y-14495457D01*
X51132938Y-14506734D01*
X51155560Y-14520293D01*
X51176743Y-14536003D01*
X51196285Y-14553715D01*
X51213997Y-14573257D01*
X51229707Y-14594440D01*
X51243266Y-14617062D01*
X51254543Y-14640904D01*
X51263428Y-14665736D01*
X51269836Y-14691319D01*
X51273706Y-14717408D01*
X51275000Y-14743750D01*
X51275000Y-15281250D01*
X51273706Y-15307592D01*
X51269836Y-15333681D01*
X51263428Y-15359264D01*
X51254543Y-15384096D01*
X51243266Y-15407938D01*
X51229707Y-15430560D01*
X51213997Y-15451743D01*
X51196285Y-15471285D01*
X51176743Y-15488997D01*
X51155560Y-15504707D01*
X51132938Y-15518266D01*
X51109096Y-15529543D01*
X51084264Y-15538428D01*
X51058681Y-15544836D01*
X51032592Y-15548706D01*
X51006250Y-15550000D01*
X50393750Y-15550000D01*
X50367408Y-15548706D01*
X50341319Y-15544836D01*
X50315736Y-15538428D01*
X50290904Y-15529543D01*
X50267062Y-15518266D01*
X50244440Y-15504707D01*
X50223257Y-15488997D01*
X50203715Y-15471285D01*
X50186003Y-15451743D01*
X50170293Y-15430560D01*
X50156734Y-15407938D01*
X50145457Y-15384096D01*
X50136572Y-15359264D01*
X50130164Y-15333681D01*
X50126294Y-15307592D01*
X50125000Y-15281250D01*
X50125000Y-14743750D01*
X50126294Y-14717408D01*
X50130164Y-14691319D01*
X50136572Y-14665736D01*
X50145457Y-14640904D01*
X50156734Y-14617062D01*
X50170293Y-14594440D01*
X50186003Y-14573257D01*
X50203715Y-14553715D01*
X50223257Y-14536003D01*
X50244440Y-14520293D01*
X50267062Y-14506734D01*
X50290904Y-14495457D01*
X50315736Y-14486572D01*
X50341319Y-14480164D01*
X50367408Y-14476294D01*
X50393750Y-14475000D01*
X51006250Y-14475000D01*
X51032592Y-14476294D01*
X51032592Y-14476294D01*
G37*
D11*
X50700000Y-15012500D03*
D10*
G36*
X51032592Y-16051294D02*
X51058681Y-16055164D01*
X51084264Y-16061572D01*
X51109096Y-16070457D01*
X51132938Y-16081734D01*
X51155560Y-16095293D01*
X51176743Y-16111003D01*
X51196285Y-16128715D01*
X51213997Y-16148257D01*
X51229707Y-16169440D01*
X51243266Y-16192062D01*
X51254543Y-16215904D01*
X51263428Y-16240736D01*
X51269836Y-16266319D01*
X51273706Y-16292408D01*
X51275000Y-16318750D01*
X51275000Y-16856250D01*
X51273706Y-16882592D01*
X51269836Y-16908681D01*
X51263428Y-16934264D01*
X51254543Y-16959096D01*
X51243266Y-16982938D01*
X51229707Y-17005560D01*
X51213997Y-17026743D01*
X51196285Y-17046285D01*
X51176743Y-17063997D01*
X51155560Y-17079707D01*
X51132938Y-17093266D01*
X51109096Y-17104543D01*
X51084264Y-17113428D01*
X51058681Y-17119836D01*
X51032592Y-17123706D01*
X51006250Y-17125000D01*
X50393750Y-17125000D01*
X50367408Y-17123706D01*
X50341319Y-17119836D01*
X50315736Y-17113428D01*
X50290904Y-17104543D01*
X50267062Y-17093266D01*
X50244440Y-17079707D01*
X50223257Y-17063997D01*
X50203715Y-17046285D01*
X50186003Y-17026743D01*
X50170293Y-17005560D01*
X50156734Y-16982938D01*
X50145457Y-16959096D01*
X50136572Y-16934264D01*
X50130164Y-16908681D01*
X50126294Y-16882592D01*
X50125000Y-16856250D01*
X50125000Y-16318750D01*
X50126294Y-16292408D01*
X50130164Y-16266319D01*
X50136572Y-16240736D01*
X50145457Y-16215904D01*
X50156734Y-16192062D01*
X50170293Y-16169440D01*
X50186003Y-16148257D01*
X50203715Y-16128715D01*
X50223257Y-16111003D01*
X50244440Y-16095293D01*
X50267062Y-16081734D01*
X50290904Y-16070457D01*
X50315736Y-16061572D01*
X50341319Y-16055164D01*
X50367408Y-16051294D01*
X50393750Y-16050000D01*
X51006250Y-16050000D01*
X51032592Y-16051294D01*
X51032592Y-16051294D01*
G37*
D11*
X50700000Y-16587500D03*
G04 #@! TD*
D18*
G04 #@! TO.C,D7*
X27181000Y-65015000D03*
X28131000Y-63015000D03*
X26231000Y-63015000D03*
G04 #@! TD*
D14*
G04 #@! TO.C,SW19*
X2140000Y-71460000D03*
X15590000Y-68920000D03*
D15*
X12040000Y-68920000D03*
X5690000Y-71460000D03*
D16*
X14580000Y-74000000D03*
X4420000Y-74000000D03*
D17*
X9500000Y-74000000D03*
G04 #@! TD*
D14*
G04 #@! TO.C,SW3*
X54960000Y-19390000D03*
X41510000Y-21930000D03*
D15*
X45060000Y-21930000D03*
X51410000Y-19390000D03*
D16*
X42520000Y-16850000D03*
X52680000Y-16850000D03*
D17*
X47600000Y-16850000D03*
G04 #@! TD*
D14*
G04 #@! TO.C,SW12*
X112110000Y-38440000D03*
X98660000Y-40980000D03*
D15*
X102210000Y-40980000D03*
X108560000Y-38440000D03*
D16*
X99670000Y-35900000D03*
X109830000Y-35900000D03*
D17*
X104750000Y-35900000D03*
G04 #@! TD*
D14*
G04 #@! TO.C,SW21*
X40240000Y-71460000D03*
X53690000Y-68920000D03*
D15*
X50140000Y-68920000D03*
X43790000Y-71460000D03*
D16*
X52680000Y-74000000D03*
X42520000Y-74000000D03*
D17*
X47600000Y-74000000D03*
G04 #@! TD*
D14*
G04 #@! TO.C,SW16*
X74010000Y-57490000D03*
X60560000Y-60030000D03*
D15*
X64110000Y-60030000D03*
X70460000Y-57490000D03*
D16*
X61570000Y-54950000D03*
X71730000Y-54950000D03*
D17*
X66650000Y-54950000D03*
G04 #@! TD*
D14*
G04 #@! TO.C,SW9*
X54960000Y-38440000D03*
X41510000Y-40980000D03*
D15*
X45060000Y-40980000D03*
X51410000Y-38440000D03*
D16*
X42520000Y-35900000D03*
X52680000Y-35900000D03*
D17*
X47600000Y-35900000D03*
G04 #@! TD*
D26*
G04 #@! TO.C,P3*
X6960000Y-12658000D03*
X9500000Y-12658000D03*
X12040000Y-12658000D03*
G04 #@! TD*
D18*
G04 #@! TO.C,D10*
X18103000Y-75207000D03*
X20003000Y-75207000D03*
X19053000Y-77207000D03*
G04 #@! TD*
D22*
G04 #@! TO.C,REF\002A\002A*
X95000000Y-64500000D03*
G04 #@! TD*
D18*
G04 #@! TO.C,D12*
X76076000Y-77207000D03*
X77026000Y-75207000D03*
X75126000Y-75207000D03*
G04 #@! TD*
D12*
G04 #@! TO.C,JP1*
X74946500Y-32333000D03*
X74946500Y-31063000D03*
G04 #@! TD*
D27*
G04 #@! TO.C,J3*
X75615000Y-14770000D03*
X76885000Y-14770000D03*
X75615000Y-13500000D03*
X76885000Y-13500000D03*
X75615000Y-12230000D03*
X76885000Y-12230000D03*
D28*
X76250000Y-10960000D03*
X77266000Y-16040000D03*
X75234000Y-16040000D03*
G04 #@! TD*
D13*
G04 #@! TO.C,FID2*
X109250000Y-26500000D03*
G04 #@! TD*
D10*
G04 #@! TO.C,R4*
G36*
X52682592Y-4226294D02*
X52708681Y-4230164D01*
X52734264Y-4236572D01*
X52759096Y-4245457D01*
X52782938Y-4256734D01*
X52805560Y-4270293D01*
X52826743Y-4286003D01*
X52846285Y-4303715D01*
X52863997Y-4323257D01*
X52879707Y-4344440D01*
X52893266Y-4367062D01*
X52904543Y-4390904D01*
X52913428Y-4415736D01*
X52919836Y-4441319D01*
X52923706Y-4467408D01*
X52925000Y-4493750D01*
X52925000Y-5106250D01*
X52923706Y-5132592D01*
X52919836Y-5158681D01*
X52913428Y-5184264D01*
X52904543Y-5209096D01*
X52893266Y-5232938D01*
X52879707Y-5255560D01*
X52863997Y-5276743D01*
X52846285Y-5296285D01*
X52826743Y-5313997D01*
X52805560Y-5329707D01*
X52782938Y-5343266D01*
X52759096Y-5354543D01*
X52734264Y-5363428D01*
X52708681Y-5369836D01*
X52682592Y-5373706D01*
X52656250Y-5375000D01*
X52118750Y-5375000D01*
X52092408Y-5373706D01*
X52066319Y-5369836D01*
X52040736Y-5363428D01*
X52015904Y-5354543D01*
X51992062Y-5343266D01*
X51969440Y-5329707D01*
X51948257Y-5313997D01*
X51928715Y-5296285D01*
X51911003Y-5276743D01*
X51895293Y-5255560D01*
X51881734Y-5232938D01*
X51870457Y-5209096D01*
X51861572Y-5184264D01*
X51855164Y-5158681D01*
X51851294Y-5132592D01*
X51850000Y-5106250D01*
X51850000Y-4493750D01*
X51851294Y-4467408D01*
X51855164Y-4441319D01*
X51861572Y-4415736D01*
X51870457Y-4390904D01*
X51881734Y-4367062D01*
X51895293Y-4344440D01*
X51911003Y-4323257D01*
X51928715Y-4303715D01*
X51948257Y-4286003D01*
X51969440Y-4270293D01*
X51992062Y-4256734D01*
X52015904Y-4245457D01*
X52040736Y-4236572D01*
X52066319Y-4230164D01*
X52092408Y-4226294D01*
X52118750Y-4225000D01*
X52656250Y-4225000D01*
X52682592Y-4226294D01*
X52682592Y-4226294D01*
G37*
D11*
X52387500Y-4800000D03*
D10*
G36*
X51107592Y-4226294D02*
X51133681Y-4230164D01*
X51159264Y-4236572D01*
X51184096Y-4245457D01*
X51207938Y-4256734D01*
X51230560Y-4270293D01*
X51251743Y-4286003D01*
X51271285Y-4303715D01*
X51288997Y-4323257D01*
X51304707Y-4344440D01*
X51318266Y-4367062D01*
X51329543Y-4390904D01*
X51338428Y-4415736D01*
X51344836Y-4441319D01*
X51348706Y-4467408D01*
X51350000Y-4493750D01*
X51350000Y-5106250D01*
X51348706Y-5132592D01*
X51344836Y-5158681D01*
X51338428Y-5184264D01*
X51329543Y-5209096D01*
X51318266Y-5232938D01*
X51304707Y-5255560D01*
X51288997Y-5276743D01*
X51271285Y-5296285D01*
X51251743Y-5313997D01*
X51230560Y-5329707D01*
X51207938Y-5343266D01*
X51184096Y-5354543D01*
X51159264Y-5363428D01*
X51133681Y-5369836D01*
X51107592Y-5373706D01*
X51081250Y-5375000D01*
X50543750Y-5375000D01*
X50517408Y-5373706D01*
X50491319Y-5369836D01*
X50465736Y-5363428D01*
X50440904Y-5354543D01*
X50417062Y-5343266D01*
X50394440Y-5329707D01*
X50373257Y-5313997D01*
X50353715Y-5296285D01*
X50336003Y-5276743D01*
X50320293Y-5255560D01*
X50306734Y-5232938D01*
X50295457Y-5209096D01*
X50286572Y-5184264D01*
X50280164Y-5158681D01*
X50276294Y-5132592D01*
X50275000Y-5106250D01*
X50275000Y-4493750D01*
X50276294Y-4467408D01*
X50280164Y-4441319D01*
X50286572Y-4415736D01*
X50295457Y-4390904D01*
X50306734Y-4367062D01*
X50320293Y-4344440D01*
X50336003Y-4323257D01*
X50353715Y-4303715D01*
X50373257Y-4286003D01*
X50394440Y-4270293D01*
X50417062Y-4256734D01*
X50440904Y-4245457D01*
X50465736Y-4236572D01*
X50491319Y-4230164D01*
X50517408Y-4226294D01*
X50543750Y-4225000D01*
X51081250Y-4225000D01*
X51107592Y-4226294D01*
X51107592Y-4226294D01*
G37*
D11*
X50812500Y-4800000D03*
G04 #@! TD*
D18*
G04 #@! TO.C,D6*
X88450000Y-43838000D03*
X90350000Y-43838000D03*
X89400000Y-45838000D03*
G04 #@! TD*
D10*
G04 #@! TO.C,R2*
G36*
X77692092Y-34867294D02*
X77718181Y-34871164D01*
X77743764Y-34877572D01*
X77768596Y-34886457D01*
X77792438Y-34897734D01*
X77815060Y-34911293D01*
X77836243Y-34927003D01*
X77855785Y-34944715D01*
X77873497Y-34964257D01*
X77889207Y-34985440D01*
X77902766Y-35008062D01*
X77914043Y-35031904D01*
X77922928Y-35056736D01*
X77929336Y-35082319D01*
X77933206Y-35108408D01*
X77934500Y-35134750D01*
X77934500Y-35672250D01*
X77933206Y-35698592D01*
X77929336Y-35724681D01*
X77922928Y-35750264D01*
X77914043Y-35775096D01*
X77902766Y-35798938D01*
X77889207Y-35821560D01*
X77873497Y-35842743D01*
X77855785Y-35862285D01*
X77836243Y-35879997D01*
X77815060Y-35895707D01*
X77792438Y-35909266D01*
X77768596Y-35920543D01*
X77743764Y-35929428D01*
X77718181Y-35935836D01*
X77692092Y-35939706D01*
X77665750Y-35941000D01*
X77053250Y-35941000D01*
X77026908Y-35939706D01*
X77000819Y-35935836D01*
X76975236Y-35929428D01*
X76950404Y-35920543D01*
X76926562Y-35909266D01*
X76903940Y-35895707D01*
X76882757Y-35879997D01*
X76863215Y-35862285D01*
X76845503Y-35842743D01*
X76829793Y-35821560D01*
X76816234Y-35798938D01*
X76804957Y-35775096D01*
X76796072Y-35750264D01*
X76789664Y-35724681D01*
X76785794Y-35698592D01*
X76784500Y-35672250D01*
X76784500Y-35134750D01*
X76785794Y-35108408D01*
X76789664Y-35082319D01*
X76796072Y-35056736D01*
X76804957Y-35031904D01*
X76816234Y-35008062D01*
X76829793Y-34985440D01*
X76845503Y-34964257D01*
X76863215Y-34944715D01*
X76882757Y-34927003D01*
X76903940Y-34911293D01*
X76926562Y-34897734D01*
X76950404Y-34886457D01*
X76975236Y-34877572D01*
X77000819Y-34871164D01*
X77026908Y-34867294D01*
X77053250Y-34866000D01*
X77665750Y-34866000D01*
X77692092Y-34867294D01*
X77692092Y-34867294D01*
G37*
D11*
X77359500Y-35403500D03*
D10*
G36*
X77692092Y-33292294D02*
X77718181Y-33296164D01*
X77743764Y-33302572D01*
X77768596Y-33311457D01*
X77792438Y-33322734D01*
X77815060Y-33336293D01*
X77836243Y-33352003D01*
X77855785Y-33369715D01*
X77873497Y-33389257D01*
X77889207Y-33410440D01*
X77902766Y-33433062D01*
X77914043Y-33456904D01*
X77922928Y-33481736D01*
X77929336Y-33507319D01*
X77933206Y-33533408D01*
X77934500Y-33559750D01*
X77934500Y-34097250D01*
X77933206Y-34123592D01*
X77929336Y-34149681D01*
X77922928Y-34175264D01*
X77914043Y-34200096D01*
X77902766Y-34223938D01*
X77889207Y-34246560D01*
X77873497Y-34267743D01*
X77855785Y-34287285D01*
X77836243Y-34304997D01*
X77815060Y-34320707D01*
X77792438Y-34334266D01*
X77768596Y-34345543D01*
X77743764Y-34354428D01*
X77718181Y-34360836D01*
X77692092Y-34364706D01*
X77665750Y-34366000D01*
X77053250Y-34366000D01*
X77026908Y-34364706D01*
X77000819Y-34360836D01*
X76975236Y-34354428D01*
X76950404Y-34345543D01*
X76926562Y-34334266D01*
X76903940Y-34320707D01*
X76882757Y-34304997D01*
X76863215Y-34287285D01*
X76845503Y-34267743D01*
X76829793Y-34246560D01*
X76816234Y-34223938D01*
X76804957Y-34200096D01*
X76796072Y-34175264D01*
X76789664Y-34149681D01*
X76785794Y-34123592D01*
X76784500Y-34097250D01*
X76784500Y-33559750D01*
X76785794Y-33533408D01*
X76789664Y-33507319D01*
X76796072Y-33481736D01*
X76804957Y-33456904D01*
X76816234Y-33433062D01*
X76829793Y-33410440D01*
X76845503Y-33389257D01*
X76863215Y-33369715D01*
X76882757Y-33352003D01*
X76903940Y-33336293D01*
X76926562Y-33322734D01*
X76950404Y-33311457D01*
X76975236Y-33302572D01*
X77000819Y-33296164D01*
X77026908Y-33292294D01*
X77053250Y-33291000D01*
X77665750Y-33291000D01*
X77692092Y-33292294D01*
X77692092Y-33292294D01*
G37*
D11*
X77359500Y-33828500D03*
G04 #@! TD*
D29*
G04 #@! TO.C,J1*
X57176000Y-26296000D03*
D30*
X57176000Y-32896000D03*
G04 #@! TD*
D10*
G04 #@! TO.C,R11*
G36*
X50582592Y-13026294D02*
X50608681Y-13030164D01*
X50634264Y-13036572D01*
X50659096Y-13045457D01*
X50682938Y-13056734D01*
X50705560Y-13070293D01*
X50726743Y-13086003D01*
X50746285Y-13103715D01*
X50763997Y-13123257D01*
X50779707Y-13144440D01*
X50793266Y-13167062D01*
X50804543Y-13190904D01*
X50813428Y-13215736D01*
X50819836Y-13241319D01*
X50823706Y-13267408D01*
X50825000Y-13293750D01*
X50825000Y-13906250D01*
X50823706Y-13932592D01*
X50819836Y-13958681D01*
X50813428Y-13984264D01*
X50804543Y-14009096D01*
X50793266Y-14032938D01*
X50779707Y-14055560D01*
X50763997Y-14076743D01*
X50746285Y-14096285D01*
X50726743Y-14113997D01*
X50705560Y-14129707D01*
X50682938Y-14143266D01*
X50659096Y-14154543D01*
X50634264Y-14163428D01*
X50608681Y-14169836D01*
X50582592Y-14173706D01*
X50556250Y-14175000D01*
X50018750Y-14175000D01*
X49992408Y-14173706D01*
X49966319Y-14169836D01*
X49940736Y-14163428D01*
X49915904Y-14154543D01*
X49892062Y-14143266D01*
X49869440Y-14129707D01*
X49848257Y-14113997D01*
X49828715Y-14096285D01*
X49811003Y-14076743D01*
X49795293Y-14055560D01*
X49781734Y-14032938D01*
X49770457Y-14009096D01*
X49761572Y-13984264D01*
X49755164Y-13958681D01*
X49751294Y-13932592D01*
X49750000Y-13906250D01*
X49750000Y-13293750D01*
X49751294Y-13267408D01*
X49755164Y-13241319D01*
X49761572Y-13215736D01*
X49770457Y-13190904D01*
X49781734Y-13167062D01*
X49795293Y-13144440D01*
X49811003Y-13123257D01*
X49828715Y-13103715D01*
X49848257Y-13086003D01*
X49869440Y-13070293D01*
X49892062Y-13056734D01*
X49915904Y-13045457D01*
X49940736Y-13036572D01*
X49966319Y-13030164D01*
X49992408Y-13026294D01*
X50018750Y-13025000D01*
X50556250Y-13025000D01*
X50582592Y-13026294D01*
X50582592Y-13026294D01*
G37*
D11*
X50287500Y-13600000D03*
D10*
G36*
X49007592Y-13026294D02*
X49033681Y-13030164D01*
X49059264Y-13036572D01*
X49084096Y-13045457D01*
X49107938Y-13056734D01*
X49130560Y-13070293D01*
X49151743Y-13086003D01*
X49171285Y-13103715D01*
X49188997Y-13123257D01*
X49204707Y-13144440D01*
X49218266Y-13167062D01*
X49229543Y-13190904D01*
X49238428Y-13215736D01*
X49244836Y-13241319D01*
X49248706Y-13267408D01*
X49250000Y-13293750D01*
X49250000Y-13906250D01*
X49248706Y-13932592D01*
X49244836Y-13958681D01*
X49238428Y-13984264D01*
X49229543Y-14009096D01*
X49218266Y-14032938D01*
X49204707Y-14055560D01*
X49188997Y-14076743D01*
X49171285Y-14096285D01*
X49151743Y-14113997D01*
X49130560Y-14129707D01*
X49107938Y-14143266D01*
X49084096Y-14154543D01*
X49059264Y-14163428D01*
X49033681Y-14169836D01*
X49007592Y-14173706D01*
X48981250Y-14175000D01*
X48443750Y-14175000D01*
X48417408Y-14173706D01*
X48391319Y-14169836D01*
X48365736Y-14163428D01*
X48340904Y-14154543D01*
X48317062Y-14143266D01*
X48294440Y-14129707D01*
X48273257Y-14113997D01*
X48253715Y-14096285D01*
X48236003Y-14076743D01*
X48220293Y-14055560D01*
X48206734Y-14032938D01*
X48195457Y-14009096D01*
X48186572Y-13984264D01*
X48180164Y-13958681D01*
X48176294Y-13932592D01*
X48175000Y-13906250D01*
X48175000Y-13293750D01*
X48176294Y-13267408D01*
X48180164Y-13241319D01*
X48186572Y-13215736D01*
X48195457Y-13190904D01*
X48206734Y-13167062D01*
X48220293Y-13144440D01*
X48236003Y-13123257D01*
X48253715Y-13103715D01*
X48273257Y-13086003D01*
X48294440Y-13070293D01*
X48317062Y-13056734D01*
X48340904Y-13045457D01*
X48365736Y-13036572D01*
X48391319Y-13030164D01*
X48417408Y-13026294D01*
X48443750Y-13025000D01*
X48981250Y-13025000D01*
X49007592Y-13026294D01*
X49007592Y-13026294D01*
G37*
D11*
X48712500Y-13600000D03*
G04 #@! TD*
D31*
G04 #@! TO.C,J7*
X83465000Y-6611000D03*
G04 #@! TD*
D32*
G04 #@! TO.C,D25*
X23800000Y-13600000D03*
X19800000Y-13600000D03*
G04 #@! TD*
D14*
G04 #@! TO.C,SW23*
X78340000Y-71460000D03*
X91790000Y-68920000D03*
D15*
X88240000Y-68920000D03*
X81890000Y-71460000D03*
D16*
X90780000Y-74000000D03*
X80620000Y-74000000D03*
D17*
X85700000Y-74000000D03*
G04 #@! TD*
D18*
G04 #@! TO.C,D8*
X57026000Y-65015000D03*
X57976000Y-63015000D03*
X56076000Y-63015000D03*
G04 #@! TD*
D33*
G04 #@! TO.C,J2*
X69400000Y-5400000D03*
D34*
X71940000Y-5400000D03*
G04 #@! TD*
D10*
G04 #@! TO.C,R6*
G36*
X63053592Y-4513294D02*
X63079681Y-4517164D01*
X63105264Y-4523572D01*
X63130096Y-4532457D01*
X63153938Y-4543734D01*
X63176560Y-4557293D01*
X63197743Y-4573003D01*
X63217285Y-4590715D01*
X63234997Y-4610257D01*
X63250707Y-4631440D01*
X63264266Y-4654062D01*
X63275543Y-4677904D01*
X63284428Y-4702736D01*
X63290836Y-4728319D01*
X63294706Y-4754408D01*
X63296000Y-4780750D01*
X63296000Y-5393250D01*
X63294706Y-5419592D01*
X63290836Y-5445681D01*
X63284428Y-5471264D01*
X63275543Y-5496096D01*
X63264266Y-5519938D01*
X63250707Y-5542560D01*
X63234997Y-5563743D01*
X63217285Y-5583285D01*
X63197743Y-5600997D01*
X63176560Y-5616707D01*
X63153938Y-5630266D01*
X63130096Y-5641543D01*
X63105264Y-5650428D01*
X63079681Y-5656836D01*
X63053592Y-5660706D01*
X63027250Y-5662000D01*
X62489750Y-5662000D01*
X62463408Y-5660706D01*
X62437319Y-5656836D01*
X62411736Y-5650428D01*
X62386904Y-5641543D01*
X62363062Y-5630266D01*
X62340440Y-5616707D01*
X62319257Y-5600997D01*
X62299715Y-5583285D01*
X62282003Y-5563743D01*
X62266293Y-5542560D01*
X62252734Y-5519938D01*
X62241457Y-5496096D01*
X62232572Y-5471264D01*
X62226164Y-5445681D01*
X62222294Y-5419592D01*
X62221000Y-5393250D01*
X62221000Y-4780750D01*
X62222294Y-4754408D01*
X62226164Y-4728319D01*
X62232572Y-4702736D01*
X62241457Y-4677904D01*
X62252734Y-4654062D01*
X62266293Y-4631440D01*
X62282003Y-4610257D01*
X62299715Y-4590715D01*
X62319257Y-4573003D01*
X62340440Y-4557293D01*
X62363062Y-4543734D01*
X62386904Y-4532457D01*
X62411736Y-4523572D01*
X62437319Y-4517164D01*
X62463408Y-4513294D01*
X62489750Y-4512000D01*
X63027250Y-4512000D01*
X63053592Y-4513294D01*
X63053592Y-4513294D01*
G37*
D11*
X62758500Y-5087000D03*
D10*
G36*
X61478592Y-4513294D02*
X61504681Y-4517164D01*
X61530264Y-4523572D01*
X61555096Y-4532457D01*
X61578938Y-4543734D01*
X61601560Y-4557293D01*
X61622743Y-4573003D01*
X61642285Y-4590715D01*
X61659997Y-4610257D01*
X61675707Y-4631440D01*
X61689266Y-4654062D01*
X61700543Y-4677904D01*
X61709428Y-4702736D01*
X61715836Y-4728319D01*
X61719706Y-4754408D01*
X61721000Y-4780750D01*
X61721000Y-5393250D01*
X61719706Y-5419592D01*
X61715836Y-5445681D01*
X61709428Y-5471264D01*
X61700543Y-5496096D01*
X61689266Y-5519938D01*
X61675707Y-5542560D01*
X61659997Y-5563743D01*
X61642285Y-5583285D01*
X61622743Y-5600997D01*
X61601560Y-5616707D01*
X61578938Y-5630266D01*
X61555096Y-5641543D01*
X61530264Y-5650428D01*
X61504681Y-5656836D01*
X61478592Y-5660706D01*
X61452250Y-5662000D01*
X60914750Y-5662000D01*
X60888408Y-5660706D01*
X60862319Y-5656836D01*
X60836736Y-5650428D01*
X60811904Y-5641543D01*
X60788062Y-5630266D01*
X60765440Y-5616707D01*
X60744257Y-5600997D01*
X60724715Y-5583285D01*
X60707003Y-5563743D01*
X60691293Y-5542560D01*
X60677734Y-5519938D01*
X60666457Y-5496096D01*
X60657572Y-5471264D01*
X60651164Y-5445681D01*
X60647294Y-5419592D01*
X60646000Y-5393250D01*
X60646000Y-4780750D01*
X60647294Y-4754408D01*
X60651164Y-4728319D01*
X60657572Y-4702736D01*
X60666457Y-4677904D01*
X60677734Y-4654062D01*
X60691293Y-4631440D01*
X60707003Y-4610257D01*
X60724715Y-4590715D01*
X60744257Y-4573003D01*
X60765440Y-4557293D01*
X60788062Y-4543734D01*
X60811904Y-4532457D01*
X60836736Y-4523572D01*
X60862319Y-4517164D01*
X60888408Y-4513294D01*
X60914750Y-4512000D01*
X61452250Y-4512000D01*
X61478592Y-4513294D01*
X61478592Y-4513294D01*
G37*
D11*
X61183500Y-5087000D03*
G04 #@! TD*
D18*
G04 #@! TO.C,D2*
X65281000Y-26915000D03*
X66231000Y-24915000D03*
X64331000Y-24915000D03*
G04 #@! TD*
D10*
G04 #@! TO.C,R15*
G36*
X77382592Y-18026294D02*
X77408681Y-18030164D01*
X77434264Y-18036572D01*
X77459096Y-18045457D01*
X77482938Y-18056734D01*
X77505560Y-18070293D01*
X77526743Y-18086003D01*
X77546285Y-18103715D01*
X77563997Y-18123257D01*
X77579707Y-18144440D01*
X77593266Y-18167062D01*
X77604543Y-18190904D01*
X77613428Y-18215736D01*
X77619836Y-18241319D01*
X77623706Y-18267408D01*
X77625000Y-18293750D01*
X77625000Y-18831250D01*
X77623706Y-18857592D01*
X77619836Y-18883681D01*
X77613428Y-18909264D01*
X77604543Y-18934096D01*
X77593266Y-18957938D01*
X77579707Y-18980560D01*
X77563997Y-19001743D01*
X77546285Y-19021285D01*
X77526743Y-19038997D01*
X77505560Y-19054707D01*
X77482938Y-19068266D01*
X77459096Y-19079543D01*
X77434264Y-19088428D01*
X77408681Y-19094836D01*
X77382592Y-19098706D01*
X77356250Y-19100000D01*
X76743750Y-19100000D01*
X76717408Y-19098706D01*
X76691319Y-19094836D01*
X76665736Y-19088428D01*
X76640904Y-19079543D01*
X76617062Y-19068266D01*
X76594440Y-19054707D01*
X76573257Y-19038997D01*
X76553715Y-19021285D01*
X76536003Y-19001743D01*
X76520293Y-18980560D01*
X76506734Y-18957938D01*
X76495457Y-18934096D01*
X76486572Y-18909264D01*
X76480164Y-18883681D01*
X76476294Y-18857592D01*
X76475000Y-18831250D01*
X76475000Y-18293750D01*
X76476294Y-18267408D01*
X76480164Y-18241319D01*
X76486572Y-18215736D01*
X76495457Y-18190904D01*
X76506734Y-18167062D01*
X76520293Y-18144440D01*
X76536003Y-18123257D01*
X76553715Y-18103715D01*
X76573257Y-18086003D01*
X76594440Y-18070293D01*
X76617062Y-18056734D01*
X76640904Y-18045457D01*
X76665736Y-18036572D01*
X76691319Y-18030164D01*
X76717408Y-18026294D01*
X76743750Y-18025000D01*
X77356250Y-18025000D01*
X77382592Y-18026294D01*
X77382592Y-18026294D01*
G37*
D11*
X77050000Y-18562500D03*
D10*
G36*
X77382592Y-19601294D02*
X77408681Y-19605164D01*
X77434264Y-19611572D01*
X77459096Y-19620457D01*
X77482938Y-19631734D01*
X77505560Y-19645293D01*
X77526743Y-19661003D01*
X77546285Y-19678715D01*
X77563997Y-19698257D01*
X77579707Y-19719440D01*
X77593266Y-19742062D01*
X77604543Y-19765904D01*
X77613428Y-19790736D01*
X77619836Y-19816319D01*
X77623706Y-19842408D01*
X77625000Y-19868750D01*
X77625000Y-20406250D01*
X77623706Y-20432592D01*
X77619836Y-20458681D01*
X77613428Y-20484264D01*
X77604543Y-20509096D01*
X77593266Y-20532938D01*
X77579707Y-20555560D01*
X77563997Y-20576743D01*
X77546285Y-20596285D01*
X77526743Y-20613997D01*
X77505560Y-20629707D01*
X77482938Y-20643266D01*
X77459096Y-20654543D01*
X77434264Y-20663428D01*
X77408681Y-20669836D01*
X77382592Y-20673706D01*
X77356250Y-20675000D01*
X76743750Y-20675000D01*
X76717408Y-20673706D01*
X76691319Y-20669836D01*
X76665736Y-20663428D01*
X76640904Y-20654543D01*
X76617062Y-20643266D01*
X76594440Y-20629707D01*
X76573257Y-20613997D01*
X76553715Y-20596285D01*
X76536003Y-20576743D01*
X76520293Y-20555560D01*
X76506734Y-20532938D01*
X76495457Y-20509096D01*
X76486572Y-20484264D01*
X76480164Y-20458681D01*
X76476294Y-20432592D01*
X76475000Y-20406250D01*
X76475000Y-19868750D01*
X76476294Y-19842408D01*
X76480164Y-19816319D01*
X76486572Y-19790736D01*
X76495457Y-19765904D01*
X76506734Y-19742062D01*
X76520293Y-19719440D01*
X76536003Y-19698257D01*
X76553715Y-19678715D01*
X76573257Y-19661003D01*
X76594440Y-19645293D01*
X76617062Y-19631734D01*
X76640904Y-19620457D01*
X76665736Y-19611572D01*
X76691319Y-19605164D01*
X76717408Y-19601294D01*
X76743750Y-19600000D01*
X77356250Y-19600000D01*
X77382592Y-19601294D01*
X77382592Y-19601294D01*
G37*
D11*
X77050000Y-20137500D03*
G04 #@! TD*
D35*
G04 #@! TO.C,SW49*
X81110000Y-11700000D03*
X90290000Y-11700000D03*
G04 #@! TD*
D14*
G04 #@! TO.C,SW10*
X74010000Y-38440000D03*
X60560000Y-40980000D03*
D15*
X64110000Y-40980000D03*
X70460000Y-38440000D03*
D16*
X61570000Y-35900000D03*
X71730000Y-35900000D03*
D17*
X66650000Y-35900000D03*
G04 #@! TD*
D36*
G04 #@! TO.C,Y1*
X65250000Y-12550000D03*
X65250000Y-8450000D03*
G04 #@! TD*
D10*
G04 #@! TO.C,D27*
G36*
X81813229Y-14126264D02*
X81838711Y-14130044D01*
X81863700Y-14136303D01*
X81887954Y-14144982D01*
X81911242Y-14155996D01*
X81933337Y-14169239D01*
X81954028Y-14184585D01*
X81973116Y-14201884D01*
X81990415Y-14220972D01*
X82005761Y-14241663D01*
X82019004Y-14263758D01*
X82030018Y-14287046D01*
X82038697Y-14311300D01*
X82044956Y-14336289D01*
X82048736Y-14361771D01*
X82050000Y-14387500D01*
X82050000Y-14912500D01*
X82048736Y-14938229D01*
X82044956Y-14963711D01*
X82038697Y-14988700D01*
X82030018Y-15012954D01*
X82019004Y-15036242D01*
X82005761Y-15058337D01*
X81990415Y-15079028D01*
X81973116Y-15098116D01*
X81954028Y-15115415D01*
X81933337Y-15130761D01*
X81911242Y-15144004D01*
X81887954Y-15155018D01*
X81863700Y-15163697D01*
X81838711Y-15169956D01*
X81813229Y-15173736D01*
X81787500Y-15175000D01*
X80887500Y-15175000D01*
X80861771Y-15173736D01*
X80836289Y-15169956D01*
X80811300Y-15163697D01*
X80787046Y-15155018D01*
X80763758Y-15144004D01*
X80741663Y-15130761D01*
X80720972Y-15115415D01*
X80701884Y-15098116D01*
X80684585Y-15079028D01*
X80669239Y-15058337D01*
X80655996Y-15036242D01*
X80644982Y-15012954D01*
X80636303Y-14988700D01*
X80630044Y-14963711D01*
X80626264Y-14938229D01*
X80625000Y-14912500D01*
X80625000Y-14387500D01*
X80626264Y-14361771D01*
X80630044Y-14336289D01*
X80636303Y-14311300D01*
X80644982Y-14287046D01*
X80655996Y-14263758D01*
X80669239Y-14241663D01*
X80684585Y-14220972D01*
X80701884Y-14201884D01*
X80720972Y-14184585D01*
X80741663Y-14169239D01*
X80763758Y-14155996D01*
X80787046Y-14144982D01*
X80811300Y-14136303D01*
X80836289Y-14130044D01*
X80861771Y-14126264D01*
X80887500Y-14125000D01*
X81787500Y-14125000D01*
X81813229Y-14126264D01*
X81813229Y-14126264D01*
G37*
D37*
X81337500Y-14650000D03*
D10*
G36*
X83438229Y-14126264D02*
X83463711Y-14130044D01*
X83488700Y-14136303D01*
X83512954Y-14144982D01*
X83536242Y-14155996D01*
X83558337Y-14169239D01*
X83579028Y-14184585D01*
X83598116Y-14201884D01*
X83615415Y-14220972D01*
X83630761Y-14241663D01*
X83644004Y-14263758D01*
X83655018Y-14287046D01*
X83663697Y-14311300D01*
X83669956Y-14336289D01*
X83673736Y-14361771D01*
X83675000Y-14387500D01*
X83675000Y-14912500D01*
X83673736Y-14938229D01*
X83669956Y-14963711D01*
X83663697Y-14988700D01*
X83655018Y-15012954D01*
X83644004Y-15036242D01*
X83630761Y-15058337D01*
X83615415Y-15079028D01*
X83598116Y-15098116D01*
X83579028Y-15115415D01*
X83558337Y-15130761D01*
X83536242Y-15144004D01*
X83512954Y-15155018D01*
X83488700Y-15163697D01*
X83463711Y-15169956D01*
X83438229Y-15173736D01*
X83412500Y-15175000D01*
X82512500Y-15175000D01*
X82486771Y-15173736D01*
X82461289Y-15169956D01*
X82436300Y-15163697D01*
X82412046Y-15155018D01*
X82388758Y-15144004D01*
X82366663Y-15130761D01*
X82345972Y-15115415D01*
X82326884Y-15098116D01*
X82309585Y-15079028D01*
X82294239Y-15058337D01*
X82280996Y-15036242D01*
X82269982Y-15012954D01*
X82261303Y-14988700D01*
X82255044Y-14963711D01*
X82251264Y-14938229D01*
X82250000Y-14912500D01*
X82250000Y-14387500D01*
X82251264Y-14361771D01*
X82255044Y-14336289D01*
X82261303Y-14311300D01*
X82269982Y-14287046D01*
X82280996Y-14263758D01*
X82294239Y-14241663D01*
X82309585Y-14220972D01*
X82326884Y-14201884D01*
X82345972Y-14184585D01*
X82366663Y-14169239D01*
X82388758Y-14155996D01*
X82412046Y-14144982D01*
X82436300Y-14136303D01*
X82461289Y-14130044D01*
X82486771Y-14126264D01*
X82512500Y-14125000D01*
X83412500Y-14125000D01*
X83438229Y-14126264D01*
X83438229Y-14126264D01*
G37*
D37*
X82962500Y-14650000D03*
G04 #@! TD*
D38*
G04 #@! TO.C,SW24*
X102585000Y-76540000D03*
D10*
G36*
X102604509Y-75191921D02*
X102623268Y-75197612D01*
X102640557Y-75206853D01*
X102655007Y-75218593D01*
X103930007Y-76468593D01*
X103942593Y-76483623D01*
X103952005Y-76500819D01*
X103957881Y-76519521D01*
X103960000Y-76540000D01*
X103960000Y-77790000D01*
X103958079Y-77809509D01*
X103952388Y-77828268D01*
X103943147Y-77845557D01*
X103930711Y-77860711D01*
X103915557Y-77873147D01*
X103898268Y-77882388D01*
X103879509Y-77888079D01*
X103860000Y-77890000D01*
X101310000Y-77890000D01*
X101290491Y-77888079D01*
X101271732Y-77882388D01*
X101254443Y-77873147D01*
X101239289Y-77860711D01*
X101226853Y-77845557D01*
X101217612Y-77828268D01*
X101211921Y-77809509D01*
X101210000Y-77790000D01*
X101210000Y-75290000D01*
X101211921Y-75270491D01*
X101217612Y-75251732D01*
X101226853Y-75234443D01*
X101239289Y-75219289D01*
X101254443Y-75206853D01*
X101271732Y-75197612D01*
X101290491Y-75191921D01*
X101310000Y-75190000D01*
X102585000Y-75190000D01*
X102604509Y-75191921D01*
X102604509Y-75191921D01*
G37*
D14*
X89135000Y-79080000D03*
D15*
X92685000Y-79080000D03*
X99035000Y-76540000D03*
D16*
X90145000Y-74000000D03*
X100305000Y-74000000D03*
D17*
X95225000Y-74000000D03*
G04 #@! TD*
D14*
G04 #@! TO.C,SW7*
X16860000Y-38440000D03*
X3410000Y-40980000D03*
D15*
X6960000Y-40980000D03*
X13310000Y-38440000D03*
D16*
X4420000Y-35900000D03*
X14580000Y-35900000D03*
D17*
X9500000Y-35900000D03*
G04 #@! TD*
D14*
G04 #@! TO.C,SW11*
X93060000Y-38440000D03*
X79610000Y-40980000D03*
D15*
X83160000Y-40980000D03*
X89510000Y-38440000D03*
D16*
X80620000Y-35900000D03*
X90780000Y-35900000D03*
D17*
X85700000Y-35900000D03*
G04 #@! TD*
D10*
G04 #@! TO.C,C2*
G36*
X68332592Y-10826294D02*
X68358681Y-10830164D01*
X68384264Y-10836572D01*
X68409096Y-10845457D01*
X68432938Y-10856734D01*
X68455560Y-10870293D01*
X68476743Y-10886003D01*
X68496285Y-10903715D01*
X68513997Y-10923257D01*
X68529707Y-10944440D01*
X68543266Y-10967062D01*
X68554543Y-10990904D01*
X68563428Y-11015736D01*
X68569836Y-11041319D01*
X68573706Y-11067408D01*
X68575000Y-11093750D01*
X68575000Y-11631250D01*
X68573706Y-11657592D01*
X68569836Y-11683681D01*
X68563428Y-11709264D01*
X68554543Y-11734096D01*
X68543266Y-11757938D01*
X68529707Y-11780560D01*
X68513997Y-11801743D01*
X68496285Y-11821285D01*
X68476743Y-11838997D01*
X68455560Y-11854707D01*
X68432938Y-11868266D01*
X68409096Y-11879543D01*
X68384264Y-11888428D01*
X68358681Y-11894836D01*
X68332592Y-11898706D01*
X68306250Y-11900000D01*
X67693750Y-11900000D01*
X67667408Y-11898706D01*
X67641319Y-11894836D01*
X67615736Y-11888428D01*
X67590904Y-11879543D01*
X67567062Y-11868266D01*
X67544440Y-11854707D01*
X67523257Y-11838997D01*
X67503715Y-11821285D01*
X67486003Y-11801743D01*
X67470293Y-11780560D01*
X67456734Y-11757938D01*
X67445457Y-11734096D01*
X67436572Y-11709264D01*
X67430164Y-11683681D01*
X67426294Y-11657592D01*
X67425000Y-11631250D01*
X67425000Y-11093750D01*
X67426294Y-11067408D01*
X67430164Y-11041319D01*
X67436572Y-11015736D01*
X67445457Y-10990904D01*
X67456734Y-10967062D01*
X67470293Y-10944440D01*
X67486003Y-10923257D01*
X67503715Y-10903715D01*
X67523257Y-10886003D01*
X67544440Y-10870293D01*
X67567062Y-10856734D01*
X67590904Y-10845457D01*
X67615736Y-10836572D01*
X67641319Y-10830164D01*
X67667408Y-10826294D01*
X67693750Y-10825000D01*
X68306250Y-10825000D01*
X68332592Y-10826294D01*
X68332592Y-10826294D01*
G37*
D11*
X68000000Y-11362500D03*
D10*
G36*
X68332592Y-12401294D02*
X68358681Y-12405164D01*
X68384264Y-12411572D01*
X68409096Y-12420457D01*
X68432938Y-12431734D01*
X68455560Y-12445293D01*
X68476743Y-12461003D01*
X68496285Y-12478715D01*
X68513997Y-12498257D01*
X68529707Y-12519440D01*
X68543266Y-12542062D01*
X68554543Y-12565904D01*
X68563428Y-12590736D01*
X68569836Y-12616319D01*
X68573706Y-12642408D01*
X68575000Y-12668750D01*
X68575000Y-13206250D01*
X68573706Y-13232592D01*
X68569836Y-13258681D01*
X68563428Y-13284264D01*
X68554543Y-13309096D01*
X68543266Y-13332938D01*
X68529707Y-13355560D01*
X68513997Y-13376743D01*
X68496285Y-13396285D01*
X68476743Y-13413997D01*
X68455560Y-13429707D01*
X68432938Y-13443266D01*
X68409096Y-13454543D01*
X68384264Y-13463428D01*
X68358681Y-13469836D01*
X68332592Y-13473706D01*
X68306250Y-13475000D01*
X67693750Y-13475000D01*
X67667408Y-13473706D01*
X67641319Y-13469836D01*
X67615736Y-13463428D01*
X67590904Y-13454543D01*
X67567062Y-13443266D01*
X67544440Y-13429707D01*
X67523257Y-13413997D01*
X67503715Y-13396285D01*
X67486003Y-13376743D01*
X67470293Y-13355560D01*
X67456734Y-13332938D01*
X67445457Y-13309096D01*
X67436572Y-13284264D01*
X67430164Y-13258681D01*
X67426294Y-13232592D01*
X67425000Y-13206250D01*
X67425000Y-12668750D01*
X67426294Y-12642408D01*
X67430164Y-12616319D01*
X67436572Y-12590736D01*
X67445457Y-12565904D01*
X67456734Y-12542062D01*
X67470293Y-12519440D01*
X67486003Y-12498257D01*
X67503715Y-12478715D01*
X67523257Y-12461003D01*
X67544440Y-12445293D01*
X67567062Y-12431734D01*
X67590904Y-12420457D01*
X67615736Y-12411572D01*
X67641319Y-12405164D01*
X67667408Y-12401294D01*
X67693750Y-12400000D01*
X68306250Y-12400000D01*
X68332592Y-12401294D01*
X68332592Y-12401294D01*
G37*
D11*
X68000000Y-12937500D03*
G04 #@! TD*
D12*
G04 #@! TO.C,JP2*
X77359500Y-31063000D03*
X77359500Y-32333000D03*
G04 #@! TD*
D39*
G04 #@! TO.C,J9*
X32800000Y-7130000D03*
X32000000Y-7130000D03*
X32800000Y-7130000D03*
X32000000Y-7130000D03*
X26400000Y-7130000D03*
X26400000Y-7130000D03*
X27200000Y-7130000D03*
X27200000Y-7130000D03*
D40*
X26710000Y-5830000D03*
X32490000Y-5830000D03*
D41*
X31350000Y-7130000D03*
X30350000Y-7130000D03*
X30850000Y-7130000D03*
X28350000Y-7130000D03*
X27850000Y-7130000D03*
X29850000Y-7130000D03*
X29350000Y-7130000D03*
X28850000Y-7130000D03*
D42*
X33830000Y-2140000D03*
X25280000Y-2140000D03*
D43*
X33920000Y-6310000D03*
X25280000Y-6310000D03*
G04 #@! TD*
D14*
G04 #@! TO.C,SW13*
X16860000Y-57490000D03*
X3410000Y-60030000D03*
D15*
X6960000Y-60030000D03*
X13310000Y-57490000D03*
D16*
X4420000Y-54950000D03*
X14580000Y-54950000D03*
D17*
X9500000Y-54950000D03*
G04 #@! TD*
D14*
G04 #@! TO.C,SW15*
X54960000Y-57490000D03*
X41510000Y-60030000D03*
D15*
X45060000Y-60030000D03*
X51410000Y-57490000D03*
D16*
X42520000Y-54950000D03*
X52680000Y-54950000D03*
D17*
X47600000Y-54950000D03*
G04 #@! TD*
D10*
G04 #@! TO.C,C3*
G36*
X68332592Y-9151294D02*
X68358681Y-9155164D01*
X68384264Y-9161572D01*
X68409096Y-9170457D01*
X68432938Y-9181734D01*
X68455560Y-9195293D01*
X68476743Y-9211003D01*
X68496285Y-9228715D01*
X68513997Y-9248257D01*
X68529707Y-9269440D01*
X68543266Y-9292062D01*
X68554543Y-9315904D01*
X68563428Y-9340736D01*
X68569836Y-9366319D01*
X68573706Y-9392408D01*
X68575000Y-9418750D01*
X68575000Y-9956250D01*
X68573706Y-9982592D01*
X68569836Y-10008681D01*
X68563428Y-10034264D01*
X68554543Y-10059096D01*
X68543266Y-10082938D01*
X68529707Y-10105560D01*
X68513997Y-10126743D01*
X68496285Y-10146285D01*
X68476743Y-10163997D01*
X68455560Y-10179707D01*
X68432938Y-10193266D01*
X68409096Y-10204543D01*
X68384264Y-10213428D01*
X68358681Y-10219836D01*
X68332592Y-10223706D01*
X68306250Y-10225000D01*
X67693750Y-10225000D01*
X67667408Y-10223706D01*
X67641319Y-10219836D01*
X67615736Y-10213428D01*
X67590904Y-10204543D01*
X67567062Y-10193266D01*
X67544440Y-10179707D01*
X67523257Y-10163997D01*
X67503715Y-10146285D01*
X67486003Y-10126743D01*
X67470293Y-10105560D01*
X67456734Y-10082938D01*
X67445457Y-10059096D01*
X67436572Y-10034264D01*
X67430164Y-10008681D01*
X67426294Y-9982592D01*
X67425000Y-9956250D01*
X67425000Y-9418750D01*
X67426294Y-9392408D01*
X67430164Y-9366319D01*
X67436572Y-9340736D01*
X67445457Y-9315904D01*
X67456734Y-9292062D01*
X67470293Y-9269440D01*
X67486003Y-9248257D01*
X67503715Y-9228715D01*
X67523257Y-9211003D01*
X67544440Y-9195293D01*
X67567062Y-9181734D01*
X67590904Y-9170457D01*
X67615736Y-9161572D01*
X67641319Y-9155164D01*
X67667408Y-9151294D01*
X67693750Y-9150000D01*
X68306250Y-9150000D01*
X68332592Y-9151294D01*
X68332592Y-9151294D01*
G37*
D11*
X68000000Y-9687500D03*
D10*
G36*
X68332592Y-7576294D02*
X68358681Y-7580164D01*
X68384264Y-7586572D01*
X68409096Y-7595457D01*
X68432938Y-7606734D01*
X68455560Y-7620293D01*
X68476743Y-7636003D01*
X68496285Y-7653715D01*
X68513997Y-7673257D01*
X68529707Y-7694440D01*
X68543266Y-7717062D01*
X68554543Y-7740904D01*
X68563428Y-7765736D01*
X68569836Y-7791319D01*
X68573706Y-7817408D01*
X68575000Y-7843750D01*
X68575000Y-8381250D01*
X68573706Y-8407592D01*
X68569836Y-8433681D01*
X68563428Y-8459264D01*
X68554543Y-8484096D01*
X68543266Y-8507938D01*
X68529707Y-8530560D01*
X68513997Y-8551743D01*
X68496285Y-8571285D01*
X68476743Y-8588997D01*
X68455560Y-8604707D01*
X68432938Y-8618266D01*
X68409096Y-8629543D01*
X68384264Y-8638428D01*
X68358681Y-8644836D01*
X68332592Y-8648706D01*
X68306250Y-8650000D01*
X67693750Y-8650000D01*
X67667408Y-8648706D01*
X67641319Y-8644836D01*
X67615736Y-8638428D01*
X67590904Y-8629543D01*
X67567062Y-8618266D01*
X67544440Y-8604707D01*
X67523257Y-8588997D01*
X67503715Y-8571285D01*
X67486003Y-8551743D01*
X67470293Y-8530560D01*
X67456734Y-8507938D01*
X67445457Y-8484096D01*
X67436572Y-8459264D01*
X67430164Y-8433681D01*
X67426294Y-8407592D01*
X67425000Y-8381250D01*
X67425000Y-7843750D01*
X67426294Y-7817408D01*
X67430164Y-7791319D01*
X67436572Y-7765736D01*
X67445457Y-7740904D01*
X67456734Y-7717062D01*
X67470293Y-7694440D01*
X67486003Y-7673257D01*
X67503715Y-7653715D01*
X67523257Y-7636003D01*
X67544440Y-7620293D01*
X67567062Y-7606734D01*
X67590904Y-7595457D01*
X67615736Y-7586572D01*
X67641319Y-7580164D01*
X67667408Y-7576294D01*
X67693750Y-7575000D01*
X68306250Y-7575000D01*
X68332592Y-7576294D01*
X68332592Y-7576294D01*
G37*
D11*
X68000000Y-8112500D03*
G04 #@! TD*
D14*
G04 #@! TO.C,SW1*
X16860000Y-19390000D03*
X3410000Y-21930000D03*
D15*
X6960000Y-21930000D03*
X13310000Y-19390000D03*
D16*
X4420000Y-16850000D03*
X14580000Y-16850000D03*
D17*
X9500000Y-16850000D03*
G04 #@! TD*
D10*
G04 #@! TO.C,C1*
G36*
X51666592Y-8640294D02*
X51692681Y-8644164D01*
X51718264Y-8650572D01*
X51743096Y-8659457D01*
X51766938Y-8670734D01*
X51789560Y-8684293D01*
X51810743Y-8700003D01*
X51830285Y-8717715D01*
X51847997Y-8737257D01*
X51863707Y-8758440D01*
X51877266Y-8781062D01*
X51888543Y-8804904D01*
X51897428Y-8829736D01*
X51903836Y-8855319D01*
X51907706Y-8881408D01*
X51909000Y-8907750D01*
X51909000Y-9445250D01*
X51907706Y-9471592D01*
X51903836Y-9497681D01*
X51897428Y-9523264D01*
X51888543Y-9548096D01*
X51877266Y-9571938D01*
X51863707Y-9594560D01*
X51847997Y-9615743D01*
X51830285Y-9635285D01*
X51810743Y-9652997D01*
X51789560Y-9668707D01*
X51766938Y-9682266D01*
X51743096Y-9693543D01*
X51718264Y-9702428D01*
X51692681Y-9708836D01*
X51666592Y-9712706D01*
X51640250Y-9714000D01*
X51027750Y-9714000D01*
X51001408Y-9712706D01*
X50975319Y-9708836D01*
X50949736Y-9702428D01*
X50924904Y-9693543D01*
X50901062Y-9682266D01*
X50878440Y-9668707D01*
X50857257Y-9652997D01*
X50837715Y-9635285D01*
X50820003Y-9615743D01*
X50804293Y-9594560D01*
X50790734Y-9571938D01*
X50779457Y-9548096D01*
X50770572Y-9523264D01*
X50764164Y-9497681D01*
X50760294Y-9471592D01*
X50759000Y-9445250D01*
X50759000Y-8907750D01*
X50760294Y-8881408D01*
X50764164Y-8855319D01*
X50770572Y-8829736D01*
X50779457Y-8804904D01*
X50790734Y-8781062D01*
X50804293Y-8758440D01*
X50820003Y-8737257D01*
X50837715Y-8717715D01*
X50857257Y-8700003D01*
X50878440Y-8684293D01*
X50901062Y-8670734D01*
X50924904Y-8659457D01*
X50949736Y-8650572D01*
X50975319Y-8644164D01*
X51001408Y-8640294D01*
X51027750Y-8639000D01*
X51640250Y-8639000D01*
X51666592Y-8640294D01*
X51666592Y-8640294D01*
G37*
D11*
X51334000Y-9176500D03*
D10*
G36*
X51666592Y-7065294D02*
X51692681Y-7069164D01*
X51718264Y-7075572D01*
X51743096Y-7084457D01*
X51766938Y-7095734D01*
X51789560Y-7109293D01*
X51810743Y-7125003D01*
X51830285Y-7142715D01*
X51847997Y-7162257D01*
X51863707Y-7183440D01*
X51877266Y-7206062D01*
X51888543Y-7229904D01*
X51897428Y-7254736D01*
X51903836Y-7280319D01*
X51907706Y-7306408D01*
X51909000Y-7332750D01*
X51909000Y-7870250D01*
X51907706Y-7896592D01*
X51903836Y-7922681D01*
X51897428Y-7948264D01*
X51888543Y-7973096D01*
X51877266Y-7996938D01*
X51863707Y-8019560D01*
X51847997Y-8040743D01*
X51830285Y-8060285D01*
X51810743Y-8077997D01*
X51789560Y-8093707D01*
X51766938Y-8107266D01*
X51743096Y-8118543D01*
X51718264Y-8127428D01*
X51692681Y-8133836D01*
X51666592Y-8137706D01*
X51640250Y-8139000D01*
X51027750Y-8139000D01*
X51001408Y-8137706D01*
X50975319Y-8133836D01*
X50949736Y-8127428D01*
X50924904Y-8118543D01*
X50901062Y-8107266D01*
X50878440Y-8093707D01*
X50857257Y-8077997D01*
X50837715Y-8060285D01*
X50820003Y-8040743D01*
X50804293Y-8019560D01*
X50790734Y-7996938D01*
X50779457Y-7973096D01*
X50770572Y-7948264D01*
X50764164Y-7922681D01*
X50760294Y-7896592D01*
X50759000Y-7870250D01*
X50759000Y-7332750D01*
X50760294Y-7306408D01*
X50764164Y-7280319D01*
X50770572Y-7254736D01*
X50779457Y-7229904D01*
X50790734Y-7206062D01*
X50804293Y-7183440D01*
X50820003Y-7162257D01*
X50837715Y-7142715D01*
X50857257Y-7125003D01*
X50878440Y-7109293D01*
X50901062Y-7095734D01*
X50924904Y-7084457D01*
X50949736Y-7075572D01*
X50975319Y-7069164D01*
X51001408Y-7065294D01*
X51027750Y-7064000D01*
X51640250Y-7064000D01*
X51666592Y-7065294D01*
X51666592Y-7065294D01*
G37*
D11*
X51334000Y-7601500D03*
G04 #@! TD*
D14*
G04 #@! TO.C,SW8*
X35910000Y-38440000D03*
X22460000Y-40980000D03*
D15*
X26010000Y-40980000D03*
X32360000Y-38440000D03*
D16*
X23470000Y-35900000D03*
X33630000Y-35900000D03*
D17*
X28550000Y-35900000D03*
G04 #@! TD*
D10*
G04 #@! TO.C,C4*
G36*
X57000592Y-4601694D02*
X57026681Y-4605564D01*
X57052264Y-4611972D01*
X57077096Y-4620857D01*
X57100938Y-4632134D01*
X57123560Y-4645693D01*
X57144743Y-4661403D01*
X57164285Y-4679115D01*
X57181997Y-4698657D01*
X57197707Y-4719840D01*
X57211266Y-4742462D01*
X57222543Y-4766304D01*
X57231428Y-4791136D01*
X57237836Y-4816719D01*
X57241706Y-4842808D01*
X57243000Y-4869150D01*
X57243000Y-5406650D01*
X57241706Y-5432992D01*
X57237836Y-5459081D01*
X57231428Y-5484664D01*
X57222543Y-5509496D01*
X57211266Y-5533338D01*
X57197707Y-5555960D01*
X57181997Y-5577143D01*
X57164285Y-5596685D01*
X57144743Y-5614397D01*
X57123560Y-5630107D01*
X57100938Y-5643666D01*
X57077096Y-5654943D01*
X57052264Y-5663828D01*
X57026681Y-5670236D01*
X57000592Y-5674106D01*
X56974250Y-5675400D01*
X56361750Y-5675400D01*
X56335408Y-5674106D01*
X56309319Y-5670236D01*
X56283736Y-5663828D01*
X56258904Y-5654943D01*
X56235062Y-5643666D01*
X56212440Y-5630107D01*
X56191257Y-5614397D01*
X56171715Y-5596685D01*
X56154003Y-5577143D01*
X56138293Y-5555960D01*
X56124734Y-5533338D01*
X56113457Y-5509496D01*
X56104572Y-5484664D01*
X56098164Y-5459081D01*
X56094294Y-5432992D01*
X56093000Y-5406650D01*
X56093000Y-4869150D01*
X56094294Y-4842808D01*
X56098164Y-4816719D01*
X56104572Y-4791136D01*
X56113457Y-4766304D01*
X56124734Y-4742462D01*
X56138293Y-4719840D01*
X56154003Y-4698657D01*
X56171715Y-4679115D01*
X56191257Y-4661403D01*
X56212440Y-4645693D01*
X56235062Y-4632134D01*
X56258904Y-4620857D01*
X56283736Y-4611972D01*
X56309319Y-4605564D01*
X56335408Y-4601694D01*
X56361750Y-4600400D01*
X56974250Y-4600400D01*
X57000592Y-4601694D01*
X57000592Y-4601694D01*
G37*
D11*
X56668000Y-5137900D03*
D10*
G36*
X57000592Y-3026694D02*
X57026681Y-3030564D01*
X57052264Y-3036972D01*
X57077096Y-3045857D01*
X57100938Y-3057134D01*
X57123560Y-3070693D01*
X57144743Y-3086403D01*
X57164285Y-3104115D01*
X57181997Y-3123657D01*
X57197707Y-3144840D01*
X57211266Y-3167462D01*
X57222543Y-3191304D01*
X57231428Y-3216136D01*
X57237836Y-3241719D01*
X57241706Y-3267808D01*
X57243000Y-3294150D01*
X57243000Y-3831650D01*
X57241706Y-3857992D01*
X57237836Y-3884081D01*
X57231428Y-3909664D01*
X57222543Y-3934496D01*
X57211266Y-3958338D01*
X57197707Y-3980960D01*
X57181997Y-4002143D01*
X57164285Y-4021685D01*
X57144743Y-4039397D01*
X57123560Y-4055107D01*
X57100938Y-4068666D01*
X57077096Y-4079943D01*
X57052264Y-4088828D01*
X57026681Y-4095236D01*
X57000592Y-4099106D01*
X56974250Y-4100400D01*
X56361750Y-4100400D01*
X56335408Y-4099106D01*
X56309319Y-4095236D01*
X56283736Y-4088828D01*
X56258904Y-4079943D01*
X56235062Y-4068666D01*
X56212440Y-4055107D01*
X56191257Y-4039397D01*
X56171715Y-4021685D01*
X56154003Y-4002143D01*
X56138293Y-3980960D01*
X56124734Y-3958338D01*
X56113457Y-3934496D01*
X56104572Y-3909664D01*
X56098164Y-3884081D01*
X56094294Y-3857992D01*
X56093000Y-3831650D01*
X56093000Y-3294150D01*
X56094294Y-3267808D01*
X56098164Y-3241719D01*
X56104572Y-3216136D01*
X56113457Y-3191304D01*
X56124734Y-3167462D01*
X56138293Y-3144840D01*
X56154003Y-3123657D01*
X56171715Y-3104115D01*
X56191257Y-3086403D01*
X56212440Y-3070693D01*
X56235062Y-3057134D01*
X56258904Y-3045857D01*
X56283736Y-3036972D01*
X56309319Y-3030564D01*
X56335408Y-3026694D01*
X56361750Y-3025400D01*
X56974250Y-3025400D01*
X57000592Y-3026694D01*
X57000592Y-3026694D01*
G37*
D11*
X56668000Y-3562900D03*
G04 #@! TD*
D14*
G04 #@! TO.C,SW6*
X112110000Y-19390000D03*
X98660000Y-21930000D03*
D15*
X102210000Y-21930000D03*
X108560000Y-19390000D03*
D16*
X99670000Y-16850000D03*
X109830000Y-16850000D03*
D17*
X104750000Y-16850000D03*
G04 #@! TD*
D14*
G04 #@! TO.C,SW18*
X112110000Y-57490000D03*
X98660000Y-60030000D03*
D15*
X102210000Y-60030000D03*
X108560000Y-57490000D03*
D16*
X99670000Y-54950000D03*
X109830000Y-54950000D03*
D17*
X104750000Y-54950000D03*
G04 #@! TD*
D22*
G04 #@! TO.C,REF\002A\002A*
X19000000Y-27000000D03*
G04 #@! TD*
D14*
G04 #@! TO.C,SW4*
X74010000Y-19390000D03*
X60560000Y-21930000D03*
D15*
X64110000Y-21930000D03*
X70460000Y-19390000D03*
D16*
X61570000Y-16850000D03*
X71730000Y-16850000D03*
D17*
X66650000Y-16850000D03*
G04 #@! TD*
D44*
G04 #@! TO.C,REF\002A\002A*
X104750000Y-64475000D03*
G04 #@! TD*
G04 #@! TO.C,REF\002A\002A*
X9500000Y-26375000D03*
G04 #@! TD*
D38*
G04 #@! TO.C,SW24*
X97390000Y-71460000D03*
D10*
G36*
X97370491Y-72808079D02*
X97351732Y-72802388D01*
X97334443Y-72793147D01*
X97319993Y-72781407D01*
X96044993Y-71531407D01*
X96032407Y-71516377D01*
X96022995Y-71499181D01*
X96017119Y-71480479D01*
X96015000Y-71460000D01*
X96015000Y-70210000D01*
X96016921Y-70190491D01*
X96022612Y-70171732D01*
X96031853Y-70154443D01*
X96044289Y-70139289D01*
X96059443Y-70126853D01*
X96076732Y-70117612D01*
X96095491Y-70111921D01*
X96115000Y-70110000D01*
X98665000Y-70110000D01*
X98684509Y-70111921D01*
X98703268Y-70117612D01*
X98720557Y-70126853D01*
X98735711Y-70139289D01*
X98748147Y-70154443D01*
X98757388Y-70171732D01*
X98763079Y-70190491D01*
X98765000Y-70210000D01*
X98765000Y-72710000D01*
X98763079Y-72729509D01*
X98757388Y-72748268D01*
X98748147Y-72765557D01*
X98735711Y-72780711D01*
X98720557Y-72793147D01*
X98703268Y-72802388D01*
X98684509Y-72808079D01*
X98665000Y-72810000D01*
X97390000Y-72810000D01*
X97370491Y-72808079D01*
X97370491Y-72808079D01*
G37*
D14*
X110840000Y-68920000D03*
D15*
X107290000Y-68920000D03*
X100940000Y-71460000D03*
D16*
X109830000Y-74000000D03*
X99670000Y-74000000D03*
D17*
X104750000Y-74000000D03*
G04 #@! TD*
D44*
G04 #@! TO.C,REF\002A\002A*
X104750000Y-26375000D03*
G04 #@! TD*
G04 #@! TO.C,REF\002A\002A*
X9500000Y-64475000D03*
G04 #@! TD*
M02*
