%TF.GenerationSoftware,KiCad,Pcbnew,5.0.2-5.fc29*%
%TF.CreationDate,2019-03-27T11:46:13+01:00*%
%TF.ProjectId,vitamins_included,76697461-6d69-46e7-935f-696e636c7564,rev?*%
%TF.SameCoordinates,Original*%
%TF.FileFunction,Plated,1,2,PTH,Mixed*%
%TF.FilePolarity,Positive*%
%FSLAX46Y46*%
G04 Gerber Fmt 4.6, Leading zero omitted, Abs format (unit mm)*
G04 Created by KiCad (PCBNEW 5.0.2-5.fc29) date 2019-03-27T11:46:13 CET*
%MOMM*%
%LPD*%
G01*
G04 APERTURE LIST*
%TA.AperFunction,ViaDrill*%
%ADD10C,0.400000*%
%TD*%
%TA.AperFunction,Slot*%
%ADD11C,0.600000*%
%TD*%
%TA.AperFunction,ComponentDrill*%
%ADD12C,1.000000*%
%TD*%
G04 APERTURE END LIST*
D10*
X1050000Y-73900000D03*
X1350000Y-68200000D03*
X5650000Y-78000000D03*
X12050000Y-62000000D03*
X12550000Y-75800000D03*
X14050000Y-65800000D03*
X15250000Y-64800000D03*
X16849000Y-21724000D03*
X17103000Y-36202000D03*
X17103000Y-55125000D03*
X18300000Y-32200000D03*
X18373000Y-69476000D03*
X19262000Y-51600000D03*
X19516000Y-34551000D03*
X19850000Y-43900000D03*
X19850000Y-46800000D03*
X21802000Y-38615000D03*
X22450000Y-18600000D03*
X23150000Y-10600000D03*
X23150000Y-66400000D03*
X23450000Y-63500000D03*
X23453000Y-6738000D03*
X24050000Y-10600000D03*
X24150000Y-25900000D03*
X24450000Y-68600000D03*
X24750000Y-65100000D03*
X25050000Y-9986000D03*
X25050000Y-31400000D03*
X25150000Y-13300000D03*
X25750000Y-62500000D03*
X25815000Y-9100000D03*
X26250000Y-66400000D03*
X26450000Y-28250000D03*
X28533000Y-9278000D03*
X28650000Y-12350000D03*
X28750000Y-78500000D03*
X29550000Y-40500000D03*
X30250000Y-12600000D03*
X30311000Y-60586000D03*
X30650000Y-21600000D03*
X31150000Y-50600000D03*
X31350000Y-33700000D03*
X31650000Y-41900000D03*
X31835000Y-13088000D03*
X32150000Y-14500000D03*
X32150000Y-16000000D03*
X32470000Y-4452000D03*
X32851000Y-13088000D03*
X33550000Y-8100000D03*
X33740000Y-28074000D03*
X34650000Y-6100000D03*
X35050000Y-23200000D03*
X35550000Y-77100000D03*
X36516211Y-17027126D03*
X37892518Y-11411000D03*
X38150000Y-47700000D03*
X38150000Y-65300000D03*
X38250000Y-63100000D03*
X38350000Y-33300000D03*
X38682634Y-18952689D03*
X38850000Y-20700000D03*
X39250000Y-4800000D03*
X39250000Y-17300000D03*
X39250000Y-45965000D03*
X39842500Y-5769500D03*
X40150000Y-19100000D03*
X40250000Y-6750000D03*
X40471000Y-77334000D03*
X40550000Y-16100000D03*
X40725000Y-4960000D03*
X40750000Y-73600000D03*
X41350000Y-19100000D03*
X41360000Y-68460000D03*
X41874500Y-7547500D03*
X42650000Y-64400000D03*
X42850000Y-12800000D03*
X42950000Y-31500000D03*
X43750000Y-25800000D03*
X43850000Y-12700000D03*
X45050000Y-76200000D03*
X45650000Y-10500000D03*
X45823999Y-4724999D03*
X46550000Y-70800000D03*
X46650000Y-4724999D03*
X47250000Y-50600000D03*
X47350000Y-10500000D03*
X47583000Y-20962000D03*
X47850000Y-27600000D03*
X48750000Y-45000000D03*
X48850000Y-33100000D03*
X48853000Y-20200000D03*
X49107000Y-19184000D03*
X49350000Y-24400000D03*
X49850000Y-76200000D03*
X50750000Y-15400000D03*
X50750000Y-16600000D03*
X52300000Y-11850000D03*
X52600000Y-28500000D03*
X52700000Y-30750000D03*
X53150000Y-24300000D03*
X53950000Y-33500000D03*
X53950000Y-76100000D03*
X54441000Y-60332000D03*
X54949000Y-35567000D03*
X55330000Y-21597000D03*
X55750000Y-9700000D03*
X55750000Y-16500000D03*
X55850000Y-45000000D03*
X57108000Y-67698000D03*
X57450000Y-21600000D03*
X57743000Y-19819000D03*
X58750000Y-9700000D03*
X59902000Y-38615000D03*
X60080000Y-18750000D03*
X60283000Y-57411000D03*
X61250000Y-45000000D03*
X61426000Y-27185000D03*
X63050000Y-26200000D03*
X63077000Y-75953000D03*
X63350000Y-51000000D03*
X63585000Y-18930000D03*
X63950000Y-68100000D03*
X66550000Y-31600000D03*
X69173000Y-22359000D03*
X69800000Y-10750000D03*
X69850000Y-7000000D03*
X69850000Y-52000000D03*
X70250000Y-66300000D03*
X73250000Y-76000000D03*
X73450000Y-44900000D03*
X74150000Y-22900000D03*
X74350000Y-13800000D03*
X75300000Y-65850000D03*
X76450000Y-18600000D03*
X76750000Y-66200000D03*
X76850000Y-27800000D03*
X77250000Y-20300000D03*
X77250000Y-47700000D03*
X78000000Y-76000000D03*
X78500000Y-12700000D03*
X78500000Y-13700000D03*
X78500000Y-14850000D03*
X79206000Y-68587000D03*
X79450000Y-49600000D03*
X79850000Y-14900000D03*
X80950000Y-63500000D03*
X82050000Y-11300000D03*
X82250000Y-8650000D03*
X82250000Y-9500000D03*
X82550000Y-16200000D03*
X82550000Y-17200000D03*
X82550000Y-18100000D03*
X82550000Y-56700000D03*
X82550000Y-76000000D03*
X82750000Y-31800000D03*
X83550000Y-8500000D03*
X84150000Y-10400000D03*
X84150000Y-68400000D03*
X85150000Y-10400000D03*
X85350000Y-64300000D03*
X85750000Y-8500000D03*
X87050000Y-8650000D03*
X87050000Y-9500000D03*
X87150000Y-10800000D03*
X88950000Y-61300000D03*
X89150000Y-72200000D03*
X89750000Y-10800000D03*
X91779000Y-59951000D03*
X92500000Y-12400000D03*
X92500000Y-13250000D03*
X93176000Y-36075000D03*
X93250000Y-21600000D03*
X94750000Y-72500000D03*
X95000000Y-44050000D03*
X95050000Y-46200000D03*
X95500000Y-53600000D03*
X95650000Y-19100000D03*
X95650000Y-20000000D03*
X95650000Y-20900000D03*
X95650000Y-33900000D03*
X96150000Y-60300000D03*
X97748000Y-19615600D03*
X97875000Y-38615000D03*
X99150000Y-57600000D03*
X99350000Y-63300000D03*
X100397000Y-62200000D03*
X102150000Y-57600000D03*
X102350000Y-67300000D03*
X103850000Y-48800000D03*
X104950000Y-23400000D03*
X104950000Y-60400000D03*
X105050000Y-43700000D03*
X107550000Y-23400000D03*
X109940000Y-79128000D03*
X112750000Y-60800000D03*
X112950000Y-16600000D03*
X112950000Y-22400000D03*
X112950000Y-36000000D03*
X112950000Y-41200000D03*
X112950000Y-55000000D03*
D11*
%TO.C,J10*%
X80330000Y-2540000D02*
X80330000Y-1740000D01*
X80330000Y-6860000D02*
X80330000Y-5760000D01*
X88970000Y-2540000D02*
X88970000Y-1740000D01*
X88970000Y-6860000D02*
X88970000Y-5760000D01*
D12*
%TO.C,J5*%
X57176000Y-26296000D03*
X57176000Y-32896000D03*
%TO.C,J4*%
X52860000Y-6750000D03*
X55400000Y-6750000D03*
M02*
