M48
; DRILL file {KiCad (5.1.2)-2} date 2019-10-07 16:49:07
; FORMAT={2:4/ absolute / inch / suppress leading zeros}
; #@! TF.CreationDate,2019-10-07T16:49:07+02:00
; #@! TF.GenerationSoftware,Kicad,Pcbnew,(5.1.2)-2
; #@! TF.FileFunction,Plated,1,2,PTH
FMAT,2
INCH,TZ
T1C0.0157
T2C0.0236
T3C0.0394
%
G90
G05
T1
X413Y-29094
X531Y-26850
X2224Y-30709
X4744Y-24409
X4941Y-29843
X5531Y-25906
X6004Y-25512
X6634Y-8346
X6733Y-14253
X6733Y-21703
X7205Y-12677
X7233Y-27353
X7583Y-20315
X7683Y-13603
X7815Y-17283
X7815Y-18425
X8583Y-15203
X9114Y-4173
X9114Y-26142
X9213Y-7323
X9232Y-25000
X9469Y-4173
X9508Y-10197
X9626Y-27008
X9744Y-25630
X9862Y-3931
X9862Y-12362
X9902Y-5236
X10138Y-24606
X10163Y-3583
X10335Y-26142
X10413Y-11122
X11233Y-3653
X11280Y-4862
X11319Y-30906
X11555Y-12362
X11634Y-15945
X11909Y-4961
X11933Y-23853
X12067Y-8504
X12264Y-19921
X12343Y-13268
X12440Y-2658
X12461Y-16496
X12533Y-5153
X12657Y-5709
X12657Y-6299
X12783Y-1753
X12933Y-5153
X13283Y-11053
X13661Y-2028
X13799Y-9134
X13996Y-30354
X14376Y-6704
X14764Y-10768
X14803Y-10177
X14918Y-4493
X15020Y-25709
X15098Y-13110
X15118Y-1890
X15197Y-10000
X15229Y-7462
X15295Y-8150
X15374Y-24764
X15453Y-6811
X15453Y-18096
X15453Y-18661
X15686Y-2271
X15768Y-2638
X15807Y-7520
X15933Y-30446
X16043Y-28976
X16122Y-2067
X16161Y-6240
X16280Y-7520
X16283Y-26953
X16791Y-3425
X16791Y-25354
X16870Y-5039
X16909Y-12402
X17205Y-10374
X17224Y-9843
X17264Y-5000
X17736Y-30000
X17815Y-9665
X17972Y-4134
X18041Y-1860
X18327Y-27874
X18366Y-1860
X18602Y-19921
X18642Y-4134
X18661Y-8878
X18733Y-8253
X19193Y-17717
X19232Y-13031
X19233Y-7953
X19333Y-7553
X19449Y-9154
X19626Y-30000
X19764Y-9469
X19980Y-6063
X19980Y-6535
X19980Y-14134
X20512Y-9055
X20591Y-4665
X20925Y-9567
X21083Y-12677
X21161Y-11378
X21240Y-29961
X21433Y-23753
X21633Y-14003
X21783Y-8503
X21909Y-3681
X21949Y-6496
X21988Y-17717
X22483Y-26653
X22618Y-8504
X22733Y-7803
X23130Y-3819
X23583Y-15203
X23654Y-7382
X23733Y-22603
X24114Y-17717
X24833Y-29903
X24941Y-20079
X25033Y-7453
X25177Y-26811
X26201Y-12441
X27233Y-8803
X27480Y-4232
X27500Y-2756
X27500Y-20472
X27657Y-26102
X28839Y-29921
X28917Y-17677
X29193Y-9016
X29272Y-5433
X29646Y-25925
X30098Y-7323
X30217Y-26063
X30256Y-10945
X30413Y-7992
X30413Y-18780
X30709Y-29921
X30906Y-5000
X30906Y-5394
X30906Y-5846
X31183Y-27003
X31280Y-19528
X31437Y-5866
X31870Y-25000
X32303Y-4449
X32382Y-3406
X32382Y-3740
X32500Y-6378
X32500Y-6772
X32500Y-7126
X32500Y-22323
X32500Y-29921
X32579Y-12520
X32894Y-3346
X33130Y-4094
X33130Y-26929
X33524Y-4094
X33602Y-25315
X33760Y-3346
X34272Y-3406
X34272Y-3740
X34311Y-4252
X35020Y-24134
X35098Y-28425
X35335Y-4252
X36133Y-23603
X36417Y-4882
X36417Y-5217
X36683Y-14203
X36713Y-8504
X37303Y-28543
X37402Y-17343
X37421Y-18189
X37598Y-21102
X37657Y-7520
X37657Y-7874
X37657Y-8228
X37657Y-13346
X37854Y-23740
X38483Y-7723
X38533Y-15203
X39035Y-22677
X39114Y-24921
X39526Y-24488
X40217Y-22677
X40295Y-26496
X40886Y-19213
X41319Y-9213
X41319Y-23780
X41358Y-17205
X42343Y-9213
X43283Y-31153
X44390Y-23937
X44469Y-6535
X44469Y-8819
X44469Y-14173
X44469Y-16220
X44469Y-21654
T3
X20811Y-2657
X21811Y-2657
X22510Y-10353
X22510Y-12951
T2
G00X31626Y-685
M15
G01X31626Y-1000
M16
G05
G00X31626Y-2268
M15
G01X31626Y-2701
M16
G05
G00X35028Y-685
M15
G01X35028Y-1000
M16
G05
G00X35028Y-2268
M15
G01X35028Y-2701
M16
G05
T0
M30
