G04 #@! TF.GenerationSoftware,KiCad,Pcbnew,(5.1.2)-2*
G04 #@! TF.CreationDate,2019-10-07T16:49:04+02:00*
G04 #@! TF.ProjectId,vitamins_included,76697461-6d69-46e7-935f-696e636c7564,rev?*
G04 #@! TF.SameCoordinates,Original*
G04 #@! TF.FileFunction,Legend,Bot*
G04 #@! TF.FilePolarity,Positive*
%FSLAX46Y46*%
G04 Gerber Fmt 4.6, Leading zero omitted, Abs format (unit mm)*
G04 Created by KiCad (PCBNEW (5.1.2)-2) date 2019-10-07 16:49:04*
%MOMM*%
%LPD*%
G04 APERTURE LIST*
%ADD10C,0.150000*%
%ADD11C,0.300000*%
%ADD12C,0.350000*%
%ADD13C,0.260000*%
%ADD14C,0.200000*%
%ADD15C,0.120000*%
%ADD16C,0.066040*%
%ADD17C,0.127000*%
%ADD18C,0.100000*%
%ADD19C,0.010000*%
%ADD20C,0.101600*%
G04 APERTURE END LIST*
D10*
X36840476Y-6628571D02*
X36507142Y-6628571D01*
X36364285Y-7152380D02*
X36840476Y-7152380D01*
X36840476Y-6152380D01*
X36364285Y-6152380D01*
X35507142Y-6152380D02*
X35697619Y-6152380D01*
X35792857Y-6200000D01*
X35840476Y-6247619D01*
X35935714Y-6390476D01*
X35983333Y-6580952D01*
X35983333Y-6961904D01*
X35935714Y-7057142D01*
X35888095Y-7104761D01*
X35792857Y-7152380D01*
X35602380Y-7152380D01*
X35507142Y-7104761D01*
X35459523Y-7057142D01*
X35411904Y-6961904D01*
X35411904Y-6723809D01*
X35459523Y-6628571D01*
X35507142Y-6580952D01*
X35602380Y-6533333D01*
X35792857Y-6533333D01*
X35888095Y-6580952D01*
X35935714Y-6628571D01*
X35983333Y-6723809D01*
D11*
X34721428Y-3250000D02*
X33578571Y-3250000D01*
X34150000Y-3783333D02*
X34150000Y-2716666D01*
X58721428Y-8250000D02*
X57578571Y-8250000D01*
X58150000Y-8783333D02*
X58150000Y-7716666D01*
D10*
X42988095Y-15752380D02*
X42988095Y-14752380D01*
X42750000Y-14752380D01*
X42607142Y-14800000D01*
X42511904Y-14895238D01*
X42464285Y-14990476D01*
X42416666Y-15180952D01*
X42416666Y-15323809D01*
X42464285Y-15514285D01*
X42511904Y-15609523D01*
X42607142Y-15704761D01*
X42750000Y-15752380D01*
X42988095Y-15752380D01*
X42083333Y-14752380D02*
X41464285Y-14752380D01*
X41797619Y-15133333D01*
X41654761Y-15133333D01*
X41559523Y-15180952D01*
X41511904Y-15228571D01*
X41464285Y-15323809D01*
X41464285Y-15561904D01*
X41511904Y-15657142D01*
X41559523Y-15704761D01*
X41654761Y-15752380D01*
X41940476Y-15752380D01*
X42035714Y-15704761D01*
X42083333Y-15657142D01*
D11*
X110697857Y-13678571D02*
X110697857Y-12678571D01*
X110697857Y-12964285D02*
X110626428Y-12821428D01*
X110555000Y-12750000D01*
X110412142Y-12678571D01*
X110269285Y-12678571D01*
X109197857Y-13607142D02*
X109340714Y-13678571D01*
X109626428Y-13678571D01*
X109769285Y-13607142D01*
X109840714Y-13464285D01*
X109840714Y-12892857D01*
X109769285Y-12750000D01*
X109626428Y-12678571D01*
X109340714Y-12678571D01*
X109197857Y-12750000D01*
X109126428Y-12892857D01*
X109126428Y-13035714D01*
X109840714Y-13178571D01*
X108626428Y-12678571D02*
X108269285Y-13678571D01*
X107912142Y-12678571D01*
X107412142Y-12321428D02*
X107340714Y-12250000D01*
X107197857Y-12178571D01*
X106840714Y-12178571D01*
X106697857Y-12250000D01*
X106626428Y-12321428D01*
X106555000Y-12464285D01*
X106555000Y-12607142D01*
X106626428Y-12821428D01*
X107483571Y-13678571D01*
X106555000Y-13678571D01*
X105912142Y-13535714D02*
X105840714Y-13607142D01*
X105912142Y-13678571D01*
X105983571Y-13607142D01*
X105912142Y-13535714D01*
X105912142Y-13678571D01*
X104412142Y-13678571D02*
X105269285Y-13678571D01*
X104840714Y-13678571D02*
X104840714Y-12178571D01*
X104983571Y-12392857D01*
X105126428Y-12535714D01*
X105269285Y-12607142D01*
X74283571Y-2178571D02*
X74997857Y-2178571D01*
X74997857Y-678571D01*
X73212142Y-2107142D02*
X73355000Y-2178571D01*
X73640714Y-2178571D01*
X73783571Y-2107142D01*
X73855000Y-1964285D01*
X73855000Y-1392857D01*
X73783571Y-1250000D01*
X73640714Y-1178571D01*
X73355000Y-1178571D01*
X73212142Y-1250000D01*
X73140714Y-1392857D01*
X73140714Y-1535714D01*
X73855000Y-1678571D01*
X72712142Y-1178571D02*
X72140714Y-1178571D01*
X72497857Y-678571D02*
X72497857Y-1964285D01*
X72426428Y-2107142D01*
X72283571Y-2178571D01*
X72140714Y-2178571D01*
X71569285Y-678571D02*
X71712142Y-964285D01*
X70997857Y-2107142D02*
X70855000Y-2178571D01*
X70569285Y-2178571D01*
X70426428Y-2107142D01*
X70355000Y-1964285D01*
X70355000Y-1892857D01*
X70426428Y-1750000D01*
X70569285Y-1678571D01*
X70783571Y-1678571D01*
X70926428Y-1607142D01*
X70997857Y-1464285D01*
X70997857Y-1392857D01*
X70926428Y-1250000D01*
X70783571Y-1178571D01*
X70569285Y-1178571D01*
X70426428Y-1250000D01*
X68640714Y-2107142D02*
X68426428Y-2178571D01*
X68069285Y-2178571D01*
X67926428Y-2107142D01*
X67855000Y-2035714D01*
X67783571Y-1892857D01*
X67783571Y-1750000D01*
X67855000Y-1607142D01*
X67926428Y-1535714D01*
X68069285Y-1464285D01*
X68355000Y-1392857D01*
X68497857Y-1321428D01*
X68569285Y-1250000D01*
X68640714Y-1107142D01*
X68640714Y-964285D01*
X68569285Y-821428D01*
X68497857Y-750000D01*
X68355000Y-678571D01*
X67997857Y-678571D01*
X67783571Y-750000D01*
X67140714Y-1178571D02*
X67140714Y-2678571D01*
X67140714Y-1250000D02*
X66997857Y-1178571D01*
X66712142Y-1178571D01*
X66569285Y-1250000D01*
X66497857Y-1321428D01*
X66426428Y-1464285D01*
X66426428Y-1892857D01*
X66497857Y-2035714D01*
X66569285Y-2107142D01*
X66712142Y-2178571D01*
X66997857Y-2178571D01*
X67140714Y-2107142D01*
X65569285Y-2178571D02*
X65712142Y-2107142D01*
X65783571Y-1964285D01*
X65783571Y-678571D01*
X64997857Y-2178571D02*
X64997857Y-1178571D01*
X64997857Y-678571D02*
X65069285Y-750000D01*
X64997857Y-821428D01*
X64926428Y-750000D01*
X64997857Y-678571D01*
X64997857Y-821428D01*
X64497857Y-1178571D02*
X63926428Y-1178571D01*
X64283571Y-678571D02*
X64283571Y-1964285D01*
X64212142Y-2107142D01*
X64069285Y-2178571D01*
X63926428Y-2178571D01*
X63355000Y-2107142D02*
X63355000Y-2178571D01*
X63426428Y-2321428D01*
X63497857Y-2392857D01*
X61712142Y-1178571D02*
X61354999Y-2178571D01*
X60997857Y-1178571D01*
X60426428Y-2178571D02*
X60426428Y-1178571D01*
X60426428Y-678571D02*
X60497857Y-750000D01*
X60426428Y-821428D01*
X60355000Y-750000D01*
X60426428Y-678571D01*
X60426428Y-821428D01*
X59926428Y-1178571D02*
X59355000Y-1178571D01*
X59712142Y-678571D02*
X59712142Y-1964285D01*
X59640714Y-2107142D01*
X59497857Y-2178571D01*
X59355000Y-2178571D01*
X58212142Y-2178571D02*
X58212142Y-1392857D01*
X58283571Y-1250000D01*
X58426428Y-1178571D01*
X58712142Y-1178571D01*
X58855000Y-1250000D01*
X58212142Y-2107142D02*
X58355000Y-2178571D01*
X58712142Y-2178571D01*
X58855000Y-2107142D01*
X58926428Y-1964285D01*
X58926428Y-1821428D01*
X58855000Y-1678571D01*
X58712142Y-1607142D01*
X58355000Y-1607142D01*
X58212142Y-1535714D01*
X57497857Y-2178571D02*
X57497857Y-1178571D01*
X57497857Y-1321428D02*
X57426428Y-1250000D01*
X57283571Y-1178571D01*
X57069285Y-1178571D01*
X56926428Y-1250000D01*
X56855000Y-1392857D01*
X56855000Y-2178571D01*
X56855000Y-1392857D02*
X56783571Y-1250000D01*
X56640714Y-1178571D01*
X56426428Y-1178571D01*
X56283571Y-1250000D01*
X56212142Y-1392857D01*
X56212142Y-2178571D01*
X55497857Y-2178571D02*
X55497857Y-1178571D01*
X55497857Y-678571D02*
X55569285Y-750000D01*
X55497857Y-821428D01*
X55426428Y-750000D01*
X55497857Y-678571D01*
X55497857Y-821428D01*
X54783571Y-1178571D02*
X54783571Y-2178571D01*
X54783571Y-1321428D02*
X54712142Y-1250000D01*
X54569285Y-1178571D01*
X54355000Y-1178571D01*
X54212142Y-1250000D01*
X54140714Y-1392857D01*
X54140714Y-2178571D01*
X53497857Y-2107142D02*
X53355000Y-2178571D01*
X53069285Y-2178571D01*
X52926428Y-2107142D01*
X52855000Y-1964285D01*
X52855000Y-1892857D01*
X52926428Y-1750000D01*
X53069285Y-1678571D01*
X53283571Y-1678571D01*
X53426428Y-1607142D01*
X53497857Y-1464285D01*
X53497857Y-1392857D01*
X53426428Y-1250000D01*
X53283571Y-1178571D01*
X53069285Y-1178571D01*
X52926428Y-1250000D01*
X51069285Y-2178571D02*
X51069285Y-1178571D01*
X51069285Y-678571D02*
X51140714Y-750000D01*
X51069285Y-821428D01*
X50997857Y-750000D01*
X51069285Y-678571D01*
X51069285Y-821428D01*
X50355000Y-1178571D02*
X50355000Y-2178571D01*
X50355000Y-1321428D02*
X50283571Y-1250000D01*
X50140714Y-1178571D01*
X49926428Y-1178571D01*
X49783571Y-1250000D01*
X49712142Y-1392857D01*
X49712142Y-2178571D01*
X48355000Y-2107142D02*
X48497857Y-2178571D01*
X48783571Y-2178571D01*
X48926428Y-2107142D01*
X48997857Y-2035714D01*
X49069285Y-1892857D01*
X49069285Y-1464285D01*
X48997857Y-1321428D01*
X48926428Y-1250000D01*
X48783571Y-1178571D01*
X48497857Y-1178571D01*
X48355000Y-1250000D01*
X47497857Y-2178571D02*
X47640714Y-2107142D01*
X47712142Y-1964285D01*
X47712142Y-678571D01*
X46283571Y-1178571D02*
X46283571Y-2178571D01*
X46926428Y-1178571D02*
X46926428Y-1964285D01*
X46855000Y-2107142D01*
X46712142Y-2178571D01*
X46497857Y-2178571D01*
X46355000Y-2107142D01*
X46283571Y-2035714D01*
X44926428Y-2178571D02*
X44926428Y-678571D01*
X44926428Y-2107142D02*
X45069285Y-2178571D01*
X45355000Y-2178571D01*
X45497857Y-2107142D01*
X45569285Y-2035714D01*
X45640714Y-1892857D01*
X45640714Y-1464285D01*
X45569285Y-1321428D01*
X45497857Y-1250000D01*
X45355000Y-1178571D01*
X45069285Y-1178571D01*
X44926428Y-1250000D01*
X43640714Y-2107142D02*
X43783571Y-2178571D01*
X44069285Y-2178571D01*
X44212142Y-2107142D01*
X44283571Y-1964285D01*
X44283571Y-1392857D01*
X44212142Y-1250000D01*
X44069285Y-1178571D01*
X43783571Y-1178571D01*
X43640714Y-1250000D01*
X43569285Y-1392857D01*
X43569285Y-1535714D01*
X44283571Y-1678571D01*
X42283571Y-2178571D02*
X42283571Y-678571D01*
X42283571Y-2107142D02*
X42426428Y-2178571D01*
X42712142Y-2178571D01*
X42854999Y-2107142D01*
X42926428Y-2035714D01*
X42997857Y-1892857D01*
X42997857Y-1464285D01*
X42926428Y-1321428D01*
X42854999Y-1250000D01*
X42712142Y-1178571D01*
X42426428Y-1178571D01*
X42283571Y-1250000D01*
X40426428Y-2178571D02*
X40426428Y-678571D01*
X40426428Y-1250000D02*
X40283571Y-1178571D01*
X39997857Y-1178571D01*
X39855000Y-1250000D01*
X39783571Y-1321428D01*
X39712142Y-1464285D01*
X39712142Y-1892857D01*
X39783571Y-2035714D01*
X39855000Y-2107142D01*
X39997857Y-2178571D01*
X40283571Y-2178571D01*
X40426428Y-2107142D01*
X39212142Y-1178571D02*
X38855000Y-2178571D01*
X38497857Y-1178571D02*
X38855000Y-2178571D01*
X38997857Y-2535714D01*
X39069285Y-2607142D01*
X39212142Y-2678571D01*
X36783571Y-2178571D02*
X36783571Y-678571D01*
X36426428Y-678571D01*
X36212142Y-750000D01*
X36069285Y-892857D01*
X35997857Y-1035714D01*
X35926428Y-1321428D01*
X35926428Y-1535714D01*
X35997857Y-1821428D01*
X36069285Y-1964285D01*
X36212142Y-2107142D01*
X36426428Y-2178571D01*
X36783571Y-2178571D01*
X34640714Y-1178571D02*
X34640714Y-2178571D01*
X35283571Y-1178571D02*
X35283571Y-1964285D01*
X35212142Y-2107142D01*
X35069285Y-2178571D01*
X34855000Y-2178571D01*
X34712142Y-2107142D01*
X34640714Y-2035714D01*
X33283571Y-2107142D02*
X33426428Y-2178571D01*
X33712142Y-2178571D01*
X33855000Y-2107142D01*
X33926428Y-2035714D01*
X33997857Y-1892857D01*
X33997857Y-1464285D01*
X33926428Y-1321428D01*
X33855000Y-1250000D01*
X33712142Y-1178571D01*
X33426428Y-1178571D01*
X33283571Y-1250000D01*
X32640714Y-2178571D02*
X32640714Y-678571D01*
X32497857Y-1607142D02*
X32069285Y-2178571D01*
X32069285Y-1178571D02*
X32640714Y-1750000D01*
X31212142Y-2178571D02*
X31355000Y-2107142D01*
X31426428Y-1964285D01*
X31426428Y-678571D01*
X30069285Y-2107142D02*
X30212142Y-2178571D01*
X30497857Y-2178571D01*
X30640714Y-2107142D01*
X30712142Y-1964285D01*
X30712142Y-1392857D01*
X30640714Y-1250000D01*
X30497857Y-1178571D01*
X30212142Y-1178571D01*
X30069285Y-1250000D01*
X29997857Y-1392857D01*
X29997857Y-1535714D01*
X30712142Y-1678571D01*
X29426428Y-821428D02*
X29355000Y-750000D01*
X29212142Y-678571D01*
X28855000Y-678571D01*
X28712142Y-750000D01*
X28640714Y-821428D01*
X28569285Y-964285D01*
X28569285Y-1107142D01*
X28640714Y-1321428D01*
X29497857Y-2178571D01*
X28569285Y-2178571D01*
X27855000Y-2178571D02*
X27569285Y-2178571D01*
X27426428Y-2107142D01*
X27355000Y-2035714D01*
X27212142Y-1821428D01*
X27140714Y-1535714D01*
X27140714Y-964285D01*
X27212142Y-821428D01*
X27283571Y-750000D01*
X27426428Y-678571D01*
X27712142Y-678571D01*
X27855000Y-750000D01*
X27926428Y-821428D01*
X27997857Y-964285D01*
X27997857Y-1321428D01*
X27926428Y-1464285D01*
X27855000Y-1535714D01*
X27712142Y-1607142D01*
X27426428Y-1607142D01*
X27283571Y-1535714D01*
X27212142Y-1464285D01*
X27140714Y-1321428D01*
D10*
X68392857Y-14742857D02*
X68792857Y-14171428D01*
X69078571Y-14742857D02*
X69078571Y-13542857D01*
X68621428Y-13542857D01*
X68507142Y-13600000D01*
X68450000Y-13657142D01*
X68392857Y-13771428D01*
X68392857Y-13942857D01*
X68450000Y-14057142D01*
X68507142Y-14114285D01*
X68621428Y-14171428D01*
X69078571Y-14171428D01*
X67878571Y-14114285D02*
X67478571Y-14114285D01*
X67307142Y-14742857D02*
X67878571Y-14742857D01*
X67878571Y-13542857D01*
X67307142Y-13542857D01*
X66850000Y-14685714D02*
X66678571Y-14742857D01*
X66392857Y-14742857D01*
X66278571Y-14685714D01*
X66221428Y-14628571D01*
X66164285Y-14514285D01*
X66164285Y-14400000D01*
X66221428Y-14285714D01*
X66278571Y-14228571D01*
X66392857Y-14171428D01*
X66621428Y-14114285D01*
X66735714Y-14057142D01*
X66792857Y-14000000D01*
X66850000Y-13885714D01*
X66850000Y-13771428D01*
X66792857Y-13657142D01*
X66735714Y-13600000D01*
X66621428Y-13542857D01*
X66335714Y-13542857D01*
X66164285Y-13600000D01*
X65650000Y-14114285D02*
X65250000Y-14114285D01*
X65078571Y-14742857D02*
X65650000Y-14742857D01*
X65650000Y-13542857D01*
X65078571Y-13542857D01*
X64735714Y-13542857D02*
X64050000Y-13542857D01*
X64392857Y-14742857D02*
X64392857Y-13542857D01*
D11*
X54071428Y-9600000D02*
X52928571Y-9600000D01*
D10*
X43388095Y-19252380D02*
X43388095Y-18252380D01*
X43150000Y-18252380D01*
X43007142Y-18300000D01*
X42911904Y-18395238D01*
X42864285Y-18490476D01*
X42816666Y-18680952D01*
X42816666Y-18823809D01*
X42864285Y-19014285D01*
X42911904Y-19109523D01*
X43007142Y-19204761D01*
X43150000Y-19252380D01*
X43388095Y-19252380D01*
X41959523Y-18585714D02*
X41959523Y-19252380D01*
X42197619Y-18204761D02*
X42435714Y-18919047D01*
X41816666Y-18919047D01*
X52988095Y-15702380D02*
X52988095Y-14702380D01*
X52750000Y-14702380D01*
X52607142Y-14750000D01*
X52511904Y-14845238D01*
X52464285Y-14940476D01*
X52416666Y-15130952D01*
X52416666Y-15273809D01*
X52464285Y-15464285D01*
X52511904Y-15559523D01*
X52607142Y-15654761D01*
X52750000Y-15702380D01*
X52988095Y-15702380D01*
X52035714Y-14797619D02*
X51988095Y-14750000D01*
X51892857Y-14702380D01*
X51654761Y-14702380D01*
X51559523Y-14750000D01*
X51511904Y-14797619D01*
X51464285Y-14892857D01*
X51464285Y-14988095D01*
X51511904Y-15130952D01*
X52083333Y-15702380D01*
X51464285Y-15702380D01*
X42554761Y-3378571D02*
X42411904Y-3426190D01*
X42364285Y-3473809D01*
X42316666Y-3569047D01*
X42316666Y-3711904D01*
X42364285Y-3807142D01*
X42411904Y-3854761D01*
X42507142Y-3902380D01*
X42888095Y-3902380D01*
X42888095Y-2902380D01*
X42554761Y-2902380D01*
X42459523Y-2950000D01*
X42411904Y-2997619D01*
X42364285Y-3092857D01*
X42364285Y-3188095D01*
X42411904Y-3283333D01*
X42459523Y-3330952D01*
X42554761Y-3378571D01*
X42888095Y-3378571D01*
X41697619Y-2902380D02*
X41602380Y-2902380D01*
X41507142Y-2950000D01*
X41459523Y-2997619D01*
X41411904Y-3092857D01*
X41364285Y-3283333D01*
X41364285Y-3521428D01*
X41411904Y-3711904D01*
X41459523Y-3807142D01*
X41507142Y-3854761D01*
X41602380Y-3902380D01*
X41697619Y-3902380D01*
X41792857Y-3854761D01*
X41840476Y-3807142D01*
X41888095Y-3711904D01*
X41935714Y-3521428D01*
X41935714Y-3283333D01*
X41888095Y-3092857D01*
X41840476Y-2997619D01*
X41792857Y-2950000D01*
X41697619Y-2902380D01*
X44154761Y-7628571D02*
X44011904Y-7676190D01*
X43964285Y-7723809D01*
X43916666Y-7819047D01*
X43916666Y-7961904D01*
X43964285Y-8057142D01*
X44011904Y-8104761D01*
X44107142Y-8152380D01*
X44488095Y-8152380D01*
X44488095Y-7152380D01*
X44154761Y-7152380D01*
X44059523Y-7200000D01*
X44011904Y-7247619D01*
X43964285Y-7342857D01*
X43964285Y-7438095D01*
X44011904Y-7533333D01*
X44059523Y-7580952D01*
X44154761Y-7628571D01*
X44488095Y-7628571D01*
X43583333Y-7152380D02*
X42916666Y-7152380D01*
X43345238Y-8152380D01*
D11*
X57379261Y-28166857D02*
X58369738Y-28166857D01*
X57874500Y-28662095D02*
X57874500Y-27671619D01*
X64568476Y-52433904D02*
X66949428Y-52433904D01*
X66949428Y-47433904D01*
X62901809Y-49814857D02*
X61235142Y-49814857D01*
X60520857Y-52433904D02*
X62901809Y-52433904D01*
X62901809Y-47433904D01*
X60520857Y-47433904D01*
X59092285Y-47433904D02*
X56235142Y-47433904D01*
X57663714Y-52433904D02*
X57663714Y-47433904D01*
X54330380Y-47433904D02*
X54806571Y-48386285D01*
X52425619Y-52195809D02*
X51711333Y-52433904D01*
X50520857Y-52433904D01*
X50044666Y-52195809D01*
X49806571Y-51957714D01*
X49568476Y-51481523D01*
X49568476Y-51005333D01*
X49806571Y-50529142D01*
X50044666Y-50291047D01*
X50520857Y-50052952D01*
X51473238Y-49814857D01*
X51949428Y-49576761D01*
X52187523Y-49338666D01*
X52425619Y-48862476D01*
X52425619Y-48386285D01*
X52187523Y-47910095D01*
X51949428Y-47672000D01*
X51473238Y-47433904D01*
X50282761Y-47433904D01*
X49568476Y-47672000D01*
X74712142Y-3128571D02*
X74426428Y-3128571D01*
X74283571Y-3200000D01*
X74140714Y-3342857D01*
X74069285Y-3628571D01*
X74069285Y-4128571D01*
X74140714Y-4414285D01*
X74283571Y-4557142D01*
X74426428Y-4628571D01*
X74712142Y-4628571D01*
X74855000Y-4557142D01*
X74997857Y-4414285D01*
X75069285Y-4128571D01*
X75069285Y-3628571D01*
X74997857Y-3342857D01*
X74855000Y-3200000D01*
X74712142Y-3128571D01*
X73426428Y-4628571D02*
X73426428Y-3628571D01*
X73426428Y-3914285D02*
X73355000Y-3771428D01*
X73283571Y-3700000D01*
X73140714Y-3628571D01*
X72997857Y-3628571D01*
X72497857Y-4628571D02*
X72497857Y-3628571D01*
X72497857Y-3128571D02*
X72569285Y-3200000D01*
X72497857Y-3271428D01*
X72426428Y-3200000D01*
X72497857Y-3128571D01*
X72497857Y-3271428D01*
X71140714Y-3628571D02*
X71140714Y-4842857D01*
X71212142Y-4985714D01*
X71283571Y-5057142D01*
X71426428Y-5128571D01*
X71640714Y-5128571D01*
X71783571Y-5057142D01*
X71140714Y-4557142D02*
X71283571Y-4628571D01*
X71569285Y-4628571D01*
X71712142Y-4557142D01*
X71783571Y-4485714D01*
X71855000Y-4342857D01*
X71855000Y-3914285D01*
X71783571Y-3771428D01*
X71712142Y-3700000D01*
X71569285Y-3628571D01*
X71283571Y-3628571D01*
X71140714Y-3700000D01*
X70426428Y-4628571D02*
X70426428Y-3628571D01*
X70426428Y-3128571D02*
X70497857Y-3200000D01*
X70426428Y-3271428D01*
X70355000Y-3200000D01*
X70426428Y-3128571D01*
X70426428Y-3271428D01*
X69712142Y-3628571D02*
X69712142Y-4628571D01*
X69712142Y-3771428D02*
X69640714Y-3700000D01*
X69497857Y-3628571D01*
X69283571Y-3628571D01*
X69140714Y-3700000D01*
X69069285Y-3842857D01*
X69069285Y-4628571D01*
X67712142Y-4628571D02*
X67712142Y-3842857D01*
X67783571Y-3700000D01*
X67926428Y-3628571D01*
X68212142Y-3628571D01*
X68355000Y-3700000D01*
X67712142Y-4557142D02*
X67855000Y-4628571D01*
X68212142Y-4628571D01*
X68355000Y-4557142D01*
X68426428Y-4414285D01*
X68426428Y-4271428D01*
X68355000Y-4128571D01*
X68212142Y-4057142D01*
X67855000Y-4057142D01*
X67712142Y-3985714D01*
X66783571Y-4628571D02*
X66926428Y-4557142D01*
X66997857Y-4414285D01*
X66997857Y-3128571D01*
X74997857Y-7178571D02*
X74997857Y-5678571D01*
X74997857Y-6250000D02*
X74855000Y-6178571D01*
X74569285Y-6178571D01*
X74426428Y-6250000D01*
X74355000Y-6321428D01*
X74283571Y-6464285D01*
X74283571Y-6892857D01*
X74355000Y-7035714D01*
X74426428Y-7107142D01*
X74569285Y-7178571D01*
X74855000Y-7178571D01*
X74997857Y-7107142D01*
X73783571Y-6178571D02*
X73426428Y-7178571D01*
X73069285Y-6178571D02*
X73426428Y-7178571D01*
X73569285Y-7535714D01*
X73640714Y-7607142D01*
X73783571Y-7678571D01*
X75140714Y-8228571D02*
X74783571Y-9728571D01*
X74497857Y-8657142D01*
X74212142Y-9728571D01*
X73855000Y-8228571D01*
X73069285Y-9728571D02*
X73212142Y-9657142D01*
X73283571Y-9585714D01*
X73355000Y-9442857D01*
X73355000Y-9014285D01*
X73283571Y-8871428D01*
X73212142Y-8800000D01*
X73069285Y-8728571D01*
X72855000Y-8728571D01*
X72712142Y-8800000D01*
X72640714Y-8871428D01*
X72569285Y-9014285D01*
X72569285Y-9442857D01*
X72640714Y-9585714D01*
X72712142Y-9657142D01*
X72855000Y-9728571D01*
X73069285Y-9728571D01*
X71712142Y-9728571D02*
X71855000Y-9657142D01*
X71926428Y-9585714D01*
X71997857Y-9442857D01*
X71997857Y-9014285D01*
X71926428Y-8871428D01*
X71855000Y-8800000D01*
X71712142Y-8728571D01*
X71497857Y-8728571D01*
X71355000Y-8800000D01*
X71283571Y-8871428D01*
X71212142Y-9014285D01*
X71212142Y-9442857D01*
X71283571Y-9585714D01*
X71355000Y-9657142D01*
X71497857Y-9728571D01*
X71712142Y-9728571D01*
X70783571Y-8728571D02*
X70212142Y-8728571D01*
X70569285Y-8228571D02*
X70569285Y-9514285D01*
X70497857Y-9657142D01*
X70355000Y-9728571D01*
X70212142Y-9728571D01*
X69712142Y-8728571D02*
X69712142Y-10228571D01*
X69712142Y-8800000D02*
X69569285Y-8728571D01*
X69283571Y-8728571D01*
X69140714Y-8800000D01*
X69069285Y-8871428D01*
X68997857Y-9014285D01*
X68997857Y-9442857D01*
X69069285Y-9585714D01*
X69140714Y-9657142D01*
X69283571Y-9728571D01*
X69569285Y-9728571D01*
X69712142Y-9657142D01*
X67712142Y-9728571D02*
X67712142Y-8942857D01*
X67783571Y-8800000D01*
X67926428Y-8728571D01*
X68212142Y-8728571D01*
X68355000Y-8800000D01*
X67712142Y-9657142D02*
X67855000Y-9728571D01*
X68212142Y-9728571D01*
X68355000Y-9657142D01*
X68426428Y-9514285D01*
X68426428Y-9371428D01*
X68355000Y-9228571D01*
X68212142Y-9157142D01*
X67855000Y-9157142D01*
X67712142Y-9085714D01*
X67212142Y-8728571D02*
X66640714Y-8728571D01*
X66997857Y-8228571D02*
X66997857Y-9514285D01*
X66926428Y-9657142D01*
X66783571Y-9728571D01*
X66640714Y-9728571D01*
X65926428Y-9728571D02*
X66069285Y-9657142D01*
X66140714Y-9585714D01*
X66212142Y-9442857D01*
X66212142Y-9014285D01*
X66140714Y-8871428D01*
X66069285Y-8800000D01*
X65926428Y-8728571D01*
X65712142Y-8728571D01*
X65569285Y-8800000D01*
X65497857Y-8871428D01*
X65426428Y-9014285D01*
X65426428Y-9442857D01*
X65497857Y-9585714D01*
X65569285Y-9657142D01*
X65712142Y-9728571D01*
X65926428Y-9728571D01*
X64569285Y-9728571D02*
X64712142Y-9657142D01*
X64783571Y-9585714D01*
X64854999Y-9442857D01*
X64854999Y-9014285D01*
X64783571Y-8871428D01*
X64712142Y-8800000D01*
X64569285Y-8728571D01*
X64355000Y-8728571D01*
X64212142Y-8800000D01*
X64140714Y-8871428D01*
X64069285Y-9014285D01*
X64069285Y-9442857D01*
X64140714Y-9585714D01*
X64212142Y-9657142D01*
X64355000Y-9728571D01*
X64569285Y-9728571D01*
X63640714Y-8728571D02*
X63069285Y-8728571D01*
X63426428Y-8228571D02*
X63426428Y-9514285D01*
X63354999Y-9657142D01*
X63212142Y-9728571D01*
X63069285Y-9728571D01*
D12*
X94862833Y-79597809D02*
X94862833Y-78759714D01*
X94939023Y-78607333D01*
X95091404Y-78531142D01*
X95396166Y-78531142D01*
X95548547Y-78607333D01*
X94862833Y-79521619D02*
X95015214Y-79597809D01*
X95396166Y-79597809D01*
X95548547Y-79521619D01*
X95624738Y-79369238D01*
X95624738Y-79216857D01*
X95548547Y-79064476D01*
X95396166Y-78988285D01*
X95015214Y-78988285D01*
X94862833Y-78912095D01*
X94100928Y-78531142D02*
X94100928Y-79597809D01*
X94100928Y-78683523D02*
X94024738Y-78607333D01*
X93872357Y-78531142D01*
X93643785Y-78531142D01*
X93491404Y-78607333D01*
X93415214Y-78759714D01*
X93415214Y-79597809D01*
X91967595Y-79597809D02*
X91967595Y-77997809D01*
X91967595Y-79521619D02*
X92119976Y-79597809D01*
X92424738Y-79597809D01*
X92577119Y-79521619D01*
X92653309Y-79445428D01*
X92729500Y-79293047D01*
X92729500Y-78835904D01*
X92653309Y-78683523D01*
X92577119Y-78607333D01*
X92424738Y-78531142D01*
X92119976Y-78531142D01*
X91967595Y-78607333D01*
D11*
X30292857Y-7533333D02*
X30292857Y-6133333D01*
X29935714Y-6133333D01*
X29721428Y-6200000D01*
X29578571Y-6333333D01*
X29507142Y-6466666D01*
X29435714Y-6733333D01*
X29435714Y-6933333D01*
X29507142Y-7200000D01*
X29578571Y-7333333D01*
X29721428Y-7466666D01*
X29935714Y-7533333D01*
X30292857Y-7533333D01*
X27650000Y-7000000D02*
X26507142Y-7000000D01*
X55885714Y-79278571D02*
X55885714Y-80492857D01*
X55957142Y-80635714D01*
X56028571Y-80707142D01*
X56171428Y-80778571D01*
X56385714Y-80778571D01*
X56528571Y-80707142D01*
X55885714Y-80207142D02*
X56028571Y-80278571D01*
X56314285Y-80278571D01*
X56457142Y-80207142D01*
X56528571Y-80135714D01*
X56600000Y-79992857D01*
X56600000Y-79564285D01*
X56528571Y-79421428D01*
X56457142Y-79350000D01*
X56314285Y-79278571D01*
X56028571Y-79278571D01*
X55885714Y-79350000D01*
X55171428Y-80278571D02*
X55171428Y-79278571D01*
X55171428Y-78778571D02*
X55242857Y-78850000D01*
X55171428Y-78921428D01*
X55100000Y-78850000D01*
X55171428Y-78778571D01*
X55171428Y-78921428D01*
X54671428Y-79278571D02*
X54100000Y-79278571D01*
X54457142Y-78778571D02*
X54457142Y-80064285D01*
X54385714Y-80207142D01*
X54242857Y-80278571D01*
X54100000Y-80278571D01*
X53600000Y-80135714D02*
X53528571Y-80207142D01*
X53600000Y-80278571D01*
X53671428Y-80207142D01*
X53600000Y-80135714D01*
X53600000Y-80278571D01*
X52885714Y-80278571D02*
X52885714Y-79278571D01*
X52885714Y-78778571D02*
X52957142Y-78850000D01*
X52885714Y-78921428D01*
X52814285Y-78850000D01*
X52885714Y-78778571D01*
X52885714Y-78921428D01*
X51957142Y-80278571D02*
X52100000Y-80207142D01*
X52171428Y-80135714D01*
X52242857Y-79992857D01*
X52242857Y-79564285D01*
X52171428Y-79421428D01*
X52100000Y-79350000D01*
X51957142Y-79278571D01*
X51742857Y-79278571D01*
X51600000Y-79350000D01*
X51528571Y-79421428D01*
X51457142Y-79564285D01*
X51457142Y-79992857D01*
X51528571Y-80135714D01*
X51600000Y-80207142D01*
X51742857Y-80278571D01*
X51957142Y-80278571D01*
X49742857Y-78707142D02*
X51028571Y-80635714D01*
X49385714Y-79278571D02*
X49028571Y-80278571D01*
X48671428Y-79278571D01*
X48100000Y-80278571D02*
X48100000Y-79278571D01*
X48100000Y-78778571D02*
X48171428Y-78850000D01*
X48100000Y-78921428D01*
X48028571Y-78850000D01*
X48100000Y-78778571D01*
X48100000Y-78921428D01*
X47600000Y-79278571D02*
X47028571Y-79278571D01*
X47385714Y-78778571D02*
X47385714Y-80064285D01*
X47314285Y-80207142D01*
X47171428Y-80278571D01*
X47028571Y-80278571D01*
X45885714Y-80278571D02*
X45885714Y-79492857D01*
X45957142Y-79350000D01*
X46100000Y-79278571D01*
X46385714Y-79278571D01*
X46528571Y-79350000D01*
X45885714Y-80207142D02*
X46028571Y-80278571D01*
X46385714Y-80278571D01*
X46528571Y-80207142D01*
X46600000Y-80064285D01*
X46600000Y-79921428D01*
X46528571Y-79778571D01*
X46385714Y-79707142D01*
X46028571Y-79707142D01*
X45885714Y-79635714D01*
X45171428Y-79707142D02*
X44028571Y-79707142D01*
X43314285Y-80278571D02*
X43314285Y-79278571D01*
X43314285Y-78778571D02*
X43385714Y-78850000D01*
X43314285Y-78921428D01*
X43242857Y-78850000D01*
X43314285Y-78778571D01*
X43314285Y-78921428D01*
X42600000Y-79278571D02*
X42600000Y-80278571D01*
X42600000Y-79421428D02*
X42528571Y-79350000D01*
X42385714Y-79278571D01*
X42171428Y-79278571D01*
X42028571Y-79350000D01*
X41957142Y-79492857D01*
X41957142Y-80278571D01*
X40600000Y-80207142D02*
X40742857Y-80278571D01*
X41028571Y-80278571D01*
X41171428Y-80207142D01*
X41242857Y-80135714D01*
X41314285Y-79992857D01*
X41314285Y-79564285D01*
X41242857Y-79421428D01*
X41171428Y-79350000D01*
X41028571Y-79278571D01*
X40742857Y-79278571D01*
X40600000Y-79350000D01*
D13*
X112171476Y-31383095D02*
X112171476Y-30083095D01*
X111738142Y-31011666D01*
X111304809Y-30083095D01*
X111304809Y-31383095D01*
X110128619Y-31383095D02*
X110128619Y-30702142D01*
X110190523Y-30578333D01*
X110314333Y-30516428D01*
X110561952Y-30516428D01*
X110685761Y-30578333D01*
X110128619Y-31321190D02*
X110252428Y-31383095D01*
X110561952Y-31383095D01*
X110685761Y-31321190D01*
X110747666Y-31197380D01*
X110747666Y-31073571D01*
X110685761Y-30949761D01*
X110561952Y-30887857D01*
X110252428Y-30887857D01*
X110128619Y-30825952D01*
X108952428Y-31383095D02*
X108952428Y-30083095D01*
X108952428Y-31321190D02*
X109076238Y-31383095D01*
X109323857Y-31383095D01*
X109447666Y-31321190D01*
X109509571Y-31259285D01*
X109571476Y-31135476D01*
X109571476Y-30764047D01*
X109509571Y-30640238D01*
X109447666Y-30578333D01*
X109323857Y-30516428D01*
X109076238Y-30516428D01*
X108952428Y-30578333D01*
X107838142Y-31321190D02*
X107961952Y-31383095D01*
X108209571Y-31383095D01*
X108333380Y-31321190D01*
X108395285Y-31197380D01*
X108395285Y-30702142D01*
X108333380Y-30578333D01*
X108209571Y-30516428D01*
X107961952Y-30516428D01*
X107838142Y-30578333D01*
X107776238Y-30702142D01*
X107776238Y-30825952D01*
X108395285Y-30949761D01*
X106228619Y-31383095D02*
X106228619Y-30516428D01*
X106228619Y-30083095D02*
X106290523Y-30145000D01*
X106228619Y-30206904D01*
X106166714Y-30145000D01*
X106228619Y-30083095D01*
X106228619Y-30206904D01*
X105609571Y-30516428D02*
X105609571Y-31383095D01*
X105609571Y-30640238D02*
X105547666Y-30578333D01*
X105423857Y-30516428D01*
X105238142Y-30516428D01*
X105114333Y-30578333D01*
X105052428Y-30702142D01*
X105052428Y-31383095D01*
X112171476Y-32726428D02*
X112171476Y-34026428D01*
X112171476Y-32788333D02*
X112047666Y-32726428D01*
X111800047Y-32726428D01*
X111676238Y-32788333D01*
X111614333Y-32850238D01*
X111552428Y-32974047D01*
X111552428Y-33345476D01*
X111614333Y-33469285D01*
X111676238Y-33531190D01*
X111800047Y-33593095D01*
X112047666Y-33593095D01*
X112171476Y-33531190D01*
X110438142Y-33593095D02*
X110438142Y-32912142D01*
X110500047Y-32788333D01*
X110623857Y-32726428D01*
X110871476Y-32726428D01*
X110995285Y-32788333D01*
X110438142Y-33531190D02*
X110561952Y-33593095D01*
X110871476Y-33593095D01*
X110995285Y-33531190D01*
X111057190Y-33407380D01*
X111057190Y-33283571D01*
X110995285Y-33159761D01*
X110871476Y-33097857D01*
X110561952Y-33097857D01*
X110438142Y-33035952D01*
X109819095Y-33593095D02*
X109819095Y-32726428D01*
X109819095Y-32974047D02*
X109757190Y-32850238D01*
X109695285Y-32788333D01*
X109571476Y-32726428D01*
X109447666Y-32726428D01*
X109200047Y-32726428D02*
X108704809Y-32726428D01*
X109014333Y-32293095D02*
X109014333Y-33407380D01*
X108952428Y-33531190D01*
X108828619Y-33593095D01*
X108704809Y-33593095D01*
X108271476Y-32726428D02*
X108271476Y-33593095D01*
X108271476Y-32850238D02*
X108209571Y-32788333D01*
X108085761Y-32726428D01*
X107900047Y-32726428D01*
X107776238Y-32788333D01*
X107714333Y-32912142D01*
X107714333Y-33593095D01*
X106600047Y-33531190D02*
X106723857Y-33593095D01*
X106971476Y-33593095D01*
X107095285Y-33531190D01*
X107157190Y-33407380D01*
X107157190Y-32912142D01*
X107095285Y-32788333D01*
X106971476Y-32726428D01*
X106723857Y-32726428D01*
X106600047Y-32788333D01*
X106538142Y-32912142D01*
X106538142Y-33035952D01*
X107157190Y-33159761D01*
X105981000Y-33593095D02*
X105981000Y-32726428D01*
X105981000Y-32974047D02*
X105919095Y-32850238D01*
X105857190Y-32788333D01*
X105733380Y-32726428D01*
X105609571Y-32726428D01*
X105238142Y-33531190D02*
X105114333Y-33593095D01*
X104866714Y-33593095D01*
X104742904Y-33531190D01*
X104681000Y-33407380D01*
X104681000Y-33345476D01*
X104742904Y-33221666D01*
X104866714Y-33159761D01*
X105052428Y-33159761D01*
X105176238Y-33097857D01*
X105238142Y-32974047D01*
X105238142Y-32912142D01*
X105176238Y-32788333D01*
X105052428Y-32726428D01*
X104866714Y-32726428D01*
X104742904Y-32788333D01*
X104123857Y-33593095D02*
X104123857Y-32293095D01*
X103566714Y-33593095D02*
X103566714Y-32912142D01*
X103628619Y-32788333D01*
X103752428Y-32726428D01*
X103938142Y-32726428D01*
X104061952Y-32788333D01*
X104123857Y-32850238D01*
X102947666Y-33593095D02*
X102947666Y-32726428D01*
X102947666Y-32293095D02*
X103009571Y-32355000D01*
X102947666Y-32416904D01*
X102885761Y-32355000D01*
X102947666Y-32293095D01*
X102947666Y-32416904D01*
X102328619Y-32726428D02*
X102328619Y-34026428D01*
X102328619Y-32788333D02*
X102204809Y-32726428D01*
X101957190Y-32726428D01*
X101833380Y-32788333D01*
X101771476Y-32850238D01*
X101709571Y-32974047D01*
X101709571Y-33345476D01*
X101771476Y-33469285D01*
X101833380Y-33531190D01*
X101957190Y-33593095D01*
X102204809Y-33593095D01*
X102328619Y-33531190D01*
X100285761Y-32726428D02*
X100038142Y-33593095D01*
X99790523Y-32974047D01*
X99542904Y-33593095D01*
X99295285Y-32726428D01*
X98800047Y-33593095D02*
X98800047Y-32726428D01*
X98800047Y-32293095D02*
X98861952Y-32355000D01*
X98800047Y-32416904D01*
X98738142Y-32355000D01*
X98800047Y-32293095D01*
X98800047Y-32416904D01*
X98366714Y-32726428D02*
X97871476Y-32726428D01*
X98181000Y-32293095D02*
X98181000Y-33407380D01*
X98119095Y-33531190D01*
X97995285Y-33593095D01*
X97871476Y-33593095D01*
X97438142Y-33593095D02*
X97438142Y-32293095D01*
X96881000Y-33593095D02*
X96881000Y-32912142D01*
X96942904Y-32788333D01*
X97066714Y-32726428D01*
X97252428Y-32726428D01*
X97376238Y-32788333D01*
X97438142Y-32850238D01*
D14*
X106337857Y-79552571D02*
X106337857Y-78052571D01*
X105980714Y-78052571D01*
X105766428Y-78124000D01*
X105623571Y-78266857D01*
X105552142Y-78409714D01*
X105480714Y-78695428D01*
X105480714Y-78909714D01*
X105552142Y-79195428D01*
X105623571Y-79338285D01*
X105766428Y-79481142D01*
X105980714Y-79552571D01*
X106337857Y-79552571D01*
X104266428Y-79481142D02*
X104409285Y-79552571D01*
X104695000Y-79552571D01*
X104837857Y-79481142D01*
X104909285Y-79338285D01*
X104909285Y-78766857D01*
X104837857Y-78624000D01*
X104695000Y-78552571D01*
X104409285Y-78552571D01*
X104266428Y-78624000D01*
X104195000Y-78766857D01*
X104195000Y-78909714D01*
X104909285Y-79052571D01*
X103623571Y-79481142D02*
X103480714Y-79552571D01*
X103195000Y-79552571D01*
X103052142Y-79481142D01*
X102980714Y-79338285D01*
X102980714Y-79266857D01*
X103052142Y-79124000D01*
X103195000Y-79052571D01*
X103409285Y-79052571D01*
X103552142Y-78981142D01*
X103623571Y-78838285D01*
X103623571Y-78766857D01*
X103552142Y-78624000D01*
X103409285Y-78552571D01*
X103195000Y-78552571D01*
X103052142Y-78624000D01*
X102337857Y-79552571D02*
X102337857Y-78552571D01*
X102337857Y-78052571D02*
X102409285Y-78124000D01*
X102337857Y-78195428D01*
X102266428Y-78124000D01*
X102337857Y-78052571D01*
X102337857Y-78195428D01*
X100980714Y-78552571D02*
X100980714Y-79766857D01*
X101052142Y-79909714D01*
X101123571Y-79981142D01*
X101266428Y-80052571D01*
X101480714Y-80052571D01*
X101623571Y-79981142D01*
X100980714Y-79481142D02*
X101123571Y-79552571D01*
X101409285Y-79552571D01*
X101552142Y-79481142D01*
X101623571Y-79409714D01*
X101695000Y-79266857D01*
X101695000Y-78838285D01*
X101623571Y-78695428D01*
X101552142Y-78624000D01*
X101409285Y-78552571D01*
X101123571Y-78552571D01*
X100980714Y-78624000D01*
X100266428Y-78552571D02*
X100266428Y-79552571D01*
X100266428Y-78695428D02*
X100195000Y-78624000D01*
X100052142Y-78552571D01*
X99837857Y-78552571D01*
X99695000Y-78624000D01*
X99623571Y-78766857D01*
X99623571Y-79552571D01*
X98337857Y-79481142D02*
X98480714Y-79552571D01*
X98766428Y-79552571D01*
X98909285Y-79481142D01*
X98980714Y-79338285D01*
X98980714Y-78766857D01*
X98909285Y-78624000D01*
X98766428Y-78552571D01*
X98480714Y-78552571D01*
X98337857Y-78624000D01*
X98266428Y-78766857D01*
X98266428Y-78909714D01*
X98980714Y-79052571D01*
X96980714Y-79552571D02*
X96980714Y-78052571D01*
X96980714Y-79481142D02*
X97123571Y-79552571D01*
X97409285Y-79552571D01*
X97552142Y-79481142D01*
X97623571Y-79409714D01*
X97695000Y-79266857D01*
X97695000Y-78838285D01*
X97623571Y-78695428D01*
X97552142Y-78624000D01*
X97409285Y-78552571D01*
X97123571Y-78552571D01*
X96980714Y-78624000D01*
X90552142Y-79552571D02*
X90552142Y-78552571D01*
X90552142Y-78695428D02*
X90480714Y-78624000D01*
X90337857Y-78552571D01*
X90123571Y-78552571D01*
X89980714Y-78624000D01*
X89909285Y-78766857D01*
X89909285Y-79552571D01*
X89909285Y-78766857D02*
X89837857Y-78624000D01*
X89695000Y-78552571D01*
X89480714Y-78552571D01*
X89337857Y-78624000D01*
X89266428Y-78766857D01*
X89266428Y-79552571D01*
X87909285Y-79552571D02*
X87909285Y-78766857D01*
X87980714Y-78624000D01*
X88123571Y-78552571D01*
X88409285Y-78552571D01*
X88552142Y-78624000D01*
X87909285Y-79481142D02*
X88052142Y-79552571D01*
X88409285Y-79552571D01*
X88552142Y-79481142D01*
X88623571Y-79338285D01*
X88623571Y-79195428D01*
X88552142Y-79052571D01*
X88409285Y-78981142D01*
X88052142Y-78981142D01*
X87909285Y-78909714D01*
X86552142Y-79552571D02*
X86552142Y-78052571D01*
X86552142Y-79481142D02*
X86695000Y-79552571D01*
X86980714Y-79552571D01*
X87123571Y-79481142D01*
X87195000Y-79409714D01*
X87266428Y-79266857D01*
X87266428Y-78838285D01*
X87195000Y-78695428D01*
X87123571Y-78624000D01*
X86980714Y-78552571D01*
X86695000Y-78552571D01*
X86552142Y-78624000D01*
X85266428Y-79481142D02*
X85409285Y-79552571D01*
X85695000Y-79552571D01*
X85837857Y-79481142D01*
X85909285Y-79338285D01*
X85909285Y-78766857D01*
X85837857Y-78624000D01*
X85695000Y-78552571D01*
X85409285Y-78552571D01*
X85266428Y-78624000D01*
X85195000Y-78766857D01*
X85195000Y-78909714D01*
X85909285Y-79052571D01*
X83409285Y-79552571D02*
X83409285Y-78552571D01*
X83409285Y-78052571D02*
X83480714Y-78124000D01*
X83409285Y-78195428D01*
X83337857Y-78124000D01*
X83409285Y-78052571D01*
X83409285Y-78195428D01*
X82695000Y-78552571D02*
X82695000Y-79552571D01*
X82695000Y-78695428D02*
X82623571Y-78624000D01*
X82480714Y-78552571D01*
X82266428Y-78552571D01*
X82123571Y-78624000D01*
X82052142Y-78766857D01*
X82052142Y-79552571D01*
X80195000Y-79552571D02*
X80195000Y-78052571D01*
X79837857Y-78052571D01*
X79623571Y-78124000D01*
X79480714Y-78266857D01*
X79409285Y-78409714D01*
X79337857Y-78695428D01*
X79337857Y-78909714D01*
X79409285Y-79195428D01*
X79480714Y-79338285D01*
X79623571Y-79481142D01*
X79837857Y-79552571D01*
X80195000Y-79552571D01*
X78123571Y-79481142D02*
X78266428Y-79552571D01*
X78552142Y-79552571D01*
X78695000Y-79481142D01*
X78766428Y-79338285D01*
X78766428Y-78766857D01*
X78695000Y-78624000D01*
X78552142Y-78552571D01*
X78266428Y-78552571D01*
X78123571Y-78624000D01*
X78052142Y-78766857D01*
X78052142Y-78909714D01*
X78766428Y-79052571D01*
X77409285Y-78552571D02*
X77409285Y-79552571D01*
X77409285Y-78695428D02*
X77337857Y-78624000D01*
X77195000Y-78552571D01*
X76980714Y-78552571D01*
X76837857Y-78624000D01*
X76766428Y-78766857D01*
X76766428Y-79552571D01*
X76052142Y-79552571D02*
X76052142Y-78552571D01*
X76052142Y-78695428D02*
X75980714Y-78624000D01*
X75837857Y-78552571D01*
X75623571Y-78552571D01*
X75480714Y-78624000D01*
X75409285Y-78766857D01*
X75409285Y-79552571D01*
X75409285Y-78766857D02*
X75337857Y-78624000D01*
X75195000Y-78552571D01*
X74980714Y-78552571D01*
X74837857Y-78624000D01*
X74766428Y-78766857D01*
X74766428Y-79552571D01*
X73409285Y-79552571D02*
X73409285Y-78766857D01*
X73480714Y-78624000D01*
X73623571Y-78552571D01*
X73909285Y-78552571D01*
X74052142Y-78624000D01*
X73409285Y-79481142D02*
X73552142Y-79552571D01*
X73909285Y-79552571D01*
X74052142Y-79481142D01*
X74123571Y-79338285D01*
X74123571Y-79195428D01*
X74052142Y-79052571D01*
X73909285Y-78981142D01*
X73552142Y-78981142D01*
X73409285Y-78909714D01*
X72695000Y-79552571D02*
X72695000Y-78552571D01*
X72695000Y-78838285D02*
X72623571Y-78695428D01*
X72552142Y-78624000D01*
X72409285Y-78552571D01*
X72266428Y-78552571D01*
X71766428Y-79552571D02*
X71766428Y-78052571D01*
X71623571Y-78981142D02*
X71195000Y-79552571D01*
X71195000Y-78552571D02*
X71766428Y-79124000D01*
X70480714Y-79481142D02*
X70480714Y-79552571D01*
X70552142Y-79695428D01*
X70623571Y-79766857D01*
X68695000Y-78766857D02*
X68195000Y-78766857D01*
X67980714Y-79552571D02*
X68695000Y-79552571D01*
X68695000Y-78052571D01*
X67980714Y-78052571D01*
X67337857Y-78052571D02*
X67337857Y-79266857D01*
X67266428Y-79409714D01*
X67195000Y-79481142D01*
X67052142Y-79552571D01*
X66766428Y-79552571D01*
X66623571Y-79481142D01*
X66552142Y-79409714D01*
X66480714Y-79266857D01*
X66480714Y-78052571D01*
X58128500Y-30106000D02*
X58128500Y-31376000D01*
X57366500Y-28709000D02*
X57366500Y-30106000D01*
D10*
X42650000Y-14450000D02*
X43000000Y-14450000D01*
X53900000Y-10150000D02*
X54250000Y-10150000D01*
X52250000Y-14350000D02*
X52450000Y-14350000D01*
X40800000Y-3300000D02*
X40900000Y-3400000D01*
X34850000Y-6700000D02*
X34950000Y-6800000D01*
X52350000Y-14600000D02*
X52350000Y-14250000D01*
X42900000Y-6800000D02*
X43000000Y-6700000D01*
X43250000Y-6800000D02*
X42900000Y-6800000D01*
X43550000Y-18850000D02*
X43750000Y-18850000D01*
X52350000Y-14250000D02*
X52450000Y-14350000D01*
X35200000Y-6700000D02*
X34850000Y-6700000D01*
X43000000Y-14450000D02*
X42900000Y-14550000D01*
X58050000Y-7200000D02*
X57950000Y-7100000D01*
X54150000Y-10050000D02*
X54150000Y-10250000D01*
X43650000Y-19100000D02*
X43650000Y-18750000D01*
X54250000Y-10150000D02*
X54150000Y-10250000D01*
X40800000Y-3300000D02*
X40900000Y-3200000D01*
X52350000Y-14250000D02*
X52250000Y-14350000D01*
X58050000Y-7200000D02*
X57950000Y-7300000D01*
X42900000Y-14350000D02*
X42900000Y-14550000D01*
X42900000Y-6800000D02*
X43000000Y-6900000D01*
X43650000Y-18750000D02*
X43750000Y-18850000D01*
D14*
X58128500Y-28836000D02*
X58763500Y-28836000D01*
D10*
X43650000Y-18750000D02*
X43550000Y-18850000D01*
X54250000Y-10150000D02*
X54150000Y-10050000D01*
X40900000Y-3400000D02*
X40900000Y-3200000D01*
X57950000Y-7100000D02*
X57950000Y-7300000D01*
X41150000Y-3300000D02*
X40800000Y-3300000D01*
X34850000Y-6700000D02*
X34950000Y-6600000D01*
D14*
X56658536Y-30986799D02*
G75*
G02X56668000Y-29217000I771464J880799D01*
G01*
X58128500Y-29344000D02*
X57366500Y-28709000D01*
D10*
X57700000Y-7200000D02*
X58050000Y-7200000D01*
X34950000Y-6800000D02*
X34950000Y-6600000D01*
X43000000Y-14450000D02*
X42900000Y-14350000D01*
X43000000Y-6900000D02*
X43000000Y-6700000D01*
D14*
X57366500Y-31487128D02*
X57366500Y-30106000D01*
X58128500Y-30106000D02*
X58128500Y-28836000D01*
X56286433Y-31375489D02*
G75*
G02X56287000Y-28836000I1143567J1269489D01*
G01*
X57049354Y-30614264D02*
G75*
G02X57049000Y-29598001I380646J508264D01*
G01*
X58763500Y-28836000D02*
X58763500Y-30106000D01*
X58128500Y-31376000D02*
X58763500Y-31376000D01*
X58763500Y-31376000D02*
X58763500Y-30106000D01*
X58128500Y-30852128D02*
X57366500Y-31487128D01*
D15*
X39003000Y-77094000D02*
X39003000Y-75634000D01*
X35843000Y-77094000D02*
X35843000Y-74934000D01*
X35843000Y-77094000D02*
X36773000Y-77094000D01*
X39003000Y-77094000D02*
X38073000Y-77094000D01*
X33800000Y-5782000D02*
X33800000Y-4452000D01*
X32470000Y-5782000D02*
X33800000Y-5782000D01*
X31200000Y-5782000D02*
X31200000Y-3122000D01*
X31200000Y-3122000D02*
X26060000Y-3122000D01*
X31200000Y-5782000D02*
X26060000Y-5782000D01*
X26060000Y-5782000D02*
X26060000Y-3122000D01*
X84950000Y-14500000D02*
X84950000Y-11200000D01*
X84950000Y-11200000D02*
X90350000Y-11200000D01*
X84950000Y-14500000D02*
X90350000Y-14500000D01*
X95037221Y-48390000D02*
X95362779Y-48390000D01*
X95037221Y-49410000D02*
X95362779Y-49410000D01*
D16*
X41390098Y-7913420D02*
X41390098Y-14908580D01*
X41390098Y-14908580D02*
X34394938Y-14908580D01*
X34394938Y-7913420D02*
X34394938Y-14908580D01*
X41390098Y-7913420D02*
X34394938Y-7913420D01*
D17*
X35184878Y-7913420D02*
X34394938Y-8703360D01*
X40691598Y-7913420D02*
X41390098Y-7913420D01*
X41390098Y-7913420D02*
X41390098Y-8611920D01*
X41390098Y-14210080D02*
X41390098Y-14908580D01*
X41390098Y-14908580D02*
X40691598Y-14908580D01*
X35093438Y-14908580D02*
X34394938Y-14908580D01*
X34394938Y-14908580D02*
X34394938Y-14210080D01*
D18*
X34986926Y-7601000D02*
G75*
G03X34986926Y-7601000I-269408J0D01*
G01*
D15*
X76600279Y-23410000D02*
X76274721Y-23410000D01*
X76600279Y-22390000D02*
X76274721Y-22390000D01*
X41600000Y-24650000D02*
X34300000Y-24650000D01*
X41600000Y-30150000D02*
X34300000Y-30150000D01*
X34300000Y-30150000D02*
X34300000Y-29000000D01*
X50010000Y-8837221D02*
X50010000Y-9162779D01*
X48990000Y-8837221D02*
X48990000Y-9162779D01*
X77520000Y-12230000D02*
X77520000Y-11595000D01*
X77520000Y-11595000D02*
X76885000Y-11595000D01*
X58337221Y-14540000D02*
X58662779Y-14540000D01*
X58337221Y-15560000D02*
X58662779Y-15560000D01*
X51576000Y-24996000D02*
X51576000Y-28246000D01*
X51576000Y-34196000D02*
X62776000Y-34196000D01*
X62776000Y-24996000D02*
X51576000Y-24996000D01*
X62776000Y-28246000D02*
X62776000Y-24996000D01*
X62776000Y-34196000D02*
X62776000Y-30946000D01*
X51576000Y-30946000D02*
X51576000Y-34196000D01*
X19562779Y-48490000D02*
X19237221Y-48490000D01*
X19562779Y-49510000D02*
X19237221Y-49510000D01*
X79850000Y-61750000D02*
X79850000Y-62900000D01*
X72550000Y-61750000D02*
X79850000Y-61750000D01*
X72550000Y-67250000D02*
X79850000Y-67250000D01*
X54337500Y-14365000D02*
X56822500Y-14365000D01*
X56822500Y-14365000D02*
X56822500Y-15735000D01*
X56822500Y-15735000D02*
X54337500Y-15735000D01*
X90565000Y-45725000D02*
X89635000Y-45725000D01*
X87405000Y-45725000D02*
X88335000Y-45725000D01*
X87405000Y-45725000D02*
X87405000Y-43565000D01*
X90565000Y-45725000D02*
X90565000Y-44265000D01*
X58688000Y-76967000D02*
X57758000Y-76967000D01*
X55528000Y-76967000D02*
X56458000Y-76967000D01*
X55528000Y-76967000D02*
X55528000Y-74807000D01*
X58688000Y-76967000D02*
X58688000Y-75507000D01*
X89120000Y460000D02*
X80180000Y460000D01*
X89120000Y-5050000D02*
X89120000Y-3250000D01*
X89120000Y460000D02*
X89120000Y-1000000D01*
X80180000Y460000D02*
X80180000Y-1000000D01*
X80180000Y-5050000D02*
X80180000Y-3250000D01*
D18*
X80180000Y-40000D02*
X89120000Y-40000D01*
D15*
X15750000Y-48150000D02*
X15750000Y-47000000D01*
X23050000Y-48150000D02*
X15750000Y-48150000D01*
X23050000Y-42650000D02*
X15750000Y-42650000D01*
X98950000Y-42650000D02*
X98950000Y-43800000D01*
X91650000Y-42650000D02*
X98950000Y-42650000D01*
X91650000Y-48150000D02*
X98950000Y-48150000D01*
X38162779Y-68610000D02*
X37837221Y-68610000D01*
X38162779Y-67590000D02*
X37837221Y-67590000D01*
X96788000Y-76967000D02*
X95858000Y-76967000D01*
X93628000Y-76967000D02*
X94558000Y-76967000D01*
X93628000Y-76967000D02*
X93628000Y-74807000D01*
X96788000Y-76967000D02*
X96788000Y-75507000D01*
X90311000Y-65029000D02*
X89381000Y-65029000D01*
X87151000Y-65029000D02*
X88081000Y-65029000D01*
X87151000Y-65029000D02*
X87151000Y-62869000D01*
X90311000Y-65029000D02*
X90311000Y-63569000D01*
X29605000Y-65029000D02*
X28675000Y-65029000D01*
X26445000Y-65029000D02*
X27375000Y-65029000D01*
X26445000Y-65029000D02*
X26445000Y-62869000D01*
X29605000Y-65029000D02*
X29605000Y-63569000D01*
X38050279Y-30590000D02*
X37724721Y-30590000D01*
X38050279Y-31610000D02*
X37724721Y-31610000D01*
X76137221Y-68510000D02*
X76462779Y-68510000D01*
X76137221Y-67490000D02*
X76462779Y-67490000D01*
X91415000Y-26548000D02*
X90485000Y-26548000D01*
X88255000Y-26548000D02*
X89185000Y-26548000D01*
X88255000Y-26548000D02*
X88255000Y-24388000D01*
X91415000Y-26548000D02*
X91415000Y-25088000D01*
X56890000Y-13510000D02*
X63010000Y-13510000D01*
X63010000Y-13510000D02*
X63010000Y-9890000D01*
X63010000Y-9890000D02*
X56890000Y-9890000D01*
X56890000Y-9890000D02*
X56890000Y-13510000D01*
X64890779Y-2926000D02*
X64565221Y-2926000D01*
X64890779Y-3946000D02*
X64565221Y-3946000D01*
X77112779Y-2290000D02*
X76787221Y-2290000D01*
X77112779Y-3310000D02*
X76787221Y-3310000D01*
X48990000Y-12412779D02*
X48990000Y-12087221D01*
X50010000Y-12412779D02*
X50010000Y-12087221D01*
X77112779Y-5090000D02*
X76787221Y-5090000D01*
X77112779Y-6110000D02*
X76787221Y-6110000D01*
X64890779Y-4450000D02*
X64565221Y-4450000D01*
X64890779Y-5470000D02*
X64565221Y-5470000D01*
X67324000Y-26548000D02*
X67324000Y-25088000D01*
X64164000Y-26548000D02*
X64164000Y-24388000D01*
X64164000Y-26548000D02*
X65094000Y-26548000D01*
X67324000Y-26548000D02*
X66394000Y-26548000D01*
X42721221Y-6105000D02*
X43046779Y-6105000D01*
X42721221Y-5085000D02*
X43046779Y-5085000D01*
X30240000Y-26548000D02*
X29310000Y-26548000D01*
X27080000Y-26548000D02*
X28010000Y-26548000D01*
X27080000Y-26548000D02*
X27080000Y-24388000D01*
X30240000Y-26548000D02*
X30240000Y-25088000D01*
X31649000Y-8464221D02*
X31649000Y-8789779D01*
X32669000Y-8464221D02*
X32669000Y-8789779D01*
X45769221Y-26933000D02*
X46094779Y-26933000D01*
X45769221Y-25913000D02*
X46094779Y-25913000D01*
X41750000Y-61750000D02*
X34450000Y-61750000D01*
X41750000Y-67250000D02*
X34450000Y-67250000D01*
X34450000Y-67250000D02*
X34450000Y-66100000D01*
X58688000Y-65029000D02*
X58688000Y-63569000D01*
X55528000Y-65029000D02*
X55528000Y-62869000D01*
X55528000Y-65029000D02*
X56458000Y-65029000D01*
X58688000Y-65029000D02*
X57758000Y-65029000D01*
X48300000Y-7800000D02*
X48300000Y-13700000D01*
X48300000Y-13700000D02*
X44700000Y-13700000D01*
X44700000Y-13700000D02*
X44700000Y-7800000D01*
X36340000Y-4137221D02*
X36340000Y-4462779D01*
X37360000Y-4137221D02*
X37360000Y-4462779D01*
X79950000Y-23650000D02*
X79950000Y-24800000D01*
X72650000Y-23650000D02*
X79950000Y-23650000D01*
X72650000Y-29150000D02*
X79950000Y-29150000D01*
X59577000Y-45725000D02*
X59577000Y-44265000D01*
X56417000Y-45725000D02*
X56417000Y-43565000D01*
X56417000Y-45725000D02*
X57347000Y-45725000D01*
X59577000Y-45725000D02*
X58647000Y-45725000D01*
X29062779Y-13240000D02*
X28737221Y-13240000D01*
X29062779Y-14260000D02*
X28737221Y-14260000D01*
X27430000Y-45760000D02*
X26500000Y-45760000D01*
X24270000Y-45760000D02*
X25200000Y-45760000D01*
X24270000Y-45760000D02*
X24270000Y-43600000D01*
X27430000Y-45760000D02*
X27430000Y-44300000D01*
X38340000Y-22437221D02*
X38340000Y-22762779D01*
X39360000Y-22437221D02*
X39360000Y-22762779D01*
X42750000Y-7300000D02*
G75*
G03X42750000Y-7300000I-950000J0D01*
G01*
X45400000Y-17900000D02*
G75*
G03X45400000Y-17900000I-950000J0D01*
G01*
X60350000Y-6950000D02*
G75*
G03X60350000Y-6950000I-950000J0D01*
G01*
X52300000Y-13200000D02*
G75*
G03X52300000Y-13200000I-950000J0D01*
G01*
X40850000Y-4000000D02*
G75*
G03X40850000Y-4000000I-950000J0D01*
G01*
X45100000Y-14850000D02*
G75*
G03X45100000Y-14850000I-950000J0D01*
G01*
D18*
X17152500Y372000D02*
X17152500Y-1128000D01*
X21343500Y372000D02*
X17152500Y372000D01*
X21343500Y-1128000D02*
X21343500Y372000D01*
X15707500Y-1128000D02*
X22407500Y-1128000D01*
X15707500Y-16628000D02*
X22407500Y-16628000D01*
X15707500Y-1128000D02*
X15707500Y-16628000D01*
X22407500Y-1128000D02*
X22407500Y-16628000D01*
D15*
X34750000Y-7150000D02*
G75*
G03X34750000Y-7150000I-950000J0D01*
G01*
X56600000Y-9350000D02*
G75*
G03X56600000Y-9350000I-950000J0D01*
G01*
D19*
G36*
X69495438Y-29696259D02*
G01*
X68907772Y-29696384D01*
X68371898Y-29696614D01*
X67885489Y-29696970D01*
X67446221Y-29697470D01*
X67051765Y-29698132D01*
X66699797Y-29698977D01*
X66387990Y-29700022D01*
X66114017Y-29701287D01*
X65875553Y-29702790D01*
X65670271Y-29704551D01*
X65495846Y-29706588D01*
X65349950Y-29708920D01*
X65230258Y-29711567D01*
X65134443Y-29714546D01*
X65060180Y-29717878D01*
X65005142Y-29721580D01*
X64967002Y-29725673D01*
X64943436Y-29730174D01*
X64932115Y-29735103D01*
X64930222Y-29738555D01*
X64934812Y-29743773D01*
X64950131Y-29748551D01*
X64978507Y-29752907D01*
X65022265Y-29756862D01*
X65083732Y-29760433D01*
X65165234Y-29763640D01*
X65269097Y-29766502D01*
X65397647Y-29769037D01*
X65553210Y-29771264D01*
X65738114Y-29773203D01*
X65954683Y-29774872D01*
X66205244Y-29776290D01*
X66492123Y-29777476D01*
X66817647Y-29778449D01*
X67184142Y-29779228D01*
X67593934Y-29779832D01*
X68049349Y-29780279D01*
X68552713Y-29780589D01*
X69106353Y-29780781D01*
X69712594Y-29780873D01*
X70137222Y-29780888D01*
X70779006Y-29780851D01*
X71366672Y-29780727D01*
X71902547Y-29780496D01*
X72388955Y-29780140D01*
X72828224Y-29779640D01*
X73222679Y-29778978D01*
X73574647Y-29778133D01*
X73886455Y-29777088D01*
X74160427Y-29775823D01*
X74398891Y-29774320D01*
X74604173Y-29772559D01*
X74778599Y-29770522D01*
X74924494Y-29768190D01*
X75044186Y-29765543D01*
X75140001Y-29762564D01*
X75214264Y-29759232D01*
X75269303Y-29755530D01*
X75307442Y-29751437D01*
X75331009Y-29746936D01*
X75342329Y-29742007D01*
X75344222Y-29738555D01*
X75339633Y-29733337D01*
X75324313Y-29728560D01*
X75295937Y-29724203D01*
X75252179Y-29720248D01*
X75190712Y-29716677D01*
X75109210Y-29713470D01*
X75005347Y-29710609D01*
X74876797Y-29708073D01*
X74721234Y-29705846D01*
X74536331Y-29703907D01*
X74319762Y-29702238D01*
X74069200Y-29700820D01*
X73782321Y-29699634D01*
X73456797Y-29698661D01*
X73090302Y-29697882D01*
X72680511Y-29697278D01*
X72225096Y-29696831D01*
X71721731Y-29696521D01*
X71168092Y-29696329D01*
X70561850Y-29696237D01*
X70137222Y-29696222D01*
X69495438Y-29696259D01*
X69495438Y-29696259D01*
G37*
X69495438Y-29696259D02*
X68907772Y-29696384D01*
X68371898Y-29696614D01*
X67885489Y-29696970D01*
X67446221Y-29697470D01*
X67051765Y-29698132D01*
X66699797Y-29698977D01*
X66387990Y-29700022D01*
X66114017Y-29701287D01*
X65875553Y-29702790D01*
X65670271Y-29704551D01*
X65495846Y-29706588D01*
X65349950Y-29708920D01*
X65230258Y-29711567D01*
X65134443Y-29714546D01*
X65060180Y-29717878D01*
X65005142Y-29721580D01*
X64967002Y-29725673D01*
X64943436Y-29730174D01*
X64932115Y-29735103D01*
X64930222Y-29738555D01*
X64934812Y-29743773D01*
X64950131Y-29748551D01*
X64978507Y-29752907D01*
X65022265Y-29756862D01*
X65083732Y-29760433D01*
X65165234Y-29763640D01*
X65269097Y-29766502D01*
X65397647Y-29769037D01*
X65553210Y-29771264D01*
X65738114Y-29773203D01*
X65954683Y-29774872D01*
X66205244Y-29776290D01*
X66492123Y-29777476D01*
X66817647Y-29778449D01*
X67184142Y-29779228D01*
X67593934Y-29779832D01*
X68049349Y-29780279D01*
X68552713Y-29780589D01*
X69106353Y-29780781D01*
X69712594Y-29780873D01*
X70137222Y-29780888D01*
X70779006Y-29780851D01*
X71366672Y-29780727D01*
X71902547Y-29780496D01*
X72388955Y-29780140D01*
X72828224Y-29779640D01*
X73222679Y-29778978D01*
X73574647Y-29778133D01*
X73886455Y-29777088D01*
X74160427Y-29775823D01*
X74398891Y-29774320D01*
X74604173Y-29772559D01*
X74778599Y-29770522D01*
X74924494Y-29768190D01*
X75044186Y-29765543D01*
X75140001Y-29762564D01*
X75214264Y-29759232D01*
X75269303Y-29755530D01*
X75307442Y-29751437D01*
X75331009Y-29746936D01*
X75342329Y-29742007D01*
X75344222Y-29738555D01*
X75339633Y-29733337D01*
X75324313Y-29728560D01*
X75295937Y-29724203D01*
X75252179Y-29720248D01*
X75190712Y-29716677D01*
X75109210Y-29713470D01*
X75005347Y-29710609D01*
X74876797Y-29708073D01*
X74721234Y-29705846D01*
X74536331Y-29703907D01*
X74319762Y-29702238D01*
X74069200Y-29700820D01*
X73782321Y-29699634D01*
X73456797Y-29698661D01*
X73090302Y-29697882D01*
X72680511Y-29697278D01*
X72225096Y-29696831D01*
X71721731Y-29696521D01*
X71168092Y-29696329D01*
X70561850Y-29696237D01*
X70137222Y-29696222D01*
X69495438Y-29696259D01*
G36*
X88385686Y-29696248D02*
G01*
X87680948Y-29696335D01*
X87028694Y-29696494D01*
X86426945Y-29696737D01*
X85873719Y-29697075D01*
X85367038Y-29697521D01*
X84904922Y-29698085D01*
X84485389Y-29698780D01*
X84106461Y-29699616D01*
X83766157Y-29700607D01*
X83462498Y-29701763D01*
X83193502Y-29703095D01*
X82957191Y-29704617D01*
X82751584Y-29706338D01*
X82574700Y-29708272D01*
X82424561Y-29710429D01*
X82299186Y-29712822D01*
X82196595Y-29715461D01*
X82114808Y-29718359D01*
X82051845Y-29721527D01*
X82005726Y-29724977D01*
X81974471Y-29728720D01*
X81956100Y-29732768D01*
X81948633Y-29737133D01*
X81948222Y-29738555D01*
X81952707Y-29743021D01*
X81967480Y-29747166D01*
X81994523Y-29751003D01*
X82035815Y-29754543D01*
X82093336Y-29757797D01*
X82169066Y-29760778D01*
X82264986Y-29763496D01*
X82383075Y-29765964D01*
X82525313Y-29768193D01*
X82693680Y-29770195D01*
X82890156Y-29771981D01*
X83116722Y-29773563D01*
X83375358Y-29774953D01*
X83668042Y-29776163D01*
X83996756Y-29777203D01*
X84363480Y-29778086D01*
X84770193Y-29778824D01*
X85218875Y-29779427D01*
X85711507Y-29779908D01*
X86250069Y-29780279D01*
X86836540Y-29780550D01*
X87472900Y-29780734D01*
X88161130Y-29780842D01*
X88903210Y-29780886D01*
X89144889Y-29780888D01*
X89904091Y-29780862D01*
X90608830Y-29780775D01*
X91261084Y-29780616D01*
X91862833Y-29780373D01*
X92416058Y-29780035D01*
X92922739Y-29779589D01*
X93384856Y-29779025D01*
X93804388Y-29778330D01*
X94183316Y-29777494D01*
X94523620Y-29776503D01*
X94827280Y-29775348D01*
X95096275Y-29774015D01*
X95332587Y-29772493D01*
X95538194Y-29770772D01*
X95715077Y-29768838D01*
X95865216Y-29766681D01*
X95990591Y-29764289D01*
X96093182Y-29761649D01*
X96174969Y-29758751D01*
X96237932Y-29755583D01*
X96284051Y-29752134D01*
X96315307Y-29748390D01*
X96333678Y-29744342D01*
X96341145Y-29739977D01*
X96341555Y-29738555D01*
X96337071Y-29734089D01*
X96322297Y-29729944D01*
X96295255Y-29726107D01*
X96253963Y-29722567D01*
X96196442Y-29719313D01*
X96120711Y-29716332D01*
X96024792Y-29713614D01*
X95906703Y-29711146D01*
X95764465Y-29708917D01*
X95596098Y-29706915D01*
X95399621Y-29705129D01*
X95173055Y-29703547D01*
X94914420Y-29702157D01*
X94621735Y-29700947D01*
X94293021Y-29699907D01*
X93926298Y-29699024D01*
X93519585Y-29698286D01*
X93070902Y-29697683D01*
X92578271Y-29697202D01*
X92039709Y-29696831D01*
X91453238Y-29696560D01*
X90816878Y-29696376D01*
X90128647Y-29696268D01*
X89386568Y-29696224D01*
X89144889Y-29696222D01*
X88385686Y-29696248D01*
X88385686Y-29696248D01*
G37*
X88385686Y-29696248D02*
X87680948Y-29696335D01*
X87028694Y-29696494D01*
X86426945Y-29696737D01*
X85873719Y-29697075D01*
X85367038Y-29697521D01*
X84904922Y-29698085D01*
X84485389Y-29698780D01*
X84106461Y-29699616D01*
X83766157Y-29700607D01*
X83462498Y-29701763D01*
X83193502Y-29703095D01*
X82957191Y-29704617D01*
X82751584Y-29706338D01*
X82574700Y-29708272D01*
X82424561Y-29710429D01*
X82299186Y-29712822D01*
X82196595Y-29715461D01*
X82114808Y-29718359D01*
X82051845Y-29721527D01*
X82005726Y-29724977D01*
X81974471Y-29728720D01*
X81956100Y-29732768D01*
X81948633Y-29737133D01*
X81948222Y-29738555D01*
X81952707Y-29743021D01*
X81967480Y-29747166D01*
X81994523Y-29751003D01*
X82035815Y-29754543D01*
X82093336Y-29757797D01*
X82169066Y-29760778D01*
X82264986Y-29763496D01*
X82383075Y-29765964D01*
X82525313Y-29768193D01*
X82693680Y-29770195D01*
X82890156Y-29771981D01*
X83116722Y-29773563D01*
X83375358Y-29774953D01*
X83668042Y-29776163D01*
X83996756Y-29777203D01*
X84363480Y-29778086D01*
X84770193Y-29778824D01*
X85218875Y-29779427D01*
X85711507Y-29779908D01*
X86250069Y-29780279D01*
X86836540Y-29780550D01*
X87472900Y-29780734D01*
X88161130Y-29780842D01*
X88903210Y-29780886D01*
X89144889Y-29780888D01*
X89904091Y-29780862D01*
X90608830Y-29780775D01*
X91261084Y-29780616D01*
X91862833Y-29780373D01*
X92416058Y-29780035D01*
X92922739Y-29779589D01*
X93384856Y-29779025D01*
X93804388Y-29778330D01*
X94183316Y-29777494D01*
X94523620Y-29776503D01*
X94827280Y-29775348D01*
X95096275Y-29774015D01*
X95332587Y-29772493D01*
X95538194Y-29770772D01*
X95715077Y-29768838D01*
X95865216Y-29766681D01*
X95990591Y-29764289D01*
X96093182Y-29761649D01*
X96174969Y-29758751D01*
X96237932Y-29755583D01*
X96284051Y-29752134D01*
X96315307Y-29748390D01*
X96333678Y-29744342D01*
X96341145Y-29739977D01*
X96341555Y-29738555D01*
X96337071Y-29734089D01*
X96322297Y-29729944D01*
X96295255Y-29726107D01*
X96253963Y-29722567D01*
X96196442Y-29719313D01*
X96120711Y-29716332D01*
X96024792Y-29713614D01*
X95906703Y-29711146D01*
X95764465Y-29708917D01*
X95596098Y-29706915D01*
X95399621Y-29705129D01*
X95173055Y-29703547D01*
X94914420Y-29702157D01*
X94621735Y-29700947D01*
X94293021Y-29699907D01*
X93926298Y-29699024D01*
X93519585Y-29698286D01*
X93070902Y-29697683D01*
X92578271Y-29697202D01*
X92039709Y-29696831D01*
X91453238Y-29696560D01*
X90816878Y-29696376D01*
X90128647Y-29696268D01*
X89386568Y-29696224D01*
X89144889Y-29696222D01*
X88385686Y-29696248D01*
G36*
X67536406Y-30095279D02*
G01*
X67500212Y-30105066D01*
X67498444Y-30108116D01*
X67512794Y-30135073D01*
X67553686Y-30204649D01*
X67617882Y-30311513D01*
X67702144Y-30450333D01*
X67803235Y-30615780D01*
X67917916Y-30802522D01*
X68042951Y-31005229D01*
X68062889Y-31037474D01*
X68627333Y-31950049D01*
X68627333Y-33449777D01*
X68853111Y-33449777D01*
X68853111Y-31937242D01*
X69443845Y-31021343D01*
X70034580Y-30105444D01*
X69934766Y-30096508D01*
X69857656Y-30094057D01*
X69802939Y-30100017D01*
X69799691Y-30101103D01*
X69776386Y-30127235D01*
X69726396Y-30195218D01*
X69653566Y-30299427D01*
X69561740Y-30434235D01*
X69454761Y-30594017D01*
X69336473Y-30773148D01*
X69248821Y-30907317D01*
X69125712Y-31095763D01*
X69012093Y-31268118D01*
X68911654Y-31418902D01*
X68828089Y-31542635D01*
X68765089Y-31633838D01*
X68726347Y-31687032D01*
X68715551Y-31698721D01*
X68697103Y-31675245D01*
X68652822Y-31609181D01*
X68586266Y-31506127D01*
X68500996Y-31371683D01*
X68400569Y-31211448D01*
X68288545Y-31031022D01*
X68204321Y-30894387D01*
X67710754Y-30091333D01*
X67604599Y-30091333D01*
X67536406Y-30095279D01*
X67536406Y-30095279D01*
G37*
X67536406Y-30095279D02*
X67500212Y-30105066D01*
X67498444Y-30108116D01*
X67512794Y-30135073D01*
X67553686Y-30204649D01*
X67617882Y-30311513D01*
X67702144Y-30450333D01*
X67803235Y-30615780D01*
X67917916Y-30802522D01*
X68042951Y-31005229D01*
X68062889Y-31037474D01*
X68627333Y-31950049D01*
X68627333Y-33449777D01*
X68853111Y-33449777D01*
X68853111Y-31937242D01*
X69443845Y-31021343D01*
X70034580Y-30105444D01*
X69934766Y-30096508D01*
X69857656Y-30094057D01*
X69802939Y-30100017D01*
X69799691Y-30101103D01*
X69776386Y-30127235D01*
X69726396Y-30195218D01*
X69653566Y-30299427D01*
X69561740Y-30434235D01*
X69454761Y-30594017D01*
X69336473Y-30773148D01*
X69248821Y-30907317D01*
X69125712Y-31095763D01*
X69012093Y-31268118D01*
X68911654Y-31418902D01*
X68828089Y-31542635D01*
X68765089Y-31633838D01*
X68726347Y-31687032D01*
X68715551Y-31698721D01*
X68697103Y-31675245D01*
X68652822Y-31609181D01*
X68586266Y-31506127D01*
X68500996Y-31371683D01*
X68400569Y-31211448D01*
X68288545Y-31031022D01*
X68204321Y-30894387D01*
X67710754Y-30091333D01*
X67604599Y-30091333D01*
X67536406Y-30095279D01*
G36*
X70518222Y-30260666D02*
G01*
X72070444Y-30260666D01*
X72070444Y-31615333D01*
X70631111Y-31615333D01*
X70631111Y-31784666D01*
X72070444Y-31784666D01*
X72070444Y-33252222D01*
X70461778Y-33252222D01*
X70461778Y-33449777D01*
X72296222Y-33449777D01*
X72296222Y-30091333D01*
X70518222Y-30091333D01*
X70518222Y-30260666D01*
X70518222Y-30260666D01*
G37*
X70518222Y-30260666D02*
X72070444Y-30260666D01*
X72070444Y-31615333D01*
X70631111Y-31615333D01*
X70631111Y-31784666D01*
X72070444Y-31784666D01*
X72070444Y-33252222D01*
X70461778Y-33252222D01*
X70461778Y-33449777D01*
X72296222Y-33449777D01*
X72296222Y-30091333D01*
X70518222Y-30091333D01*
X70518222Y-30260666D01*
G36*
X74942502Y-30874500D02*
G01*
X74935000Y-31657666D01*
X74141835Y-30874500D01*
X73348671Y-30091333D01*
X73100555Y-30091377D01*
X74727421Y-31680453D01*
X73829321Y-32563600D01*
X72931222Y-33446746D01*
X73081865Y-33448262D01*
X73232507Y-33449777D01*
X74083754Y-32615780D01*
X74935000Y-31781783D01*
X74942475Y-32615780D01*
X74949951Y-33449777D01*
X75174889Y-33449777D01*
X75174889Y-30091333D01*
X74950004Y-30091333D01*
X74942502Y-30874500D01*
X74942502Y-30874500D01*
G37*
X74942502Y-30874500D02*
X74935000Y-31657666D01*
X74141835Y-30874500D01*
X73348671Y-30091333D01*
X73100555Y-30091377D01*
X74727421Y-31680453D01*
X73829321Y-32563600D01*
X72931222Y-33446746D01*
X73081865Y-33448262D01*
X73232507Y-33449777D01*
X74083754Y-32615780D01*
X74935000Y-31781783D01*
X74942475Y-32615780D01*
X74949951Y-33449777D01*
X75174889Y-33449777D01*
X75174889Y-30091333D01*
X74950004Y-30091333D01*
X74942502Y-30874500D01*
G36*
X83641555Y-33252222D02*
G01*
X82032889Y-33252222D01*
X82032889Y-33449777D01*
X83867333Y-33449777D01*
X83867333Y-30091333D01*
X83641555Y-30091333D01*
X83641555Y-33252222D01*
X83641555Y-33252222D01*
G37*
X83641555Y-33252222D02*
X82032889Y-33252222D01*
X82032889Y-33449777D01*
X83867333Y-33449777D01*
X83867333Y-30091333D01*
X83641555Y-30091333D01*
X83641555Y-33252222D01*
G36*
X84770444Y-30260666D02*
G01*
X86322667Y-30260666D01*
X86322667Y-31615333D01*
X84883333Y-31615333D01*
X84883333Y-31784666D01*
X86322667Y-31784666D01*
X86322667Y-33252222D01*
X84714000Y-33252222D01*
X84714000Y-33449777D01*
X86548444Y-33449777D01*
X86548444Y-30091333D01*
X84770444Y-30091333D01*
X84770444Y-30260666D01*
X84770444Y-30260666D01*
G37*
X84770444Y-30260666D02*
X86322667Y-30260666D01*
X86322667Y-31615333D01*
X84883333Y-31615333D01*
X84883333Y-31784666D01*
X86322667Y-31784666D01*
X86322667Y-33252222D01*
X84714000Y-33252222D01*
X84714000Y-33449777D01*
X86548444Y-33449777D01*
X86548444Y-30091333D01*
X84770444Y-30091333D01*
X84770444Y-30260666D01*
G36*
X89804051Y-30096848D02*
G01*
X89673274Y-30105444D01*
X89583071Y-30345333D01*
X89554489Y-30421620D01*
X89508689Y-30544203D01*
X89448137Y-30706474D01*
X89375294Y-30901825D01*
X89292624Y-31123650D01*
X89202591Y-31365340D01*
X89107657Y-31620288D01*
X89032708Y-31821640D01*
X88939288Y-32070955D01*
X88851303Y-32302500D01*
X88770766Y-32511210D01*
X88699691Y-32692018D01*
X88640089Y-32839858D01*
X88593976Y-32949665D01*
X88563363Y-33016373D01*
X88550457Y-33035195D01*
X88537176Y-33004989D01*
X88507008Y-32926430D01*
X88461732Y-32804436D01*
X88403129Y-32643922D01*
X88332978Y-32449806D01*
X88253059Y-32227003D01*
X88165152Y-31980430D01*
X88071038Y-31715002D01*
X88013419Y-31551833D01*
X87498472Y-30091333D01*
X87255420Y-30091333D01*
X87335876Y-30310055D01*
X87360797Y-30378209D01*
X87402831Y-30493642D01*
X87459875Y-30650564D01*
X87529826Y-30843179D01*
X87610581Y-31065697D01*
X87700039Y-31312324D01*
X87796096Y-31577266D01*
X87896650Y-31854733D01*
X87945394Y-31989277D01*
X88474454Y-33449777D01*
X88570668Y-33449777D01*
X88638981Y-33440457D01*
X88677940Y-33417697D01*
X88679476Y-33414500D01*
X88691597Y-33382097D01*
X88721825Y-33301876D01*
X88768284Y-33178805D01*
X88829094Y-33017853D01*
X88902379Y-32823987D01*
X88986259Y-32602177D01*
X89078857Y-32357392D01*
X89178295Y-32094600D01*
X89231508Y-31954000D01*
X89336496Y-31676546D01*
X89437820Y-31408641D01*
X89533270Y-31156137D01*
X89620638Y-30924884D01*
X89697714Y-30720731D01*
X89762289Y-30549530D01*
X89812153Y-30417130D01*
X89845097Y-30329382D01*
X89852887Y-30308515D01*
X89934827Y-30088252D01*
X89804051Y-30096848D01*
X89804051Y-30096848D01*
G37*
X89804051Y-30096848D02*
X89673274Y-30105444D01*
X89583071Y-30345333D01*
X89554489Y-30421620D01*
X89508689Y-30544203D01*
X89448137Y-30706474D01*
X89375294Y-30901825D01*
X89292624Y-31123650D01*
X89202591Y-31365340D01*
X89107657Y-31620288D01*
X89032708Y-31821640D01*
X88939288Y-32070955D01*
X88851303Y-32302500D01*
X88770766Y-32511210D01*
X88699691Y-32692018D01*
X88640089Y-32839858D01*
X88593976Y-32949665D01*
X88563363Y-33016373D01*
X88550457Y-33035195D01*
X88537176Y-33004989D01*
X88507008Y-32926430D01*
X88461732Y-32804436D01*
X88403129Y-32643922D01*
X88332978Y-32449806D01*
X88253059Y-32227003D01*
X88165152Y-31980430D01*
X88071038Y-31715002D01*
X88013419Y-31551833D01*
X87498472Y-30091333D01*
X87255420Y-30091333D01*
X87335876Y-30310055D01*
X87360797Y-30378209D01*
X87402831Y-30493642D01*
X87459875Y-30650564D01*
X87529826Y-30843179D01*
X87610581Y-31065697D01*
X87700039Y-31312324D01*
X87796096Y-31577266D01*
X87896650Y-31854733D01*
X87945394Y-31989277D01*
X88474454Y-33449777D01*
X88570668Y-33449777D01*
X88638981Y-33440457D01*
X88677940Y-33417697D01*
X88679476Y-33414500D01*
X88691597Y-33382097D01*
X88721825Y-33301876D01*
X88768284Y-33178805D01*
X88829094Y-33017853D01*
X88902379Y-32823987D01*
X88986259Y-32602177D01*
X89078857Y-32357392D01*
X89178295Y-32094600D01*
X89231508Y-31954000D01*
X89336496Y-31676546D01*
X89437820Y-31408641D01*
X89533270Y-31156137D01*
X89620638Y-30924884D01*
X89697714Y-30720731D01*
X89762289Y-30549530D01*
X89812153Y-30417130D01*
X89845097Y-30329382D01*
X89852887Y-30308515D01*
X89934827Y-30088252D01*
X89804051Y-30096848D01*
G36*
X93942667Y-33449777D02*
G01*
X94104944Y-33449365D01*
X94267222Y-33448953D01*
X95156222Y-31909716D01*
X96045222Y-30370480D01*
X96052519Y-31910129D01*
X96059815Y-33449777D01*
X96256889Y-33449777D01*
X96256889Y-30091333D01*
X95932333Y-30092935D01*
X95057444Y-31618033D01*
X94182555Y-33143130D01*
X94175257Y-31617231D01*
X94167958Y-30091333D01*
X93942667Y-30091333D01*
X93942667Y-33449777D01*
X93942667Y-33449777D01*
G37*
X93942667Y-33449777D02*
X94104944Y-33449365D01*
X94267222Y-33448953D01*
X95156222Y-31909716D01*
X96045222Y-30370480D01*
X96052519Y-31910129D01*
X96059815Y-33449777D01*
X96256889Y-33449777D01*
X96256889Y-30091333D01*
X95932333Y-30092935D01*
X95057444Y-31618033D01*
X94182555Y-33143130D01*
X94175257Y-31617231D01*
X94167958Y-30091333D01*
X93942667Y-30091333D01*
X93942667Y-33449777D01*
G36*
X65787785Y-30048451D02*
G01*
X65597738Y-30060136D01*
X65427599Y-30081609D01*
X65332389Y-30101428D01*
X65234194Y-30129873D01*
X65161742Y-30157116D01*
X65128545Y-30177940D01*
X65127778Y-30180441D01*
X65139768Y-30222233D01*
X65168689Y-30286134D01*
X65169486Y-30287679D01*
X65211194Y-30368334D01*
X65416430Y-30294183D01*
X65522940Y-30259006D01*
X65619692Y-30236742D01*
X65725986Y-30224584D01*
X65861117Y-30219724D01*
X65932111Y-30219182D01*
X66075790Y-30220205D01*
X66179147Y-30225879D01*
X66258262Y-30238720D01*
X66329218Y-30261244D01*
X66400796Y-30292534D01*
X66554403Y-30392243D01*
X66669140Y-30523989D01*
X66741114Y-30678297D01*
X66766427Y-30845692D01*
X66741185Y-31016700D01*
X66721257Y-31071929D01*
X66675411Y-31162734D01*
X66615453Y-31240886D01*
X66533877Y-31311470D01*
X66423177Y-31379570D01*
X66275847Y-31450271D01*
X66084379Y-31528657D01*
X65998473Y-31561522D01*
X65803956Y-31636337D01*
X65653422Y-31698185D01*
X65537295Y-31751911D01*
X65445999Y-31802360D01*
X65369956Y-31854377D01*
X65299591Y-31912810D01*
X65293647Y-31918153D01*
X65160125Y-32072127D01*
X65071921Y-32254003D01*
X65026561Y-32469254D01*
X65022343Y-32517798D01*
X65028716Y-32759937D01*
X65081797Y-32972771D01*
X65179891Y-33153813D01*
X65321304Y-33300575D01*
X65504345Y-33410571D01*
X65669137Y-33467760D01*
X65821109Y-33496130D01*
X66004579Y-33513965D01*
X66195380Y-33520095D01*
X66369348Y-33513348D01*
X66440111Y-33505140D01*
X66548114Y-33486583D01*
X66666698Y-33462833D01*
X66783014Y-33436924D01*
X66884216Y-33411887D01*
X66957458Y-33390753D01*
X66989891Y-33376554D01*
X66990444Y-33375275D01*
X66980613Y-33343905D01*
X66956364Y-33281866D01*
X66950399Y-33267455D01*
X66910354Y-33171613D01*
X66703455Y-33245395D01*
X66602031Y-33278710D01*
X66509739Y-33300532D01*
X66409185Y-33313272D01*
X66282974Y-33319339D01*
X66157889Y-33320977D01*
X66006627Y-33320493D01*
X65897252Y-33315866D01*
X65815249Y-33305153D01*
X65746103Y-33286415D01*
X65675299Y-33257709D01*
X65671291Y-33255903D01*
X65498801Y-33151226D01*
X65372521Y-33014171D01*
X65292628Y-32845023D01*
X65259297Y-32644062D01*
X65258258Y-32589000D01*
X65283933Y-32399276D01*
X65359100Y-32235777D01*
X65479274Y-32100022D01*
X65538708Y-32050533D01*
X65599194Y-32007983D01*
X65670419Y-31967579D01*
X65762070Y-31924528D01*
X65883834Y-31874037D01*
X66045399Y-31811311D01*
X66119891Y-31783026D01*
X66378711Y-31676516D01*
X66585570Y-31570176D01*
X66744710Y-31458944D01*
X66860372Y-31337760D01*
X66936798Y-31201563D01*
X66978229Y-31045292D01*
X66988907Y-30863888D01*
X66983307Y-30752814D01*
X66941846Y-30553132D01*
X66852466Y-30382834D01*
X66716141Y-30243102D01*
X66533847Y-30135121D01*
X66445129Y-30099980D01*
X66326411Y-30072318D01*
X66167217Y-30054523D01*
X65982643Y-30046574D01*
X65787785Y-30048451D01*
X65787785Y-30048451D01*
G37*
X65787785Y-30048451D02*
X65597738Y-30060136D01*
X65427599Y-30081609D01*
X65332389Y-30101428D01*
X65234194Y-30129873D01*
X65161742Y-30157116D01*
X65128545Y-30177940D01*
X65127778Y-30180441D01*
X65139768Y-30222233D01*
X65168689Y-30286134D01*
X65169486Y-30287679D01*
X65211194Y-30368334D01*
X65416430Y-30294183D01*
X65522940Y-30259006D01*
X65619692Y-30236742D01*
X65725986Y-30224584D01*
X65861117Y-30219724D01*
X65932111Y-30219182D01*
X66075790Y-30220205D01*
X66179147Y-30225879D01*
X66258262Y-30238720D01*
X66329218Y-30261244D01*
X66400796Y-30292534D01*
X66554403Y-30392243D01*
X66669140Y-30523989D01*
X66741114Y-30678297D01*
X66766427Y-30845692D01*
X66741185Y-31016700D01*
X66721257Y-31071929D01*
X66675411Y-31162734D01*
X66615453Y-31240886D01*
X66533877Y-31311470D01*
X66423177Y-31379570D01*
X66275847Y-31450271D01*
X66084379Y-31528657D01*
X65998473Y-31561522D01*
X65803956Y-31636337D01*
X65653422Y-31698185D01*
X65537295Y-31751911D01*
X65445999Y-31802360D01*
X65369956Y-31854377D01*
X65299591Y-31912810D01*
X65293647Y-31918153D01*
X65160125Y-32072127D01*
X65071921Y-32254003D01*
X65026561Y-32469254D01*
X65022343Y-32517798D01*
X65028716Y-32759937D01*
X65081797Y-32972771D01*
X65179891Y-33153813D01*
X65321304Y-33300575D01*
X65504345Y-33410571D01*
X65669137Y-33467760D01*
X65821109Y-33496130D01*
X66004579Y-33513965D01*
X66195380Y-33520095D01*
X66369348Y-33513348D01*
X66440111Y-33505140D01*
X66548114Y-33486583D01*
X66666698Y-33462833D01*
X66783014Y-33436924D01*
X66884216Y-33411887D01*
X66957458Y-33390753D01*
X66989891Y-33376554D01*
X66990444Y-33375275D01*
X66980613Y-33343905D01*
X66956364Y-33281866D01*
X66950399Y-33267455D01*
X66910354Y-33171613D01*
X66703455Y-33245395D01*
X66602031Y-33278710D01*
X66509739Y-33300532D01*
X66409185Y-33313272D01*
X66282974Y-33319339D01*
X66157889Y-33320977D01*
X66006627Y-33320493D01*
X65897252Y-33315866D01*
X65815249Y-33305153D01*
X65746103Y-33286415D01*
X65675299Y-33257709D01*
X65671291Y-33255903D01*
X65498801Y-33151226D01*
X65372521Y-33014171D01*
X65292628Y-32845023D01*
X65259297Y-32644062D01*
X65258258Y-32589000D01*
X65283933Y-32399276D01*
X65359100Y-32235777D01*
X65479274Y-32100022D01*
X65538708Y-32050533D01*
X65599194Y-32007983D01*
X65670419Y-31967579D01*
X65762070Y-31924528D01*
X65883834Y-31874037D01*
X66045399Y-31811311D01*
X66119891Y-31783026D01*
X66378711Y-31676516D01*
X66585570Y-31570176D01*
X66744710Y-31458944D01*
X66860372Y-31337760D01*
X66936798Y-31201563D01*
X66978229Y-31045292D01*
X66988907Y-30863888D01*
X66983307Y-30752814D01*
X66941846Y-30553132D01*
X66852466Y-30382834D01*
X66716141Y-30243102D01*
X66533847Y-30135121D01*
X66445129Y-30099980D01*
X66326411Y-30072318D01*
X66167217Y-30054523D01*
X65982643Y-30046574D01*
X65787785Y-30048451D01*
G36*
X91547348Y-30043230D02*
G01*
X91365744Y-30061509D01*
X91207483Y-30089811D01*
X91112413Y-30117966D01*
X90909667Y-30225731D01*
X90733236Y-30381149D01*
X90585869Y-30580582D01*
X90470316Y-30820393D01*
X90396422Y-31065000D01*
X90368699Y-31231028D01*
X90350585Y-31435967D01*
X90342072Y-31663527D01*
X90343149Y-31897420D01*
X90353808Y-32121355D01*
X90374038Y-32319044D01*
X90397233Y-32447888D01*
X90484161Y-32735981D01*
X90599890Y-32976177D01*
X90746378Y-33170231D01*
X90925584Y-33319899D01*
X91139466Y-33426937D01*
X91389980Y-33493100D01*
X91588558Y-33516057D01*
X91721982Y-33520003D01*
X91858042Y-33516448D01*
X91967522Y-33506163D01*
X91968505Y-33506010D01*
X92226572Y-33441918D01*
X92448890Y-33335557D01*
X92636674Y-33185760D01*
X92791140Y-32991361D01*
X92913505Y-32751193D01*
X92988557Y-32527304D01*
X93010997Y-32437846D01*
X93027229Y-32350210D01*
X93038202Y-32252752D01*
X93044867Y-32133823D01*
X93048170Y-31981778D01*
X93049062Y-31784970D01*
X93049062Y-31784666D01*
X93048658Y-31697480D01*
X92821060Y-31697480D01*
X92819575Y-31917061D01*
X92809848Y-32125810D01*
X92791891Y-32307059D01*
X92775100Y-32405555D01*
X92696902Y-32668354D01*
X92585102Y-32890617D01*
X92441587Y-33069908D01*
X92268243Y-33203790D01*
X92098261Y-33280261D01*
X91921674Y-33319468D01*
X91722339Y-33334127D01*
X91519708Y-33324941D01*
X91333237Y-33292616D01*
X91202670Y-33247798D01*
X91024357Y-33141163D01*
X90877640Y-32999315D01*
X90761388Y-32819575D01*
X90674465Y-32599266D01*
X90615739Y-32335709D01*
X90584076Y-32026225D01*
X90577399Y-31770555D01*
X90588616Y-31438753D01*
X90623016Y-31154440D01*
X90681903Y-30913072D01*
X90766583Y-30710105D01*
X90878359Y-30540998D01*
X90954076Y-30458615D01*
X91079659Y-30357089D01*
X91220529Y-30286206D01*
X91387723Y-30242429D01*
X91592280Y-30222219D01*
X91699000Y-30219873D01*
X91841366Y-30220598D01*
X91943923Y-30225914D01*
X92023274Y-30238551D01*
X92096024Y-30261241D01*
X92178776Y-30296713D01*
X92185762Y-30299925D01*
X92375234Y-30414696D01*
X92530132Y-30569523D01*
X92652210Y-30766904D01*
X92743223Y-31009338D01*
X92775950Y-31140402D01*
X92799258Y-31292484D01*
X92814291Y-31483732D01*
X92821060Y-31697480D01*
X93048658Y-31697480D01*
X93048146Y-31587101D01*
X93044779Y-31434401D01*
X93038031Y-31315009D01*
X93026973Y-31217367D01*
X93010676Y-31129918D01*
X92989711Y-31046539D01*
X92889268Y-30764270D01*
X92755606Y-30526858D01*
X92589215Y-30334819D01*
X92390586Y-30188667D01*
X92160208Y-30088917D01*
X92049058Y-30059891D01*
X91907320Y-30041285D01*
X91733978Y-30036110D01*
X91547348Y-30043230D01*
X91547348Y-30043230D01*
G37*
X91547348Y-30043230D02*
X91365744Y-30061509D01*
X91207483Y-30089811D01*
X91112413Y-30117966D01*
X90909667Y-30225731D01*
X90733236Y-30381149D01*
X90585869Y-30580582D01*
X90470316Y-30820393D01*
X90396422Y-31065000D01*
X90368699Y-31231028D01*
X90350585Y-31435967D01*
X90342072Y-31663527D01*
X90343149Y-31897420D01*
X90353808Y-32121355D01*
X90374038Y-32319044D01*
X90397233Y-32447888D01*
X90484161Y-32735981D01*
X90599890Y-32976177D01*
X90746378Y-33170231D01*
X90925584Y-33319899D01*
X91139466Y-33426937D01*
X91389980Y-33493100D01*
X91588558Y-33516057D01*
X91721982Y-33520003D01*
X91858042Y-33516448D01*
X91967522Y-33506163D01*
X91968505Y-33506010D01*
X92226572Y-33441918D01*
X92448890Y-33335557D01*
X92636674Y-33185760D01*
X92791140Y-32991361D01*
X92913505Y-32751193D01*
X92988557Y-32527304D01*
X93010997Y-32437846D01*
X93027229Y-32350210D01*
X93038202Y-32252752D01*
X93044867Y-32133823D01*
X93048170Y-31981778D01*
X93049062Y-31784970D01*
X93049062Y-31784666D01*
X93048658Y-31697480D01*
X92821060Y-31697480D01*
X92819575Y-31917061D01*
X92809848Y-32125810D01*
X92791891Y-32307059D01*
X92775100Y-32405555D01*
X92696902Y-32668354D01*
X92585102Y-32890617D01*
X92441587Y-33069908D01*
X92268243Y-33203790D01*
X92098261Y-33280261D01*
X91921674Y-33319468D01*
X91722339Y-33334127D01*
X91519708Y-33324941D01*
X91333237Y-33292616D01*
X91202670Y-33247798D01*
X91024357Y-33141163D01*
X90877640Y-32999315D01*
X90761388Y-32819575D01*
X90674465Y-32599266D01*
X90615739Y-32335709D01*
X90584076Y-32026225D01*
X90577399Y-31770555D01*
X90588616Y-31438753D01*
X90623016Y-31154440D01*
X90681903Y-30913072D01*
X90766583Y-30710105D01*
X90878359Y-30540998D01*
X90954076Y-30458615D01*
X91079659Y-30357089D01*
X91220529Y-30286206D01*
X91387723Y-30242429D01*
X91592280Y-30222219D01*
X91699000Y-30219873D01*
X91841366Y-30220598D01*
X91943923Y-30225914D01*
X92023274Y-30238551D01*
X92096024Y-30261241D01*
X92178776Y-30296713D01*
X92185762Y-30299925D01*
X92375234Y-30414696D01*
X92530132Y-30569523D01*
X92652210Y-30766904D01*
X92743223Y-31009338D01*
X92775950Y-31140402D01*
X92799258Y-31292484D01*
X92814291Y-31483732D01*
X92821060Y-31697480D01*
X93048658Y-31697480D01*
X93048146Y-31587101D01*
X93044779Y-31434401D01*
X93038031Y-31315009D01*
X93026973Y-31217367D01*
X93010676Y-31129918D01*
X92989711Y-31046539D01*
X92889268Y-30764270D01*
X92755606Y-30526858D01*
X92589215Y-30334819D01*
X92390586Y-30188667D01*
X92160208Y-30088917D01*
X92049058Y-30059891D01*
X91907320Y-30041285D01*
X91733978Y-30036110D01*
X91547348Y-30043230D01*
G36*
X69501068Y-33873116D02*
G01*
X68918959Y-33873150D01*
X68388496Y-33873238D01*
X67907280Y-33873406D01*
X67472912Y-33873680D01*
X67082993Y-33874087D01*
X66735124Y-33874652D01*
X66426905Y-33875401D01*
X66155937Y-33876361D01*
X65919822Y-33877556D01*
X65716160Y-33879015D01*
X65542552Y-33880761D01*
X65396598Y-33882822D01*
X65275901Y-33885223D01*
X65178060Y-33887990D01*
X65100677Y-33891150D01*
X65041352Y-33894728D01*
X64997686Y-33898750D01*
X64967281Y-33903243D01*
X64947736Y-33908232D01*
X64936653Y-33913743D01*
X64931633Y-33919803D01*
X64930277Y-33926437D01*
X64930222Y-33929555D01*
X64930725Y-33936451D01*
X64933832Y-33942761D01*
X64941943Y-33948511D01*
X64957456Y-33953728D01*
X64982772Y-33958436D01*
X65020289Y-33962663D01*
X65072406Y-33966434D01*
X65141522Y-33969775D01*
X65230037Y-33972713D01*
X65340349Y-33975272D01*
X65474858Y-33977480D01*
X65635963Y-33979362D01*
X65826063Y-33980944D01*
X66047557Y-33982252D01*
X66302845Y-33983313D01*
X66594324Y-33984152D01*
X66924396Y-33984795D01*
X67295458Y-33985268D01*
X67709909Y-33985598D01*
X68170150Y-33985810D01*
X68678579Y-33985930D01*
X69237595Y-33985984D01*
X69849597Y-33985999D01*
X70137222Y-33986000D01*
X70773377Y-33985994D01*
X71355486Y-33985960D01*
X71885949Y-33985872D01*
X72367164Y-33985704D01*
X72801532Y-33985430D01*
X73191451Y-33985023D01*
X73539321Y-33984458D01*
X73847540Y-33983709D01*
X74118507Y-33982749D01*
X74354622Y-33981554D01*
X74558285Y-33980096D01*
X74731893Y-33978349D01*
X74877846Y-33976288D01*
X74998543Y-33973887D01*
X75096384Y-33971120D01*
X75173767Y-33967960D01*
X75233092Y-33964382D01*
X75276758Y-33960360D01*
X75307164Y-33955867D01*
X75326708Y-33950878D01*
X75337791Y-33945367D01*
X75342811Y-33939307D01*
X75344168Y-33932673D01*
X75344222Y-33929555D01*
X75343720Y-33922659D01*
X75340612Y-33916349D01*
X75332502Y-33910599D01*
X75316988Y-33905382D01*
X75291672Y-33900674D01*
X75254156Y-33896447D01*
X75202039Y-33892676D01*
X75132922Y-33889335D01*
X75044408Y-33886397D01*
X74934095Y-33883838D01*
X74799586Y-33881630D01*
X74638481Y-33879748D01*
X74448381Y-33878166D01*
X74226887Y-33876858D01*
X73971600Y-33875797D01*
X73680120Y-33874958D01*
X73350049Y-33874315D01*
X72978987Y-33873842D01*
X72564535Y-33873512D01*
X72104294Y-33873300D01*
X71595866Y-33873180D01*
X71036850Y-33873126D01*
X70424848Y-33873111D01*
X70137222Y-33873111D01*
X69501068Y-33873116D01*
X69501068Y-33873116D01*
G37*
X69501068Y-33873116D02*
X68918959Y-33873150D01*
X68388496Y-33873238D01*
X67907280Y-33873406D01*
X67472912Y-33873680D01*
X67082993Y-33874087D01*
X66735124Y-33874652D01*
X66426905Y-33875401D01*
X66155937Y-33876361D01*
X65919822Y-33877556D01*
X65716160Y-33879015D01*
X65542552Y-33880761D01*
X65396598Y-33882822D01*
X65275901Y-33885223D01*
X65178060Y-33887990D01*
X65100677Y-33891150D01*
X65041352Y-33894728D01*
X64997686Y-33898750D01*
X64967281Y-33903243D01*
X64947736Y-33908232D01*
X64936653Y-33913743D01*
X64931633Y-33919803D01*
X64930277Y-33926437D01*
X64930222Y-33929555D01*
X64930725Y-33936451D01*
X64933832Y-33942761D01*
X64941943Y-33948511D01*
X64957456Y-33953728D01*
X64982772Y-33958436D01*
X65020289Y-33962663D01*
X65072406Y-33966434D01*
X65141522Y-33969775D01*
X65230037Y-33972713D01*
X65340349Y-33975272D01*
X65474858Y-33977480D01*
X65635963Y-33979362D01*
X65826063Y-33980944D01*
X66047557Y-33982252D01*
X66302845Y-33983313D01*
X66594324Y-33984152D01*
X66924396Y-33984795D01*
X67295458Y-33985268D01*
X67709909Y-33985598D01*
X68170150Y-33985810D01*
X68678579Y-33985930D01*
X69237595Y-33985984D01*
X69849597Y-33985999D01*
X70137222Y-33986000D01*
X70773377Y-33985994D01*
X71355486Y-33985960D01*
X71885949Y-33985872D01*
X72367164Y-33985704D01*
X72801532Y-33985430D01*
X73191451Y-33985023D01*
X73539321Y-33984458D01*
X73847540Y-33983709D01*
X74118507Y-33982749D01*
X74354622Y-33981554D01*
X74558285Y-33980096D01*
X74731893Y-33978349D01*
X74877846Y-33976288D01*
X74998543Y-33973887D01*
X75096384Y-33971120D01*
X75173767Y-33967960D01*
X75233092Y-33964382D01*
X75276758Y-33960360D01*
X75307164Y-33955867D01*
X75326708Y-33950878D01*
X75337791Y-33945367D01*
X75342811Y-33939307D01*
X75344168Y-33932673D01*
X75344222Y-33929555D01*
X75343720Y-33922659D01*
X75340612Y-33916349D01*
X75332502Y-33910599D01*
X75316988Y-33905382D01*
X75291672Y-33900674D01*
X75254156Y-33896447D01*
X75202039Y-33892676D01*
X75132922Y-33889335D01*
X75044408Y-33886397D01*
X74934095Y-33883838D01*
X74799586Y-33881630D01*
X74638481Y-33879748D01*
X74448381Y-33878166D01*
X74226887Y-33876858D01*
X73971600Y-33875797D01*
X73680120Y-33874958D01*
X73350049Y-33874315D01*
X72978987Y-33873842D01*
X72564535Y-33873512D01*
X72104294Y-33873300D01*
X71595866Y-33873180D01*
X71036850Y-33873126D01*
X70424848Y-33873111D01*
X70137222Y-33873111D01*
X69501068Y-33873116D01*
G36*
X88392180Y-33873114D02*
G01*
X87693875Y-33873134D01*
X87047933Y-33873188D01*
X86452313Y-33873291D01*
X85904975Y-33873459D01*
X85403878Y-33873708D01*
X84946980Y-33874054D01*
X84532242Y-33874514D01*
X84157623Y-33875102D01*
X83821081Y-33875836D01*
X83520577Y-33876732D01*
X83254069Y-33877804D01*
X83019516Y-33879070D01*
X82814879Y-33880545D01*
X82638115Y-33882245D01*
X82487185Y-33884186D01*
X82360048Y-33886385D01*
X82254663Y-33888857D01*
X82168989Y-33891618D01*
X82100986Y-33894684D01*
X82048612Y-33898072D01*
X82009828Y-33901797D01*
X81982592Y-33905875D01*
X81964863Y-33910323D01*
X81954602Y-33915156D01*
X81949766Y-33920390D01*
X81948316Y-33926042D01*
X81948222Y-33929555D01*
X81948636Y-33935459D01*
X81951240Y-33940936D01*
X81958073Y-33946002D01*
X81971177Y-33950673D01*
X81992592Y-33954966D01*
X82024359Y-33958896D01*
X82068518Y-33962480D01*
X82127112Y-33965733D01*
X82202179Y-33968671D01*
X82295761Y-33971310D01*
X82409899Y-33973667D01*
X82546634Y-33975758D01*
X82708005Y-33977597D01*
X82896055Y-33979202D01*
X83112823Y-33980589D01*
X83360350Y-33981772D01*
X83640677Y-33982769D01*
X83955845Y-33983596D01*
X84307895Y-33984268D01*
X84698867Y-33984801D01*
X85130802Y-33985212D01*
X85605740Y-33985516D01*
X86125723Y-33985730D01*
X86692792Y-33985869D01*
X87308986Y-33985949D01*
X87976347Y-33985987D01*
X88696915Y-33985999D01*
X89144889Y-33986000D01*
X89897598Y-33985996D01*
X90595902Y-33985976D01*
X91241844Y-33985922D01*
X91837464Y-33985819D01*
X92384802Y-33985652D01*
X92885900Y-33985402D01*
X93342797Y-33985056D01*
X93757535Y-33984596D01*
X94132155Y-33984008D01*
X94468696Y-33983274D01*
X94769201Y-33982379D01*
X95035709Y-33981306D01*
X95270261Y-33980040D01*
X95474899Y-33978566D01*
X95651662Y-33976865D01*
X95802592Y-33974924D01*
X95929729Y-33972725D01*
X96035114Y-33970253D01*
X96120788Y-33967492D01*
X96188792Y-33964426D01*
X96241165Y-33961038D01*
X96279950Y-33957313D01*
X96307186Y-33953235D01*
X96324914Y-33948787D01*
X96335176Y-33943954D01*
X96340011Y-33938720D01*
X96341461Y-33933069D01*
X96341555Y-33929555D01*
X96341141Y-33923651D01*
X96338538Y-33918175D01*
X96331705Y-33913108D01*
X96318601Y-33908437D01*
X96297186Y-33904144D01*
X96265419Y-33900214D01*
X96221259Y-33896630D01*
X96162666Y-33893377D01*
X96087599Y-33890439D01*
X95994016Y-33887800D01*
X95879878Y-33885443D01*
X95743144Y-33883353D01*
X95581772Y-33881513D01*
X95393723Y-33879908D01*
X95176955Y-33878522D01*
X94929428Y-33877338D01*
X94649101Y-33876341D01*
X94333932Y-33875514D01*
X93981883Y-33874842D01*
X93590911Y-33874309D01*
X93158976Y-33873898D01*
X92684037Y-33873594D01*
X92164054Y-33873380D01*
X91596986Y-33873241D01*
X90980792Y-33873161D01*
X90313431Y-33873123D01*
X89592863Y-33873111D01*
X89144889Y-33873111D01*
X88392180Y-33873114D01*
X88392180Y-33873114D01*
G37*
X88392180Y-33873114D02*
X87693875Y-33873134D01*
X87047933Y-33873188D01*
X86452313Y-33873291D01*
X85904975Y-33873459D01*
X85403878Y-33873708D01*
X84946980Y-33874054D01*
X84532242Y-33874514D01*
X84157623Y-33875102D01*
X83821081Y-33875836D01*
X83520577Y-33876732D01*
X83254069Y-33877804D01*
X83019516Y-33879070D01*
X82814879Y-33880545D01*
X82638115Y-33882245D01*
X82487185Y-33884186D01*
X82360048Y-33886385D01*
X82254663Y-33888857D01*
X82168989Y-33891618D01*
X82100986Y-33894684D01*
X82048612Y-33898072D01*
X82009828Y-33901797D01*
X81982592Y-33905875D01*
X81964863Y-33910323D01*
X81954602Y-33915156D01*
X81949766Y-33920390D01*
X81948316Y-33926042D01*
X81948222Y-33929555D01*
X81948636Y-33935459D01*
X81951240Y-33940936D01*
X81958073Y-33946002D01*
X81971177Y-33950673D01*
X81992592Y-33954966D01*
X82024359Y-33958896D01*
X82068518Y-33962480D01*
X82127112Y-33965733D01*
X82202179Y-33968671D01*
X82295761Y-33971310D01*
X82409899Y-33973667D01*
X82546634Y-33975758D01*
X82708005Y-33977597D01*
X82896055Y-33979202D01*
X83112823Y-33980589D01*
X83360350Y-33981772D01*
X83640677Y-33982769D01*
X83955845Y-33983596D01*
X84307895Y-33984268D01*
X84698867Y-33984801D01*
X85130802Y-33985212D01*
X85605740Y-33985516D01*
X86125723Y-33985730D01*
X86692792Y-33985869D01*
X87308986Y-33985949D01*
X87976347Y-33985987D01*
X88696915Y-33985999D01*
X89144889Y-33986000D01*
X89897598Y-33985996D01*
X90595902Y-33985976D01*
X91241844Y-33985922D01*
X91837464Y-33985819D01*
X92384802Y-33985652D01*
X92885900Y-33985402D01*
X93342797Y-33985056D01*
X93757535Y-33984596D01*
X94132155Y-33984008D01*
X94468696Y-33983274D01*
X94769201Y-33982379D01*
X95035709Y-33981306D01*
X95270261Y-33980040D01*
X95474899Y-33978566D01*
X95651662Y-33976865D01*
X95802592Y-33974924D01*
X95929729Y-33972725D01*
X96035114Y-33970253D01*
X96120788Y-33967492D01*
X96188792Y-33964426D01*
X96241165Y-33961038D01*
X96279950Y-33957313D01*
X96307186Y-33953235D01*
X96324914Y-33948787D01*
X96335176Y-33943954D01*
X96340011Y-33938720D01*
X96341461Y-33933069D01*
X96341555Y-33929555D01*
X96341141Y-33923651D01*
X96338538Y-33918175D01*
X96331705Y-33913108D01*
X96318601Y-33908437D01*
X96297186Y-33904144D01*
X96265419Y-33900214D01*
X96221259Y-33896630D01*
X96162666Y-33893377D01*
X96087599Y-33890439D01*
X95994016Y-33887800D01*
X95879878Y-33885443D01*
X95743144Y-33883353D01*
X95581772Y-33881513D01*
X95393723Y-33879908D01*
X95176955Y-33878522D01*
X94929428Y-33877338D01*
X94649101Y-33876341D01*
X94333932Y-33875514D01*
X93981883Y-33874842D01*
X93590911Y-33874309D01*
X93158976Y-33873898D01*
X92684037Y-33873594D01*
X92164054Y-33873380D01*
X91596986Y-33873241D01*
X90980792Y-33873161D01*
X90313431Y-33873123D01*
X89592863Y-33873111D01*
X89144889Y-33873111D01*
X88392180Y-33873114D01*
G36*
X78827434Y-28652000D02*
G01*
X78661881Y-28652401D01*
X78542829Y-28654488D01*
X78460337Y-28659583D01*
X78404464Y-28669009D01*
X78365267Y-28684090D01*
X78332806Y-28706149D01*
X78316185Y-28720045D01*
X78237000Y-28788090D01*
X78218916Y-29668000D01*
X77560807Y-29668000D01*
X77348386Y-29668388D01*
X77185114Y-29669887D01*
X77063700Y-29672999D01*
X76976852Y-29678226D01*
X76917277Y-29686070D01*
X76877685Y-29697033D01*
X76850782Y-29711617D01*
X76843352Y-29717388D01*
X76813747Y-29760906D01*
X76767667Y-29854374D01*
X76706638Y-29994245D01*
X76632185Y-30176973D01*
X76545833Y-30399010D01*
X76512669Y-30486444D01*
X76440008Y-30678444D01*
X76372758Y-30854785D01*
X76313787Y-31008053D01*
X76265965Y-31130832D01*
X76232160Y-31215707D01*
X76215240Y-31255265D01*
X76215117Y-31255500D01*
X76163029Y-31295263D01*
X76094245Y-31304888D01*
X76006275Y-31321257D01*
X75932960Y-31358839D01*
X75893332Y-31400589D01*
X75873173Y-31455385D01*
X75866563Y-31542249D01*
X75866333Y-31572950D01*
X75869968Y-31669975D01*
X75885684Y-31731579D01*
X75920701Y-31778573D01*
X75945518Y-31801221D01*
X76017382Y-31847299D01*
X76087343Y-31869072D01*
X76093685Y-31869333D01*
X76162667Y-31869333D01*
X76162667Y-32506711D01*
X76487556Y-33250544D01*
X76572856Y-33443299D01*
X76653204Y-33620085D01*
X76725281Y-33773971D01*
X76785768Y-33898023D01*
X76831348Y-33985310D01*
X76858701Y-34028901D01*
X76861501Y-34031624D01*
X76891955Y-34044113D01*
X76950172Y-34053757D01*
X77041791Y-34060847D01*
X77172448Y-34065679D01*
X77347783Y-34068544D01*
X77573433Y-34069735D01*
X77594944Y-34069769D01*
X78279333Y-34070666D01*
X78279333Y-34198371D01*
X78291722Y-34285835D01*
X78324334Y-34393906D01*
X78370341Y-34507493D01*
X78422912Y-34611505D01*
X78475218Y-34690852D01*
X78520085Y-34730314D01*
X78567178Y-34737957D01*
X78655751Y-34743939D01*
X78770845Y-34747435D01*
X78841166Y-34748000D01*
X78970410Y-34746816D01*
X79056109Y-34741629D01*
X79111140Y-34729985D01*
X79148383Y-34709431D01*
X79174412Y-34684500D01*
X79253805Y-34574615D01*
X79320875Y-34439641D01*
X79366022Y-34302260D01*
X79380000Y-34198604D01*
X79380000Y-34070666D01*
X80055760Y-34070666D01*
X80268282Y-34070503D01*
X80431718Y-34069596D01*
X80553427Y-34067318D01*
X80640767Y-34063040D01*
X80701095Y-34056136D01*
X80741771Y-34045978D01*
X80770153Y-34031938D01*
X80793599Y-34013390D01*
X80800430Y-34007166D01*
X80832521Y-33961638D01*
X80883142Y-33869080D01*
X80949712Y-33734811D01*
X81029648Y-33564148D01*
X81120369Y-33362408D01*
X81183004Y-33219197D01*
X81496667Y-32494727D01*
X81496667Y-31875615D01*
X81594633Y-31857236D01*
X81689635Y-31819991D01*
X81748910Y-31747208D01*
X81776124Y-31633104D01*
X81778889Y-31566720D01*
X81764517Y-31439052D01*
X81718812Y-31356129D01*
X81637886Y-31313372D01*
X81556584Y-31304888D01*
X81447168Y-31304888D01*
X81159517Y-30535833D01*
X81084491Y-30337523D01*
X81013911Y-30155260D01*
X80950645Y-29996119D01*
X80897565Y-29867180D01*
X80857537Y-29775517D01*
X80833434Y-29728209D01*
X80830541Y-29724444D01*
X80807690Y-29710528D01*
X80765000Y-29699323D01*
X80696053Y-29690329D01*
X80594432Y-29683045D01*
X80453716Y-29676974D01*
X80267489Y-29671613D01*
X80105774Y-29668000D01*
X79422333Y-29653888D01*
X79414569Y-29210879D01*
X79411197Y-29022949D01*
X79403721Y-28882639D01*
X79384847Y-28783005D01*
X79347282Y-28717105D01*
X79283730Y-28677995D01*
X79186898Y-28658732D01*
X79049491Y-28652373D01*
X78864215Y-28651975D01*
X78827434Y-28652000D01*
X78827434Y-28652000D01*
G37*
X78827434Y-28652000D02*
X78661881Y-28652401D01*
X78542829Y-28654488D01*
X78460337Y-28659583D01*
X78404464Y-28669009D01*
X78365267Y-28684090D01*
X78332806Y-28706149D01*
X78316185Y-28720045D01*
X78237000Y-28788090D01*
X78218916Y-29668000D01*
X77560807Y-29668000D01*
X77348386Y-29668388D01*
X77185114Y-29669887D01*
X77063700Y-29672999D01*
X76976852Y-29678226D01*
X76917277Y-29686070D01*
X76877685Y-29697033D01*
X76850782Y-29711617D01*
X76843352Y-29717388D01*
X76813747Y-29760906D01*
X76767667Y-29854374D01*
X76706638Y-29994245D01*
X76632185Y-30176973D01*
X76545833Y-30399010D01*
X76512669Y-30486444D01*
X76440008Y-30678444D01*
X76372758Y-30854785D01*
X76313787Y-31008053D01*
X76265965Y-31130832D01*
X76232160Y-31215707D01*
X76215240Y-31255265D01*
X76215117Y-31255500D01*
X76163029Y-31295263D01*
X76094245Y-31304888D01*
X76006275Y-31321257D01*
X75932960Y-31358839D01*
X75893332Y-31400589D01*
X75873173Y-31455385D01*
X75866563Y-31542249D01*
X75866333Y-31572950D01*
X75869968Y-31669975D01*
X75885684Y-31731579D01*
X75920701Y-31778573D01*
X75945518Y-31801221D01*
X76017382Y-31847299D01*
X76087343Y-31869072D01*
X76093685Y-31869333D01*
X76162667Y-31869333D01*
X76162667Y-32506711D01*
X76487556Y-33250544D01*
X76572856Y-33443299D01*
X76653204Y-33620085D01*
X76725281Y-33773971D01*
X76785768Y-33898023D01*
X76831348Y-33985310D01*
X76858701Y-34028901D01*
X76861501Y-34031624D01*
X76891955Y-34044113D01*
X76950172Y-34053757D01*
X77041791Y-34060847D01*
X77172448Y-34065679D01*
X77347783Y-34068544D01*
X77573433Y-34069735D01*
X77594944Y-34069769D01*
X78279333Y-34070666D01*
X78279333Y-34198371D01*
X78291722Y-34285835D01*
X78324334Y-34393906D01*
X78370341Y-34507493D01*
X78422912Y-34611505D01*
X78475218Y-34690852D01*
X78520085Y-34730314D01*
X78567178Y-34737957D01*
X78655751Y-34743939D01*
X78770845Y-34747435D01*
X78841166Y-34748000D01*
X78970410Y-34746816D01*
X79056109Y-34741629D01*
X79111140Y-34729985D01*
X79148383Y-34709431D01*
X79174412Y-34684500D01*
X79253805Y-34574615D01*
X79320875Y-34439641D01*
X79366022Y-34302260D01*
X79380000Y-34198604D01*
X79380000Y-34070666D01*
X80055760Y-34070666D01*
X80268282Y-34070503D01*
X80431718Y-34069596D01*
X80553427Y-34067318D01*
X80640767Y-34063040D01*
X80701095Y-34056136D01*
X80741771Y-34045978D01*
X80770153Y-34031938D01*
X80793599Y-34013390D01*
X80800430Y-34007166D01*
X80832521Y-33961638D01*
X80883142Y-33869080D01*
X80949712Y-33734811D01*
X81029648Y-33564148D01*
X81120369Y-33362408D01*
X81183004Y-33219197D01*
X81496667Y-32494727D01*
X81496667Y-31875615D01*
X81594633Y-31857236D01*
X81689635Y-31819991D01*
X81748910Y-31747208D01*
X81776124Y-31633104D01*
X81778889Y-31566720D01*
X81764517Y-31439052D01*
X81718812Y-31356129D01*
X81637886Y-31313372D01*
X81556584Y-31304888D01*
X81447168Y-31304888D01*
X81159517Y-30535833D01*
X81084491Y-30337523D01*
X81013911Y-30155260D01*
X80950645Y-29996119D01*
X80897565Y-29867180D01*
X80857537Y-29775517D01*
X80833434Y-29728209D01*
X80830541Y-29724444D01*
X80807690Y-29710528D01*
X80765000Y-29699323D01*
X80696053Y-29690329D01*
X80594432Y-29683045D01*
X80453716Y-29676974D01*
X80267489Y-29671613D01*
X80105774Y-29668000D01*
X79422333Y-29653888D01*
X79414569Y-29210879D01*
X79411197Y-29022949D01*
X79403721Y-28882639D01*
X79384847Y-28783005D01*
X79347282Y-28717105D01*
X79283730Y-28677995D01*
X79186898Y-28658732D01*
X79049491Y-28652373D01*
X78864215Y-28651975D01*
X78827434Y-28652000D01*
D10*
X6359523Y-66504761D02*
X6216666Y-66552380D01*
X5978571Y-66552380D01*
X5883333Y-66504761D01*
X5835714Y-66457142D01*
X5788095Y-66361904D01*
X5788095Y-66266666D01*
X5835714Y-66171428D01*
X5883333Y-66123809D01*
X5978571Y-66076190D01*
X6169047Y-66028571D01*
X6264285Y-65980952D01*
X6311904Y-65933333D01*
X6359523Y-65838095D01*
X6359523Y-65742857D01*
X6311904Y-65647619D01*
X6264285Y-65600000D01*
X6169047Y-65552380D01*
X5930952Y-65552380D01*
X5788095Y-65600000D01*
X5454761Y-65552380D02*
X5216666Y-66552380D01*
X5026190Y-65838095D01*
X4835714Y-66552380D01*
X4597619Y-65552380D01*
X3788095Y-65885714D02*
X3788095Y-66552380D01*
X4026190Y-65504761D02*
X4264285Y-66219047D01*
X3645238Y-66219047D01*
X3359523Y-65552380D02*
X2740476Y-65552380D01*
X3073809Y-65933333D01*
X2930952Y-65933333D01*
X2835714Y-65980952D01*
X2788095Y-66028571D01*
X2740476Y-66123809D01*
X2740476Y-66361904D01*
X2788095Y-66457142D01*
X2835714Y-66504761D01*
X2930952Y-66552380D01*
X3216666Y-66552380D01*
X3311904Y-66504761D01*
X3359523Y-66457142D01*
X38637285Y-79453380D02*
X38637285Y-78453380D01*
X38399190Y-78453380D01*
X38256333Y-78501000D01*
X38161095Y-78596238D01*
X38113476Y-78691476D01*
X38065857Y-78881952D01*
X38065857Y-79024809D01*
X38113476Y-79215285D01*
X38161095Y-79310523D01*
X38256333Y-79405761D01*
X38399190Y-79453380D01*
X38637285Y-79453380D01*
X37684904Y-78548619D02*
X37637285Y-78501000D01*
X37542047Y-78453380D01*
X37303952Y-78453380D01*
X37208714Y-78501000D01*
X37161095Y-78548619D01*
X37113476Y-78643857D01*
X37113476Y-78739095D01*
X37161095Y-78881952D01*
X37732523Y-79453380D01*
X37113476Y-79453380D01*
X36732523Y-78548619D02*
X36684904Y-78501000D01*
X36589666Y-78453380D01*
X36351571Y-78453380D01*
X36256333Y-78501000D01*
X36208714Y-78548619D01*
X36161095Y-78643857D01*
X36161095Y-78739095D01*
X36208714Y-78881952D01*
X36780142Y-79453380D01*
X36161095Y-79453380D01*
X101859523Y-25054761D02*
X101716666Y-25102380D01*
X101478571Y-25102380D01*
X101383333Y-25054761D01*
X101335714Y-25007142D01*
X101288095Y-24911904D01*
X101288095Y-24816666D01*
X101335714Y-24721428D01*
X101383333Y-24673809D01*
X101478571Y-24626190D01*
X101669047Y-24578571D01*
X101764285Y-24530952D01*
X101811904Y-24483333D01*
X101859523Y-24388095D01*
X101859523Y-24292857D01*
X101811904Y-24197619D01*
X101764285Y-24150000D01*
X101669047Y-24102380D01*
X101430952Y-24102380D01*
X101288095Y-24150000D01*
X100954761Y-24102380D02*
X100716666Y-25102380D01*
X100526190Y-24388095D01*
X100335714Y-25102380D01*
X100097619Y-24102380D01*
X99811904Y-24102380D02*
X99192857Y-24102380D01*
X99526190Y-24483333D01*
X99383333Y-24483333D01*
X99288095Y-24530952D01*
X99240476Y-24578571D01*
X99192857Y-24673809D01*
X99192857Y-24911904D01*
X99240476Y-25007142D01*
X99288095Y-25054761D01*
X99383333Y-25102380D01*
X99669047Y-25102380D01*
X99764285Y-25054761D01*
X99811904Y-25007142D01*
X98573809Y-24102380D02*
X98478571Y-24102380D01*
X98383333Y-24150000D01*
X98335714Y-24197619D01*
X98288095Y-24292857D01*
X98240476Y-24483333D01*
X98240476Y-24721428D01*
X98288095Y-24911904D01*
X98335714Y-25007142D01*
X98383333Y-25054761D01*
X98478571Y-25102380D01*
X98573809Y-25102380D01*
X98669047Y-25054761D01*
X98716666Y-25007142D01*
X98764285Y-24911904D01*
X98811904Y-24721428D01*
X98811904Y-24483333D01*
X98764285Y-24292857D01*
X98716666Y-24197619D01*
X98669047Y-24150000D01*
X98573809Y-24102380D01*
X29459523Y-7652380D02*
X29221428Y-8652380D01*
X29030952Y-7938095D01*
X28840476Y-8652380D01*
X28602380Y-7652380D01*
X28269047Y-8604761D02*
X28126190Y-8652380D01*
X27888095Y-8652380D01*
X27792857Y-8604761D01*
X27745238Y-8557142D01*
X27697619Y-8461904D01*
X27697619Y-8366666D01*
X27745238Y-8271428D01*
X27792857Y-8223809D01*
X27888095Y-8176190D01*
X28078571Y-8128571D01*
X28173809Y-8080952D01*
X28221428Y-8033333D01*
X28269047Y-7938095D01*
X28269047Y-7842857D01*
X28221428Y-7747619D01*
X28173809Y-7700000D01*
X28078571Y-7652380D01*
X27840476Y-7652380D01*
X27697619Y-7700000D01*
X27316666Y-7747619D02*
X27269047Y-7700000D01*
X27173809Y-7652380D01*
X26935714Y-7652380D01*
X26840476Y-7700000D01*
X26792857Y-7747619D01*
X26745238Y-7842857D01*
X26745238Y-7938095D01*
X26792857Y-8080952D01*
X27364285Y-8652380D01*
X26745238Y-8652380D01*
X26173809Y-8080952D02*
X26269047Y-8033333D01*
X26316666Y-7985714D01*
X26364285Y-7890476D01*
X26364285Y-7842857D01*
X26316666Y-7747619D01*
X26269047Y-7700000D01*
X26173809Y-7652380D01*
X25983333Y-7652380D01*
X25888095Y-7700000D01*
X25840476Y-7747619D01*
X25792857Y-7842857D01*
X25792857Y-7890476D01*
X25840476Y-7985714D01*
X25888095Y-8033333D01*
X25983333Y-8080952D01*
X26173809Y-8080952D01*
X26269047Y-8128571D01*
X26316666Y-8176190D01*
X26364285Y-8271428D01*
X26364285Y-8461904D01*
X26316666Y-8557142D01*
X26269047Y-8604761D01*
X26173809Y-8652380D01*
X25983333Y-8652380D01*
X25888095Y-8604761D01*
X25840476Y-8557142D01*
X25792857Y-8461904D01*
X25792857Y-8271428D01*
X25840476Y-8176190D01*
X25888095Y-8128571D01*
X25983333Y-8080952D01*
X24840476Y-8652380D02*
X25411904Y-8652380D01*
X25126190Y-8652380D02*
X25126190Y-7652380D01*
X25221428Y-7795238D01*
X25316666Y-7890476D01*
X25411904Y-7938095D01*
X24459523Y-7747619D02*
X24411904Y-7700000D01*
X24316666Y-7652380D01*
X24078571Y-7652380D01*
X23983333Y-7700000D01*
X23935714Y-7747619D01*
X23888095Y-7842857D01*
X23888095Y-7938095D01*
X23935714Y-8080952D01*
X24507142Y-8652380D01*
X23888095Y-8652380D01*
X84602380Y-11635714D02*
X83602380Y-11635714D01*
X83602380Y-11873809D01*
X83650000Y-12016666D01*
X83745238Y-12111904D01*
X83840476Y-12159523D01*
X84030952Y-12207142D01*
X84173809Y-12207142D01*
X84364285Y-12159523D01*
X84459523Y-12111904D01*
X84554761Y-12016666D01*
X84602380Y-11873809D01*
X84602380Y-11635714D01*
X83697619Y-12588095D02*
X83650000Y-12635714D01*
X83602380Y-12730952D01*
X83602380Y-12969047D01*
X83650000Y-13064285D01*
X83697619Y-13111904D01*
X83792857Y-13159523D01*
X83888095Y-13159523D01*
X84030952Y-13111904D01*
X84602380Y-12540476D01*
X84602380Y-13159523D01*
X83602380Y-14016666D02*
X83602380Y-13826190D01*
X83650000Y-13730952D01*
X83697619Y-13683333D01*
X83840476Y-13588095D01*
X84030952Y-13540476D01*
X84411904Y-13540476D01*
X84507142Y-13588095D01*
X84554761Y-13635714D01*
X84602380Y-13730952D01*
X84602380Y-13921428D01*
X84554761Y-14016666D01*
X84507142Y-14064285D01*
X84411904Y-14111904D01*
X84173809Y-14111904D01*
X84078571Y-14064285D01*
X84030952Y-14016666D01*
X83983333Y-13921428D01*
X83983333Y-13730952D01*
X84030952Y-13635714D01*
X84078571Y-13588095D01*
X84173809Y-13540476D01*
X95792857Y-50657142D02*
X95840476Y-50704761D01*
X95983333Y-50752380D01*
X96078571Y-50752380D01*
X96221428Y-50704761D01*
X96316666Y-50609523D01*
X96364285Y-50514285D01*
X96411904Y-50323809D01*
X96411904Y-50180952D01*
X96364285Y-49990476D01*
X96316666Y-49895238D01*
X96221428Y-49800000D01*
X96078571Y-49752380D01*
X95983333Y-49752380D01*
X95840476Y-49800000D01*
X95792857Y-49847619D01*
X94840476Y-50752380D02*
X95411904Y-50752380D01*
X95126190Y-50752380D02*
X95126190Y-49752380D01*
X95221428Y-49895238D01*
X95316666Y-49990476D01*
X95411904Y-50038095D01*
X94364285Y-50752380D02*
X94173809Y-50752380D01*
X94078571Y-50704761D01*
X94030952Y-50657142D01*
X93935714Y-50514285D01*
X93888095Y-50323809D01*
X93888095Y-49942857D01*
X93935714Y-49847619D01*
X93983333Y-49800000D01*
X94078571Y-49752380D01*
X94269047Y-49752380D01*
X94364285Y-49800000D01*
X94411904Y-49847619D01*
X94459523Y-49942857D01*
X94459523Y-50180952D01*
X94411904Y-50276190D01*
X94364285Y-50323809D01*
X94269047Y-50371428D01*
X94078571Y-50371428D01*
X93983333Y-50323809D01*
X93935714Y-50276190D01*
X93888095Y-50180952D01*
X111659523Y-66704761D02*
X111516666Y-66752380D01*
X111278571Y-66752380D01*
X111183333Y-66704761D01*
X111135714Y-66657142D01*
X111088095Y-66561904D01*
X111088095Y-66466666D01*
X111135714Y-66371428D01*
X111183333Y-66323809D01*
X111278571Y-66276190D01*
X111469047Y-66228571D01*
X111564285Y-66180952D01*
X111611904Y-66133333D01*
X111659523Y-66038095D01*
X111659523Y-65942857D01*
X111611904Y-65847619D01*
X111564285Y-65800000D01*
X111469047Y-65752380D01*
X111230952Y-65752380D01*
X111088095Y-65800000D01*
X110754761Y-65752380D02*
X110516666Y-66752380D01*
X110326190Y-66038095D01*
X110135714Y-66752380D01*
X109897619Y-65752380D01*
X109088095Y-66085714D02*
X109088095Y-66752380D01*
X109326190Y-65704761D02*
X109564285Y-66419047D01*
X108945238Y-66419047D01*
X108421428Y-66180952D02*
X108516666Y-66133333D01*
X108564285Y-66085714D01*
X108611904Y-65990476D01*
X108611904Y-65942857D01*
X108564285Y-65847619D01*
X108516666Y-65800000D01*
X108421428Y-65752380D01*
X108230952Y-65752380D01*
X108135714Y-65800000D01*
X108088095Y-65847619D01*
X108040476Y-65942857D01*
X108040476Y-65990476D01*
X108088095Y-66085714D01*
X108135714Y-66133333D01*
X108230952Y-66180952D01*
X108421428Y-66180952D01*
X108516666Y-66228571D01*
X108564285Y-66276190D01*
X108611904Y-66371428D01*
X108611904Y-66561904D01*
X108564285Y-66657142D01*
X108516666Y-66704761D01*
X108421428Y-66752380D01*
X108230952Y-66752380D01*
X108135714Y-66704761D01*
X108088095Y-66657142D01*
X108040476Y-66561904D01*
X108040476Y-66371428D01*
X108088095Y-66276190D01*
X108135714Y-66228571D01*
X108230952Y-66180952D01*
D20*
X40132333Y-15903166D02*
X40132333Y-16622833D01*
X40090000Y-16707500D01*
X40047666Y-16749833D01*
X39963000Y-16792166D01*
X39793666Y-16792166D01*
X39709000Y-16749833D01*
X39666666Y-16707500D01*
X39624333Y-16622833D01*
X39624333Y-15903166D01*
X39243333Y-15987833D02*
X39201000Y-15945500D01*
X39116333Y-15903166D01*
X38904666Y-15903166D01*
X38820000Y-15945500D01*
X38777666Y-15987833D01*
X38735333Y-16072500D01*
X38735333Y-16157166D01*
X38777666Y-16284166D01*
X39285666Y-16792166D01*
X38735333Y-16792166D01*
D10*
X77080357Y-21827142D02*
X77127976Y-21874761D01*
X77270833Y-21922380D01*
X77366071Y-21922380D01*
X77508928Y-21874761D01*
X77604166Y-21779523D01*
X77651785Y-21684285D01*
X77699404Y-21493809D01*
X77699404Y-21350952D01*
X77651785Y-21160476D01*
X77604166Y-21065238D01*
X77508928Y-20970000D01*
X77366071Y-20922380D01*
X77270833Y-20922380D01*
X77127976Y-20970000D01*
X77080357Y-21017619D01*
X76127976Y-21922380D02*
X76699404Y-21922380D01*
X76413690Y-21922380D02*
X76413690Y-20922380D01*
X76508928Y-21065238D01*
X76604166Y-21160476D01*
X76699404Y-21208095D01*
X75556547Y-21350952D02*
X75651785Y-21303333D01*
X75699404Y-21255714D01*
X75747023Y-21160476D01*
X75747023Y-21112857D01*
X75699404Y-21017619D01*
X75651785Y-20970000D01*
X75556547Y-20922380D01*
X75366071Y-20922380D01*
X75270833Y-20970000D01*
X75223214Y-21017619D01*
X75175595Y-21112857D01*
X75175595Y-21160476D01*
X75223214Y-21255714D01*
X75270833Y-21303333D01*
X75366071Y-21350952D01*
X75556547Y-21350952D01*
X75651785Y-21398571D01*
X75699404Y-21446190D01*
X75747023Y-21541428D01*
X75747023Y-21731904D01*
X75699404Y-21827142D01*
X75651785Y-21874761D01*
X75556547Y-21922380D01*
X75366071Y-21922380D01*
X75270833Y-21874761D01*
X75223214Y-21827142D01*
X75175595Y-21731904D01*
X75175595Y-21541428D01*
X75223214Y-21446190D01*
X75270833Y-21398571D01*
X75366071Y-21350952D01*
X44314285Y-30052380D02*
X44314285Y-29052380D01*
X44076190Y-29052380D01*
X43933333Y-29100000D01*
X43838095Y-29195238D01*
X43790476Y-29290476D01*
X43742857Y-29480952D01*
X43742857Y-29623809D01*
X43790476Y-29814285D01*
X43838095Y-29909523D01*
X43933333Y-30004761D01*
X44076190Y-30052380D01*
X44314285Y-30052380D01*
X43409523Y-29052380D02*
X42790476Y-29052380D01*
X43123809Y-29433333D01*
X42980952Y-29433333D01*
X42885714Y-29480952D01*
X42838095Y-29528571D01*
X42790476Y-29623809D01*
X42790476Y-29861904D01*
X42838095Y-29957142D01*
X42885714Y-30004761D01*
X42980952Y-30052380D01*
X43266666Y-30052380D01*
X43361904Y-30004761D01*
X43409523Y-29957142D01*
X41885714Y-29052380D02*
X42361904Y-29052380D01*
X42409523Y-29528571D01*
X42361904Y-29480952D01*
X42266666Y-29433333D01*
X42028571Y-29433333D01*
X41933333Y-29480952D01*
X41885714Y-29528571D01*
X41838095Y-29623809D01*
X41838095Y-29861904D01*
X41885714Y-29957142D01*
X41933333Y-30004761D01*
X42028571Y-30052380D01*
X42266666Y-30052380D01*
X42361904Y-30004761D01*
X42409523Y-29957142D01*
X41814285Y-26252380D02*
X42385714Y-26252380D01*
X42100000Y-26252380D02*
X42100000Y-25252380D01*
X42195238Y-25395238D01*
X42290476Y-25490476D01*
X42385714Y-25538095D01*
X51307142Y-8833333D02*
X51354761Y-8785714D01*
X51402380Y-8642857D01*
X51402380Y-8547619D01*
X51354761Y-8404761D01*
X51259523Y-8309523D01*
X51164285Y-8261904D01*
X50973809Y-8214285D01*
X50830952Y-8214285D01*
X50640476Y-8261904D01*
X50545238Y-8309523D01*
X50450000Y-8404761D01*
X50402380Y-8547619D01*
X50402380Y-8642857D01*
X50450000Y-8785714D01*
X50497619Y-8833333D01*
X50402380Y-9166666D02*
X50402380Y-9833333D01*
X51402380Y-9404761D01*
X85859523Y-25004761D02*
X85716666Y-25052380D01*
X85478571Y-25052380D01*
X85383333Y-25004761D01*
X85335714Y-24957142D01*
X85288095Y-24861904D01*
X85288095Y-24766666D01*
X85335714Y-24671428D01*
X85383333Y-24623809D01*
X85478571Y-24576190D01*
X85669047Y-24528571D01*
X85764285Y-24480952D01*
X85811904Y-24433333D01*
X85859523Y-24338095D01*
X85859523Y-24242857D01*
X85811904Y-24147619D01*
X85764285Y-24100000D01*
X85669047Y-24052380D01*
X85430952Y-24052380D01*
X85288095Y-24100000D01*
X84954761Y-24052380D02*
X84716666Y-25052380D01*
X84526190Y-24338095D01*
X84335714Y-25052380D01*
X84097619Y-24052380D01*
X83764285Y-24147619D02*
X83716666Y-24100000D01*
X83621428Y-24052380D01*
X83383333Y-24052380D01*
X83288095Y-24100000D01*
X83240476Y-24147619D01*
X83192857Y-24242857D01*
X83192857Y-24338095D01*
X83240476Y-24480952D01*
X83811904Y-25052380D01*
X83192857Y-25052380D01*
X82716666Y-25052380D02*
X82526190Y-25052380D01*
X82430952Y-25004761D01*
X82383333Y-24957142D01*
X82288095Y-24814285D01*
X82240476Y-24623809D01*
X82240476Y-24242857D01*
X82288095Y-24147619D01*
X82335714Y-24100000D01*
X82430952Y-24052380D01*
X82621428Y-24052380D01*
X82716666Y-24100000D01*
X82764285Y-24147619D01*
X82811904Y-24242857D01*
X82811904Y-24480952D01*
X82764285Y-24576190D01*
X82716666Y-24623809D01*
X82621428Y-24671428D01*
X82430952Y-24671428D01*
X82335714Y-24623809D01*
X82288095Y-24576190D01*
X82240476Y-24480952D01*
X82409523Y-44154761D02*
X82266666Y-44202380D01*
X82028571Y-44202380D01*
X81933333Y-44154761D01*
X81885714Y-44107142D01*
X81838095Y-44011904D01*
X81838095Y-43916666D01*
X81885714Y-43821428D01*
X81933333Y-43773809D01*
X82028571Y-43726190D01*
X82219047Y-43678571D01*
X82314285Y-43630952D01*
X82361904Y-43583333D01*
X82409523Y-43488095D01*
X82409523Y-43392857D01*
X82361904Y-43297619D01*
X82314285Y-43250000D01*
X82219047Y-43202380D01*
X81980952Y-43202380D01*
X81838095Y-43250000D01*
X81504761Y-43202380D02*
X81266666Y-44202380D01*
X81076190Y-43488095D01*
X80885714Y-44202380D01*
X80647619Y-43202380D01*
X80361904Y-43202380D02*
X79742857Y-43202380D01*
X80076190Y-43583333D01*
X79933333Y-43583333D01*
X79838095Y-43630952D01*
X79790476Y-43678571D01*
X79742857Y-43773809D01*
X79742857Y-44011904D01*
X79790476Y-44107142D01*
X79838095Y-44154761D01*
X79933333Y-44202380D01*
X80219047Y-44202380D01*
X80314285Y-44154761D01*
X80361904Y-44107142D01*
X78838095Y-43202380D02*
X79314285Y-43202380D01*
X79361904Y-43678571D01*
X79314285Y-43630952D01*
X79219047Y-43583333D01*
X78980952Y-43583333D01*
X78885714Y-43630952D01*
X78838095Y-43678571D01*
X78790476Y-43773809D01*
X78790476Y-44011904D01*
X78838095Y-44107142D01*
X78885714Y-44154761D01*
X78980952Y-44202380D01*
X79219047Y-44202380D01*
X79314285Y-44154761D01*
X79361904Y-44107142D01*
X79052380Y-13166666D02*
X79766666Y-13166666D01*
X79909523Y-13119047D01*
X80004761Y-13023809D01*
X80052380Y-12880952D01*
X80052380Y-12785714D01*
X79052380Y-14071428D02*
X79052380Y-13880952D01*
X79100000Y-13785714D01*
X79147619Y-13738095D01*
X79290476Y-13642857D01*
X79480952Y-13595238D01*
X79861904Y-13595238D01*
X79957142Y-13642857D01*
X80004761Y-13690476D01*
X80052380Y-13785714D01*
X80052380Y-13976190D01*
X80004761Y-14071428D01*
X79957142Y-14119047D01*
X79861904Y-14166666D01*
X79623809Y-14166666D01*
X79528571Y-14119047D01*
X79480952Y-14071428D01*
X79433333Y-13976190D01*
X79433333Y-13785714D01*
X79480952Y-13690476D01*
X79528571Y-13642857D01*
X79623809Y-13595238D01*
X35359523Y-44104761D02*
X35216666Y-44152380D01*
X34978571Y-44152380D01*
X34883333Y-44104761D01*
X34835714Y-44057142D01*
X34788095Y-43961904D01*
X34788095Y-43866666D01*
X34835714Y-43771428D01*
X34883333Y-43723809D01*
X34978571Y-43676190D01*
X35169047Y-43628571D01*
X35264285Y-43580952D01*
X35311904Y-43533333D01*
X35359523Y-43438095D01*
X35359523Y-43342857D01*
X35311904Y-43247619D01*
X35264285Y-43200000D01*
X35169047Y-43152380D01*
X34930952Y-43152380D01*
X34788095Y-43200000D01*
X34454761Y-43152380D02*
X34216666Y-44152380D01*
X34026190Y-43438095D01*
X33835714Y-44152380D01*
X33597619Y-43152380D01*
X33311904Y-43152380D02*
X32692857Y-43152380D01*
X33026190Y-43533333D01*
X32883333Y-43533333D01*
X32788095Y-43580952D01*
X32740476Y-43628571D01*
X32692857Y-43723809D01*
X32692857Y-43961904D01*
X32740476Y-44057142D01*
X32788095Y-44104761D01*
X32883333Y-44152380D01*
X33169047Y-44152380D01*
X33264285Y-44104761D01*
X33311904Y-44057142D01*
X32311904Y-43247619D02*
X32264285Y-43200000D01*
X32169047Y-43152380D01*
X31930952Y-43152380D01*
X31835714Y-43200000D01*
X31788095Y-43247619D01*
X31740476Y-43342857D01*
X31740476Y-43438095D01*
X31788095Y-43580952D01*
X32359523Y-44152380D01*
X31740476Y-44152380D01*
X62092857Y-15502380D02*
X62426190Y-15026190D01*
X62664285Y-15502380D02*
X62664285Y-14502380D01*
X62283333Y-14502380D01*
X62188095Y-14550000D01*
X62140476Y-14597619D01*
X62092857Y-14692857D01*
X62092857Y-14835714D01*
X62140476Y-14930952D01*
X62188095Y-14978571D01*
X62283333Y-15026190D01*
X62664285Y-15026190D01*
X61140476Y-15502380D02*
X61711904Y-15502380D01*
X61426190Y-15502380D02*
X61426190Y-14502380D01*
X61521428Y-14645238D01*
X61616666Y-14740476D01*
X61711904Y-14788095D01*
X60283333Y-14502380D02*
X60473809Y-14502380D01*
X60569047Y-14550000D01*
X60616666Y-14597619D01*
X60711904Y-14740476D01*
X60759523Y-14930952D01*
X60759523Y-15311904D01*
X60711904Y-15407142D01*
X60664285Y-15454761D01*
X60569047Y-15502380D01*
X60378571Y-15502380D01*
X60283333Y-15454761D01*
X60235714Y-15407142D01*
X60188095Y-15311904D01*
X60188095Y-15073809D01*
X60235714Y-14978571D01*
X60283333Y-14930952D01*
X60378571Y-14883333D01*
X60569047Y-14883333D01*
X60664285Y-14930952D01*
X60711904Y-14978571D01*
X60759523Y-15073809D01*
X45859523Y-52404761D02*
X45716666Y-52452380D01*
X45478571Y-52452380D01*
X45383333Y-52404761D01*
X45335714Y-52357142D01*
X45288095Y-52261904D01*
X45288095Y-52166666D01*
X45335714Y-52071428D01*
X45383333Y-52023809D01*
X45478571Y-51976190D01*
X45669047Y-51928571D01*
X45764285Y-51880952D01*
X45811904Y-51833333D01*
X45859523Y-51738095D01*
X45859523Y-51642857D01*
X45811904Y-51547619D01*
X45764285Y-51500000D01*
X45669047Y-51452380D01*
X45430952Y-51452380D01*
X45288095Y-51500000D01*
X44954761Y-51452380D02*
X44716666Y-52452380D01*
X44526190Y-51738095D01*
X44335714Y-52452380D01*
X44097619Y-51452380D01*
X43811904Y-51452380D02*
X43192857Y-51452380D01*
X43526190Y-51833333D01*
X43383333Y-51833333D01*
X43288095Y-51880952D01*
X43240476Y-51928571D01*
X43192857Y-52023809D01*
X43192857Y-52261904D01*
X43240476Y-52357142D01*
X43288095Y-52404761D01*
X43383333Y-52452380D01*
X43669047Y-52452380D01*
X43764285Y-52404761D01*
X43811904Y-52357142D01*
X42716666Y-52452380D02*
X42526190Y-52452380D01*
X42430952Y-52404761D01*
X42383333Y-52357142D01*
X42288095Y-52214285D01*
X42240476Y-52023809D01*
X42240476Y-51642857D01*
X42288095Y-51547619D01*
X42335714Y-51500000D01*
X42430952Y-51452380D01*
X42621428Y-51452380D01*
X42716666Y-51500000D01*
X42764285Y-51547619D01*
X42811904Y-51642857D01*
X42811904Y-51880952D01*
X42764285Y-51976190D01*
X42716666Y-52023809D01*
X42621428Y-52071428D01*
X42430952Y-52071428D01*
X42335714Y-52023809D01*
X42288095Y-51976190D01*
X42240476Y-51880952D01*
X20042857Y-50757142D02*
X20090476Y-50804761D01*
X20233333Y-50852380D01*
X20328571Y-50852380D01*
X20471428Y-50804761D01*
X20566666Y-50709523D01*
X20614285Y-50614285D01*
X20661904Y-50423809D01*
X20661904Y-50280952D01*
X20614285Y-50090476D01*
X20566666Y-49995238D01*
X20471428Y-49900000D01*
X20328571Y-49852380D01*
X20233333Y-49852380D01*
X20090476Y-49900000D01*
X20042857Y-49947619D01*
X19090476Y-50852380D02*
X19661904Y-50852380D01*
X19376190Y-50852380D02*
X19376190Y-49852380D01*
X19471428Y-49995238D01*
X19566666Y-50090476D01*
X19661904Y-50138095D01*
X18233333Y-49852380D02*
X18423809Y-49852380D01*
X18519047Y-49900000D01*
X18566666Y-49947619D01*
X18661904Y-50090476D01*
X18709523Y-50280952D01*
X18709523Y-50661904D01*
X18661904Y-50757142D01*
X18614285Y-50804761D01*
X18519047Y-50852380D01*
X18328571Y-50852380D01*
X18233333Y-50804761D01*
X18185714Y-50757142D01*
X18138095Y-50661904D01*
X18138095Y-50423809D01*
X18185714Y-50328571D01*
X18233333Y-50280952D01*
X18328571Y-50233333D01*
X18519047Y-50233333D01*
X18614285Y-50280952D01*
X18661904Y-50328571D01*
X18709523Y-50423809D01*
X72559523Y-25004761D02*
X72416666Y-25052380D01*
X72178571Y-25052380D01*
X72083333Y-25004761D01*
X72035714Y-24957142D01*
X71988095Y-24861904D01*
X71988095Y-24766666D01*
X72035714Y-24671428D01*
X72083333Y-24623809D01*
X72178571Y-24576190D01*
X72369047Y-24528571D01*
X72464285Y-24480952D01*
X72511904Y-24433333D01*
X72559523Y-24338095D01*
X72559523Y-24242857D01*
X72511904Y-24147619D01*
X72464285Y-24100000D01*
X72369047Y-24052380D01*
X72130952Y-24052380D01*
X71988095Y-24100000D01*
X71654761Y-24052380D02*
X71416666Y-25052380D01*
X71226190Y-24338095D01*
X71035714Y-25052380D01*
X70797619Y-24052380D01*
X70464285Y-24147619D02*
X70416666Y-24100000D01*
X70321428Y-24052380D01*
X70083333Y-24052380D01*
X69988095Y-24100000D01*
X69940476Y-24147619D01*
X69892857Y-24242857D01*
X69892857Y-24338095D01*
X69940476Y-24480952D01*
X70511904Y-25052380D01*
X69892857Y-25052380D01*
X69321428Y-24480952D02*
X69416666Y-24433333D01*
X69464285Y-24385714D01*
X69511904Y-24290476D01*
X69511904Y-24242857D01*
X69464285Y-24147619D01*
X69416666Y-24100000D01*
X69321428Y-24052380D01*
X69130952Y-24052380D01*
X69035714Y-24100000D01*
X68988095Y-24147619D01*
X68940476Y-24242857D01*
X68940476Y-24290476D01*
X68988095Y-24385714D01*
X69035714Y-24433333D01*
X69130952Y-24480952D01*
X69321428Y-24480952D01*
X69416666Y-24528571D01*
X69464285Y-24576190D01*
X69511904Y-24671428D01*
X69511904Y-24861904D01*
X69464285Y-24957142D01*
X69416666Y-25004761D01*
X69321428Y-25052380D01*
X69130952Y-25052380D01*
X69035714Y-25004761D01*
X68988095Y-24957142D01*
X68940476Y-24861904D01*
X68940476Y-24671428D01*
X68988095Y-24576190D01*
X69035714Y-24528571D01*
X69130952Y-24480952D01*
X72559523Y-52404761D02*
X72416666Y-52452380D01*
X72178571Y-52452380D01*
X72083333Y-52404761D01*
X72035714Y-52357142D01*
X71988095Y-52261904D01*
X71988095Y-52166666D01*
X72035714Y-52071428D01*
X72083333Y-52023809D01*
X72178571Y-51976190D01*
X72369047Y-51928571D01*
X72464285Y-51880952D01*
X72511904Y-51833333D01*
X72559523Y-51738095D01*
X72559523Y-51642857D01*
X72511904Y-51547619D01*
X72464285Y-51500000D01*
X72369047Y-51452380D01*
X72130952Y-51452380D01*
X71988095Y-51500000D01*
X71654761Y-51452380D02*
X71416666Y-52452380D01*
X71226190Y-51738095D01*
X71035714Y-52452380D01*
X70797619Y-51452380D01*
X69988095Y-51785714D02*
X69988095Y-52452380D01*
X70226190Y-51404761D02*
X70464285Y-52119047D01*
X69845238Y-52119047D01*
X69273809Y-51452380D02*
X69178571Y-51452380D01*
X69083333Y-51500000D01*
X69035714Y-51547619D01*
X68988095Y-51642857D01*
X68940476Y-51833333D01*
X68940476Y-52071428D01*
X68988095Y-52261904D01*
X69035714Y-52357142D01*
X69083333Y-52404761D01*
X69178571Y-52452380D01*
X69273809Y-52452380D01*
X69369047Y-52404761D01*
X69416666Y-52357142D01*
X69464285Y-52261904D01*
X69511904Y-52071428D01*
X69511904Y-51833333D01*
X69464285Y-51642857D01*
X69416666Y-51547619D01*
X69369047Y-51500000D01*
X69273809Y-51452380D01*
X77414285Y-61552380D02*
X77414285Y-60552380D01*
X77176190Y-60552380D01*
X77033333Y-60600000D01*
X76938095Y-60695238D01*
X76890476Y-60790476D01*
X76842857Y-60980952D01*
X76842857Y-61123809D01*
X76890476Y-61314285D01*
X76938095Y-61409523D01*
X77033333Y-61504761D01*
X77176190Y-61552380D01*
X77414285Y-61552380D01*
X75985714Y-60885714D02*
X75985714Y-61552380D01*
X76223809Y-60504761D02*
X76461904Y-61219047D01*
X75842857Y-61219047D01*
X75271428Y-60552380D02*
X75176190Y-60552380D01*
X75080952Y-60600000D01*
X75033333Y-60647619D01*
X74985714Y-60742857D01*
X74938095Y-60933333D01*
X74938095Y-61171428D01*
X74985714Y-61361904D01*
X75033333Y-61457142D01*
X75080952Y-61504761D01*
X75176190Y-61552380D01*
X75271428Y-61552380D01*
X75366666Y-61504761D01*
X75414285Y-61457142D01*
X75461904Y-61361904D01*
X75509523Y-61171428D01*
X75509523Y-60933333D01*
X75461904Y-60742857D01*
X75414285Y-60647619D01*
X75366666Y-60600000D01*
X75271428Y-60552380D01*
X71764285Y-66552380D02*
X72335714Y-66552380D01*
X72050000Y-66552380D02*
X72050000Y-65552380D01*
X72145238Y-65695238D01*
X72240476Y-65790476D01*
X72335714Y-65838095D01*
X56351785Y-14122380D02*
X56351785Y-13122380D01*
X56113690Y-13122380D01*
X55970833Y-13170000D01*
X55875595Y-13265238D01*
X55827976Y-13360476D01*
X55780357Y-13550952D01*
X55780357Y-13693809D01*
X55827976Y-13884285D01*
X55875595Y-13979523D01*
X55970833Y-14074761D01*
X56113690Y-14122380D01*
X56351785Y-14122380D01*
X55399404Y-13217619D02*
X55351785Y-13170000D01*
X55256547Y-13122380D01*
X55018452Y-13122380D01*
X54923214Y-13170000D01*
X54875595Y-13217619D01*
X54827976Y-13312857D01*
X54827976Y-13408095D01*
X54875595Y-13550952D01*
X55447023Y-14122380D01*
X54827976Y-14122380D01*
X54256547Y-13550952D02*
X54351785Y-13503333D01*
X54399404Y-13455714D01*
X54447023Y-13360476D01*
X54447023Y-13312857D01*
X54399404Y-13217619D01*
X54351785Y-13170000D01*
X54256547Y-13122380D01*
X54066071Y-13122380D01*
X53970833Y-13170000D01*
X53923214Y-13217619D01*
X53875595Y-13312857D01*
X53875595Y-13360476D01*
X53923214Y-13455714D01*
X53970833Y-13503333D01*
X54066071Y-13550952D01*
X54256547Y-13550952D01*
X54351785Y-13598571D01*
X54399404Y-13646190D01*
X54447023Y-13741428D01*
X54447023Y-13931904D01*
X54399404Y-14027142D01*
X54351785Y-14074761D01*
X54256547Y-14122380D01*
X54066071Y-14122380D01*
X53970833Y-14074761D01*
X53923214Y-14027142D01*
X53875595Y-13931904D01*
X53875595Y-13741428D01*
X53923214Y-13646190D01*
X53970833Y-13598571D01*
X54066071Y-13550952D01*
X49559523Y-25054761D02*
X49416666Y-25102380D01*
X49178571Y-25102380D01*
X49083333Y-25054761D01*
X49035714Y-25007142D01*
X48988095Y-24911904D01*
X48988095Y-24816666D01*
X49035714Y-24721428D01*
X49083333Y-24673809D01*
X49178571Y-24626190D01*
X49369047Y-24578571D01*
X49464285Y-24530952D01*
X49511904Y-24483333D01*
X49559523Y-24388095D01*
X49559523Y-24292857D01*
X49511904Y-24197619D01*
X49464285Y-24150000D01*
X49369047Y-24102380D01*
X49130952Y-24102380D01*
X48988095Y-24150000D01*
X48654761Y-24102380D02*
X48416666Y-25102380D01*
X48226190Y-24388095D01*
X48035714Y-25102380D01*
X47797619Y-24102380D01*
X47464285Y-24197619D02*
X47416666Y-24150000D01*
X47321428Y-24102380D01*
X47083333Y-24102380D01*
X46988095Y-24150000D01*
X46940476Y-24197619D01*
X46892857Y-24292857D01*
X46892857Y-24388095D01*
X46940476Y-24530952D01*
X47511904Y-25102380D01*
X46892857Y-25102380D01*
X46559523Y-24102380D02*
X45892857Y-24102380D01*
X46321428Y-25102380D01*
X86937380Y-43750714D02*
X85937380Y-43750714D01*
X85937380Y-43988809D01*
X85985000Y-44131666D01*
X86080238Y-44226904D01*
X86175476Y-44274523D01*
X86365952Y-44322142D01*
X86508809Y-44322142D01*
X86699285Y-44274523D01*
X86794523Y-44226904D01*
X86889761Y-44131666D01*
X86937380Y-43988809D01*
X86937380Y-43750714D01*
X86937380Y-45274523D02*
X86937380Y-44703095D01*
X86937380Y-44988809D02*
X85937380Y-44988809D01*
X86080238Y-44893571D01*
X86175476Y-44798333D01*
X86223095Y-44703095D01*
X86365952Y-45845952D02*
X86318333Y-45750714D01*
X86270714Y-45703095D01*
X86175476Y-45655476D01*
X86127857Y-45655476D01*
X86032619Y-45703095D01*
X85985000Y-45750714D01*
X85937380Y-45845952D01*
X85937380Y-46036428D01*
X85985000Y-46131666D01*
X86032619Y-46179285D01*
X86127857Y-46226904D01*
X86175476Y-46226904D01*
X86270714Y-46179285D01*
X86318333Y-46131666D01*
X86365952Y-46036428D01*
X86365952Y-45845952D01*
X86413571Y-45750714D01*
X86461190Y-45703095D01*
X86556428Y-45655476D01*
X86746904Y-45655476D01*
X86842142Y-45703095D01*
X86889761Y-45750714D01*
X86937380Y-45845952D01*
X86937380Y-46036428D01*
X86889761Y-46131666D01*
X86842142Y-46179285D01*
X86746904Y-46226904D01*
X86556428Y-46226904D01*
X86461190Y-46179285D01*
X86413571Y-46131666D01*
X86365952Y-46036428D01*
X30351123Y-52481761D02*
X30208266Y-52529380D01*
X29970171Y-52529380D01*
X29874933Y-52481761D01*
X29827314Y-52434142D01*
X29779695Y-52338904D01*
X29779695Y-52243666D01*
X29827314Y-52148428D01*
X29874933Y-52100809D01*
X29970171Y-52053190D01*
X30160647Y-52005571D01*
X30255885Y-51957952D01*
X30303504Y-51910333D01*
X30351123Y-51815095D01*
X30351123Y-51719857D01*
X30303504Y-51624619D01*
X30255885Y-51577000D01*
X30160647Y-51529380D01*
X29922552Y-51529380D01*
X29779695Y-51577000D01*
X29446361Y-51529380D02*
X29208266Y-52529380D01*
X29017790Y-51815095D01*
X28827314Y-52529380D01*
X28589219Y-51529380D01*
X28303504Y-51529380D02*
X27684457Y-51529380D01*
X28017790Y-51910333D01*
X27874933Y-51910333D01*
X27779695Y-51957952D01*
X27732076Y-52005571D01*
X27684457Y-52100809D01*
X27684457Y-52338904D01*
X27732076Y-52434142D01*
X27779695Y-52481761D01*
X27874933Y-52529380D01*
X28160647Y-52529380D01*
X28255885Y-52481761D01*
X28303504Y-52434142D01*
X27113028Y-51957952D02*
X27208266Y-51910333D01*
X27255885Y-51862714D01*
X27303504Y-51767476D01*
X27303504Y-51719857D01*
X27255885Y-51624619D01*
X27208266Y-51577000D01*
X27113028Y-51529380D01*
X26922552Y-51529380D01*
X26827314Y-51577000D01*
X26779695Y-51624619D01*
X26732076Y-51719857D01*
X26732076Y-51767476D01*
X26779695Y-51862714D01*
X26827314Y-51910333D01*
X26922552Y-51957952D01*
X27113028Y-51957952D01*
X27208266Y-52005571D01*
X27255885Y-52053190D01*
X27303504Y-52148428D01*
X27303504Y-52338904D01*
X27255885Y-52434142D01*
X27208266Y-52481761D01*
X27113028Y-52529380D01*
X26922552Y-52529380D01*
X26827314Y-52481761D01*
X26779695Y-52434142D01*
X26732076Y-52338904D01*
X26732076Y-52148428D01*
X26779695Y-52053190D01*
X26827314Y-52005571D01*
X26922552Y-51957952D01*
X57564285Y-74352380D02*
X57564285Y-73352380D01*
X57326190Y-73352380D01*
X57183333Y-73400000D01*
X57088095Y-73495238D01*
X57040476Y-73590476D01*
X56992857Y-73780952D01*
X56992857Y-73923809D01*
X57040476Y-74114285D01*
X57088095Y-74209523D01*
X57183333Y-74304761D01*
X57326190Y-74352380D01*
X57564285Y-74352380D01*
X56611904Y-73447619D02*
X56564285Y-73400000D01*
X56469047Y-73352380D01*
X56230952Y-73352380D01*
X56135714Y-73400000D01*
X56088095Y-73447619D01*
X56040476Y-73542857D01*
X56040476Y-73638095D01*
X56088095Y-73780952D01*
X56659523Y-74352380D01*
X56040476Y-74352380D01*
X55707142Y-73352380D02*
X55088095Y-73352380D01*
X55421428Y-73733333D01*
X55278571Y-73733333D01*
X55183333Y-73780952D01*
X55135714Y-73828571D01*
X55088095Y-73923809D01*
X55088095Y-74161904D01*
X55135714Y-74257142D01*
X55183333Y-74304761D01*
X55278571Y-74352380D01*
X55564285Y-74352380D01*
X55659523Y-74304761D01*
X55707142Y-74257142D01*
X85459523Y-8552380D02*
X85459523Y-9266666D01*
X85507142Y-9409523D01*
X85602380Y-9504761D01*
X85745238Y-9552380D01*
X85840476Y-9552380D01*
X84459523Y-9552380D02*
X85030952Y-9552380D01*
X84745238Y-9552380D02*
X84745238Y-8552380D01*
X84840476Y-8695238D01*
X84935714Y-8790476D01*
X85030952Y-8838095D01*
X83840476Y-8552380D02*
X83745238Y-8552380D01*
X83650000Y-8600000D01*
X83602380Y-8647619D01*
X83554761Y-8742857D01*
X83507142Y-8933333D01*
X83507142Y-9171428D01*
X83554761Y-9361904D01*
X83602380Y-9457142D01*
X83650000Y-9504761D01*
X83745238Y-9552380D01*
X83840476Y-9552380D01*
X83935714Y-9504761D01*
X83983333Y-9457142D01*
X84030952Y-9361904D01*
X84078571Y-9171428D01*
X84078571Y-8933333D01*
X84030952Y-8742857D01*
X83983333Y-8647619D01*
X83935714Y-8600000D01*
X83840476Y-8552380D01*
X20614285Y-42352380D02*
X20614285Y-41352380D01*
X20376190Y-41352380D01*
X20233333Y-41400000D01*
X20138095Y-41495238D01*
X20090476Y-41590476D01*
X20042857Y-41780952D01*
X20042857Y-41923809D01*
X20090476Y-42114285D01*
X20138095Y-42209523D01*
X20233333Y-42304761D01*
X20376190Y-42352380D01*
X20614285Y-42352380D01*
X19709523Y-41352380D02*
X19090476Y-41352380D01*
X19423809Y-41733333D01*
X19280952Y-41733333D01*
X19185714Y-41780952D01*
X19138095Y-41828571D01*
X19090476Y-41923809D01*
X19090476Y-42161904D01*
X19138095Y-42257142D01*
X19185714Y-42304761D01*
X19280952Y-42352380D01*
X19566666Y-42352380D01*
X19661904Y-42304761D01*
X19709523Y-42257142D01*
X18233333Y-41352380D02*
X18423809Y-41352380D01*
X18519047Y-41400000D01*
X18566666Y-41447619D01*
X18661904Y-41590476D01*
X18709523Y-41780952D01*
X18709523Y-42161904D01*
X18661904Y-42257142D01*
X18614285Y-42304761D01*
X18519047Y-42352380D01*
X18328571Y-42352380D01*
X18233333Y-42304761D01*
X18185714Y-42257142D01*
X18138095Y-42161904D01*
X18138095Y-41923809D01*
X18185714Y-41828571D01*
X18233333Y-41780952D01*
X18328571Y-41733333D01*
X18519047Y-41733333D01*
X18614285Y-41780952D01*
X18661904Y-41828571D01*
X18709523Y-41923809D01*
X23264285Y-44252380D02*
X23835714Y-44252380D01*
X23550000Y-44252380D02*
X23550000Y-43252380D01*
X23645238Y-43395238D01*
X23740476Y-43490476D01*
X23835714Y-43538095D01*
X96564285Y-42352380D02*
X96564285Y-41352380D01*
X96326190Y-41352380D01*
X96183333Y-41400000D01*
X96088095Y-41495238D01*
X96040476Y-41590476D01*
X95992857Y-41780952D01*
X95992857Y-41923809D01*
X96040476Y-42114285D01*
X96088095Y-42209523D01*
X96183333Y-42304761D01*
X96326190Y-42352380D01*
X96564285Y-42352380D01*
X95659523Y-41352380D02*
X95040476Y-41352380D01*
X95373809Y-41733333D01*
X95230952Y-41733333D01*
X95135714Y-41780952D01*
X95088095Y-41828571D01*
X95040476Y-41923809D01*
X95040476Y-42161904D01*
X95088095Y-42257142D01*
X95135714Y-42304761D01*
X95230952Y-42352380D01*
X95516666Y-42352380D01*
X95611904Y-42304761D01*
X95659523Y-42257142D01*
X94564285Y-42352380D02*
X94373809Y-42352380D01*
X94278571Y-42304761D01*
X94230952Y-42257142D01*
X94135714Y-42114285D01*
X94088095Y-41923809D01*
X94088095Y-41542857D01*
X94135714Y-41447619D01*
X94183333Y-41400000D01*
X94278571Y-41352380D01*
X94469047Y-41352380D01*
X94564285Y-41400000D01*
X94611904Y-41447619D01*
X94659523Y-41542857D01*
X94659523Y-41780952D01*
X94611904Y-41876190D01*
X94564285Y-41923809D01*
X94469047Y-41971428D01*
X94278571Y-41971428D01*
X94183333Y-41923809D01*
X94135714Y-41876190D01*
X94088095Y-41780952D01*
X90864285Y-47452380D02*
X91435714Y-47452380D01*
X91150000Y-47452380D02*
X91150000Y-46452380D01*
X91245238Y-46595238D01*
X91340476Y-46690476D01*
X91435714Y-46738095D01*
X68309523Y-66654761D02*
X68166666Y-66702380D01*
X67928571Y-66702380D01*
X67833333Y-66654761D01*
X67785714Y-66607142D01*
X67738095Y-66511904D01*
X67738095Y-66416666D01*
X67785714Y-66321428D01*
X67833333Y-66273809D01*
X67928571Y-66226190D01*
X68119047Y-66178571D01*
X68214285Y-66130952D01*
X68261904Y-66083333D01*
X68309523Y-65988095D01*
X68309523Y-65892857D01*
X68261904Y-65797619D01*
X68214285Y-65750000D01*
X68119047Y-65702380D01*
X67880952Y-65702380D01*
X67738095Y-65750000D01*
X67404761Y-65702380D02*
X67166666Y-66702380D01*
X66976190Y-65988095D01*
X66785714Y-66702380D01*
X66547619Y-65702380D01*
X65738095Y-66035714D02*
X65738095Y-66702380D01*
X65976190Y-65654761D02*
X66214285Y-66369047D01*
X65595238Y-66369047D01*
X64785714Y-65702380D02*
X64976190Y-65702380D01*
X65071428Y-65750000D01*
X65119047Y-65797619D01*
X65214285Y-65940476D01*
X65261904Y-66130952D01*
X65261904Y-66511904D01*
X65214285Y-66607142D01*
X65166666Y-66654761D01*
X65071428Y-66702380D01*
X64880952Y-66702380D01*
X64785714Y-66654761D01*
X64738095Y-66607142D01*
X64690476Y-66511904D01*
X64690476Y-66273809D01*
X64738095Y-66178571D01*
X64785714Y-66130952D01*
X64880952Y-66083333D01*
X65071428Y-66083333D01*
X65166666Y-66130952D01*
X65214285Y-66178571D01*
X65261904Y-66273809D01*
X49409523Y-44104761D02*
X49266666Y-44152380D01*
X49028571Y-44152380D01*
X48933333Y-44104761D01*
X48885714Y-44057142D01*
X48838095Y-43961904D01*
X48838095Y-43866666D01*
X48885714Y-43771428D01*
X48933333Y-43723809D01*
X49028571Y-43676190D01*
X49219047Y-43628571D01*
X49314285Y-43580952D01*
X49361904Y-43533333D01*
X49409523Y-43438095D01*
X49409523Y-43342857D01*
X49361904Y-43247619D01*
X49314285Y-43200000D01*
X49219047Y-43152380D01*
X48980952Y-43152380D01*
X48838095Y-43200000D01*
X48504761Y-43152380D02*
X48266666Y-44152380D01*
X48076190Y-43438095D01*
X47885714Y-44152380D01*
X47647619Y-43152380D01*
X47361904Y-43152380D02*
X46742857Y-43152380D01*
X47076190Y-43533333D01*
X46933333Y-43533333D01*
X46838095Y-43580952D01*
X46790476Y-43628571D01*
X46742857Y-43723809D01*
X46742857Y-43961904D01*
X46790476Y-44057142D01*
X46838095Y-44104761D01*
X46933333Y-44152380D01*
X47219047Y-44152380D01*
X47314285Y-44104761D01*
X47361904Y-44057142D01*
X46409523Y-43152380D02*
X45790476Y-43152380D01*
X46123809Y-43533333D01*
X45980952Y-43533333D01*
X45885714Y-43580952D01*
X45838095Y-43628571D01*
X45790476Y-43723809D01*
X45790476Y-43961904D01*
X45838095Y-44057142D01*
X45885714Y-44104761D01*
X45980952Y-44152380D01*
X46266666Y-44152380D01*
X46361904Y-44104761D01*
X46409523Y-44057142D01*
X38592857Y-69757142D02*
X38640476Y-69804761D01*
X38783333Y-69852380D01*
X38878571Y-69852380D01*
X39021428Y-69804761D01*
X39116666Y-69709523D01*
X39164285Y-69614285D01*
X39211904Y-69423809D01*
X39211904Y-69280952D01*
X39164285Y-69090476D01*
X39116666Y-68995238D01*
X39021428Y-68900000D01*
X38878571Y-68852380D01*
X38783333Y-68852380D01*
X38640476Y-68900000D01*
X38592857Y-68947619D01*
X37640476Y-69852380D02*
X38211904Y-69852380D01*
X37926190Y-69852380D02*
X37926190Y-68852380D01*
X38021428Y-68995238D01*
X38116666Y-69090476D01*
X38211904Y-69138095D01*
X37307142Y-68852380D02*
X36640476Y-68852380D01*
X37069047Y-69852380D01*
X93160380Y-74992714D02*
X92160380Y-74992714D01*
X92160380Y-75230809D01*
X92208000Y-75373666D01*
X92303238Y-75468904D01*
X92398476Y-75516523D01*
X92588952Y-75564142D01*
X92731809Y-75564142D01*
X92922285Y-75516523D01*
X93017523Y-75468904D01*
X93112761Y-75373666D01*
X93160380Y-75230809D01*
X93160380Y-74992714D01*
X92255619Y-75945095D02*
X92208000Y-75992714D01*
X92160380Y-76087952D01*
X92160380Y-76326047D01*
X92208000Y-76421285D01*
X92255619Y-76468904D01*
X92350857Y-76516523D01*
X92446095Y-76516523D01*
X92588952Y-76468904D01*
X93160380Y-75897476D01*
X93160380Y-76516523D01*
X92493714Y-77373666D02*
X93160380Y-77373666D01*
X92112761Y-77135571D02*
X92827047Y-76897476D01*
X92827047Y-77516523D01*
X86683380Y-63054714D02*
X85683380Y-63054714D01*
X85683380Y-63292809D01*
X85731000Y-63435666D01*
X85826238Y-63530904D01*
X85921476Y-63578523D01*
X86111952Y-63626142D01*
X86254809Y-63626142D01*
X86445285Y-63578523D01*
X86540523Y-63530904D01*
X86635761Y-63435666D01*
X86683380Y-63292809D01*
X86683380Y-63054714D01*
X85778619Y-64007095D02*
X85731000Y-64054714D01*
X85683380Y-64149952D01*
X85683380Y-64388047D01*
X85731000Y-64483285D01*
X85778619Y-64530904D01*
X85873857Y-64578523D01*
X85969095Y-64578523D01*
X86111952Y-64530904D01*
X86683380Y-63959476D01*
X86683380Y-64578523D01*
X86683380Y-65530904D02*
X86683380Y-64959476D01*
X86683380Y-65245190D02*
X85683380Y-65245190D01*
X85826238Y-65149952D01*
X85921476Y-65054714D01*
X85969095Y-64959476D01*
X25859523Y-25104761D02*
X25716666Y-25152380D01*
X25478571Y-25152380D01*
X25383333Y-25104761D01*
X25335714Y-25057142D01*
X25288095Y-24961904D01*
X25288095Y-24866666D01*
X25335714Y-24771428D01*
X25383333Y-24723809D01*
X25478571Y-24676190D01*
X25669047Y-24628571D01*
X25764285Y-24580952D01*
X25811904Y-24533333D01*
X25859523Y-24438095D01*
X25859523Y-24342857D01*
X25811904Y-24247619D01*
X25764285Y-24200000D01*
X25669047Y-24152380D01*
X25430952Y-24152380D01*
X25288095Y-24200000D01*
X24954761Y-24152380D02*
X24716666Y-25152380D01*
X24526190Y-24438095D01*
X24335714Y-25152380D01*
X24097619Y-24152380D01*
X23764285Y-24247619D02*
X23716666Y-24200000D01*
X23621428Y-24152380D01*
X23383333Y-24152380D01*
X23288095Y-24200000D01*
X23240476Y-24247619D01*
X23192857Y-24342857D01*
X23192857Y-24438095D01*
X23240476Y-24580952D01*
X23811904Y-25152380D01*
X23192857Y-25152380D01*
X22335714Y-24152380D02*
X22526190Y-24152380D01*
X22621428Y-24200000D01*
X22669047Y-24247619D01*
X22764285Y-24390476D01*
X22811904Y-24580952D01*
X22811904Y-24961904D01*
X22764285Y-25057142D01*
X22716666Y-25104761D01*
X22621428Y-25152380D01*
X22430952Y-25152380D01*
X22335714Y-25104761D01*
X22288095Y-25057142D01*
X22240476Y-24961904D01*
X22240476Y-24723809D01*
X22288095Y-24628571D01*
X22335714Y-24580952D01*
X22430952Y-24533333D01*
X22621428Y-24533333D01*
X22716666Y-24580952D01*
X22764285Y-24628571D01*
X22811904Y-24723809D01*
X68359523Y-44104761D02*
X68216666Y-44152380D01*
X67978571Y-44152380D01*
X67883333Y-44104761D01*
X67835714Y-44057142D01*
X67788095Y-43961904D01*
X67788095Y-43866666D01*
X67835714Y-43771428D01*
X67883333Y-43723809D01*
X67978571Y-43676190D01*
X68169047Y-43628571D01*
X68264285Y-43580952D01*
X68311904Y-43533333D01*
X68359523Y-43438095D01*
X68359523Y-43342857D01*
X68311904Y-43247619D01*
X68264285Y-43200000D01*
X68169047Y-43152380D01*
X67930952Y-43152380D01*
X67788095Y-43200000D01*
X67454761Y-43152380D02*
X67216666Y-44152380D01*
X67026190Y-43438095D01*
X66835714Y-44152380D01*
X66597619Y-43152380D01*
X66311904Y-43152380D02*
X65692857Y-43152380D01*
X66026190Y-43533333D01*
X65883333Y-43533333D01*
X65788095Y-43580952D01*
X65740476Y-43628571D01*
X65692857Y-43723809D01*
X65692857Y-43961904D01*
X65740476Y-44057142D01*
X65788095Y-44104761D01*
X65883333Y-44152380D01*
X66169047Y-44152380D01*
X66264285Y-44104761D01*
X66311904Y-44057142D01*
X64835714Y-43485714D02*
X64835714Y-44152380D01*
X65073809Y-43104761D02*
X65311904Y-43819047D01*
X64692857Y-43819047D01*
X32364285Y-64721380D02*
X32364285Y-63721380D01*
X32126190Y-63721380D01*
X31983333Y-63769000D01*
X31888095Y-63864238D01*
X31840476Y-63959476D01*
X31792857Y-64149952D01*
X31792857Y-64292809D01*
X31840476Y-64483285D01*
X31888095Y-64578523D01*
X31983333Y-64673761D01*
X32126190Y-64721380D01*
X32364285Y-64721380D01*
X30840476Y-64721380D02*
X31411904Y-64721380D01*
X31126190Y-64721380D02*
X31126190Y-63721380D01*
X31221428Y-63864238D01*
X31316666Y-63959476D01*
X31411904Y-64007095D01*
X30364285Y-64721380D02*
X30173809Y-64721380D01*
X30078571Y-64673761D01*
X30030952Y-64626142D01*
X29935714Y-64483285D01*
X29888095Y-64292809D01*
X29888095Y-63911857D01*
X29935714Y-63816619D01*
X29983333Y-63769000D01*
X30078571Y-63721380D01*
X30269047Y-63721380D01*
X30364285Y-63769000D01*
X30411904Y-63816619D01*
X30459523Y-63911857D01*
X30459523Y-64149952D01*
X30411904Y-64245190D01*
X30364285Y-64292809D01*
X30269047Y-64340428D01*
X30078571Y-64340428D01*
X29983333Y-64292809D01*
X29935714Y-64245190D01*
X29888095Y-64149952D01*
X35642857Y-31457142D02*
X35690476Y-31504761D01*
X35833333Y-31552380D01*
X35928571Y-31552380D01*
X36071428Y-31504761D01*
X36166666Y-31409523D01*
X36214285Y-31314285D01*
X36261904Y-31123809D01*
X36261904Y-30980952D01*
X36214285Y-30790476D01*
X36166666Y-30695238D01*
X36071428Y-30600000D01*
X35928571Y-30552380D01*
X35833333Y-30552380D01*
X35690476Y-30600000D01*
X35642857Y-30647619D01*
X34690476Y-31552380D02*
X35261904Y-31552380D01*
X34976190Y-31552380D02*
X34976190Y-30552380D01*
X35071428Y-30695238D01*
X35166666Y-30790476D01*
X35261904Y-30838095D01*
X33785714Y-30552380D02*
X34261904Y-30552380D01*
X34309523Y-31028571D01*
X34261904Y-30980952D01*
X34166666Y-30933333D01*
X33928571Y-30933333D01*
X33833333Y-30980952D01*
X33785714Y-31028571D01*
X33738095Y-31123809D01*
X33738095Y-31361904D01*
X33785714Y-31457142D01*
X33833333Y-31504761D01*
X33928571Y-31552380D01*
X34166666Y-31552380D01*
X34261904Y-31504761D01*
X34309523Y-31457142D01*
X106559523Y-45404761D02*
X106416666Y-45452380D01*
X106178571Y-45452380D01*
X106083333Y-45404761D01*
X106035714Y-45357142D01*
X105988095Y-45261904D01*
X105988095Y-45166666D01*
X106035714Y-45071428D01*
X106083333Y-45023809D01*
X106178571Y-44976190D01*
X106369047Y-44928571D01*
X106464285Y-44880952D01*
X106511904Y-44833333D01*
X106559523Y-44738095D01*
X106559523Y-44642857D01*
X106511904Y-44547619D01*
X106464285Y-44500000D01*
X106369047Y-44452380D01*
X106130952Y-44452380D01*
X105988095Y-44500000D01*
X105654761Y-44452380D02*
X105416666Y-45452380D01*
X105226190Y-44738095D01*
X105035714Y-45452380D01*
X104797619Y-44452380D01*
X104511904Y-44452380D02*
X103892857Y-44452380D01*
X104226190Y-44833333D01*
X104083333Y-44833333D01*
X103988095Y-44880952D01*
X103940476Y-44928571D01*
X103892857Y-45023809D01*
X103892857Y-45261904D01*
X103940476Y-45357142D01*
X103988095Y-45404761D01*
X104083333Y-45452380D01*
X104369047Y-45452380D01*
X104464285Y-45404761D01*
X104511904Y-45357142D01*
X103035714Y-44452380D02*
X103226190Y-44452380D01*
X103321428Y-44500000D01*
X103369047Y-44547619D01*
X103464285Y-44690476D01*
X103511904Y-44880952D01*
X103511904Y-45261904D01*
X103464285Y-45357142D01*
X103416666Y-45404761D01*
X103321428Y-45452380D01*
X103130952Y-45452380D01*
X103035714Y-45404761D01*
X102988095Y-45357142D01*
X102940476Y-45261904D01*
X102940476Y-45023809D01*
X102988095Y-44928571D01*
X103035714Y-44880952D01*
X103130952Y-44833333D01*
X103321428Y-44833333D01*
X103416666Y-44880952D01*
X103464285Y-44928571D01*
X103511904Y-45023809D01*
X76942857Y-69657142D02*
X76990476Y-69704761D01*
X77133333Y-69752380D01*
X77228571Y-69752380D01*
X77371428Y-69704761D01*
X77466666Y-69609523D01*
X77514285Y-69514285D01*
X77561904Y-69323809D01*
X77561904Y-69180952D01*
X77514285Y-68990476D01*
X77466666Y-68895238D01*
X77371428Y-68800000D01*
X77228571Y-68752380D01*
X77133333Y-68752380D01*
X76990476Y-68800000D01*
X76942857Y-68847619D01*
X76561904Y-68847619D02*
X76514285Y-68800000D01*
X76419047Y-68752380D01*
X76180952Y-68752380D01*
X76085714Y-68800000D01*
X76038095Y-68847619D01*
X75990476Y-68942857D01*
X75990476Y-69038095D01*
X76038095Y-69180952D01*
X76609523Y-69752380D01*
X75990476Y-69752380D01*
X75371428Y-68752380D02*
X75276190Y-68752380D01*
X75180952Y-68800000D01*
X75133333Y-68847619D01*
X75085714Y-68942857D01*
X75038095Y-69133333D01*
X75038095Y-69371428D01*
X75085714Y-69561904D01*
X75133333Y-69657142D01*
X75180952Y-69704761D01*
X75276190Y-69752380D01*
X75371428Y-69752380D01*
X75466666Y-69704761D01*
X75514285Y-69657142D01*
X75561904Y-69561904D01*
X75609523Y-69371428D01*
X75609523Y-69133333D01*
X75561904Y-68942857D01*
X75514285Y-68847619D01*
X75466666Y-68800000D01*
X75371428Y-68752380D01*
X11326523Y-77399161D02*
X11183666Y-77446780D01*
X10945571Y-77446780D01*
X10850333Y-77399161D01*
X10802714Y-77351542D01*
X10755095Y-77256304D01*
X10755095Y-77161066D01*
X10802714Y-77065828D01*
X10850333Y-77018209D01*
X10945571Y-76970590D01*
X11136047Y-76922971D01*
X11231285Y-76875352D01*
X11278904Y-76827733D01*
X11326523Y-76732495D01*
X11326523Y-76637257D01*
X11278904Y-76542019D01*
X11231285Y-76494400D01*
X11136047Y-76446780D01*
X10897952Y-76446780D01*
X10755095Y-76494400D01*
X10421761Y-76446780D02*
X10183666Y-77446780D01*
X9993190Y-76732495D01*
X9802714Y-77446780D01*
X9564619Y-76446780D01*
X8755095Y-76780114D02*
X8755095Y-77446780D01*
X8993190Y-76399161D02*
X9231285Y-77113447D01*
X8612238Y-77113447D01*
X8326523Y-76446780D02*
X7707476Y-76446780D01*
X8040809Y-76827733D01*
X7897952Y-76827733D01*
X7802714Y-76875352D01*
X7755095Y-76922971D01*
X7707476Y-77018209D01*
X7707476Y-77256304D01*
X7755095Y-77351542D01*
X7802714Y-77399161D01*
X7897952Y-77446780D01*
X8183666Y-77446780D01*
X8278904Y-77399161D01*
X8326523Y-77351542D01*
X32759523Y-66704761D02*
X32616666Y-66752380D01*
X32378571Y-66752380D01*
X32283333Y-66704761D01*
X32235714Y-66657142D01*
X32188095Y-66561904D01*
X32188095Y-66466666D01*
X32235714Y-66371428D01*
X32283333Y-66323809D01*
X32378571Y-66276190D01*
X32569047Y-66228571D01*
X32664285Y-66180952D01*
X32711904Y-66133333D01*
X32759523Y-66038095D01*
X32759523Y-65942857D01*
X32711904Y-65847619D01*
X32664285Y-65800000D01*
X32569047Y-65752380D01*
X32330952Y-65752380D01*
X32188095Y-65800000D01*
X31854761Y-65752380D02*
X31616666Y-66752380D01*
X31426190Y-66038095D01*
X31235714Y-66752380D01*
X30997619Y-65752380D01*
X30188095Y-66085714D02*
X30188095Y-66752380D01*
X30426190Y-65704761D02*
X30664285Y-66419047D01*
X30045238Y-66419047D01*
X29235714Y-66085714D02*
X29235714Y-66752380D01*
X29473809Y-65704761D02*
X29711904Y-66419047D01*
X29092857Y-66419047D01*
X87787380Y-24573714D02*
X86787380Y-24573714D01*
X86787380Y-24811809D01*
X86835000Y-24954666D01*
X86930238Y-25049904D01*
X87025476Y-25097523D01*
X87215952Y-25145142D01*
X87358809Y-25145142D01*
X87549285Y-25097523D01*
X87644523Y-25049904D01*
X87739761Y-24954666D01*
X87787380Y-24811809D01*
X87787380Y-24573714D01*
X87787380Y-26097523D02*
X87787380Y-25526095D01*
X87787380Y-25811809D02*
X86787380Y-25811809D01*
X86930238Y-25716571D01*
X87025476Y-25621333D01*
X87073095Y-25526095D01*
X86787380Y-27002285D02*
X86787380Y-26526095D01*
X87263571Y-26478476D01*
X87215952Y-26526095D01*
X87168333Y-26621333D01*
X87168333Y-26859428D01*
X87215952Y-26954666D01*
X87263571Y-27002285D01*
X87358809Y-27049904D01*
X87596904Y-27049904D01*
X87692142Y-27002285D01*
X87739761Y-26954666D01*
X87787380Y-26859428D01*
X87787380Y-26621333D01*
X87739761Y-26526095D01*
X87692142Y-26478476D01*
X62416666Y-3852380D02*
X62750000Y-3376190D01*
X62988095Y-3852380D02*
X62988095Y-2852380D01*
X62607142Y-2852380D01*
X62511904Y-2900000D01*
X62464285Y-2947619D01*
X62416666Y-3042857D01*
X62416666Y-3185714D01*
X62464285Y-3280952D01*
X62511904Y-3328571D01*
X62607142Y-3376190D01*
X62988095Y-3376190D01*
X62083333Y-2852380D02*
X61416666Y-2852380D01*
X61845238Y-3852380D01*
X77592857Y-4602380D02*
X77926190Y-4126190D01*
X78164285Y-4602380D02*
X78164285Y-3602380D01*
X77783333Y-3602380D01*
X77688095Y-3650000D01*
X77640476Y-3697619D01*
X77592857Y-3792857D01*
X77592857Y-3935714D01*
X77640476Y-4030952D01*
X77688095Y-4078571D01*
X77783333Y-4126190D01*
X78164285Y-4126190D01*
X77211904Y-3697619D02*
X77164285Y-3650000D01*
X77069047Y-3602380D01*
X76830952Y-3602380D01*
X76735714Y-3650000D01*
X76688095Y-3697619D01*
X76640476Y-3792857D01*
X76640476Y-3888095D01*
X76688095Y-4030952D01*
X77259523Y-4602380D01*
X76640476Y-4602380D01*
X76021428Y-3602380D02*
X75926190Y-3602380D01*
X75830952Y-3650000D01*
X75783333Y-3697619D01*
X75735714Y-3792857D01*
X75688095Y-3983333D01*
X75688095Y-4221428D01*
X75735714Y-4411904D01*
X75783333Y-4507142D01*
X75830952Y-4554761D01*
X75926190Y-4602380D01*
X76021428Y-4602380D01*
X76116666Y-4554761D01*
X76164285Y-4507142D01*
X76211904Y-4411904D01*
X76259523Y-4221428D01*
X76259523Y-3983333D01*
X76211904Y-3792857D01*
X76164285Y-3697619D01*
X76116666Y-3650000D01*
X76021428Y-3602380D01*
X51266666Y-11757142D02*
X51314285Y-11804761D01*
X51457142Y-11852380D01*
X51552380Y-11852380D01*
X51695238Y-11804761D01*
X51790476Y-11709523D01*
X51838095Y-11614285D01*
X51885714Y-11423809D01*
X51885714Y-11280952D01*
X51838095Y-11090476D01*
X51790476Y-10995238D01*
X51695238Y-10900000D01*
X51552380Y-10852380D01*
X51457142Y-10852380D01*
X51314285Y-10900000D01*
X51266666Y-10947619D01*
X50409523Y-10852380D02*
X50600000Y-10852380D01*
X50695238Y-10900000D01*
X50742857Y-10947619D01*
X50838095Y-11090476D01*
X50885714Y-11280952D01*
X50885714Y-11661904D01*
X50838095Y-11757142D01*
X50790476Y-11804761D01*
X50695238Y-11852380D01*
X50504761Y-11852380D01*
X50409523Y-11804761D01*
X50361904Y-11757142D01*
X50314285Y-11661904D01*
X50314285Y-11423809D01*
X50361904Y-11328571D01*
X50409523Y-11280952D01*
X50504761Y-11233333D01*
X50695238Y-11233333D01*
X50790476Y-11280952D01*
X50838095Y-11328571D01*
X50885714Y-11423809D01*
X77592857Y-7452380D02*
X77926190Y-6976190D01*
X78164285Y-7452380D02*
X78164285Y-6452380D01*
X77783333Y-6452380D01*
X77688095Y-6500000D01*
X77640476Y-6547619D01*
X77592857Y-6642857D01*
X77592857Y-6785714D01*
X77640476Y-6880952D01*
X77688095Y-6928571D01*
X77783333Y-6976190D01*
X78164285Y-6976190D01*
X76640476Y-7452380D02*
X77211904Y-7452380D01*
X76926190Y-7452380D02*
X76926190Y-6452380D01*
X77021428Y-6595238D01*
X77116666Y-6690476D01*
X77211904Y-6738095D01*
X76164285Y-7452380D02*
X75973809Y-7452380D01*
X75878571Y-7404761D01*
X75830952Y-7357142D01*
X75735714Y-7214285D01*
X75688095Y-7023809D01*
X75688095Y-6642857D01*
X75735714Y-6547619D01*
X75783333Y-6500000D01*
X75878571Y-6452380D01*
X76069047Y-6452380D01*
X76164285Y-6500000D01*
X76211904Y-6547619D01*
X76259523Y-6642857D01*
X76259523Y-6880952D01*
X76211904Y-6976190D01*
X76164285Y-7023809D01*
X76069047Y-7071428D01*
X75878571Y-7071428D01*
X75783333Y-7023809D01*
X75735714Y-6976190D01*
X75688095Y-6880952D01*
X62416666Y-5452380D02*
X62750000Y-4976190D01*
X62988095Y-5452380D02*
X62988095Y-4452380D01*
X62607142Y-4452380D01*
X62511904Y-4500000D01*
X62464285Y-4547619D01*
X62416666Y-4642857D01*
X62416666Y-4785714D01*
X62464285Y-4880952D01*
X62511904Y-4928571D01*
X62607142Y-4976190D01*
X62988095Y-4976190D01*
X61845238Y-4880952D02*
X61940476Y-4833333D01*
X61988095Y-4785714D01*
X62035714Y-4690476D01*
X62035714Y-4642857D01*
X61988095Y-4547619D01*
X61940476Y-4500000D01*
X61845238Y-4452380D01*
X61654761Y-4452380D01*
X61559523Y-4500000D01*
X61511904Y-4547619D01*
X61464285Y-4642857D01*
X61464285Y-4690476D01*
X61511904Y-4785714D01*
X61559523Y-4833333D01*
X61654761Y-4880952D01*
X61845238Y-4880952D01*
X61940476Y-4928571D01*
X61988095Y-4976190D01*
X62035714Y-5071428D01*
X62035714Y-5261904D01*
X61988095Y-5357142D01*
X61940476Y-5404761D01*
X61845238Y-5452380D01*
X61654761Y-5452380D01*
X61559523Y-5404761D01*
X61511904Y-5357142D01*
X61464285Y-5261904D01*
X61464285Y-5071428D01*
X61511904Y-4976190D01*
X61559523Y-4928571D01*
X61654761Y-4880952D01*
X68164285Y-28652380D02*
X68164285Y-27652380D01*
X67926190Y-27652380D01*
X67783333Y-27700000D01*
X67688095Y-27795238D01*
X67640476Y-27890476D01*
X67592857Y-28080952D01*
X67592857Y-28223809D01*
X67640476Y-28414285D01*
X67688095Y-28509523D01*
X67783333Y-28604761D01*
X67926190Y-28652380D01*
X68164285Y-28652380D01*
X66640476Y-28652380D02*
X67211904Y-28652380D01*
X66926190Y-28652380D02*
X66926190Y-27652380D01*
X67021428Y-27795238D01*
X67116666Y-27890476D01*
X67211904Y-27938095D01*
X65783333Y-27985714D02*
X65783333Y-28652380D01*
X66021428Y-27604761D02*
X66259523Y-28319047D01*
X65640476Y-28319047D01*
X106551123Y-52354761D02*
X106408266Y-52402380D01*
X106170171Y-52402380D01*
X106074933Y-52354761D01*
X106027314Y-52307142D01*
X105979695Y-52211904D01*
X105979695Y-52116666D01*
X106027314Y-52021428D01*
X106074933Y-51973809D01*
X106170171Y-51926190D01*
X106360647Y-51878571D01*
X106455885Y-51830952D01*
X106503504Y-51783333D01*
X106551123Y-51688095D01*
X106551123Y-51592857D01*
X106503504Y-51497619D01*
X106455885Y-51450000D01*
X106360647Y-51402380D01*
X106122552Y-51402380D01*
X105979695Y-51450000D01*
X105646361Y-51402380D02*
X105408266Y-52402380D01*
X105217790Y-51688095D01*
X105027314Y-52402380D01*
X104789219Y-51402380D01*
X103979695Y-51735714D02*
X103979695Y-52402380D01*
X104217790Y-51354761D02*
X104455885Y-52069047D01*
X103836838Y-52069047D01*
X103503504Y-51497619D02*
X103455885Y-51450000D01*
X103360647Y-51402380D01*
X103122552Y-51402380D01*
X103027314Y-51450000D01*
X102979695Y-51497619D01*
X102932076Y-51592857D01*
X102932076Y-51688095D01*
X102979695Y-51830952D01*
X103551123Y-52402380D01*
X102932076Y-52402380D01*
X11301123Y-52354761D02*
X11158266Y-52402380D01*
X10920171Y-52402380D01*
X10824933Y-52354761D01*
X10777314Y-52307142D01*
X10729695Y-52211904D01*
X10729695Y-52116666D01*
X10777314Y-52021428D01*
X10824933Y-51973809D01*
X10920171Y-51926190D01*
X11110647Y-51878571D01*
X11205885Y-51830952D01*
X11253504Y-51783333D01*
X11301123Y-51688095D01*
X11301123Y-51592857D01*
X11253504Y-51497619D01*
X11205885Y-51450000D01*
X11110647Y-51402380D01*
X10872552Y-51402380D01*
X10729695Y-51450000D01*
X10396361Y-51402380D02*
X10158266Y-52402380D01*
X9967790Y-51688095D01*
X9777314Y-52402380D01*
X9539219Y-51402380D01*
X9253504Y-51402380D02*
X8634457Y-51402380D01*
X8967790Y-51783333D01*
X8824933Y-51783333D01*
X8729695Y-51830952D01*
X8682076Y-51878571D01*
X8634457Y-51973809D01*
X8634457Y-52211904D01*
X8682076Y-52307142D01*
X8729695Y-52354761D01*
X8824933Y-52402380D01*
X9110647Y-52402380D01*
X9205885Y-52354761D01*
X9253504Y-52307142D01*
X8301123Y-51402380D02*
X7634457Y-51402380D01*
X8063028Y-52402380D01*
X45466666Y-6152380D02*
X45800000Y-5676190D01*
X46038095Y-6152380D02*
X46038095Y-5152380D01*
X45657142Y-5152380D01*
X45561904Y-5200000D01*
X45514285Y-5247619D01*
X45466666Y-5342857D01*
X45466666Y-5485714D01*
X45514285Y-5580952D01*
X45561904Y-5628571D01*
X45657142Y-5676190D01*
X46038095Y-5676190D01*
X44990476Y-6152380D02*
X44800000Y-6152380D01*
X44704761Y-6104761D01*
X44657142Y-6057142D01*
X44561904Y-5914285D01*
X44514285Y-5723809D01*
X44514285Y-5342857D01*
X44561904Y-5247619D01*
X44609523Y-5200000D01*
X44704761Y-5152380D01*
X44895238Y-5152380D01*
X44990476Y-5200000D01*
X45038095Y-5247619D01*
X45085714Y-5342857D01*
X45085714Y-5580952D01*
X45038095Y-5676190D01*
X44990476Y-5723809D01*
X44895238Y-5771428D01*
X44704761Y-5771428D01*
X44609523Y-5723809D01*
X44561904Y-5676190D01*
X44514285Y-5580952D01*
X87459523Y-52404761D02*
X87316666Y-52452380D01*
X87078571Y-52452380D01*
X86983333Y-52404761D01*
X86935714Y-52357142D01*
X86888095Y-52261904D01*
X86888095Y-52166666D01*
X86935714Y-52071428D01*
X86983333Y-52023809D01*
X87078571Y-51976190D01*
X87269047Y-51928571D01*
X87364285Y-51880952D01*
X87411904Y-51833333D01*
X87459523Y-51738095D01*
X87459523Y-51642857D01*
X87411904Y-51547619D01*
X87364285Y-51500000D01*
X87269047Y-51452380D01*
X87030952Y-51452380D01*
X86888095Y-51500000D01*
X86554761Y-51452380D02*
X86316666Y-52452380D01*
X86126190Y-51738095D01*
X85935714Y-52452380D01*
X85697619Y-51452380D01*
X84888095Y-51785714D02*
X84888095Y-52452380D01*
X85126190Y-51404761D02*
X85364285Y-52119047D01*
X84745238Y-52119047D01*
X83840476Y-52452380D02*
X84411904Y-52452380D01*
X84126190Y-52452380D02*
X84126190Y-51452380D01*
X84221428Y-51595238D01*
X84316666Y-51690476D01*
X84411904Y-51738095D01*
X85159523Y-66704761D02*
X85016666Y-66752380D01*
X84778571Y-66752380D01*
X84683333Y-66704761D01*
X84635714Y-66657142D01*
X84588095Y-66561904D01*
X84588095Y-66466666D01*
X84635714Y-66371428D01*
X84683333Y-66323809D01*
X84778571Y-66276190D01*
X84969047Y-66228571D01*
X85064285Y-66180952D01*
X85111904Y-66133333D01*
X85159523Y-66038095D01*
X85159523Y-65942857D01*
X85111904Y-65847619D01*
X85064285Y-65800000D01*
X84969047Y-65752380D01*
X84730952Y-65752380D01*
X84588095Y-65800000D01*
X84254761Y-65752380D02*
X84016666Y-66752380D01*
X83826190Y-66038095D01*
X83635714Y-66752380D01*
X83397619Y-65752380D01*
X82588095Y-66085714D02*
X82588095Y-66752380D01*
X82826190Y-65704761D02*
X83064285Y-66419047D01*
X82445238Y-66419047D01*
X82159523Y-65752380D02*
X81492857Y-65752380D01*
X81921428Y-66752380D01*
X29864285Y-28652380D02*
X29864285Y-27652380D01*
X29626190Y-27652380D01*
X29483333Y-27700000D01*
X29388095Y-27795238D01*
X29340476Y-27890476D01*
X29292857Y-28080952D01*
X29292857Y-28223809D01*
X29340476Y-28414285D01*
X29388095Y-28509523D01*
X29483333Y-28604761D01*
X29626190Y-28652380D01*
X29864285Y-28652380D01*
X28340476Y-28652380D02*
X28911904Y-28652380D01*
X28626190Y-28652380D02*
X28626190Y-27652380D01*
X28721428Y-27795238D01*
X28816666Y-27890476D01*
X28911904Y-27938095D01*
X28007142Y-27652380D02*
X27388095Y-27652380D01*
X27721428Y-28033333D01*
X27578571Y-28033333D01*
X27483333Y-28080952D01*
X27435714Y-28128571D01*
X27388095Y-28223809D01*
X27388095Y-28461904D01*
X27435714Y-28557142D01*
X27483333Y-28604761D01*
X27578571Y-28652380D01*
X27864285Y-28652380D01*
X27959523Y-28604761D01*
X28007142Y-28557142D01*
X31086142Y-8460333D02*
X31133761Y-8412714D01*
X31181380Y-8269857D01*
X31181380Y-8174619D01*
X31133761Y-8031761D01*
X31038523Y-7936523D01*
X30943285Y-7888904D01*
X30752809Y-7841285D01*
X30609952Y-7841285D01*
X30419476Y-7888904D01*
X30324238Y-7936523D01*
X30229000Y-8031761D01*
X30181380Y-8174619D01*
X30181380Y-8269857D01*
X30229000Y-8412714D01*
X30276619Y-8460333D01*
X30181380Y-9365095D02*
X30181380Y-8888904D01*
X30657571Y-8841285D01*
X30609952Y-8888904D01*
X30562333Y-8984142D01*
X30562333Y-9222238D01*
X30609952Y-9317476D01*
X30657571Y-9365095D01*
X30752809Y-9412714D01*
X30990904Y-9412714D01*
X31086142Y-9365095D01*
X31133761Y-9317476D01*
X31181380Y-9222238D01*
X31181380Y-8984142D01*
X31133761Y-8888904D01*
X31086142Y-8841285D01*
X46574857Y-28305380D02*
X46908190Y-27829190D01*
X47146285Y-28305380D02*
X47146285Y-27305380D01*
X46765333Y-27305380D01*
X46670095Y-27353000D01*
X46622476Y-27400619D01*
X46574857Y-27495857D01*
X46574857Y-27638714D01*
X46622476Y-27733952D01*
X46670095Y-27781571D01*
X46765333Y-27829190D01*
X47146285Y-27829190D01*
X45622476Y-28305380D02*
X46193904Y-28305380D01*
X45908190Y-28305380D02*
X45908190Y-27305380D01*
X46003428Y-27448238D01*
X46098666Y-27543476D01*
X46193904Y-27591095D01*
X45003428Y-27305380D02*
X44908190Y-27305380D01*
X44812952Y-27353000D01*
X44765333Y-27400619D01*
X44717714Y-27495857D01*
X44670095Y-27686333D01*
X44670095Y-27924428D01*
X44717714Y-28114904D01*
X44765333Y-28210142D01*
X44812952Y-28257761D01*
X44908190Y-28305380D01*
X45003428Y-28305380D01*
X45098666Y-28257761D01*
X45146285Y-28210142D01*
X45193904Y-28114904D01*
X45241523Y-27924428D01*
X45241523Y-27686333D01*
X45193904Y-27495857D01*
X45146285Y-27400619D01*
X45098666Y-27353000D01*
X45003428Y-27305380D01*
X39314285Y-61452380D02*
X39314285Y-60452380D01*
X39076190Y-60452380D01*
X38933333Y-60500000D01*
X38838095Y-60595238D01*
X38790476Y-60690476D01*
X38742857Y-60880952D01*
X38742857Y-61023809D01*
X38790476Y-61214285D01*
X38838095Y-61309523D01*
X38933333Y-61404761D01*
X39076190Y-61452380D01*
X39314285Y-61452380D01*
X38409523Y-60452380D02*
X37790476Y-60452380D01*
X38123809Y-60833333D01*
X37980952Y-60833333D01*
X37885714Y-60880952D01*
X37838095Y-60928571D01*
X37790476Y-61023809D01*
X37790476Y-61261904D01*
X37838095Y-61357142D01*
X37885714Y-61404761D01*
X37980952Y-61452380D01*
X38266666Y-61452380D01*
X38361904Y-61404761D01*
X38409523Y-61357142D01*
X37457142Y-60452380D02*
X36790476Y-60452380D01*
X37219047Y-61452380D01*
X41964285Y-63352380D02*
X42535714Y-63352380D01*
X42250000Y-63352380D02*
X42250000Y-62352380D01*
X42345238Y-62495238D01*
X42440476Y-62590476D01*
X42535714Y-62638095D01*
X55060380Y-63054714D02*
X54060380Y-63054714D01*
X54060380Y-63292809D01*
X54108000Y-63435666D01*
X54203238Y-63530904D01*
X54298476Y-63578523D01*
X54488952Y-63626142D01*
X54631809Y-63626142D01*
X54822285Y-63578523D01*
X54917523Y-63530904D01*
X55012761Y-63435666D01*
X55060380Y-63292809D01*
X55060380Y-63054714D01*
X54155619Y-64007095D02*
X54108000Y-64054714D01*
X54060380Y-64149952D01*
X54060380Y-64388047D01*
X54108000Y-64483285D01*
X54155619Y-64530904D01*
X54250857Y-64578523D01*
X54346095Y-64578523D01*
X54488952Y-64530904D01*
X55060380Y-63959476D01*
X55060380Y-64578523D01*
X54060380Y-65197571D02*
X54060380Y-65292809D01*
X54108000Y-65388047D01*
X54155619Y-65435666D01*
X54250857Y-65483285D01*
X54441333Y-65530904D01*
X54679428Y-65530904D01*
X54869904Y-65483285D01*
X54965142Y-65435666D01*
X55012761Y-65388047D01*
X55060380Y-65292809D01*
X55060380Y-65197571D01*
X55012761Y-65102333D01*
X54965142Y-65054714D01*
X54869904Y-65007095D01*
X54679428Y-64959476D01*
X54441333Y-64959476D01*
X54250857Y-65007095D01*
X54155619Y-65054714D01*
X54108000Y-65102333D01*
X54060380Y-65197571D01*
X48476190Y-5976190D02*
X48476190Y-6452380D01*
X48809523Y-5452380D02*
X48476190Y-5976190D01*
X48142857Y-5452380D01*
X47857142Y-5547619D02*
X47809523Y-5500000D01*
X47714285Y-5452380D01*
X47476190Y-5452380D01*
X47380952Y-5500000D01*
X47333333Y-5547619D01*
X47285714Y-5642857D01*
X47285714Y-5738095D01*
X47333333Y-5880952D01*
X47904761Y-6452380D01*
X47285714Y-6452380D01*
X35777142Y-4133333D02*
X35824761Y-4085714D01*
X35872380Y-3942857D01*
X35872380Y-3847619D01*
X35824761Y-3704761D01*
X35729523Y-3609523D01*
X35634285Y-3561904D01*
X35443809Y-3514285D01*
X35300952Y-3514285D01*
X35110476Y-3561904D01*
X35015238Y-3609523D01*
X34920000Y-3704761D01*
X34872380Y-3847619D01*
X34872380Y-3942857D01*
X34920000Y-4085714D01*
X34967619Y-4133333D01*
X35300952Y-4704761D02*
X35253333Y-4609523D01*
X35205714Y-4561904D01*
X35110476Y-4514285D01*
X35062857Y-4514285D01*
X34967619Y-4561904D01*
X34920000Y-4609523D01*
X34872380Y-4704761D01*
X34872380Y-4895238D01*
X34920000Y-4990476D01*
X34967619Y-5038095D01*
X35062857Y-5085714D01*
X35110476Y-5085714D01*
X35205714Y-5038095D01*
X35253333Y-4990476D01*
X35300952Y-4895238D01*
X35300952Y-4704761D01*
X35348571Y-4609523D01*
X35396190Y-4561904D01*
X35491428Y-4514285D01*
X35681904Y-4514285D01*
X35777142Y-4561904D01*
X35824761Y-4609523D01*
X35872380Y-4704761D01*
X35872380Y-4895238D01*
X35824761Y-4990476D01*
X35777142Y-5038095D01*
X35681904Y-5085714D01*
X35491428Y-5085714D01*
X35396190Y-5038095D01*
X35348571Y-4990476D01*
X35300952Y-4895238D01*
X81402380Y-25185714D02*
X80402380Y-25185714D01*
X80402380Y-25423809D01*
X80450000Y-25566666D01*
X80545238Y-25661904D01*
X80640476Y-25709523D01*
X80830952Y-25757142D01*
X80973809Y-25757142D01*
X81164285Y-25709523D01*
X81259523Y-25661904D01*
X81354761Y-25566666D01*
X81402380Y-25423809D01*
X81402380Y-25185714D01*
X80402380Y-26090476D02*
X80402380Y-26709523D01*
X80783333Y-26376190D01*
X80783333Y-26519047D01*
X80830952Y-26614285D01*
X80878571Y-26661904D01*
X80973809Y-26709523D01*
X81211904Y-26709523D01*
X81307142Y-26661904D01*
X81354761Y-26614285D01*
X81402380Y-26519047D01*
X81402380Y-26233333D01*
X81354761Y-26138095D01*
X81307142Y-26090476D01*
X80830952Y-27280952D02*
X80783333Y-27185714D01*
X80735714Y-27138095D01*
X80640476Y-27090476D01*
X80592857Y-27090476D01*
X80497619Y-27138095D01*
X80450000Y-27185714D01*
X80402380Y-27280952D01*
X80402380Y-27471428D01*
X80450000Y-27566666D01*
X80497619Y-27614285D01*
X80592857Y-27661904D01*
X80640476Y-27661904D01*
X80735714Y-27614285D01*
X80783333Y-27566666D01*
X80830952Y-27471428D01*
X80830952Y-27280952D01*
X80878571Y-27185714D01*
X80926190Y-27138095D01*
X81021428Y-27090476D01*
X81211904Y-27090476D01*
X81307142Y-27138095D01*
X81354761Y-27185714D01*
X81402380Y-27280952D01*
X81402380Y-27471428D01*
X81354761Y-27566666D01*
X81307142Y-27614285D01*
X81211904Y-27661904D01*
X81021428Y-27661904D01*
X80926190Y-27614285D01*
X80878571Y-27566666D01*
X80830952Y-27471428D01*
X71864285Y-28452380D02*
X72435714Y-28452380D01*
X72150000Y-28452380D02*
X72150000Y-27452380D01*
X72245238Y-27595238D01*
X72340476Y-27690476D01*
X72435714Y-27738095D01*
X11309523Y-44104761D02*
X11166666Y-44152380D01*
X10928571Y-44152380D01*
X10833333Y-44104761D01*
X10785714Y-44057142D01*
X10738095Y-43961904D01*
X10738095Y-43866666D01*
X10785714Y-43771428D01*
X10833333Y-43723809D01*
X10928571Y-43676190D01*
X11119047Y-43628571D01*
X11214285Y-43580952D01*
X11261904Y-43533333D01*
X11309523Y-43438095D01*
X11309523Y-43342857D01*
X11261904Y-43247619D01*
X11214285Y-43200000D01*
X11119047Y-43152380D01*
X10880952Y-43152380D01*
X10738095Y-43200000D01*
X10404761Y-43152380D02*
X10166666Y-44152380D01*
X9976190Y-43438095D01*
X9785714Y-44152380D01*
X9547619Y-43152380D01*
X9261904Y-43152380D02*
X8642857Y-43152380D01*
X8976190Y-43533333D01*
X8833333Y-43533333D01*
X8738095Y-43580952D01*
X8690476Y-43628571D01*
X8642857Y-43723809D01*
X8642857Y-43961904D01*
X8690476Y-44057142D01*
X8738095Y-44104761D01*
X8833333Y-44152380D01*
X9119047Y-44152380D01*
X9214285Y-44104761D01*
X9261904Y-44057142D01*
X7690476Y-44152380D02*
X8261904Y-44152380D01*
X7976190Y-44152380D02*
X7976190Y-43152380D01*
X8071428Y-43295238D01*
X8166666Y-43390476D01*
X8261904Y-43438095D01*
X55949380Y-43750714D02*
X54949380Y-43750714D01*
X54949380Y-43988809D01*
X54997000Y-44131666D01*
X55092238Y-44226904D01*
X55187476Y-44274523D01*
X55377952Y-44322142D01*
X55520809Y-44322142D01*
X55711285Y-44274523D01*
X55806523Y-44226904D01*
X55901761Y-44131666D01*
X55949380Y-43988809D01*
X55949380Y-43750714D01*
X55949380Y-45274523D02*
X55949380Y-44703095D01*
X55949380Y-44988809D02*
X54949380Y-44988809D01*
X55092238Y-44893571D01*
X55187476Y-44798333D01*
X55235095Y-44703095D01*
X54949380Y-45607857D02*
X54949380Y-46274523D01*
X55949380Y-45845952D01*
X15759523Y-25304761D02*
X15616666Y-25352380D01*
X15378571Y-25352380D01*
X15283333Y-25304761D01*
X15235714Y-25257142D01*
X15188095Y-25161904D01*
X15188095Y-25066666D01*
X15235714Y-24971428D01*
X15283333Y-24923809D01*
X15378571Y-24876190D01*
X15569047Y-24828571D01*
X15664285Y-24780952D01*
X15711904Y-24733333D01*
X15759523Y-24638095D01*
X15759523Y-24542857D01*
X15711904Y-24447619D01*
X15664285Y-24400000D01*
X15569047Y-24352380D01*
X15330952Y-24352380D01*
X15188095Y-24400000D01*
X14854761Y-24352380D02*
X14616666Y-25352380D01*
X14426190Y-24638095D01*
X14235714Y-25352380D01*
X13997619Y-24352380D01*
X13664285Y-24447619D02*
X13616666Y-24400000D01*
X13521428Y-24352380D01*
X13283333Y-24352380D01*
X13188095Y-24400000D01*
X13140476Y-24447619D01*
X13092857Y-24542857D01*
X13092857Y-24638095D01*
X13140476Y-24780952D01*
X13711904Y-25352380D01*
X13092857Y-25352380D01*
X12188095Y-24352380D02*
X12664285Y-24352380D01*
X12711904Y-24828571D01*
X12664285Y-24780952D01*
X12569047Y-24733333D01*
X12330952Y-24733333D01*
X12235714Y-24780952D01*
X12188095Y-24828571D01*
X12140476Y-24923809D01*
X12140476Y-25161904D01*
X12188095Y-25257142D01*
X12235714Y-25304761D01*
X12330952Y-25352380D01*
X12569047Y-25352380D01*
X12664285Y-25304761D01*
X12711904Y-25257142D01*
X49359523Y-66654761D02*
X49216666Y-66702380D01*
X48978571Y-66702380D01*
X48883333Y-66654761D01*
X48835714Y-66607142D01*
X48788095Y-66511904D01*
X48788095Y-66416666D01*
X48835714Y-66321428D01*
X48883333Y-66273809D01*
X48978571Y-66226190D01*
X49169047Y-66178571D01*
X49264285Y-66130952D01*
X49311904Y-66083333D01*
X49359523Y-65988095D01*
X49359523Y-65892857D01*
X49311904Y-65797619D01*
X49264285Y-65750000D01*
X49169047Y-65702380D01*
X48930952Y-65702380D01*
X48788095Y-65750000D01*
X48454761Y-65702380D02*
X48216666Y-66702380D01*
X48026190Y-65988095D01*
X47835714Y-66702380D01*
X47597619Y-65702380D01*
X46788095Y-66035714D02*
X46788095Y-66702380D01*
X47026190Y-65654761D02*
X47264285Y-66369047D01*
X46645238Y-66369047D01*
X45788095Y-65702380D02*
X46264285Y-65702380D01*
X46311904Y-66178571D01*
X46264285Y-66130952D01*
X46169047Y-66083333D01*
X45930952Y-66083333D01*
X45835714Y-66130952D01*
X45788095Y-66178571D01*
X45740476Y-66273809D01*
X45740476Y-66511904D01*
X45788095Y-66607142D01*
X45835714Y-66654761D01*
X45930952Y-66702380D01*
X46169047Y-66702380D01*
X46264285Y-66654761D01*
X46311904Y-66607142D01*
X27152380Y-12707142D02*
X26676190Y-12373809D01*
X27152380Y-12135714D02*
X26152380Y-12135714D01*
X26152380Y-12516666D01*
X26200000Y-12611904D01*
X26247619Y-12659523D01*
X26342857Y-12707142D01*
X26485714Y-12707142D01*
X26580952Y-12659523D01*
X26628571Y-12611904D01*
X26676190Y-12516666D01*
X26676190Y-12135714D01*
X27152380Y-13659523D02*
X27152380Y-13088095D01*
X27152380Y-13373809D02*
X26152380Y-13373809D01*
X26295238Y-13278571D01*
X26390476Y-13183333D01*
X26438095Y-13088095D01*
X26247619Y-14040476D02*
X26200000Y-14088095D01*
X26152380Y-14183333D01*
X26152380Y-14421428D01*
X26200000Y-14516666D01*
X26247619Y-14564285D01*
X26342857Y-14611904D01*
X26438095Y-14611904D01*
X26580952Y-14564285D01*
X27152380Y-13992857D01*
X27152380Y-14611904D01*
X27064285Y-47952380D02*
X27064285Y-46952380D01*
X26826190Y-46952380D01*
X26683333Y-47000000D01*
X26588095Y-47095238D01*
X26540476Y-47190476D01*
X26492857Y-47380952D01*
X26492857Y-47523809D01*
X26540476Y-47714285D01*
X26588095Y-47809523D01*
X26683333Y-47904761D01*
X26826190Y-47952380D01*
X27064285Y-47952380D01*
X25540476Y-47952380D02*
X26111904Y-47952380D01*
X25826190Y-47952380D02*
X25826190Y-46952380D01*
X25921428Y-47095238D01*
X26016666Y-47190476D01*
X26111904Y-47238095D01*
X24683333Y-46952380D02*
X24873809Y-46952380D01*
X24969047Y-47000000D01*
X25016666Y-47047619D01*
X25111904Y-47190476D01*
X25159523Y-47380952D01*
X25159523Y-47761904D01*
X25111904Y-47857142D01*
X25064285Y-47904761D01*
X24969047Y-47952380D01*
X24778571Y-47952380D01*
X24683333Y-47904761D01*
X24635714Y-47857142D01*
X24588095Y-47761904D01*
X24588095Y-47523809D01*
X24635714Y-47428571D01*
X24683333Y-47380952D01*
X24778571Y-47333333D01*
X24969047Y-47333333D01*
X25064285Y-47380952D01*
X25111904Y-47428571D01*
X25159523Y-47523809D01*
X37872380Y-21957142D02*
X37396190Y-21623809D01*
X37872380Y-21385714D02*
X36872380Y-21385714D01*
X36872380Y-21766666D01*
X36920000Y-21861904D01*
X36967619Y-21909523D01*
X37062857Y-21957142D01*
X37205714Y-21957142D01*
X37300952Y-21909523D01*
X37348571Y-21861904D01*
X37396190Y-21766666D01*
X37396190Y-21385714D01*
X37872380Y-22909523D02*
X37872380Y-22338095D01*
X37872380Y-22623809D02*
X36872380Y-22623809D01*
X37015238Y-22528571D01*
X37110476Y-22433333D01*
X37158095Y-22338095D01*
X37205714Y-23766666D02*
X37872380Y-23766666D01*
X36824761Y-23528571D02*
X37539047Y-23290476D01*
X37539047Y-23909523D01*
X15488095Y-11152380D02*
X15488095Y-10152380D01*
X15107142Y-10152380D01*
X15011904Y-10200000D01*
X14964285Y-10247619D01*
X14916666Y-10342857D01*
X14916666Y-10485714D01*
X14964285Y-10580952D01*
X15011904Y-10628571D01*
X15107142Y-10676190D01*
X15488095Y-10676190D01*
X14345238Y-10580952D02*
X14440476Y-10533333D01*
X14488095Y-10485714D01*
X14535714Y-10390476D01*
X14535714Y-10342857D01*
X14488095Y-10247619D01*
X14440476Y-10200000D01*
X14345238Y-10152380D01*
X14154761Y-10152380D01*
X14059523Y-10200000D01*
X14011904Y-10247619D01*
X13964285Y-10342857D01*
X13964285Y-10390476D01*
X14011904Y-10485714D01*
X14059523Y-10533333D01*
X14154761Y-10580952D01*
X14345238Y-10580952D01*
X14440476Y-10628571D01*
X14488095Y-10676190D01*
X14535714Y-10771428D01*
X14535714Y-10961904D01*
X14488095Y-11057142D01*
X14440476Y-11104761D01*
X14345238Y-11152380D01*
X14154761Y-11152380D01*
X14059523Y-11104761D01*
X14011904Y-11057142D01*
X13964285Y-10961904D01*
X13964285Y-10771428D01*
X14011904Y-10676190D01*
X14059523Y-10628571D01*
X14154761Y-10580952D01*
M02*
