G04 #@! TF.GenerationSoftware,KiCad,Pcbnew,(5.1.2)-2*
G04 #@! TF.CreationDate,2019-10-07T16:49:04+02:00*
G04 #@! TF.ProjectId,vitamins_included,76697461-6d69-46e7-935f-696e636c7564,rev?*
G04 #@! TF.SameCoordinates,Original*
G04 #@! TF.FileFunction,Legend,Top*
G04 #@! TF.FilePolarity,Positive*
%FSLAX46Y46*%
G04 Gerber Fmt 4.6, Leading zero omitted, Abs format (unit mm)*
G04 Created by KiCad (PCBNEW (5.1.2)-2) date 2019-10-07 16:49:04*
%MOMM*%
%LPD*%
G04 APERTURE LIST*
%ADD10C,0.300000*%
%ADD11C,0.150000*%
%ADD12C,0.100000*%
%ADD13C,0.200000*%
%ADD14C,0.120000*%
%ADD15C,0.180000*%
G04 APERTURE END LIST*
D10*
X47298142Y-49274809D02*
X48012428Y-49512904D01*
X49202904Y-49512904D01*
X49679095Y-49274809D01*
X49917190Y-49036714D01*
X50155285Y-48560523D01*
X50155285Y-48084333D01*
X49917190Y-47608142D01*
X49679095Y-47370047D01*
X49202904Y-47131952D01*
X48250523Y-46893857D01*
X47774333Y-46655761D01*
X47536238Y-46417666D01*
X47298142Y-45941476D01*
X47298142Y-45465285D01*
X47536238Y-44989095D01*
X47774333Y-44751000D01*
X48250523Y-44512904D01*
X49441000Y-44512904D01*
X50155285Y-44751000D01*
X52298142Y-49512904D02*
X52298142Y-44512904D01*
X54202904Y-44512904D01*
X54679095Y-44751000D01*
X54917190Y-44989095D01*
X55155285Y-45465285D01*
X55155285Y-46179571D01*
X54917190Y-46655761D01*
X54679095Y-46893857D01*
X54202904Y-47131952D01*
X52298142Y-47131952D01*
X59679095Y-49512904D02*
X57298142Y-49512904D01*
X57298142Y-44512904D01*
X61345761Y-49512904D02*
X61345761Y-44512904D01*
X63012428Y-44512904D02*
X65869571Y-44512904D01*
X64441000Y-49512904D02*
X64441000Y-44512904D01*
D11*
X53007142Y-26152380D02*
X53007142Y-26866666D01*
X52959523Y-27009523D01*
X52864285Y-27104761D01*
X52721428Y-27152380D01*
X52626190Y-27152380D01*
X53911904Y-27152380D02*
X53911904Y-26628571D01*
X53864285Y-26533333D01*
X53769047Y-26485714D01*
X53578571Y-26485714D01*
X53483333Y-26533333D01*
X53911904Y-27104761D02*
X53816666Y-27152380D01*
X53578571Y-27152380D01*
X53483333Y-27104761D01*
X53435714Y-27009523D01*
X53435714Y-26914285D01*
X53483333Y-26819047D01*
X53578571Y-26771428D01*
X53816666Y-26771428D01*
X53911904Y-26723809D01*
X54816666Y-27104761D02*
X54721428Y-27152380D01*
X54530952Y-27152380D01*
X54435714Y-27104761D01*
X54388095Y-27057142D01*
X54340476Y-26961904D01*
X54340476Y-26676190D01*
X54388095Y-26580952D01*
X54435714Y-26533333D01*
X54530952Y-26485714D01*
X54721428Y-26485714D01*
X54816666Y-26533333D01*
X55245238Y-27152380D02*
X55245238Y-26152380D01*
X55340476Y-26771428D02*
X55626190Y-27152380D01*
X55626190Y-26485714D02*
X55245238Y-26866666D01*
X17290476Y-22704761D02*
X17433333Y-22752380D01*
X17671428Y-22752380D01*
X17766666Y-22704761D01*
X17814285Y-22657142D01*
X17861904Y-22561904D01*
X17861904Y-22466666D01*
X17814285Y-22371428D01*
X17766666Y-22323809D01*
X17671428Y-22276190D01*
X17480952Y-22228571D01*
X17385714Y-22180952D01*
X17338095Y-22133333D01*
X17290476Y-22038095D01*
X17290476Y-21942857D01*
X17338095Y-21847619D01*
X17385714Y-21800000D01*
X17480952Y-21752380D01*
X17719047Y-21752380D01*
X17861904Y-21800000D01*
X18433333Y-22752380D02*
X18338095Y-22704761D01*
X18290476Y-22609523D01*
X18290476Y-21752380D01*
X19242857Y-22752380D02*
X19242857Y-22228571D01*
X19195238Y-22133333D01*
X19100000Y-22085714D01*
X18909523Y-22085714D01*
X18814285Y-22133333D01*
X19242857Y-22704761D02*
X19147619Y-22752380D01*
X18909523Y-22752380D01*
X18814285Y-22704761D01*
X18766666Y-22609523D01*
X18766666Y-22514285D01*
X18814285Y-22419047D01*
X18909523Y-22371428D01*
X19147619Y-22371428D01*
X19242857Y-22323809D01*
X19623809Y-22085714D02*
X19861904Y-22752380D01*
X20100000Y-22085714D01*
X20861904Y-22704761D02*
X20766666Y-22752380D01*
X20576190Y-22752380D01*
X20480952Y-22704761D01*
X20433333Y-22609523D01*
X20433333Y-22228571D01*
X20480952Y-22133333D01*
X20576190Y-22085714D01*
X20766666Y-22085714D01*
X20861904Y-22133333D01*
X20909523Y-22228571D01*
X20909523Y-22323809D01*
X20433333Y-22419047D01*
X44778571Y-26952380D02*
X44778571Y-25952380D01*
X45159523Y-25952380D01*
X45254761Y-26000000D01*
X45302380Y-26047619D01*
X45350000Y-26142857D01*
X45350000Y-26285714D01*
X45302380Y-26380952D01*
X45254761Y-26428571D01*
X45159523Y-26476190D01*
X44778571Y-26476190D01*
X46207142Y-26952380D02*
X46207142Y-26428571D01*
X46159523Y-26333333D01*
X46064285Y-26285714D01*
X45873809Y-26285714D01*
X45778571Y-26333333D01*
X46207142Y-26904761D02*
X46111904Y-26952380D01*
X45873809Y-26952380D01*
X45778571Y-26904761D01*
X45730952Y-26809523D01*
X45730952Y-26714285D01*
X45778571Y-26619047D01*
X45873809Y-26571428D01*
X46111904Y-26571428D01*
X46207142Y-26523809D01*
X47111904Y-26952380D02*
X47111904Y-25952380D01*
X47111904Y-26904761D02*
X47016666Y-26952380D01*
X46826190Y-26952380D01*
X46730952Y-26904761D01*
X46683333Y-26857142D01*
X46635714Y-26761904D01*
X46635714Y-26476190D01*
X46683333Y-26380952D01*
X46730952Y-26333333D01*
X46826190Y-26285714D01*
X47016666Y-26285714D01*
X47111904Y-26333333D01*
X47540476Y-26904761D02*
X47635714Y-26952380D01*
X47826190Y-26952380D01*
X47921428Y-26904761D01*
X47969047Y-26809523D01*
X47969047Y-26761904D01*
X47921428Y-26666666D01*
X47826190Y-26619047D01*
X47683333Y-26619047D01*
X47588095Y-26571428D01*
X47540476Y-26476190D01*
X47540476Y-26428571D01*
X47588095Y-26333333D01*
X47683333Y-26285714D01*
X47826190Y-26285714D01*
X47921428Y-26333333D01*
X18507142Y-15477380D02*
X18030952Y-15477380D01*
X18030952Y-14477380D01*
X18840476Y-14953571D02*
X19173809Y-14953571D01*
X19316666Y-15477380D02*
X18840476Y-15477380D01*
X18840476Y-14477380D01*
X19316666Y-14477380D01*
X19745238Y-15477380D02*
X19745238Y-14477380D01*
X19983333Y-14477380D01*
X20126190Y-14525000D01*
X20221428Y-14620238D01*
X20269047Y-14715476D01*
X20316666Y-14905952D01*
X20316666Y-15048809D01*
X20269047Y-15239285D01*
X20221428Y-15334523D01*
X20126190Y-15429761D01*
X19983333Y-15477380D01*
X19745238Y-15477380D01*
X16935714Y-17127380D02*
X16935714Y-16127380D01*
X17269047Y-16841666D01*
X17602380Y-16127380D01*
X17602380Y-17127380D01*
X18507142Y-17127380D02*
X18507142Y-16603571D01*
X18459523Y-16508333D01*
X18364285Y-16460714D01*
X18173809Y-16460714D01*
X18078571Y-16508333D01*
X18507142Y-17079761D02*
X18411904Y-17127380D01*
X18173809Y-17127380D01*
X18078571Y-17079761D01*
X18030952Y-16984523D01*
X18030952Y-16889285D01*
X18078571Y-16794047D01*
X18173809Y-16746428D01*
X18411904Y-16746428D01*
X18507142Y-16698809D01*
X18935714Y-17079761D02*
X19030952Y-17127380D01*
X19221428Y-17127380D01*
X19316666Y-17079761D01*
X19364285Y-16984523D01*
X19364285Y-16936904D01*
X19316666Y-16841666D01*
X19221428Y-16794047D01*
X19078571Y-16794047D01*
X18983333Y-16746428D01*
X18935714Y-16651190D01*
X18935714Y-16603571D01*
X18983333Y-16508333D01*
X19078571Y-16460714D01*
X19221428Y-16460714D01*
X19316666Y-16508333D01*
X19650000Y-16460714D02*
X20030952Y-16460714D01*
X19792857Y-16127380D02*
X19792857Y-16984523D01*
X19840476Y-17079761D01*
X19935714Y-17127380D01*
X20030952Y-17127380D01*
X20745238Y-17079761D02*
X20650000Y-17127380D01*
X20459523Y-17127380D01*
X20364285Y-17079761D01*
X20316666Y-16984523D01*
X20316666Y-16603571D01*
X20364285Y-16508333D01*
X20459523Y-16460714D01*
X20650000Y-16460714D01*
X20745238Y-16508333D01*
X20792857Y-16603571D01*
X20792857Y-16698809D01*
X20316666Y-16794047D01*
X21221428Y-17127380D02*
X21221428Y-16460714D01*
X21221428Y-16651190D02*
X21269047Y-16555952D01*
X21316666Y-16508333D01*
X21411904Y-16460714D01*
X21507142Y-16460714D01*
D10*
X56045761Y-28171642D02*
X57036238Y-28171642D01*
X56541000Y-27676404D02*
X56541000Y-28666880D01*
D12*
X49061904Y-25461904D02*
X48680952Y-25461904D01*
X48680952Y-24661904D01*
X49328571Y-25042857D02*
X49595238Y-25042857D01*
X49709523Y-25461904D02*
X49328571Y-25461904D01*
X49328571Y-24661904D01*
X49709523Y-24661904D01*
X50052380Y-25461904D02*
X50052380Y-24661904D01*
X50242857Y-24661904D01*
X50357142Y-24700000D01*
X50433333Y-24776190D01*
X50471428Y-24852380D01*
X50509523Y-25004761D01*
X50509523Y-25119047D01*
X50471428Y-25271428D01*
X50433333Y-25347619D01*
X50357142Y-25423809D01*
X50242857Y-25461904D01*
X50052380Y-25461904D01*
X51614285Y-24661904D02*
X51766666Y-24661904D01*
X51842857Y-24700000D01*
X51919047Y-24776190D01*
X51957142Y-24928571D01*
X51957142Y-25195238D01*
X51919047Y-25347619D01*
X51842857Y-25423809D01*
X51766666Y-25461904D01*
X51614285Y-25461904D01*
X51538095Y-25423809D01*
X51461904Y-25347619D01*
X51423809Y-25195238D01*
X51423809Y-24928571D01*
X51461904Y-24776190D01*
X51538095Y-24700000D01*
X51614285Y-24661904D01*
X20288095Y-18123809D02*
X20288095Y-17742857D01*
X21088095Y-17742857D01*
X20707142Y-18390476D02*
X20707142Y-18657142D01*
X20288095Y-18771428D02*
X20288095Y-18390476D01*
X21088095Y-18390476D01*
X21088095Y-18771428D01*
X20288095Y-19114285D02*
X21088095Y-19114285D01*
X21088095Y-19304761D01*
X21050000Y-19419047D01*
X20973809Y-19495238D01*
X20897619Y-19533333D01*
X20745238Y-19571428D01*
X20630952Y-19571428D01*
X20478571Y-19533333D01*
X20402380Y-19495238D01*
X20326190Y-19419047D01*
X20288095Y-19304761D01*
X20288095Y-19114285D01*
X20288095Y-20523809D02*
X21088095Y-20523809D01*
X20516666Y-20790476D01*
X21088095Y-21057142D01*
X20288095Y-21057142D01*
D13*
X56287000Y-31376000D02*
X55652000Y-31376000D01*
X56287000Y-29344000D02*
X57049000Y-28709000D01*
X56287000Y-30106000D02*
X56287000Y-28836000D01*
X56287000Y-30852128D02*
X57049000Y-31487128D01*
X57049000Y-31487128D02*
X57049000Y-30106000D01*
X57820464Y-30986799D02*
G75*
G03X57811000Y-29217000I-771464J880799D01*
G01*
X56287000Y-30106000D02*
X56287000Y-31376000D01*
X56287000Y-28836000D02*
X55652000Y-28836000D01*
X57429646Y-30614264D02*
G75*
G03X57430000Y-29598001I-380646J508264D01*
G01*
X57049000Y-28709000D02*
X57049000Y-30106000D01*
X58192567Y-31375489D02*
G75*
G03X58192000Y-28836000I-1143567J1269489D01*
G01*
X55652000Y-28836000D02*
X55652000Y-30106000D01*
X55652000Y-31376000D02*
X55652000Y-30106000D01*
D14*
X19450000Y-17350000D02*
G75*
G02X20150000Y-18050000I0J-700000D01*
G01*
X18150000Y-18050000D02*
G75*
G02X18850000Y-17350000I700000J0D01*
G01*
X18850000Y-21450000D02*
G75*
G02X18150000Y-20750000I0J700000D01*
G01*
X20150000Y-20750000D02*
G75*
G02X19450000Y-21450000I-700000J0D01*
G01*
X20150000Y-18000000D02*
X20150000Y-20800000D01*
X19450000Y-21450000D02*
X18850000Y-21450000D01*
X18150000Y-20800000D02*
X18150000Y-18000000D01*
X18850000Y-17350000D02*
X19450000Y-17350000D01*
X17950000Y-18200000D02*
X17650000Y-17900000D01*
X17650000Y-17900000D02*
X17650000Y-18500000D01*
X17950000Y-18200000D02*
X17650000Y-18500000D01*
X49000000Y-27825000D02*
X49300000Y-28125000D01*
X48700000Y-28125000D02*
X49300000Y-28125000D01*
X49000000Y-27825000D02*
X48700000Y-28125000D01*
X48150000Y-26925000D02*
X48150000Y-26325000D01*
X51600000Y-27625000D02*
X48800000Y-27625000D01*
X52250000Y-26325000D02*
X52250000Y-26925000D01*
X48800000Y-25625000D02*
X51600000Y-25625000D01*
X51550000Y-25625000D02*
G75*
G02X52250000Y-26325000I0J-700000D01*
G01*
X52250000Y-26925000D02*
G75*
G02X51550000Y-27625000I-700000J0D01*
G01*
X48850000Y-27625000D02*
G75*
G02X48150000Y-26925000I0J700000D01*
G01*
X48150000Y-26325000D02*
G75*
G02X48850000Y-25625000I700000J0D01*
G01*
X56730000Y-8080000D02*
X56730000Y-5420000D01*
X54130000Y-8080000D02*
X56730000Y-8080000D01*
X54130000Y-5420000D02*
X56730000Y-5420000D01*
X54130000Y-8080000D02*
X54130000Y-5420000D01*
X52860000Y-8080000D02*
X51530000Y-8080000D01*
X51530000Y-8080000D02*
X51530000Y-6750000D01*
D15*
X51721428Y-5278571D02*
X51721428Y-4278571D01*
X51721428Y-4564285D02*
X51792857Y-4421428D01*
X51864285Y-4350000D01*
X52007142Y-4278571D01*
X52150000Y-4278571D01*
X53221428Y-5207142D02*
X53078571Y-5278571D01*
X52792857Y-5278571D01*
X52650000Y-5207142D01*
X52578571Y-5064285D01*
X52578571Y-4492857D01*
X52650000Y-4350000D01*
X52792857Y-4278571D01*
X53078571Y-4278571D01*
X53221428Y-4350000D01*
X53292857Y-4492857D01*
X53292857Y-4635714D01*
X52578571Y-4778571D01*
X53864285Y-5207142D02*
X54007142Y-5278571D01*
X54292857Y-5278571D01*
X54435714Y-5207142D01*
X54507142Y-5064285D01*
X54507142Y-4992857D01*
X54435714Y-4850000D01*
X54292857Y-4778571D01*
X54078571Y-4778571D01*
X53935714Y-4707142D01*
X53864285Y-4564285D01*
X53864285Y-4492857D01*
X53935714Y-4350000D01*
X54078571Y-4278571D01*
X54292857Y-4278571D01*
X54435714Y-4350000D01*
X55721428Y-5207142D02*
X55578571Y-5278571D01*
X55292857Y-5278571D01*
X55150000Y-5207142D01*
X55078571Y-5064285D01*
X55078571Y-4492857D01*
X55150000Y-4350000D01*
X55292857Y-4278571D01*
X55578571Y-4278571D01*
X55721428Y-4350000D01*
X55792857Y-4492857D01*
X55792857Y-4635714D01*
X55078571Y-4778571D01*
X56221428Y-4278571D02*
X56792857Y-4278571D01*
X56435714Y-3778571D02*
X56435714Y-5064285D01*
X56507142Y-5207142D01*
X56650000Y-5278571D01*
X56792857Y-5278571D01*
M02*
