M48
; DRILL file {KiCad (5.1.2)-2} date 2019-10-07 16:49:07
; FORMAT={2:4/ absolute / inch / suppress leading zeros}
; #@! TF.CreationDate,2019-10-07T16:49:07+02:00
; #@! TF.GenerationSoftware,Kicad,Pcbnew,(5.1.2)-2
; #@! TF.FileFunction,NonPlated,1,2,NPTH
FMAT,2
INCH,TZ
T1C0.0236
T2C0.0390
T3C0.0669
T4C0.0866
T5C0.1181
T6C0.1260
T7C0.1575
%
G90
G05
T1
X32189Y-2295
X34465Y-2295
T2
X29620Y-6315
X30020Y-4315
X30420Y-6315
T3
X24240Y-6634
X28240Y-6634
X16740Y-6634
X20740Y-6634
X24240Y-29134
X28240Y-29134
X9240Y-6634
X13240Y-6634
X39240Y-29134
X43240Y-29134
X39240Y-14134
X43240Y-14134
X31740Y-6634
X35740Y-6634
X9240Y-14134
X13240Y-14134
X16740Y-21634
X20740Y-21634
X39240Y-21634
X43240Y-21634
X31740Y-29134
X35740Y-29134
X16740Y-14134
X20740Y-14134
X5490Y-29134
X9490Y-29134
X31740Y-21634
X35740Y-21634
X24240Y-14134
X28240Y-14134
X1740Y-6634
X5740Y-6634
X31740Y-14134
X35740Y-14134
X9240Y-29134
X13240Y-29134
X24240Y-21634
X28240Y-21634
X1740Y-21634
X5740Y-21634
X39240Y-6634
X43240Y-6634
X1740Y-14134
X5740Y-14134
X16740Y-29134
X20740Y-29134
X9240Y-21634
X13240Y-21634
X1740Y-29134
X5740Y-29134
X7503Y-2216
X7503Y-4972
T4
X3740Y-25384
X41240Y-25384
X41240Y-10384
X3740Y-10384
T5
X32740Y-16134
X35240Y-15134
X9740Y-28134
X12240Y-27134
X25240Y-23634
X27740Y-22634
X2740Y-23634
X5240Y-22634
X40240Y-8634
X42740Y-7634
X2740Y-16134
X5240Y-15134
X17240Y-28134
X19740Y-27134
X10240Y-23634
X12740Y-22634
X2240Y-28134
X4740Y-27134
X25240Y-8634
X27740Y-7634
X17740Y-8634
X20240Y-7634
X24740Y-28134
X27240Y-27134
X10240Y-8634
X12740Y-7634
X39740Y-28134
X42240Y-27134
X40240Y-16134
X42740Y-15134
X32740Y-8634
X35240Y-7634
X10240Y-16134
X12740Y-15134
X17740Y-23634
X20240Y-22634
X40240Y-23634
X42740Y-22634
X32240Y-28134
X34740Y-27134
X17740Y-16134
X20240Y-15134
X6490Y-31134
X8990Y-30134
X32740Y-23634
X35240Y-22634
X25240Y-16134
X27740Y-15134
X2740Y-8634
X5240Y-7634
T6
X7579Y-10630
X7579Y-25383
X37500Y-25394
X37500Y-10630
T7
X11240Y-21634
X3740Y-29134
X26240Y-6634
X18740Y-6634
X26240Y-29134
X11240Y-6634
X41240Y-29134
X41240Y-14134
X33740Y-6634
X11240Y-14134
X18740Y-21634
X41240Y-21634
X33740Y-29134
X18740Y-14134
X7490Y-29134
X33740Y-21634
X26240Y-14134
X3740Y-6634
X33740Y-14134
X11240Y-29134
X26240Y-21634
X3740Y-21634
X41240Y-6634
X3740Y-14134
X18740Y-29134
T0
M30
