G04 #@! TF.GenerationSoftware,KiCad,Pcbnew,(5.1.2)-2*
G04 #@! TF.CreationDate,2019-10-07T16:49:04+02:00*
G04 #@! TF.ProjectId,vitamins_included,76697461-6d69-46e7-935f-696e636c7564,rev?*
G04 #@! TF.SameCoordinates,Original*
G04 #@! TF.FileFunction,Soldermask,Top*
G04 #@! TF.FilePolarity,Negative*
%FSLAX46Y46*%
G04 Gerber Fmt 4.6, Leading zero omitted, Abs format (unit mm)*
G04 Created by KiCad (PCBNEW (5.1.2)-2) date 2019-10-07 16:49:04*
%MOMM*%
%LPD*%
G04 APERTURE LIST*
%ADD10C,0.400000*%
%ADD11C,0.100000*%
G04 APERTURE END LIST*
D10*
X59600333Y-4970000D02*
G75*
G03X59600333Y-4970000I-150333J0D01*
G01*
D11*
G36*
X64729619Y-8520470D02*
G01*
X64491632Y-10014492D01*
X64249212Y-10048731D01*
X63998534Y-10105245D01*
X63757826Y-10191341D01*
X63545316Y-10314325D01*
X63379229Y-10481503D01*
X63277793Y-10700183D01*
X63259234Y-10977669D01*
X63471087Y-10747948D01*
X63737690Y-10620945D01*
X64042103Y-10543350D01*
X64029366Y-10812552D01*
X64037290Y-11081557D01*
X64230784Y-10807771D01*
X64464576Y-10620902D01*
X64729617Y-10530129D01*
X64983190Y-10521584D01*
X65146267Y-10469639D01*
X65108737Y-10368508D01*
X65033711Y-10265699D01*
X65041362Y-10104471D01*
X65068478Y-9866118D01*
X65121302Y-9581490D01*
X65206078Y-9281436D01*
X65329049Y-8996808D01*
X65496460Y-8758454D01*
X65562629Y-8755639D01*
X65730529Y-8766779D01*
X65954253Y-8821257D01*
X66187893Y-8948452D01*
X66385541Y-9177746D01*
X66501290Y-9538520D01*
X66528972Y-10060354D01*
X66464930Y-10361555D01*
X66356266Y-10509057D01*
X66250082Y-10569793D01*
X66013664Y-10655098D01*
X65739888Y-10728115D01*
X65455784Y-10807254D01*
X65188384Y-10910926D01*
X64964717Y-11057544D01*
X64811814Y-11265517D01*
X65069128Y-11210700D01*
X65328733Y-11174029D01*
X65590285Y-11151302D01*
X65853439Y-11138316D01*
X65790708Y-11375518D01*
X65748195Y-11616695D01*
X65925569Y-11516745D01*
X66166059Y-11384117D01*
X66448692Y-11261404D01*
X66752496Y-11191202D01*
X67029914Y-11189512D01*
X67205909Y-11133999D01*
X67110635Y-11003928D01*
X66964041Y-10715230D01*
X66956450Y-10456922D01*
X66991462Y-10195676D01*
X67076422Y-9928554D01*
X67218675Y-9652618D01*
X67425566Y-9364929D01*
X67704441Y-9062549D01*
X67884013Y-8901601D01*
X68073666Y-8752434D01*
X68269045Y-8607141D01*
X68465797Y-8457815D01*
X68659569Y-8296549D01*
X68846005Y-8115435D01*
X69020753Y-7906567D01*
X69179458Y-7662037D01*
X69317766Y-7373938D01*
X69431324Y-7034363D01*
X69515778Y-6635405D01*
X69572616Y-6213503D01*
X69604401Y-5822812D01*
X69611689Y-5461187D01*
X69595038Y-5126483D01*
X69555006Y-4816556D01*
X69492149Y-4529259D01*
X69407026Y-4262450D01*
X69300193Y-4013982D01*
X69172209Y-3781711D01*
X69023630Y-3563492D01*
X68855014Y-3357180D01*
X68666919Y-3160631D01*
X68452274Y-2974674D01*
X68207664Y-2802290D01*
X67938414Y-2643863D01*
X67649847Y-2499779D01*
X67347290Y-2370424D01*
X67036066Y-2256184D01*
X66721501Y-2157445D01*
X66408919Y-2074591D01*
X66103645Y-2008008D01*
X65811004Y-1958083D01*
X65536320Y-1925201D01*
X65284918Y-1909748D01*
X64978449Y-1906157D01*
X64690043Y-1914318D01*
X64414261Y-1936191D01*
X64145660Y-1973734D01*
X63878801Y-2028905D01*
X63608243Y-2103663D01*
X63328543Y-2199967D01*
X63034262Y-2319776D01*
X62719958Y-2465049D01*
X62390971Y-2646999D01*
X62125819Y-2829878D01*
X61906529Y-3004701D01*
X61715128Y-3162480D01*
X61533643Y-3294230D01*
X61344101Y-3390963D01*
X61128530Y-3443694D01*
X60868955Y-3443435D01*
X60489630Y-3396666D01*
X60145607Y-3374731D01*
X59835386Y-3378777D01*
X59557466Y-3409952D01*
X59310346Y-3469404D01*
X59092525Y-3558280D01*
X58902504Y-3677729D01*
X58738780Y-3828898D01*
X58599855Y-4012936D01*
X58840000Y-4420000D01*
X59210000Y-4110000D01*
X59900000Y-4000000D01*
X60450000Y-4750000D01*
X60080000Y-5620000D01*
X59280000Y-5660000D01*
X58810000Y-5240000D01*
X58211660Y-5710171D01*
X58229778Y-5937343D01*
X58277524Y-6148608D01*
X58353404Y-6344738D01*
X58455924Y-6526505D01*
X58583590Y-6694682D01*
X58734907Y-6850043D01*
X58908380Y-6993359D01*
X59102517Y-7125404D01*
X59315822Y-7246950D01*
X59546800Y-7358770D01*
X59793959Y-7461637D01*
X60055803Y-7556324D01*
X60330839Y-7643603D01*
X60617571Y-7724248D01*
X60914507Y-7799030D01*
X61220150Y-7868723D01*
X61533008Y-7934100D01*
X61851585Y-7995933D01*
X62174388Y-8054995D01*
X62499923Y-8112059D01*
X62826694Y-8167897D01*
X63153208Y-8223283D01*
X63477971Y-8278989D01*
X63799487Y-8335788D01*
X64116263Y-8394453D01*
X64426805Y-8455756D01*
X64729619Y-8520470D01*
X64729619Y-8520470D01*
G37*
G36*
X59629789Y-5916520D02*
G01*
X59199792Y-5570753D01*
X59399350Y-5687358D01*
X59622950Y-5730373D01*
X59629789Y-5730373D01*
X59866072Y-5686043D01*
X60072185Y-5562539D01*
X60235705Y-5374090D01*
X60344209Y-5134923D01*
X60385276Y-4859267D01*
X60349659Y-4581412D01*
X60245137Y-4339061D01*
X60084050Y-4146946D01*
X59878739Y-4019797D01*
X59641546Y-3972344D01*
X59634922Y-3972344D01*
X59412384Y-4012199D01*
X59212405Y-4124803D01*
X59048332Y-4299720D01*
X58933507Y-4526510D01*
X58845458Y-4589128D01*
X58756761Y-4524587D01*
X58645710Y-4293990D01*
X58483710Y-4115026D01*
X58284162Y-3998615D01*
X58060470Y-3955676D01*
X58053631Y-3955676D01*
X57817348Y-4000005D01*
X57611236Y-4123509D01*
X57447716Y-4311958D01*
X57339211Y-4551125D01*
X57298144Y-4826781D01*
X57333761Y-5104616D01*
X57438283Y-5346925D01*
X57599371Y-5539009D01*
X57804682Y-5666169D01*
X58041875Y-5713704D01*
X58048286Y-5713704D01*
X58270858Y-5673776D01*
X58470910Y-5560978D01*
X58635057Y-5385787D01*
X58749917Y-5158683D01*
X58837971Y-5096061D01*
X58838826Y-5096061D01*
X58926663Y-5160606D01*
X59037742Y-5391516D01*
X59199792Y-5570753D01*
X59629789Y-5916520D01*
X59620811Y-5916304D01*
X59385785Y-5879356D01*
X59170193Y-5778753D01*
X58983612Y-5622169D01*
X58835620Y-5417278D01*
X58684887Y-5617463D01*
X58497068Y-5769481D01*
X58281640Y-5866040D01*
X58048079Y-5899847D01*
X58039956Y-5899635D01*
X57791001Y-5858847D01*
X57567905Y-5748926D01*
X57379574Y-5580210D01*
X57234912Y-5363034D01*
X57142825Y-5107733D01*
X57112217Y-4824642D01*
X57148424Y-4543752D01*
X57244870Y-4291595D01*
X57392585Y-4078132D01*
X57582598Y-3913326D01*
X57805938Y-3807138D01*
X58053635Y-3769528D01*
X58062614Y-3769740D01*
X58297641Y-3806648D01*
X58513234Y-3907132D01*
X58699814Y-4063516D01*
X58847804Y-4268126D01*
X58998531Y-4068222D01*
X59186303Y-3916404D01*
X59401606Y-3819964D01*
X59634922Y-3786197D01*
X59643684Y-3786408D01*
X59892550Y-3827109D01*
X60115586Y-3936976D01*
X60303880Y-4105673D01*
X60448523Y-4322867D01*
X60540604Y-4578222D01*
X60571212Y-4861402D01*
X60534988Y-5142278D01*
X60438508Y-5394402D01*
X60290761Y-5607833D01*
X60100733Y-5772625D01*
X59877413Y-5878835D01*
X59629789Y-5916520D01*
X59629789Y-5916520D01*
G37*
G36*
X59555511Y-5767910D02*
G01*
X59058985Y-5372260D01*
X59280932Y-5543442D01*
X59549258Y-5607446D01*
X59555511Y-5607446D01*
X59821705Y-5548536D01*
X60040359Y-5387776D01*
X60189286Y-5149121D01*
X60246302Y-4856528D01*
X60195308Y-4561415D01*
X60050277Y-4319084D01*
X59833248Y-4154337D01*
X59566261Y-4091975D01*
X59560205Y-4091975D01*
X59292878Y-4152163D01*
X59069454Y-4318508D01*
X58918856Y-4569681D01*
X58838347Y-4623660D01*
X58757245Y-4568024D01*
X58610900Y-4312409D01*
X58388995Y-4141499D01*
X58120582Y-4077606D01*
X58114328Y-4077606D01*
X57848134Y-4136516D01*
X57629481Y-4297276D01*
X57480553Y-4535930D01*
X57423537Y-4828524D01*
X57474531Y-5123611D01*
X57619562Y-5365898D01*
X57836591Y-5530636D01*
X58103578Y-5593077D01*
X58109441Y-5593077D01*
X58376818Y-5532779D01*
X58600337Y-5366161D01*
X58750988Y-5114633D01*
X58831500Y-5060650D01*
X58832283Y-5060650D01*
X58912598Y-5116290D01*
X59058985Y-5372260D01*
X59555511Y-5767910D01*
X59547302Y-5767724D01*
X59264285Y-5712736D01*
X59018049Y-5564118D01*
X58829351Y-5337549D01*
X58637621Y-5558719D01*
X58390741Y-5702349D01*
X58109251Y-5753537D01*
X58101824Y-5753355D01*
X57831238Y-5703725D01*
X57597046Y-5570847D01*
X57413317Y-5370116D01*
X57294123Y-5116929D01*
X57253532Y-4826680D01*
X57300132Y-4538815D01*
X57423686Y-4289090D01*
X57610019Y-4092344D01*
X57844959Y-3963415D01*
X58114332Y-3917142D01*
X58122541Y-3917324D01*
X58405559Y-3972251D01*
X58651796Y-4120686D01*
X58840492Y-4346948D01*
X59032208Y-4126084D01*
X59278987Y-3982638D01*
X59560205Y-3931510D01*
X59568216Y-3931693D01*
X59838708Y-3981235D01*
X60072842Y-4114068D01*
X60256541Y-4314798D01*
X60375725Y-4568030D01*
X60416315Y-4858368D01*
X60369694Y-5146216D01*
X60246103Y-5395905D01*
X60059741Y-5592626D01*
X59824810Y-5721564D01*
X59555511Y-5767910D01*
X59555511Y-5767910D01*
G37*
D10*
X58300333Y-4980000D02*
G75*
G03X58300333Y-4980000I-150333J0D01*
G01*
D11*
G36*
X16951703Y-77541486D02*
G01*
X17242883Y-77662097D01*
X17504940Y-77837198D01*
X17727802Y-78060060D01*
X17902903Y-78322117D01*
X18023514Y-78613297D01*
X18085000Y-78922412D01*
X18085000Y-79237588D01*
X18023514Y-79546703D01*
X17902903Y-79837883D01*
X17727802Y-80099940D01*
X17504940Y-80322802D01*
X17242883Y-80497903D01*
X16951703Y-80618514D01*
X16642588Y-80680000D01*
X16327412Y-80680000D01*
X16018297Y-80618514D01*
X15727117Y-80497903D01*
X15465060Y-80322802D01*
X15242198Y-80099940D01*
X15067097Y-79837883D01*
X14946486Y-79546703D01*
X14885000Y-79237588D01*
X14885000Y-78922412D01*
X14946486Y-78613297D01*
X15067097Y-78322117D01*
X15242198Y-78060060D01*
X15465060Y-77837198D01*
X15727117Y-77662097D01*
X16018297Y-77541486D01*
X16327412Y-77480000D01*
X16642588Y-77480000D01*
X16951703Y-77541486D01*
X16951703Y-77541486D01*
G37*
G36*
X25206703Y-69921486D02*
G01*
X25497883Y-70042097D01*
X25759940Y-70217198D01*
X25982802Y-70440060D01*
X26157903Y-70702117D01*
X26278514Y-70993297D01*
X26340000Y-71302412D01*
X26340000Y-71617588D01*
X26278514Y-71926703D01*
X26157903Y-72217883D01*
X25982802Y-72479940D01*
X25759940Y-72702802D01*
X25497883Y-72877903D01*
X25206703Y-72998514D01*
X24897588Y-73060000D01*
X24810277Y-73060000D01*
X24785891Y-73062402D01*
X24762442Y-73069515D01*
X24740831Y-73081066D01*
X24721889Y-73096611D01*
X24706344Y-73115553D01*
X24694793Y-73137164D01*
X24687680Y-73160613D01*
X24685278Y-73184999D01*
X24687680Y-73209385D01*
X24694793Y-73232834D01*
X24706344Y-73254445D01*
X24721884Y-73273381D01*
X24842913Y-73394410D01*
X24946879Y-73550006D01*
X25018492Y-73722895D01*
X25055000Y-73906433D01*
X25055000Y-74093567D01*
X25018492Y-74277105D01*
X24946879Y-74449994D01*
X24842913Y-74605590D01*
X24710590Y-74737913D01*
X24554994Y-74841879D01*
X24382105Y-74913492D01*
X24354746Y-74918934D01*
X24198568Y-74950000D01*
X24011432Y-74950000D01*
X23945217Y-74936829D01*
X23827895Y-74913492D01*
X23827893Y-74913491D01*
X23820009Y-74911923D01*
X23811899Y-74909462D01*
X23787513Y-74907058D01*
X23763127Y-74909457D01*
X23755009Y-74911920D01*
X23730909Y-74916714D01*
X23683654Y-74926113D01*
X23660209Y-74933225D01*
X23638599Y-74944776D01*
X23619657Y-74960321D01*
X23604111Y-74979263D01*
X23592560Y-75000874D01*
X23585447Y-75024322D01*
X23583045Y-75048709D01*
X23585447Y-75073095D01*
X23592560Y-75096544D01*
X23604111Y-75118154D01*
X23619656Y-75137096D01*
X23638598Y-75152642D01*
X23854939Y-75297197D01*
X24077802Y-75520060D01*
X24252903Y-75782117D01*
X24373514Y-76073297D01*
X24435000Y-76382412D01*
X24435000Y-76697588D01*
X24373514Y-77006703D01*
X24252903Y-77297883D01*
X24077802Y-77559940D01*
X23854940Y-77782802D01*
X23592883Y-77957903D01*
X23301703Y-78078514D01*
X22992588Y-78140000D01*
X22677412Y-78140000D01*
X22368297Y-78078514D01*
X22077117Y-77957903D01*
X21815060Y-77782802D01*
X21592198Y-77559940D01*
X21417097Y-77297883D01*
X21296486Y-77006703D01*
X21235000Y-76697588D01*
X21235000Y-76382412D01*
X21296486Y-76073297D01*
X21417097Y-75782117D01*
X21592198Y-75520060D01*
X21815060Y-75297198D01*
X22077117Y-75122097D01*
X22368297Y-75001486D01*
X22677412Y-74940000D01*
X22764723Y-74940000D01*
X22789109Y-74937598D01*
X22812558Y-74930485D01*
X22834169Y-74918934D01*
X22853111Y-74903389D01*
X22868656Y-74884447D01*
X22880207Y-74862836D01*
X22887320Y-74839387D01*
X22889722Y-74815001D01*
X22887320Y-74790615D01*
X22880207Y-74767166D01*
X22868656Y-74745555D01*
X22853116Y-74726619D01*
X22732087Y-74605590D01*
X22628121Y-74449994D01*
X22556508Y-74277105D01*
X22520000Y-74093567D01*
X22520000Y-73906433D01*
X22556508Y-73722895D01*
X22628121Y-73550006D01*
X22732087Y-73394410D01*
X22864410Y-73262087D01*
X23020006Y-73158121D01*
X23192895Y-73086508D01*
X23314084Y-73062402D01*
X23376432Y-73050000D01*
X23563568Y-73050000D01*
X23625916Y-73062402D01*
X23747105Y-73086508D01*
X23747107Y-73086509D01*
X23754991Y-73088077D01*
X23763101Y-73090538D01*
X23787487Y-73092942D01*
X23811873Y-73090543D01*
X23819991Y-73088080D01*
X23855254Y-73081066D01*
X23891346Y-73073887D01*
X23914791Y-73066775D01*
X23936401Y-73055224D01*
X23955343Y-73039679D01*
X23970889Y-73020737D01*
X23982440Y-72999126D01*
X23989553Y-72975678D01*
X23991955Y-72951291D01*
X23989553Y-72926905D01*
X23982440Y-72903456D01*
X23970889Y-72881846D01*
X23955344Y-72862904D01*
X23936402Y-72847358D01*
X23720061Y-72702803D01*
X23497198Y-72479940D01*
X23322097Y-72217883D01*
X23201486Y-71926703D01*
X23140000Y-71617588D01*
X23140000Y-71302412D01*
X23201486Y-70993297D01*
X23322097Y-70702117D01*
X23497198Y-70440060D01*
X23720060Y-70217198D01*
X23982117Y-70042097D01*
X24273297Y-69921486D01*
X24582412Y-69860000D01*
X24897588Y-69860000D01*
X25206703Y-69921486D01*
X25206703Y-69921486D01*
G37*
G36*
X19637546Y-71980701D02*
G01*
X20019721Y-72139003D01*
X20019723Y-72139004D01*
X20363672Y-72368823D01*
X20656177Y-72661328D01*
X20881476Y-72998513D01*
X20885997Y-73005279D01*
X21044299Y-73387454D01*
X21125000Y-73793167D01*
X21125000Y-74206833D01*
X21044299Y-74612546D01*
X20931674Y-74884447D01*
X20885996Y-74994723D01*
X20656177Y-75338672D01*
X20363672Y-75631177D01*
X20019723Y-75860996D01*
X20019722Y-75860997D01*
X20019721Y-75860997D01*
X19637546Y-76019299D01*
X19231833Y-76100000D01*
X18818167Y-76100000D01*
X18412454Y-76019299D01*
X18030279Y-75860997D01*
X18030278Y-75860997D01*
X18030277Y-75860996D01*
X17686328Y-75631177D01*
X17393823Y-75338672D01*
X17164004Y-74994723D01*
X17118326Y-74884447D01*
X17005701Y-74612546D01*
X16925000Y-74206833D01*
X16925000Y-73793167D01*
X17005701Y-73387454D01*
X17164003Y-73005279D01*
X17168524Y-72998513D01*
X17393823Y-72661328D01*
X17686328Y-72368823D01*
X18030277Y-72139004D01*
X18030279Y-72139003D01*
X18412454Y-71980701D01*
X18818167Y-71900000D01*
X19231833Y-71900000D01*
X19637546Y-71980701D01*
X19637546Y-71980701D01*
G37*
G36*
X105362546Y-71980701D02*
G01*
X105744721Y-72139003D01*
X105744723Y-72139004D01*
X106088672Y-72368823D01*
X106381177Y-72661328D01*
X106606476Y-72998513D01*
X106610997Y-73005279D01*
X106769299Y-73387454D01*
X106850000Y-73793167D01*
X106850000Y-74206833D01*
X106769299Y-74612546D01*
X106656674Y-74884447D01*
X106610996Y-74994723D01*
X106381177Y-75338672D01*
X106088672Y-75631177D01*
X105744723Y-75860996D01*
X105744722Y-75860997D01*
X105744721Y-75860997D01*
X105362546Y-76019299D01*
X104956833Y-76100000D01*
X104543167Y-76100000D01*
X104137454Y-76019299D01*
X103755279Y-75860997D01*
X103755278Y-75860997D01*
X103755277Y-75860996D01*
X103411328Y-75631177D01*
X103118823Y-75338672D01*
X102889004Y-74994723D01*
X102843326Y-74884447D01*
X102730701Y-74612546D01*
X102650000Y-74206833D01*
X102650000Y-73793167D01*
X102730701Y-73387454D01*
X102889003Y-73005279D01*
X102893524Y-72998513D01*
X103118823Y-72661328D01*
X103411328Y-72368823D01*
X103755277Y-72139004D01*
X103755279Y-72139003D01*
X104137454Y-71980701D01*
X104543167Y-71900000D01*
X104956833Y-71900000D01*
X105362546Y-71980701D01*
X105362546Y-71980701D01*
G37*
G36*
X67262546Y-71980701D02*
G01*
X67644721Y-72139003D01*
X67644723Y-72139004D01*
X67988672Y-72368823D01*
X68281177Y-72661328D01*
X68506476Y-72998513D01*
X68510997Y-73005279D01*
X68669299Y-73387454D01*
X68750000Y-73793167D01*
X68750000Y-74206833D01*
X68669299Y-74612546D01*
X68556674Y-74884447D01*
X68510996Y-74994723D01*
X68281177Y-75338672D01*
X67988672Y-75631177D01*
X67644723Y-75860996D01*
X67644722Y-75860997D01*
X67644721Y-75860997D01*
X67262546Y-76019299D01*
X66856833Y-76100000D01*
X66443167Y-76100000D01*
X66037454Y-76019299D01*
X65655279Y-75860997D01*
X65655278Y-75860997D01*
X65655277Y-75860996D01*
X65311328Y-75631177D01*
X65018823Y-75338672D01*
X64789004Y-74994723D01*
X64743326Y-74884447D01*
X64630701Y-74612546D01*
X64550000Y-74206833D01*
X64550000Y-73793167D01*
X64630701Y-73387454D01*
X64789003Y-73005279D01*
X64793524Y-72998513D01*
X65018823Y-72661328D01*
X65311328Y-72368823D01*
X65655277Y-72139004D01*
X65655279Y-72139003D01*
X66037454Y-71980701D01*
X66443167Y-71900000D01*
X66856833Y-71900000D01*
X67262546Y-71980701D01*
X67262546Y-71980701D01*
G37*
G36*
X10112546Y-71980701D02*
G01*
X10494721Y-72139003D01*
X10494723Y-72139004D01*
X10838672Y-72368823D01*
X11131177Y-72661328D01*
X11356476Y-72998513D01*
X11360997Y-73005279D01*
X11519299Y-73387454D01*
X11600000Y-73793167D01*
X11600000Y-74206833D01*
X11519299Y-74612546D01*
X11406674Y-74884447D01*
X11360996Y-74994723D01*
X11131177Y-75338672D01*
X10838672Y-75631177D01*
X10494723Y-75860996D01*
X10494722Y-75860997D01*
X10494721Y-75860997D01*
X10112546Y-76019299D01*
X9706833Y-76100000D01*
X9293167Y-76100000D01*
X8887454Y-76019299D01*
X8505279Y-75860997D01*
X8505278Y-75860997D01*
X8505277Y-75860996D01*
X8161328Y-75631177D01*
X7868823Y-75338672D01*
X7639004Y-74994723D01*
X7593326Y-74884447D01*
X7480701Y-74612546D01*
X7400000Y-74206833D01*
X7400000Y-73793167D01*
X7480701Y-73387454D01*
X7639003Y-73005279D01*
X7643524Y-72998513D01*
X7868823Y-72661328D01*
X8161328Y-72368823D01*
X8505277Y-72139004D01*
X8505279Y-72139003D01*
X8887454Y-71980701D01*
X9293167Y-71900000D01*
X9706833Y-71900000D01*
X10112546Y-71980701D01*
X10112546Y-71980701D01*
G37*
G36*
X29162546Y-71980701D02*
G01*
X29544721Y-72139003D01*
X29544723Y-72139004D01*
X29888672Y-72368823D01*
X30181177Y-72661328D01*
X30406476Y-72998513D01*
X30410997Y-73005279D01*
X30569299Y-73387454D01*
X30650000Y-73793167D01*
X30650000Y-74206833D01*
X30569299Y-74612546D01*
X30456674Y-74884447D01*
X30410996Y-74994723D01*
X30181177Y-75338672D01*
X29888672Y-75631177D01*
X29544723Y-75860996D01*
X29544722Y-75860997D01*
X29544721Y-75860997D01*
X29162546Y-76019299D01*
X28756833Y-76100000D01*
X28343167Y-76100000D01*
X27937454Y-76019299D01*
X27555279Y-75860997D01*
X27555278Y-75860997D01*
X27555277Y-75860996D01*
X27211328Y-75631177D01*
X26918823Y-75338672D01*
X26689004Y-74994723D01*
X26643326Y-74884447D01*
X26530701Y-74612546D01*
X26450000Y-74206833D01*
X26450000Y-73793167D01*
X26530701Y-73387454D01*
X26689003Y-73005279D01*
X26693524Y-72998513D01*
X26918823Y-72661328D01*
X27211328Y-72368823D01*
X27555277Y-72139004D01*
X27555279Y-72139003D01*
X27937454Y-71980701D01*
X28343167Y-71900000D01*
X28756833Y-71900000D01*
X29162546Y-71980701D01*
X29162546Y-71980701D01*
G37*
G36*
X86312546Y-71980701D02*
G01*
X86694721Y-72139003D01*
X86694723Y-72139004D01*
X87038672Y-72368823D01*
X87331177Y-72661328D01*
X87556476Y-72998513D01*
X87560997Y-73005279D01*
X87719299Y-73387454D01*
X87800000Y-73793167D01*
X87800000Y-74206833D01*
X87719299Y-74612546D01*
X87606674Y-74884447D01*
X87560996Y-74994723D01*
X87331177Y-75338672D01*
X87038672Y-75631177D01*
X86694723Y-75860996D01*
X86694722Y-75860997D01*
X86694721Y-75860997D01*
X86312546Y-76019299D01*
X85906833Y-76100000D01*
X85493167Y-76100000D01*
X85087454Y-76019299D01*
X84705279Y-75860997D01*
X84705278Y-75860997D01*
X84705277Y-75860996D01*
X84361328Y-75631177D01*
X84068823Y-75338672D01*
X83839004Y-74994723D01*
X83793326Y-74884447D01*
X83680701Y-74612546D01*
X83600000Y-74206833D01*
X83600000Y-73793167D01*
X83680701Y-73387454D01*
X83839003Y-73005279D01*
X83843524Y-72998513D01*
X84068823Y-72661328D01*
X84361328Y-72368823D01*
X84705277Y-72139004D01*
X84705279Y-72139003D01*
X85087454Y-71980701D01*
X85493167Y-71900000D01*
X85906833Y-71900000D01*
X86312546Y-71980701D01*
X86312546Y-71980701D01*
G37*
G36*
X48212546Y-71980701D02*
G01*
X48594721Y-72139003D01*
X48594723Y-72139004D01*
X48938672Y-72368823D01*
X49231177Y-72661328D01*
X49456476Y-72998513D01*
X49460997Y-73005279D01*
X49619299Y-73387454D01*
X49700000Y-73793167D01*
X49700000Y-74206833D01*
X49619299Y-74612546D01*
X49506674Y-74884447D01*
X49460996Y-74994723D01*
X49231177Y-75338672D01*
X48938672Y-75631177D01*
X48594723Y-75860996D01*
X48594722Y-75860997D01*
X48594721Y-75860997D01*
X48212546Y-76019299D01*
X47806833Y-76100000D01*
X47393167Y-76100000D01*
X46987454Y-76019299D01*
X46605279Y-75860997D01*
X46605278Y-75860997D01*
X46605277Y-75860996D01*
X46261328Y-75631177D01*
X45968823Y-75338672D01*
X45739004Y-74994723D01*
X45693326Y-74884447D01*
X45580701Y-74612546D01*
X45500000Y-74206833D01*
X45500000Y-73793167D01*
X45580701Y-73387454D01*
X45739003Y-73005279D01*
X45743524Y-72998513D01*
X45968823Y-72661328D01*
X46261328Y-72368823D01*
X46605277Y-72139004D01*
X46605279Y-72139003D01*
X46987454Y-71980701D01*
X47393167Y-71900000D01*
X47806833Y-71900000D01*
X48212546Y-71980701D01*
X48212546Y-71980701D01*
G37*
G36*
X90935916Y-73062402D02*
G01*
X91057105Y-73086508D01*
X91229994Y-73158121D01*
X91385590Y-73262087D01*
X91517913Y-73394410D01*
X91621879Y-73550006D01*
X91693492Y-73722895D01*
X91730000Y-73906433D01*
X91730000Y-74093567D01*
X91693492Y-74277105D01*
X91621879Y-74449994D01*
X91517913Y-74605590D01*
X91385590Y-74737913D01*
X91229994Y-74841879D01*
X91057105Y-74913492D01*
X91029746Y-74918934D01*
X90873568Y-74950000D01*
X90686432Y-74950000D01*
X90530254Y-74918934D01*
X90502895Y-74913492D01*
X90330006Y-74841879D01*
X90174410Y-74737913D01*
X90042087Y-74605590D01*
X89938121Y-74449994D01*
X89866508Y-74277105D01*
X89830000Y-74093567D01*
X89830000Y-73906433D01*
X89866508Y-73722895D01*
X89938121Y-73550006D01*
X90042087Y-73394410D01*
X90174410Y-73262087D01*
X90330006Y-73158121D01*
X90502895Y-73086508D01*
X90624084Y-73062402D01*
X90686432Y-73050000D01*
X90873568Y-73050000D01*
X90935916Y-73062402D01*
X90935916Y-73062402D01*
G37*
G36*
X80775916Y-73062402D02*
G01*
X80897105Y-73086508D01*
X81069994Y-73158121D01*
X81225590Y-73262087D01*
X81357913Y-73394410D01*
X81461879Y-73550006D01*
X81533492Y-73722895D01*
X81570000Y-73906433D01*
X81570000Y-74093567D01*
X81533492Y-74277105D01*
X81461879Y-74449994D01*
X81357913Y-74605590D01*
X81225590Y-74737913D01*
X81069994Y-74841879D01*
X80897105Y-74913492D01*
X80869746Y-74918934D01*
X80713568Y-74950000D01*
X80526432Y-74950000D01*
X80370254Y-74918934D01*
X80342895Y-74913492D01*
X80170006Y-74841879D01*
X80014410Y-74737913D01*
X79882087Y-74605590D01*
X79778121Y-74449994D01*
X79706508Y-74277105D01*
X79670000Y-74093567D01*
X79670000Y-73906433D01*
X79706508Y-73722895D01*
X79778121Y-73550006D01*
X79882087Y-73394410D01*
X80014410Y-73262087D01*
X80170006Y-73158121D01*
X80342895Y-73086508D01*
X80464084Y-73062402D01*
X80526432Y-73050000D01*
X80713568Y-73050000D01*
X80775916Y-73062402D01*
X80775916Y-73062402D01*
G37*
G36*
X33785916Y-73062402D02*
G01*
X33907105Y-73086508D01*
X34079994Y-73158121D01*
X34235590Y-73262087D01*
X34367913Y-73394410D01*
X34471879Y-73550006D01*
X34543492Y-73722895D01*
X34580000Y-73906433D01*
X34580000Y-74093567D01*
X34543492Y-74277105D01*
X34471879Y-74449994D01*
X34367913Y-74605590D01*
X34235590Y-74737913D01*
X34079994Y-74841879D01*
X33907105Y-74913492D01*
X33879746Y-74918934D01*
X33723568Y-74950000D01*
X33536432Y-74950000D01*
X33380254Y-74918934D01*
X33352895Y-74913492D01*
X33180006Y-74841879D01*
X33024410Y-74737913D01*
X32892087Y-74605590D01*
X32788121Y-74449994D01*
X32716508Y-74277105D01*
X32680000Y-74093567D01*
X32680000Y-73906433D01*
X32716508Y-73722895D01*
X32788121Y-73550006D01*
X32892087Y-73394410D01*
X33024410Y-73262087D01*
X33180006Y-73158121D01*
X33352895Y-73086508D01*
X33474084Y-73062402D01*
X33536432Y-73050000D01*
X33723568Y-73050000D01*
X33785916Y-73062402D01*
X33785916Y-73062402D01*
G37*
G36*
X4575916Y-73062402D02*
G01*
X4697105Y-73086508D01*
X4869994Y-73158121D01*
X5025590Y-73262087D01*
X5157913Y-73394410D01*
X5261879Y-73550006D01*
X5333492Y-73722895D01*
X5370000Y-73906433D01*
X5370000Y-74093567D01*
X5333492Y-74277105D01*
X5261879Y-74449994D01*
X5157913Y-74605590D01*
X5025590Y-74737913D01*
X4869994Y-74841879D01*
X4697105Y-74913492D01*
X4669746Y-74918934D01*
X4513568Y-74950000D01*
X4326432Y-74950000D01*
X4170254Y-74918934D01*
X4142895Y-74913492D01*
X3970006Y-74841879D01*
X3814410Y-74737913D01*
X3682087Y-74605590D01*
X3578121Y-74449994D01*
X3506508Y-74277105D01*
X3470000Y-74093567D01*
X3470000Y-73906433D01*
X3506508Y-73722895D01*
X3578121Y-73550006D01*
X3682087Y-73394410D01*
X3814410Y-73262087D01*
X3970006Y-73158121D01*
X4142895Y-73086508D01*
X4264084Y-73062402D01*
X4326432Y-73050000D01*
X4513568Y-73050000D01*
X4575916Y-73062402D01*
X4575916Y-73062402D01*
G37*
G36*
X71885916Y-73062402D02*
G01*
X72007105Y-73086508D01*
X72179994Y-73158121D01*
X72335590Y-73262087D01*
X72467913Y-73394410D01*
X72571879Y-73550006D01*
X72643492Y-73722895D01*
X72680000Y-73906433D01*
X72680000Y-74093567D01*
X72643492Y-74277105D01*
X72571879Y-74449994D01*
X72467913Y-74605590D01*
X72335590Y-74737913D01*
X72179994Y-74841879D01*
X72007105Y-74913492D01*
X71979746Y-74918934D01*
X71823568Y-74950000D01*
X71636432Y-74950000D01*
X71480254Y-74918934D01*
X71452895Y-74913492D01*
X71280006Y-74841879D01*
X71124410Y-74737913D01*
X70992087Y-74605590D01*
X70888121Y-74449994D01*
X70816508Y-74277105D01*
X70780000Y-74093567D01*
X70780000Y-73906433D01*
X70816508Y-73722895D01*
X70888121Y-73550006D01*
X70992087Y-73394410D01*
X71124410Y-73262087D01*
X71280006Y-73158121D01*
X71452895Y-73086508D01*
X71574084Y-73062402D01*
X71636432Y-73050000D01*
X71823568Y-73050000D01*
X71885916Y-73062402D01*
X71885916Y-73062402D01*
G37*
G36*
X61725916Y-73062402D02*
G01*
X61847105Y-73086508D01*
X62019994Y-73158121D01*
X62175590Y-73262087D01*
X62307913Y-73394410D01*
X62411879Y-73550006D01*
X62483492Y-73722895D01*
X62520000Y-73906433D01*
X62520000Y-74093567D01*
X62483492Y-74277105D01*
X62411879Y-74449994D01*
X62307913Y-74605590D01*
X62175590Y-74737913D01*
X62019994Y-74841879D01*
X61847105Y-74913492D01*
X61819746Y-74918934D01*
X61663568Y-74950000D01*
X61476432Y-74950000D01*
X61320254Y-74918934D01*
X61292895Y-74913492D01*
X61120006Y-74841879D01*
X60964410Y-74737913D01*
X60832087Y-74605590D01*
X60728121Y-74449994D01*
X60656508Y-74277105D01*
X60620000Y-74093567D01*
X60620000Y-73906433D01*
X60656508Y-73722895D01*
X60728121Y-73550006D01*
X60832087Y-73394410D01*
X60964410Y-73262087D01*
X61120006Y-73158121D01*
X61292895Y-73086508D01*
X61414084Y-73062402D01*
X61476432Y-73050000D01*
X61663568Y-73050000D01*
X61725916Y-73062402D01*
X61725916Y-73062402D01*
G37*
G36*
X109985916Y-73062402D02*
G01*
X110107105Y-73086508D01*
X110279994Y-73158121D01*
X110435590Y-73262087D01*
X110567913Y-73394410D01*
X110671879Y-73550006D01*
X110743492Y-73722895D01*
X110780000Y-73906433D01*
X110780000Y-74093567D01*
X110743492Y-74277105D01*
X110671879Y-74449994D01*
X110567913Y-74605590D01*
X110435590Y-74737913D01*
X110279994Y-74841879D01*
X110107105Y-74913492D01*
X110079746Y-74918934D01*
X109923568Y-74950000D01*
X109736432Y-74950000D01*
X109580254Y-74918934D01*
X109552895Y-74913492D01*
X109380006Y-74841879D01*
X109224410Y-74737913D01*
X109092087Y-74605590D01*
X108988121Y-74449994D01*
X108916508Y-74277105D01*
X108880000Y-74093567D01*
X108880000Y-73906433D01*
X108916508Y-73722895D01*
X108988121Y-73550006D01*
X109092087Y-73394410D01*
X109224410Y-73262087D01*
X109380006Y-73158121D01*
X109552895Y-73086508D01*
X109674084Y-73062402D01*
X109736432Y-73050000D01*
X109923568Y-73050000D01*
X109985916Y-73062402D01*
X109985916Y-73062402D01*
G37*
G36*
X52835916Y-73062402D02*
G01*
X52957105Y-73086508D01*
X53129994Y-73158121D01*
X53285590Y-73262087D01*
X53417913Y-73394410D01*
X53521879Y-73550006D01*
X53593492Y-73722895D01*
X53630000Y-73906433D01*
X53630000Y-74093567D01*
X53593492Y-74277105D01*
X53521879Y-74449994D01*
X53417913Y-74605590D01*
X53285590Y-74737913D01*
X53129994Y-74841879D01*
X52957105Y-74913492D01*
X52929746Y-74918934D01*
X52773568Y-74950000D01*
X52586432Y-74950000D01*
X52430254Y-74918934D01*
X52402895Y-74913492D01*
X52230006Y-74841879D01*
X52074410Y-74737913D01*
X51942087Y-74605590D01*
X51838121Y-74449994D01*
X51766508Y-74277105D01*
X51730000Y-74093567D01*
X51730000Y-73906433D01*
X51766508Y-73722895D01*
X51838121Y-73550006D01*
X51942087Y-73394410D01*
X52074410Y-73262087D01*
X52230006Y-73158121D01*
X52402895Y-73086508D01*
X52524084Y-73062402D01*
X52586432Y-73050000D01*
X52773568Y-73050000D01*
X52835916Y-73062402D01*
X52835916Y-73062402D01*
G37*
G36*
X14100916Y-73062402D02*
G01*
X14222105Y-73086508D01*
X14222107Y-73086509D01*
X14229991Y-73088077D01*
X14238101Y-73090538D01*
X14262487Y-73092942D01*
X14286873Y-73090543D01*
X14294991Y-73088080D01*
X14486432Y-73050000D01*
X14673568Y-73050000D01*
X14735916Y-73062402D01*
X14857105Y-73086508D01*
X15029994Y-73158121D01*
X15185590Y-73262087D01*
X15317913Y-73394410D01*
X15421879Y-73550006D01*
X15493492Y-73722895D01*
X15530000Y-73906433D01*
X15530000Y-74093567D01*
X15493492Y-74277105D01*
X15421879Y-74449994D01*
X15317913Y-74605590D01*
X15185590Y-74737913D01*
X15029994Y-74841879D01*
X14857105Y-74913492D01*
X14829746Y-74918934D01*
X14673568Y-74950000D01*
X14486432Y-74950000D01*
X14420217Y-74936829D01*
X14302895Y-74913492D01*
X14302893Y-74913491D01*
X14295009Y-74911923D01*
X14286899Y-74909462D01*
X14262513Y-74907058D01*
X14238127Y-74909457D01*
X14230009Y-74911920D01*
X14038568Y-74950000D01*
X13851432Y-74950000D01*
X13695254Y-74918934D01*
X13667895Y-74913492D01*
X13495006Y-74841879D01*
X13339410Y-74737913D01*
X13207087Y-74605590D01*
X13103121Y-74449994D01*
X13031508Y-74277105D01*
X12995000Y-74093567D01*
X12995000Y-73906433D01*
X13031508Y-73722895D01*
X13103121Y-73550006D01*
X13207087Y-73394410D01*
X13339410Y-73262087D01*
X13495006Y-73158121D01*
X13667895Y-73086508D01*
X13789084Y-73062402D01*
X13851432Y-73050000D01*
X14038568Y-73050000D01*
X14100916Y-73062402D01*
X14100916Y-73062402D01*
G37*
G36*
X42675916Y-73062402D02*
G01*
X42797105Y-73086508D01*
X42969994Y-73158121D01*
X43125590Y-73262087D01*
X43257913Y-73394410D01*
X43361879Y-73550006D01*
X43433492Y-73722895D01*
X43470000Y-73906433D01*
X43470000Y-74093567D01*
X43433492Y-74277105D01*
X43361879Y-74449994D01*
X43257913Y-74605590D01*
X43125590Y-74737913D01*
X42969994Y-74841879D01*
X42797105Y-74913492D01*
X42769746Y-74918934D01*
X42613568Y-74950000D01*
X42426432Y-74950000D01*
X42270254Y-74918934D01*
X42242895Y-74913492D01*
X42070006Y-74841879D01*
X41914410Y-74737913D01*
X41782087Y-74605590D01*
X41678121Y-74449994D01*
X41606508Y-74277105D01*
X41570000Y-74093567D01*
X41570000Y-73906433D01*
X41606508Y-73722895D01*
X41678121Y-73550006D01*
X41782087Y-73394410D01*
X41914410Y-73262087D01*
X42070006Y-73158121D01*
X42242895Y-73086508D01*
X42364084Y-73062402D01*
X42426432Y-73050000D01*
X42613568Y-73050000D01*
X42675916Y-73062402D01*
X42675916Y-73062402D01*
G37*
G36*
X99825916Y-73062402D02*
G01*
X99947105Y-73086508D01*
X100119994Y-73158121D01*
X100275590Y-73262087D01*
X100407913Y-73394410D01*
X100511879Y-73550006D01*
X100583492Y-73722895D01*
X100620000Y-73906433D01*
X100620000Y-74093567D01*
X100583492Y-74277105D01*
X100511879Y-74449994D01*
X100407913Y-74605590D01*
X100275590Y-74737913D01*
X100119994Y-74841879D01*
X99947105Y-74913492D01*
X99919746Y-74918934D01*
X99763568Y-74950000D01*
X99576432Y-74950000D01*
X99420254Y-74918934D01*
X99392895Y-74913492D01*
X99220006Y-74841879D01*
X99064410Y-74737913D01*
X98932087Y-74605590D01*
X98828121Y-74449994D01*
X98756508Y-74277105D01*
X98720000Y-74093567D01*
X98720000Y-73906433D01*
X98756508Y-73722895D01*
X98828121Y-73550006D01*
X98932087Y-73394410D01*
X99064410Y-73262087D01*
X99220006Y-73158121D01*
X99392895Y-73086508D01*
X99514084Y-73062402D01*
X99576432Y-73050000D01*
X99763568Y-73050000D01*
X99825916Y-73062402D01*
X99825916Y-73062402D01*
G37*
G36*
X63306703Y-69921486D02*
G01*
X63597883Y-70042097D01*
X63859940Y-70217198D01*
X64082802Y-70440060D01*
X64257903Y-70702117D01*
X64378514Y-70993297D01*
X64440000Y-71302412D01*
X64440000Y-71617588D01*
X64378514Y-71926703D01*
X64257903Y-72217883D01*
X64082802Y-72479940D01*
X63859940Y-72702802D01*
X63597883Y-72877903D01*
X63306703Y-72998514D01*
X62997588Y-73060000D01*
X62682412Y-73060000D01*
X62373297Y-72998514D01*
X62082117Y-72877903D01*
X61820060Y-72702802D01*
X61597198Y-72479940D01*
X61422097Y-72217883D01*
X61301486Y-71926703D01*
X61240000Y-71617588D01*
X61240000Y-71302412D01*
X61301486Y-70993297D01*
X61422097Y-70702117D01*
X61597198Y-70440060D01*
X61820060Y-70217198D01*
X62082117Y-70042097D01*
X62373297Y-69921486D01*
X62682412Y-69860000D01*
X62997588Y-69860000D01*
X63306703Y-69921486D01*
X63306703Y-69921486D01*
G37*
G36*
X82356703Y-69921486D02*
G01*
X82647883Y-70042097D01*
X82909940Y-70217198D01*
X83132802Y-70440060D01*
X83307903Y-70702117D01*
X83428514Y-70993297D01*
X83490000Y-71302412D01*
X83490000Y-71617588D01*
X83428514Y-71926703D01*
X83307903Y-72217883D01*
X83132802Y-72479940D01*
X82909940Y-72702802D01*
X82647883Y-72877903D01*
X82356703Y-72998514D01*
X82047588Y-73060000D01*
X81732412Y-73060000D01*
X81423297Y-72998514D01*
X81132117Y-72877903D01*
X80870060Y-72702802D01*
X80647198Y-72479940D01*
X80472097Y-72217883D01*
X80351486Y-71926703D01*
X80290000Y-71617588D01*
X80290000Y-71302412D01*
X80351486Y-70993297D01*
X80472097Y-70702117D01*
X80647198Y-70440060D01*
X80870060Y-70217198D01*
X81132117Y-70042097D01*
X81423297Y-69921486D01*
X81732412Y-69860000D01*
X82047588Y-69860000D01*
X82356703Y-69921486D01*
X82356703Y-69921486D01*
G37*
G36*
X6156703Y-69921486D02*
G01*
X6447883Y-70042097D01*
X6709940Y-70217198D01*
X6932802Y-70440060D01*
X7107903Y-70702117D01*
X7228514Y-70993297D01*
X7290000Y-71302412D01*
X7290000Y-71617588D01*
X7228514Y-71926703D01*
X7107903Y-72217883D01*
X6932802Y-72479940D01*
X6709940Y-72702802D01*
X6447883Y-72877903D01*
X6156703Y-72998514D01*
X5847588Y-73060000D01*
X5532412Y-73060000D01*
X5223297Y-72998514D01*
X4932117Y-72877903D01*
X4670060Y-72702802D01*
X4447198Y-72479940D01*
X4272097Y-72217883D01*
X4151486Y-71926703D01*
X4090000Y-71617588D01*
X4090000Y-71302412D01*
X4151486Y-70993297D01*
X4272097Y-70702117D01*
X4447198Y-70440060D01*
X4670060Y-70217198D01*
X4932117Y-70042097D01*
X5223297Y-69921486D01*
X5532412Y-69860000D01*
X5847588Y-69860000D01*
X6156703Y-69921486D01*
X6156703Y-69921486D01*
G37*
G36*
X44256703Y-69921486D02*
G01*
X44547883Y-70042097D01*
X44809940Y-70217198D01*
X45032802Y-70440060D01*
X45207903Y-70702117D01*
X45328514Y-70993297D01*
X45390000Y-71302412D01*
X45390000Y-71617588D01*
X45328514Y-71926703D01*
X45207903Y-72217883D01*
X45032802Y-72479940D01*
X44809940Y-72702802D01*
X44547883Y-72877903D01*
X44256703Y-72998514D01*
X43947588Y-73060000D01*
X43632412Y-73060000D01*
X43323297Y-72998514D01*
X43032117Y-72877903D01*
X42770060Y-72702802D01*
X42547198Y-72479940D01*
X42372097Y-72217883D01*
X42251486Y-71926703D01*
X42190000Y-71617588D01*
X42190000Y-71302412D01*
X42251486Y-70993297D01*
X42372097Y-70702117D01*
X42547198Y-70440060D01*
X42770060Y-70217198D01*
X43032117Y-70042097D01*
X43323297Y-69921486D01*
X43632412Y-69860000D01*
X43947588Y-69860000D01*
X44256703Y-69921486D01*
X44256703Y-69921486D01*
G37*
G36*
X101406703Y-69921486D02*
G01*
X101697883Y-70042097D01*
X101959940Y-70217198D01*
X102182802Y-70440060D01*
X102357903Y-70702117D01*
X102478514Y-70993297D01*
X102540000Y-71302412D01*
X102540000Y-71617588D01*
X102478514Y-71926703D01*
X102357903Y-72217883D01*
X102182802Y-72479940D01*
X101959940Y-72702802D01*
X101697883Y-72877903D01*
X101406703Y-72998514D01*
X101097588Y-73060000D01*
X100782412Y-73060000D01*
X100473297Y-72998514D01*
X100182117Y-72877903D01*
X99920060Y-72702802D01*
X99697198Y-72479940D01*
X99522097Y-72217883D01*
X99401486Y-71926703D01*
X99340000Y-71617588D01*
X99340000Y-71302412D01*
X99401486Y-70993297D01*
X99522097Y-70702117D01*
X99697198Y-70440060D01*
X99920060Y-70217198D01*
X100182117Y-70042097D01*
X100473297Y-69921486D01*
X100782412Y-69860000D01*
X101097588Y-69860000D01*
X101406703Y-69921486D01*
X101406703Y-69921486D01*
G37*
G36*
X50606703Y-67381486D02*
G01*
X50897883Y-67502097D01*
X51159940Y-67677198D01*
X51382802Y-67900060D01*
X51557903Y-68162117D01*
X51678514Y-68453297D01*
X51740000Y-68762412D01*
X51740000Y-69077588D01*
X51678514Y-69386703D01*
X51557903Y-69677883D01*
X51382802Y-69939940D01*
X51159940Y-70162802D01*
X50897883Y-70337903D01*
X50606703Y-70458514D01*
X50297588Y-70520000D01*
X49982412Y-70520000D01*
X49673297Y-70458514D01*
X49382117Y-70337903D01*
X49120060Y-70162802D01*
X48897198Y-69939940D01*
X48722097Y-69677883D01*
X48601486Y-69386703D01*
X48540000Y-69077588D01*
X48540000Y-68762412D01*
X48601486Y-68453297D01*
X48722097Y-68162117D01*
X48897198Y-67900060D01*
X49120060Y-67677198D01*
X49382117Y-67502097D01*
X49673297Y-67381486D01*
X49982412Y-67320000D01*
X50297588Y-67320000D01*
X50606703Y-67381486D01*
X50606703Y-67381486D01*
G37*
G36*
X107756703Y-67381486D02*
G01*
X108047883Y-67502097D01*
X108309940Y-67677198D01*
X108532802Y-67900060D01*
X108707903Y-68162117D01*
X108828514Y-68453297D01*
X108890000Y-68762412D01*
X108890000Y-69077588D01*
X108828514Y-69386703D01*
X108707903Y-69677883D01*
X108532802Y-69939940D01*
X108309940Y-70162802D01*
X108047883Y-70337903D01*
X107756703Y-70458514D01*
X107447588Y-70520000D01*
X107132412Y-70520000D01*
X106823297Y-70458514D01*
X106532117Y-70337903D01*
X106270060Y-70162802D01*
X106047198Y-69939940D01*
X105872097Y-69677883D01*
X105751486Y-69386703D01*
X105690000Y-69077588D01*
X105690000Y-68762412D01*
X105751486Y-68453297D01*
X105872097Y-68162117D01*
X106047198Y-67900060D01*
X106270060Y-67677198D01*
X106532117Y-67502097D01*
X106823297Y-67381486D01*
X107132412Y-67320000D01*
X107447588Y-67320000D01*
X107756703Y-67381486D01*
X107756703Y-67381486D01*
G37*
G36*
X12506703Y-67381486D02*
G01*
X12797883Y-67502097D01*
X13059940Y-67677198D01*
X13282802Y-67900060D01*
X13457903Y-68162117D01*
X13578514Y-68453297D01*
X13640000Y-68762412D01*
X13640000Y-69077588D01*
X13578514Y-69386703D01*
X13457903Y-69677883D01*
X13282802Y-69939940D01*
X13059940Y-70162802D01*
X12797883Y-70337903D01*
X12506703Y-70458514D01*
X12197588Y-70520000D01*
X11882412Y-70520000D01*
X11573297Y-70458514D01*
X11282117Y-70337903D01*
X11020060Y-70162802D01*
X10797198Y-69939940D01*
X10622097Y-69677883D01*
X10501486Y-69386703D01*
X10440000Y-69077588D01*
X10440000Y-68762412D01*
X10501486Y-68453297D01*
X10622097Y-68162117D01*
X10797198Y-67900060D01*
X11020060Y-67677198D01*
X11282117Y-67502097D01*
X11573297Y-67381486D01*
X11882412Y-67320000D01*
X12197588Y-67320000D01*
X12506703Y-67381486D01*
X12506703Y-67381486D01*
G37*
G36*
X88706703Y-67381486D02*
G01*
X88997883Y-67502097D01*
X89259940Y-67677198D01*
X89482802Y-67900060D01*
X89657903Y-68162117D01*
X89778514Y-68453297D01*
X89840000Y-68762412D01*
X89840000Y-69077588D01*
X89778514Y-69386703D01*
X89657903Y-69677883D01*
X89482802Y-69939940D01*
X89259940Y-70162802D01*
X88997883Y-70337903D01*
X88706703Y-70458514D01*
X88397588Y-70520000D01*
X88082412Y-70520000D01*
X87773297Y-70458514D01*
X87482117Y-70337903D01*
X87220060Y-70162802D01*
X86997198Y-69939940D01*
X86822097Y-69677883D01*
X86701486Y-69386703D01*
X86640000Y-69077588D01*
X86640000Y-68762412D01*
X86701486Y-68453297D01*
X86822097Y-68162117D01*
X86997198Y-67900060D01*
X87220060Y-67677198D01*
X87482117Y-67502097D01*
X87773297Y-67381486D01*
X88082412Y-67320000D01*
X88397588Y-67320000D01*
X88706703Y-67381486D01*
X88706703Y-67381486D01*
G37*
G36*
X31556703Y-67381486D02*
G01*
X31847883Y-67502097D01*
X32109940Y-67677198D01*
X32332802Y-67900060D01*
X32507903Y-68162117D01*
X32628514Y-68453297D01*
X32690000Y-68762412D01*
X32690000Y-69077588D01*
X32628514Y-69386703D01*
X32507903Y-69677883D01*
X32332802Y-69939940D01*
X32109940Y-70162802D01*
X31847883Y-70337903D01*
X31556703Y-70458514D01*
X31247588Y-70520000D01*
X30932412Y-70520000D01*
X30623297Y-70458514D01*
X30332117Y-70337903D01*
X30070060Y-70162802D01*
X29847198Y-69939940D01*
X29672097Y-69677883D01*
X29551486Y-69386703D01*
X29490000Y-69077588D01*
X29490000Y-68762412D01*
X29551486Y-68453297D01*
X29672097Y-68162117D01*
X29847198Y-67900060D01*
X30070060Y-67677198D01*
X30332117Y-67502097D01*
X30623297Y-67381486D01*
X30932412Y-67320000D01*
X31247588Y-67320000D01*
X31556703Y-67381486D01*
X31556703Y-67381486D01*
G37*
G36*
X69656703Y-67381486D02*
G01*
X69947883Y-67502097D01*
X70209940Y-67677198D01*
X70432802Y-67900060D01*
X70607903Y-68162117D01*
X70728514Y-68453297D01*
X70790000Y-68762412D01*
X70790000Y-69077588D01*
X70728514Y-69386703D01*
X70607903Y-69677883D01*
X70432802Y-69939940D01*
X70209940Y-70162802D01*
X69947883Y-70337903D01*
X69656703Y-70458514D01*
X69347588Y-70520000D01*
X69032412Y-70520000D01*
X68723297Y-70458514D01*
X68432117Y-70337903D01*
X68170060Y-70162802D01*
X67947198Y-69939940D01*
X67772097Y-69677883D01*
X67651486Y-69386703D01*
X67590000Y-69077588D01*
X67590000Y-68762412D01*
X67651486Y-68453297D01*
X67772097Y-68162117D01*
X67947198Y-67900060D01*
X68170060Y-67677198D01*
X68432117Y-67502097D01*
X68723297Y-67381486D01*
X69032412Y-67320000D01*
X69347588Y-67320000D01*
X69656703Y-67381486D01*
X69656703Y-67381486D01*
G37*
G36*
X95854780Y-61459566D02*
G01*
X96154237Y-61519131D01*
X96718401Y-61752815D01*
X97226135Y-62092072D01*
X97657928Y-62523865D01*
X97997185Y-63031599D01*
X98230869Y-63595763D01*
X98230869Y-63595765D01*
X98344630Y-64167677D01*
X98350000Y-64194677D01*
X98350000Y-64805323D01*
X98230869Y-65404237D01*
X97997185Y-65968401D01*
X97657928Y-66476135D01*
X97226135Y-66907928D01*
X96718401Y-67247185D01*
X96154237Y-67480869D01*
X95854780Y-67540434D01*
X95555325Y-67600000D01*
X94944675Y-67600000D01*
X94645220Y-67540434D01*
X94345763Y-67480869D01*
X93781599Y-67247185D01*
X93273865Y-66907928D01*
X92842072Y-66476135D01*
X92502815Y-65968401D01*
X92269131Y-65404237D01*
X92150000Y-64805323D01*
X92150000Y-64194677D01*
X92155371Y-64167677D01*
X92269131Y-63595765D01*
X92269131Y-63595763D01*
X92502815Y-63031599D01*
X92842072Y-62523865D01*
X93273865Y-62092072D01*
X93781599Y-61752815D01*
X94345763Y-61519131D01*
X94645220Y-61459566D01*
X94944675Y-61400000D01*
X95555325Y-61400000D01*
X95854780Y-61459566D01*
X95854780Y-61459566D01*
G37*
G36*
X19854780Y-61432565D02*
G01*
X20154237Y-61492131D01*
X20718401Y-61725815D01*
X21226135Y-62065072D01*
X21657928Y-62496865D01*
X21997185Y-63004599D01*
X22230869Y-63568763D01*
X22290435Y-63868220D01*
X22350000Y-64167675D01*
X22350000Y-64778325D01*
X22290434Y-65077780D01*
X22230869Y-65377237D01*
X21997185Y-65941401D01*
X21657928Y-66449135D01*
X21226135Y-66880928D01*
X20718401Y-67220185D01*
X20154237Y-67453869D01*
X19854780Y-67513435D01*
X19555325Y-67573000D01*
X18944675Y-67573000D01*
X18645220Y-67513435D01*
X18345763Y-67453869D01*
X17781599Y-67220185D01*
X17273865Y-66880928D01*
X16842072Y-66449135D01*
X16502815Y-65941401D01*
X16269131Y-65377237D01*
X16209565Y-65077780D01*
X16150000Y-64778325D01*
X16150000Y-64167675D01*
X16209565Y-63868220D01*
X16269131Y-63568763D01*
X16502815Y-63004599D01*
X16842072Y-62496865D01*
X17273865Y-62065072D01*
X17781599Y-61725815D01*
X18345763Y-61492131D01*
X18645220Y-61432565D01*
X18944675Y-61373000D01*
X19555325Y-61373000D01*
X19854780Y-61432565D01*
X19854780Y-61432565D01*
G37*
G36*
X105100026Y-63321115D02*
G01*
X105318411Y-63411573D01*
X105318413Y-63411574D01*
X105514955Y-63542899D01*
X105682101Y-63710045D01*
X105813427Y-63906589D01*
X105903885Y-64124974D01*
X105950000Y-64356809D01*
X105950000Y-64593191D01*
X105903885Y-64825026D01*
X105813427Y-65043411D01*
X105813426Y-65043413D01*
X105682101Y-65239955D01*
X105514955Y-65407101D01*
X105318413Y-65538426D01*
X105318412Y-65538427D01*
X105318411Y-65538427D01*
X105100026Y-65628885D01*
X104868191Y-65675000D01*
X104631809Y-65675000D01*
X104399974Y-65628885D01*
X104181589Y-65538427D01*
X104181588Y-65538427D01*
X104181587Y-65538426D01*
X103985045Y-65407101D01*
X103817899Y-65239955D01*
X103686574Y-65043413D01*
X103686573Y-65043411D01*
X103596115Y-64825026D01*
X103550000Y-64593191D01*
X103550000Y-64356809D01*
X103596115Y-64124974D01*
X103686573Y-63906589D01*
X103817899Y-63710045D01*
X103985045Y-63542899D01*
X104181587Y-63411574D01*
X104181589Y-63411573D01*
X104399974Y-63321115D01*
X104631809Y-63275000D01*
X104868191Y-63275000D01*
X105100026Y-63321115D01*
X105100026Y-63321115D01*
G37*
G36*
X9850026Y-63321115D02*
G01*
X10068411Y-63411573D01*
X10068413Y-63411574D01*
X10264955Y-63542899D01*
X10432101Y-63710045D01*
X10563427Y-63906589D01*
X10653885Y-64124974D01*
X10700000Y-64356809D01*
X10700000Y-64593191D01*
X10653885Y-64825026D01*
X10563427Y-65043411D01*
X10563426Y-65043413D01*
X10432101Y-65239955D01*
X10264955Y-65407101D01*
X10068413Y-65538426D01*
X10068412Y-65538427D01*
X10068411Y-65538427D01*
X9850026Y-65628885D01*
X9618191Y-65675000D01*
X9381809Y-65675000D01*
X9149974Y-65628885D01*
X8931589Y-65538427D01*
X8931588Y-65538427D01*
X8931587Y-65538426D01*
X8735045Y-65407101D01*
X8567899Y-65239955D01*
X8436574Y-65043413D01*
X8436573Y-65043411D01*
X8346115Y-64825026D01*
X8300000Y-64593191D01*
X8300000Y-64356809D01*
X8346115Y-64124974D01*
X8436573Y-63906589D01*
X8567899Y-63710045D01*
X8735045Y-63542899D01*
X8931587Y-63411574D01*
X8931589Y-63411573D01*
X9149974Y-63321115D01*
X9381809Y-63275000D01*
X9618191Y-63275000D01*
X9850026Y-63321115D01*
X9850026Y-63321115D01*
G37*
G36*
X7426703Y-58491486D02*
G01*
X7717883Y-58612097D01*
X7979940Y-58787198D01*
X8202802Y-59010060D01*
X8377903Y-59272117D01*
X8498514Y-59563297D01*
X8560000Y-59872412D01*
X8560000Y-60187588D01*
X8498514Y-60496703D01*
X8377903Y-60787883D01*
X8202802Y-61049940D01*
X7979940Y-61272802D01*
X7717883Y-61447903D01*
X7426703Y-61568514D01*
X7117588Y-61630000D01*
X6802412Y-61630000D01*
X6493297Y-61568514D01*
X6202117Y-61447903D01*
X5940060Y-61272802D01*
X5717198Y-61049940D01*
X5542097Y-60787883D01*
X5421486Y-60496703D01*
X5360000Y-60187588D01*
X5360000Y-59872412D01*
X5421486Y-59563297D01*
X5542097Y-59272117D01*
X5717198Y-59010060D01*
X5940060Y-58787198D01*
X6202117Y-58612097D01*
X6493297Y-58491486D01*
X6802412Y-58430000D01*
X7117588Y-58430000D01*
X7426703Y-58491486D01*
X7426703Y-58491486D01*
G37*
G36*
X83626703Y-58491486D02*
G01*
X83917883Y-58612097D01*
X84179940Y-58787198D01*
X84402802Y-59010060D01*
X84577903Y-59272117D01*
X84698514Y-59563297D01*
X84760000Y-59872412D01*
X84760000Y-60187588D01*
X84698514Y-60496703D01*
X84577903Y-60787883D01*
X84402802Y-61049940D01*
X84179940Y-61272802D01*
X83917883Y-61447903D01*
X83626703Y-61568514D01*
X83317588Y-61630000D01*
X83002412Y-61630000D01*
X82693297Y-61568514D01*
X82402117Y-61447903D01*
X82140060Y-61272802D01*
X81917198Y-61049940D01*
X81742097Y-60787883D01*
X81621486Y-60496703D01*
X81560000Y-60187588D01*
X81560000Y-59872412D01*
X81621486Y-59563297D01*
X81742097Y-59272117D01*
X81917198Y-59010060D01*
X82140060Y-58787198D01*
X82402117Y-58612097D01*
X82693297Y-58491486D01*
X83002412Y-58430000D01*
X83317588Y-58430000D01*
X83626703Y-58491486D01*
X83626703Y-58491486D01*
G37*
G36*
X26476703Y-58491486D02*
G01*
X26767883Y-58612097D01*
X27029940Y-58787198D01*
X27252802Y-59010060D01*
X27427903Y-59272117D01*
X27548514Y-59563297D01*
X27610000Y-59872412D01*
X27610000Y-60187588D01*
X27548514Y-60496703D01*
X27427903Y-60787883D01*
X27252802Y-61049940D01*
X27029940Y-61272802D01*
X26767883Y-61447903D01*
X26476703Y-61568514D01*
X26167588Y-61630000D01*
X25852412Y-61630000D01*
X25543297Y-61568514D01*
X25252117Y-61447903D01*
X24990060Y-61272802D01*
X24767198Y-61049940D01*
X24592097Y-60787883D01*
X24471486Y-60496703D01*
X24410000Y-60187588D01*
X24410000Y-59872412D01*
X24471486Y-59563297D01*
X24592097Y-59272117D01*
X24767198Y-59010060D01*
X24990060Y-58787198D01*
X25252117Y-58612097D01*
X25543297Y-58491486D01*
X25852412Y-58430000D01*
X26167588Y-58430000D01*
X26476703Y-58491486D01*
X26476703Y-58491486D01*
G37*
G36*
X64576703Y-58491486D02*
G01*
X64867883Y-58612097D01*
X65129940Y-58787198D01*
X65352802Y-59010060D01*
X65527903Y-59272117D01*
X65648514Y-59563297D01*
X65710000Y-59872412D01*
X65710000Y-60187588D01*
X65648514Y-60496703D01*
X65527903Y-60787883D01*
X65352802Y-61049940D01*
X65129940Y-61272802D01*
X64867883Y-61447903D01*
X64576703Y-61568514D01*
X64267588Y-61630000D01*
X63952412Y-61630000D01*
X63643297Y-61568514D01*
X63352117Y-61447903D01*
X63090060Y-61272802D01*
X62867198Y-61049940D01*
X62692097Y-60787883D01*
X62571486Y-60496703D01*
X62510000Y-60187588D01*
X62510000Y-59872412D01*
X62571486Y-59563297D01*
X62692097Y-59272117D01*
X62867198Y-59010060D01*
X63090060Y-58787198D01*
X63352117Y-58612097D01*
X63643297Y-58491486D01*
X63952412Y-58430000D01*
X64267588Y-58430000D01*
X64576703Y-58491486D01*
X64576703Y-58491486D01*
G37*
G36*
X102676703Y-58491486D02*
G01*
X102967883Y-58612097D01*
X103229940Y-58787198D01*
X103452802Y-59010060D01*
X103627903Y-59272117D01*
X103748514Y-59563297D01*
X103810000Y-59872412D01*
X103810000Y-60187588D01*
X103748514Y-60496703D01*
X103627903Y-60787883D01*
X103452802Y-61049940D01*
X103229940Y-61272802D01*
X102967883Y-61447903D01*
X102676703Y-61568514D01*
X102367588Y-61630000D01*
X102052412Y-61630000D01*
X101743297Y-61568514D01*
X101452117Y-61447903D01*
X101190060Y-61272802D01*
X100967198Y-61049940D01*
X100792097Y-60787883D01*
X100671486Y-60496703D01*
X100610000Y-60187588D01*
X100610000Y-59872412D01*
X100671486Y-59563297D01*
X100792097Y-59272117D01*
X100967198Y-59010060D01*
X101190060Y-58787198D01*
X101452117Y-58612097D01*
X101743297Y-58491486D01*
X102052412Y-58430000D01*
X102367588Y-58430000D01*
X102676703Y-58491486D01*
X102676703Y-58491486D01*
G37*
G36*
X45526703Y-58491486D02*
G01*
X45817883Y-58612097D01*
X46079940Y-58787198D01*
X46302802Y-59010060D01*
X46477903Y-59272117D01*
X46598514Y-59563297D01*
X46660000Y-59872412D01*
X46660000Y-60187588D01*
X46598514Y-60496703D01*
X46477903Y-60787883D01*
X46302802Y-61049940D01*
X46079940Y-61272802D01*
X45817883Y-61447903D01*
X45526703Y-61568514D01*
X45217588Y-61630000D01*
X44902412Y-61630000D01*
X44593297Y-61568514D01*
X44302117Y-61447903D01*
X44040060Y-61272802D01*
X43817198Y-61049940D01*
X43642097Y-60787883D01*
X43521486Y-60496703D01*
X43460000Y-60187588D01*
X43460000Y-59872412D01*
X43521486Y-59563297D01*
X43642097Y-59272117D01*
X43817198Y-59010060D01*
X44040060Y-58787198D01*
X44302117Y-58612097D01*
X44593297Y-58491486D01*
X44902412Y-58430000D01*
X45217588Y-58430000D01*
X45526703Y-58491486D01*
X45526703Y-58491486D01*
G37*
G36*
X32826703Y-55951486D02*
G01*
X33117883Y-56072097D01*
X33379940Y-56247198D01*
X33602802Y-56470060D01*
X33777903Y-56732117D01*
X33898514Y-57023297D01*
X33960000Y-57332412D01*
X33960000Y-57647588D01*
X33898514Y-57956703D01*
X33777903Y-58247883D01*
X33602802Y-58509940D01*
X33379940Y-58732802D01*
X33117883Y-58907903D01*
X32826703Y-59028514D01*
X32517588Y-59090000D01*
X32202412Y-59090000D01*
X31893297Y-59028514D01*
X31602117Y-58907903D01*
X31340060Y-58732802D01*
X31117198Y-58509940D01*
X30942097Y-58247883D01*
X30821486Y-57956703D01*
X30760000Y-57647588D01*
X30760000Y-57332412D01*
X30821486Y-57023297D01*
X30942097Y-56732117D01*
X31117198Y-56470060D01*
X31340060Y-56247198D01*
X31602117Y-56072097D01*
X31893297Y-55951486D01*
X32202412Y-55890000D01*
X32517588Y-55890000D01*
X32826703Y-55951486D01*
X32826703Y-55951486D01*
G37*
G36*
X51876703Y-55951486D02*
G01*
X52167883Y-56072097D01*
X52429940Y-56247198D01*
X52652802Y-56470060D01*
X52827903Y-56732117D01*
X52948514Y-57023297D01*
X53010000Y-57332412D01*
X53010000Y-57647588D01*
X52948514Y-57956703D01*
X52827903Y-58247883D01*
X52652802Y-58509940D01*
X52429940Y-58732802D01*
X52167883Y-58907903D01*
X51876703Y-59028514D01*
X51567588Y-59090000D01*
X51252412Y-59090000D01*
X50943297Y-59028514D01*
X50652117Y-58907903D01*
X50390060Y-58732802D01*
X50167198Y-58509940D01*
X49992097Y-58247883D01*
X49871486Y-57956703D01*
X49810000Y-57647588D01*
X49810000Y-57332412D01*
X49871486Y-57023297D01*
X49992097Y-56732117D01*
X50167198Y-56470060D01*
X50390060Y-56247198D01*
X50652117Y-56072097D01*
X50943297Y-55951486D01*
X51252412Y-55890000D01*
X51567588Y-55890000D01*
X51876703Y-55951486D01*
X51876703Y-55951486D01*
G37*
G36*
X13776703Y-55951486D02*
G01*
X14067883Y-56072097D01*
X14329940Y-56247198D01*
X14552802Y-56470060D01*
X14727903Y-56732117D01*
X14848514Y-57023297D01*
X14910000Y-57332412D01*
X14910000Y-57647588D01*
X14848514Y-57956703D01*
X14727903Y-58247883D01*
X14552802Y-58509940D01*
X14329940Y-58732802D01*
X14067883Y-58907903D01*
X13776703Y-59028514D01*
X13467588Y-59090000D01*
X13152412Y-59090000D01*
X12843297Y-59028514D01*
X12552117Y-58907903D01*
X12290060Y-58732802D01*
X12067198Y-58509940D01*
X11892097Y-58247883D01*
X11771486Y-57956703D01*
X11710000Y-57647588D01*
X11710000Y-57332412D01*
X11771486Y-57023297D01*
X11892097Y-56732117D01*
X12067198Y-56470060D01*
X12290060Y-56247198D01*
X12552117Y-56072097D01*
X12843297Y-55951486D01*
X13152412Y-55890000D01*
X13467588Y-55890000D01*
X13776703Y-55951486D01*
X13776703Y-55951486D01*
G37*
G36*
X109026703Y-55951486D02*
G01*
X109317883Y-56072097D01*
X109579940Y-56247198D01*
X109802802Y-56470060D01*
X109977903Y-56732117D01*
X110098514Y-57023297D01*
X110160000Y-57332412D01*
X110160000Y-57647588D01*
X110098514Y-57956703D01*
X109977903Y-58247883D01*
X109802802Y-58509940D01*
X109579940Y-58732802D01*
X109317883Y-58907903D01*
X109026703Y-59028514D01*
X108717588Y-59090000D01*
X108402412Y-59090000D01*
X108093297Y-59028514D01*
X107802117Y-58907903D01*
X107540060Y-58732802D01*
X107317198Y-58509940D01*
X107142097Y-58247883D01*
X107021486Y-57956703D01*
X106960000Y-57647588D01*
X106960000Y-57332412D01*
X107021486Y-57023297D01*
X107142097Y-56732117D01*
X107317198Y-56470060D01*
X107540060Y-56247198D01*
X107802117Y-56072097D01*
X108093297Y-55951486D01*
X108402412Y-55890000D01*
X108717588Y-55890000D01*
X109026703Y-55951486D01*
X109026703Y-55951486D01*
G37*
G36*
X89976703Y-55951486D02*
G01*
X90267883Y-56072097D01*
X90529940Y-56247198D01*
X90752802Y-56470060D01*
X90927903Y-56732117D01*
X91048514Y-57023297D01*
X91110000Y-57332412D01*
X91110000Y-57647588D01*
X91048514Y-57956703D01*
X90927903Y-58247883D01*
X90752802Y-58509940D01*
X90529940Y-58732802D01*
X90267883Y-58907903D01*
X89976703Y-59028514D01*
X89667588Y-59090000D01*
X89352412Y-59090000D01*
X89043297Y-59028514D01*
X88752117Y-58907903D01*
X88490060Y-58732802D01*
X88267198Y-58509940D01*
X88092097Y-58247883D01*
X87971486Y-57956703D01*
X87910000Y-57647588D01*
X87910000Y-57332412D01*
X87971486Y-57023297D01*
X88092097Y-56732117D01*
X88267198Y-56470060D01*
X88490060Y-56247198D01*
X88752117Y-56072097D01*
X89043297Y-55951486D01*
X89352412Y-55890000D01*
X89667588Y-55890000D01*
X89976703Y-55951486D01*
X89976703Y-55951486D01*
G37*
G36*
X70926703Y-55951486D02*
G01*
X71217883Y-56072097D01*
X71479940Y-56247198D01*
X71702802Y-56470060D01*
X71877903Y-56732117D01*
X71998514Y-57023297D01*
X72060000Y-57332412D01*
X72060000Y-57647588D01*
X71998514Y-57956703D01*
X71877903Y-58247883D01*
X71702802Y-58509940D01*
X71479940Y-58732802D01*
X71217883Y-58907903D01*
X70926703Y-59028514D01*
X70617588Y-59090000D01*
X70302412Y-59090000D01*
X69993297Y-59028514D01*
X69702117Y-58907903D01*
X69440060Y-58732802D01*
X69217198Y-58509940D01*
X69042097Y-58247883D01*
X68921486Y-57956703D01*
X68860000Y-57647588D01*
X68860000Y-57332412D01*
X68921486Y-57023297D01*
X69042097Y-56732117D01*
X69217198Y-56470060D01*
X69440060Y-56247198D01*
X69702117Y-56072097D01*
X69993297Y-55951486D01*
X70302412Y-55890000D01*
X70617588Y-55890000D01*
X70926703Y-55951486D01*
X70926703Y-55951486D01*
G37*
G36*
X105362546Y-52930701D02*
G01*
X105744721Y-53089003D01*
X105744723Y-53089004D01*
X106088672Y-53318823D01*
X106381177Y-53611328D01*
X106610996Y-53955277D01*
X106610997Y-53955279D01*
X106769299Y-54337454D01*
X106850000Y-54743167D01*
X106850000Y-55156833D01*
X106769299Y-55562546D01*
X106717370Y-55687913D01*
X106610996Y-55944723D01*
X106381177Y-56288672D01*
X106088672Y-56581177D01*
X105744723Y-56810996D01*
X105744722Y-56810997D01*
X105744721Y-56810997D01*
X105362546Y-56969299D01*
X104956833Y-57050000D01*
X104543167Y-57050000D01*
X104137454Y-56969299D01*
X103755279Y-56810997D01*
X103755278Y-56810997D01*
X103755277Y-56810996D01*
X103411328Y-56581177D01*
X103118823Y-56288672D01*
X102889004Y-55944723D01*
X102782630Y-55687913D01*
X102730701Y-55562546D01*
X102650000Y-55156833D01*
X102650000Y-54743167D01*
X102730701Y-54337454D01*
X102889003Y-53955279D01*
X102889004Y-53955277D01*
X103118823Y-53611328D01*
X103411328Y-53318823D01*
X103755277Y-53089004D01*
X103755279Y-53089003D01*
X104137454Y-52930701D01*
X104543167Y-52850000D01*
X104956833Y-52850000D01*
X105362546Y-52930701D01*
X105362546Y-52930701D01*
G37*
G36*
X86312546Y-52930701D02*
G01*
X86694721Y-53089003D01*
X86694723Y-53089004D01*
X87038672Y-53318823D01*
X87331177Y-53611328D01*
X87560996Y-53955277D01*
X87560997Y-53955279D01*
X87719299Y-54337454D01*
X87800000Y-54743167D01*
X87800000Y-55156833D01*
X87719299Y-55562546D01*
X87667370Y-55687913D01*
X87560996Y-55944723D01*
X87331177Y-56288672D01*
X87038672Y-56581177D01*
X86694723Y-56810996D01*
X86694722Y-56810997D01*
X86694721Y-56810997D01*
X86312546Y-56969299D01*
X85906833Y-57050000D01*
X85493167Y-57050000D01*
X85087454Y-56969299D01*
X84705279Y-56810997D01*
X84705278Y-56810997D01*
X84705277Y-56810996D01*
X84361328Y-56581177D01*
X84068823Y-56288672D01*
X83839004Y-55944723D01*
X83732630Y-55687913D01*
X83680701Y-55562546D01*
X83600000Y-55156833D01*
X83600000Y-54743167D01*
X83680701Y-54337454D01*
X83839003Y-53955279D01*
X83839004Y-53955277D01*
X84068823Y-53611328D01*
X84361328Y-53318823D01*
X84705277Y-53089004D01*
X84705279Y-53089003D01*
X85087454Y-52930701D01*
X85493167Y-52850000D01*
X85906833Y-52850000D01*
X86312546Y-52930701D01*
X86312546Y-52930701D01*
G37*
G36*
X48212546Y-52930701D02*
G01*
X48594721Y-53089003D01*
X48594723Y-53089004D01*
X48938672Y-53318823D01*
X49231177Y-53611328D01*
X49460996Y-53955277D01*
X49460997Y-53955279D01*
X49619299Y-54337454D01*
X49700000Y-54743167D01*
X49700000Y-55156833D01*
X49619299Y-55562546D01*
X49567370Y-55687913D01*
X49460996Y-55944723D01*
X49231177Y-56288672D01*
X48938672Y-56581177D01*
X48594723Y-56810996D01*
X48594722Y-56810997D01*
X48594721Y-56810997D01*
X48212546Y-56969299D01*
X47806833Y-57050000D01*
X47393167Y-57050000D01*
X46987454Y-56969299D01*
X46605279Y-56810997D01*
X46605278Y-56810997D01*
X46605277Y-56810996D01*
X46261328Y-56581177D01*
X45968823Y-56288672D01*
X45739004Y-55944723D01*
X45632630Y-55687913D01*
X45580701Y-55562546D01*
X45500000Y-55156833D01*
X45500000Y-54743167D01*
X45580701Y-54337454D01*
X45739003Y-53955279D01*
X45739004Y-53955277D01*
X45968823Y-53611328D01*
X46261328Y-53318823D01*
X46605277Y-53089004D01*
X46605279Y-53089003D01*
X46987454Y-52930701D01*
X47393167Y-52850000D01*
X47806833Y-52850000D01*
X48212546Y-52930701D01*
X48212546Y-52930701D01*
G37*
G36*
X10112546Y-52930701D02*
G01*
X10494721Y-53089003D01*
X10494723Y-53089004D01*
X10838672Y-53318823D01*
X11131177Y-53611328D01*
X11360996Y-53955277D01*
X11360997Y-53955279D01*
X11519299Y-54337454D01*
X11600000Y-54743167D01*
X11600000Y-55156833D01*
X11519299Y-55562546D01*
X11467370Y-55687913D01*
X11360996Y-55944723D01*
X11131177Y-56288672D01*
X10838672Y-56581177D01*
X10494723Y-56810996D01*
X10494722Y-56810997D01*
X10494721Y-56810997D01*
X10112546Y-56969299D01*
X9706833Y-57050000D01*
X9293167Y-57050000D01*
X8887454Y-56969299D01*
X8505279Y-56810997D01*
X8505278Y-56810997D01*
X8505277Y-56810996D01*
X8161328Y-56581177D01*
X7868823Y-56288672D01*
X7639004Y-55944723D01*
X7532630Y-55687913D01*
X7480701Y-55562546D01*
X7400000Y-55156833D01*
X7400000Y-54743167D01*
X7480701Y-54337454D01*
X7639003Y-53955279D01*
X7639004Y-53955277D01*
X7868823Y-53611328D01*
X8161328Y-53318823D01*
X8505277Y-53089004D01*
X8505279Y-53089003D01*
X8887454Y-52930701D01*
X9293167Y-52850000D01*
X9706833Y-52850000D01*
X10112546Y-52930701D01*
X10112546Y-52930701D01*
G37*
G36*
X29162546Y-52930701D02*
G01*
X29544721Y-53089003D01*
X29544723Y-53089004D01*
X29888672Y-53318823D01*
X30181177Y-53611328D01*
X30410996Y-53955277D01*
X30410997Y-53955279D01*
X30569299Y-54337454D01*
X30650000Y-54743167D01*
X30650000Y-55156833D01*
X30569299Y-55562546D01*
X30517370Y-55687913D01*
X30410996Y-55944723D01*
X30181177Y-56288672D01*
X29888672Y-56581177D01*
X29544723Y-56810996D01*
X29544722Y-56810997D01*
X29544721Y-56810997D01*
X29162546Y-56969299D01*
X28756833Y-57050000D01*
X28343167Y-57050000D01*
X27937454Y-56969299D01*
X27555279Y-56810997D01*
X27555278Y-56810997D01*
X27555277Y-56810996D01*
X27211328Y-56581177D01*
X26918823Y-56288672D01*
X26689004Y-55944723D01*
X26582630Y-55687913D01*
X26530701Y-55562546D01*
X26450000Y-55156833D01*
X26450000Y-54743167D01*
X26530701Y-54337454D01*
X26689003Y-53955279D01*
X26689004Y-53955277D01*
X26918823Y-53611328D01*
X27211328Y-53318823D01*
X27555277Y-53089004D01*
X27555279Y-53089003D01*
X27937454Y-52930701D01*
X28343167Y-52850000D01*
X28756833Y-52850000D01*
X29162546Y-52930701D01*
X29162546Y-52930701D01*
G37*
G36*
X67262546Y-52930701D02*
G01*
X67644721Y-53089003D01*
X67644723Y-53089004D01*
X67988672Y-53318823D01*
X68281177Y-53611328D01*
X68510996Y-53955277D01*
X68510997Y-53955279D01*
X68669299Y-54337454D01*
X68750000Y-54743167D01*
X68750000Y-55156833D01*
X68669299Y-55562546D01*
X68617370Y-55687913D01*
X68510996Y-55944723D01*
X68281177Y-56288672D01*
X67988672Y-56581177D01*
X67644723Y-56810996D01*
X67644722Y-56810997D01*
X67644721Y-56810997D01*
X67262546Y-56969299D01*
X66856833Y-57050000D01*
X66443167Y-57050000D01*
X66037454Y-56969299D01*
X65655279Y-56810997D01*
X65655278Y-56810997D01*
X65655277Y-56810996D01*
X65311328Y-56581177D01*
X65018823Y-56288672D01*
X64789004Y-55944723D01*
X64682630Y-55687913D01*
X64630701Y-55562546D01*
X64550000Y-55156833D01*
X64550000Y-54743167D01*
X64630701Y-54337454D01*
X64789003Y-53955279D01*
X64789004Y-53955277D01*
X65018823Y-53611328D01*
X65311328Y-53318823D01*
X65655277Y-53089004D01*
X65655279Y-53089003D01*
X66037454Y-52930701D01*
X66443167Y-52850000D01*
X66856833Y-52850000D01*
X67262546Y-52930701D01*
X67262546Y-52930701D01*
G37*
G36*
X90965336Y-54018254D02*
G01*
X91057105Y-54036508D01*
X91229994Y-54108121D01*
X91385590Y-54212087D01*
X91517913Y-54344410D01*
X91621879Y-54500006D01*
X91693492Y-54672895D01*
X91730000Y-54856433D01*
X91730000Y-55043567D01*
X91693492Y-55227105D01*
X91621879Y-55399994D01*
X91517913Y-55555590D01*
X91385590Y-55687913D01*
X91229994Y-55791879D01*
X91057105Y-55863492D01*
X90965336Y-55881746D01*
X90873568Y-55900000D01*
X90686432Y-55900000D01*
X90594664Y-55881746D01*
X90502895Y-55863492D01*
X90330006Y-55791879D01*
X90174410Y-55687913D01*
X90042087Y-55555590D01*
X89938121Y-55399994D01*
X89866508Y-55227105D01*
X89830000Y-55043567D01*
X89830000Y-54856433D01*
X89866508Y-54672895D01*
X89938121Y-54500006D01*
X90042087Y-54344410D01*
X90174410Y-54212087D01*
X90330006Y-54108121D01*
X90502895Y-54036508D01*
X90594664Y-54018254D01*
X90686432Y-54000000D01*
X90873568Y-54000000D01*
X90965336Y-54018254D01*
X90965336Y-54018254D01*
G37*
G36*
X99855336Y-54018254D02*
G01*
X99947105Y-54036508D01*
X100119994Y-54108121D01*
X100275590Y-54212087D01*
X100407913Y-54344410D01*
X100511879Y-54500006D01*
X100583492Y-54672895D01*
X100620000Y-54856433D01*
X100620000Y-55043567D01*
X100583492Y-55227105D01*
X100511879Y-55399994D01*
X100407913Y-55555590D01*
X100275590Y-55687913D01*
X100119994Y-55791879D01*
X99947105Y-55863492D01*
X99855336Y-55881746D01*
X99763568Y-55900000D01*
X99576432Y-55900000D01*
X99484664Y-55881746D01*
X99392895Y-55863492D01*
X99220006Y-55791879D01*
X99064410Y-55687913D01*
X98932087Y-55555590D01*
X98828121Y-55399994D01*
X98756508Y-55227105D01*
X98720000Y-55043567D01*
X98720000Y-54856433D01*
X98756508Y-54672895D01*
X98828121Y-54500006D01*
X98932087Y-54344410D01*
X99064410Y-54212087D01*
X99220006Y-54108121D01*
X99392895Y-54036508D01*
X99484664Y-54018254D01*
X99576432Y-54000000D01*
X99763568Y-54000000D01*
X99855336Y-54018254D01*
X99855336Y-54018254D01*
G37*
G36*
X42705336Y-54018254D02*
G01*
X42797105Y-54036508D01*
X42969994Y-54108121D01*
X43125590Y-54212087D01*
X43257913Y-54344410D01*
X43361879Y-54500006D01*
X43433492Y-54672895D01*
X43470000Y-54856433D01*
X43470000Y-55043567D01*
X43433492Y-55227105D01*
X43361879Y-55399994D01*
X43257913Y-55555590D01*
X43125590Y-55687913D01*
X42969994Y-55791879D01*
X42797105Y-55863492D01*
X42705336Y-55881746D01*
X42613568Y-55900000D01*
X42426432Y-55900000D01*
X42334664Y-55881746D01*
X42242895Y-55863492D01*
X42070006Y-55791879D01*
X41914410Y-55687913D01*
X41782087Y-55555590D01*
X41678121Y-55399994D01*
X41606508Y-55227105D01*
X41570000Y-55043567D01*
X41570000Y-54856433D01*
X41606508Y-54672895D01*
X41678121Y-54500006D01*
X41782087Y-54344410D01*
X41914410Y-54212087D01*
X42070006Y-54108121D01*
X42242895Y-54036508D01*
X42334664Y-54018254D01*
X42426432Y-54000000D01*
X42613568Y-54000000D01*
X42705336Y-54018254D01*
X42705336Y-54018254D01*
G37*
G36*
X110015336Y-54018254D02*
G01*
X110107105Y-54036508D01*
X110279994Y-54108121D01*
X110435590Y-54212087D01*
X110567913Y-54344410D01*
X110671879Y-54500006D01*
X110743492Y-54672895D01*
X110780000Y-54856433D01*
X110780000Y-55043567D01*
X110743492Y-55227105D01*
X110671879Y-55399994D01*
X110567913Y-55555590D01*
X110435590Y-55687913D01*
X110279994Y-55791879D01*
X110107105Y-55863492D01*
X110015336Y-55881746D01*
X109923568Y-55900000D01*
X109736432Y-55900000D01*
X109644664Y-55881746D01*
X109552895Y-55863492D01*
X109380006Y-55791879D01*
X109224410Y-55687913D01*
X109092087Y-55555590D01*
X108988121Y-55399994D01*
X108916508Y-55227105D01*
X108880000Y-55043567D01*
X108880000Y-54856433D01*
X108916508Y-54672895D01*
X108988121Y-54500006D01*
X109092087Y-54344410D01*
X109224410Y-54212087D01*
X109380006Y-54108121D01*
X109552895Y-54036508D01*
X109644664Y-54018254D01*
X109736432Y-54000000D01*
X109923568Y-54000000D01*
X110015336Y-54018254D01*
X110015336Y-54018254D01*
G37*
G36*
X4605336Y-54018254D02*
G01*
X4697105Y-54036508D01*
X4869994Y-54108121D01*
X5025590Y-54212087D01*
X5157913Y-54344410D01*
X5261879Y-54500006D01*
X5333492Y-54672895D01*
X5370000Y-54856433D01*
X5370000Y-55043567D01*
X5333492Y-55227105D01*
X5261879Y-55399994D01*
X5157913Y-55555590D01*
X5025590Y-55687913D01*
X4869994Y-55791879D01*
X4697105Y-55863492D01*
X4605336Y-55881746D01*
X4513568Y-55900000D01*
X4326432Y-55900000D01*
X4234664Y-55881746D01*
X4142895Y-55863492D01*
X3970006Y-55791879D01*
X3814410Y-55687913D01*
X3682087Y-55555590D01*
X3578121Y-55399994D01*
X3506508Y-55227105D01*
X3470000Y-55043567D01*
X3470000Y-54856433D01*
X3506508Y-54672895D01*
X3578121Y-54500006D01*
X3682087Y-54344410D01*
X3814410Y-54212087D01*
X3970006Y-54108121D01*
X4142895Y-54036508D01*
X4234664Y-54018254D01*
X4326432Y-54000000D01*
X4513568Y-54000000D01*
X4605336Y-54018254D01*
X4605336Y-54018254D01*
G37*
G36*
X14765336Y-54018254D02*
G01*
X14857105Y-54036508D01*
X15029994Y-54108121D01*
X15185590Y-54212087D01*
X15317913Y-54344410D01*
X15421879Y-54500006D01*
X15493492Y-54672895D01*
X15530000Y-54856433D01*
X15530000Y-55043567D01*
X15493492Y-55227105D01*
X15421879Y-55399994D01*
X15317913Y-55555590D01*
X15185590Y-55687913D01*
X15029994Y-55791879D01*
X14857105Y-55863492D01*
X14765336Y-55881746D01*
X14673568Y-55900000D01*
X14486432Y-55900000D01*
X14394664Y-55881746D01*
X14302895Y-55863492D01*
X14130006Y-55791879D01*
X13974410Y-55687913D01*
X13842087Y-55555590D01*
X13738121Y-55399994D01*
X13666508Y-55227105D01*
X13630000Y-55043567D01*
X13630000Y-54856433D01*
X13666508Y-54672895D01*
X13738121Y-54500006D01*
X13842087Y-54344410D01*
X13974410Y-54212087D01*
X14130006Y-54108121D01*
X14302895Y-54036508D01*
X14394664Y-54018254D01*
X14486432Y-54000000D01*
X14673568Y-54000000D01*
X14765336Y-54018254D01*
X14765336Y-54018254D01*
G37*
G36*
X52865336Y-54018254D02*
G01*
X52957105Y-54036508D01*
X53129994Y-54108121D01*
X53285590Y-54212087D01*
X53417913Y-54344410D01*
X53521879Y-54500006D01*
X53593492Y-54672895D01*
X53630000Y-54856433D01*
X53630000Y-55043567D01*
X53593492Y-55227105D01*
X53521879Y-55399994D01*
X53417913Y-55555590D01*
X53285590Y-55687913D01*
X53129994Y-55791879D01*
X52957105Y-55863492D01*
X52865336Y-55881746D01*
X52773568Y-55900000D01*
X52586432Y-55900000D01*
X52494664Y-55881746D01*
X52402895Y-55863492D01*
X52230006Y-55791879D01*
X52074410Y-55687913D01*
X51942087Y-55555590D01*
X51838121Y-55399994D01*
X51766508Y-55227105D01*
X51730000Y-55043567D01*
X51730000Y-54856433D01*
X51766508Y-54672895D01*
X51838121Y-54500006D01*
X51942087Y-54344410D01*
X52074410Y-54212087D01*
X52230006Y-54108121D01*
X52402895Y-54036508D01*
X52494664Y-54018254D01*
X52586432Y-54000000D01*
X52773568Y-54000000D01*
X52865336Y-54018254D01*
X52865336Y-54018254D01*
G37*
G36*
X61755336Y-54018254D02*
G01*
X61847105Y-54036508D01*
X62019994Y-54108121D01*
X62175590Y-54212087D01*
X62307913Y-54344410D01*
X62411879Y-54500006D01*
X62483492Y-54672895D01*
X62520000Y-54856433D01*
X62520000Y-55043567D01*
X62483492Y-55227105D01*
X62411879Y-55399994D01*
X62307913Y-55555590D01*
X62175590Y-55687913D01*
X62019994Y-55791879D01*
X61847105Y-55863492D01*
X61755336Y-55881746D01*
X61663568Y-55900000D01*
X61476432Y-55900000D01*
X61384664Y-55881746D01*
X61292895Y-55863492D01*
X61120006Y-55791879D01*
X60964410Y-55687913D01*
X60832087Y-55555590D01*
X60728121Y-55399994D01*
X60656508Y-55227105D01*
X60620000Y-55043567D01*
X60620000Y-54856433D01*
X60656508Y-54672895D01*
X60728121Y-54500006D01*
X60832087Y-54344410D01*
X60964410Y-54212087D01*
X61120006Y-54108121D01*
X61292895Y-54036508D01*
X61384664Y-54018254D01*
X61476432Y-54000000D01*
X61663568Y-54000000D01*
X61755336Y-54018254D01*
X61755336Y-54018254D01*
G37*
G36*
X71915336Y-54018254D02*
G01*
X72007105Y-54036508D01*
X72179994Y-54108121D01*
X72335590Y-54212087D01*
X72467913Y-54344410D01*
X72571879Y-54500006D01*
X72643492Y-54672895D01*
X72680000Y-54856433D01*
X72680000Y-55043567D01*
X72643492Y-55227105D01*
X72571879Y-55399994D01*
X72467913Y-55555590D01*
X72335590Y-55687913D01*
X72179994Y-55791879D01*
X72007105Y-55863492D01*
X71915336Y-55881746D01*
X71823568Y-55900000D01*
X71636432Y-55900000D01*
X71544664Y-55881746D01*
X71452895Y-55863492D01*
X71280006Y-55791879D01*
X71124410Y-55687913D01*
X70992087Y-55555590D01*
X70888121Y-55399994D01*
X70816508Y-55227105D01*
X70780000Y-55043567D01*
X70780000Y-54856433D01*
X70816508Y-54672895D01*
X70888121Y-54500006D01*
X70992087Y-54344410D01*
X71124410Y-54212087D01*
X71280006Y-54108121D01*
X71452895Y-54036508D01*
X71544664Y-54018254D01*
X71636432Y-54000000D01*
X71823568Y-54000000D01*
X71915336Y-54018254D01*
X71915336Y-54018254D01*
G37*
G36*
X80805336Y-54018254D02*
G01*
X80897105Y-54036508D01*
X81069994Y-54108121D01*
X81225590Y-54212087D01*
X81357913Y-54344410D01*
X81461879Y-54500006D01*
X81533492Y-54672895D01*
X81570000Y-54856433D01*
X81570000Y-55043567D01*
X81533492Y-55227105D01*
X81461879Y-55399994D01*
X81357913Y-55555590D01*
X81225590Y-55687913D01*
X81069994Y-55791879D01*
X80897105Y-55863492D01*
X80805336Y-55881746D01*
X80713568Y-55900000D01*
X80526432Y-55900000D01*
X80434664Y-55881746D01*
X80342895Y-55863492D01*
X80170006Y-55791879D01*
X80014410Y-55687913D01*
X79882087Y-55555590D01*
X79778121Y-55399994D01*
X79706508Y-55227105D01*
X79670000Y-55043567D01*
X79670000Y-54856433D01*
X79706508Y-54672895D01*
X79778121Y-54500006D01*
X79882087Y-54344410D01*
X80014410Y-54212087D01*
X80170006Y-54108121D01*
X80342895Y-54036508D01*
X80434664Y-54018254D01*
X80526432Y-54000000D01*
X80713568Y-54000000D01*
X80805336Y-54018254D01*
X80805336Y-54018254D01*
G37*
G36*
X23655336Y-54018254D02*
G01*
X23747105Y-54036508D01*
X23919994Y-54108121D01*
X24075590Y-54212087D01*
X24207913Y-54344410D01*
X24311879Y-54500006D01*
X24383492Y-54672895D01*
X24420000Y-54856433D01*
X24420000Y-55043567D01*
X24383492Y-55227105D01*
X24311879Y-55399994D01*
X24207913Y-55555590D01*
X24075590Y-55687913D01*
X23919994Y-55791879D01*
X23747105Y-55863492D01*
X23655336Y-55881746D01*
X23563568Y-55900000D01*
X23376432Y-55900000D01*
X23284664Y-55881746D01*
X23192895Y-55863492D01*
X23020006Y-55791879D01*
X22864410Y-55687913D01*
X22732087Y-55555590D01*
X22628121Y-55399994D01*
X22556508Y-55227105D01*
X22520000Y-55043567D01*
X22520000Y-54856433D01*
X22556508Y-54672895D01*
X22628121Y-54500006D01*
X22732087Y-54344410D01*
X22864410Y-54212087D01*
X23020006Y-54108121D01*
X23192895Y-54036508D01*
X23284664Y-54018254D01*
X23376432Y-54000000D01*
X23563568Y-54000000D01*
X23655336Y-54018254D01*
X23655336Y-54018254D01*
G37*
G36*
X33815336Y-54018254D02*
G01*
X33907105Y-54036508D01*
X34079994Y-54108121D01*
X34235590Y-54212087D01*
X34367913Y-54344410D01*
X34471879Y-54500006D01*
X34543492Y-54672895D01*
X34580000Y-54856433D01*
X34580000Y-55043567D01*
X34543492Y-55227105D01*
X34471879Y-55399994D01*
X34367913Y-55555590D01*
X34235590Y-55687913D01*
X34079994Y-55791879D01*
X33907105Y-55863492D01*
X33815336Y-55881746D01*
X33723568Y-55900000D01*
X33536432Y-55900000D01*
X33444664Y-55881746D01*
X33352895Y-55863492D01*
X33180006Y-55791879D01*
X33024410Y-55687913D01*
X32892087Y-55555590D01*
X32788121Y-55399994D01*
X32716508Y-55227105D01*
X32680000Y-55043567D01*
X32680000Y-54856433D01*
X32716508Y-54672895D01*
X32788121Y-54500006D01*
X32892087Y-54344410D01*
X33024410Y-54212087D01*
X33180006Y-54108121D01*
X33352895Y-54036508D01*
X33444664Y-54018254D01*
X33536432Y-54000000D01*
X33723568Y-54000000D01*
X33815336Y-54018254D01*
X33815336Y-54018254D01*
G37*
G36*
X83626703Y-39441486D02*
G01*
X83917883Y-39562097D01*
X84179940Y-39737198D01*
X84402802Y-39960060D01*
X84577903Y-40222117D01*
X84698514Y-40513297D01*
X84760000Y-40822412D01*
X84760000Y-41137588D01*
X84698514Y-41446703D01*
X84577903Y-41737883D01*
X84402802Y-41999940D01*
X84179940Y-42222802D01*
X83917883Y-42397903D01*
X83626703Y-42518514D01*
X83317588Y-42580000D01*
X83002412Y-42580000D01*
X82693297Y-42518514D01*
X82402117Y-42397903D01*
X82140060Y-42222802D01*
X81917198Y-41999940D01*
X81742097Y-41737883D01*
X81621486Y-41446703D01*
X81560000Y-41137588D01*
X81560000Y-40822412D01*
X81621486Y-40513297D01*
X81742097Y-40222117D01*
X81917198Y-39960060D01*
X82140060Y-39737198D01*
X82402117Y-39562097D01*
X82693297Y-39441486D01*
X83002412Y-39380000D01*
X83317588Y-39380000D01*
X83626703Y-39441486D01*
X83626703Y-39441486D01*
G37*
G36*
X64576703Y-39441486D02*
G01*
X64867883Y-39562097D01*
X65129940Y-39737198D01*
X65352802Y-39960060D01*
X65527903Y-40222117D01*
X65648514Y-40513297D01*
X65710000Y-40822412D01*
X65710000Y-41137588D01*
X65648514Y-41446703D01*
X65527903Y-41737883D01*
X65352802Y-41999940D01*
X65129940Y-42222802D01*
X64867883Y-42397903D01*
X64576703Y-42518514D01*
X64267588Y-42580000D01*
X63952412Y-42580000D01*
X63643297Y-42518514D01*
X63352117Y-42397903D01*
X63090060Y-42222802D01*
X62867198Y-41999940D01*
X62692097Y-41737883D01*
X62571486Y-41446703D01*
X62510000Y-41137588D01*
X62510000Y-40822412D01*
X62571486Y-40513297D01*
X62692097Y-40222117D01*
X62867198Y-39960060D01*
X63090060Y-39737198D01*
X63352117Y-39562097D01*
X63643297Y-39441486D01*
X63952412Y-39380000D01*
X64267588Y-39380000D01*
X64576703Y-39441486D01*
X64576703Y-39441486D01*
G37*
G36*
X26476703Y-39441486D02*
G01*
X26767883Y-39562097D01*
X27029940Y-39737198D01*
X27252802Y-39960060D01*
X27427903Y-40222117D01*
X27548514Y-40513297D01*
X27610000Y-40822412D01*
X27610000Y-41137588D01*
X27548514Y-41446703D01*
X27427903Y-41737883D01*
X27252802Y-41999940D01*
X27029940Y-42222802D01*
X26767883Y-42397903D01*
X26476703Y-42518514D01*
X26167588Y-42580000D01*
X25852412Y-42580000D01*
X25543297Y-42518514D01*
X25252117Y-42397903D01*
X24990060Y-42222802D01*
X24767198Y-41999940D01*
X24592097Y-41737883D01*
X24471486Y-41446703D01*
X24410000Y-41137588D01*
X24410000Y-40822412D01*
X24471486Y-40513297D01*
X24592097Y-40222117D01*
X24767198Y-39960060D01*
X24990060Y-39737198D01*
X25252117Y-39562097D01*
X25543297Y-39441486D01*
X25852412Y-39380000D01*
X26167588Y-39380000D01*
X26476703Y-39441486D01*
X26476703Y-39441486D01*
G37*
G36*
X45526703Y-39441486D02*
G01*
X45817883Y-39562097D01*
X46079940Y-39737198D01*
X46302802Y-39960060D01*
X46477903Y-40222117D01*
X46598514Y-40513297D01*
X46660000Y-40822412D01*
X46660000Y-41137588D01*
X46598514Y-41446703D01*
X46477903Y-41737883D01*
X46302802Y-41999940D01*
X46079940Y-42222802D01*
X45817883Y-42397903D01*
X45526703Y-42518514D01*
X45217588Y-42580000D01*
X44902412Y-42580000D01*
X44593297Y-42518514D01*
X44302117Y-42397903D01*
X44040060Y-42222802D01*
X43817198Y-41999940D01*
X43642097Y-41737883D01*
X43521486Y-41446703D01*
X43460000Y-41137588D01*
X43460000Y-40822412D01*
X43521486Y-40513297D01*
X43642097Y-40222117D01*
X43817198Y-39960060D01*
X44040060Y-39737198D01*
X44302117Y-39562097D01*
X44593297Y-39441486D01*
X44902412Y-39380000D01*
X45217588Y-39380000D01*
X45526703Y-39441486D01*
X45526703Y-39441486D01*
G37*
G36*
X102676703Y-39441486D02*
G01*
X102967883Y-39562097D01*
X103229940Y-39737198D01*
X103452802Y-39960060D01*
X103627903Y-40222117D01*
X103748514Y-40513297D01*
X103810000Y-40822412D01*
X103810000Y-41137588D01*
X103748514Y-41446703D01*
X103627903Y-41737883D01*
X103452802Y-41999940D01*
X103229940Y-42222802D01*
X102967883Y-42397903D01*
X102676703Y-42518514D01*
X102367588Y-42580000D01*
X102052412Y-42580000D01*
X101743297Y-42518514D01*
X101452117Y-42397903D01*
X101190060Y-42222802D01*
X100967198Y-41999940D01*
X100792097Y-41737883D01*
X100671486Y-41446703D01*
X100610000Y-41137588D01*
X100610000Y-40822412D01*
X100671486Y-40513297D01*
X100792097Y-40222117D01*
X100967198Y-39960060D01*
X101190060Y-39737198D01*
X101452117Y-39562097D01*
X101743297Y-39441486D01*
X102052412Y-39380000D01*
X102367588Y-39380000D01*
X102676703Y-39441486D01*
X102676703Y-39441486D01*
G37*
G36*
X7426703Y-39441486D02*
G01*
X7717883Y-39562097D01*
X7979940Y-39737198D01*
X8202802Y-39960060D01*
X8377903Y-40222117D01*
X8498514Y-40513297D01*
X8560000Y-40822412D01*
X8560000Y-41137588D01*
X8498514Y-41446703D01*
X8377903Y-41737883D01*
X8202802Y-41999940D01*
X7979940Y-42222802D01*
X7717883Y-42397903D01*
X7426703Y-42518514D01*
X7117588Y-42580000D01*
X6802412Y-42580000D01*
X6493297Y-42518514D01*
X6202117Y-42397903D01*
X5940060Y-42222802D01*
X5717198Y-41999940D01*
X5542097Y-41737883D01*
X5421486Y-41446703D01*
X5360000Y-41137588D01*
X5360000Y-40822412D01*
X5421486Y-40513297D01*
X5542097Y-40222117D01*
X5717198Y-39960060D01*
X5940060Y-39737198D01*
X6202117Y-39562097D01*
X6493297Y-39441486D01*
X6802412Y-39380000D01*
X7117588Y-39380000D01*
X7426703Y-39441486D01*
X7426703Y-39441486D01*
G37*
G36*
X109026703Y-36901486D02*
G01*
X109317883Y-37022097D01*
X109579940Y-37197198D01*
X109802802Y-37420060D01*
X109977903Y-37682117D01*
X110098514Y-37973297D01*
X110160000Y-38282412D01*
X110160000Y-38597588D01*
X110098514Y-38906703D01*
X109977903Y-39197883D01*
X109802802Y-39459940D01*
X109579940Y-39682802D01*
X109317883Y-39857903D01*
X109026703Y-39978514D01*
X108717588Y-40040000D01*
X108402412Y-40040000D01*
X108093297Y-39978514D01*
X107802117Y-39857903D01*
X107540060Y-39682802D01*
X107317198Y-39459940D01*
X107142097Y-39197883D01*
X107021486Y-38906703D01*
X106960000Y-38597588D01*
X106960000Y-38282412D01*
X107021486Y-37973297D01*
X107142097Y-37682117D01*
X107317198Y-37420060D01*
X107540060Y-37197198D01*
X107802117Y-37022097D01*
X108093297Y-36901486D01*
X108402412Y-36840000D01*
X108717588Y-36840000D01*
X109026703Y-36901486D01*
X109026703Y-36901486D01*
G37*
G36*
X89976703Y-36901486D02*
G01*
X90267883Y-37022097D01*
X90529940Y-37197198D01*
X90752802Y-37420060D01*
X90927903Y-37682117D01*
X91048514Y-37973297D01*
X91110000Y-38282412D01*
X91110000Y-38597588D01*
X91048514Y-38906703D01*
X90927903Y-39197883D01*
X90752802Y-39459940D01*
X90529940Y-39682802D01*
X90267883Y-39857903D01*
X89976703Y-39978514D01*
X89667588Y-40040000D01*
X89352412Y-40040000D01*
X89043297Y-39978514D01*
X88752117Y-39857903D01*
X88490060Y-39682802D01*
X88267198Y-39459940D01*
X88092097Y-39197883D01*
X87971486Y-38906703D01*
X87910000Y-38597588D01*
X87910000Y-38282412D01*
X87971486Y-37973297D01*
X88092097Y-37682117D01*
X88267198Y-37420060D01*
X88490060Y-37197198D01*
X88752117Y-37022097D01*
X89043297Y-36901486D01*
X89352412Y-36840000D01*
X89667588Y-36840000D01*
X89976703Y-36901486D01*
X89976703Y-36901486D01*
G37*
G36*
X70926703Y-36901486D02*
G01*
X71217883Y-37022097D01*
X71479940Y-37197198D01*
X71702802Y-37420060D01*
X71877903Y-37682117D01*
X71998514Y-37973297D01*
X72060000Y-38282412D01*
X72060000Y-38597588D01*
X71998514Y-38906703D01*
X71877903Y-39197883D01*
X71702802Y-39459940D01*
X71479940Y-39682802D01*
X71217883Y-39857903D01*
X70926703Y-39978514D01*
X70617588Y-40040000D01*
X70302412Y-40040000D01*
X69993297Y-39978514D01*
X69702117Y-39857903D01*
X69440060Y-39682802D01*
X69217198Y-39459940D01*
X69042097Y-39197883D01*
X68921486Y-38906703D01*
X68860000Y-38597588D01*
X68860000Y-38282412D01*
X68921486Y-37973297D01*
X69042097Y-37682117D01*
X69217198Y-37420060D01*
X69440060Y-37197198D01*
X69702117Y-37022097D01*
X69993297Y-36901486D01*
X70302412Y-36840000D01*
X70617588Y-36840000D01*
X70926703Y-36901486D01*
X70926703Y-36901486D01*
G37*
G36*
X13776703Y-36901486D02*
G01*
X14067883Y-37022097D01*
X14329940Y-37197198D01*
X14552802Y-37420060D01*
X14727903Y-37682117D01*
X14848514Y-37973297D01*
X14910000Y-38282412D01*
X14910000Y-38597588D01*
X14848514Y-38906703D01*
X14727903Y-39197883D01*
X14552802Y-39459940D01*
X14329940Y-39682802D01*
X14067883Y-39857903D01*
X13776703Y-39978514D01*
X13467588Y-40040000D01*
X13152412Y-40040000D01*
X12843297Y-39978514D01*
X12552117Y-39857903D01*
X12290060Y-39682802D01*
X12067198Y-39459940D01*
X11892097Y-39197883D01*
X11771486Y-38906703D01*
X11710000Y-38597588D01*
X11710000Y-38282412D01*
X11771486Y-37973297D01*
X11892097Y-37682117D01*
X12067198Y-37420060D01*
X12290060Y-37197198D01*
X12552117Y-37022097D01*
X12843297Y-36901486D01*
X13152412Y-36840000D01*
X13467588Y-36840000D01*
X13776703Y-36901486D01*
X13776703Y-36901486D01*
G37*
G36*
X32826703Y-36901486D02*
G01*
X33117883Y-37022097D01*
X33379940Y-37197198D01*
X33602802Y-37420060D01*
X33777903Y-37682117D01*
X33898514Y-37973297D01*
X33960000Y-38282412D01*
X33960000Y-38597588D01*
X33898514Y-38906703D01*
X33777903Y-39197883D01*
X33602802Y-39459940D01*
X33379940Y-39682802D01*
X33117883Y-39857903D01*
X32826703Y-39978514D01*
X32517588Y-40040000D01*
X32202412Y-40040000D01*
X31893297Y-39978514D01*
X31602117Y-39857903D01*
X31340060Y-39682802D01*
X31117198Y-39459940D01*
X30942097Y-39197883D01*
X30821486Y-38906703D01*
X30760000Y-38597588D01*
X30760000Y-38282412D01*
X30821486Y-37973297D01*
X30942097Y-37682117D01*
X31117198Y-37420060D01*
X31340060Y-37197198D01*
X31602117Y-37022097D01*
X31893297Y-36901486D01*
X32202412Y-36840000D01*
X32517588Y-36840000D01*
X32826703Y-36901486D01*
X32826703Y-36901486D01*
G37*
G36*
X51876703Y-36901486D02*
G01*
X52167883Y-37022097D01*
X52429940Y-37197198D01*
X52652802Y-37420060D01*
X52827903Y-37682117D01*
X52948514Y-37973297D01*
X53010000Y-38282412D01*
X53010000Y-38597588D01*
X52948514Y-38906703D01*
X52827903Y-39197883D01*
X52652802Y-39459940D01*
X52429940Y-39682802D01*
X52167883Y-39857903D01*
X51876703Y-39978514D01*
X51567588Y-40040000D01*
X51252412Y-40040000D01*
X50943297Y-39978514D01*
X50652117Y-39857903D01*
X50390060Y-39682802D01*
X50167198Y-39459940D01*
X49992097Y-39197883D01*
X49871486Y-38906703D01*
X49810000Y-38597588D01*
X49810000Y-38282412D01*
X49871486Y-37973297D01*
X49992097Y-37682117D01*
X50167198Y-37420060D01*
X50390060Y-37197198D01*
X50652117Y-37022097D01*
X50943297Y-36901486D01*
X51252412Y-36840000D01*
X51567588Y-36840000D01*
X51876703Y-36901486D01*
X51876703Y-36901486D01*
G37*
G36*
X67262546Y-33880701D02*
G01*
X67644721Y-34039003D01*
X67644723Y-34039004D01*
X67988672Y-34268823D01*
X68281177Y-34561328D01*
X68510996Y-34905277D01*
X68510997Y-34905279D01*
X68669299Y-35287454D01*
X68750000Y-35693167D01*
X68750000Y-36106833D01*
X68669299Y-36512546D01*
X68617370Y-36637913D01*
X68510996Y-36894723D01*
X68281177Y-37238672D01*
X67988672Y-37531177D01*
X67644723Y-37760996D01*
X67644722Y-37760997D01*
X67644721Y-37760997D01*
X67262546Y-37919299D01*
X66856833Y-38000000D01*
X66443167Y-38000000D01*
X66037454Y-37919299D01*
X65655279Y-37760997D01*
X65655278Y-37760997D01*
X65655277Y-37760996D01*
X65311328Y-37531177D01*
X65018823Y-37238672D01*
X64789004Y-36894723D01*
X64682630Y-36637913D01*
X64630701Y-36512546D01*
X64550000Y-36106833D01*
X64550000Y-35693167D01*
X64630701Y-35287454D01*
X64789003Y-34905279D01*
X64789004Y-34905277D01*
X65018823Y-34561328D01*
X65311328Y-34268823D01*
X65655277Y-34039004D01*
X65655279Y-34039003D01*
X66037454Y-33880701D01*
X66443167Y-33800000D01*
X66856833Y-33800000D01*
X67262546Y-33880701D01*
X67262546Y-33880701D01*
G37*
G36*
X86312546Y-33880701D02*
G01*
X86694721Y-34039003D01*
X86694723Y-34039004D01*
X87038672Y-34268823D01*
X87331177Y-34561328D01*
X87560996Y-34905277D01*
X87560997Y-34905279D01*
X87719299Y-35287454D01*
X87800000Y-35693167D01*
X87800000Y-36106833D01*
X87719299Y-36512546D01*
X87667370Y-36637913D01*
X87560996Y-36894723D01*
X87331177Y-37238672D01*
X87038672Y-37531177D01*
X86694723Y-37760996D01*
X86694722Y-37760997D01*
X86694721Y-37760997D01*
X86312546Y-37919299D01*
X85906833Y-38000000D01*
X85493167Y-38000000D01*
X85087454Y-37919299D01*
X84705279Y-37760997D01*
X84705278Y-37760997D01*
X84705277Y-37760996D01*
X84361328Y-37531177D01*
X84068823Y-37238672D01*
X83839004Y-36894723D01*
X83732630Y-36637913D01*
X83680701Y-36512546D01*
X83600000Y-36106833D01*
X83600000Y-35693167D01*
X83680701Y-35287454D01*
X83839003Y-34905279D01*
X83839004Y-34905277D01*
X84068823Y-34561328D01*
X84361328Y-34268823D01*
X84705277Y-34039004D01*
X84705279Y-34039003D01*
X85087454Y-33880701D01*
X85493167Y-33800000D01*
X85906833Y-33800000D01*
X86312546Y-33880701D01*
X86312546Y-33880701D01*
G37*
G36*
X29162546Y-33880701D02*
G01*
X29544721Y-34039003D01*
X29544723Y-34039004D01*
X29888672Y-34268823D01*
X30181177Y-34561328D01*
X30410996Y-34905277D01*
X30410997Y-34905279D01*
X30569299Y-35287454D01*
X30650000Y-35693167D01*
X30650000Y-36106833D01*
X30569299Y-36512546D01*
X30517370Y-36637913D01*
X30410996Y-36894723D01*
X30181177Y-37238672D01*
X29888672Y-37531177D01*
X29544723Y-37760996D01*
X29544722Y-37760997D01*
X29544721Y-37760997D01*
X29162546Y-37919299D01*
X28756833Y-38000000D01*
X28343167Y-38000000D01*
X27937454Y-37919299D01*
X27555279Y-37760997D01*
X27555278Y-37760997D01*
X27555277Y-37760996D01*
X27211328Y-37531177D01*
X26918823Y-37238672D01*
X26689004Y-36894723D01*
X26582630Y-36637913D01*
X26530701Y-36512546D01*
X26450000Y-36106833D01*
X26450000Y-35693167D01*
X26530701Y-35287454D01*
X26689003Y-34905279D01*
X26689004Y-34905277D01*
X26918823Y-34561328D01*
X27211328Y-34268823D01*
X27555277Y-34039004D01*
X27555279Y-34039003D01*
X27937454Y-33880701D01*
X28343167Y-33800000D01*
X28756833Y-33800000D01*
X29162546Y-33880701D01*
X29162546Y-33880701D01*
G37*
G36*
X10112546Y-33880701D02*
G01*
X10494721Y-34039003D01*
X10494723Y-34039004D01*
X10838672Y-34268823D01*
X11131177Y-34561328D01*
X11360996Y-34905277D01*
X11360997Y-34905279D01*
X11519299Y-35287454D01*
X11600000Y-35693167D01*
X11600000Y-36106833D01*
X11519299Y-36512546D01*
X11467370Y-36637913D01*
X11360996Y-36894723D01*
X11131177Y-37238672D01*
X10838672Y-37531177D01*
X10494723Y-37760996D01*
X10494722Y-37760997D01*
X10494721Y-37760997D01*
X10112546Y-37919299D01*
X9706833Y-38000000D01*
X9293167Y-38000000D01*
X8887454Y-37919299D01*
X8505279Y-37760997D01*
X8505278Y-37760997D01*
X8505277Y-37760996D01*
X8161328Y-37531177D01*
X7868823Y-37238672D01*
X7639004Y-36894723D01*
X7532630Y-36637913D01*
X7480701Y-36512546D01*
X7400000Y-36106833D01*
X7400000Y-35693167D01*
X7480701Y-35287454D01*
X7639003Y-34905279D01*
X7639004Y-34905277D01*
X7868823Y-34561328D01*
X8161328Y-34268823D01*
X8505277Y-34039004D01*
X8505279Y-34039003D01*
X8887454Y-33880701D01*
X9293167Y-33800000D01*
X9706833Y-33800000D01*
X10112546Y-33880701D01*
X10112546Y-33880701D01*
G37*
G36*
X48212546Y-33880701D02*
G01*
X48594721Y-34039003D01*
X48594723Y-34039004D01*
X48938672Y-34268823D01*
X49231177Y-34561328D01*
X49460996Y-34905277D01*
X49460997Y-34905279D01*
X49619299Y-35287454D01*
X49700000Y-35693167D01*
X49700000Y-36106833D01*
X49619299Y-36512546D01*
X49567370Y-36637913D01*
X49460996Y-36894723D01*
X49231177Y-37238672D01*
X48938672Y-37531177D01*
X48594723Y-37760996D01*
X48594722Y-37760997D01*
X48594721Y-37760997D01*
X48212546Y-37919299D01*
X47806833Y-38000000D01*
X47393167Y-38000000D01*
X46987454Y-37919299D01*
X46605279Y-37760997D01*
X46605278Y-37760997D01*
X46605277Y-37760996D01*
X46261328Y-37531177D01*
X45968823Y-37238672D01*
X45739004Y-36894723D01*
X45632630Y-36637913D01*
X45580701Y-36512546D01*
X45500000Y-36106833D01*
X45500000Y-35693167D01*
X45580701Y-35287454D01*
X45739003Y-34905279D01*
X45739004Y-34905277D01*
X45968823Y-34561328D01*
X46261328Y-34268823D01*
X46605277Y-34039004D01*
X46605279Y-34039003D01*
X46987454Y-33880701D01*
X47393167Y-33800000D01*
X47806833Y-33800000D01*
X48212546Y-33880701D01*
X48212546Y-33880701D01*
G37*
G36*
X105362546Y-33880701D02*
G01*
X105744721Y-34039003D01*
X105744723Y-34039004D01*
X106088672Y-34268823D01*
X106381177Y-34561328D01*
X106610996Y-34905277D01*
X106610997Y-34905279D01*
X106769299Y-35287454D01*
X106850000Y-35693167D01*
X106850000Y-36106833D01*
X106769299Y-36512546D01*
X106717370Y-36637913D01*
X106610996Y-36894723D01*
X106381177Y-37238672D01*
X106088672Y-37531177D01*
X105744723Y-37760996D01*
X105744722Y-37760997D01*
X105744721Y-37760997D01*
X105362546Y-37919299D01*
X104956833Y-38000000D01*
X104543167Y-38000000D01*
X104137454Y-37919299D01*
X103755279Y-37760997D01*
X103755278Y-37760997D01*
X103755277Y-37760996D01*
X103411328Y-37531177D01*
X103118823Y-37238672D01*
X102889004Y-36894723D01*
X102782630Y-36637913D01*
X102730701Y-36512546D01*
X102650000Y-36106833D01*
X102650000Y-35693167D01*
X102730701Y-35287454D01*
X102889003Y-34905279D01*
X102889004Y-34905277D01*
X103118823Y-34561328D01*
X103411328Y-34268823D01*
X103755277Y-34039004D01*
X103755279Y-34039003D01*
X104137454Y-33880701D01*
X104543167Y-33800000D01*
X104956833Y-33800000D01*
X105362546Y-33880701D01*
X105362546Y-33880701D01*
G37*
G36*
X4605336Y-34968254D02*
G01*
X4697105Y-34986508D01*
X4869994Y-35058121D01*
X5025590Y-35162087D01*
X5157913Y-35294410D01*
X5261879Y-35450006D01*
X5333492Y-35622895D01*
X5370000Y-35806433D01*
X5370000Y-35993567D01*
X5333492Y-36177105D01*
X5261879Y-36349994D01*
X5157913Y-36505590D01*
X5025590Y-36637913D01*
X4869994Y-36741879D01*
X4697105Y-36813492D01*
X4605336Y-36831746D01*
X4513568Y-36850000D01*
X4326432Y-36850000D01*
X4234664Y-36831746D01*
X4142895Y-36813492D01*
X3970006Y-36741879D01*
X3814410Y-36637913D01*
X3682087Y-36505590D01*
X3578121Y-36349994D01*
X3506508Y-36177105D01*
X3470000Y-35993567D01*
X3470000Y-35806433D01*
X3506508Y-35622895D01*
X3578121Y-35450006D01*
X3682087Y-35294410D01*
X3814410Y-35162087D01*
X3970006Y-35058121D01*
X4142895Y-34986508D01*
X4234664Y-34968254D01*
X4326432Y-34950000D01*
X4513568Y-34950000D01*
X4605336Y-34968254D01*
X4605336Y-34968254D01*
G37*
G36*
X33815336Y-34968254D02*
G01*
X33907105Y-34986508D01*
X34079994Y-35058121D01*
X34235590Y-35162087D01*
X34367913Y-35294410D01*
X34471879Y-35450006D01*
X34543492Y-35622895D01*
X34580000Y-35806433D01*
X34580000Y-35993567D01*
X34543492Y-36177105D01*
X34471879Y-36349994D01*
X34367913Y-36505590D01*
X34235590Y-36637913D01*
X34079994Y-36741879D01*
X33907105Y-36813492D01*
X33815336Y-36831746D01*
X33723568Y-36850000D01*
X33536432Y-36850000D01*
X33444664Y-36831746D01*
X33352895Y-36813492D01*
X33180006Y-36741879D01*
X33024410Y-36637913D01*
X32892087Y-36505590D01*
X32788121Y-36349994D01*
X32716508Y-36177105D01*
X32680000Y-35993567D01*
X32680000Y-35806433D01*
X32716508Y-35622895D01*
X32788121Y-35450006D01*
X32892087Y-35294410D01*
X33024410Y-35162087D01*
X33180006Y-35058121D01*
X33352895Y-34986508D01*
X33444664Y-34968254D01*
X33536432Y-34950000D01*
X33723568Y-34950000D01*
X33815336Y-34968254D01*
X33815336Y-34968254D01*
G37*
G36*
X23655336Y-34968254D02*
G01*
X23747105Y-34986508D01*
X23919994Y-35058121D01*
X24075590Y-35162087D01*
X24207913Y-35294410D01*
X24311879Y-35450006D01*
X24383492Y-35622895D01*
X24420000Y-35806433D01*
X24420000Y-35993567D01*
X24383492Y-36177105D01*
X24311879Y-36349994D01*
X24207913Y-36505590D01*
X24075590Y-36637913D01*
X23919994Y-36741879D01*
X23747105Y-36813492D01*
X23655336Y-36831746D01*
X23563568Y-36850000D01*
X23376432Y-36850000D01*
X23284664Y-36831746D01*
X23192895Y-36813492D01*
X23020006Y-36741879D01*
X22864410Y-36637913D01*
X22732087Y-36505590D01*
X22628121Y-36349994D01*
X22556508Y-36177105D01*
X22520000Y-35993567D01*
X22520000Y-35806433D01*
X22556508Y-35622895D01*
X22628121Y-35450006D01*
X22732087Y-35294410D01*
X22864410Y-35162087D01*
X23020006Y-35058121D01*
X23192895Y-34986508D01*
X23284664Y-34968254D01*
X23376432Y-34950000D01*
X23563568Y-34950000D01*
X23655336Y-34968254D01*
X23655336Y-34968254D01*
G37*
G36*
X14765336Y-34968254D02*
G01*
X14857105Y-34986508D01*
X15029994Y-35058121D01*
X15185590Y-35162087D01*
X15317913Y-35294410D01*
X15421879Y-35450006D01*
X15493492Y-35622895D01*
X15530000Y-35806433D01*
X15530000Y-35993567D01*
X15493492Y-36177105D01*
X15421879Y-36349994D01*
X15317913Y-36505590D01*
X15185590Y-36637913D01*
X15029994Y-36741879D01*
X14857105Y-36813492D01*
X14765336Y-36831746D01*
X14673568Y-36850000D01*
X14486432Y-36850000D01*
X14394664Y-36831746D01*
X14302895Y-36813492D01*
X14130006Y-36741879D01*
X13974410Y-36637913D01*
X13842087Y-36505590D01*
X13738121Y-36349994D01*
X13666508Y-36177105D01*
X13630000Y-35993567D01*
X13630000Y-35806433D01*
X13666508Y-35622895D01*
X13738121Y-35450006D01*
X13842087Y-35294410D01*
X13974410Y-35162087D01*
X14130006Y-35058121D01*
X14302895Y-34986508D01*
X14394664Y-34968254D01*
X14486432Y-34950000D01*
X14673568Y-34950000D01*
X14765336Y-34968254D01*
X14765336Y-34968254D01*
G37*
G36*
X42705336Y-34968254D02*
G01*
X42797105Y-34986508D01*
X42969994Y-35058121D01*
X43125590Y-35162087D01*
X43257913Y-35294410D01*
X43361879Y-35450006D01*
X43433492Y-35622895D01*
X43470000Y-35806433D01*
X43470000Y-35993567D01*
X43433492Y-36177105D01*
X43361879Y-36349994D01*
X43257913Y-36505590D01*
X43125590Y-36637913D01*
X42969994Y-36741879D01*
X42797105Y-36813492D01*
X42705336Y-36831746D01*
X42613568Y-36850000D01*
X42426432Y-36850000D01*
X42334664Y-36831746D01*
X42242895Y-36813492D01*
X42070006Y-36741879D01*
X41914410Y-36637913D01*
X41782087Y-36505590D01*
X41678121Y-36349994D01*
X41606508Y-36177105D01*
X41570000Y-35993567D01*
X41570000Y-35806433D01*
X41606508Y-35622895D01*
X41678121Y-35450006D01*
X41782087Y-35294410D01*
X41914410Y-35162087D01*
X42070006Y-35058121D01*
X42242895Y-34986508D01*
X42334664Y-34968254D01*
X42426432Y-34950000D01*
X42613568Y-34950000D01*
X42705336Y-34968254D01*
X42705336Y-34968254D01*
G37*
G36*
X52865336Y-34968254D02*
G01*
X52957105Y-34986508D01*
X53129994Y-35058121D01*
X53285590Y-35162087D01*
X53417913Y-35294410D01*
X53521879Y-35450006D01*
X53593492Y-35622895D01*
X53630000Y-35806433D01*
X53630000Y-35993567D01*
X53593492Y-36177105D01*
X53521879Y-36349994D01*
X53417913Y-36505590D01*
X53285590Y-36637913D01*
X53129994Y-36741879D01*
X52957105Y-36813492D01*
X52865336Y-36831746D01*
X52773568Y-36850000D01*
X52586432Y-36850000D01*
X52494664Y-36831746D01*
X52402895Y-36813492D01*
X52230006Y-36741879D01*
X52074410Y-36637913D01*
X51942087Y-36505590D01*
X51838121Y-36349994D01*
X51766508Y-36177105D01*
X51730000Y-35993567D01*
X51730000Y-35806433D01*
X51766508Y-35622895D01*
X51838121Y-35450006D01*
X51942087Y-35294410D01*
X52074410Y-35162087D01*
X52230006Y-35058121D01*
X52402895Y-34986508D01*
X52494664Y-34968254D01*
X52586432Y-34950000D01*
X52773568Y-34950000D01*
X52865336Y-34968254D01*
X52865336Y-34968254D01*
G37*
G36*
X71915336Y-34968254D02*
G01*
X72007105Y-34986508D01*
X72179994Y-35058121D01*
X72335590Y-35162087D01*
X72467913Y-35294410D01*
X72571879Y-35450006D01*
X72643492Y-35622895D01*
X72680000Y-35806433D01*
X72680000Y-35993567D01*
X72643492Y-36177105D01*
X72571879Y-36349994D01*
X72467913Y-36505590D01*
X72335590Y-36637913D01*
X72179994Y-36741879D01*
X72007105Y-36813492D01*
X71915336Y-36831746D01*
X71823568Y-36850000D01*
X71636432Y-36850000D01*
X71544664Y-36831746D01*
X71452895Y-36813492D01*
X71280006Y-36741879D01*
X71124410Y-36637913D01*
X70992087Y-36505590D01*
X70888121Y-36349994D01*
X70816508Y-36177105D01*
X70780000Y-35993567D01*
X70780000Y-35806433D01*
X70816508Y-35622895D01*
X70888121Y-35450006D01*
X70992087Y-35294410D01*
X71124410Y-35162087D01*
X71280006Y-35058121D01*
X71452895Y-34986508D01*
X71544664Y-34968254D01*
X71636432Y-34950000D01*
X71823568Y-34950000D01*
X71915336Y-34968254D01*
X71915336Y-34968254D01*
G37*
G36*
X80805336Y-34968254D02*
G01*
X80897105Y-34986508D01*
X81069994Y-35058121D01*
X81225590Y-35162087D01*
X81357913Y-35294410D01*
X81461879Y-35450006D01*
X81533492Y-35622895D01*
X81570000Y-35806433D01*
X81570000Y-35993567D01*
X81533492Y-36177105D01*
X81461879Y-36349994D01*
X81357913Y-36505590D01*
X81225590Y-36637913D01*
X81069994Y-36741879D01*
X80897105Y-36813492D01*
X80805336Y-36831746D01*
X80713568Y-36850000D01*
X80526432Y-36850000D01*
X80434664Y-36831746D01*
X80342895Y-36813492D01*
X80170006Y-36741879D01*
X80014410Y-36637913D01*
X79882087Y-36505590D01*
X79778121Y-36349994D01*
X79706508Y-36177105D01*
X79670000Y-35993567D01*
X79670000Y-35806433D01*
X79706508Y-35622895D01*
X79778121Y-35450006D01*
X79882087Y-35294410D01*
X80014410Y-35162087D01*
X80170006Y-35058121D01*
X80342895Y-34986508D01*
X80434664Y-34968254D01*
X80526432Y-34950000D01*
X80713568Y-34950000D01*
X80805336Y-34968254D01*
X80805336Y-34968254D01*
G37*
G36*
X90965336Y-34968254D02*
G01*
X91057105Y-34986508D01*
X91229994Y-35058121D01*
X91385590Y-35162087D01*
X91517913Y-35294410D01*
X91621879Y-35450006D01*
X91693492Y-35622895D01*
X91730000Y-35806433D01*
X91730000Y-35993567D01*
X91693492Y-36177105D01*
X91621879Y-36349994D01*
X91517913Y-36505590D01*
X91385590Y-36637913D01*
X91229994Y-36741879D01*
X91057105Y-36813492D01*
X90965336Y-36831746D01*
X90873568Y-36850000D01*
X90686432Y-36850000D01*
X90594664Y-36831746D01*
X90502895Y-36813492D01*
X90330006Y-36741879D01*
X90174410Y-36637913D01*
X90042087Y-36505590D01*
X89938121Y-36349994D01*
X89866508Y-36177105D01*
X89830000Y-35993567D01*
X89830000Y-35806433D01*
X89866508Y-35622895D01*
X89938121Y-35450006D01*
X90042087Y-35294410D01*
X90174410Y-35162087D01*
X90330006Y-35058121D01*
X90502895Y-34986508D01*
X90594664Y-34968254D01*
X90686432Y-34950000D01*
X90873568Y-34950000D01*
X90965336Y-34968254D01*
X90965336Y-34968254D01*
G37*
G36*
X110015336Y-34968254D02*
G01*
X110107105Y-34986508D01*
X110279994Y-35058121D01*
X110435590Y-35162087D01*
X110567913Y-35294410D01*
X110671879Y-35450006D01*
X110743492Y-35622895D01*
X110780000Y-35806433D01*
X110780000Y-35993567D01*
X110743492Y-36177105D01*
X110671879Y-36349994D01*
X110567913Y-36505590D01*
X110435590Y-36637913D01*
X110279994Y-36741879D01*
X110107105Y-36813492D01*
X110015336Y-36831746D01*
X109923568Y-36850000D01*
X109736432Y-36850000D01*
X109644664Y-36831746D01*
X109552895Y-36813492D01*
X109380006Y-36741879D01*
X109224410Y-36637913D01*
X109092087Y-36505590D01*
X108988121Y-36349994D01*
X108916508Y-36177105D01*
X108880000Y-35993567D01*
X108880000Y-35806433D01*
X108916508Y-35622895D01*
X108988121Y-35450006D01*
X109092087Y-35294410D01*
X109224410Y-35162087D01*
X109380006Y-35058121D01*
X109552895Y-34986508D01*
X109644664Y-34968254D01*
X109736432Y-34950000D01*
X109923568Y-34950000D01*
X110015336Y-34968254D01*
X110015336Y-34968254D01*
G37*
G36*
X99855336Y-34968254D02*
G01*
X99947105Y-34986508D01*
X100119994Y-35058121D01*
X100275590Y-35162087D01*
X100407913Y-35294410D01*
X100511879Y-35450006D01*
X100583492Y-35622895D01*
X100620000Y-35806433D01*
X100620000Y-35993567D01*
X100583492Y-36177105D01*
X100511879Y-36349994D01*
X100407913Y-36505590D01*
X100275590Y-36637913D01*
X100119994Y-36741879D01*
X99947105Y-36813492D01*
X99855336Y-36831746D01*
X99763568Y-36850000D01*
X99576432Y-36850000D01*
X99484664Y-36831746D01*
X99392895Y-36813492D01*
X99220006Y-36741879D01*
X99064410Y-36637913D01*
X98932087Y-36505590D01*
X98828121Y-36349994D01*
X98756508Y-36177105D01*
X98720000Y-35993567D01*
X98720000Y-35806433D01*
X98756508Y-35622895D01*
X98828121Y-35450006D01*
X98932087Y-35294410D01*
X99064410Y-35162087D01*
X99220006Y-35058121D01*
X99392895Y-34986508D01*
X99484664Y-34968254D01*
X99576432Y-34950000D01*
X99763568Y-34950000D01*
X99855336Y-34968254D01*
X99855336Y-34968254D01*
G37*
G36*
X61755336Y-34968254D02*
G01*
X61847105Y-34986508D01*
X62019994Y-35058121D01*
X62175590Y-35162087D01*
X62307913Y-35294410D01*
X62411879Y-35450006D01*
X62483492Y-35622895D01*
X62520000Y-35806433D01*
X62520000Y-35993567D01*
X62483492Y-36177105D01*
X62411879Y-36349994D01*
X62307913Y-36505590D01*
X62175590Y-36637913D01*
X62019994Y-36741879D01*
X61847105Y-36813492D01*
X61755336Y-36831746D01*
X61663568Y-36850000D01*
X61476432Y-36850000D01*
X61384664Y-36831746D01*
X61292895Y-36813492D01*
X61120006Y-36741879D01*
X60964410Y-36637913D01*
X60832087Y-36505590D01*
X60728121Y-36349994D01*
X60656508Y-36177105D01*
X60620000Y-35993567D01*
X60620000Y-35806433D01*
X60656508Y-35622895D01*
X60728121Y-35450006D01*
X60832087Y-35294410D01*
X60964410Y-35162087D01*
X61120006Y-35058121D01*
X61292895Y-34986508D01*
X61384664Y-34968254D01*
X61476432Y-34950000D01*
X61663568Y-34950000D01*
X61755336Y-34968254D01*
X61755336Y-34968254D01*
G37*
G36*
X57496857Y-31838272D02*
G01*
X57697043Y-31921192D01*
X57697045Y-31921193D01*
X57787738Y-31981792D01*
X57877208Y-32041574D01*
X58030426Y-32194792D01*
X58150808Y-32374957D01*
X58233728Y-32575143D01*
X58276000Y-32787658D01*
X58276000Y-33004342D01*
X58233728Y-33216857D01*
X58150808Y-33417043D01*
X58150807Y-33417045D01*
X58030425Y-33597209D01*
X57877209Y-33750425D01*
X57697045Y-33870807D01*
X57697044Y-33870808D01*
X57697043Y-33870808D01*
X57496857Y-33953728D01*
X57284342Y-33996000D01*
X57067658Y-33996000D01*
X56855143Y-33953728D01*
X56654957Y-33870808D01*
X56654956Y-33870808D01*
X56654955Y-33870807D01*
X56474791Y-33750425D01*
X56321575Y-33597209D01*
X56201193Y-33417045D01*
X56201192Y-33417043D01*
X56118272Y-33216857D01*
X56076000Y-33004342D01*
X56076000Y-32787658D01*
X56118272Y-32575143D01*
X56201192Y-32374957D01*
X56321574Y-32194792D01*
X56474792Y-32041574D01*
X56564262Y-31981792D01*
X56654955Y-31921193D01*
X56654957Y-31921192D01*
X56855143Y-31838272D01*
X57067658Y-31796000D01*
X57284342Y-31796000D01*
X57496857Y-31838272D01*
X57496857Y-31838272D01*
G37*
G36*
X19854780Y-23959566D02*
G01*
X20154237Y-24019131D01*
X20718401Y-24252815D01*
X21226135Y-24592072D01*
X21657928Y-25023865D01*
X21997185Y-25531599D01*
X22230869Y-26095763D01*
X22287634Y-26381139D01*
X22350000Y-26694675D01*
X22350000Y-27305325D01*
X22317136Y-27470541D01*
X22230869Y-27904237D01*
X21997185Y-28468401D01*
X21657928Y-28976135D01*
X21226135Y-29407928D01*
X20718401Y-29747185D01*
X20154237Y-29980869D01*
X19854780Y-30040435D01*
X19555325Y-30100000D01*
X18944675Y-30100000D01*
X18645220Y-30040435D01*
X18345763Y-29980869D01*
X17781599Y-29747185D01*
X17273865Y-29407928D01*
X16842072Y-28976135D01*
X16502815Y-28468401D01*
X16269131Y-27904237D01*
X16182864Y-27470541D01*
X16150000Y-27305325D01*
X16150000Y-26694675D01*
X16212366Y-26381139D01*
X16269131Y-26095763D01*
X16502815Y-25531599D01*
X16842072Y-25023865D01*
X17273865Y-24592072D01*
X17781599Y-24252815D01*
X18345763Y-24019131D01*
X18645220Y-23959565D01*
X18944675Y-23900000D01*
X19555325Y-23900000D01*
X19854780Y-23959566D01*
X19854780Y-23959566D01*
G37*
G36*
X95854780Y-23959566D02*
G01*
X96154237Y-24019131D01*
X96718401Y-24252815D01*
X97226135Y-24592072D01*
X97657928Y-25023865D01*
X97997185Y-25531599D01*
X98230869Y-26095763D01*
X98287634Y-26381139D01*
X98350000Y-26694675D01*
X98350000Y-27305325D01*
X98317136Y-27470541D01*
X98230869Y-27904237D01*
X97997185Y-28468401D01*
X97657928Y-28976135D01*
X97226135Y-29407928D01*
X96718401Y-29747185D01*
X96154237Y-29980869D01*
X95854780Y-30040435D01*
X95555325Y-30100000D01*
X94944675Y-30100000D01*
X94645220Y-30040435D01*
X94345763Y-29980869D01*
X93781599Y-29747185D01*
X93273865Y-29407928D01*
X92842072Y-28976135D01*
X92502815Y-28468401D01*
X92269131Y-27904237D01*
X92182864Y-27470541D01*
X92150000Y-27305325D01*
X92150000Y-26694675D01*
X92212366Y-26381139D01*
X92269131Y-26095763D01*
X92502815Y-25531599D01*
X92842072Y-25023865D01*
X93273865Y-24592072D01*
X93781599Y-24252815D01*
X94345763Y-24019131D01*
X94645220Y-23959565D01*
X94944675Y-23900000D01*
X95555325Y-23900000D01*
X95854780Y-23959566D01*
X95854780Y-23959566D01*
G37*
G36*
X105100026Y-25221115D02*
G01*
X105318411Y-25311573D01*
X105318413Y-25311574D01*
X105514955Y-25442899D01*
X105682101Y-25610045D01*
X105811494Y-25803695D01*
X105813427Y-25806589D01*
X105903885Y-26024974D01*
X105950000Y-26256809D01*
X105950000Y-26493191D01*
X105903885Y-26725026D01*
X105821053Y-26925000D01*
X105813426Y-26943413D01*
X105682101Y-27139955D01*
X105514955Y-27307101D01*
X105318413Y-27438426D01*
X105318412Y-27438427D01*
X105318411Y-27438427D01*
X105100026Y-27528885D01*
X104868191Y-27575000D01*
X104631809Y-27575000D01*
X104399974Y-27528885D01*
X104181589Y-27438427D01*
X104181588Y-27438427D01*
X104181587Y-27438426D01*
X103985045Y-27307101D01*
X103817899Y-27139955D01*
X103686574Y-26943413D01*
X103678947Y-26925000D01*
X103596115Y-26725026D01*
X103550000Y-26493191D01*
X103550000Y-26256809D01*
X103596115Y-26024974D01*
X103686573Y-25806589D01*
X103688507Y-25803695D01*
X103817899Y-25610045D01*
X103985045Y-25442899D01*
X104181587Y-25311574D01*
X104181589Y-25311573D01*
X104399974Y-25221115D01*
X104631809Y-25175000D01*
X104868191Y-25175000D01*
X105100026Y-25221115D01*
X105100026Y-25221115D01*
G37*
G36*
X9850026Y-25221115D02*
G01*
X10068411Y-25311573D01*
X10068413Y-25311574D01*
X10264955Y-25442899D01*
X10432101Y-25610045D01*
X10561494Y-25803695D01*
X10563427Y-25806589D01*
X10653885Y-26024974D01*
X10700000Y-26256809D01*
X10700000Y-26493191D01*
X10653885Y-26725026D01*
X10571053Y-26925000D01*
X10563426Y-26943413D01*
X10432101Y-27139955D01*
X10264955Y-27307101D01*
X10068413Y-27438426D01*
X10068412Y-27438427D01*
X10068411Y-27438427D01*
X9850026Y-27528885D01*
X9618191Y-27575000D01*
X9381809Y-27575000D01*
X9149974Y-27528885D01*
X8931589Y-27438427D01*
X8931588Y-27438427D01*
X8931587Y-27438426D01*
X8735045Y-27307101D01*
X8567899Y-27139955D01*
X8436574Y-26943413D01*
X8428947Y-26925000D01*
X8346115Y-26725026D01*
X8300000Y-26493191D01*
X8300000Y-26256809D01*
X8346115Y-26024974D01*
X8436573Y-25806589D01*
X8438507Y-25803695D01*
X8567899Y-25610045D01*
X8735045Y-25442899D01*
X8931587Y-25311574D01*
X8931589Y-25311573D01*
X9149974Y-25221115D01*
X9381809Y-25175000D01*
X9618191Y-25175000D01*
X9850026Y-25221115D01*
X9850026Y-25221115D01*
G37*
G36*
X49462751Y-25775771D02*
G01*
X49487255Y-25775771D01*
X49491131Y-25775000D01*
X50921557Y-25775000D01*
X50937249Y-25775771D01*
X50956137Y-25773911D01*
X51493861Y-25773911D01*
X51512199Y-25775717D01*
X51524450Y-25776319D01*
X51542869Y-25776319D01*
X51574754Y-25779459D01*
X51658839Y-25796185D01*
X51689505Y-25805487D01*
X51768703Y-25838291D01*
X51796965Y-25853398D01*
X51868256Y-25901033D01*
X51893014Y-25921352D01*
X51953648Y-25981986D01*
X51973967Y-26006744D01*
X52021602Y-26078035D01*
X52036709Y-26106297D01*
X52069513Y-26185495D01*
X52078815Y-26216161D01*
X52095541Y-26300246D01*
X52098681Y-26332131D01*
X52098681Y-26350550D01*
X52099283Y-26362801D01*
X52101089Y-26381139D01*
X52101089Y-26868862D01*
X52099283Y-26887199D01*
X52098681Y-26899450D01*
X52098681Y-26917869D01*
X52095541Y-26949754D01*
X52078815Y-27033839D01*
X52069513Y-27064505D01*
X52036709Y-27143703D01*
X52021602Y-27171965D01*
X51973967Y-27243256D01*
X51953648Y-27268014D01*
X51893014Y-27328648D01*
X51868256Y-27348967D01*
X51796965Y-27396602D01*
X51768703Y-27411709D01*
X51689505Y-27444513D01*
X51658839Y-27453815D01*
X51574754Y-27470541D01*
X51542869Y-27473681D01*
X51524450Y-27473681D01*
X51512199Y-27474283D01*
X51493862Y-27476089D01*
X50956137Y-27476089D01*
X50937249Y-27474229D01*
X50912745Y-27474229D01*
X50908869Y-27475000D01*
X49478443Y-27475000D01*
X49462751Y-27474229D01*
X49443863Y-27476089D01*
X48906138Y-27476089D01*
X48887801Y-27474283D01*
X48875550Y-27473681D01*
X48857131Y-27473681D01*
X48825246Y-27470541D01*
X48741161Y-27453815D01*
X48710495Y-27444513D01*
X48631297Y-27411709D01*
X48603035Y-27396602D01*
X48531744Y-27348967D01*
X48506986Y-27328648D01*
X48446352Y-27268014D01*
X48426033Y-27243256D01*
X48378398Y-27171965D01*
X48363291Y-27143703D01*
X48330487Y-27064505D01*
X48321185Y-27033839D01*
X48304459Y-26949754D01*
X48301319Y-26917869D01*
X48301319Y-26899450D01*
X48300717Y-26887199D01*
X48298911Y-26868862D01*
X48298911Y-26381139D01*
X48300717Y-26362801D01*
X48301319Y-26350550D01*
X48301319Y-26332131D01*
X48304459Y-26300246D01*
X48321185Y-26216161D01*
X48330487Y-26185495D01*
X48363291Y-26106297D01*
X48378398Y-26078035D01*
X48426033Y-26006744D01*
X48446352Y-25981986D01*
X48506986Y-25921352D01*
X48531744Y-25901033D01*
X48603035Y-25853398D01*
X48631297Y-25838291D01*
X48710495Y-25805487D01*
X48741161Y-25796185D01*
X48825246Y-25779459D01*
X48857131Y-25776319D01*
X48875550Y-25776319D01*
X48887801Y-25775717D01*
X48906139Y-25773911D01*
X49443863Y-25773911D01*
X49462751Y-25775771D01*
X49462751Y-25775771D01*
G37*
G36*
X58276000Y-27396000D02*
G01*
X56076000Y-27396000D01*
X56076000Y-25196000D01*
X58276000Y-25196000D01*
X58276000Y-27396000D01*
X58276000Y-27396000D01*
G37*
G36*
X7426703Y-20391486D02*
G01*
X7717883Y-20512097D01*
X7979940Y-20687198D01*
X8202802Y-20910060D01*
X8377903Y-21172117D01*
X8498514Y-21463297D01*
X8560000Y-21772412D01*
X8560000Y-22087588D01*
X8498514Y-22396703D01*
X8377903Y-22687883D01*
X8202802Y-22949940D01*
X7979940Y-23172802D01*
X7717883Y-23347903D01*
X7426703Y-23468514D01*
X7117588Y-23530000D01*
X6802412Y-23530000D01*
X6493297Y-23468514D01*
X6202117Y-23347903D01*
X5940060Y-23172802D01*
X5717198Y-22949940D01*
X5542097Y-22687883D01*
X5421486Y-22396703D01*
X5360000Y-22087588D01*
X5360000Y-21772412D01*
X5421486Y-21463297D01*
X5542097Y-21172117D01*
X5717198Y-20910060D01*
X5940060Y-20687198D01*
X6202117Y-20512097D01*
X6493297Y-20391486D01*
X6802412Y-20330000D01*
X7117588Y-20330000D01*
X7426703Y-20391486D01*
X7426703Y-20391486D01*
G37*
G36*
X64576703Y-20391486D02*
G01*
X64867883Y-20512097D01*
X65129940Y-20687198D01*
X65352802Y-20910060D01*
X65527903Y-21172117D01*
X65648514Y-21463297D01*
X65710000Y-21772412D01*
X65710000Y-22087588D01*
X65648514Y-22396703D01*
X65527903Y-22687883D01*
X65352802Y-22949940D01*
X65129940Y-23172802D01*
X64867883Y-23347903D01*
X64576703Y-23468514D01*
X64267588Y-23530000D01*
X63952412Y-23530000D01*
X63643297Y-23468514D01*
X63352117Y-23347903D01*
X63090060Y-23172802D01*
X62867198Y-22949940D01*
X62692097Y-22687883D01*
X62571486Y-22396703D01*
X62510000Y-22087588D01*
X62510000Y-21772412D01*
X62571486Y-21463297D01*
X62692097Y-21172117D01*
X62867198Y-20910060D01*
X63090060Y-20687198D01*
X63352117Y-20512097D01*
X63643297Y-20391486D01*
X63952412Y-20330000D01*
X64267588Y-20330000D01*
X64576703Y-20391486D01*
X64576703Y-20391486D01*
G37*
G36*
X26476703Y-20391486D02*
G01*
X26767883Y-20512097D01*
X27029940Y-20687198D01*
X27252802Y-20910060D01*
X27427903Y-21172117D01*
X27548514Y-21463297D01*
X27610000Y-21772412D01*
X27610000Y-22087588D01*
X27548514Y-22396703D01*
X27427903Y-22687883D01*
X27252802Y-22949940D01*
X27029940Y-23172802D01*
X26767883Y-23347903D01*
X26476703Y-23468514D01*
X26167588Y-23530000D01*
X25852412Y-23530000D01*
X25543297Y-23468514D01*
X25252117Y-23347903D01*
X24990060Y-23172802D01*
X24767198Y-22949940D01*
X24592097Y-22687883D01*
X24471486Y-22396703D01*
X24410000Y-22087588D01*
X24410000Y-21772412D01*
X24471486Y-21463297D01*
X24592097Y-21172117D01*
X24767198Y-20910060D01*
X24990060Y-20687198D01*
X25252117Y-20512097D01*
X25543297Y-20391486D01*
X25852412Y-20330000D01*
X26167588Y-20330000D01*
X26476703Y-20391486D01*
X26476703Y-20391486D01*
G37*
G36*
X45526703Y-20391486D02*
G01*
X45817883Y-20512097D01*
X46079940Y-20687198D01*
X46302802Y-20910060D01*
X46477903Y-21172117D01*
X46598514Y-21463297D01*
X46660000Y-21772412D01*
X46660000Y-22087588D01*
X46598514Y-22396703D01*
X46477903Y-22687883D01*
X46302802Y-22949940D01*
X46079940Y-23172802D01*
X45817883Y-23347903D01*
X45526703Y-23468514D01*
X45217588Y-23530000D01*
X44902412Y-23530000D01*
X44593297Y-23468514D01*
X44302117Y-23347903D01*
X44040060Y-23172802D01*
X43817198Y-22949940D01*
X43642097Y-22687883D01*
X43521486Y-22396703D01*
X43460000Y-22087588D01*
X43460000Y-21772412D01*
X43521486Y-21463297D01*
X43642097Y-21172117D01*
X43817198Y-20910060D01*
X44040060Y-20687198D01*
X44302117Y-20512097D01*
X44593297Y-20391486D01*
X44902412Y-20330000D01*
X45217588Y-20330000D01*
X45526703Y-20391486D01*
X45526703Y-20391486D01*
G37*
G36*
X83626703Y-20391486D02*
G01*
X83917883Y-20512097D01*
X84179940Y-20687198D01*
X84402802Y-20910060D01*
X84577903Y-21172117D01*
X84698514Y-21463297D01*
X84760000Y-21772412D01*
X84760000Y-22087588D01*
X84698514Y-22396703D01*
X84577903Y-22687883D01*
X84402802Y-22949940D01*
X84179940Y-23172802D01*
X83917883Y-23347903D01*
X83626703Y-23468514D01*
X83317588Y-23530000D01*
X83002412Y-23530000D01*
X82693297Y-23468514D01*
X82402117Y-23347903D01*
X82140060Y-23172802D01*
X81917198Y-22949940D01*
X81742097Y-22687883D01*
X81621486Y-22396703D01*
X81560000Y-22087588D01*
X81560000Y-21772412D01*
X81621486Y-21463297D01*
X81742097Y-21172117D01*
X81917198Y-20910060D01*
X82140060Y-20687198D01*
X82402117Y-20512097D01*
X82693297Y-20391486D01*
X83002412Y-20330000D01*
X83317588Y-20330000D01*
X83626703Y-20391486D01*
X83626703Y-20391486D01*
G37*
G36*
X102676703Y-20391486D02*
G01*
X102967883Y-20512097D01*
X103229940Y-20687198D01*
X103452802Y-20910060D01*
X103627903Y-21172117D01*
X103748514Y-21463297D01*
X103810000Y-21772412D01*
X103810000Y-22087588D01*
X103748514Y-22396703D01*
X103627903Y-22687883D01*
X103452802Y-22949940D01*
X103229940Y-23172802D01*
X102967883Y-23347903D01*
X102676703Y-23468514D01*
X102367588Y-23530000D01*
X102052412Y-23530000D01*
X101743297Y-23468514D01*
X101452117Y-23347903D01*
X101190060Y-23172802D01*
X100967198Y-22949940D01*
X100792097Y-22687883D01*
X100671486Y-22396703D01*
X100610000Y-22087588D01*
X100610000Y-21772412D01*
X100671486Y-21463297D01*
X100792097Y-21172117D01*
X100967198Y-20910060D01*
X101190060Y-20687198D01*
X101452117Y-20512097D01*
X101743297Y-20391486D01*
X102052412Y-20330000D01*
X102367588Y-20330000D01*
X102676703Y-20391486D01*
X102676703Y-20391486D01*
G37*
G36*
X19412199Y-17500717D02*
G01*
X19424450Y-17501319D01*
X19442869Y-17501319D01*
X19474754Y-17504459D01*
X19558839Y-17521185D01*
X19589505Y-17530487D01*
X19668703Y-17563291D01*
X19696965Y-17578398D01*
X19768256Y-17626033D01*
X19793014Y-17646352D01*
X19853648Y-17706986D01*
X19873967Y-17731744D01*
X19921602Y-17803035D01*
X19936709Y-17831297D01*
X19969513Y-17910495D01*
X19978815Y-17941161D01*
X19995541Y-18025246D01*
X19998681Y-18057131D01*
X19998681Y-18075550D01*
X19999283Y-18087801D01*
X20001089Y-18106139D01*
X20001089Y-18643863D01*
X19999229Y-18662751D01*
X19999229Y-18687255D01*
X20000000Y-18691131D01*
X20000000Y-20121557D01*
X19999229Y-20137249D01*
X20001089Y-20156137D01*
X20001089Y-20693862D01*
X19999283Y-20712199D01*
X19998681Y-20724450D01*
X19998681Y-20742869D01*
X19995541Y-20774754D01*
X19978815Y-20858839D01*
X19969513Y-20889505D01*
X19936709Y-20968703D01*
X19921602Y-20996965D01*
X19873967Y-21068256D01*
X19853648Y-21093014D01*
X19793014Y-21153648D01*
X19768256Y-21173967D01*
X19696965Y-21221602D01*
X19668703Y-21236709D01*
X19589505Y-21269513D01*
X19558839Y-21278815D01*
X19474754Y-21295541D01*
X19442869Y-21298681D01*
X19424450Y-21298681D01*
X19412199Y-21299283D01*
X19393862Y-21301089D01*
X18906138Y-21301089D01*
X18887801Y-21299283D01*
X18875550Y-21298681D01*
X18857131Y-21298681D01*
X18825246Y-21295541D01*
X18741161Y-21278815D01*
X18710495Y-21269513D01*
X18631297Y-21236709D01*
X18603035Y-21221602D01*
X18531744Y-21173967D01*
X18506986Y-21153648D01*
X18446352Y-21093014D01*
X18426033Y-21068256D01*
X18378398Y-20996965D01*
X18363291Y-20968703D01*
X18330487Y-20889505D01*
X18321185Y-20858839D01*
X18304459Y-20774754D01*
X18301319Y-20742869D01*
X18301319Y-20724450D01*
X18300717Y-20712199D01*
X18298911Y-20693862D01*
X18298911Y-20156137D01*
X18300771Y-20137249D01*
X18300771Y-20112745D01*
X18300000Y-20108869D01*
X18300000Y-18678443D01*
X18300771Y-18662751D01*
X18298911Y-18643863D01*
X18298911Y-18106139D01*
X18300717Y-18087801D01*
X18301319Y-18075550D01*
X18301319Y-18057131D01*
X18304459Y-18025246D01*
X18321185Y-17941161D01*
X18330487Y-17910495D01*
X18363291Y-17831297D01*
X18378398Y-17803035D01*
X18426033Y-17731744D01*
X18446352Y-17706986D01*
X18506986Y-17646352D01*
X18531744Y-17626033D01*
X18603035Y-17578398D01*
X18631297Y-17563291D01*
X18710495Y-17530487D01*
X18741161Y-17521185D01*
X18825246Y-17504459D01*
X18857131Y-17501319D01*
X18875550Y-17501319D01*
X18887801Y-17500717D01*
X18906139Y-17498911D01*
X19393861Y-17498911D01*
X19412199Y-17500717D01*
X19412199Y-17500717D01*
G37*
G36*
X32826703Y-17851486D02*
G01*
X33117883Y-17972097D01*
X33379940Y-18147198D01*
X33602802Y-18370060D01*
X33777903Y-18632117D01*
X33898514Y-18923297D01*
X33960000Y-19232412D01*
X33960000Y-19547588D01*
X33898514Y-19856703D01*
X33777903Y-20147883D01*
X33602802Y-20409940D01*
X33379940Y-20632802D01*
X33117883Y-20807903D01*
X32826703Y-20928514D01*
X32517588Y-20990000D01*
X32202412Y-20990000D01*
X31893297Y-20928514D01*
X31602117Y-20807903D01*
X31340060Y-20632802D01*
X31117198Y-20409940D01*
X30942097Y-20147883D01*
X30821486Y-19856703D01*
X30760000Y-19547588D01*
X30760000Y-19232412D01*
X30821486Y-18923297D01*
X30942097Y-18632117D01*
X31117198Y-18370060D01*
X31340060Y-18147198D01*
X31602117Y-17972097D01*
X31893297Y-17851486D01*
X32202412Y-17790000D01*
X32517588Y-17790000D01*
X32826703Y-17851486D01*
X32826703Y-17851486D01*
G37*
G36*
X13776703Y-17851486D02*
G01*
X14067883Y-17972097D01*
X14329940Y-18147198D01*
X14552802Y-18370060D01*
X14727903Y-18632117D01*
X14848514Y-18923297D01*
X14910000Y-19232412D01*
X14910000Y-19547588D01*
X14848514Y-19856703D01*
X14727903Y-20147883D01*
X14552802Y-20409940D01*
X14329940Y-20632802D01*
X14067883Y-20807903D01*
X13776703Y-20928514D01*
X13467588Y-20990000D01*
X13152412Y-20990000D01*
X12843297Y-20928514D01*
X12552117Y-20807903D01*
X12290060Y-20632802D01*
X12067198Y-20409940D01*
X11892097Y-20147883D01*
X11771486Y-19856703D01*
X11710000Y-19547588D01*
X11710000Y-19232412D01*
X11771486Y-18923297D01*
X11892097Y-18632117D01*
X12067198Y-18370060D01*
X12290060Y-18147198D01*
X12552117Y-17972097D01*
X12843297Y-17851486D01*
X13152412Y-17790000D01*
X13467588Y-17790000D01*
X13776703Y-17851486D01*
X13776703Y-17851486D01*
G37*
G36*
X89976703Y-17851486D02*
G01*
X90267883Y-17972097D01*
X90529940Y-18147198D01*
X90752802Y-18370060D01*
X90927903Y-18632117D01*
X91048514Y-18923297D01*
X91110000Y-19232412D01*
X91110000Y-19547588D01*
X91048514Y-19856703D01*
X90927903Y-20147883D01*
X90752802Y-20409940D01*
X90529940Y-20632802D01*
X90267883Y-20807903D01*
X89976703Y-20928514D01*
X89667588Y-20990000D01*
X89352412Y-20990000D01*
X89043297Y-20928514D01*
X88752117Y-20807903D01*
X88490060Y-20632802D01*
X88267198Y-20409940D01*
X88092097Y-20147883D01*
X87971486Y-19856703D01*
X87910000Y-19547588D01*
X87910000Y-19232412D01*
X87971486Y-18923297D01*
X88092097Y-18632117D01*
X88267198Y-18370060D01*
X88490060Y-18147198D01*
X88752117Y-17972097D01*
X89043297Y-17851486D01*
X89352412Y-17790000D01*
X89667588Y-17790000D01*
X89976703Y-17851486D01*
X89976703Y-17851486D01*
G37*
G36*
X109026703Y-17851486D02*
G01*
X109317883Y-17972097D01*
X109579940Y-18147198D01*
X109802802Y-18370060D01*
X109977903Y-18632117D01*
X110098514Y-18923297D01*
X110160000Y-19232412D01*
X110160000Y-19547588D01*
X110098514Y-19856703D01*
X109977903Y-20147883D01*
X109802802Y-20409940D01*
X109579940Y-20632802D01*
X109317883Y-20807903D01*
X109026703Y-20928514D01*
X108717588Y-20990000D01*
X108402412Y-20990000D01*
X108093297Y-20928514D01*
X107802117Y-20807903D01*
X107540060Y-20632802D01*
X107317198Y-20409940D01*
X107142097Y-20147883D01*
X107021486Y-19856703D01*
X106960000Y-19547588D01*
X106960000Y-19232412D01*
X107021486Y-18923297D01*
X107142097Y-18632117D01*
X107317198Y-18370060D01*
X107540060Y-18147198D01*
X107802117Y-17972097D01*
X108093297Y-17851486D01*
X108402412Y-17790000D01*
X108717588Y-17790000D01*
X109026703Y-17851486D01*
X109026703Y-17851486D01*
G37*
G36*
X70926703Y-17851486D02*
G01*
X71217883Y-17972097D01*
X71479940Y-18147198D01*
X71702802Y-18370060D01*
X71877903Y-18632117D01*
X71998514Y-18923297D01*
X72060000Y-19232412D01*
X72060000Y-19547588D01*
X71998514Y-19856703D01*
X71877903Y-20147883D01*
X71702802Y-20409940D01*
X71479940Y-20632802D01*
X71217883Y-20807903D01*
X70926703Y-20928514D01*
X70617588Y-20990000D01*
X70302412Y-20990000D01*
X69993297Y-20928514D01*
X69702117Y-20807903D01*
X69440060Y-20632802D01*
X69217198Y-20409940D01*
X69042097Y-20147883D01*
X68921486Y-19856703D01*
X68860000Y-19547588D01*
X68860000Y-19232412D01*
X68921486Y-18923297D01*
X69042097Y-18632117D01*
X69217198Y-18370060D01*
X69440060Y-18147198D01*
X69702117Y-17972097D01*
X69993297Y-17851486D01*
X70302412Y-17790000D01*
X70617588Y-17790000D01*
X70926703Y-17851486D01*
X70926703Y-17851486D01*
G37*
G36*
X51876703Y-17851486D02*
G01*
X52167883Y-17972097D01*
X52429940Y-18147198D01*
X52652802Y-18370060D01*
X52827903Y-18632117D01*
X52948514Y-18923297D01*
X53010000Y-19232412D01*
X53010000Y-19547588D01*
X52948514Y-19856703D01*
X52827903Y-20147883D01*
X52652802Y-20409940D01*
X52429940Y-20632802D01*
X52167883Y-20807903D01*
X51876703Y-20928514D01*
X51567588Y-20990000D01*
X51252412Y-20990000D01*
X50943297Y-20928514D01*
X50652117Y-20807903D01*
X50390060Y-20632802D01*
X50167198Y-20409940D01*
X49992097Y-20147883D01*
X49871486Y-19856703D01*
X49810000Y-19547588D01*
X49810000Y-19232412D01*
X49871486Y-18923297D01*
X49992097Y-18632117D01*
X50167198Y-18370060D01*
X50390060Y-18147198D01*
X50652117Y-17972097D01*
X50943297Y-17851486D01*
X51252412Y-17790000D01*
X51567588Y-17790000D01*
X51876703Y-17851486D01*
X51876703Y-17851486D01*
G37*
G36*
X48212546Y-14830701D02*
G01*
X48594721Y-14989003D01*
X48594723Y-14989004D01*
X48938672Y-15218823D01*
X49231177Y-15511328D01*
X49275457Y-15577598D01*
X49460997Y-15855279D01*
X49619299Y-16237454D01*
X49700000Y-16643167D01*
X49700000Y-17056833D01*
X49619299Y-17462546D01*
X49494643Y-17763492D01*
X49460996Y-17844723D01*
X49231177Y-18188672D01*
X48938672Y-18481177D01*
X48594723Y-18710996D01*
X48594722Y-18710997D01*
X48594721Y-18710997D01*
X48212546Y-18869299D01*
X47806833Y-18950000D01*
X47393167Y-18950000D01*
X46987454Y-18869299D01*
X46605279Y-18710997D01*
X46605278Y-18710997D01*
X46605277Y-18710996D01*
X46261328Y-18481177D01*
X45968823Y-18188672D01*
X45739004Y-17844723D01*
X45705357Y-17763492D01*
X45580701Y-17462546D01*
X45500000Y-17056833D01*
X45500000Y-16643167D01*
X45580701Y-16237454D01*
X45739003Y-15855279D01*
X45924543Y-15577598D01*
X45968823Y-15511328D01*
X46261328Y-15218823D01*
X46605277Y-14989004D01*
X46605279Y-14989003D01*
X46987454Y-14830701D01*
X47393167Y-14750000D01*
X47806833Y-14750000D01*
X48212546Y-14830701D01*
X48212546Y-14830701D01*
G37*
G36*
X10112546Y-14830701D02*
G01*
X10494721Y-14989003D01*
X10494723Y-14989004D01*
X10838672Y-15218823D01*
X11131177Y-15511328D01*
X11175457Y-15577598D01*
X11360997Y-15855279D01*
X11519299Y-16237454D01*
X11600000Y-16643167D01*
X11600000Y-17056833D01*
X11519299Y-17462546D01*
X11394643Y-17763492D01*
X11360996Y-17844723D01*
X11131177Y-18188672D01*
X10838672Y-18481177D01*
X10494723Y-18710996D01*
X10494722Y-18710997D01*
X10494721Y-18710997D01*
X10112546Y-18869299D01*
X9706833Y-18950000D01*
X9293167Y-18950000D01*
X8887454Y-18869299D01*
X8505279Y-18710997D01*
X8505278Y-18710997D01*
X8505277Y-18710996D01*
X8161328Y-18481177D01*
X7868823Y-18188672D01*
X7639004Y-17844723D01*
X7605357Y-17763492D01*
X7480701Y-17462546D01*
X7400000Y-17056833D01*
X7400000Y-16643167D01*
X7480701Y-16237454D01*
X7639003Y-15855279D01*
X7824543Y-15577598D01*
X7868823Y-15511328D01*
X8161328Y-15218823D01*
X8505277Y-14989004D01*
X8505279Y-14989003D01*
X8887454Y-14830701D01*
X9293167Y-14750000D01*
X9706833Y-14750000D01*
X10112546Y-14830701D01*
X10112546Y-14830701D01*
G37*
G36*
X29162546Y-14830701D02*
G01*
X29544721Y-14989003D01*
X29544723Y-14989004D01*
X29888672Y-15218823D01*
X30181177Y-15511328D01*
X30225457Y-15577598D01*
X30410997Y-15855279D01*
X30569299Y-16237454D01*
X30650000Y-16643167D01*
X30650000Y-17056833D01*
X30569299Y-17462546D01*
X30444643Y-17763492D01*
X30410996Y-17844723D01*
X30181177Y-18188672D01*
X29888672Y-18481177D01*
X29544723Y-18710996D01*
X29544722Y-18710997D01*
X29544721Y-18710997D01*
X29162546Y-18869299D01*
X28756833Y-18950000D01*
X28343167Y-18950000D01*
X27937454Y-18869299D01*
X27555279Y-18710997D01*
X27555278Y-18710997D01*
X27555277Y-18710996D01*
X27211328Y-18481177D01*
X26918823Y-18188672D01*
X26689004Y-17844723D01*
X26655357Y-17763492D01*
X26530701Y-17462546D01*
X26450000Y-17056833D01*
X26450000Y-16643167D01*
X26530701Y-16237454D01*
X26689003Y-15855279D01*
X26874543Y-15577598D01*
X26918823Y-15511328D01*
X27211328Y-15218823D01*
X27555277Y-14989004D01*
X27555279Y-14989003D01*
X27937454Y-14830701D01*
X28343167Y-14750000D01*
X28756833Y-14750000D01*
X29162546Y-14830701D01*
X29162546Y-14830701D01*
G37*
G36*
X105362546Y-14830701D02*
G01*
X105744721Y-14989003D01*
X105744723Y-14989004D01*
X106088672Y-15218823D01*
X106381177Y-15511328D01*
X106425457Y-15577598D01*
X106610997Y-15855279D01*
X106769299Y-16237454D01*
X106850000Y-16643167D01*
X106850000Y-17056833D01*
X106769299Y-17462546D01*
X106644643Y-17763492D01*
X106610996Y-17844723D01*
X106381177Y-18188672D01*
X106088672Y-18481177D01*
X105744723Y-18710996D01*
X105744722Y-18710997D01*
X105744721Y-18710997D01*
X105362546Y-18869299D01*
X104956833Y-18950000D01*
X104543167Y-18950000D01*
X104137454Y-18869299D01*
X103755279Y-18710997D01*
X103755278Y-18710997D01*
X103755277Y-18710996D01*
X103411328Y-18481177D01*
X103118823Y-18188672D01*
X102889004Y-17844723D01*
X102855357Y-17763492D01*
X102730701Y-17462546D01*
X102650000Y-17056833D01*
X102650000Y-16643167D01*
X102730701Y-16237454D01*
X102889003Y-15855279D01*
X103074543Y-15577598D01*
X103118823Y-15511328D01*
X103411328Y-15218823D01*
X103755277Y-14989004D01*
X103755279Y-14989003D01*
X104137454Y-14830701D01*
X104543167Y-14750000D01*
X104956833Y-14750000D01*
X105362546Y-14830701D01*
X105362546Y-14830701D01*
G37*
G36*
X67262546Y-14830701D02*
G01*
X67644721Y-14989003D01*
X67644723Y-14989004D01*
X67988672Y-15218823D01*
X68281177Y-15511328D01*
X68325457Y-15577598D01*
X68510997Y-15855279D01*
X68669299Y-16237454D01*
X68750000Y-16643167D01*
X68750000Y-17056833D01*
X68669299Y-17462546D01*
X68544643Y-17763492D01*
X68510996Y-17844723D01*
X68281177Y-18188672D01*
X67988672Y-18481177D01*
X67644723Y-18710996D01*
X67644722Y-18710997D01*
X67644721Y-18710997D01*
X67262546Y-18869299D01*
X66856833Y-18950000D01*
X66443167Y-18950000D01*
X66037454Y-18869299D01*
X65655279Y-18710997D01*
X65655278Y-18710997D01*
X65655277Y-18710996D01*
X65311328Y-18481177D01*
X65018823Y-18188672D01*
X64789004Y-17844723D01*
X64755357Y-17763492D01*
X64630701Y-17462546D01*
X64550000Y-17056833D01*
X64550000Y-16643167D01*
X64630701Y-16237454D01*
X64789003Y-15855279D01*
X64974543Y-15577598D01*
X65018823Y-15511328D01*
X65311328Y-15218823D01*
X65655277Y-14989004D01*
X65655279Y-14989003D01*
X66037454Y-14830701D01*
X66443167Y-14750000D01*
X66856833Y-14750000D01*
X67262546Y-14830701D01*
X67262546Y-14830701D01*
G37*
G36*
X86312546Y-14830701D02*
G01*
X86694721Y-14989003D01*
X86694723Y-14989004D01*
X87038672Y-15218823D01*
X87331177Y-15511328D01*
X87375457Y-15577598D01*
X87560997Y-15855279D01*
X87719299Y-16237454D01*
X87800000Y-16643167D01*
X87800000Y-17056833D01*
X87719299Y-17462546D01*
X87594643Y-17763492D01*
X87560996Y-17844723D01*
X87331177Y-18188672D01*
X87038672Y-18481177D01*
X86694723Y-18710996D01*
X86694722Y-18710997D01*
X86694721Y-18710997D01*
X86312546Y-18869299D01*
X85906833Y-18950000D01*
X85493167Y-18950000D01*
X85087454Y-18869299D01*
X84705279Y-18710997D01*
X84705278Y-18710997D01*
X84705277Y-18710996D01*
X84361328Y-18481177D01*
X84068823Y-18188672D01*
X83839004Y-17844723D01*
X83805357Y-17763492D01*
X83680701Y-17462546D01*
X83600000Y-17056833D01*
X83600000Y-16643167D01*
X83680701Y-16237454D01*
X83839003Y-15855279D01*
X84024543Y-15577598D01*
X84068823Y-15511328D01*
X84361328Y-15218823D01*
X84705277Y-14989004D01*
X84705279Y-14989003D01*
X85087454Y-14830701D01*
X85493167Y-14750000D01*
X85906833Y-14750000D01*
X86312546Y-14830701D01*
X86312546Y-14830701D01*
G37*
G36*
X110015336Y-15918254D02*
G01*
X110107105Y-15936508D01*
X110279994Y-16008121D01*
X110435590Y-16112087D01*
X110567913Y-16244410D01*
X110671879Y-16400006D01*
X110743492Y-16572895D01*
X110780000Y-16756433D01*
X110780000Y-16943567D01*
X110743492Y-17127105D01*
X110671879Y-17299994D01*
X110567913Y-17455590D01*
X110435590Y-17587913D01*
X110279994Y-17691879D01*
X110107105Y-17763492D01*
X110015336Y-17781746D01*
X109923568Y-17800000D01*
X109736432Y-17800000D01*
X109644664Y-17781746D01*
X109552895Y-17763492D01*
X109380006Y-17691879D01*
X109224410Y-17587913D01*
X109092087Y-17455590D01*
X108988121Y-17299994D01*
X108916508Y-17127105D01*
X108880000Y-16943567D01*
X108880000Y-16756433D01*
X108916508Y-16572895D01*
X108988121Y-16400006D01*
X109092087Y-16244410D01*
X109224410Y-16112087D01*
X109380006Y-16008121D01*
X109552895Y-15936508D01*
X109644664Y-15918254D01*
X109736432Y-15900000D01*
X109923568Y-15900000D01*
X110015336Y-15918254D01*
X110015336Y-15918254D01*
G37*
G36*
X99855336Y-15918254D02*
G01*
X99947105Y-15936508D01*
X100119994Y-16008121D01*
X100275590Y-16112087D01*
X100407913Y-16244410D01*
X100511879Y-16400006D01*
X100583492Y-16572895D01*
X100620000Y-16756433D01*
X100620000Y-16943567D01*
X100583492Y-17127105D01*
X100511879Y-17299994D01*
X100407913Y-17455590D01*
X100275590Y-17587913D01*
X100119994Y-17691879D01*
X99947105Y-17763492D01*
X99855336Y-17781746D01*
X99763568Y-17800000D01*
X99576432Y-17800000D01*
X99484664Y-17781746D01*
X99392895Y-17763492D01*
X99220006Y-17691879D01*
X99064410Y-17587913D01*
X98932087Y-17455590D01*
X98828121Y-17299994D01*
X98756508Y-17127105D01*
X98720000Y-16943567D01*
X98720000Y-16756433D01*
X98756508Y-16572895D01*
X98828121Y-16400006D01*
X98932087Y-16244410D01*
X99064410Y-16112087D01*
X99220006Y-16008121D01*
X99392895Y-15936508D01*
X99484664Y-15918254D01*
X99576432Y-15900000D01*
X99763568Y-15900000D01*
X99855336Y-15918254D01*
X99855336Y-15918254D01*
G37*
G36*
X90965336Y-15918254D02*
G01*
X91057105Y-15936508D01*
X91229994Y-16008121D01*
X91385590Y-16112087D01*
X91517913Y-16244410D01*
X91621879Y-16400006D01*
X91693492Y-16572895D01*
X91730000Y-16756433D01*
X91730000Y-16943567D01*
X91693492Y-17127105D01*
X91621879Y-17299994D01*
X91517913Y-17455590D01*
X91385590Y-17587913D01*
X91229994Y-17691879D01*
X91057105Y-17763492D01*
X90965336Y-17781746D01*
X90873568Y-17800000D01*
X90686432Y-17800000D01*
X90594664Y-17781746D01*
X90502895Y-17763492D01*
X90330006Y-17691879D01*
X90174410Y-17587913D01*
X90042087Y-17455590D01*
X89938121Y-17299994D01*
X89866508Y-17127105D01*
X89830000Y-16943567D01*
X89830000Y-16756433D01*
X89866508Y-16572895D01*
X89938121Y-16400006D01*
X90042087Y-16244410D01*
X90174410Y-16112087D01*
X90330006Y-16008121D01*
X90502895Y-15936508D01*
X90594664Y-15918254D01*
X90686432Y-15900000D01*
X90873568Y-15900000D01*
X90965336Y-15918254D01*
X90965336Y-15918254D01*
G37*
G36*
X4605336Y-15918254D02*
G01*
X4697105Y-15936508D01*
X4869994Y-16008121D01*
X5025590Y-16112087D01*
X5157913Y-16244410D01*
X5261879Y-16400006D01*
X5333492Y-16572895D01*
X5370000Y-16756433D01*
X5370000Y-16943567D01*
X5333492Y-17127105D01*
X5261879Y-17299994D01*
X5157913Y-17455590D01*
X5025590Y-17587913D01*
X4869994Y-17691879D01*
X4697105Y-17763492D01*
X4605336Y-17781746D01*
X4513568Y-17800000D01*
X4326432Y-17800000D01*
X4234664Y-17781746D01*
X4142895Y-17763492D01*
X3970006Y-17691879D01*
X3814410Y-17587913D01*
X3682087Y-17455590D01*
X3578121Y-17299994D01*
X3506508Y-17127105D01*
X3470000Y-16943567D01*
X3470000Y-16756433D01*
X3506508Y-16572895D01*
X3578121Y-16400006D01*
X3682087Y-16244410D01*
X3814410Y-16112087D01*
X3970006Y-16008121D01*
X4142895Y-15936508D01*
X4234664Y-15918254D01*
X4326432Y-15900000D01*
X4513568Y-15900000D01*
X4605336Y-15918254D01*
X4605336Y-15918254D01*
G37*
G36*
X14765336Y-15918254D02*
G01*
X14857105Y-15936508D01*
X15029994Y-16008121D01*
X15185590Y-16112087D01*
X15317913Y-16244410D01*
X15421879Y-16400006D01*
X15493492Y-16572895D01*
X15530000Y-16756433D01*
X15530000Y-16943567D01*
X15493492Y-17127105D01*
X15421879Y-17299994D01*
X15317913Y-17455590D01*
X15185590Y-17587913D01*
X15029994Y-17691879D01*
X14857105Y-17763492D01*
X14765336Y-17781746D01*
X14673568Y-17800000D01*
X14486432Y-17800000D01*
X14394664Y-17781746D01*
X14302895Y-17763492D01*
X14130006Y-17691879D01*
X13974410Y-17587913D01*
X13842087Y-17455590D01*
X13738121Y-17299994D01*
X13666508Y-17127105D01*
X13630000Y-16943567D01*
X13630000Y-16756433D01*
X13666508Y-16572895D01*
X13738121Y-16400006D01*
X13842087Y-16244410D01*
X13974410Y-16112087D01*
X14130006Y-16008121D01*
X14302895Y-15936508D01*
X14394664Y-15918254D01*
X14486432Y-15900000D01*
X14673568Y-15900000D01*
X14765336Y-15918254D01*
X14765336Y-15918254D01*
G37*
G36*
X33815336Y-15918254D02*
G01*
X33907105Y-15936508D01*
X34079994Y-16008121D01*
X34235590Y-16112087D01*
X34367913Y-16244410D01*
X34471879Y-16400006D01*
X34543492Y-16572895D01*
X34580000Y-16756433D01*
X34580000Y-16943567D01*
X34543492Y-17127105D01*
X34471879Y-17299994D01*
X34367913Y-17455590D01*
X34235590Y-17587913D01*
X34079994Y-17691879D01*
X33907105Y-17763492D01*
X33815336Y-17781746D01*
X33723568Y-17800000D01*
X33536432Y-17800000D01*
X33444664Y-17781746D01*
X33352895Y-17763492D01*
X33180006Y-17691879D01*
X33024410Y-17587913D01*
X32892087Y-17455590D01*
X32788121Y-17299994D01*
X32716508Y-17127105D01*
X32680000Y-16943567D01*
X32680000Y-16756433D01*
X32716508Y-16572895D01*
X32788121Y-16400006D01*
X32892087Y-16244410D01*
X33024410Y-16112087D01*
X33180006Y-16008121D01*
X33352895Y-15936508D01*
X33444664Y-15918254D01*
X33536432Y-15900000D01*
X33723568Y-15900000D01*
X33815336Y-15918254D01*
X33815336Y-15918254D01*
G37*
G36*
X52865336Y-15918254D02*
G01*
X52957105Y-15936508D01*
X53129994Y-16008121D01*
X53285590Y-16112087D01*
X53417913Y-16244410D01*
X53521879Y-16400006D01*
X53593492Y-16572895D01*
X53630000Y-16756433D01*
X53630000Y-16943567D01*
X53593492Y-17127105D01*
X53521879Y-17299994D01*
X53417913Y-17455590D01*
X53285590Y-17587913D01*
X53129994Y-17691879D01*
X52957105Y-17763492D01*
X52865336Y-17781746D01*
X52773568Y-17800000D01*
X52586432Y-17800000D01*
X52494664Y-17781746D01*
X52402895Y-17763492D01*
X52230006Y-17691879D01*
X52074410Y-17587913D01*
X51942087Y-17455590D01*
X51838121Y-17299994D01*
X51766508Y-17127105D01*
X51730000Y-16943567D01*
X51730000Y-16756433D01*
X51766508Y-16572895D01*
X51838121Y-16400006D01*
X51942087Y-16244410D01*
X52074410Y-16112087D01*
X52230006Y-16008121D01*
X52402895Y-15936508D01*
X52494664Y-15918254D01*
X52586432Y-15900000D01*
X52773568Y-15900000D01*
X52865336Y-15918254D01*
X52865336Y-15918254D01*
G37*
G36*
X61755336Y-15918254D02*
G01*
X61847105Y-15936508D01*
X62019994Y-16008121D01*
X62175590Y-16112087D01*
X62307913Y-16244410D01*
X62411879Y-16400006D01*
X62483492Y-16572895D01*
X62520000Y-16756433D01*
X62520000Y-16943567D01*
X62483492Y-17127105D01*
X62411879Y-17299994D01*
X62307913Y-17455590D01*
X62175590Y-17587913D01*
X62019994Y-17691879D01*
X61847105Y-17763492D01*
X61755336Y-17781746D01*
X61663568Y-17800000D01*
X61476432Y-17800000D01*
X61384664Y-17781746D01*
X61292895Y-17763492D01*
X61120006Y-17691879D01*
X60964410Y-17587913D01*
X60832087Y-17455590D01*
X60728121Y-17299994D01*
X60656508Y-17127105D01*
X60620000Y-16943567D01*
X60620000Y-16756433D01*
X60656508Y-16572895D01*
X60728121Y-16400006D01*
X60832087Y-16244410D01*
X60964410Y-16112087D01*
X61120006Y-16008121D01*
X61292895Y-15936508D01*
X61384664Y-15918254D01*
X61476432Y-15900000D01*
X61663568Y-15900000D01*
X61755336Y-15918254D01*
X61755336Y-15918254D01*
G37*
G36*
X71915336Y-15918254D02*
G01*
X72007105Y-15936508D01*
X72179994Y-16008121D01*
X72335590Y-16112087D01*
X72467913Y-16244410D01*
X72571879Y-16400006D01*
X72643492Y-16572895D01*
X72680000Y-16756433D01*
X72680000Y-16943567D01*
X72643492Y-17127105D01*
X72571879Y-17299994D01*
X72467913Y-17455590D01*
X72335590Y-17587913D01*
X72179994Y-17691879D01*
X72007105Y-17763492D01*
X71915336Y-17781746D01*
X71823568Y-17800000D01*
X71636432Y-17800000D01*
X71544664Y-17781746D01*
X71452895Y-17763492D01*
X71280006Y-17691879D01*
X71124410Y-17587913D01*
X70992087Y-17455590D01*
X70888121Y-17299994D01*
X70816508Y-17127105D01*
X70780000Y-16943567D01*
X70780000Y-16756433D01*
X70816508Y-16572895D01*
X70888121Y-16400006D01*
X70992087Y-16244410D01*
X71124410Y-16112087D01*
X71280006Y-16008121D01*
X71452895Y-15936508D01*
X71544664Y-15918254D01*
X71636432Y-15900000D01*
X71823568Y-15900000D01*
X71915336Y-15918254D01*
X71915336Y-15918254D01*
G37*
G36*
X80805336Y-15918254D02*
G01*
X80897105Y-15936508D01*
X81069994Y-16008121D01*
X81225590Y-16112087D01*
X81357913Y-16244410D01*
X81461879Y-16400006D01*
X81533492Y-16572895D01*
X81570000Y-16756433D01*
X81570000Y-16943567D01*
X81533492Y-17127105D01*
X81461879Y-17299994D01*
X81357913Y-17455590D01*
X81225590Y-17587913D01*
X81069994Y-17691879D01*
X80897105Y-17763492D01*
X80805336Y-17781746D01*
X80713568Y-17800000D01*
X80526432Y-17800000D01*
X80434664Y-17781746D01*
X80342895Y-17763492D01*
X80170006Y-17691879D01*
X80014410Y-17587913D01*
X79882087Y-17455590D01*
X79778121Y-17299994D01*
X79706508Y-17127105D01*
X79670000Y-16943567D01*
X79670000Y-16756433D01*
X79706508Y-16572895D01*
X79778121Y-16400006D01*
X79882087Y-16244410D01*
X80014410Y-16112087D01*
X80170006Y-16008121D01*
X80342895Y-15936508D01*
X80434664Y-15918254D01*
X80526432Y-15900000D01*
X80713568Y-15900000D01*
X80805336Y-15918254D01*
X80805336Y-15918254D01*
G37*
G36*
X23655336Y-15918254D02*
G01*
X23747105Y-15936508D01*
X23919994Y-16008121D01*
X24075590Y-16112087D01*
X24207913Y-16244410D01*
X24311879Y-16400006D01*
X24383492Y-16572895D01*
X24420000Y-16756433D01*
X24420000Y-16943567D01*
X24383492Y-17127105D01*
X24311879Y-17299994D01*
X24207913Y-17455590D01*
X24075590Y-17587913D01*
X23919994Y-17691879D01*
X23747105Y-17763492D01*
X23655336Y-17781746D01*
X23563568Y-17800000D01*
X23376432Y-17800000D01*
X23284664Y-17781746D01*
X23192895Y-17763492D01*
X23020006Y-17691879D01*
X22864410Y-17587913D01*
X22732087Y-17455590D01*
X22628121Y-17299994D01*
X22556508Y-17127105D01*
X22520000Y-16943567D01*
X22520000Y-16756433D01*
X22556508Y-16572895D01*
X22628121Y-16400006D01*
X22732087Y-16244410D01*
X22864410Y-16112087D01*
X23020006Y-16008121D01*
X23192895Y-15936508D01*
X23284664Y-15918254D01*
X23376432Y-15900000D01*
X23563568Y-15900000D01*
X23655336Y-15918254D01*
X23655336Y-15918254D01*
G37*
G36*
X42705336Y-15918254D02*
G01*
X42797105Y-15936508D01*
X42969994Y-16008121D01*
X43125590Y-16112087D01*
X43257913Y-16244410D01*
X43361879Y-16400006D01*
X43433492Y-16572895D01*
X43470000Y-16756433D01*
X43470000Y-16943567D01*
X43433492Y-17127105D01*
X43361879Y-17299994D01*
X43257913Y-17455590D01*
X43125590Y-17587913D01*
X42969994Y-17691879D01*
X42797105Y-17763492D01*
X42705336Y-17781746D01*
X42613568Y-17800000D01*
X42426432Y-17800000D01*
X42334664Y-17781746D01*
X42242895Y-17763492D01*
X42070006Y-17691879D01*
X41914410Y-17587913D01*
X41782087Y-17455590D01*
X41678121Y-17299994D01*
X41606508Y-17127105D01*
X41570000Y-16943567D01*
X41570000Y-16756433D01*
X41606508Y-16572895D01*
X41678121Y-16400006D01*
X41782087Y-16244410D01*
X41914410Y-16112087D01*
X42070006Y-16008121D01*
X42242895Y-15936508D01*
X42334664Y-15918254D01*
X42426432Y-15900000D01*
X42613568Y-15900000D01*
X42705336Y-15918254D01*
X42705336Y-15918254D01*
G37*
G36*
X75350137Y-15456139D02*
G01*
X75407642Y-15467577D01*
X75461811Y-15490014D01*
X75515981Y-15512452D01*
X75613479Y-15577598D01*
X75696402Y-15660521D01*
X75761548Y-15758019D01*
X75806423Y-15866359D01*
X75829300Y-15981367D01*
X75829300Y-16098633D01*
X75806423Y-16213641D01*
X75761548Y-16321981D01*
X75696402Y-16419479D01*
X75613479Y-16502402D01*
X75515981Y-16567548D01*
X75461811Y-16589985D01*
X75407642Y-16612423D01*
X75350137Y-16623862D01*
X75292633Y-16635300D01*
X75175367Y-16635300D01*
X75117863Y-16623862D01*
X75060358Y-16612423D01*
X75006189Y-16589986D01*
X74952019Y-16567548D01*
X74854521Y-16502402D01*
X74771598Y-16419479D01*
X74706452Y-16321981D01*
X74661577Y-16213641D01*
X74638700Y-16098633D01*
X74638700Y-15981367D01*
X74661577Y-15866359D01*
X74706452Y-15758019D01*
X74771598Y-15660521D01*
X74854521Y-15577598D01*
X74952019Y-15512452D01*
X75006189Y-15490014D01*
X75060358Y-15467577D01*
X75117863Y-15456138D01*
X75175367Y-15444700D01*
X75292633Y-15444700D01*
X75350137Y-15456139D01*
X75350137Y-15456139D01*
G37*
G36*
X77382137Y-15456139D02*
G01*
X77439642Y-15467577D01*
X77493811Y-15490014D01*
X77547981Y-15512452D01*
X77645479Y-15577598D01*
X77728402Y-15660521D01*
X77793548Y-15758019D01*
X77838423Y-15866359D01*
X77861300Y-15981367D01*
X77861300Y-16098633D01*
X77838423Y-16213641D01*
X77793548Y-16321981D01*
X77728402Y-16419479D01*
X77645479Y-16502402D01*
X77547981Y-16567548D01*
X77493811Y-16589985D01*
X77439642Y-16612423D01*
X77382137Y-16623862D01*
X77324633Y-16635300D01*
X77207367Y-16635300D01*
X77149863Y-16623862D01*
X77092358Y-16612423D01*
X77038189Y-16589986D01*
X76984019Y-16567548D01*
X76886521Y-16502402D01*
X76803598Y-16419479D01*
X76738452Y-16321981D01*
X76693577Y-16213641D01*
X76670700Y-16098633D01*
X76670700Y-15981367D01*
X76693577Y-15866359D01*
X76738452Y-15758019D01*
X76803598Y-15660521D01*
X76886521Y-15577598D01*
X76984019Y-15512452D01*
X77038189Y-15490014D01*
X77092358Y-15467577D01*
X77149863Y-15456138D01*
X77207367Y-15444700D01*
X77324633Y-15444700D01*
X77382137Y-15456139D01*
X77382137Y-15456139D01*
G37*
G36*
X19242836Y-11696254D02*
G01*
X19334605Y-11714508D01*
X19507494Y-11786121D01*
X19663090Y-11890087D01*
X19795413Y-12022410D01*
X19899379Y-12178006D01*
X19970992Y-12350895D01*
X20007500Y-12534433D01*
X20007500Y-12721567D01*
X19970992Y-12905105D01*
X19899379Y-13077994D01*
X19795413Y-13233590D01*
X19663090Y-13365913D01*
X19507494Y-13469879D01*
X19334605Y-13541492D01*
X19242836Y-13559746D01*
X19151068Y-13578000D01*
X18963932Y-13578000D01*
X18872164Y-13559746D01*
X18780395Y-13541492D01*
X18607506Y-13469879D01*
X18451910Y-13365913D01*
X18319587Y-13233590D01*
X18215621Y-13077994D01*
X18144008Y-12905105D01*
X18107500Y-12721567D01*
X18107500Y-12534433D01*
X18144008Y-12350895D01*
X18215621Y-12178006D01*
X18319587Y-12022410D01*
X18451910Y-11890087D01*
X18607506Y-11786121D01*
X18780395Y-11714508D01*
X18872164Y-11696254D01*
X18963932Y-11678000D01*
X19151068Y-11678000D01*
X19242836Y-11696254D01*
X19242836Y-11696254D01*
G37*
G36*
X76366137Y-10376139D02*
G01*
X76423642Y-10387577D01*
X76477811Y-10410014D01*
X76531981Y-10432452D01*
X76629479Y-10497598D01*
X76712402Y-10580521D01*
X76777548Y-10678019D01*
X76822423Y-10786359D01*
X76845300Y-10901367D01*
X76845300Y-11018633D01*
X76822423Y-11133641D01*
X76777548Y-11241981D01*
X76712402Y-11339479D01*
X76629479Y-11422402D01*
X76531981Y-11487548D01*
X76477811Y-11509985D01*
X76423642Y-11532423D01*
X76366137Y-11543862D01*
X76308633Y-11555300D01*
X76191367Y-11555300D01*
X76133863Y-11543862D01*
X76076358Y-11532423D01*
X76022189Y-11509985D01*
X75968019Y-11487548D01*
X75870521Y-11422402D01*
X75787598Y-11339479D01*
X75722452Y-11241981D01*
X75677577Y-11133641D01*
X75654700Y-11018633D01*
X75654700Y-10901367D01*
X75677577Y-10786359D01*
X75722452Y-10678019D01*
X75787598Y-10580521D01*
X75870521Y-10497598D01*
X75968019Y-10432452D01*
X76022189Y-10410015D01*
X76076358Y-10387577D01*
X76133863Y-10376139D01*
X76191367Y-10364700D01*
X76308633Y-10364700D01*
X76366137Y-10376139D01*
X76366137Y-10376139D01*
G37*
G36*
X55586232Y-5813746D02*
G01*
X55675770Y-5840907D01*
X55765309Y-5868068D01*
X55853523Y-5915220D01*
X55930345Y-5956282D01*
X55930347Y-5956283D01*
X55930346Y-5956283D01*
X56075002Y-6074998D01*
X56164848Y-6184477D01*
X56193718Y-6219655D01*
X56201166Y-6233590D01*
X56281932Y-6384691D01*
X56281932Y-6384692D01*
X56329497Y-6541492D01*
X56336254Y-6563769D01*
X56354596Y-6750000D01*
X56336254Y-6936231D01*
X56281932Y-7115309D01*
X56193717Y-7280346D01*
X56075002Y-7425002D01*
X55943315Y-7533073D01*
X55930345Y-7543718D01*
X55853523Y-7584780D01*
X55765309Y-7631932D01*
X55675770Y-7659093D01*
X55586232Y-7686254D01*
X55516448Y-7693127D01*
X55446666Y-7700000D01*
X55353334Y-7700000D01*
X55283552Y-7693127D01*
X55213768Y-7686254D01*
X55124230Y-7659093D01*
X55034691Y-7631932D01*
X54946477Y-7584780D01*
X54869655Y-7543718D01*
X54856685Y-7533073D01*
X54724998Y-7425002D01*
X54606283Y-7280346D01*
X54518068Y-7115309D01*
X54463746Y-6936231D01*
X54445404Y-6750000D01*
X54463746Y-6563769D01*
X54470504Y-6541492D01*
X54518068Y-6384692D01*
X54518068Y-6384691D01*
X54598834Y-6233590D01*
X54606282Y-6219655D01*
X54635152Y-6184477D01*
X54724998Y-6074998D01*
X54869654Y-5956283D01*
X54869653Y-5956283D01*
X54869655Y-5956282D01*
X54946477Y-5915220D01*
X55034691Y-5868068D01*
X55124230Y-5840907D01*
X55213768Y-5813746D01*
X55283552Y-5806873D01*
X55353334Y-5800000D01*
X55446666Y-5800000D01*
X55586232Y-5813746D01*
X55586232Y-5813746D01*
G37*
G36*
X53810000Y-7700000D02*
G01*
X51910000Y-7700000D01*
X51910000Y-5800000D01*
X53810000Y-5800000D01*
X53810000Y-7700000D01*
X53810000Y-7700000D01*
G37*
G36*
X80447621Y-5168682D02*
G01*
X80560721Y-5202990D01*
X80664955Y-5258704D01*
X80756317Y-5333683D01*
X80831296Y-5425045D01*
X80887010Y-5529279D01*
X80921318Y-5642379D01*
X80930000Y-5730526D01*
X80930000Y-6889474D01*
X80921318Y-6977621D01*
X80887010Y-7090721D01*
X80831296Y-7194955D01*
X80756317Y-7286317D01*
X80664954Y-7361296D01*
X80560720Y-7417010D01*
X80447620Y-7451318D01*
X80330000Y-7462903D01*
X80212379Y-7451318D01*
X80099279Y-7417010D01*
X79995045Y-7361296D01*
X79903683Y-7286317D01*
X79828704Y-7194954D01*
X79772990Y-7090720D01*
X79738682Y-6977620D01*
X79730000Y-6889473D01*
X79730001Y-5730526D01*
X79738683Y-5642379D01*
X79772991Y-5529279D01*
X79828705Y-5425045D01*
X79903684Y-5333683D01*
X79995046Y-5258704D01*
X80099280Y-5202990D01*
X80212380Y-5168682D01*
X80330000Y-5157097D01*
X80447621Y-5168682D01*
X80447621Y-5168682D01*
G37*
G36*
X89087621Y-5168682D02*
G01*
X89200721Y-5202990D01*
X89304955Y-5258704D01*
X89396317Y-5333683D01*
X89471296Y-5425045D01*
X89527010Y-5529279D01*
X89561318Y-5642379D01*
X89570000Y-5730526D01*
X89570000Y-6889474D01*
X89561318Y-6977621D01*
X89527010Y-7090721D01*
X89471296Y-7194955D01*
X89396317Y-7286317D01*
X89304954Y-7361296D01*
X89200720Y-7417010D01*
X89087620Y-7451318D01*
X88970000Y-7462903D01*
X88852379Y-7451318D01*
X88739279Y-7417010D01*
X88635045Y-7361296D01*
X88543683Y-7286317D01*
X88468704Y-7194954D01*
X88412990Y-7090720D01*
X88378682Y-6977620D01*
X88370000Y-6889473D01*
X88370001Y-5730526D01*
X88378683Y-5642379D01*
X88412991Y-5529279D01*
X88468705Y-5425045D01*
X88543684Y-5333683D01*
X88635046Y-5258704D01*
X88739280Y-5202990D01*
X88852380Y-5168682D01*
X88970000Y-5157097D01*
X89087621Y-5168682D01*
X89087621Y-5168682D01*
G37*
G36*
X19242836Y-4696254D02*
G01*
X19334605Y-4714508D01*
X19507494Y-4786121D01*
X19663090Y-4890087D01*
X19795413Y-5022410D01*
X19899379Y-5178006D01*
X19970992Y-5350895D01*
X19970992Y-5350896D01*
X19995783Y-5475525D01*
X20007500Y-5534433D01*
X20007500Y-5721567D01*
X19970992Y-5905105D01*
X19899379Y-6077994D01*
X19795413Y-6233590D01*
X19663090Y-6365913D01*
X19507494Y-6469879D01*
X19334605Y-6541492D01*
X19242836Y-6559746D01*
X19151068Y-6578000D01*
X18963932Y-6578000D01*
X18872164Y-6559746D01*
X18780395Y-6541492D01*
X18607506Y-6469879D01*
X18451910Y-6365913D01*
X18319587Y-6233590D01*
X18215621Y-6077994D01*
X18144008Y-5905105D01*
X18107500Y-5721567D01*
X18107500Y-5534433D01*
X18119218Y-5475525D01*
X18144008Y-5350896D01*
X18144008Y-5350895D01*
X18215621Y-5178006D01*
X18319587Y-5022410D01*
X18451910Y-4890087D01*
X18607506Y-4786121D01*
X18780395Y-4714508D01*
X18872164Y-4696254D01*
X18963932Y-4678000D01*
X19151068Y-4678000D01*
X19242836Y-4696254D01*
X19242836Y-4696254D01*
G37*
G36*
X87656676Y-5445372D02*
G01*
X87688424Y-5458522D01*
X87729468Y-5475523D01*
X87729471Y-5475525D01*
X87794985Y-5519300D01*
X87850700Y-5575015D01*
X87850701Y-5575017D01*
X87894477Y-5640532D01*
X87895243Y-5642382D01*
X87924628Y-5713324D01*
X87940000Y-5790603D01*
X87940000Y-5869397D01*
X87924628Y-5946676D01*
X87911478Y-5978424D01*
X87894477Y-6019468D01*
X87894475Y-6019471D01*
X87850700Y-6084985D01*
X87794985Y-6140700D01*
X87729471Y-6184475D01*
X87729468Y-6184477D01*
X87688424Y-6201478D01*
X87656676Y-6214628D01*
X87579397Y-6230000D01*
X87500603Y-6230000D01*
X87423324Y-6214628D01*
X87391576Y-6201478D01*
X87350532Y-6184477D01*
X87350529Y-6184475D01*
X87285015Y-6140700D01*
X87229300Y-6084985D01*
X87185525Y-6019471D01*
X87185523Y-6019468D01*
X87168522Y-5978424D01*
X87155372Y-5946676D01*
X87140000Y-5869397D01*
X87140000Y-5790603D01*
X87155372Y-5713324D01*
X87184757Y-5642382D01*
X87185523Y-5640532D01*
X87229299Y-5575017D01*
X87229300Y-5575015D01*
X87285015Y-5519300D01*
X87350529Y-5475525D01*
X87350532Y-5475523D01*
X87391576Y-5458522D01*
X87423324Y-5445372D01*
X87500603Y-5430000D01*
X87579397Y-5430000D01*
X87656676Y-5445372D01*
X87656676Y-5445372D01*
G37*
G36*
X81876676Y-5445372D02*
G01*
X81908424Y-5458522D01*
X81949468Y-5475523D01*
X81949471Y-5475525D01*
X82014985Y-5519300D01*
X82070700Y-5575015D01*
X82070701Y-5575017D01*
X82114477Y-5640532D01*
X82115243Y-5642382D01*
X82144628Y-5713324D01*
X82160000Y-5790603D01*
X82160000Y-5869397D01*
X82144628Y-5946676D01*
X82131478Y-5978424D01*
X82114477Y-6019468D01*
X82114475Y-6019471D01*
X82070700Y-6084985D01*
X82014985Y-6140700D01*
X81949471Y-6184475D01*
X81949468Y-6184477D01*
X81908424Y-6201478D01*
X81876676Y-6214628D01*
X81799397Y-6230000D01*
X81720603Y-6230000D01*
X81643324Y-6214628D01*
X81611576Y-6201478D01*
X81570532Y-6184477D01*
X81570529Y-6184475D01*
X81505015Y-6140700D01*
X81449300Y-6084985D01*
X81405525Y-6019471D01*
X81405523Y-6019468D01*
X81388522Y-5978424D01*
X81375372Y-5946676D01*
X81360000Y-5869397D01*
X81360000Y-5790603D01*
X81375372Y-5713324D01*
X81404757Y-5642382D01*
X81405523Y-5640532D01*
X81449299Y-5575017D01*
X81449300Y-5575015D01*
X81505015Y-5519300D01*
X81570529Y-5475525D01*
X81570532Y-5475523D01*
X81611576Y-5458522D01*
X81643324Y-5445372D01*
X81720603Y-5430000D01*
X81799397Y-5430000D01*
X81876676Y-5445372D01*
X81876676Y-5445372D01*
G37*
G36*
X80467224Y-1050128D02*
G01*
X80599175Y-1090155D01*
X80720781Y-1155155D01*
X80827370Y-1242630D01*
X80914845Y-1349219D01*
X80979845Y-1470825D01*
X81019872Y-1602776D01*
X81030000Y-1705610D01*
X81030000Y-2574390D01*
X81019872Y-2677224D01*
X80979845Y-2809175D01*
X80914845Y-2930781D01*
X80827369Y-3037370D01*
X80720780Y-3124845D01*
X80599174Y-3189845D01*
X80467223Y-3229872D01*
X80330000Y-3243387D01*
X80192776Y-3229872D01*
X80060825Y-3189845D01*
X79939219Y-3124845D01*
X79832630Y-3037369D01*
X79745155Y-2930780D01*
X79680155Y-2809174D01*
X79640128Y-2677223D01*
X79630000Y-2574389D01*
X79630000Y-1705610D01*
X79640128Y-1602776D01*
X79680156Y-1470825D01*
X79745156Y-1349219D01*
X79832631Y-1242630D01*
X79939220Y-1155155D01*
X80060826Y-1090155D01*
X80192777Y-1050128D01*
X80330000Y-1036613D01*
X80467224Y-1050128D01*
X80467224Y-1050128D01*
G37*
G36*
X89107224Y-1050128D02*
G01*
X89239175Y-1090155D01*
X89360781Y-1155155D01*
X89467370Y-1242630D01*
X89554845Y-1349219D01*
X89619845Y-1470825D01*
X89659872Y-1602776D01*
X89670000Y-1705610D01*
X89670000Y-2574390D01*
X89659872Y-2677224D01*
X89619845Y-2809175D01*
X89554845Y-2930781D01*
X89467369Y-3037370D01*
X89360780Y-3124845D01*
X89239174Y-3189845D01*
X89107223Y-3229872D01*
X88970000Y-3243387D01*
X88832776Y-3229872D01*
X88700825Y-3189845D01*
X88579219Y-3124845D01*
X88472630Y-3037369D01*
X88385155Y-2930780D01*
X88320155Y-2809174D01*
X88280128Y-2677223D01*
X88270000Y-2574389D01*
X88270000Y-1705610D01*
X88280128Y-1602776D01*
X88320156Y-1470825D01*
X88385156Y-1349219D01*
X88472631Y-1242630D01*
X88579220Y-1155155D01*
X88700826Y-1090155D01*
X88832777Y-1050128D01*
X88970000Y-1036613D01*
X89107224Y-1050128D01*
X89107224Y-1050128D01*
G37*
M02*
