G04 #@! TF.GenerationSoftware,KiCad,Pcbnew,(5.0.1-dev-70-gb7b125d83)*
G04 #@! TF.CreationDate,2019-02-27T23:36:49+01:00*
G04 #@! TF.ProjectId,vitamins_included,766974616D696E735F696E636C756465,rev?*
G04 #@! TF.SameCoordinates,Original*
G04 #@! TF.FileFunction,Soldermask,Bot*
G04 #@! TF.FilePolarity,Negative*
%FSLAX46Y46*%
G04 Gerber Fmt 4.6, Leading zero omitted, Abs format (unit mm)*
G04 Created by KiCad (PCBNEW (5.0.1-dev-70-gb7b125d83)) date 02/27/19 23:36:49*
%MOMM*%
%LPD*%
G01*
G04 APERTURE LIST*
%ADD10R,2.750000X2.700000*%
%ADD11C,3.200000*%
%ADD12C,1.900000*%
%ADD13C,4.200000*%
%ADD14C,0.100000*%
%ADD15C,1.075000*%
%ADD16R,1.000000X1.100000*%
%ADD17R,2.700000X2.000000*%
%ADD18O,1.900000X1.900000*%
%ADD19R,1.900000X1.900000*%
%ADD20C,6.200000*%
%ADD21R,2.600000X2.100000*%
%ADD22R,1.700000X1.200000*%
%ADD23C,2.000000*%
%ADD24C,1.190600*%
%ADD25C,0.987400*%
%ADD26R,5.280000X5.280000*%
%ADD27R,1.198220X0.499720*%
%ADD28R,0.499720X1.198220*%
%ADD29C,2.400000*%
%ADD30R,3.000000X3.000000*%
%ADD31R,3.000000X2.400000*%
%ADD32R,3.000000X2.200000*%
%ADD33C,2.200000*%
%ADD34R,2.200000X2.200000*%
%ADD35R,1.700000X3.200000*%
%ADD36C,1.000000*%
%ADD37R,0.800000X1.360000*%
%ADD38C,0.800000*%
%ADD39R,0.500000X1.360000*%
%ADD40O,1.100000X1.900000*%
%ADD41O,1.100000X2.200000*%
%ADD42R,2.380000X1.800000*%
%ADD43C,1.050000*%
G04 APERTURE END LIST*
D10*
G04 #@! TO.C,SW43*
X2140000Y-71460000D03*
X15590000Y-68920000D03*
D11*
X12040000Y-68920000D03*
X5690000Y-71460000D03*
D12*
X14580000Y-74000000D03*
X4420000Y-74000000D03*
D13*
X9500000Y-74000000D03*
G04 #@! TD*
D14*
G04 #@! TO.C,C6*
G36*
X49832592Y-10926294D02*
X49858681Y-10930164D01*
X49884264Y-10936572D01*
X49909096Y-10945457D01*
X49932938Y-10956734D01*
X49955560Y-10970293D01*
X49976743Y-10986003D01*
X49996285Y-11003715D01*
X50013997Y-11023257D01*
X50029707Y-11044440D01*
X50043266Y-11067062D01*
X50054543Y-11090904D01*
X50063428Y-11115736D01*
X50069836Y-11141319D01*
X50073706Y-11167408D01*
X50075000Y-11193750D01*
X50075000Y-11731250D01*
X50073706Y-11757592D01*
X50069836Y-11783681D01*
X50063428Y-11809264D01*
X50054543Y-11834096D01*
X50043266Y-11857938D01*
X50029707Y-11880560D01*
X50013997Y-11901743D01*
X49996285Y-11921285D01*
X49976743Y-11938997D01*
X49955560Y-11954707D01*
X49932938Y-11968266D01*
X49909096Y-11979543D01*
X49884264Y-11988428D01*
X49858681Y-11994836D01*
X49832592Y-11998706D01*
X49806250Y-12000000D01*
X49193750Y-12000000D01*
X49167408Y-11998706D01*
X49141319Y-11994836D01*
X49115736Y-11988428D01*
X49090904Y-11979543D01*
X49067062Y-11968266D01*
X49044440Y-11954707D01*
X49023257Y-11938997D01*
X49003715Y-11921285D01*
X48986003Y-11901743D01*
X48970293Y-11880560D01*
X48956734Y-11857938D01*
X48945457Y-11834096D01*
X48936572Y-11809264D01*
X48930164Y-11783681D01*
X48926294Y-11757592D01*
X48925000Y-11731250D01*
X48925000Y-11193750D01*
X48926294Y-11167408D01*
X48930164Y-11141319D01*
X48936572Y-11115736D01*
X48945457Y-11090904D01*
X48956734Y-11067062D01*
X48970293Y-11044440D01*
X48986003Y-11023257D01*
X49003715Y-11003715D01*
X49023257Y-10986003D01*
X49044440Y-10970293D01*
X49067062Y-10956734D01*
X49090904Y-10945457D01*
X49115736Y-10936572D01*
X49141319Y-10930164D01*
X49167408Y-10926294D01*
X49193750Y-10925000D01*
X49806250Y-10925000D01*
X49832592Y-10926294D01*
X49832592Y-10926294D01*
G37*
D15*
X49500000Y-11462500D03*
D14*
G36*
X49832592Y-12501294D02*
X49858681Y-12505164D01*
X49884264Y-12511572D01*
X49909096Y-12520457D01*
X49932938Y-12531734D01*
X49955560Y-12545293D01*
X49976743Y-12561003D01*
X49996285Y-12578715D01*
X50013997Y-12598257D01*
X50029707Y-12619440D01*
X50043266Y-12642062D01*
X50054543Y-12665904D01*
X50063428Y-12690736D01*
X50069836Y-12716319D01*
X50073706Y-12742408D01*
X50075000Y-12768750D01*
X50075000Y-13306250D01*
X50073706Y-13332592D01*
X50069836Y-13358681D01*
X50063428Y-13384264D01*
X50054543Y-13409096D01*
X50043266Y-13432938D01*
X50029707Y-13455560D01*
X50013997Y-13476743D01*
X49996285Y-13496285D01*
X49976743Y-13513997D01*
X49955560Y-13529707D01*
X49932938Y-13543266D01*
X49909096Y-13554543D01*
X49884264Y-13563428D01*
X49858681Y-13569836D01*
X49832592Y-13573706D01*
X49806250Y-13575000D01*
X49193750Y-13575000D01*
X49167408Y-13573706D01*
X49141319Y-13569836D01*
X49115736Y-13563428D01*
X49090904Y-13554543D01*
X49067062Y-13543266D01*
X49044440Y-13529707D01*
X49023257Y-13513997D01*
X49003715Y-13496285D01*
X48986003Y-13476743D01*
X48970293Y-13455560D01*
X48956734Y-13432938D01*
X48945457Y-13409096D01*
X48936572Y-13384264D01*
X48930164Y-13358681D01*
X48926294Y-13332592D01*
X48925000Y-13306250D01*
X48925000Y-12768750D01*
X48926294Y-12742408D01*
X48930164Y-12716319D01*
X48936572Y-12690736D01*
X48945457Y-12665904D01*
X48956734Y-12642062D01*
X48970293Y-12619440D01*
X48986003Y-12598257D01*
X49003715Y-12578715D01*
X49023257Y-12561003D01*
X49044440Y-12545293D01*
X49067062Y-12531734D01*
X49090904Y-12520457D01*
X49115736Y-12511572D01*
X49141319Y-12505164D01*
X49167408Y-12501294D01*
X49193750Y-12500000D01*
X49806250Y-12500000D01*
X49832592Y-12501294D01*
X49832592Y-12501294D01*
G37*
D15*
X49500000Y-13037500D03*
G04 #@! TD*
D10*
G04 #@! TO.C,SW39*
X54960000Y-57490000D03*
X41510000Y-60030000D03*
D11*
X45060000Y-60030000D03*
X51410000Y-57490000D03*
D12*
X42520000Y-54950000D03*
X52680000Y-54950000D03*
D13*
X47600000Y-54950000D03*
G04 #@! TD*
D16*
G04 #@! TO.C,D16*
X25850000Y-46000000D03*
X26800000Y-44000000D03*
X24900000Y-44000000D03*
G04 #@! TD*
D17*
G04 #@! TO.C,D26*
X90350000Y-12850000D03*
X86350000Y-12850000D03*
G04 #@! TD*
D10*
G04 #@! TO.C,SW35*
X93060000Y-38440000D03*
X79610000Y-40980000D03*
D11*
X83160000Y-40980000D03*
X89510000Y-38440000D03*
D12*
X80620000Y-35900000D03*
X90780000Y-35900000D03*
D13*
X85700000Y-35900000D03*
G04 #@! TD*
D18*
G04 #@! TO.C,J4*
X55400000Y-6750000D03*
D19*
X52860000Y-6750000D03*
G04 #@! TD*
D16*
G04 #@! TO.C,D14*
X64794000Y-24788000D03*
X66694000Y-24788000D03*
X65744000Y-26788000D03*
G04 #@! TD*
D10*
G04 #@! TO.C,SW45*
X40240000Y-71460000D03*
X53690000Y-68920000D03*
D11*
X50140000Y-68920000D03*
X43790000Y-71460000D03*
D12*
X52680000Y-74000000D03*
X42520000Y-74000000D03*
D13*
X47600000Y-74000000D03*
G04 #@! TD*
D10*
G04 #@! TO.C,SW40*
X74010000Y-57490000D03*
X60560000Y-60030000D03*
D11*
X64110000Y-60030000D03*
X70460000Y-57490000D03*
D12*
X61570000Y-54950000D03*
X71730000Y-54950000D03*
D13*
X66650000Y-54950000D03*
G04 #@! TD*
D20*
G04 #@! TO.C,REF\002A\002A*
X95250000Y-27000000D03*
G04 #@! TD*
D16*
G04 #@! TO.C,D23*
X57108000Y-77207000D03*
X58058000Y-75207000D03*
X56158000Y-75207000D03*
G04 #@! TD*
D10*
G04 #@! TO.C,SW38*
X35910000Y-57490000D03*
X22460000Y-60030000D03*
D11*
X26010000Y-60030000D03*
X32360000Y-57490000D03*
D12*
X23470000Y-54950000D03*
X33630000Y-54950000D03*
D13*
X28550000Y-54950000D03*
G04 #@! TD*
D20*
G04 #@! TO.C,REF\002A\002A*
X95250000Y-64500000D03*
G04 #@! TD*
D10*
G04 #@! TO.C,SW48*
X97390000Y-71460000D03*
X110840000Y-68920000D03*
D11*
X107290000Y-68920000D03*
X100940000Y-71460000D03*
D12*
X109830000Y-74000000D03*
X99670000Y-74000000D03*
D13*
X104750000Y-74000000D03*
G04 #@! TD*
D20*
G04 #@! TO.C,REF\002A\002A*
X19250000Y-27000000D03*
G04 #@! TD*
D21*
G04 #@! TO.C,Y2*
X46500000Y-8450000D03*
X46500000Y-12550000D03*
G04 #@! TD*
D16*
G04 #@! TO.C,D21*
X88731000Y-65269000D03*
X89681000Y-63269000D03*
X87781000Y-63269000D03*
G04 #@! TD*
D22*
G04 #@! TO.C,D36*
X16950000Y-47000000D03*
X16950000Y-43800000D03*
X21850000Y-47000000D03*
X21850000Y-43800000D03*
G04 #@! TD*
D16*
G04 #@! TO.C,D13*
X28660000Y-26788000D03*
X29610000Y-24788000D03*
X27710000Y-24788000D03*
G04 #@! TD*
G04 #@! TO.C,D20*
X56158000Y-63269000D03*
X58058000Y-63269000D03*
X57108000Y-65269000D03*
G04 #@! TD*
D23*
G04 #@! TO.C,FID4*
X109250000Y-26500000D03*
G04 #@! TD*
D16*
G04 #@! TO.C,D17*
X57047000Y-43965000D03*
X58947000Y-43965000D03*
X57997000Y-45965000D03*
G04 #@! TD*
D24*
G04 #@! TO.C,J6*
X75234000Y-16040000D03*
X77266000Y-16040000D03*
X76250000Y-10960000D03*
D25*
X76885000Y-12230000D03*
X75615000Y-12230000D03*
X76885000Y-13500000D03*
X75615000Y-13500000D03*
X76885000Y-14770000D03*
X75615000Y-14770000D03*
G04 #@! TD*
D26*
G04 #@! TO.C,U2*
X37892518Y-11411000D03*
D27*
X34544798Y-8911640D03*
X34544798Y-9412020D03*
X34544798Y-9912400D03*
X34544798Y-10412780D03*
X34544798Y-10913160D03*
X34544798Y-11411000D03*
X34544798Y-11908840D03*
X34544798Y-12409220D03*
X34544798Y-12909600D03*
X34544798Y-13409980D03*
X34544798Y-13910360D03*
D28*
X35393158Y-14758720D03*
X35893538Y-14758720D03*
X36393918Y-14758720D03*
X36894298Y-14758720D03*
X37394678Y-14758720D03*
X37892518Y-14758720D03*
X38390358Y-14758720D03*
X38890738Y-14758720D03*
X39391118Y-14758720D03*
X39891498Y-14758720D03*
X40391878Y-14758720D03*
D27*
X41240238Y-13910360D03*
X41240238Y-13409980D03*
X41240238Y-12909600D03*
X41240238Y-12409220D03*
X41240238Y-11908840D03*
X41240238Y-11411000D03*
X41240238Y-10913160D03*
X41240238Y-10412780D03*
X41240238Y-9912400D03*
X41240238Y-9412020D03*
X41240238Y-8911640D03*
D28*
X40391878Y-8063280D03*
X39891498Y-8063280D03*
X39391118Y-8063280D03*
X38890738Y-8063280D03*
X38390358Y-8063280D03*
X37892518Y-8063280D03*
X37394678Y-8063280D03*
X36894298Y-8063280D03*
X36393918Y-8063280D03*
X35893538Y-8063280D03*
X35393158Y-8063280D03*
G04 #@! TD*
D16*
G04 #@! TO.C,D24*
X95208000Y-77207000D03*
X96158000Y-75207000D03*
X94258000Y-75207000D03*
G04 #@! TD*
D10*
G04 #@! TO.C,SW46*
X59290000Y-71460000D03*
X72740000Y-68920000D03*
D11*
X69190000Y-68920000D03*
X62840000Y-71460000D03*
D12*
X71730000Y-74000000D03*
X61570000Y-74000000D03*
D13*
X66650000Y-74000000D03*
G04 #@! TD*
D14*
G04 #@! TO.C,C8*
G36*
X37825592Y-4839694D02*
X37851681Y-4843564D01*
X37877264Y-4849972D01*
X37902096Y-4858857D01*
X37925938Y-4870134D01*
X37948560Y-4883693D01*
X37969743Y-4899403D01*
X37989285Y-4917115D01*
X38006997Y-4936657D01*
X38022707Y-4957840D01*
X38036266Y-4980462D01*
X38047543Y-5004304D01*
X38056428Y-5029136D01*
X38062836Y-5054719D01*
X38066706Y-5080808D01*
X38068000Y-5107150D01*
X38068000Y-5644650D01*
X38066706Y-5670992D01*
X38062836Y-5697081D01*
X38056428Y-5722664D01*
X38047543Y-5747496D01*
X38036266Y-5771338D01*
X38022707Y-5793960D01*
X38006997Y-5815143D01*
X37989285Y-5834685D01*
X37969743Y-5852397D01*
X37948560Y-5868107D01*
X37925938Y-5881666D01*
X37902096Y-5892943D01*
X37877264Y-5901828D01*
X37851681Y-5908236D01*
X37825592Y-5912106D01*
X37799250Y-5913400D01*
X37186750Y-5913400D01*
X37160408Y-5912106D01*
X37134319Y-5908236D01*
X37108736Y-5901828D01*
X37083904Y-5892943D01*
X37060062Y-5881666D01*
X37037440Y-5868107D01*
X37016257Y-5852397D01*
X36996715Y-5834685D01*
X36979003Y-5815143D01*
X36963293Y-5793960D01*
X36949734Y-5771338D01*
X36938457Y-5747496D01*
X36929572Y-5722664D01*
X36923164Y-5697081D01*
X36919294Y-5670992D01*
X36918000Y-5644650D01*
X36918000Y-5107150D01*
X36919294Y-5080808D01*
X36923164Y-5054719D01*
X36929572Y-5029136D01*
X36938457Y-5004304D01*
X36949734Y-4980462D01*
X36963293Y-4957840D01*
X36979003Y-4936657D01*
X36996715Y-4917115D01*
X37016257Y-4899403D01*
X37037440Y-4883693D01*
X37060062Y-4870134D01*
X37083904Y-4858857D01*
X37108736Y-4849972D01*
X37134319Y-4843564D01*
X37160408Y-4839694D01*
X37186750Y-4838400D01*
X37799250Y-4838400D01*
X37825592Y-4839694D01*
X37825592Y-4839694D01*
G37*
D15*
X37493000Y-5375900D03*
D14*
G36*
X37825592Y-3264694D02*
X37851681Y-3268564D01*
X37877264Y-3274972D01*
X37902096Y-3283857D01*
X37925938Y-3295134D01*
X37948560Y-3308693D01*
X37969743Y-3324403D01*
X37989285Y-3342115D01*
X38006997Y-3361657D01*
X38022707Y-3382840D01*
X38036266Y-3405462D01*
X38047543Y-3429304D01*
X38056428Y-3454136D01*
X38062836Y-3479719D01*
X38066706Y-3505808D01*
X38068000Y-3532150D01*
X38068000Y-4069650D01*
X38066706Y-4095992D01*
X38062836Y-4122081D01*
X38056428Y-4147664D01*
X38047543Y-4172496D01*
X38036266Y-4196338D01*
X38022707Y-4218960D01*
X38006997Y-4240143D01*
X37989285Y-4259685D01*
X37969743Y-4277397D01*
X37948560Y-4293107D01*
X37925938Y-4306666D01*
X37902096Y-4317943D01*
X37877264Y-4326828D01*
X37851681Y-4333236D01*
X37825592Y-4337106D01*
X37799250Y-4338400D01*
X37186750Y-4338400D01*
X37160408Y-4337106D01*
X37134319Y-4333236D01*
X37108736Y-4326828D01*
X37083904Y-4317943D01*
X37060062Y-4306666D01*
X37037440Y-4293107D01*
X37016257Y-4277397D01*
X36996715Y-4259685D01*
X36979003Y-4240143D01*
X36963293Y-4218960D01*
X36949734Y-4196338D01*
X36938457Y-4172496D01*
X36929572Y-4147664D01*
X36923164Y-4122081D01*
X36919294Y-4095992D01*
X36918000Y-4069650D01*
X36918000Y-3532150D01*
X36919294Y-3505808D01*
X36923164Y-3479719D01*
X36929572Y-3454136D01*
X36938457Y-3429304D01*
X36949734Y-3405462D01*
X36963293Y-3382840D01*
X36979003Y-3361657D01*
X36996715Y-3342115D01*
X37016257Y-3324403D01*
X37037440Y-3308693D01*
X37060062Y-3295134D01*
X37083904Y-3283857D01*
X37108736Y-3274972D01*
X37134319Y-3268564D01*
X37160408Y-3264694D01*
X37186750Y-3263400D01*
X37799250Y-3263400D01*
X37825592Y-3264694D01*
X37825592Y-3264694D01*
G37*
D15*
X37493000Y-3800900D03*
G04 #@! TD*
D14*
G04 #@! TO.C,R10*
G36*
X47014592Y-25849294D02*
X47040681Y-25853164D01*
X47066264Y-25859572D01*
X47091096Y-25868457D01*
X47114938Y-25879734D01*
X47137560Y-25893293D01*
X47158743Y-25909003D01*
X47178285Y-25926715D01*
X47195997Y-25946257D01*
X47211707Y-25967440D01*
X47225266Y-25990062D01*
X47236543Y-26013904D01*
X47245428Y-26038736D01*
X47251836Y-26064319D01*
X47255706Y-26090408D01*
X47257000Y-26116750D01*
X47257000Y-26729250D01*
X47255706Y-26755592D01*
X47251836Y-26781681D01*
X47245428Y-26807264D01*
X47236543Y-26832096D01*
X47225266Y-26855938D01*
X47211707Y-26878560D01*
X47195997Y-26899743D01*
X47178285Y-26919285D01*
X47158743Y-26936997D01*
X47137560Y-26952707D01*
X47114938Y-26966266D01*
X47091096Y-26977543D01*
X47066264Y-26986428D01*
X47040681Y-26992836D01*
X47014592Y-26996706D01*
X46988250Y-26998000D01*
X46450750Y-26998000D01*
X46424408Y-26996706D01*
X46398319Y-26992836D01*
X46372736Y-26986428D01*
X46347904Y-26977543D01*
X46324062Y-26966266D01*
X46301440Y-26952707D01*
X46280257Y-26936997D01*
X46260715Y-26919285D01*
X46243003Y-26899743D01*
X46227293Y-26878560D01*
X46213734Y-26855938D01*
X46202457Y-26832096D01*
X46193572Y-26807264D01*
X46187164Y-26781681D01*
X46183294Y-26755592D01*
X46182000Y-26729250D01*
X46182000Y-26116750D01*
X46183294Y-26090408D01*
X46187164Y-26064319D01*
X46193572Y-26038736D01*
X46202457Y-26013904D01*
X46213734Y-25990062D01*
X46227293Y-25967440D01*
X46243003Y-25946257D01*
X46260715Y-25926715D01*
X46280257Y-25909003D01*
X46301440Y-25893293D01*
X46324062Y-25879734D01*
X46347904Y-25868457D01*
X46372736Y-25859572D01*
X46398319Y-25853164D01*
X46424408Y-25849294D01*
X46450750Y-25848000D01*
X46988250Y-25848000D01*
X47014592Y-25849294D01*
X47014592Y-25849294D01*
G37*
D15*
X46719500Y-26423000D03*
D14*
G36*
X45439592Y-25849294D02*
X45465681Y-25853164D01*
X45491264Y-25859572D01*
X45516096Y-25868457D01*
X45539938Y-25879734D01*
X45562560Y-25893293D01*
X45583743Y-25909003D01*
X45603285Y-25926715D01*
X45620997Y-25946257D01*
X45636707Y-25967440D01*
X45650266Y-25990062D01*
X45661543Y-26013904D01*
X45670428Y-26038736D01*
X45676836Y-26064319D01*
X45680706Y-26090408D01*
X45682000Y-26116750D01*
X45682000Y-26729250D01*
X45680706Y-26755592D01*
X45676836Y-26781681D01*
X45670428Y-26807264D01*
X45661543Y-26832096D01*
X45650266Y-26855938D01*
X45636707Y-26878560D01*
X45620997Y-26899743D01*
X45603285Y-26919285D01*
X45583743Y-26936997D01*
X45562560Y-26952707D01*
X45539938Y-26966266D01*
X45516096Y-26977543D01*
X45491264Y-26986428D01*
X45465681Y-26992836D01*
X45439592Y-26996706D01*
X45413250Y-26998000D01*
X44875750Y-26998000D01*
X44849408Y-26996706D01*
X44823319Y-26992836D01*
X44797736Y-26986428D01*
X44772904Y-26977543D01*
X44749062Y-26966266D01*
X44726440Y-26952707D01*
X44705257Y-26936997D01*
X44685715Y-26919285D01*
X44668003Y-26899743D01*
X44652293Y-26878560D01*
X44638734Y-26855938D01*
X44627457Y-26832096D01*
X44618572Y-26807264D01*
X44612164Y-26781681D01*
X44608294Y-26755592D01*
X44607000Y-26729250D01*
X44607000Y-26116750D01*
X44608294Y-26090408D01*
X44612164Y-26064319D01*
X44618572Y-26038736D01*
X44627457Y-26013904D01*
X44638734Y-25990062D01*
X44652293Y-25967440D01*
X44668003Y-25946257D01*
X44685715Y-25926715D01*
X44705257Y-25909003D01*
X44726440Y-25893293D01*
X44749062Y-25879734D01*
X44772904Y-25868457D01*
X44797736Y-25859572D01*
X44823319Y-25853164D01*
X44849408Y-25849294D01*
X44875750Y-25848000D01*
X45413250Y-25848000D01*
X45439592Y-25849294D01*
X45439592Y-25849294D01*
G37*
D15*
X45144500Y-26423000D03*
G04 #@! TD*
D10*
G04 #@! TO.C,SW33*
X54960000Y-38440000D03*
X41510000Y-40980000D03*
D11*
X45060000Y-40980000D03*
X51410000Y-38440000D03*
D12*
X42520000Y-35900000D03*
X52680000Y-35900000D03*
D13*
X47600000Y-35900000D03*
G04 #@! TD*
D16*
G04 #@! TO.C,D15*
X89835000Y-26788000D03*
X90785000Y-24788000D03*
X88885000Y-24788000D03*
G04 #@! TD*
G04 #@! TO.C,D19*
X28025000Y-65269000D03*
X28975000Y-63269000D03*
X27075000Y-63269000D03*
G04 #@! TD*
D22*
G04 #@! TO.C,D37*
X40550000Y-62900000D03*
X40550000Y-66100000D03*
X35650000Y-62900000D03*
X35650000Y-66100000D03*
G04 #@! TD*
D10*
G04 #@! TO.C,SW32*
X35910000Y-38440000D03*
X22460000Y-40980000D03*
D11*
X26010000Y-40980000D03*
X32360000Y-38440000D03*
D12*
X23470000Y-35900000D03*
X33630000Y-35900000D03*
D13*
X28550000Y-35900000D03*
G04 #@! TD*
D23*
G04 #@! TO.C,FID5*
X3500000Y-12750000D03*
G04 #@! TD*
D16*
G04 #@! TO.C,D22*
X36473000Y-75334000D03*
X38373000Y-75334000D03*
X37423000Y-77334000D03*
G04 #@! TD*
D14*
G04 #@! TO.C,C19*
G36*
X94707592Y-48326294D02*
X94733681Y-48330164D01*
X94759264Y-48336572D01*
X94784096Y-48345457D01*
X94807938Y-48356734D01*
X94830560Y-48370293D01*
X94851743Y-48386003D01*
X94871285Y-48403715D01*
X94888997Y-48423257D01*
X94904707Y-48444440D01*
X94918266Y-48467062D01*
X94929543Y-48490904D01*
X94938428Y-48515736D01*
X94944836Y-48541319D01*
X94948706Y-48567408D01*
X94950000Y-48593750D01*
X94950000Y-49206250D01*
X94948706Y-49232592D01*
X94944836Y-49258681D01*
X94938428Y-49284264D01*
X94929543Y-49309096D01*
X94918266Y-49332938D01*
X94904707Y-49355560D01*
X94888997Y-49376743D01*
X94871285Y-49396285D01*
X94851743Y-49413997D01*
X94830560Y-49429707D01*
X94807938Y-49443266D01*
X94784096Y-49454543D01*
X94759264Y-49463428D01*
X94733681Y-49469836D01*
X94707592Y-49473706D01*
X94681250Y-49475000D01*
X94143750Y-49475000D01*
X94117408Y-49473706D01*
X94091319Y-49469836D01*
X94065736Y-49463428D01*
X94040904Y-49454543D01*
X94017062Y-49443266D01*
X93994440Y-49429707D01*
X93973257Y-49413997D01*
X93953715Y-49396285D01*
X93936003Y-49376743D01*
X93920293Y-49355560D01*
X93906734Y-49332938D01*
X93895457Y-49309096D01*
X93886572Y-49284264D01*
X93880164Y-49258681D01*
X93876294Y-49232592D01*
X93875000Y-49206250D01*
X93875000Y-48593750D01*
X93876294Y-48567408D01*
X93880164Y-48541319D01*
X93886572Y-48515736D01*
X93895457Y-48490904D01*
X93906734Y-48467062D01*
X93920293Y-48444440D01*
X93936003Y-48423257D01*
X93953715Y-48403715D01*
X93973257Y-48386003D01*
X93994440Y-48370293D01*
X94017062Y-48356734D01*
X94040904Y-48345457D01*
X94065736Y-48336572D01*
X94091319Y-48330164D01*
X94117408Y-48326294D01*
X94143750Y-48325000D01*
X94681250Y-48325000D01*
X94707592Y-48326294D01*
X94707592Y-48326294D01*
G37*
D15*
X94412500Y-48900000D03*
D14*
G36*
X96282592Y-48326294D02*
X96308681Y-48330164D01*
X96334264Y-48336572D01*
X96359096Y-48345457D01*
X96382938Y-48356734D01*
X96405560Y-48370293D01*
X96426743Y-48386003D01*
X96446285Y-48403715D01*
X96463997Y-48423257D01*
X96479707Y-48444440D01*
X96493266Y-48467062D01*
X96504543Y-48490904D01*
X96513428Y-48515736D01*
X96519836Y-48541319D01*
X96523706Y-48567408D01*
X96525000Y-48593750D01*
X96525000Y-49206250D01*
X96523706Y-49232592D01*
X96519836Y-49258681D01*
X96513428Y-49284264D01*
X96504543Y-49309096D01*
X96493266Y-49332938D01*
X96479707Y-49355560D01*
X96463997Y-49376743D01*
X96446285Y-49396285D01*
X96426743Y-49413997D01*
X96405560Y-49429707D01*
X96382938Y-49443266D01*
X96359096Y-49454543D01*
X96334264Y-49463428D01*
X96308681Y-49469836D01*
X96282592Y-49473706D01*
X96256250Y-49475000D01*
X95718750Y-49475000D01*
X95692408Y-49473706D01*
X95666319Y-49469836D01*
X95640736Y-49463428D01*
X95615904Y-49454543D01*
X95592062Y-49443266D01*
X95569440Y-49429707D01*
X95548257Y-49413997D01*
X95528715Y-49396285D01*
X95511003Y-49376743D01*
X95495293Y-49355560D01*
X95481734Y-49332938D01*
X95470457Y-49309096D01*
X95461572Y-49284264D01*
X95455164Y-49258681D01*
X95451294Y-49232592D01*
X95450000Y-49206250D01*
X95450000Y-48593750D01*
X95451294Y-48567408D01*
X95455164Y-48541319D01*
X95461572Y-48515736D01*
X95470457Y-48490904D01*
X95481734Y-48467062D01*
X95495293Y-48444440D01*
X95511003Y-48423257D01*
X95528715Y-48403715D01*
X95548257Y-48386003D01*
X95569440Y-48370293D01*
X95592062Y-48356734D01*
X95615904Y-48345457D01*
X95640736Y-48336572D01*
X95666319Y-48330164D01*
X95692408Y-48326294D01*
X95718750Y-48325000D01*
X96256250Y-48325000D01*
X96282592Y-48326294D01*
X96282592Y-48326294D01*
G37*
D15*
X95987500Y-48900000D03*
G04 #@! TD*
D14*
G04 #@! TO.C,C17*
G36*
X39082592Y-67526294D02*
X39108681Y-67530164D01*
X39134264Y-67536572D01*
X39159096Y-67545457D01*
X39182938Y-67556734D01*
X39205560Y-67570293D01*
X39226743Y-67586003D01*
X39246285Y-67603715D01*
X39263997Y-67623257D01*
X39279707Y-67644440D01*
X39293266Y-67667062D01*
X39304543Y-67690904D01*
X39313428Y-67715736D01*
X39319836Y-67741319D01*
X39323706Y-67767408D01*
X39325000Y-67793750D01*
X39325000Y-68406250D01*
X39323706Y-68432592D01*
X39319836Y-68458681D01*
X39313428Y-68484264D01*
X39304543Y-68509096D01*
X39293266Y-68532938D01*
X39279707Y-68555560D01*
X39263997Y-68576743D01*
X39246285Y-68596285D01*
X39226743Y-68613997D01*
X39205560Y-68629707D01*
X39182938Y-68643266D01*
X39159096Y-68654543D01*
X39134264Y-68663428D01*
X39108681Y-68669836D01*
X39082592Y-68673706D01*
X39056250Y-68675000D01*
X38518750Y-68675000D01*
X38492408Y-68673706D01*
X38466319Y-68669836D01*
X38440736Y-68663428D01*
X38415904Y-68654543D01*
X38392062Y-68643266D01*
X38369440Y-68629707D01*
X38348257Y-68613997D01*
X38328715Y-68596285D01*
X38311003Y-68576743D01*
X38295293Y-68555560D01*
X38281734Y-68532938D01*
X38270457Y-68509096D01*
X38261572Y-68484264D01*
X38255164Y-68458681D01*
X38251294Y-68432592D01*
X38250000Y-68406250D01*
X38250000Y-67793750D01*
X38251294Y-67767408D01*
X38255164Y-67741319D01*
X38261572Y-67715736D01*
X38270457Y-67690904D01*
X38281734Y-67667062D01*
X38295293Y-67644440D01*
X38311003Y-67623257D01*
X38328715Y-67603715D01*
X38348257Y-67586003D01*
X38369440Y-67570293D01*
X38392062Y-67556734D01*
X38415904Y-67545457D01*
X38440736Y-67536572D01*
X38466319Y-67530164D01*
X38492408Y-67526294D01*
X38518750Y-67525000D01*
X39056250Y-67525000D01*
X39082592Y-67526294D01*
X39082592Y-67526294D01*
G37*
D15*
X38787500Y-68100000D03*
D14*
G36*
X37507592Y-67526294D02*
X37533681Y-67530164D01*
X37559264Y-67536572D01*
X37584096Y-67545457D01*
X37607938Y-67556734D01*
X37630560Y-67570293D01*
X37651743Y-67586003D01*
X37671285Y-67603715D01*
X37688997Y-67623257D01*
X37704707Y-67644440D01*
X37718266Y-67667062D01*
X37729543Y-67690904D01*
X37738428Y-67715736D01*
X37744836Y-67741319D01*
X37748706Y-67767408D01*
X37750000Y-67793750D01*
X37750000Y-68406250D01*
X37748706Y-68432592D01*
X37744836Y-68458681D01*
X37738428Y-68484264D01*
X37729543Y-68509096D01*
X37718266Y-68532938D01*
X37704707Y-68555560D01*
X37688997Y-68576743D01*
X37671285Y-68596285D01*
X37651743Y-68613997D01*
X37630560Y-68629707D01*
X37607938Y-68643266D01*
X37584096Y-68654543D01*
X37559264Y-68663428D01*
X37533681Y-68669836D01*
X37507592Y-68673706D01*
X37481250Y-68675000D01*
X36943750Y-68675000D01*
X36917408Y-68673706D01*
X36891319Y-68669836D01*
X36865736Y-68663428D01*
X36840904Y-68654543D01*
X36817062Y-68643266D01*
X36794440Y-68629707D01*
X36773257Y-68613997D01*
X36753715Y-68596285D01*
X36736003Y-68576743D01*
X36720293Y-68555560D01*
X36706734Y-68532938D01*
X36695457Y-68509096D01*
X36686572Y-68484264D01*
X36680164Y-68458681D01*
X36676294Y-68432592D01*
X36675000Y-68406250D01*
X36675000Y-67793750D01*
X36676294Y-67767408D01*
X36680164Y-67741319D01*
X36686572Y-67715736D01*
X36695457Y-67690904D01*
X36706734Y-67667062D01*
X36720293Y-67644440D01*
X36736003Y-67623257D01*
X36753715Y-67603715D01*
X36773257Y-67586003D01*
X36794440Y-67570293D01*
X36817062Y-67556734D01*
X36840904Y-67545457D01*
X36865736Y-67536572D01*
X36891319Y-67530164D01*
X36917408Y-67526294D01*
X36943750Y-67525000D01*
X37481250Y-67525000D01*
X37507592Y-67526294D01*
X37507592Y-67526294D01*
G37*
D15*
X37212500Y-68100000D03*
G04 #@! TD*
D14*
G04 #@! TO.C,C18*
G36*
X77520092Y-22326294D02*
X77546181Y-22330164D01*
X77571764Y-22336572D01*
X77596596Y-22345457D01*
X77620438Y-22356734D01*
X77643060Y-22370293D01*
X77664243Y-22386003D01*
X77683785Y-22403715D01*
X77701497Y-22423257D01*
X77717207Y-22444440D01*
X77730766Y-22467062D01*
X77742043Y-22490904D01*
X77750928Y-22515736D01*
X77757336Y-22541319D01*
X77761206Y-22567408D01*
X77762500Y-22593750D01*
X77762500Y-23206250D01*
X77761206Y-23232592D01*
X77757336Y-23258681D01*
X77750928Y-23284264D01*
X77742043Y-23309096D01*
X77730766Y-23332938D01*
X77717207Y-23355560D01*
X77701497Y-23376743D01*
X77683785Y-23396285D01*
X77664243Y-23413997D01*
X77643060Y-23429707D01*
X77620438Y-23443266D01*
X77596596Y-23454543D01*
X77571764Y-23463428D01*
X77546181Y-23469836D01*
X77520092Y-23473706D01*
X77493750Y-23475000D01*
X76956250Y-23475000D01*
X76929908Y-23473706D01*
X76903819Y-23469836D01*
X76878236Y-23463428D01*
X76853404Y-23454543D01*
X76829562Y-23443266D01*
X76806940Y-23429707D01*
X76785757Y-23413997D01*
X76766215Y-23396285D01*
X76748503Y-23376743D01*
X76732793Y-23355560D01*
X76719234Y-23332938D01*
X76707957Y-23309096D01*
X76699072Y-23284264D01*
X76692664Y-23258681D01*
X76688794Y-23232592D01*
X76687500Y-23206250D01*
X76687500Y-22593750D01*
X76688794Y-22567408D01*
X76692664Y-22541319D01*
X76699072Y-22515736D01*
X76707957Y-22490904D01*
X76719234Y-22467062D01*
X76732793Y-22444440D01*
X76748503Y-22423257D01*
X76766215Y-22403715D01*
X76785757Y-22386003D01*
X76806940Y-22370293D01*
X76829562Y-22356734D01*
X76853404Y-22345457D01*
X76878236Y-22336572D01*
X76903819Y-22330164D01*
X76929908Y-22326294D01*
X76956250Y-22325000D01*
X77493750Y-22325000D01*
X77520092Y-22326294D01*
X77520092Y-22326294D01*
G37*
D15*
X77225000Y-22900000D03*
D14*
G36*
X75945092Y-22326294D02*
X75971181Y-22330164D01*
X75996764Y-22336572D01*
X76021596Y-22345457D01*
X76045438Y-22356734D01*
X76068060Y-22370293D01*
X76089243Y-22386003D01*
X76108785Y-22403715D01*
X76126497Y-22423257D01*
X76142207Y-22444440D01*
X76155766Y-22467062D01*
X76167043Y-22490904D01*
X76175928Y-22515736D01*
X76182336Y-22541319D01*
X76186206Y-22567408D01*
X76187500Y-22593750D01*
X76187500Y-23206250D01*
X76186206Y-23232592D01*
X76182336Y-23258681D01*
X76175928Y-23284264D01*
X76167043Y-23309096D01*
X76155766Y-23332938D01*
X76142207Y-23355560D01*
X76126497Y-23376743D01*
X76108785Y-23396285D01*
X76089243Y-23413997D01*
X76068060Y-23429707D01*
X76045438Y-23443266D01*
X76021596Y-23454543D01*
X75996764Y-23463428D01*
X75971181Y-23469836D01*
X75945092Y-23473706D01*
X75918750Y-23475000D01*
X75381250Y-23475000D01*
X75354908Y-23473706D01*
X75328819Y-23469836D01*
X75303236Y-23463428D01*
X75278404Y-23454543D01*
X75254562Y-23443266D01*
X75231940Y-23429707D01*
X75210757Y-23413997D01*
X75191215Y-23396285D01*
X75173503Y-23376743D01*
X75157793Y-23355560D01*
X75144234Y-23332938D01*
X75132957Y-23309096D01*
X75124072Y-23284264D01*
X75117664Y-23258681D01*
X75113794Y-23232592D01*
X75112500Y-23206250D01*
X75112500Y-22593750D01*
X75113794Y-22567408D01*
X75117664Y-22541319D01*
X75124072Y-22515736D01*
X75132957Y-22490904D01*
X75144234Y-22467062D01*
X75157793Y-22444440D01*
X75173503Y-22423257D01*
X75191215Y-22403715D01*
X75210757Y-22386003D01*
X75231940Y-22370293D01*
X75254562Y-22356734D01*
X75278404Y-22345457D01*
X75303236Y-22336572D01*
X75328819Y-22330164D01*
X75354908Y-22326294D01*
X75381250Y-22325000D01*
X75918750Y-22325000D01*
X75945092Y-22326294D01*
X75945092Y-22326294D01*
G37*
D15*
X75650000Y-22900000D03*
G04 #@! TD*
D22*
G04 #@! TO.C,D39*
X97750000Y-43800000D03*
X97750000Y-47000000D03*
X92850000Y-43800000D03*
X92850000Y-47000000D03*
G04 #@! TD*
D14*
G04 #@! TO.C,C16*
G36*
X18907592Y-48426294D02*
X18933681Y-48430164D01*
X18959264Y-48436572D01*
X18984096Y-48445457D01*
X19007938Y-48456734D01*
X19030560Y-48470293D01*
X19051743Y-48486003D01*
X19071285Y-48503715D01*
X19088997Y-48523257D01*
X19104707Y-48544440D01*
X19118266Y-48567062D01*
X19129543Y-48590904D01*
X19138428Y-48615736D01*
X19144836Y-48641319D01*
X19148706Y-48667408D01*
X19150000Y-48693750D01*
X19150000Y-49306250D01*
X19148706Y-49332592D01*
X19144836Y-49358681D01*
X19138428Y-49384264D01*
X19129543Y-49409096D01*
X19118266Y-49432938D01*
X19104707Y-49455560D01*
X19088997Y-49476743D01*
X19071285Y-49496285D01*
X19051743Y-49513997D01*
X19030560Y-49529707D01*
X19007938Y-49543266D01*
X18984096Y-49554543D01*
X18959264Y-49563428D01*
X18933681Y-49569836D01*
X18907592Y-49573706D01*
X18881250Y-49575000D01*
X18343750Y-49575000D01*
X18317408Y-49573706D01*
X18291319Y-49569836D01*
X18265736Y-49563428D01*
X18240904Y-49554543D01*
X18217062Y-49543266D01*
X18194440Y-49529707D01*
X18173257Y-49513997D01*
X18153715Y-49496285D01*
X18136003Y-49476743D01*
X18120293Y-49455560D01*
X18106734Y-49432938D01*
X18095457Y-49409096D01*
X18086572Y-49384264D01*
X18080164Y-49358681D01*
X18076294Y-49332592D01*
X18075000Y-49306250D01*
X18075000Y-48693750D01*
X18076294Y-48667408D01*
X18080164Y-48641319D01*
X18086572Y-48615736D01*
X18095457Y-48590904D01*
X18106734Y-48567062D01*
X18120293Y-48544440D01*
X18136003Y-48523257D01*
X18153715Y-48503715D01*
X18173257Y-48486003D01*
X18194440Y-48470293D01*
X18217062Y-48456734D01*
X18240904Y-48445457D01*
X18265736Y-48436572D01*
X18291319Y-48430164D01*
X18317408Y-48426294D01*
X18343750Y-48425000D01*
X18881250Y-48425000D01*
X18907592Y-48426294D01*
X18907592Y-48426294D01*
G37*
D15*
X18612500Y-49000000D03*
D14*
G36*
X20482592Y-48426294D02*
X20508681Y-48430164D01*
X20534264Y-48436572D01*
X20559096Y-48445457D01*
X20582938Y-48456734D01*
X20605560Y-48470293D01*
X20626743Y-48486003D01*
X20646285Y-48503715D01*
X20663997Y-48523257D01*
X20679707Y-48544440D01*
X20693266Y-48567062D01*
X20704543Y-48590904D01*
X20713428Y-48615736D01*
X20719836Y-48641319D01*
X20723706Y-48667408D01*
X20725000Y-48693750D01*
X20725000Y-49306250D01*
X20723706Y-49332592D01*
X20719836Y-49358681D01*
X20713428Y-49384264D01*
X20704543Y-49409096D01*
X20693266Y-49432938D01*
X20679707Y-49455560D01*
X20663997Y-49476743D01*
X20646285Y-49496285D01*
X20626743Y-49513997D01*
X20605560Y-49529707D01*
X20582938Y-49543266D01*
X20559096Y-49554543D01*
X20534264Y-49563428D01*
X20508681Y-49569836D01*
X20482592Y-49573706D01*
X20456250Y-49575000D01*
X19918750Y-49575000D01*
X19892408Y-49573706D01*
X19866319Y-49569836D01*
X19840736Y-49563428D01*
X19815904Y-49554543D01*
X19792062Y-49543266D01*
X19769440Y-49529707D01*
X19748257Y-49513997D01*
X19728715Y-49496285D01*
X19711003Y-49476743D01*
X19695293Y-49455560D01*
X19681734Y-49432938D01*
X19670457Y-49409096D01*
X19661572Y-49384264D01*
X19655164Y-49358681D01*
X19651294Y-49332592D01*
X19650000Y-49306250D01*
X19650000Y-48693750D01*
X19651294Y-48667408D01*
X19655164Y-48641319D01*
X19661572Y-48615736D01*
X19670457Y-48590904D01*
X19681734Y-48567062D01*
X19695293Y-48544440D01*
X19711003Y-48523257D01*
X19728715Y-48503715D01*
X19748257Y-48486003D01*
X19769440Y-48470293D01*
X19792062Y-48456734D01*
X19815904Y-48445457D01*
X19840736Y-48436572D01*
X19866319Y-48430164D01*
X19892408Y-48426294D01*
X19918750Y-48425000D01*
X20456250Y-48425000D01*
X20482592Y-48426294D01*
X20482592Y-48426294D01*
G37*
D15*
X20187500Y-49000000D03*
G04 #@! TD*
D29*
G04 #@! TO.C,REF\002A\002A*
X9500000Y-64475000D03*
G04 #@! TD*
D14*
G04 #@! TO.C,C20*
G36*
X77382592Y-67426294D02*
X77408681Y-67430164D01*
X77434264Y-67436572D01*
X77459096Y-67445457D01*
X77482938Y-67456734D01*
X77505560Y-67470293D01*
X77526743Y-67486003D01*
X77546285Y-67503715D01*
X77563997Y-67523257D01*
X77579707Y-67544440D01*
X77593266Y-67567062D01*
X77604543Y-67590904D01*
X77613428Y-67615736D01*
X77619836Y-67641319D01*
X77623706Y-67667408D01*
X77625000Y-67693750D01*
X77625000Y-68306250D01*
X77623706Y-68332592D01*
X77619836Y-68358681D01*
X77613428Y-68384264D01*
X77604543Y-68409096D01*
X77593266Y-68432938D01*
X77579707Y-68455560D01*
X77563997Y-68476743D01*
X77546285Y-68496285D01*
X77526743Y-68513997D01*
X77505560Y-68529707D01*
X77482938Y-68543266D01*
X77459096Y-68554543D01*
X77434264Y-68563428D01*
X77408681Y-68569836D01*
X77382592Y-68573706D01*
X77356250Y-68575000D01*
X76818750Y-68575000D01*
X76792408Y-68573706D01*
X76766319Y-68569836D01*
X76740736Y-68563428D01*
X76715904Y-68554543D01*
X76692062Y-68543266D01*
X76669440Y-68529707D01*
X76648257Y-68513997D01*
X76628715Y-68496285D01*
X76611003Y-68476743D01*
X76595293Y-68455560D01*
X76581734Y-68432938D01*
X76570457Y-68409096D01*
X76561572Y-68384264D01*
X76555164Y-68358681D01*
X76551294Y-68332592D01*
X76550000Y-68306250D01*
X76550000Y-67693750D01*
X76551294Y-67667408D01*
X76555164Y-67641319D01*
X76561572Y-67615736D01*
X76570457Y-67590904D01*
X76581734Y-67567062D01*
X76595293Y-67544440D01*
X76611003Y-67523257D01*
X76628715Y-67503715D01*
X76648257Y-67486003D01*
X76669440Y-67470293D01*
X76692062Y-67456734D01*
X76715904Y-67445457D01*
X76740736Y-67436572D01*
X76766319Y-67430164D01*
X76792408Y-67426294D01*
X76818750Y-67425000D01*
X77356250Y-67425000D01*
X77382592Y-67426294D01*
X77382592Y-67426294D01*
G37*
D15*
X77087500Y-68000000D03*
D14*
G36*
X75807592Y-67426294D02*
X75833681Y-67430164D01*
X75859264Y-67436572D01*
X75884096Y-67445457D01*
X75907938Y-67456734D01*
X75930560Y-67470293D01*
X75951743Y-67486003D01*
X75971285Y-67503715D01*
X75988997Y-67523257D01*
X76004707Y-67544440D01*
X76018266Y-67567062D01*
X76029543Y-67590904D01*
X76038428Y-67615736D01*
X76044836Y-67641319D01*
X76048706Y-67667408D01*
X76050000Y-67693750D01*
X76050000Y-68306250D01*
X76048706Y-68332592D01*
X76044836Y-68358681D01*
X76038428Y-68384264D01*
X76029543Y-68409096D01*
X76018266Y-68432938D01*
X76004707Y-68455560D01*
X75988997Y-68476743D01*
X75971285Y-68496285D01*
X75951743Y-68513997D01*
X75930560Y-68529707D01*
X75907938Y-68543266D01*
X75884096Y-68554543D01*
X75859264Y-68563428D01*
X75833681Y-68569836D01*
X75807592Y-68573706D01*
X75781250Y-68575000D01*
X75243750Y-68575000D01*
X75217408Y-68573706D01*
X75191319Y-68569836D01*
X75165736Y-68563428D01*
X75140904Y-68554543D01*
X75117062Y-68543266D01*
X75094440Y-68529707D01*
X75073257Y-68513997D01*
X75053715Y-68496285D01*
X75036003Y-68476743D01*
X75020293Y-68455560D01*
X75006734Y-68432938D01*
X74995457Y-68409096D01*
X74986572Y-68384264D01*
X74980164Y-68358681D01*
X74976294Y-68332592D01*
X74975000Y-68306250D01*
X74975000Y-67693750D01*
X74976294Y-67667408D01*
X74980164Y-67641319D01*
X74986572Y-67615736D01*
X74995457Y-67590904D01*
X75006734Y-67567062D01*
X75020293Y-67544440D01*
X75036003Y-67523257D01*
X75053715Y-67503715D01*
X75073257Y-67486003D01*
X75094440Y-67470293D01*
X75117062Y-67456734D01*
X75140904Y-67445457D01*
X75165736Y-67436572D01*
X75191319Y-67430164D01*
X75217408Y-67426294D01*
X75243750Y-67425000D01*
X75781250Y-67425000D01*
X75807592Y-67426294D01*
X75807592Y-67426294D01*
G37*
D15*
X75512500Y-68000000D03*
G04 #@! TD*
D29*
G04 #@! TO.C,REF\002A\002A*
X104750000Y-26375000D03*
G04 #@! TD*
D22*
G04 #@! TO.C,D38*
X78750000Y-24800000D03*
X78750000Y-28000000D03*
X73850000Y-24800000D03*
X73850000Y-28000000D03*
G04 #@! TD*
G04 #@! TO.C,D35*
X40400000Y-25800000D03*
X40400000Y-29000000D03*
X35500000Y-25800000D03*
X35500000Y-29000000D03*
G04 #@! TD*
D14*
G04 #@! TO.C,C15*
G36*
X37395092Y-30526294D02*
X37421181Y-30530164D01*
X37446764Y-30536572D01*
X37471596Y-30545457D01*
X37495438Y-30556734D01*
X37518060Y-30570293D01*
X37539243Y-30586003D01*
X37558785Y-30603715D01*
X37576497Y-30623257D01*
X37592207Y-30644440D01*
X37605766Y-30667062D01*
X37617043Y-30690904D01*
X37625928Y-30715736D01*
X37632336Y-30741319D01*
X37636206Y-30767408D01*
X37637500Y-30793750D01*
X37637500Y-31406250D01*
X37636206Y-31432592D01*
X37632336Y-31458681D01*
X37625928Y-31484264D01*
X37617043Y-31509096D01*
X37605766Y-31532938D01*
X37592207Y-31555560D01*
X37576497Y-31576743D01*
X37558785Y-31596285D01*
X37539243Y-31613997D01*
X37518060Y-31629707D01*
X37495438Y-31643266D01*
X37471596Y-31654543D01*
X37446764Y-31663428D01*
X37421181Y-31669836D01*
X37395092Y-31673706D01*
X37368750Y-31675000D01*
X36831250Y-31675000D01*
X36804908Y-31673706D01*
X36778819Y-31669836D01*
X36753236Y-31663428D01*
X36728404Y-31654543D01*
X36704562Y-31643266D01*
X36681940Y-31629707D01*
X36660757Y-31613997D01*
X36641215Y-31596285D01*
X36623503Y-31576743D01*
X36607793Y-31555560D01*
X36594234Y-31532938D01*
X36582957Y-31509096D01*
X36574072Y-31484264D01*
X36567664Y-31458681D01*
X36563794Y-31432592D01*
X36562500Y-31406250D01*
X36562500Y-30793750D01*
X36563794Y-30767408D01*
X36567664Y-30741319D01*
X36574072Y-30715736D01*
X36582957Y-30690904D01*
X36594234Y-30667062D01*
X36607793Y-30644440D01*
X36623503Y-30623257D01*
X36641215Y-30603715D01*
X36660757Y-30586003D01*
X36681940Y-30570293D01*
X36704562Y-30556734D01*
X36728404Y-30545457D01*
X36753236Y-30536572D01*
X36778819Y-30530164D01*
X36804908Y-30526294D01*
X36831250Y-30525000D01*
X37368750Y-30525000D01*
X37395092Y-30526294D01*
X37395092Y-30526294D01*
G37*
D15*
X37100000Y-31100000D03*
D14*
G36*
X38970092Y-30526294D02*
X38996181Y-30530164D01*
X39021764Y-30536572D01*
X39046596Y-30545457D01*
X39070438Y-30556734D01*
X39093060Y-30570293D01*
X39114243Y-30586003D01*
X39133785Y-30603715D01*
X39151497Y-30623257D01*
X39167207Y-30644440D01*
X39180766Y-30667062D01*
X39192043Y-30690904D01*
X39200928Y-30715736D01*
X39207336Y-30741319D01*
X39211206Y-30767408D01*
X39212500Y-30793750D01*
X39212500Y-31406250D01*
X39211206Y-31432592D01*
X39207336Y-31458681D01*
X39200928Y-31484264D01*
X39192043Y-31509096D01*
X39180766Y-31532938D01*
X39167207Y-31555560D01*
X39151497Y-31576743D01*
X39133785Y-31596285D01*
X39114243Y-31613997D01*
X39093060Y-31629707D01*
X39070438Y-31643266D01*
X39046596Y-31654543D01*
X39021764Y-31663428D01*
X38996181Y-31669836D01*
X38970092Y-31673706D01*
X38943750Y-31675000D01*
X38406250Y-31675000D01*
X38379908Y-31673706D01*
X38353819Y-31669836D01*
X38328236Y-31663428D01*
X38303404Y-31654543D01*
X38279562Y-31643266D01*
X38256940Y-31629707D01*
X38235757Y-31613997D01*
X38216215Y-31596285D01*
X38198503Y-31576743D01*
X38182793Y-31555560D01*
X38169234Y-31532938D01*
X38157957Y-31509096D01*
X38149072Y-31484264D01*
X38142664Y-31458681D01*
X38138794Y-31432592D01*
X38137500Y-31406250D01*
X38137500Y-30793750D01*
X38138794Y-30767408D01*
X38142664Y-30741319D01*
X38149072Y-30715736D01*
X38157957Y-30690904D01*
X38169234Y-30667062D01*
X38182793Y-30644440D01*
X38198503Y-30623257D01*
X38216215Y-30603715D01*
X38235757Y-30586003D01*
X38256940Y-30570293D01*
X38279562Y-30556734D01*
X38303404Y-30545457D01*
X38328236Y-30536572D01*
X38353819Y-30530164D01*
X38379908Y-30526294D01*
X38406250Y-30525000D01*
X38943750Y-30525000D01*
X38970092Y-30526294D01*
X38970092Y-30526294D01*
G37*
D15*
X38675000Y-31100000D03*
G04 #@! TD*
D29*
G04 #@! TO.C,REF\002A\002A*
X9500000Y-26375000D03*
G04 #@! TD*
D10*
G04 #@! TO.C,SW31*
X16860000Y-38440000D03*
X3410000Y-40980000D03*
D11*
X6960000Y-40980000D03*
X13310000Y-38440000D03*
D12*
X4420000Y-35900000D03*
X14580000Y-35900000D03*
D13*
X9500000Y-35900000D03*
G04 #@! TD*
D10*
G04 #@! TO.C,SW25*
X16860000Y-19390000D03*
X3410000Y-21930000D03*
D11*
X6960000Y-21930000D03*
X13310000Y-19390000D03*
D12*
X4420000Y-16850000D03*
X14580000Y-16850000D03*
D13*
X9500000Y-16850000D03*
G04 #@! TD*
D10*
G04 #@! TO.C,SW27*
X54960000Y-19390000D03*
X41510000Y-21930000D03*
D11*
X45060000Y-21930000D03*
X51410000Y-19390000D03*
D12*
X42520000Y-16850000D03*
X52680000Y-16850000D03*
D13*
X47600000Y-16850000D03*
G04 #@! TD*
D10*
G04 #@! TO.C,SW26*
X35910000Y-19390000D03*
X22460000Y-21930000D03*
D11*
X26010000Y-21930000D03*
X32360000Y-19390000D03*
D12*
X23470000Y-16850000D03*
X33630000Y-16850000D03*
D13*
X28550000Y-16850000D03*
G04 #@! TD*
D12*
G04 #@! TO.C,P8*
X19057500Y-5628000D03*
X19057500Y-12628000D03*
D30*
X22757500Y-13928000D03*
D31*
X22757500Y-4528000D03*
X15357500Y-6428000D03*
D32*
X22757500Y-1728000D03*
G04 #@! TD*
D22*
G04 #@! TO.C,D40*
X78650000Y-62900000D03*
X78650000Y-66100000D03*
X73750000Y-62900000D03*
X73750000Y-66100000D03*
G04 #@! TD*
D14*
G04 #@! TO.C,R7*
G36*
X64235592Y-2862294D02*
X64261681Y-2866164D01*
X64287264Y-2872572D01*
X64312096Y-2881457D01*
X64335938Y-2892734D01*
X64358560Y-2906293D01*
X64379743Y-2922003D01*
X64399285Y-2939715D01*
X64416997Y-2959257D01*
X64432707Y-2980440D01*
X64446266Y-3003062D01*
X64457543Y-3026904D01*
X64466428Y-3051736D01*
X64472836Y-3077319D01*
X64476706Y-3103408D01*
X64478000Y-3129750D01*
X64478000Y-3742250D01*
X64476706Y-3768592D01*
X64472836Y-3794681D01*
X64466428Y-3820264D01*
X64457543Y-3845096D01*
X64446266Y-3868938D01*
X64432707Y-3891560D01*
X64416997Y-3912743D01*
X64399285Y-3932285D01*
X64379743Y-3949997D01*
X64358560Y-3965707D01*
X64335938Y-3979266D01*
X64312096Y-3990543D01*
X64287264Y-3999428D01*
X64261681Y-4005836D01*
X64235592Y-4009706D01*
X64209250Y-4011000D01*
X63671750Y-4011000D01*
X63645408Y-4009706D01*
X63619319Y-4005836D01*
X63593736Y-3999428D01*
X63568904Y-3990543D01*
X63545062Y-3979266D01*
X63522440Y-3965707D01*
X63501257Y-3949997D01*
X63481715Y-3932285D01*
X63464003Y-3912743D01*
X63448293Y-3891560D01*
X63434734Y-3868938D01*
X63423457Y-3845096D01*
X63414572Y-3820264D01*
X63408164Y-3794681D01*
X63404294Y-3768592D01*
X63403000Y-3742250D01*
X63403000Y-3129750D01*
X63404294Y-3103408D01*
X63408164Y-3077319D01*
X63414572Y-3051736D01*
X63423457Y-3026904D01*
X63434734Y-3003062D01*
X63448293Y-2980440D01*
X63464003Y-2959257D01*
X63481715Y-2939715D01*
X63501257Y-2922003D01*
X63522440Y-2906293D01*
X63545062Y-2892734D01*
X63568904Y-2881457D01*
X63593736Y-2872572D01*
X63619319Y-2866164D01*
X63645408Y-2862294D01*
X63671750Y-2861000D01*
X64209250Y-2861000D01*
X64235592Y-2862294D01*
X64235592Y-2862294D01*
G37*
D15*
X63940500Y-3436000D03*
D14*
G36*
X65810592Y-2862294D02*
X65836681Y-2866164D01*
X65862264Y-2872572D01*
X65887096Y-2881457D01*
X65910938Y-2892734D01*
X65933560Y-2906293D01*
X65954743Y-2922003D01*
X65974285Y-2939715D01*
X65991997Y-2959257D01*
X66007707Y-2980440D01*
X66021266Y-3003062D01*
X66032543Y-3026904D01*
X66041428Y-3051736D01*
X66047836Y-3077319D01*
X66051706Y-3103408D01*
X66053000Y-3129750D01*
X66053000Y-3742250D01*
X66051706Y-3768592D01*
X66047836Y-3794681D01*
X66041428Y-3820264D01*
X66032543Y-3845096D01*
X66021266Y-3868938D01*
X66007707Y-3891560D01*
X65991997Y-3912743D01*
X65974285Y-3932285D01*
X65954743Y-3949997D01*
X65933560Y-3965707D01*
X65910938Y-3979266D01*
X65887096Y-3990543D01*
X65862264Y-3999428D01*
X65836681Y-4005836D01*
X65810592Y-4009706D01*
X65784250Y-4011000D01*
X65246750Y-4011000D01*
X65220408Y-4009706D01*
X65194319Y-4005836D01*
X65168736Y-3999428D01*
X65143904Y-3990543D01*
X65120062Y-3979266D01*
X65097440Y-3965707D01*
X65076257Y-3949997D01*
X65056715Y-3932285D01*
X65039003Y-3912743D01*
X65023293Y-3891560D01*
X65009734Y-3868938D01*
X64998457Y-3845096D01*
X64989572Y-3820264D01*
X64983164Y-3794681D01*
X64979294Y-3768592D01*
X64978000Y-3742250D01*
X64978000Y-3129750D01*
X64979294Y-3103408D01*
X64983164Y-3077319D01*
X64989572Y-3051736D01*
X64998457Y-3026904D01*
X65009734Y-3003062D01*
X65023293Y-2980440D01*
X65039003Y-2959257D01*
X65056715Y-2939715D01*
X65076257Y-2922003D01*
X65097440Y-2906293D01*
X65120062Y-2892734D01*
X65143904Y-2881457D01*
X65168736Y-2872572D01*
X65194319Y-2866164D01*
X65220408Y-2862294D01*
X65246750Y-2861000D01*
X65784250Y-2861000D01*
X65810592Y-2862294D01*
X65810592Y-2862294D01*
G37*
D15*
X65515500Y-3436000D03*
G04 #@! TD*
D23*
G04 #@! TO.C,FID3*
X5000000Y-46000000D03*
G04 #@! TD*
D10*
G04 #@! TO.C,SW42*
X112110000Y-57490000D03*
X98660000Y-60030000D03*
D11*
X102210000Y-60030000D03*
X108560000Y-57490000D03*
D12*
X99670000Y-54950000D03*
X109830000Y-54950000D03*
D13*
X104750000Y-54950000D03*
G04 #@! TD*
D33*
G04 #@! TO.C,J5*
X57176000Y-32896000D03*
D34*
X57176000Y-26296000D03*
G04 #@! TD*
D14*
G04 #@! TO.C,R8*
G36*
X64235592Y-4386294D02*
X64261681Y-4390164D01*
X64287264Y-4396572D01*
X64312096Y-4405457D01*
X64335938Y-4416734D01*
X64358560Y-4430293D01*
X64379743Y-4446003D01*
X64399285Y-4463715D01*
X64416997Y-4483257D01*
X64432707Y-4504440D01*
X64446266Y-4527062D01*
X64457543Y-4550904D01*
X64466428Y-4575736D01*
X64472836Y-4601319D01*
X64476706Y-4627408D01*
X64478000Y-4653750D01*
X64478000Y-5266250D01*
X64476706Y-5292592D01*
X64472836Y-5318681D01*
X64466428Y-5344264D01*
X64457543Y-5369096D01*
X64446266Y-5392938D01*
X64432707Y-5415560D01*
X64416997Y-5436743D01*
X64399285Y-5456285D01*
X64379743Y-5473997D01*
X64358560Y-5489707D01*
X64335938Y-5503266D01*
X64312096Y-5514543D01*
X64287264Y-5523428D01*
X64261681Y-5529836D01*
X64235592Y-5533706D01*
X64209250Y-5535000D01*
X63671750Y-5535000D01*
X63645408Y-5533706D01*
X63619319Y-5529836D01*
X63593736Y-5523428D01*
X63568904Y-5514543D01*
X63545062Y-5503266D01*
X63522440Y-5489707D01*
X63501257Y-5473997D01*
X63481715Y-5456285D01*
X63464003Y-5436743D01*
X63448293Y-5415560D01*
X63434734Y-5392938D01*
X63423457Y-5369096D01*
X63414572Y-5344264D01*
X63408164Y-5318681D01*
X63404294Y-5292592D01*
X63403000Y-5266250D01*
X63403000Y-4653750D01*
X63404294Y-4627408D01*
X63408164Y-4601319D01*
X63414572Y-4575736D01*
X63423457Y-4550904D01*
X63434734Y-4527062D01*
X63448293Y-4504440D01*
X63464003Y-4483257D01*
X63481715Y-4463715D01*
X63501257Y-4446003D01*
X63522440Y-4430293D01*
X63545062Y-4416734D01*
X63568904Y-4405457D01*
X63593736Y-4396572D01*
X63619319Y-4390164D01*
X63645408Y-4386294D01*
X63671750Y-4385000D01*
X64209250Y-4385000D01*
X64235592Y-4386294D01*
X64235592Y-4386294D01*
G37*
D15*
X63940500Y-4960000D03*
D14*
G36*
X65810592Y-4386294D02*
X65836681Y-4390164D01*
X65862264Y-4396572D01*
X65887096Y-4405457D01*
X65910938Y-4416734D01*
X65933560Y-4430293D01*
X65954743Y-4446003D01*
X65974285Y-4463715D01*
X65991997Y-4483257D01*
X66007707Y-4504440D01*
X66021266Y-4527062D01*
X66032543Y-4550904D01*
X66041428Y-4575736D01*
X66047836Y-4601319D01*
X66051706Y-4627408D01*
X66053000Y-4653750D01*
X66053000Y-5266250D01*
X66051706Y-5292592D01*
X66047836Y-5318681D01*
X66041428Y-5344264D01*
X66032543Y-5369096D01*
X66021266Y-5392938D01*
X66007707Y-5415560D01*
X65991997Y-5436743D01*
X65974285Y-5456285D01*
X65954743Y-5473997D01*
X65933560Y-5489707D01*
X65910938Y-5503266D01*
X65887096Y-5514543D01*
X65862264Y-5523428D01*
X65836681Y-5529836D01*
X65810592Y-5533706D01*
X65784250Y-5535000D01*
X65246750Y-5535000D01*
X65220408Y-5533706D01*
X65194319Y-5529836D01*
X65168736Y-5523428D01*
X65143904Y-5514543D01*
X65120062Y-5503266D01*
X65097440Y-5489707D01*
X65076257Y-5473997D01*
X65056715Y-5456285D01*
X65039003Y-5436743D01*
X65023293Y-5415560D01*
X65009734Y-5392938D01*
X64998457Y-5369096D01*
X64989572Y-5344264D01*
X64983164Y-5318681D01*
X64979294Y-5292592D01*
X64978000Y-5266250D01*
X64978000Y-4653750D01*
X64979294Y-4627408D01*
X64983164Y-4601319D01*
X64989572Y-4575736D01*
X64998457Y-4550904D01*
X65009734Y-4527062D01*
X65023293Y-4504440D01*
X65039003Y-4483257D01*
X65056715Y-4463715D01*
X65076257Y-4446003D01*
X65097440Y-4430293D01*
X65120062Y-4416734D01*
X65143904Y-4405457D01*
X65168736Y-4396572D01*
X65194319Y-4390164D01*
X65220408Y-4386294D01*
X65246750Y-4385000D01*
X65784250Y-4385000D01*
X65810592Y-4386294D01*
X65810592Y-4386294D01*
G37*
D15*
X65515500Y-4960000D03*
G04 #@! TD*
D35*
G04 #@! TO.C,P6*
X32470000Y-4452000D03*
X29930000Y-4452000D03*
X27390000Y-4452000D03*
G04 #@! TD*
D10*
G04 #@! TO.C,SW37*
X16860000Y-57490000D03*
X3410000Y-60030000D03*
D11*
X6960000Y-60030000D03*
X13310000Y-57490000D03*
D12*
X4420000Y-54950000D03*
X14580000Y-54950000D03*
D13*
X9500000Y-54950000D03*
G04 #@! TD*
D36*
G04 #@! TO.C,SW44*
X21190000Y-71460000D03*
D14*
G36*
X21170491Y-72808079D02*
X21151732Y-72802388D01*
X21134443Y-72793147D01*
X21119993Y-72781407D01*
X19844993Y-71531407D01*
X19832407Y-71516377D01*
X19822995Y-71499181D01*
X19817119Y-71480479D01*
X19815000Y-71460000D01*
X19815000Y-70210000D01*
X19816921Y-70190491D01*
X19822612Y-70171732D01*
X19831853Y-70154443D01*
X19844289Y-70139289D01*
X19859443Y-70126853D01*
X19876732Y-70117612D01*
X19895491Y-70111921D01*
X19915000Y-70110000D01*
X22465000Y-70110000D01*
X22484509Y-70111921D01*
X22503268Y-70117612D01*
X22520557Y-70126853D01*
X22535711Y-70139289D01*
X22548147Y-70154443D01*
X22557388Y-70171732D01*
X22563079Y-70190491D01*
X22565000Y-70210000D01*
X22565000Y-72710000D01*
X22563079Y-72729509D01*
X22557388Y-72748268D01*
X22548147Y-72765557D01*
X22535711Y-72780711D01*
X22520557Y-72793147D01*
X22503268Y-72802388D01*
X22484509Y-72808079D01*
X22465000Y-72810000D01*
X21190000Y-72810000D01*
X21170491Y-72808079D01*
X21170491Y-72808079D01*
G37*
D10*
X34640000Y-68920000D03*
D11*
X31090000Y-68920000D03*
X24740000Y-71460000D03*
D12*
X33630000Y-74000000D03*
X23470000Y-74000000D03*
D13*
X28550000Y-74000000D03*
G04 #@! TD*
D10*
G04 #@! TO.C,SW36*
X112110000Y-38440000D03*
X98660000Y-40980000D03*
D11*
X102210000Y-40980000D03*
X108560000Y-38440000D03*
D12*
X99670000Y-35900000D03*
X109830000Y-35900000D03*
D13*
X104750000Y-35900000D03*
G04 #@! TD*
D14*
G04 #@! TO.C,R14*
G36*
X39182592Y-22851294D02*
X39208681Y-22855164D01*
X39234264Y-22861572D01*
X39259096Y-22870457D01*
X39282938Y-22881734D01*
X39305560Y-22895293D01*
X39326743Y-22911003D01*
X39346285Y-22928715D01*
X39363997Y-22948257D01*
X39379707Y-22969440D01*
X39393266Y-22992062D01*
X39404543Y-23015904D01*
X39413428Y-23040736D01*
X39419836Y-23066319D01*
X39423706Y-23092408D01*
X39425000Y-23118750D01*
X39425000Y-23656250D01*
X39423706Y-23682592D01*
X39419836Y-23708681D01*
X39413428Y-23734264D01*
X39404543Y-23759096D01*
X39393266Y-23782938D01*
X39379707Y-23805560D01*
X39363997Y-23826743D01*
X39346285Y-23846285D01*
X39326743Y-23863997D01*
X39305560Y-23879707D01*
X39282938Y-23893266D01*
X39259096Y-23904543D01*
X39234264Y-23913428D01*
X39208681Y-23919836D01*
X39182592Y-23923706D01*
X39156250Y-23925000D01*
X38543750Y-23925000D01*
X38517408Y-23923706D01*
X38491319Y-23919836D01*
X38465736Y-23913428D01*
X38440904Y-23904543D01*
X38417062Y-23893266D01*
X38394440Y-23879707D01*
X38373257Y-23863997D01*
X38353715Y-23846285D01*
X38336003Y-23826743D01*
X38320293Y-23805560D01*
X38306734Y-23782938D01*
X38295457Y-23759096D01*
X38286572Y-23734264D01*
X38280164Y-23708681D01*
X38276294Y-23682592D01*
X38275000Y-23656250D01*
X38275000Y-23118750D01*
X38276294Y-23092408D01*
X38280164Y-23066319D01*
X38286572Y-23040736D01*
X38295457Y-23015904D01*
X38306734Y-22992062D01*
X38320293Y-22969440D01*
X38336003Y-22948257D01*
X38353715Y-22928715D01*
X38373257Y-22911003D01*
X38394440Y-22895293D01*
X38417062Y-22881734D01*
X38440904Y-22870457D01*
X38465736Y-22861572D01*
X38491319Y-22855164D01*
X38517408Y-22851294D01*
X38543750Y-22850000D01*
X39156250Y-22850000D01*
X39182592Y-22851294D01*
X39182592Y-22851294D01*
G37*
D15*
X38850000Y-23387500D03*
D14*
G36*
X39182592Y-21276294D02*
X39208681Y-21280164D01*
X39234264Y-21286572D01*
X39259096Y-21295457D01*
X39282938Y-21306734D01*
X39305560Y-21320293D01*
X39326743Y-21336003D01*
X39346285Y-21353715D01*
X39363997Y-21373257D01*
X39379707Y-21394440D01*
X39393266Y-21417062D01*
X39404543Y-21440904D01*
X39413428Y-21465736D01*
X39419836Y-21491319D01*
X39423706Y-21517408D01*
X39425000Y-21543750D01*
X39425000Y-22081250D01*
X39423706Y-22107592D01*
X39419836Y-22133681D01*
X39413428Y-22159264D01*
X39404543Y-22184096D01*
X39393266Y-22207938D01*
X39379707Y-22230560D01*
X39363997Y-22251743D01*
X39346285Y-22271285D01*
X39326743Y-22288997D01*
X39305560Y-22304707D01*
X39282938Y-22318266D01*
X39259096Y-22329543D01*
X39234264Y-22338428D01*
X39208681Y-22344836D01*
X39182592Y-22348706D01*
X39156250Y-22350000D01*
X38543750Y-22350000D01*
X38517408Y-22348706D01*
X38491319Y-22344836D01*
X38465736Y-22338428D01*
X38440904Y-22329543D01*
X38417062Y-22318266D01*
X38394440Y-22304707D01*
X38373257Y-22288997D01*
X38353715Y-22271285D01*
X38336003Y-22251743D01*
X38320293Y-22230560D01*
X38306734Y-22207938D01*
X38295457Y-22184096D01*
X38286572Y-22159264D01*
X38280164Y-22133681D01*
X38276294Y-22107592D01*
X38275000Y-22081250D01*
X38275000Y-21543750D01*
X38276294Y-21517408D01*
X38280164Y-21491319D01*
X38286572Y-21465736D01*
X38295457Y-21440904D01*
X38306734Y-21417062D01*
X38320293Y-21394440D01*
X38336003Y-21373257D01*
X38353715Y-21353715D01*
X38373257Y-21336003D01*
X38394440Y-21320293D01*
X38417062Y-21306734D01*
X38440904Y-21295457D01*
X38465736Y-21286572D01*
X38491319Y-21280164D01*
X38517408Y-21276294D01*
X38543750Y-21275000D01*
X39156250Y-21275000D01*
X39182592Y-21276294D01*
X39182592Y-21276294D01*
G37*
D15*
X38850000Y-21812500D03*
G04 #@! TD*
D37*
G04 #@! TO.C,J10*
X87850000Y-7130000D03*
X87050000Y-7130000D03*
X87850000Y-7130000D03*
X87050000Y-7130000D03*
X81450000Y-7130000D03*
X81450000Y-7130000D03*
X82250000Y-7130000D03*
X82250000Y-7130000D03*
D38*
X81760000Y-5830000D03*
X87540000Y-5830000D03*
D39*
X86400000Y-7130000D03*
X85400000Y-7130000D03*
X85900000Y-7130000D03*
X83400000Y-7130000D03*
X82900000Y-7130000D03*
X84900000Y-7130000D03*
X84400000Y-7130000D03*
X83900000Y-7130000D03*
D40*
X88880000Y-2140000D03*
X80330000Y-2140000D03*
D41*
X88970000Y-6310000D03*
X80330000Y-6310000D03*
G04 #@! TD*
D14*
G04 #@! TO.C,C7*
G36*
X49832592Y-7676294D02*
X49858681Y-7680164D01*
X49884264Y-7686572D01*
X49909096Y-7695457D01*
X49932938Y-7706734D01*
X49955560Y-7720293D01*
X49976743Y-7736003D01*
X49996285Y-7753715D01*
X50013997Y-7773257D01*
X50029707Y-7794440D01*
X50043266Y-7817062D01*
X50054543Y-7840904D01*
X50063428Y-7865736D01*
X50069836Y-7891319D01*
X50073706Y-7917408D01*
X50075000Y-7943750D01*
X50075000Y-8481250D01*
X50073706Y-8507592D01*
X50069836Y-8533681D01*
X50063428Y-8559264D01*
X50054543Y-8584096D01*
X50043266Y-8607938D01*
X50029707Y-8630560D01*
X50013997Y-8651743D01*
X49996285Y-8671285D01*
X49976743Y-8688997D01*
X49955560Y-8704707D01*
X49932938Y-8718266D01*
X49909096Y-8729543D01*
X49884264Y-8738428D01*
X49858681Y-8744836D01*
X49832592Y-8748706D01*
X49806250Y-8750000D01*
X49193750Y-8750000D01*
X49167408Y-8748706D01*
X49141319Y-8744836D01*
X49115736Y-8738428D01*
X49090904Y-8729543D01*
X49067062Y-8718266D01*
X49044440Y-8704707D01*
X49023257Y-8688997D01*
X49003715Y-8671285D01*
X48986003Y-8651743D01*
X48970293Y-8630560D01*
X48956734Y-8607938D01*
X48945457Y-8584096D01*
X48936572Y-8559264D01*
X48930164Y-8533681D01*
X48926294Y-8507592D01*
X48925000Y-8481250D01*
X48925000Y-7943750D01*
X48926294Y-7917408D01*
X48930164Y-7891319D01*
X48936572Y-7865736D01*
X48945457Y-7840904D01*
X48956734Y-7817062D01*
X48970293Y-7794440D01*
X48986003Y-7773257D01*
X49003715Y-7753715D01*
X49023257Y-7736003D01*
X49044440Y-7720293D01*
X49067062Y-7706734D01*
X49090904Y-7695457D01*
X49115736Y-7686572D01*
X49141319Y-7680164D01*
X49167408Y-7676294D01*
X49193750Y-7675000D01*
X49806250Y-7675000D01*
X49832592Y-7676294D01*
X49832592Y-7676294D01*
G37*
D15*
X49500000Y-8212500D03*
D14*
G36*
X49832592Y-9251294D02*
X49858681Y-9255164D01*
X49884264Y-9261572D01*
X49909096Y-9270457D01*
X49932938Y-9281734D01*
X49955560Y-9295293D01*
X49976743Y-9311003D01*
X49996285Y-9328715D01*
X50013997Y-9348257D01*
X50029707Y-9369440D01*
X50043266Y-9392062D01*
X50054543Y-9415904D01*
X50063428Y-9440736D01*
X50069836Y-9466319D01*
X50073706Y-9492408D01*
X50075000Y-9518750D01*
X50075000Y-10056250D01*
X50073706Y-10082592D01*
X50069836Y-10108681D01*
X50063428Y-10134264D01*
X50054543Y-10159096D01*
X50043266Y-10182938D01*
X50029707Y-10205560D01*
X50013997Y-10226743D01*
X49996285Y-10246285D01*
X49976743Y-10263997D01*
X49955560Y-10279707D01*
X49932938Y-10293266D01*
X49909096Y-10304543D01*
X49884264Y-10313428D01*
X49858681Y-10319836D01*
X49832592Y-10323706D01*
X49806250Y-10325000D01*
X49193750Y-10325000D01*
X49167408Y-10323706D01*
X49141319Y-10319836D01*
X49115736Y-10313428D01*
X49090904Y-10304543D01*
X49067062Y-10293266D01*
X49044440Y-10279707D01*
X49023257Y-10263997D01*
X49003715Y-10246285D01*
X48986003Y-10226743D01*
X48970293Y-10205560D01*
X48956734Y-10182938D01*
X48945457Y-10159096D01*
X48936572Y-10134264D01*
X48930164Y-10108681D01*
X48926294Y-10082592D01*
X48925000Y-10056250D01*
X48925000Y-9518750D01*
X48926294Y-9492408D01*
X48930164Y-9466319D01*
X48936572Y-9440736D01*
X48945457Y-9415904D01*
X48956734Y-9392062D01*
X48970293Y-9369440D01*
X48986003Y-9348257D01*
X49003715Y-9328715D01*
X49023257Y-9311003D01*
X49044440Y-9295293D01*
X49067062Y-9281734D01*
X49090904Y-9270457D01*
X49115736Y-9261572D01*
X49141319Y-9255164D01*
X49167408Y-9251294D01*
X49193750Y-9250000D01*
X49806250Y-9250000D01*
X49832592Y-9251294D01*
X49832592Y-9251294D01*
G37*
D15*
X49500000Y-9787500D03*
G04 #@! TD*
D10*
G04 #@! TO.C,SW28*
X74010000Y-19390000D03*
X60560000Y-21930000D03*
D11*
X64110000Y-21930000D03*
X70460000Y-19390000D03*
D12*
X61570000Y-16850000D03*
X71730000Y-16850000D03*
D13*
X66650000Y-16850000D03*
G04 #@! TD*
D10*
G04 #@! TO.C,SW29*
X93060000Y-19390000D03*
X79610000Y-21930000D03*
D11*
X83160000Y-21930000D03*
X89510000Y-19390000D03*
D12*
X80620000Y-16850000D03*
X90780000Y-16850000D03*
D13*
X85700000Y-16850000D03*
G04 #@! TD*
D10*
G04 #@! TO.C,SW34*
X74010000Y-38440000D03*
X60560000Y-40980000D03*
D11*
X64110000Y-40980000D03*
X70460000Y-38440000D03*
D12*
X61570000Y-35900000D03*
X71730000Y-35900000D03*
D13*
X66650000Y-35900000D03*
G04 #@! TD*
D10*
G04 #@! TO.C,SW30*
X112110000Y-19390000D03*
X98660000Y-21930000D03*
D11*
X102210000Y-21930000D03*
X108560000Y-19390000D03*
D12*
X99670000Y-16850000D03*
X109830000Y-16850000D03*
D13*
X104750000Y-16850000D03*
G04 #@! TD*
D20*
G04 #@! TO.C,REF\002A\002A*
X19250000Y-64473000D03*
G04 #@! TD*
D10*
G04 #@! TO.C,SW41*
X93060000Y-57490000D03*
X79610000Y-60030000D03*
D11*
X83160000Y-60030000D03*
X89510000Y-57490000D03*
D12*
X80620000Y-54950000D03*
X90780000Y-54950000D03*
D13*
X85700000Y-54950000D03*
G04 #@! TD*
D16*
G04 #@! TO.C,D18*
X88985000Y-45965000D03*
X89935000Y-43965000D03*
X88035000Y-43965000D03*
G04 #@! TD*
D14*
G04 #@! TO.C,R9*
G36*
X43966592Y-5021294D02*
X43992681Y-5025164D01*
X44018264Y-5031572D01*
X44043096Y-5040457D01*
X44066938Y-5051734D01*
X44089560Y-5065293D01*
X44110743Y-5081003D01*
X44130285Y-5098715D01*
X44147997Y-5118257D01*
X44163707Y-5139440D01*
X44177266Y-5162062D01*
X44188543Y-5185904D01*
X44197428Y-5210736D01*
X44203836Y-5236319D01*
X44207706Y-5262408D01*
X44209000Y-5288750D01*
X44209000Y-5901250D01*
X44207706Y-5927592D01*
X44203836Y-5953681D01*
X44197428Y-5979264D01*
X44188543Y-6004096D01*
X44177266Y-6027938D01*
X44163707Y-6050560D01*
X44147997Y-6071743D01*
X44130285Y-6091285D01*
X44110743Y-6108997D01*
X44089560Y-6124707D01*
X44066938Y-6138266D01*
X44043096Y-6149543D01*
X44018264Y-6158428D01*
X43992681Y-6164836D01*
X43966592Y-6168706D01*
X43940250Y-6170000D01*
X43402750Y-6170000D01*
X43376408Y-6168706D01*
X43350319Y-6164836D01*
X43324736Y-6158428D01*
X43299904Y-6149543D01*
X43276062Y-6138266D01*
X43253440Y-6124707D01*
X43232257Y-6108997D01*
X43212715Y-6091285D01*
X43195003Y-6071743D01*
X43179293Y-6050560D01*
X43165734Y-6027938D01*
X43154457Y-6004096D01*
X43145572Y-5979264D01*
X43139164Y-5953681D01*
X43135294Y-5927592D01*
X43134000Y-5901250D01*
X43134000Y-5288750D01*
X43135294Y-5262408D01*
X43139164Y-5236319D01*
X43145572Y-5210736D01*
X43154457Y-5185904D01*
X43165734Y-5162062D01*
X43179293Y-5139440D01*
X43195003Y-5118257D01*
X43212715Y-5098715D01*
X43232257Y-5081003D01*
X43253440Y-5065293D01*
X43276062Y-5051734D01*
X43299904Y-5040457D01*
X43324736Y-5031572D01*
X43350319Y-5025164D01*
X43376408Y-5021294D01*
X43402750Y-5020000D01*
X43940250Y-5020000D01*
X43966592Y-5021294D01*
X43966592Y-5021294D01*
G37*
D15*
X43671500Y-5595000D03*
D14*
G36*
X42391592Y-5021294D02*
X42417681Y-5025164D01*
X42443264Y-5031572D01*
X42468096Y-5040457D01*
X42491938Y-5051734D01*
X42514560Y-5065293D01*
X42535743Y-5081003D01*
X42555285Y-5098715D01*
X42572997Y-5118257D01*
X42588707Y-5139440D01*
X42602266Y-5162062D01*
X42613543Y-5185904D01*
X42622428Y-5210736D01*
X42628836Y-5236319D01*
X42632706Y-5262408D01*
X42634000Y-5288750D01*
X42634000Y-5901250D01*
X42632706Y-5927592D01*
X42628836Y-5953681D01*
X42622428Y-5979264D01*
X42613543Y-6004096D01*
X42602266Y-6027938D01*
X42588707Y-6050560D01*
X42572997Y-6071743D01*
X42555285Y-6091285D01*
X42535743Y-6108997D01*
X42514560Y-6124707D01*
X42491938Y-6138266D01*
X42468096Y-6149543D01*
X42443264Y-6158428D01*
X42417681Y-6164836D01*
X42391592Y-6168706D01*
X42365250Y-6170000D01*
X41827750Y-6170000D01*
X41801408Y-6168706D01*
X41775319Y-6164836D01*
X41749736Y-6158428D01*
X41724904Y-6149543D01*
X41701062Y-6138266D01*
X41678440Y-6124707D01*
X41657257Y-6108997D01*
X41637715Y-6091285D01*
X41620003Y-6071743D01*
X41604293Y-6050560D01*
X41590734Y-6027938D01*
X41579457Y-6004096D01*
X41570572Y-5979264D01*
X41564164Y-5953681D01*
X41560294Y-5927592D01*
X41559000Y-5901250D01*
X41559000Y-5288750D01*
X41560294Y-5262408D01*
X41564164Y-5236319D01*
X41570572Y-5210736D01*
X41579457Y-5185904D01*
X41590734Y-5162062D01*
X41604293Y-5139440D01*
X41620003Y-5118257D01*
X41637715Y-5098715D01*
X41657257Y-5081003D01*
X41678440Y-5065293D01*
X41701062Y-5051734D01*
X41724904Y-5040457D01*
X41749736Y-5031572D01*
X41775319Y-5025164D01*
X41801408Y-5021294D01*
X41827750Y-5020000D01*
X42365250Y-5020000D01*
X42391592Y-5021294D01*
X42391592Y-5021294D01*
G37*
D15*
X42096500Y-5595000D03*
G04 #@! TD*
D10*
G04 #@! TO.C,SW47*
X78340000Y-71460000D03*
X91790000Y-68920000D03*
D11*
X88240000Y-68920000D03*
X81890000Y-71460000D03*
D12*
X90780000Y-74000000D03*
X80620000Y-74000000D03*
D13*
X85700000Y-74000000D03*
G04 #@! TD*
D42*
G04 #@! TO.C,SW50*
X64540000Y-11700000D03*
X55360000Y-11700000D03*
G04 #@! TD*
D14*
G04 #@! TO.C,D28*
G36*
X54800729Y-14526264D02*
X54826211Y-14530044D01*
X54851200Y-14536303D01*
X54875454Y-14544982D01*
X54898742Y-14555996D01*
X54920837Y-14569239D01*
X54941528Y-14584585D01*
X54960616Y-14601884D01*
X54977915Y-14620972D01*
X54993261Y-14641663D01*
X55006504Y-14663758D01*
X55017518Y-14687046D01*
X55026197Y-14711300D01*
X55032456Y-14736289D01*
X55036236Y-14761771D01*
X55037500Y-14787500D01*
X55037500Y-15312500D01*
X55036236Y-15338229D01*
X55032456Y-15363711D01*
X55026197Y-15388700D01*
X55017518Y-15412954D01*
X55006504Y-15436242D01*
X54993261Y-15458337D01*
X54977915Y-15479028D01*
X54960616Y-15498116D01*
X54941528Y-15515415D01*
X54920837Y-15530761D01*
X54898742Y-15544004D01*
X54875454Y-15555018D01*
X54851200Y-15563697D01*
X54826211Y-15569956D01*
X54800729Y-15573736D01*
X54775000Y-15575000D01*
X53875000Y-15575000D01*
X53849271Y-15573736D01*
X53823789Y-15569956D01*
X53798800Y-15563697D01*
X53774546Y-15555018D01*
X53751258Y-15544004D01*
X53729163Y-15530761D01*
X53708472Y-15515415D01*
X53689384Y-15498116D01*
X53672085Y-15479028D01*
X53656739Y-15458337D01*
X53643496Y-15436242D01*
X53632482Y-15412954D01*
X53623803Y-15388700D01*
X53617544Y-15363711D01*
X53613764Y-15338229D01*
X53612500Y-15312500D01*
X53612500Y-14787500D01*
X53613764Y-14761771D01*
X53617544Y-14736289D01*
X53623803Y-14711300D01*
X53632482Y-14687046D01*
X53643496Y-14663758D01*
X53656739Y-14641663D01*
X53672085Y-14620972D01*
X53689384Y-14601884D01*
X53708472Y-14584585D01*
X53729163Y-14569239D01*
X53751258Y-14555996D01*
X53774546Y-14544982D01*
X53798800Y-14536303D01*
X53823789Y-14530044D01*
X53849271Y-14526264D01*
X53875000Y-14525000D01*
X54775000Y-14525000D01*
X54800729Y-14526264D01*
X54800729Y-14526264D01*
G37*
D43*
X54325000Y-15050000D03*
D14*
G36*
X56425729Y-14526264D02*
X56451211Y-14530044D01*
X56476200Y-14536303D01*
X56500454Y-14544982D01*
X56523742Y-14555996D01*
X56545837Y-14569239D01*
X56566528Y-14584585D01*
X56585616Y-14601884D01*
X56602915Y-14620972D01*
X56618261Y-14641663D01*
X56631504Y-14663758D01*
X56642518Y-14687046D01*
X56651197Y-14711300D01*
X56657456Y-14736289D01*
X56661236Y-14761771D01*
X56662500Y-14787500D01*
X56662500Y-15312500D01*
X56661236Y-15338229D01*
X56657456Y-15363711D01*
X56651197Y-15388700D01*
X56642518Y-15412954D01*
X56631504Y-15436242D01*
X56618261Y-15458337D01*
X56602915Y-15479028D01*
X56585616Y-15498116D01*
X56566528Y-15515415D01*
X56545837Y-15530761D01*
X56523742Y-15544004D01*
X56500454Y-15555018D01*
X56476200Y-15563697D01*
X56451211Y-15569956D01*
X56425729Y-15573736D01*
X56400000Y-15575000D01*
X55500000Y-15575000D01*
X55474271Y-15573736D01*
X55448789Y-15569956D01*
X55423800Y-15563697D01*
X55399546Y-15555018D01*
X55376258Y-15544004D01*
X55354163Y-15530761D01*
X55333472Y-15515415D01*
X55314384Y-15498116D01*
X55297085Y-15479028D01*
X55281739Y-15458337D01*
X55268496Y-15436242D01*
X55257482Y-15412954D01*
X55248803Y-15388700D01*
X55242544Y-15363711D01*
X55238764Y-15338229D01*
X55237500Y-15312500D01*
X55237500Y-14787500D01*
X55238764Y-14761771D01*
X55242544Y-14736289D01*
X55248803Y-14711300D01*
X55257482Y-14687046D01*
X55268496Y-14663758D01*
X55281739Y-14641663D01*
X55297085Y-14620972D01*
X55314384Y-14601884D01*
X55333472Y-14584585D01*
X55354163Y-14569239D01*
X55376258Y-14555996D01*
X55399546Y-14544982D01*
X55423800Y-14536303D01*
X55448789Y-14530044D01*
X55474271Y-14526264D01*
X55500000Y-14525000D01*
X56400000Y-14525000D01*
X56425729Y-14526264D01*
X56425729Y-14526264D01*
G37*
D43*
X55950000Y-15050000D03*
G04 #@! TD*
D36*
G04 #@! TO.C,SW43*
X26385000Y-76540000D03*
D14*
G36*
X26404509Y-75191921D02*
X26423268Y-75197612D01*
X26440557Y-75206853D01*
X26455007Y-75218593D01*
X27730007Y-76468593D01*
X27742593Y-76483623D01*
X27752005Y-76500819D01*
X27757881Y-76519521D01*
X27760000Y-76540000D01*
X27760000Y-77790000D01*
X27758079Y-77809509D01*
X27752388Y-77828268D01*
X27743147Y-77845557D01*
X27730711Y-77860711D01*
X27715557Y-77873147D01*
X27698268Y-77882388D01*
X27679509Y-77888079D01*
X27660000Y-77890000D01*
X25110000Y-77890000D01*
X25090491Y-77888079D01*
X25071732Y-77882388D01*
X25054443Y-77873147D01*
X25039289Y-77860711D01*
X25026853Y-77845557D01*
X25017612Y-77828268D01*
X25011921Y-77809509D01*
X25010000Y-77790000D01*
X25010000Y-75290000D01*
X25011921Y-75270491D01*
X25017612Y-75251732D01*
X25026853Y-75234443D01*
X25039289Y-75219289D01*
X25054443Y-75206853D01*
X25071732Y-75197612D01*
X25090491Y-75191921D01*
X25110000Y-75190000D01*
X26385000Y-75190000D01*
X26404509Y-75191921D01*
X26404509Y-75191921D01*
G37*
D10*
X12935000Y-79080000D03*
D11*
X16485000Y-79080000D03*
X22835000Y-76540000D03*
D12*
X13945000Y-74000000D03*
X24105000Y-74000000D03*
D13*
X19025000Y-74000000D03*
G04 #@! TD*
D29*
G04 #@! TO.C,REF\002A\002A*
X104750000Y-64475000D03*
G04 #@! TD*
D14*
G04 #@! TO.C,R16*
G36*
X58007592Y-14476294D02*
X58033681Y-14480164D01*
X58059264Y-14486572D01*
X58084096Y-14495457D01*
X58107938Y-14506734D01*
X58130560Y-14520293D01*
X58151743Y-14536003D01*
X58171285Y-14553715D01*
X58188997Y-14573257D01*
X58204707Y-14594440D01*
X58218266Y-14617062D01*
X58229543Y-14640904D01*
X58238428Y-14665736D01*
X58244836Y-14691319D01*
X58248706Y-14717408D01*
X58250000Y-14743750D01*
X58250000Y-15356250D01*
X58248706Y-15382592D01*
X58244836Y-15408681D01*
X58238428Y-15434264D01*
X58229543Y-15459096D01*
X58218266Y-15482938D01*
X58204707Y-15505560D01*
X58188997Y-15526743D01*
X58171285Y-15546285D01*
X58151743Y-15563997D01*
X58130560Y-15579707D01*
X58107938Y-15593266D01*
X58084096Y-15604543D01*
X58059264Y-15613428D01*
X58033681Y-15619836D01*
X58007592Y-15623706D01*
X57981250Y-15625000D01*
X57443750Y-15625000D01*
X57417408Y-15623706D01*
X57391319Y-15619836D01*
X57365736Y-15613428D01*
X57340904Y-15604543D01*
X57317062Y-15593266D01*
X57294440Y-15579707D01*
X57273257Y-15563997D01*
X57253715Y-15546285D01*
X57236003Y-15526743D01*
X57220293Y-15505560D01*
X57206734Y-15482938D01*
X57195457Y-15459096D01*
X57186572Y-15434264D01*
X57180164Y-15408681D01*
X57176294Y-15382592D01*
X57175000Y-15356250D01*
X57175000Y-14743750D01*
X57176294Y-14717408D01*
X57180164Y-14691319D01*
X57186572Y-14665736D01*
X57195457Y-14640904D01*
X57206734Y-14617062D01*
X57220293Y-14594440D01*
X57236003Y-14573257D01*
X57253715Y-14553715D01*
X57273257Y-14536003D01*
X57294440Y-14520293D01*
X57317062Y-14506734D01*
X57340904Y-14495457D01*
X57365736Y-14486572D01*
X57391319Y-14480164D01*
X57417408Y-14476294D01*
X57443750Y-14475000D01*
X57981250Y-14475000D01*
X58007592Y-14476294D01*
X58007592Y-14476294D01*
G37*
D15*
X57712500Y-15050000D03*
D14*
G36*
X59582592Y-14476294D02*
X59608681Y-14480164D01*
X59634264Y-14486572D01*
X59659096Y-14495457D01*
X59682938Y-14506734D01*
X59705560Y-14520293D01*
X59726743Y-14536003D01*
X59746285Y-14553715D01*
X59763997Y-14573257D01*
X59779707Y-14594440D01*
X59793266Y-14617062D01*
X59804543Y-14640904D01*
X59813428Y-14665736D01*
X59819836Y-14691319D01*
X59823706Y-14717408D01*
X59825000Y-14743750D01*
X59825000Y-15356250D01*
X59823706Y-15382592D01*
X59819836Y-15408681D01*
X59813428Y-15434264D01*
X59804543Y-15459096D01*
X59793266Y-15482938D01*
X59779707Y-15505560D01*
X59763997Y-15526743D01*
X59746285Y-15546285D01*
X59726743Y-15563997D01*
X59705560Y-15579707D01*
X59682938Y-15593266D01*
X59659096Y-15604543D01*
X59634264Y-15613428D01*
X59608681Y-15619836D01*
X59582592Y-15623706D01*
X59556250Y-15625000D01*
X59018750Y-15625000D01*
X58992408Y-15623706D01*
X58966319Y-15619836D01*
X58940736Y-15613428D01*
X58915904Y-15604543D01*
X58892062Y-15593266D01*
X58869440Y-15579707D01*
X58848257Y-15563997D01*
X58828715Y-15546285D01*
X58811003Y-15526743D01*
X58795293Y-15505560D01*
X58781734Y-15482938D01*
X58770457Y-15459096D01*
X58761572Y-15434264D01*
X58755164Y-15408681D01*
X58751294Y-15382592D01*
X58750000Y-15356250D01*
X58750000Y-14743750D01*
X58751294Y-14717408D01*
X58755164Y-14691319D01*
X58761572Y-14665736D01*
X58770457Y-14640904D01*
X58781734Y-14617062D01*
X58795293Y-14594440D01*
X58811003Y-14573257D01*
X58828715Y-14553715D01*
X58848257Y-14536003D01*
X58869440Y-14520293D01*
X58892062Y-14506734D01*
X58915904Y-14495457D01*
X58940736Y-14486572D01*
X58966319Y-14480164D01*
X58992408Y-14476294D01*
X59018750Y-14475000D01*
X59556250Y-14475000D01*
X59582592Y-14476294D01*
X59582592Y-14476294D01*
G37*
D15*
X59287500Y-15050000D03*
G04 #@! TD*
D14*
G04 #@! TO.C,C5*
G36*
X32491592Y-8878294D02*
X32517681Y-8882164D01*
X32543264Y-8888572D01*
X32568096Y-8897457D01*
X32591938Y-8908734D01*
X32614560Y-8922293D01*
X32635743Y-8938003D01*
X32655285Y-8955715D01*
X32672997Y-8975257D01*
X32688707Y-8996440D01*
X32702266Y-9019062D01*
X32713543Y-9042904D01*
X32722428Y-9067736D01*
X32728836Y-9093319D01*
X32732706Y-9119408D01*
X32734000Y-9145750D01*
X32734000Y-9683250D01*
X32732706Y-9709592D01*
X32728836Y-9735681D01*
X32722428Y-9761264D01*
X32713543Y-9786096D01*
X32702266Y-9809938D01*
X32688707Y-9832560D01*
X32672997Y-9853743D01*
X32655285Y-9873285D01*
X32635743Y-9890997D01*
X32614560Y-9906707D01*
X32591938Y-9920266D01*
X32568096Y-9931543D01*
X32543264Y-9940428D01*
X32517681Y-9946836D01*
X32491592Y-9950706D01*
X32465250Y-9952000D01*
X31852750Y-9952000D01*
X31826408Y-9950706D01*
X31800319Y-9946836D01*
X31774736Y-9940428D01*
X31749904Y-9931543D01*
X31726062Y-9920266D01*
X31703440Y-9906707D01*
X31682257Y-9890997D01*
X31662715Y-9873285D01*
X31645003Y-9853743D01*
X31629293Y-9832560D01*
X31615734Y-9809938D01*
X31604457Y-9786096D01*
X31595572Y-9761264D01*
X31589164Y-9735681D01*
X31585294Y-9709592D01*
X31584000Y-9683250D01*
X31584000Y-9145750D01*
X31585294Y-9119408D01*
X31589164Y-9093319D01*
X31595572Y-9067736D01*
X31604457Y-9042904D01*
X31615734Y-9019062D01*
X31629293Y-8996440D01*
X31645003Y-8975257D01*
X31662715Y-8955715D01*
X31682257Y-8938003D01*
X31703440Y-8922293D01*
X31726062Y-8908734D01*
X31749904Y-8897457D01*
X31774736Y-8888572D01*
X31800319Y-8882164D01*
X31826408Y-8878294D01*
X31852750Y-8877000D01*
X32465250Y-8877000D01*
X32491592Y-8878294D01*
X32491592Y-8878294D01*
G37*
D15*
X32159000Y-9414500D03*
D14*
G36*
X32491592Y-7303294D02*
X32517681Y-7307164D01*
X32543264Y-7313572D01*
X32568096Y-7322457D01*
X32591938Y-7333734D01*
X32614560Y-7347293D01*
X32635743Y-7363003D01*
X32655285Y-7380715D01*
X32672997Y-7400257D01*
X32688707Y-7421440D01*
X32702266Y-7444062D01*
X32713543Y-7467904D01*
X32722428Y-7492736D01*
X32728836Y-7518319D01*
X32732706Y-7544408D01*
X32734000Y-7570750D01*
X32734000Y-8108250D01*
X32732706Y-8134592D01*
X32728836Y-8160681D01*
X32722428Y-8186264D01*
X32713543Y-8211096D01*
X32702266Y-8234938D01*
X32688707Y-8257560D01*
X32672997Y-8278743D01*
X32655285Y-8298285D01*
X32635743Y-8315997D01*
X32614560Y-8331707D01*
X32591938Y-8345266D01*
X32568096Y-8356543D01*
X32543264Y-8365428D01*
X32517681Y-8371836D01*
X32491592Y-8375706D01*
X32465250Y-8377000D01*
X31852750Y-8377000D01*
X31826408Y-8375706D01*
X31800319Y-8371836D01*
X31774736Y-8365428D01*
X31749904Y-8356543D01*
X31726062Y-8345266D01*
X31703440Y-8331707D01*
X31682257Y-8315997D01*
X31662715Y-8298285D01*
X31645003Y-8278743D01*
X31629293Y-8257560D01*
X31615734Y-8234938D01*
X31604457Y-8211096D01*
X31595572Y-8186264D01*
X31589164Y-8160681D01*
X31585294Y-8134592D01*
X31584000Y-8108250D01*
X31584000Y-7570750D01*
X31585294Y-7544408D01*
X31589164Y-7518319D01*
X31595572Y-7492736D01*
X31604457Y-7467904D01*
X31615734Y-7444062D01*
X31629293Y-7421440D01*
X31645003Y-7400257D01*
X31662715Y-7380715D01*
X31682257Y-7363003D01*
X31703440Y-7347293D01*
X31726062Y-7333734D01*
X31749904Y-7322457D01*
X31774736Y-7313572D01*
X31800319Y-7307164D01*
X31826408Y-7303294D01*
X31852750Y-7302000D01*
X32465250Y-7302000D01*
X32491592Y-7303294D01*
X32491592Y-7303294D01*
G37*
D15*
X32159000Y-7839500D03*
G04 #@! TD*
D14*
G04 #@! TO.C,R12*
G36*
X28407592Y-13176294D02*
X28433681Y-13180164D01*
X28459264Y-13186572D01*
X28484096Y-13195457D01*
X28507938Y-13206734D01*
X28530560Y-13220293D01*
X28551743Y-13236003D01*
X28571285Y-13253715D01*
X28588997Y-13273257D01*
X28604707Y-13294440D01*
X28618266Y-13317062D01*
X28629543Y-13340904D01*
X28638428Y-13365736D01*
X28644836Y-13391319D01*
X28648706Y-13417408D01*
X28650000Y-13443750D01*
X28650000Y-14056250D01*
X28648706Y-14082592D01*
X28644836Y-14108681D01*
X28638428Y-14134264D01*
X28629543Y-14159096D01*
X28618266Y-14182938D01*
X28604707Y-14205560D01*
X28588997Y-14226743D01*
X28571285Y-14246285D01*
X28551743Y-14263997D01*
X28530560Y-14279707D01*
X28507938Y-14293266D01*
X28484096Y-14304543D01*
X28459264Y-14313428D01*
X28433681Y-14319836D01*
X28407592Y-14323706D01*
X28381250Y-14325000D01*
X27843750Y-14325000D01*
X27817408Y-14323706D01*
X27791319Y-14319836D01*
X27765736Y-14313428D01*
X27740904Y-14304543D01*
X27717062Y-14293266D01*
X27694440Y-14279707D01*
X27673257Y-14263997D01*
X27653715Y-14246285D01*
X27636003Y-14226743D01*
X27620293Y-14205560D01*
X27606734Y-14182938D01*
X27595457Y-14159096D01*
X27586572Y-14134264D01*
X27580164Y-14108681D01*
X27576294Y-14082592D01*
X27575000Y-14056250D01*
X27575000Y-13443750D01*
X27576294Y-13417408D01*
X27580164Y-13391319D01*
X27586572Y-13365736D01*
X27595457Y-13340904D01*
X27606734Y-13317062D01*
X27620293Y-13294440D01*
X27636003Y-13273257D01*
X27653715Y-13253715D01*
X27673257Y-13236003D01*
X27694440Y-13220293D01*
X27717062Y-13206734D01*
X27740904Y-13195457D01*
X27765736Y-13186572D01*
X27791319Y-13180164D01*
X27817408Y-13176294D01*
X27843750Y-13175000D01*
X28381250Y-13175000D01*
X28407592Y-13176294D01*
X28407592Y-13176294D01*
G37*
D15*
X28112500Y-13750000D03*
D14*
G36*
X29982592Y-13176294D02*
X30008681Y-13180164D01*
X30034264Y-13186572D01*
X30059096Y-13195457D01*
X30082938Y-13206734D01*
X30105560Y-13220293D01*
X30126743Y-13236003D01*
X30146285Y-13253715D01*
X30163997Y-13273257D01*
X30179707Y-13294440D01*
X30193266Y-13317062D01*
X30204543Y-13340904D01*
X30213428Y-13365736D01*
X30219836Y-13391319D01*
X30223706Y-13417408D01*
X30225000Y-13443750D01*
X30225000Y-14056250D01*
X30223706Y-14082592D01*
X30219836Y-14108681D01*
X30213428Y-14134264D01*
X30204543Y-14159096D01*
X30193266Y-14182938D01*
X30179707Y-14205560D01*
X30163997Y-14226743D01*
X30146285Y-14246285D01*
X30126743Y-14263997D01*
X30105560Y-14279707D01*
X30082938Y-14293266D01*
X30059096Y-14304543D01*
X30034264Y-14313428D01*
X30008681Y-14319836D01*
X29982592Y-14323706D01*
X29956250Y-14325000D01*
X29418750Y-14325000D01*
X29392408Y-14323706D01*
X29366319Y-14319836D01*
X29340736Y-14313428D01*
X29315904Y-14304543D01*
X29292062Y-14293266D01*
X29269440Y-14279707D01*
X29248257Y-14263997D01*
X29228715Y-14246285D01*
X29211003Y-14226743D01*
X29195293Y-14205560D01*
X29181734Y-14182938D01*
X29170457Y-14159096D01*
X29161572Y-14134264D01*
X29155164Y-14108681D01*
X29151294Y-14082592D01*
X29150000Y-14056250D01*
X29150000Y-13443750D01*
X29151294Y-13417408D01*
X29155164Y-13391319D01*
X29161572Y-13365736D01*
X29170457Y-13340904D01*
X29181734Y-13317062D01*
X29195293Y-13294440D01*
X29211003Y-13273257D01*
X29228715Y-13253715D01*
X29248257Y-13236003D01*
X29269440Y-13220293D01*
X29292062Y-13206734D01*
X29315904Y-13195457D01*
X29340736Y-13186572D01*
X29366319Y-13180164D01*
X29392408Y-13176294D01*
X29418750Y-13175000D01*
X29956250Y-13175000D01*
X29982592Y-13176294D01*
X29982592Y-13176294D01*
G37*
D15*
X29687500Y-13750000D03*
G04 #@! TD*
M02*
