G04 #@! TF.GenerationSoftware,KiCad,Pcbnew,(5.0.1-dev-70-gb7b125d83)*
G04 #@! TF.CreationDate,2019-01-31T16:17:58+01:00*
G04 #@! TF.ProjectId,vitamins_included,766974616D696E735F696E636C756465,rev?*
G04 #@! TF.SameCoordinates,Original*
G04 #@! TF.FileFunction,Soldermask,Top*
G04 #@! TF.FilePolarity,Negative*
%FSLAX46Y46*%
G04 Gerber Fmt 4.6, Leading zero omitted, Abs format (unit mm)*
G04 Created by KiCad (PCBNEW (5.0.1-dev-70-gb7b125d83)) date 01/31/19 16:17:58*
%MOMM*%
%LPD*%
G01*
G04 APERTURE LIST*
%ADD10C,0.010000*%
%ADD11C,3.200000*%
%ADD12C,1.900000*%
%ADD13C,4.200000*%
%ADD14C,2.200000*%
%ADD15R,2.200000X2.200000*%
%ADD16C,6.200000*%
%ADD17C,0.800000*%
%ADD18O,1.100000X1.900000*%
%ADD19O,1.100000X2.200000*%
%ADD20C,2.400000*%
%ADD21O,1.900000X1.900000*%
%ADD22R,1.900000X1.900000*%
%ADD23C,1.190600*%
G04 APERTURE END LIST*
D10*
G04 #@! TO.C,G\002A\002A\002A*
G36*
X66337919Y-2162640D02*
X67283817Y-2475473D01*
X67567897Y-2600277D01*
X68211726Y-2963902D01*
X68713271Y-3397037D01*
X69091455Y-3917376D01*
X69199105Y-4125333D01*
X69292579Y-4337867D01*
X69355184Y-4533714D01*
X69392999Y-4755008D01*
X69412106Y-5043888D01*
X69418583Y-5442488D01*
X69419000Y-5649333D01*
X69406755Y-6240491D01*
X69359333Y-6725422D01*
X69260705Y-7135255D01*
X69094844Y-7501121D01*
X68845719Y-7854150D01*
X68497301Y-8225471D01*
X68033563Y-8646215D01*
X67752718Y-8885456D01*
X67474360Y-9151906D01*
X67233992Y-9438996D01*
X67099370Y-9653020D01*
X66973194Y-10001007D01*
X66926915Y-10330932D01*
X66962718Y-10596732D01*
X67048333Y-10729333D01*
X67164614Y-10867107D01*
X67120273Y-10952538D01*
X66916241Y-10984024D01*
X66900167Y-10984160D01*
X66667125Y-11020896D01*
X66367622Y-11114176D01*
X66180500Y-11191932D01*
X65736000Y-11398876D01*
X65736000Y-11179447D01*
X65727846Y-11055307D01*
X65675923Y-10996079D01*
X65539037Y-10987194D01*
X65275998Y-11014083D01*
X65270333Y-11014749D01*
X64964506Y-11032497D01*
X64811604Y-11000446D01*
X64805241Y-10926196D01*
X64939036Y-10817347D01*
X65206602Y-10681499D01*
X65601557Y-10526252D01*
X65713331Y-10487379D01*
X66371000Y-10263666D01*
X66396269Y-9732089D01*
X66403571Y-9431290D01*
X66377955Y-9238641D01*
X66301626Y-9093637D01*
X66164247Y-8943221D01*
X65896932Y-8752804D01*
X65649540Y-8720999D01*
X65434188Y-8837266D01*
X65262992Y-9091062D01*
X65148071Y-9471848D01*
X65104605Y-9865035D01*
X65083200Y-10348333D01*
X64758198Y-10401171D01*
X64412159Y-10535425D01*
X64238352Y-10697504D01*
X64043508Y-10941000D01*
X64043087Y-10660127D01*
X64029886Y-10472971D01*
X63968368Y-10414741D01*
X63852167Y-10437025D01*
X63647207Y-10537971D01*
X63471167Y-10669156D01*
X63280667Y-10843517D01*
X63280667Y-10665921D01*
X63357019Y-10416871D01*
X63558837Y-10175469D01*
X63845265Y-9981145D01*
X64082423Y-9892147D01*
X64264137Y-9843428D01*
X64385376Y-9784764D01*
X64465647Y-9682372D01*
X64524460Y-9502469D01*
X64581324Y-9211271D01*
X64625594Y-8951541D01*
X64662082Y-8636404D01*
X64642707Y-8461178D01*
X64621301Y-8434660D01*
X64515110Y-8404500D01*
X64269487Y-8351391D01*
X63911940Y-8280762D01*
X63469976Y-8198042D01*
X62971102Y-8108660D01*
X62956883Y-8106167D01*
X62014163Y-7931097D01*
X61222947Y-7761267D01*
X60565737Y-7591284D01*
X60025039Y-7415755D01*
X59583355Y-7229289D01*
X59223190Y-7026494D01*
X59047333Y-6901269D01*
X58851039Y-6705169D01*
X58662215Y-6446924D01*
X58517981Y-6185106D01*
X58455460Y-5978285D01*
X58455100Y-5966833D01*
X58393216Y-5848638D01*
X58234533Y-5818666D01*
X58003633Y-5745691D01*
X57736937Y-5540870D01*
X57715963Y-5520230D01*
X57540051Y-5329764D01*
X57458506Y-5171632D01*
X57445587Y-4980024D01*
X57552813Y-4980024D01*
X57653708Y-5283192D01*
X57839163Y-5522767D01*
X58080426Y-5676685D01*
X58348748Y-5722883D01*
X58615377Y-5639295D01*
X58742341Y-5538689D01*
X58897001Y-5364080D01*
X58992492Y-5221189D01*
X59047585Y-5141335D01*
X59102174Y-5221189D01*
X59279948Y-5471103D01*
X59531726Y-5657797D01*
X59793005Y-5733919D01*
X59800763Y-5734000D01*
X60106393Y-5662585D01*
X60338308Y-5473742D01*
X60489752Y-5205575D01*
X60553974Y-4896186D01*
X60524220Y-4583679D01*
X60393737Y-4306155D01*
X60155771Y-4101719D01*
X60095131Y-4073141D01*
X59773880Y-4007522D01*
X59484827Y-4100749D01*
X59216296Y-4351843D01*
X59074116Y-4494384D01*
X58992985Y-4498853D01*
X58986833Y-4486299D01*
X58812030Y-4219682D01*
X58540309Y-4032756D01*
X58406577Y-3991087D01*
X58136300Y-4016958D01*
X57871085Y-4167878D01*
X57660862Y-4405613D01*
X57565228Y-4635328D01*
X57552813Y-4980024D01*
X57445587Y-4980024D01*
X57444912Y-4970027D01*
X57459552Y-4784425D01*
X57510090Y-4482176D01*
X57613069Y-4272132D01*
X57767791Y-4109195D01*
X57997827Y-3962143D01*
X58258488Y-3878325D01*
X58495057Y-3867069D01*
X58652815Y-3937708D01*
X58666323Y-3955982D01*
X58756317Y-3957174D01*
X58931535Y-3861292D01*
X59060841Y-3765482D01*
X59207584Y-3651958D01*
X59339168Y-3573600D01*
X59491881Y-3522300D01*
X59702015Y-3489947D01*
X60005860Y-3468432D01*
X60439706Y-3449645D01*
X60481565Y-3448000D01*
X61560087Y-3405666D01*
X62018210Y-3055289D01*
X62807482Y-2550826D01*
X63640098Y-2208836D01*
X64510049Y-2029814D01*
X65411326Y-2014251D01*
X66337919Y-2162640D01*
X66337919Y-2162640D01*
G37*
X66337919Y-2162640D02*
X67283817Y-2475473D01*
X67567897Y-2600277D01*
X68211726Y-2963902D01*
X68713271Y-3397037D01*
X69091455Y-3917376D01*
X69199105Y-4125333D01*
X69292579Y-4337867D01*
X69355184Y-4533714D01*
X69392999Y-4755008D01*
X69412106Y-5043888D01*
X69418583Y-5442488D01*
X69419000Y-5649333D01*
X69406755Y-6240491D01*
X69359333Y-6725422D01*
X69260705Y-7135255D01*
X69094844Y-7501121D01*
X68845719Y-7854150D01*
X68497301Y-8225471D01*
X68033563Y-8646215D01*
X67752718Y-8885456D01*
X67474360Y-9151906D01*
X67233992Y-9438996D01*
X67099370Y-9653020D01*
X66973194Y-10001007D01*
X66926915Y-10330932D01*
X66962718Y-10596732D01*
X67048333Y-10729333D01*
X67164614Y-10867107D01*
X67120273Y-10952538D01*
X66916241Y-10984024D01*
X66900167Y-10984160D01*
X66667125Y-11020896D01*
X66367622Y-11114176D01*
X66180500Y-11191932D01*
X65736000Y-11398876D01*
X65736000Y-11179447D01*
X65727846Y-11055307D01*
X65675923Y-10996079D01*
X65539037Y-10987194D01*
X65275998Y-11014083D01*
X65270333Y-11014749D01*
X64964506Y-11032497D01*
X64811604Y-11000446D01*
X64805241Y-10926196D01*
X64939036Y-10817347D01*
X65206602Y-10681499D01*
X65601557Y-10526252D01*
X65713331Y-10487379D01*
X66371000Y-10263666D01*
X66396269Y-9732089D01*
X66403571Y-9431290D01*
X66377955Y-9238641D01*
X66301626Y-9093637D01*
X66164247Y-8943221D01*
X65896932Y-8752804D01*
X65649540Y-8720999D01*
X65434188Y-8837266D01*
X65262992Y-9091062D01*
X65148071Y-9471848D01*
X65104605Y-9865035D01*
X65083200Y-10348333D01*
X64758198Y-10401171D01*
X64412159Y-10535425D01*
X64238352Y-10697504D01*
X64043508Y-10941000D01*
X64043087Y-10660127D01*
X64029886Y-10472971D01*
X63968368Y-10414741D01*
X63852167Y-10437025D01*
X63647207Y-10537971D01*
X63471167Y-10669156D01*
X63280667Y-10843517D01*
X63280667Y-10665921D01*
X63357019Y-10416871D01*
X63558837Y-10175469D01*
X63845265Y-9981145D01*
X64082423Y-9892147D01*
X64264137Y-9843428D01*
X64385376Y-9784764D01*
X64465647Y-9682372D01*
X64524460Y-9502469D01*
X64581324Y-9211271D01*
X64625594Y-8951541D01*
X64662082Y-8636404D01*
X64642707Y-8461178D01*
X64621301Y-8434660D01*
X64515110Y-8404500D01*
X64269487Y-8351391D01*
X63911940Y-8280762D01*
X63469976Y-8198042D01*
X62971102Y-8108660D01*
X62956883Y-8106167D01*
X62014163Y-7931097D01*
X61222947Y-7761267D01*
X60565737Y-7591284D01*
X60025039Y-7415755D01*
X59583355Y-7229289D01*
X59223190Y-7026494D01*
X59047333Y-6901269D01*
X58851039Y-6705169D01*
X58662215Y-6446924D01*
X58517981Y-6185106D01*
X58455460Y-5978285D01*
X58455100Y-5966833D01*
X58393216Y-5848638D01*
X58234533Y-5818666D01*
X58003633Y-5745691D01*
X57736937Y-5540870D01*
X57715963Y-5520230D01*
X57540051Y-5329764D01*
X57458506Y-5171632D01*
X57445587Y-4980024D01*
X57552813Y-4980024D01*
X57653708Y-5283192D01*
X57839163Y-5522767D01*
X58080426Y-5676685D01*
X58348748Y-5722883D01*
X58615377Y-5639295D01*
X58742341Y-5538689D01*
X58897001Y-5364080D01*
X58992492Y-5221189D01*
X59047585Y-5141335D01*
X59102174Y-5221189D01*
X59279948Y-5471103D01*
X59531726Y-5657797D01*
X59793005Y-5733919D01*
X59800763Y-5734000D01*
X60106393Y-5662585D01*
X60338308Y-5473742D01*
X60489752Y-5205575D01*
X60553974Y-4896186D01*
X60524220Y-4583679D01*
X60393737Y-4306155D01*
X60155771Y-4101719D01*
X60095131Y-4073141D01*
X59773880Y-4007522D01*
X59484827Y-4100749D01*
X59216296Y-4351843D01*
X59074116Y-4494384D01*
X58992985Y-4498853D01*
X58986833Y-4486299D01*
X58812030Y-4219682D01*
X58540309Y-4032756D01*
X58406577Y-3991087D01*
X58136300Y-4016958D01*
X57871085Y-4167878D01*
X57660862Y-4405613D01*
X57565228Y-4635328D01*
X57552813Y-4980024D01*
X57445587Y-4980024D01*
X57444912Y-4970027D01*
X57459552Y-4784425D01*
X57510090Y-4482176D01*
X57613069Y-4272132D01*
X57767791Y-4109195D01*
X57997827Y-3962143D01*
X58258488Y-3878325D01*
X58495057Y-3867069D01*
X58652815Y-3937708D01*
X58666323Y-3955982D01*
X58756317Y-3957174D01*
X58931535Y-3861292D01*
X59060841Y-3765482D01*
X59207584Y-3651958D01*
X59339168Y-3573600D01*
X59491881Y-3522300D01*
X59702015Y-3489947D01*
X60005860Y-3468432D01*
X60439706Y-3449645D01*
X60481565Y-3448000D01*
X61560087Y-3405666D01*
X62018210Y-3055289D01*
X62807482Y-2550826D01*
X63640098Y-2208836D01*
X64510049Y-2029814D01*
X65411326Y-2014251D01*
X66337919Y-2162640D01*
G36*
X58631477Y-4696842D02*
X58782006Y-4840593D01*
X58872698Y-4994418D01*
X58878000Y-5029044D01*
X58814510Y-5156230D01*
X58671001Y-5297052D01*
X58517909Y-5387457D01*
X58475214Y-5395333D01*
X58345490Y-5340710D01*
X58249047Y-5262285D01*
X58141094Y-5106386D01*
X58116000Y-5014333D01*
X58181721Y-4850494D01*
X58330867Y-4699034D01*
X58489925Y-4633333D01*
X58631477Y-4696842D01*
X58631477Y-4696842D01*
G37*
X58631477Y-4696842D02*
X58782006Y-4840593D01*
X58872698Y-4994418D01*
X58878000Y-5029044D01*
X58814510Y-5156230D01*
X58671001Y-5297052D01*
X58517909Y-5387457D01*
X58475214Y-5395333D01*
X58345490Y-5340710D01*
X58249047Y-5262285D01*
X58141094Y-5106386D01*
X58116000Y-5014333D01*
X58181721Y-4850494D01*
X58330867Y-4699034D01*
X58489925Y-4633333D01*
X58631477Y-4696842D01*
G36*
X59756148Y-4685709D02*
X59907675Y-4835617D01*
X59945591Y-4936409D01*
X59940035Y-5174006D01*
X59819597Y-5333970D01*
X59630419Y-5391067D01*
X59418640Y-5320063D01*
X59349714Y-5262285D01*
X59237686Y-5118433D01*
X59244031Y-4985259D01*
X59370089Y-4801290D01*
X59559649Y-4670204D01*
X59756148Y-4685709D01*
X59756148Y-4685709D01*
G37*
X59756148Y-4685709D02*
X59907675Y-4835617D01*
X59945591Y-4936409D01*
X59940035Y-5174006D01*
X59819597Y-5333970D01*
X59630419Y-5391067D01*
X59418640Y-5320063D01*
X59349714Y-5262285D01*
X59237686Y-5118433D01*
X59244031Y-4985259D01*
X59370089Y-4801290D01*
X59559649Y-4670204D01*
X59756148Y-4685709D01*
G04 #@! TD*
D11*
G04 #@! TO.C,SW42*
X102210000Y-60030000D03*
X108560000Y-57490000D03*
D12*
X99670000Y-54950000D03*
X109830000Y-54950000D03*
D13*
X104750000Y-54950000D03*
G04 #@! TD*
D11*
G04 #@! TO.C,SW36*
X102210000Y-40980000D03*
X108560000Y-38440000D03*
D12*
X99670000Y-35900000D03*
X109830000Y-35900000D03*
D13*
X104750000Y-35900000D03*
G04 #@! TD*
D14*
G04 #@! TO.C,J5*
X57176000Y-32896000D03*
D15*
X57176000Y-26296000D03*
G04 #@! TD*
D11*
G04 #@! TO.C,SW44*
X31090000Y-68920000D03*
X24740000Y-71460000D03*
D12*
X33630000Y-74000000D03*
X23470000Y-74000000D03*
D13*
X28550000Y-74000000D03*
G04 #@! TD*
D11*
G04 #@! TO.C,SW37*
X6960000Y-60030000D03*
X13310000Y-57490000D03*
D12*
X4420000Y-54950000D03*
X14580000Y-54950000D03*
D13*
X9500000Y-54950000D03*
G04 #@! TD*
D11*
G04 #@! TO.C,SW41*
X83160000Y-60030000D03*
X89510000Y-57490000D03*
D12*
X80620000Y-54950000D03*
X90780000Y-54950000D03*
D13*
X85700000Y-54950000D03*
G04 #@! TD*
D16*
G04 #@! TO.C,REF\002A\002A*
X19250000Y-64473000D03*
G04 #@! TD*
D11*
G04 #@! TO.C,SW43*
X16485000Y-79080000D03*
X22835000Y-76540000D03*
D12*
X13945000Y-74000000D03*
X24105000Y-74000000D03*
D13*
X19025000Y-74000000D03*
G04 #@! TD*
D11*
G04 #@! TO.C,SW47*
X88240000Y-68920000D03*
X81890000Y-71460000D03*
D12*
X90780000Y-74000000D03*
X80620000Y-74000000D03*
D13*
X85700000Y-74000000D03*
G04 #@! TD*
D11*
G04 #@! TO.C,SW29*
X83160000Y-21930000D03*
X89510000Y-19390000D03*
D12*
X80620000Y-16850000D03*
X90780000Y-16850000D03*
D13*
X85700000Y-16850000D03*
G04 #@! TD*
D11*
G04 #@! TO.C,SW27*
X45060000Y-21930000D03*
X51410000Y-19390000D03*
D12*
X42520000Y-16850000D03*
X52680000Y-16850000D03*
D13*
X47600000Y-16850000D03*
G04 #@! TD*
D17*
G04 #@! TO.C,J10*
X81760000Y-5830000D03*
X87540000Y-5830000D03*
D18*
X88880000Y-2140000D03*
X80330000Y-2140000D03*
D19*
X88970000Y-6310000D03*
X80330000Y-6310000D03*
G04 #@! TD*
D20*
G04 #@! TO.C,REF\002A\002A*
X104750000Y-64475000D03*
G04 #@! TD*
D11*
G04 #@! TO.C,SW28*
X64110000Y-21930000D03*
X70460000Y-19390000D03*
D12*
X61570000Y-16850000D03*
X71730000Y-16850000D03*
D13*
X66650000Y-16850000D03*
G04 #@! TD*
D11*
G04 #@! TO.C,SW34*
X64110000Y-40980000D03*
X70460000Y-38440000D03*
D12*
X61570000Y-35900000D03*
X71730000Y-35900000D03*
D13*
X66650000Y-35900000D03*
G04 #@! TD*
D11*
G04 #@! TO.C,SW30*
X102210000Y-21930000D03*
X108560000Y-19390000D03*
D12*
X99670000Y-16850000D03*
X109830000Y-16850000D03*
D13*
X104750000Y-16850000D03*
G04 #@! TD*
D11*
G04 #@! TO.C,SW48*
X107290000Y-68920000D03*
X100940000Y-71460000D03*
D12*
X109830000Y-74000000D03*
X99670000Y-74000000D03*
D13*
X104750000Y-74000000D03*
G04 #@! TD*
D11*
G04 #@! TO.C,SW38*
X26010000Y-60030000D03*
X32360000Y-57490000D03*
D12*
X23470000Y-54950000D03*
X33630000Y-54950000D03*
D13*
X28550000Y-54950000D03*
G04 #@! TD*
D11*
G04 #@! TO.C,SW43*
X12040000Y-68920000D03*
X5690000Y-71460000D03*
D12*
X14580000Y-74000000D03*
X4420000Y-74000000D03*
D13*
X9500000Y-74000000D03*
G04 #@! TD*
D11*
G04 #@! TO.C,SW40*
X64110000Y-60030000D03*
X70460000Y-57490000D03*
D12*
X61570000Y-54950000D03*
X71730000Y-54950000D03*
D13*
X66650000Y-54950000D03*
G04 #@! TD*
D11*
G04 #@! TO.C,SW26*
X26010000Y-21930000D03*
X32360000Y-19390000D03*
D12*
X23470000Y-16850000D03*
X33630000Y-16850000D03*
D13*
X28550000Y-16850000D03*
G04 #@! TD*
D11*
G04 #@! TO.C,SW39*
X45060000Y-60030000D03*
X51410000Y-57490000D03*
D12*
X42520000Y-54950000D03*
X52680000Y-54950000D03*
D13*
X47600000Y-54950000D03*
G04 #@! TD*
D11*
G04 #@! TO.C,SW35*
X83160000Y-40980000D03*
X89510000Y-38440000D03*
D12*
X80620000Y-35900000D03*
X90780000Y-35900000D03*
D13*
X85700000Y-35900000D03*
G04 #@! TD*
D16*
G04 #@! TO.C,REF\002A\002A*
X95250000Y-27000000D03*
G04 #@! TD*
D11*
G04 #@! TO.C,SW45*
X50140000Y-68920000D03*
X43790000Y-71460000D03*
D12*
X52680000Y-74000000D03*
X42520000Y-74000000D03*
D13*
X47600000Y-74000000D03*
G04 #@! TD*
D21*
G04 #@! TO.C,J4*
X55400000Y-6750000D03*
D22*
X52860000Y-6750000D03*
G04 #@! TD*
D16*
G04 #@! TO.C,REF\002A\002A*
X95250000Y-64500000D03*
G04 #@! TD*
D12*
G04 #@! TO.C,P8*
X19057500Y-5628000D03*
X19057500Y-12628000D03*
G04 #@! TD*
D16*
G04 #@! TO.C,REF\002A\002A*
X19250000Y-27000000D03*
G04 #@! TD*
D23*
G04 #@! TO.C,J6*
X75234000Y-16040000D03*
X77266000Y-16040000D03*
X76250000Y-10960000D03*
G04 #@! TD*
D11*
G04 #@! TO.C,SW46*
X69190000Y-68920000D03*
X62840000Y-71460000D03*
D12*
X71730000Y-74000000D03*
X61570000Y-74000000D03*
D13*
X66650000Y-74000000D03*
G04 #@! TD*
D11*
G04 #@! TO.C,SW32*
X26010000Y-40980000D03*
X32360000Y-38440000D03*
D12*
X23470000Y-35900000D03*
X33630000Y-35900000D03*
D13*
X28550000Y-35900000D03*
G04 #@! TD*
D11*
G04 #@! TO.C,SW25*
X6960000Y-21930000D03*
X13310000Y-19390000D03*
D12*
X4420000Y-16850000D03*
X14580000Y-16850000D03*
D13*
X9500000Y-16850000D03*
G04 #@! TD*
D11*
G04 #@! TO.C,SW31*
X6960000Y-40980000D03*
X13310000Y-38440000D03*
D12*
X4420000Y-35900000D03*
X14580000Y-35900000D03*
D13*
X9500000Y-35900000D03*
G04 #@! TD*
D11*
G04 #@! TO.C,SW33*
X45060000Y-40980000D03*
X51410000Y-38440000D03*
D12*
X42520000Y-35900000D03*
X52680000Y-35900000D03*
D13*
X47600000Y-35900000D03*
G04 #@! TD*
D20*
G04 #@! TO.C,REF\002A\002A*
X9500000Y-26375000D03*
G04 #@! TD*
G04 #@! TO.C,REF\002A\002A*
X9500000Y-64475000D03*
G04 #@! TD*
G04 #@! TO.C,REF\002A\002A*
X104750000Y-26375000D03*
G04 #@! TD*
M02*
