G04 #@! TF.GenerationSoftware,KiCad,Pcbnew,(5.0.1-dev-70-gb7b125d83)*
G04 #@! TF.CreationDate,2019-01-31T16:17:58+01:00*
G04 #@! TF.ProjectId,vitamins_included,766974616D696E735F696E636C756465,rev?*
G04 #@! TF.SameCoordinates,Original*
G04 #@! TF.FileFunction,Legend,Top*
G04 #@! TF.FilePolarity,Positive*
%FSLAX46Y46*%
G04 Gerber Fmt 4.6, Leading zero omitted, Abs format (unit mm)*
G04 Created by KiCad (PCBNEW (5.0.1-dev-70-gb7b125d83)) date 01/31/19 16:17:58*
%MOMM*%
%LPD*%
G01*
G04 APERTURE LIST*
%ADD10C,0.200000*%
%ADD11C,0.300000*%
%ADD12C,0.120000*%
%ADD13C,0.180000*%
G04 APERTURE END LIST*
D10*
X55652000Y-31376000D02*
X55652000Y-30106000D01*
X56287000Y-30852128D02*
X57049000Y-31487128D01*
X56287000Y-30106000D02*
X56287000Y-28836000D01*
X56287000Y-31376000D02*
X55652000Y-31376000D01*
X56287000Y-28836000D02*
X55652000Y-28836000D01*
X57429646Y-30614264D02*
G75*
G03X57430000Y-29598001I-380646J508264D01*
G01*
X58192567Y-31375489D02*
G75*
G03X58192000Y-28836000I-1143567J1269489D01*
G01*
X57049000Y-31487128D02*
X57049000Y-30106000D01*
X55652000Y-28836000D02*
X55652000Y-30106000D01*
X56287000Y-30106000D02*
X56287000Y-31376000D01*
X56287000Y-29344000D02*
X57049000Y-28709000D01*
X57049000Y-28709000D02*
X57049000Y-30106000D01*
X57820464Y-30986799D02*
G75*
G03X57811000Y-29217000I-771464J880799D01*
G01*
D11*
X56045761Y-28171642D02*
X57036238Y-28171642D01*
X56541000Y-27676404D02*
X56541000Y-28666880D01*
X47298142Y-49274809D02*
X48012428Y-49512904D01*
X49202904Y-49512904D01*
X49679095Y-49274809D01*
X49917190Y-49036714D01*
X50155285Y-48560523D01*
X50155285Y-48084333D01*
X49917190Y-47608142D01*
X49679095Y-47370047D01*
X49202904Y-47131952D01*
X48250523Y-46893857D01*
X47774333Y-46655761D01*
X47536238Y-46417666D01*
X47298142Y-45941476D01*
X47298142Y-45465285D01*
X47536238Y-44989095D01*
X47774333Y-44751000D01*
X48250523Y-44512904D01*
X49441000Y-44512904D01*
X50155285Y-44751000D01*
X52298142Y-49512904D02*
X52298142Y-44512904D01*
X54202904Y-44512904D01*
X54679095Y-44751000D01*
X54917190Y-44989095D01*
X55155285Y-45465285D01*
X55155285Y-46179571D01*
X54917190Y-46655761D01*
X54679095Y-46893857D01*
X54202904Y-47131952D01*
X52298142Y-47131952D01*
X59679095Y-49512904D02*
X57298142Y-49512904D01*
X57298142Y-44512904D01*
X61345761Y-49512904D02*
X61345761Y-44512904D01*
X63012428Y-44512904D02*
X65869571Y-44512904D01*
X64441000Y-49512904D02*
X64441000Y-44512904D01*
D12*
G04 #@! TO.C,J4*
X51530000Y-8080000D02*
X51530000Y-6750000D01*
X52860000Y-8080000D02*
X51530000Y-8080000D01*
X54130000Y-8080000D02*
X54130000Y-5420000D01*
X54130000Y-5420000D02*
X56730000Y-5420000D01*
X54130000Y-8080000D02*
X56730000Y-8080000D01*
X56730000Y-8080000D02*
X56730000Y-5420000D01*
D13*
X51721428Y-5278571D02*
X51721428Y-4278571D01*
X51721428Y-4564285D02*
X51792857Y-4421428D01*
X51864285Y-4350000D01*
X52007142Y-4278571D01*
X52150000Y-4278571D01*
X53221428Y-5207142D02*
X53078571Y-5278571D01*
X52792857Y-5278571D01*
X52650000Y-5207142D01*
X52578571Y-5064285D01*
X52578571Y-4492857D01*
X52650000Y-4350000D01*
X52792857Y-4278571D01*
X53078571Y-4278571D01*
X53221428Y-4350000D01*
X53292857Y-4492857D01*
X53292857Y-4635714D01*
X52578571Y-4778571D01*
X53864285Y-5207142D02*
X54007142Y-5278571D01*
X54292857Y-5278571D01*
X54435714Y-5207142D01*
X54507142Y-5064285D01*
X54507142Y-4992857D01*
X54435714Y-4850000D01*
X54292857Y-4778571D01*
X54078571Y-4778571D01*
X53935714Y-4707142D01*
X53864285Y-4564285D01*
X53864285Y-4492857D01*
X53935714Y-4350000D01*
X54078571Y-4278571D01*
X54292857Y-4278571D01*
X54435714Y-4350000D01*
X55721428Y-5207142D02*
X55578571Y-5278571D01*
X55292857Y-5278571D01*
X55150000Y-5207142D01*
X55078571Y-5064285D01*
X55078571Y-4492857D01*
X55150000Y-4350000D01*
X55292857Y-4278571D01*
X55578571Y-4278571D01*
X55721428Y-4350000D01*
X55792857Y-4492857D01*
X55792857Y-4635714D01*
X55078571Y-4778571D01*
X56221428Y-4278571D02*
X56792857Y-4278571D01*
X56435714Y-3778571D02*
X56435714Y-5064285D01*
X56507142Y-5207142D01*
X56650000Y-5278571D01*
X56792857Y-5278571D01*
G04 #@! TD*
M02*
