G04 #@! TF.GenerationSoftware,KiCad,Pcbnew,(5.0.1-dev-70-gb7b125d83)*
G04 #@! TF.CreationDate,2019-02-27T23:36:49+01:00*
G04 #@! TF.ProjectId,vitamins_included,766974616D696E735F696E636C756465,rev?*
G04 #@! TF.SameCoordinates,Original*
G04 #@! TF.FileFunction,Soldermask,Top*
G04 #@! TF.FilePolarity,Negative*
%FSLAX46Y46*%
G04 Gerber Fmt 4.6, Leading zero omitted, Abs format (unit mm)*
G04 Created by KiCad (PCBNEW (5.0.1-dev-70-gb7b125d83)) date 02/27/19 23:36:49*
%MOMM*%
%LPD*%
G01*
G04 APERTURE LIST*
%ADD10C,0.010000*%
%ADD11C,3.200000*%
%ADD12C,1.900000*%
%ADD13C,4.200000*%
%ADD14O,1.900000X1.900000*%
%ADD15R,1.900000X1.900000*%
%ADD16C,6.200000*%
%ADD17C,1.190600*%
%ADD18R,1.200000X1.700000*%
%ADD19C,0.500000*%
%ADD20C,0.100000*%
%ADD21C,2.400000*%
%ADD22R,1.700000X1.200000*%
%ADD23C,2.200000*%
%ADD24R,2.200000X2.200000*%
%ADD25C,0.800000*%
%ADD26O,1.100000X1.900000*%
%ADD27O,1.100000X2.200000*%
G04 APERTURE END LIST*
D10*
G04 #@! TO.C,G\002A\002A\002A*
G36*
X40406148Y-4685709D02*
X40557675Y-4835617D01*
X40595591Y-4936409D01*
X40590035Y-5174006D01*
X40469597Y-5333970D01*
X40280419Y-5391067D01*
X40068640Y-5320063D01*
X39999714Y-5262285D01*
X39887686Y-5118433D01*
X39894031Y-4985259D01*
X40020089Y-4801290D01*
X40209649Y-4670204D01*
X40406148Y-4685709D01*
X40406148Y-4685709D01*
G37*
X40406148Y-4685709D02*
X40557675Y-4835617D01*
X40595591Y-4936409D01*
X40590035Y-5174006D01*
X40469597Y-5333970D01*
X40280419Y-5391067D01*
X40068640Y-5320063D01*
X39999714Y-5262285D01*
X39887686Y-5118433D01*
X39894031Y-4985259D01*
X40020089Y-4801290D01*
X40209649Y-4670204D01*
X40406148Y-4685709D01*
G36*
X39281477Y-4696842D02*
X39432006Y-4840593D01*
X39522698Y-4994418D01*
X39528000Y-5029044D01*
X39464510Y-5156230D01*
X39321001Y-5297052D01*
X39167909Y-5387457D01*
X39125214Y-5395333D01*
X38995490Y-5340710D01*
X38899047Y-5262285D01*
X38791094Y-5106386D01*
X38766000Y-5014333D01*
X38831721Y-4850494D01*
X38980867Y-4699034D01*
X39139925Y-4633333D01*
X39281477Y-4696842D01*
X39281477Y-4696842D01*
G37*
X39281477Y-4696842D02*
X39432006Y-4840593D01*
X39522698Y-4994418D01*
X39528000Y-5029044D01*
X39464510Y-5156230D01*
X39321001Y-5297052D01*
X39167909Y-5387457D01*
X39125214Y-5395333D01*
X38995490Y-5340710D01*
X38899047Y-5262285D01*
X38791094Y-5106386D01*
X38766000Y-5014333D01*
X38831721Y-4850494D01*
X38980867Y-4699034D01*
X39139925Y-4633333D01*
X39281477Y-4696842D01*
G36*
X46987919Y-2162640D02*
X47933817Y-2475473D01*
X48217897Y-2600277D01*
X48861726Y-2963902D01*
X49363271Y-3397037D01*
X49741455Y-3917376D01*
X49849105Y-4125333D01*
X49942579Y-4337867D01*
X50005184Y-4533714D01*
X50042999Y-4755008D01*
X50062106Y-5043888D01*
X50068583Y-5442488D01*
X50069000Y-5649333D01*
X50056755Y-6240491D01*
X50009333Y-6725422D01*
X49910705Y-7135255D01*
X49744844Y-7501121D01*
X49495719Y-7854150D01*
X49147301Y-8225471D01*
X48683563Y-8646215D01*
X48402718Y-8885456D01*
X48124360Y-9151906D01*
X47883992Y-9438996D01*
X47749370Y-9653020D01*
X47623194Y-10001007D01*
X47576915Y-10330932D01*
X47612718Y-10596732D01*
X47698333Y-10729333D01*
X47814614Y-10867107D01*
X47770273Y-10952538D01*
X47566241Y-10984024D01*
X47550167Y-10984160D01*
X47317125Y-11020896D01*
X47017622Y-11114176D01*
X46830500Y-11191932D01*
X46386000Y-11398876D01*
X46386000Y-11179447D01*
X46377846Y-11055307D01*
X46325923Y-10996079D01*
X46189037Y-10987194D01*
X45925998Y-11014083D01*
X45920333Y-11014749D01*
X45614506Y-11032497D01*
X45461604Y-11000446D01*
X45455241Y-10926196D01*
X45589036Y-10817347D01*
X45856602Y-10681499D01*
X46251557Y-10526252D01*
X46363331Y-10487379D01*
X47021000Y-10263666D01*
X47046269Y-9732089D01*
X47053571Y-9431290D01*
X47027955Y-9238641D01*
X46951626Y-9093637D01*
X46814247Y-8943221D01*
X46546932Y-8752804D01*
X46299540Y-8720999D01*
X46084188Y-8837266D01*
X45912992Y-9091062D01*
X45798071Y-9471848D01*
X45754605Y-9865035D01*
X45733200Y-10348333D01*
X45408198Y-10401171D01*
X45062159Y-10535425D01*
X44888352Y-10697504D01*
X44693508Y-10941000D01*
X44693087Y-10660127D01*
X44679886Y-10472971D01*
X44618368Y-10414741D01*
X44502167Y-10437025D01*
X44297207Y-10537971D01*
X44121167Y-10669156D01*
X43930667Y-10843517D01*
X43930667Y-10665921D01*
X44007019Y-10416871D01*
X44208837Y-10175469D01*
X44495265Y-9981145D01*
X44732423Y-9892147D01*
X44914137Y-9843428D01*
X45035376Y-9784764D01*
X45115647Y-9682372D01*
X45174460Y-9502469D01*
X45231324Y-9211271D01*
X45275594Y-8951541D01*
X45312082Y-8636404D01*
X45292707Y-8461178D01*
X45271301Y-8434660D01*
X45165110Y-8404500D01*
X44919487Y-8351391D01*
X44561940Y-8280762D01*
X44119976Y-8198042D01*
X43621102Y-8108660D01*
X43606883Y-8106167D01*
X42664163Y-7931097D01*
X41872947Y-7761267D01*
X41215737Y-7591284D01*
X40675039Y-7415755D01*
X40233355Y-7229289D01*
X39873190Y-7026494D01*
X39697333Y-6901269D01*
X39501039Y-6705169D01*
X39312215Y-6446924D01*
X39167981Y-6185106D01*
X39105460Y-5978285D01*
X39105100Y-5966833D01*
X39043216Y-5848638D01*
X38884533Y-5818666D01*
X38653633Y-5745691D01*
X38386937Y-5540870D01*
X38365963Y-5520230D01*
X38190051Y-5329764D01*
X38108506Y-5171632D01*
X38095587Y-4980024D01*
X38202813Y-4980024D01*
X38303708Y-5283192D01*
X38489163Y-5522767D01*
X38730426Y-5676685D01*
X38998748Y-5722883D01*
X39265377Y-5639295D01*
X39392341Y-5538689D01*
X39547001Y-5364080D01*
X39642492Y-5221189D01*
X39697585Y-5141335D01*
X39752174Y-5221189D01*
X39929948Y-5471103D01*
X40181726Y-5657797D01*
X40443005Y-5733919D01*
X40450763Y-5734000D01*
X40756393Y-5662585D01*
X40988308Y-5473742D01*
X41139752Y-5205575D01*
X41203974Y-4896186D01*
X41174220Y-4583679D01*
X41043737Y-4306155D01*
X40805771Y-4101719D01*
X40745131Y-4073141D01*
X40423880Y-4007522D01*
X40134827Y-4100749D01*
X39866296Y-4351843D01*
X39724116Y-4494384D01*
X39642985Y-4498853D01*
X39636833Y-4486299D01*
X39462030Y-4219682D01*
X39190309Y-4032756D01*
X39056577Y-3991087D01*
X38786300Y-4016958D01*
X38521085Y-4167878D01*
X38310862Y-4405613D01*
X38215228Y-4635328D01*
X38202813Y-4980024D01*
X38095587Y-4980024D01*
X38094912Y-4970027D01*
X38109552Y-4784425D01*
X38160090Y-4482176D01*
X38263069Y-4272132D01*
X38417791Y-4109195D01*
X38647827Y-3962143D01*
X38908488Y-3878325D01*
X39145057Y-3867069D01*
X39302815Y-3937708D01*
X39316323Y-3955982D01*
X39406317Y-3957174D01*
X39581535Y-3861292D01*
X39710841Y-3765482D01*
X39857584Y-3651958D01*
X39989168Y-3573600D01*
X40141881Y-3522300D01*
X40352015Y-3489947D01*
X40655860Y-3468432D01*
X41089706Y-3449645D01*
X41131565Y-3448000D01*
X42210087Y-3405666D01*
X42668210Y-3055289D01*
X43457482Y-2550826D01*
X44290098Y-2208836D01*
X45160049Y-2029814D01*
X46061326Y-2014251D01*
X46987919Y-2162640D01*
X46987919Y-2162640D01*
G37*
X46987919Y-2162640D02*
X47933817Y-2475473D01*
X48217897Y-2600277D01*
X48861726Y-2963902D01*
X49363271Y-3397037D01*
X49741455Y-3917376D01*
X49849105Y-4125333D01*
X49942579Y-4337867D01*
X50005184Y-4533714D01*
X50042999Y-4755008D01*
X50062106Y-5043888D01*
X50068583Y-5442488D01*
X50069000Y-5649333D01*
X50056755Y-6240491D01*
X50009333Y-6725422D01*
X49910705Y-7135255D01*
X49744844Y-7501121D01*
X49495719Y-7854150D01*
X49147301Y-8225471D01*
X48683563Y-8646215D01*
X48402718Y-8885456D01*
X48124360Y-9151906D01*
X47883992Y-9438996D01*
X47749370Y-9653020D01*
X47623194Y-10001007D01*
X47576915Y-10330932D01*
X47612718Y-10596732D01*
X47698333Y-10729333D01*
X47814614Y-10867107D01*
X47770273Y-10952538D01*
X47566241Y-10984024D01*
X47550167Y-10984160D01*
X47317125Y-11020896D01*
X47017622Y-11114176D01*
X46830500Y-11191932D01*
X46386000Y-11398876D01*
X46386000Y-11179447D01*
X46377846Y-11055307D01*
X46325923Y-10996079D01*
X46189037Y-10987194D01*
X45925998Y-11014083D01*
X45920333Y-11014749D01*
X45614506Y-11032497D01*
X45461604Y-11000446D01*
X45455241Y-10926196D01*
X45589036Y-10817347D01*
X45856602Y-10681499D01*
X46251557Y-10526252D01*
X46363331Y-10487379D01*
X47021000Y-10263666D01*
X47046269Y-9732089D01*
X47053571Y-9431290D01*
X47027955Y-9238641D01*
X46951626Y-9093637D01*
X46814247Y-8943221D01*
X46546932Y-8752804D01*
X46299540Y-8720999D01*
X46084188Y-8837266D01*
X45912992Y-9091062D01*
X45798071Y-9471848D01*
X45754605Y-9865035D01*
X45733200Y-10348333D01*
X45408198Y-10401171D01*
X45062159Y-10535425D01*
X44888352Y-10697504D01*
X44693508Y-10941000D01*
X44693087Y-10660127D01*
X44679886Y-10472971D01*
X44618368Y-10414741D01*
X44502167Y-10437025D01*
X44297207Y-10537971D01*
X44121167Y-10669156D01*
X43930667Y-10843517D01*
X43930667Y-10665921D01*
X44007019Y-10416871D01*
X44208837Y-10175469D01*
X44495265Y-9981145D01*
X44732423Y-9892147D01*
X44914137Y-9843428D01*
X45035376Y-9784764D01*
X45115647Y-9682372D01*
X45174460Y-9502469D01*
X45231324Y-9211271D01*
X45275594Y-8951541D01*
X45312082Y-8636404D01*
X45292707Y-8461178D01*
X45271301Y-8434660D01*
X45165110Y-8404500D01*
X44919487Y-8351391D01*
X44561940Y-8280762D01*
X44119976Y-8198042D01*
X43621102Y-8108660D01*
X43606883Y-8106167D01*
X42664163Y-7931097D01*
X41872947Y-7761267D01*
X41215737Y-7591284D01*
X40675039Y-7415755D01*
X40233355Y-7229289D01*
X39873190Y-7026494D01*
X39697333Y-6901269D01*
X39501039Y-6705169D01*
X39312215Y-6446924D01*
X39167981Y-6185106D01*
X39105460Y-5978285D01*
X39105100Y-5966833D01*
X39043216Y-5848638D01*
X38884533Y-5818666D01*
X38653633Y-5745691D01*
X38386937Y-5540870D01*
X38365963Y-5520230D01*
X38190051Y-5329764D01*
X38108506Y-5171632D01*
X38095587Y-4980024D01*
X38202813Y-4980024D01*
X38303708Y-5283192D01*
X38489163Y-5522767D01*
X38730426Y-5676685D01*
X38998748Y-5722883D01*
X39265377Y-5639295D01*
X39392341Y-5538689D01*
X39547001Y-5364080D01*
X39642492Y-5221189D01*
X39697585Y-5141335D01*
X39752174Y-5221189D01*
X39929948Y-5471103D01*
X40181726Y-5657797D01*
X40443005Y-5733919D01*
X40450763Y-5734000D01*
X40756393Y-5662585D01*
X40988308Y-5473742D01*
X41139752Y-5205575D01*
X41203974Y-4896186D01*
X41174220Y-4583679D01*
X41043737Y-4306155D01*
X40805771Y-4101719D01*
X40745131Y-4073141D01*
X40423880Y-4007522D01*
X40134827Y-4100749D01*
X39866296Y-4351843D01*
X39724116Y-4494384D01*
X39642985Y-4498853D01*
X39636833Y-4486299D01*
X39462030Y-4219682D01*
X39190309Y-4032756D01*
X39056577Y-3991087D01*
X38786300Y-4016958D01*
X38521085Y-4167878D01*
X38310862Y-4405613D01*
X38215228Y-4635328D01*
X38202813Y-4980024D01*
X38095587Y-4980024D01*
X38094912Y-4970027D01*
X38109552Y-4784425D01*
X38160090Y-4482176D01*
X38263069Y-4272132D01*
X38417791Y-4109195D01*
X38647827Y-3962143D01*
X38908488Y-3878325D01*
X39145057Y-3867069D01*
X39302815Y-3937708D01*
X39316323Y-3955982D01*
X39406317Y-3957174D01*
X39581535Y-3861292D01*
X39710841Y-3765482D01*
X39857584Y-3651958D01*
X39989168Y-3573600D01*
X40141881Y-3522300D01*
X40352015Y-3489947D01*
X40655860Y-3468432D01*
X41089706Y-3449645D01*
X41131565Y-3448000D01*
X42210087Y-3405666D01*
X42668210Y-3055289D01*
X43457482Y-2550826D01*
X44290098Y-2208836D01*
X45160049Y-2029814D01*
X46061326Y-2014251D01*
X46987919Y-2162640D01*
G36*
X182587919Y-2162640D02*
X183533817Y-2475473D01*
X183817897Y-2600277D01*
X184461726Y-2963902D01*
X184963271Y-3397037D01*
X185341455Y-3917376D01*
X185449105Y-4125333D01*
X185542579Y-4337867D01*
X185605184Y-4533714D01*
X185642999Y-4755008D01*
X185662106Y-5043888D01*
X185668583Y-5442488D01*
X185669000Y-5649333D01*
X185656755Y-6240491D01*
X185609333Y-6725422D01*
X185510705Y-7135255D01*
X185344844Y-7501121D01*
X185095719Y-7854150D01*
X184747301Y-8225471D01*
X184283563Y-8646215D01*
X184002718Y-8885456D01*
X183724360Y-9151906D01*
X183483992Y-9438996D01*
X183349370Y-9653020D01*
X183223194Y-10001007D01*
X183176915Y-10330932D01*
X183212718Y-10596732D01*
X183298333Y-10729333D01*
X183414614Y-10867107D01*
X183370273Y-10952538D01*
X183166241Y-10984024D01*
X183150167Y-10984160D01*
X182917125Y-11020896D01*
X182617622Y-11114176D01*
X182430500Y-11191932D01*
X181986000Y-11398876D01*
X181986000Y-11179447D01*
X181977846Y-11055307D01*
X181925923Y-10996079D01*
X181789037Y-10987194D01*
X181525998Y-11014083D01*
X181520333Y-11014749D01*
X181214506Y-11032497D01*
X181061604Y-11000446D01*
X181055241Y-10926196D01*
X181189036Y-10817347D01*
X181456602Y-10681499D01*
X181851557Y-10526252D01*
X181963331Y-10487379D01*
X182621000Y-10263666D01*
X182646269Y-9732089D01*
X182653571Y-9431290D01*
X182627955Y-9238641D01*
X182551626Y-9093637D01*
X182414247Y-8943221D01*
X182146932Y-8752804D01*
X181899540Y-8720999D01*
X181684188Y-8837266D01*
X181512992Y-9091062D01*
X181398071Y-9471848D01*
X181354605Y-9865035D01*
X181333200Y-10348333D01*
X181008198Y-10401171D01*
X180662159Y-10535425D01*
X180488352Y-10697504D01*
X180293508Y-10941000D01*
X180293087Y-10660127D01*
X180279886Y-10472971D01*
X180218368Y-10414741D01*
X180102167Y-10437025D01*
X179897207Y-10537971D01*
X179721167Y-10669156D01*
X179530667Y-10843517D01*
X179530667Y-10665921D01*
X179607019Y-10416871D01*
X179808837Y-10175469D01*
X180095265Y-9981145D01*
X180332423Y-9892147D01*
X180514137Y-9843428D01*
X180635376Y-9784764D01*
X180715647Y-9682372D01*
X180774460Y-9502469D01*
X180831324Y-9211271D01*
X180875594Y-8951541D01*
X180912082Y-8636404D01*
X180892707Y-8461178D01*
X180871301Y-8434660D01*
X180765110Y-8404500D01*
X180519487Y-8351391D01*
X180161940Y-8280762D01*
X179719976Y-8198042D01*
X179221102Y-8108660D01*
X179206883Y-8106167D01*
X178264163Y-7931097D01*
X177472947Y-7761267D01*
X176815737Y-7591284D01*
X176275039Y-7415755D01*
X175833355Y-7229289D01*
X175473190Y-7026494D01*
X175297333Y-6901269D01*
X175101039Y-6705169D01*
X174912215Y-6446924D01*
X174767981Y-6185106D01*
X174705460Y-5978285D01*
X174705100Y-5966833D01*
X174643216Y-5848638D01*
X174484533Y-5818666D01*
X174253633Y-5745691D01*
X173986937Y-5540870D01*
X173965963Y-5520230D01*
X173790051Y-5329764D01*
X173708506Y-5171632D01*
X173695587Y-4980024D01*
X173802813Y-4980024D01*
X173903708Y-5283192D01*
X174089163Y-5522767D01*
X174330426Y-5676685D01*
X174598748Y-5722883D01*
X174865377Y-5639295D01*
X174992341Y-5538689D01*
X175147001Y-5364080D01*
X175242492Y-5221189D01*
X175297585Y-5141335D01*
X175352174Y-5221189D01*
X175529948Y-5471103D01*
X175781726Y-5657797D01*
X176043005Y-5733919D01*
X176050763Y-5734000D01*
X176356393Y-5662585D01*
X176588308Y-5473742D01*
X176739752Y-5205575D01*
X176803974Y-4896186D01*
X176774220Y-4583679D01*
X176643737Y-4306155D01*
X176405771Y-4101719D01*
X176345131Y-4073141D01*
X176023880Y-4007522D01*
X175734827Y-4100749D01*
X175466296Y-4351843D01*
X175324116Y-4494384D01*
X175242985Y-4498853D01*
X175236833Y-4486299D01*
X175062030Y-4219682D01*
X174790309Y-4032756D01*
X174656577Y-3991087D01*
X174386300Y-4016958D01*
X174121085Y-4167878D01*
X173910862Y-4405613D01*
X173815228Y-4635328D01*
X173802813Y-4980024D01*
X173695587Y-4980024D01*
X173694912Y-4970027D01*
X173709552Y-4784425D01*
X173760090Y-4482176D01*
X173863069Y-4272132D01*
X174017791Y-4109195D01*
X174247827Y-3962143D01*
X174508488Y-3878325D01*
X174745057Y-3867069D01*
X174902815Y-3937708D01*
X174916323Y-3955982D01*
X175006317Y-3957174D01*
X175181535Y-3861292D01*
X175310841Y-3765482D01*
X175457584Y-3651958D01*
X175589168Y-3573600D01*
X175741881Y-3522300D01*
X175952015Y-3489947D01*
X176255860Y-3468432D01*
X176689706Y-3449645D01*
X176731565Y-3448000D01*
X177810087Y-3405666D01*
X178268210Y-3055289D01*
X179057482Y-2550826D01*
X179890098Y-2208836D01*
X180760049Y-2029814D01*
X181661326Y-2014251D01*
X182587919Y-2162640D01*
X182587919Y-2162640D01*
G37*
X182587919Y-2162640D02*
X183533817Y-2475473D01*
X183817897Y-2600277D01*
X184461726Y-2963902D01*
X184963271Y-3397037D01*
X185341455Y-3917376D01*
X185449105Y-4125333D01*
X185542579Y-4337867D01*
X185605184Y-4533714D01*
X185642999Y-4755008D01*
X185662106Y-5043888D01*
X185668583Y-5442488D01*
X185669000Y-5649333D01*
X185656755Y-6240491D01*
X185609333Y-6725422D01*
X185510705Y-7135255D01*
X185344844Y-7501121D01*
X185095719Y-7854150D01*
X184747301Y-8225471D01*
X184283563Y-8646215D01*
X184002718Y-8885456D01*
X183724360Y-9151906D01*
X183483992Y-9438996D01*
X183349370Y-9653020D01*
X183223194Y-10001007D01*
X183176915Y-10330932D01*
X183212718Y-10596732D01*
X183298333Y-10729333D01*
X183414614Y-10867107D01*
X183370273Y-10952538D01*
X183166241Y-10984024D01*
X183150167Y-10984160D01*
X182917125Y-11020896D01*
X182617622Y-11114176D01*
X182430500Y-11191932D01*
X181986000Y-11398876D01*
X181986000Y-11179447D01*
X181977846Y-11055307D01*
X181925923Y-10996079D01*
X181789037Y-10987194D01*
X181525998Y-11014083D01*
X181520333Y-11014749D01*
X181214506Y-11032497D01*
X181061604Y-11000446D01*
X181055241Y-10926196D01*
X181189036Y-10817347D01*
X181456602Y-10681499D01*
X181851557Y-10526252D01*
X181963331Y-10487379D01*
X182621000Y-10263666D01*
X182646269Y-9732089D01*
X182653571Y-9431290D01*
X182627955Y-9238641D01*
X182551626Y-9093637D01*
X182414247Y-8943221D01*
X182146932Y-8752804D01*
X181899540Y-8720999D01*
X181684188Y-8837266D01*
X181512992Y-9091062D01*
X181398071Y-9471848D01*
X181354605Y-9865035D01*
X181333200Y-10348333D01*
X181008198Y-10401171D01*
X180662159Y-10535425D01*
X180488352Y-10697504D01*
X180293508Y-10941000D01*
X180293087Y-10660127D01*
X180279886Y-10472971D01*
X180218368Y-10414741D01*
X180102167Y-10437025D01*
X179897207Y-10537971D01*
X179721167Y-10669156D01*
X179530667Y-10843517D01*
X179530667Y-10665921D01*
X179607019Y-10416871D01*
X179808837Y-10175469D01*
X180095265Y-9981145D01*
X180332423Y-9892147D01*
X180514137Y-9843428D01*
X180635376Y-9784764D01*
X180715647Y-9682372D01*
X180774460Y-9502469D01*
X180831324Y-9211271D01*
X180875594Y-8951541D01*
X180912082Y-8636404D01*
X180892707Y-8461178D01*
X180871301Y-8434660D01*
X180765110Y-8404500D01*
X180519487Y-8351391D01*
X180161940Y-8280762D01*
X179719976Y-8198042D01*
X179221102Y-8108660D01*
X179206883Y-8106167D01*
X178264163Y-7931097D01*
X177472947Y-7761267D01*
X176815737Y-7591284D01*
X176275039Y-7415755D01*
X175833355Y-7229289D01*
X175473190Y-7026494D01*
X175297333Y-6901269D01*
X175101039Y-6705169D01*
X174912215Y-6446924D01*
X174767981Y-6185106D01*
X174705460Y-5978285D01*
X174705100Y-5966833D01*
X174643216Y-5848638D01*
X174484533Y-5818666D01*
X174253633Y-5745691D01*
X173986937Y-5540870D01*
X173965963Y-5520230D01*
X173790051Y-5329764D01*
X173708506Y-5171632D01*
X173695587Y-4980024D01*
X173802813Y-4980024D01*
X173903708Y-5283192D01*
X174089163Y-5522767D01*
X174330426Y-5676685D01*
X174598748Y-5722883D01*
X174865377Y-5639295D01*
X174992341Y-5538689D01*
X175147001Y-5364080D01*
X175242492Y-5221189D01*
X175297585Y-5141335D01*
X175352174Y-5221189D01*
X175529948Y-5471103D01*
X175781726Y-5657797D01*
X176043005Y-5733919D01*
X176050763Y-5734000D01*
X176356393Y-5662585D01*
X176588308Y-5473742D01*
X176739752Y-5205575D01*
X176803974Y-4896186D01*
X176774220Y-4583679D01*
X176643737Y-4306155D01*
X176405771Y-4101719D01*
X176345131Y-4073141D01*
X176023880Y-4007522D01*
X175734827Y-4100749D01*
X175466296Y-4351843D01*
X175324116Y-4494384D01*
X175242985Y-4498853D01*
X175236833Y-4486299D01*
X175062030Y-4219682D01*
X174790309Y-4032756D01*
X174656577Y-3991087D01*
X174386300Y-4016958D01*
X174121085Y-4167878D01*
X173910862Y-4405613D01*
X173815228Y-4635328D01*
X173802813Y-4980024D01*
X173695587Y-4980024D01*
X173694912Y-4970027D01*
X173709552Y-4784425D01*
X173760090Y-4482176D01*
X173863069Y-4272132D01*
X174017791Y-4109195D01*
X174247827Y-3962143D01*
X174508488Y-3878325D01*
X174745057Y-3867069D01*
X174902815Y-3937708D01*
X174916323Y-3955982D01*
X175006317Y-3957174D01*
X175181535Y-3861292D01*
X175310841Y-3765482D01*
X175457584Y-3651958D01*
X175589168Y-3573600D01*
X175741881Y-3522300D01*
X175952015Y-3489947D01*
X176255860Y-3468432D01*
X176689706Y-3449645D01*
X176731565Y-3448000D01*
X177810087Y-3405666D01*
X178268210Y-3055289D01*
X179057482Y-2550826D01*
X179890098Y-2208836D01*
X180760049Y-2029814D01*
X181661326Y-2014251D01*
X182587919Y-2162640D01*
G36*
X174881477Y-4696842D02*
X175032006Y-4840593D01*
X175122698Y-4994418D01*
X175128000Y-5029044D01*
X175064510Y-5156230D01*
X174921001Y-5297052D01*
X174767909Y-5387457D01*
X174725214Y-5395333D01*
X174595490Y-5340710D01*
X174499047Y-5262285D01*
X174391094Y-5106386D01*
X174366000Y-5014333D01*
X174431721Y-4850494D01*
X174580867Y-4699034D01*
X174739925Y-4633333D01*
X174881477Y-4696842D01*
X174881477Y-4696842D01*
G37*
X174881477Y-4696842D02*
X175032006Y-4840593D01*
X175122698Y-4994418D01*
X175128000Y-5029044D01*
X175064510Y-5156230D01*
X174921001Y-5297052D01*
X174767909Y-5387457D01*
X174725214Y-5395333D01*
X174595490Y-5340710D01*
X174499047Y-5262285D01*
X174391094Y-5106386D01*
X174366000Y-5014333D01*
X174431721Y-4850494D01*
X174580867Y-4699034D01*
X174739925Y-4633333D01*
X174881477Y-4696842D01*
G36*
X176006148Y-4685709D02*
X176157675Y-4835617D01*
X176195591Y-4936409D01*
X176190035Y-5174006D01*
X176069597Y-5333970D01*
X175880419Y-5391067D01*
X175668640Y-5320063D01*
X175599714Y-5262285D01*
X175487686Y-5118433D01*
X175494031Y-4985259D01*
X175620089Y-4801290D01*
X175809649Y-4670204D01*
X176006148Y-4685709D01*
X176006148Y-4685709D01*
G37*
X176006148Y-4685709D02*
X176157675Y-4835617D01*
X176195591Y-4936409D01*
X176190035Y-5174006D01*
X176069597Y-5333970D01*
X175880419Y-5391067D01*
X175668640Y-5320063D01*
X175599714Y-5262285D01*
X175487686Y-5118433D01*
X175494031Y-4985259D01*
X175620089Y-4801290D01*
X175809649Y-4670204D01*
X176006148Y-4685709D01*
G04 #@! TD*
D11*
G04 #@! TO.C,SW43*
X12040000Y-68920000D03*
X5690000Y-71460000D03*
D12*
X14580000Y-74000000D03*
X4420000Y-74000000D03*
D13*
X9500000Y-74000000D03*
G04 #@! TD*
D11*
G04 #@! TO.C,SW39*
X45060000Y-60030000D03*
X51410000Y-57490000D03*
D12*
X42520000Y-54950000D03*
X52680000Y-54950000D03*
D13*
X47600000Y-54950000D03*
G04 #@! TD*
D11*
G04 #@! TO.C,SW35*
X83160000Y-40980000D03*
X89510000Y-38440000D03*
D12*
X80620000Y-35900000D03*
X90780000Y-35900000D03*
D13*
X85700000Y-35900000D03*
G04 #@! TD*
D14*
G04 #@! TO.C,J4*
X55400000Y-6750000D03*
D15*
X52860000Y-6750000D03*
G04 #@! TD*
D11*
G04 #@! TO.C,SW45*
X50140000Y-68920000D03*
X43790000Y-71460000D03*
D12*
X52680000Y-74000000D03*
X42520000Y-74000000D03*
D13*
X47600000Y-74000000D03*
G04 #@! TD*
D11*
G04 #@! TO.C,SW40*
X64110000Y-60030000D03*
X70460000Y-57490000D03*
D12*
X61570000Y-54950000D03*
X71730000Y-54950000D03*
D13*
X66650000Y-54950000D03*
G04 #@! TD*
D16*
G04 #@! TO.C,REF\002A\002A*
X95250000Y-27000000D03*
G04 #@! TD*
D11*
G04 #@! TO.C,SW38*
X26010000Y-60030000D03*
X32360000Y-57490000D03*
D12*
X23470000Y-54950000D03*
X33630000Y-54950000D03*
D13*
X28550000Y-54950000D03*
G04 #@! TD*
D16*
G04 #@! TO.C,REF\002A\002A*
X95250000Y-64500000D03*
G04 #@! TD*
D11*
G04 #@! TO.C,SW48*
X107290000Y-68920000D03*
X100940000Y-71460000D03*
D12*
X109830000Y-74000000D03*
X99670000Y-74000000D03*
D13*
X104750000Y-74000000D03*
G04 #@! TD*
D16*
G04 #@! TO.C,REF\002A\002A*
X19250000Y-27000000D03*
G04 #@! TD*
D17*
G04 #@! TO.C,J6*
X75234000Y-16040000D03*
X77266000Y-16040000D03*
X76250000Y-10960000D03*
G04 #@! TD*
D11*
G04 #@! TO.C,SW46*
X69190000Y-68920000D03*
X62840000Y-71460000D03*
D12*
X71730000Y-74000000D03*
X61570000Y-74000000D03*
D13*
X66650000Y-74000000D03*
G04 #@! TD*
D11*
G04 #@! TO.C,SW33*
X45060000Y-40980000D03*
X51410000Y-38440000D03*
D12*
X42520000Y-35900000D03*
X52680000Y-35900000D03*
D13*
X47600000Y-35900000D03*
G04 #@! TD*
D11*
G04 #@! TO.C,SW32*
X26010000Y-40980000D03*
X32360000Y-38440000D03*
D12*
X23470000Y-35900000D03*
X33630000Y-35900000D03*
D13*
X28550000Y-35900000D03*
G04 #@! TD*
D18*
G04 #@! TO.C,JP6*
X50200000Y-26625000D03*
D19*
X51500000Y-26625000D03*
D20*
G36*
X51506114Y-25775602D02*
X51524534Y-25775602D01*
X51534337Y-25776084D01*
X51583168Y-25780894D01*
X51592873Y-25782333D01*
X51640998Y-25791905D01*
X51650519Y-25794290D01*
X51697474Y-25808534D01*
X51706712Y-25811840D01*
X51752045Y-25830617D01*
X51760919Y-25834814D01*
X51804192Y-25857945D01*
X51812607Y-25862988D01*
X51853406Y-25890248D01*
X51861290Y-25896095D01*
X51899219Y-25927223D01*
X51906490Y-25933813D01*
X51941187Y-25968510D01*
X51947777Y-25975781D01*
X51978905Y-26013710D01*
X51984752Y-26021594D01*
X52012012Y-26062393D01*
X52017055Y-26070808D01*
X52040186Y-26114081D01*
X52044383Y-26122955D01*
X52063160Y-26168288D01*
X52066466Y-26177526D01*
X52080710Y-26224481D01*
X52083095Y-26234002D01*
X52092667Y-26282127D01*
X52094106Y-26291832D01*
X52098916Y-26340663D01*
X52099398Y-26350466D01*
X52099398Y-26368886D01*
X52100000Y-26375000D01*
X52100000Y-26875000D01*
X52099398Y-26881114D01*
X52099398Y-26899534D01*
X52098916Y-26909337D01*
X52094106Y-26958168D01*
X52092667Y-26967873D01*
X52083095Y-27015998D01*
X52080710Y-27025519D01*
X52066466Y-27072474D01*
X52063160Y-27081712D01*
X52044383Y-27127045D01*
X52040186Y-27135919D01*
X52017055Y-27179192D01*
X52012012Y-27187607D01*
X51984752Y-27228406D01*
X51978905Y-27236290D01*
X51947777Y-27274219D01*
X51941187Y-27281490D01*
X51906490Y-27316187D01*
X51899219Y-27322777D01*
X51861290Y-27353905D01*
X51853406Y-27359752D01*
X51812607Y-27387012D01*
X51804192Y-27392055D01*
X51760919Y-27415186D01*
X51752045Y-27419383D01*
X51706712Y-27438160D01*
X51697474Y-27441466D01*
X51650519Y-27455710D01*
X51640998Y-27458095D01*
X51592873Y-27467667D01*
X51583168Y-27469106D01*
X51534337Y-27473916D01*
X51524534Y-27474398D01*
X51506114Y-27474398D01*
X51500000Y-27475000D01*
X50950000Y-27475000D01*
X50930491Y-27473079D01*
X50911732Y-27467388D01*
X50894443Y-27458147D01*
X50879289Y-27445711D01*
X50866853Y-27430557D01*
X50857612Y-27413268D01*
X50851921Y-27394509D01*
X50850000Y-27375000D01*
X50850000Y-25875000D01*
X50851921Y-25855491D01*
X50857612Y-25836732D01*
X50866853Y-25819443D01*
X50879289Y-25804289D01*
X50894443Y-25791853D01*
X50911732Y-25782612D01*
X50930491Y-25776921D01*
X50950000Y-25775000D01*
X51500000Y-25775000D01*
X51506114Y-25775602D01*
X51506114Y-25775602D01*
G37*
D19*
X48900000Y-26625000D03*
D20*
G36*
X49469509Y-25776921D02*
X49488268Y-25782612D01*
X49505557Y-25791853D01*
X49520711Y-25804289D01*
X49533147Y-25819443D01*
X49542388Y-25836732D01*
X49548079Y-25855491D01*
X49550000Y-25875000D01*
X49550000Y-26225000D01*
X49800000Y-26225000D01*
X49819509Y-26226921D01*
X49838268Y-26232612D01*
X49855557Y-26241853D01*
X49870711Y-26254289D01*
X49883147Y-26269443D01*
X49892388Y-26286732D01*
X49898079Y-26305491D01*
X49900000Y-26325000D01*
X49900000Y-26925000D01*
X49898079Y-26944509D01*
X49892388Y-26963268D01*
X49883147Y-26980557D01*
X49870711Y-26995711D01*
X49855557Y-27008147D01*
X49838268Y-27017388D01*
X49819509Y-27023079D01*
X49800000Y-27025000D01*
X49550000Y-27025000D01*
X49550000Y-27375000D01*
X49548079Y-27394509D01*
X49542388Y-27413268D01*
X49533147Y-27430557D01*
X49520711Y-27445711D01*
X49505557Y-27458147D01*
X49488268Y-27467388D01*
X49469509Y-27473079D01*
X49450000Y-27475000D01*
X48900000Y-27475000D01*
X48893886Y-27474398D01*
X48875466Y-27474398D01*
X48865663Y-27473916D01*
X48816832Y-27469106D01*
X48807127Y-27467667D01*
X48759002Y-27458095D01*
X48749481Y-27455710D01*
X48702526Y-27441466D01*
X48693288Y-27438160D01*
X48647955Y-27419383D01*
X48639081Y-27415186D01*
X48595808Y-27392055D01*
X48587393Y-27387012D01*
X48546594Y-27359752D01*
X48538710Y-27353905D01*
X48500781Y-27322777D01*
X48493510Y-27316187D01*
X48458813Y-27281490D01*
X48452223Y-27274219D01*
X48421095Y-27236290D01*
X48415248Y-27228406D01*
X48387988Y-27187607D01*
X48382945Y-27179192D01*
X48359814Y-27135919D01*
X48355617Y-27127045D01*
X48336840Y-27081712D01*
X48333534Y-27072474D01*
X48319290Y-27025519D01*
X48316905Y-27015998D01*
X48307333Y-26967873D01*
X48305894Y-26958168D01*
X48301084Y-26909337D01*
X48300602Y-26899534D01*
X48300602Y-26881114D01*
X48300000Y-26875000D01*
X48300000Y-26375000D01*
X48300602Y-26368886D01*
X48300602Y-26350466D01*
X48301084Y-26340663D01*
X48305894Y-26291832D01*
X48307333Y-26282127D01*
X48316905Y-26234002D01*
X48319290Y-26224481D01*
X48333534Y-26177526D01*
X48336840Y-26168288D01*
X48355617Y-26122955D01*
X48359814Y-26114081D01*
X48382945Y-26070808D01*
X48387988Y-26062393D01*
X48415248Y-26021594D01*
X48421095Y-26013710D01*
X48452223Y-25975781D01*
X48458813Y-25968510D01*
X48493510Y-25933813D01*
X48500781Y-25927223D01*
X48538710Y-25896095D01*
X48546594Y-25890248D01*
X48587393Y-25862988D01*
X48595808Y-25857945D01*
X48639081Y-25834814D01*
X48647955Y-25830617D01*
X48693288Y-25811840D01*
X48702526Y-25808534D01*
X48749481Y-25794290D01*
X48759002Y-25791905D01*
X48807127Y-25782333D01*
X48816832Y-25780894D01*
X48865663Y-25776084D01*
X48875466Y-25775602D01*
X48893886Y-25775602D01*
X48900000Y-25775000D01*
X49450000Y-25775000D01*
X49469509Y-25776921D01*
X49469509Y-25776921D01*
G37*
G04 #@! TD*
D21*
G04 #@! TO.C,REF\002A\002A*
X9500000Y-64475000D03*
G04 #@! TD*
D19*
G04 #@! TO.C,JP3*
X19150000Y-18100000D03*
D20*
G36*
X19998079Y-18669509D02*
X19992388Y-18688268D01*
X19983147Y-18705557D01*
X19970711Y-18720711D01*
X19955557Y-18733147D01*
X19938268Y-18742388D01*
X19919509Y-18748079D01*
X19900000Y-18750000D01*
X19550000Y-18750000D01*
X19550000Y-19000000D01*
X19548079Y-19019509D01*
X19542388Y-19038268D01*
X19533147Y-19055557D01*
X19520711Y-19070711D01*
X19505557Y-19083147D01*
X19488268Y-19092388D01*
X19469509Y-19098079D01*
X19450000Y-19100000D01*
X18850000Y-19100000D01*
X18830491Y-19098079D01*
X18811732Y-19092388D01*
X18794443Y-19083147D01*
X18779289Y-19070711D01*
X18766853Y-19055557D01*
X18757612Y-19038268D01*
X18751921Y-19019509D01*
X18750000Y-19000000D01*
X18750000Y-18750000D01*
X18400000Y-18750000D01*
X18380491Y-18748079D01*
X18361732Y-18742388D01*
X18344443Y-18733147D01*
X18329289Y-18720711D01*
X18316853Y-18705557D01*
X18307612Y-18688268D01*
X18301921Y-18669509D01*
X18300000Y-18650000D01*
X18300000Y-18100000D01*
X18300602Y-18093886D01*
X18300602Y-18075466D01*
X18301084Y-18065663D01*
X18305894Y-18016832D01*
X18307333Y-18007127D01*
X18316905Y-17959002D01*
X18319290Y-17949481D01*
X18333534Y-17902526D01*
X18336840Y-17893288D01*
X18355617Y-17847955D01*
X18359814Y-17839081D01*
X18382945Y-17795808D01*
X18387988Y-17787393D01*
X18415248Y-17746594D01*
X18421095Y-17738710D01*
X18452223Y-17700781D01*
X18458813Y-17693510D01*
X18493510Y-17658813D01*
X18500781Y-17652223D01*
X18538710Y-17621095D01*
X18546594Y-17615248D01*
X18587393Y-17587988D01*
X18595808Y-17582945D01*
X18639081Y-17559814D01*
X18647955Y-17555617D01*
X18693288Y-17536840D01*
X18702526Y-17533534D01*
X18749481Y-17519290D01*
X18759002Y-17516905D01*
X18807127Y-17507333D01*
X18816832Y-17505894D01*
X18865663Y-17501084D01*
X18875466Y-17500602D01*
X18893886Y-17500602D01*
X18900000Y-17500000D01*
X19400000Y-17500000D01*
X19406114Y-17500602D01*
X19424534Y-17500602D01*
X19434337Y-17501084D01*
X19483168Y-17505894D01*
X19492873Y-17507333D01*
X19540998Y-17516905D01*
X19550519Y-17519290D01*
X19597474Y-17533534D01*
X19606712Y-17536840D01*
X19652045Y-17555617D01*
X19660919Y-17559814D01*
X19704192Y-17582945D01*
X19712607Y-17587988D01*
X19753406Y-17615248D01*
X19761290Y-17621095D01*
X19799219Y-17652223D01*
X19806490Y-17658813D01*
X19841187Y-17693510D01*
X19847777Y-17700781D01*
X19878905Y-17738710D01*
X19884752Y-17746594D01*
X19912012Y-17787393D01*
X19917055Y-17795808D01*
X19940186Y-17839081D01*
X19944383Y-17847955D01*
X19963160Y-17893288D01*
X19966466Y-17902526D01*
X19980710Y-17949481D01*
X19983095Y-17959002D01*
X19992667Y-18007127D01*
X19994106Y-18016832D01*
X19998916Y-18065663D01*
X19999398Y-18075466D01*
X19999398Y-18093886D01*
X20000000Y-18100000D01*
X20000000Y-18650000D01*
X19998079Y-18669509D01*
X19998079Y-18669509D01*
G37*
D19*
X19150000Y-20700000D03*
D20*
G36*
X19999398Y-20706114D02*
X19999398Y-20724534D01*
X19998916Y-20734337D01*
X19994106Y-20783168D01*
X19992667Y-20792873D01*
X19983095Y-20840998D01*
X19980710Y-20850519D01*
X19966466Y-20897474D01*
X19963160Y-20906712D01*
X19944383Y-20952045D01*
X19940186Y-20960919D01*
X19917055Y-21004192D01*
X19912012Y-21012607D01*
X19884752Y-21053406D01*
X19878905Y-21061290D01*
X19847777Y-21099219D01*
X19841187Y-21106490D01*
X19806490Y-21141187D01*
X19799219Y-21147777D01*
X19761290Y-21178905D01*
X19753406Y-21184752D01*
X19712607Y-21212012D01*
X19704192Y-21217055D01*
X19660919Y-21240186D01*
X19652045Y-21244383D01*
X19606712Y-21263160D01*
X19597474Y-21266466D01*
X19550519Y-21280710D01*
X19540998Y-21283095D01*
X19492873Y-21292667D01*
X19483168Y-21294106D01*
X19434337Y-21298916D01*
X19424534Y-21299398D01*
X19406114Y-21299398D01*
X19400000Y-21300000D01*
X18900000Y-21300000D01*
X18893886Y-21299398D01*
X18875466Y-21299398D01*
X18865663Y-21298916D01*
X18816832Y-21294106D01*
X18807127Y-21292667D01*
X18759002Y-21283095D01*
X18749481Y-21280710D01*
X18702526Y-21266466D01*
X18693288Y-21263160D01*
X18647955Y-21244383D01*
X18639081Y-21240186D01*
X18595808Y-21217055D01*
X18587393Y-21212012D01*
X18546594Y-21184752D01*
X18538710Y-21178905D01*
X18500781Y-21147777D01*
X18493510Y-21141187D01*
X18458813Y-21106490D01*
X18452223Y-21099219D01*
X18421095Y-21061290D01*
X18415248Y-21053406D01*
X18387988Y-21012607D01*
X18382945Y-21004192D01*
X18359814Y-20960919D01*
X18355617Y-20952045D01*
X18336840Y-20906712D01*
X18333534Y-20897474D01*
X18319290Y-20850519D01*
X18316905Y-20840998D01*
X18307333Y-20792873D01*
X18305894Y-20783168D01*
X18301084Y-20734337D01*
X18300602Y-20724534D01*
X18300602Y-20706114D01*
X18300000Y-20700000D01*
X18300000Y-20150000D01*
X18301921Y-20130491D01*
X18307612Y-20111732D01*
X18316853Y-20094443D01*
X18329289Y-20079289D01*
X18344443Y-20066853D01*
X18361732Y-20057612D01*
X18380491Y-20051921D01*
X18400000Y-20050000D01*
X19900000Y-20050000D01*
X19919509Y-20051921D01*
X19938268Y-20057612D01*
X19955557Y-20066853D01*
X19970711Y-20079289D01*
X19983147Y-20094443D01*
X19992388Y-20111732D01*
X19998079Y-20130491D01*
X20000000Y-20150000D01*
X20000000Y-20700000D01*
X19999398Y-20706114D01*
X19999398Y-20706114D01*
G37*
D22*
X19150000Y-19400000D03*
G04 #@! TD*
D21*
G04 #@! TO.C,REF\002A\002A*
X104750000Y-26375000D03*
G04 #@! TD*
G04 #@! TO.C,REF\002A\002A*
X9500000Y-26375000D03*
G04 #@! TD*
D11*
G04 #@! TO.C,SW31*
X6960000Y-40980000D03*
X13310000Y-38440000D03*
D12*
X4420000Y-35900000D03*
X14580000Y-35900000D03*
D13*
X9500000Y-35900000D03*
G04 #@! TD*
D11*
G04 #@! TO.C,SW25*
X6960000Y-21930000D03*
X13310000Y-19390000D03*
D12*
X4420000Y-16850000D03*
X14580000Y-16850000D03*
D13*
X9500000Y-16850000D03*
G04 #@! TD*
D11*
G04 #@! TO.C,SW27*
X45060000Y-21930000D03*
X51410000Y-19390000D03*
D12*
X42520000Y-16850000D03*
X52680000Y-16850000D03*
D13*
X47600000Y-16850000D03*
G04 #@! TD*
D11*
G04 #@! TO.C,SW26*
X26010000Y-21930000D03*
X32360000Y-19390000D03*
D12*
X23470000Y-16850000D03*
X33630000Y-16850000D03*
D13*
X28550000Y-16850000D03*
G04 #@! TD*
D12*
G04 #@! TO.C,P8*
X19057500Y-5628000D03*
X19057500Y-12628000D03*
G04 #@! TD*
D11*
G04 #@! TO.C,SW42*
X102210000Y-60030000D03*
X108560000Y-57490000D03*
D12*
X99670000Y-54950000D03*
X109830000Y-54950000D03*
D13*
X104750000Y-54950000D03*
G04 #@! TD*
D23*
G04 #@! TO.C,J5*
X57176000Y-32896000D03*
D24*
X57176000Y-26296000D03*
G04 #@! TD*
D11*
G04 #@! TO.C,SW37*
X6960000Y-60030000D03*
X13310000Y-57490000D03*
D12*
X4420000Y-54950000D03*
X14580000Y-54950000D03*
D13*
X9500000Y-54950000D03*
G04 #@! TD*
D11*
G04 #@! TO.C,SW44*
X31090000Y-68920000D03*
X24740000Y-71460000D03*
D12*
X33630000Y-74000000D03*
X23470000Y-74000000D03*
D13*
X28550000Y-74000000D03*
G04 #@! TD*
D11*
G04 #@! TO.C,SW36*
X102210000Y-40980000D03*
X108560000Y-38440000D03*
D12*
X99670000Y-35900000D03*
X109830000Y-35900000D03*
D13*
X104750000Y-35900000D03*
G04 #@! TD*
D25*
G04 #@! TO.C,J10*
X81760000Y-5830000D03*
X87540000Y-5830000D03*
D26*
X88880000Y-2140000D03*
X80330000Y-2140000D03*
D27*
X88970000Y-6310000D03*
X80330000Y-6310000D03*
G04 #@! TD*
D11*
G04 #@! TO.C,SW28*
X64110000Y-21930000D03*
X70460000Y-19390000D03*
D12*
X61570000Y-16850000D03*
X71730000Y-16850000D03*
D13*
X66650000Y-16850000D03*
G04 #@! TD*
D11*
G04 #@! TO.C,SW29*
X83160000Y-21930000D03*
X89510000Y-19390000D03*
D12*
X80620000Y-16850000D03*
X90780000Y-16850000D03*
D13*
X85700000Y-16850000D03*
G04 #@! TD*
D11*
G04 #@! TO.C,SW34*
X64110000Y-40980000D03*
X70460000Y-38440000D03*
D12*
X61570000Y-35900000D03*
X71730000Y-35900000D03*
D13*
X66650000Y-35900000D03*
G04 #@! TD*
D11*
G04 #@! TO.C,SW30*
X102210000Y-21930000D03*
X108560000Y-19390000D03*
D12*
X99670000Y-16850000D03*
X109830000Y-16850000D03*
D13*
X104750000Y-16850000D03*
G04 #@! TD*
D16*
G04 #@! TO.C,REF\002A\002A*
X19250000Y-64473000D03*
G04 #@! TD*
D11*
G04 #@! TO.C,SW41*
X83160000Y-60030000D03*
X89510000Y-57490000D03*
D12*
X80620000Y-54950000D03*
X90780000Y-54950000D03*
D13*
X85700000Y-54950000D03*
G04 #@! TD*
D11*
G04 #@! TO.C,SW47*
X88240000Y-68920000D03*
X81890000Y-71460000D03*
D12*
X90780000Y-74000000D03*
X80620000Y-74000000D03*
D13*
X85700000Y-74000000D03*
G04 #@! TD*
D11*
G04 #@! TO.C,SW43*
X16485000Y-79080000D03*
X22835000Y-76540000D03*
D12*
X13945000Y-74000000D03*
X24105000Y-74000000D03*
D13*
X19025000Y-74000000D03*
G04 #@! TD*
D21*
G04 #@! TO.C,REF\002A\002A*
X104750000Y-64475000D03*
G04 #@! TD*
M02*
