G04 #@! TF.GenerationSoftware,KiCad,Pcbnew,5.0-dev-unknown-9241a39~61~ubuntu17.10.1*
G04 #@! TF.CreationDate,2018-07-19T12:56:27+02:00*
G04 #@! TF.ProjectId,vitamins_included,766974616D696E735F696E636C756465,rev?*
G04 #@! TF.SameCoordinates,Original*
G04 #@! TF.FileFunction,Soldermask,Top*
G04 #@! TF.FilePolarity,Negative*
%FSLAX46Y46*%
G04 Gerber Fmt 4.6, Leading zero omitted, Abs format (unit mm)*
G04 Created by KiCad (PCBNEW 5.0-dev-unknown-9241a39~61~ubuntu17.10.1) date Thu Jul 19 12:56:27 2018*
%MOMM*%
%LPD*%
G01*
G04 APERTURE LIST*
%ADD10C,0.010000*%
%ADD11C,3.400000*%
%ADD12C,2.100000*%
%ADD13C,4.400000*%
%ADD14C,6.400000*%
%ADD15C,1.300000*%
%ADD16C,2.400000*%
%ADD17R,2.400000X2.400000*%
%ADD18C,1.390600*%
G04 APERTURE END LIST*
D10*
G36*
X40006148Y-4685709D02*
X40157675Y-4835617D01*
X40195591Y-4936409D01*
X40190035Y-5174006D01*
X40069597Y-5333970D01*
X39880419Y-5391067D01*
X39668640Y-5320063D01*
X39599714Y-5262285D01*
X39487686Y-5118433D01*
X39494031Y-4985259D01*
X39620089Y-4801290D01*
X39809649Y-4670204D01*
X40006148Y-4685709D01*
X40006148Y-4685709D01*
G37*
X40006148Y-4685709D02*
X40157675Y-4835617D01*
X40195591Y-4936409D01*
X40190035Y-5174006D01*
X40069597Y-5333970D01*
X39880419Y-5391067D01*
X39668640Y-5320063D01*
X39599714Y-5262285D01*
X39487686Y-5118433D01*
X39494031Y-4985259D01*
X39620089Y-4801290D01*
X39809649Y-4670204D01*
X40006148Y-4685709D01*
G36*
X38881477Y-4696842D02*
X39032006Y-4840593D01*
X39122698Y-4994418D01*
X39128000Y-5029044D01*
X39064510Y-5156230D01*
X38921001Y-5297052D01*
X38767909Y-5387457D01*
X38725214Y-5395333D01*
X38595490Y-5340710D01*
X38499047Y-5262285D01*
X38391094Y-5106386D01*
X38366000Y-5014333D01*
X38431721Y-4850494D01*
X38580867Y-4699034D01*
X38739925Y-4633333D01*
X38881477Y-4696842D01*
X38881477Y-4696842D01*
G37*
X38881477Y-4696842D02*
X39032006Y-4840593D01*
X39122698Y-4994418D01*
X39128000Y-5029044D01*
X39064510Y-5156230D01*
X38921001Y-5297052D01*
X38767909Y-5387457D01*
X38725214Y-5395333D01*
X38595490Y-5340710D01*
X38499047Y-5262285D01*
X38391094Y-5106386D01*
X38366000Y-5014333D01*
X38431721Y-4850494D01*
X38580867Y-4699034D01*
X38739925Y-4633333D01*
X38881477Y-4696842D01*
G36*
X46587919Y-2162640D02*
X47533817Y-2475473D01*
X47817897Y-2600277D01*
X48461726Y-2963902D01*
X48963271Y-3397037D01*
X49341455Y-3917376D01*
X49449105Y-4125333D01*
X49542579Y-4337867D01*
X49605184Y-4533714D01*
X49642999Y-4755008D01*
X49662106Y-5043888D01*
X49668583Y-5442488D01*
X49669000Y-5649333D01*
X49656755Y-6240491D01*
X49609333Y-6725422D01*
X49510705Y-7135255D01*
X49344844Y-7501121D01*
X49095719Y-7854150D01*
X48747301Y-8225471D01*
X48283563Y-8646215D01*
X48002718Y-8885456D01*
X47724360Y-9151906D01*
X47483992Y-9438996D01*
X47349370Y-9653020D01*
X47223194Y-10001007D01*
X47176915Y-10330932D01*
X47212718Y-10596732D01*
X47298333Y-10729333D01*
X47414614Y-10867107D01*
X47370273Y-10952538D01*
X47166241Y-10984024D01*
X47150167Y-10984160D01*
X46917125Y-11020896D01*
X46617622Y-11114176D01*
X46430500Y-11191932D01*
X45986000Y-11398876D01*
X45986000Y-11179447D01*
X45977846Y-11055307D01*
X45925923Y-10996079D01*
X45789037Y-10987194D01*
X45525998Y-11014083D01*
X45520333Y-11014749D01*
X45214506Y-11032497D01*
X45061604Y-11000446D01*
X45055241Y-10926196D01*
X45189036Y-10817347D01*
X45456602Y-10681499D01*
X45851557Y-10526252D01*
X45963331Y-10487379D01*
X46621000Y-10263666D01*
X46646269Y-9732089D01*
X46653571Y-9431290D01*
X46627955Y-9238641D01*
X46551626Y-9093637D01*
X46414247Y-8943221D01*
X46146932Y-8752804D01*
X45899540Y-8720999D01*
X45684188Y-8837266D01*
X45512992Y-9091062D01*
X45398071Y-9471848D01*
X45354605Y-9865035D01*
X45333200Y-10348333D01*
X45008198Y-10401171D01*
X44662159Y-10535425D01*
X44488352Y-10697504D01*
X44293508Y-10941000D01*
X44293087Y-10660127D01*
X44279886Y-10472971D01*
X44218368Y-10414741D01*
X44102167Y-10437025D01*
X43897207Y-10537971D01*
X43721167Y-10669156D01*
X43530667Y-10843517D01*
X43530667Y-10665921D01*
X43607019Y-10416871D01*
X43808837Y-10175469D01*
X44095265Y-9981145D01*
X44332423Y-9892147D01*
X44514137Y-9843428D01*
X44635376Y-9784764D01*
X44715647Y-9682372D01*
X44774460Y-9502469D01*
X44831324Y-9211271D01*
X44875594Y-8951541D01*
X44912082Y-8636404D01*
X44892707Y-8461178D01*
X44871301Y-8434660D01*
X44765110Y-8404500D01*
X44519487Y-8351391D01*
X44161940Y-8280762D01*
X43719976Y-8198042D01*
X43221102Y-8108660D01*
X43206883Y-8106167D01*
X42264163Y-7931097D01*
X41472947Y-7761267D01*
X40815737Y-7591284D01*
X40275039Y-7415755D01*
X39833355Y-7229289D01*
X39473190Y-7026494D01*
X39297333Y-6901269D01*
X39101039Y-6705169D01*
X38912215Y-6446924D01*
X38767981Y-6185106D01*
X38705460Y-5978285D01*
X38705100Y-5966833D01*
X38643216Y-5848638D01*
X38484533Y-5818666D01*
X38253633Y-5745691D01*
X37986937Y-5540870D01*
X37965963Y-5520230D01*
X37790051Y-5329764D01*
X37708506Y-5171632D01*
X37695587Y-4980024D01*
X37802813Y-4980024D01*
X37903708Y-5283192D01*
X38089163Y-5522767D01*
X38330426Y-5676685D01*
X38598748Y-5722883D01*
X38865377Y-5639295D01*
X38992341Y-5538689D01*
X39147001Y-5364080D01*
X39242492Y-5221189D01*
X39297585Y-5141335D01*
X39352174Y-5221189D01*
X39529948Y-5471103D01*
X39781726Y-5657797D01*
X40043005Y-5733919D01*
X40050763Y-5734000D01*
X40356393Y-5662585D01*
X40588308Y-5473742D01*
X40739752Y-5205575D01*
X40803974Y-4896186D01*
X40774220Y-4583679D01*
X40643737Y-4306155D01*
X40405771Y-4101719D01*
X40345131Y-4073141D01*
X40023880Y-4007522D01*
X39734827Y-4100749D01*
X39466296Y-4351843D01*
X39324116Y-4494384D01*
X39242985Y-4498853D01*
X39236833Y-4486299D01*
X39062030Y-4219682D01*
X38790309Y-4032756D01*
X38656577Y-3991087D01*
X38386300Y-4016958D01*
X38121085Y-4167878D01*
X37910862Y-4405613D01*
X37815228Y-4635328D01*
X37802813Y-4980024D01*
X37695587Y-4980024D01*
X37694912Y-4970027D01*
X37709552Y-4784425D01*
X37760090Y-4482176D01*
X37863069Y-4272132D01*
X38017791Y-4109195D01*
X38247827Y-3962143D01*
X38508488Y-3878325D01*
X38745057Y-3867069D01*
X38902815Y-3937708D01*
X38916323Y-3955982D01*
X39006317Y-3957174D01*
X39181535Y-3861292D01*
X39310841Y-3765482D01*
X39457584Y-3651958D01*
X39589168Y-3573600D01*
X39741881Y-3522300D01*
X39952015Y-3489947D01*
X40255860Y-3468432D01*
X40689706Y-3449645D01*
X40731565Y-3448000D01*
X41810087Y-3405666D01*
X42268210Y-3055289D01*
X43057482Y-2550826D01*
X43890098Y-2208836D01*
X44760049Y-2029814D01*
X45661326Y-2014251D01*
X46587919Y-2162640D01*
X46587919Y-2162640D01*
G37*
X46587919Y-2162640D02*
X47533817Y-2475473D01*
X47817897Y-2600277D01*
X48461726Y-2963902D01*
X48963271Y-3397037D01*
X49341455Y-3917376D01*
X49449105Y-4125333D01*
X49542579Y-4337867D01*
X49605184Y-4533714D01*
X49642999Y-4755008D01*
X49662106Y-5043888D01*
X49668583Y-5442488D01*
X49669000Y-5649333D01*
X49656755Y-6240491D01*
X49609333Y-6725422D01*
X49510705Y-7135255D01*
X49344844Y-7501121D01*
X49095719Y-7854150D01*
X48747301Y-8225471D01*
X48283563Y-8646215D01*
X48002718Y-8885456D01*
X47724360Y-9151906D01*
X47483992Y-9438996D01*
X47349370Y-9653020D01*
X47223194Y-10001007D01*
X47176915Y-10330932D01*
X47212718Y-10596732D01*
X47298333Y-10729333D01*
X47414614Y-10867107D01*
X47370273Y-10952538D01*
X47166241Y-10984024D01*
X47150167Y-10984160D01*
X46917125Y-11020896D01*
X46617622Y-11114176D01*
X46430500Y-11191932D01*
X45986000Y-11398876D01*
X45986000Y-11179447D01*
X45977846Y-11055307D01*
X45925923Y-10996079D01*
X45789037Y-10987194D01*
X45525998Y-11014083D01*
X45520333Y-11014749D01*
X45214506Y-11032497D01*
X45061604Y-11000446D01*
X45055241Y-10926196D01*
X45189036Y-10817347D01*
X45456602Y-10681499D01*
X45851557Y-10526252D01*
X45963331Y-10487379D01*
X46621000Y-10263666D01*
X46646269Y-9732089D01*
X46653571Y-9431290D01*
X46627955Y-9238641D01*
X46551626Y-9093637D01*
X46414247Y-8943221D01*
X46146932Y-8752804D01*
X45899540Y-8720999D01*
X45684188Y-8837266D01*
X45512992Y-9091062D01*
X45398071Y-9471848D01*
X45354605Y-9865035D01*
X45333200Y-10348333D01*
X45008198Y-10401171D01*
X44662159Y-10535425D01*
X44488352Y-10697504D01*
X44293508Y-10941000D01*
X44293087Y-10660127D01*
X44279886Y-10472971D01*
X44218368Y-10414741D01*
X44102167Y-10437025D01*
X43897207Y-10537971D01*
X43721167Y-10669156D01*
X43530667Y-10843517D01*
X43530667Y-10665921D01*
X43607019Y-10416871D01*
X43808837Y-10175469D01*
X44095265Y-9981145D01*
X44332423Y-9892147D01*
X44514137Y-9843428D01*
X44635376Y-9784764D01*
X44715647Y-9682372D01*
X44774460Y-9502469D01*
X44831324Y-9211271D01*
X44875594Y-8951541D01*
X44912082Y-8636404D01*
X44892707Y-8461178D01*
X44871301Y-8434660D01*
X44765110Y-8404500D01*
X44519487Y-8351391D01*
X44161940Y-8280762D01*
X43719976Y-8198042D01*
X43221102Y-8108660D01*
X43206883Y-8106167D01*
X42264163Y-7931097D01*
X41472947Y-7761267D01*
X40815737Y-7591284D01*
X40275039Y-7415755D01*
X39833355Y-7229289D01*
X39473190Y-7026494D01*
X39297333Y-6901269D01*
X39101039Y-6705169D01*
X38912215Y-6446924D01*
X38767981Y-6185106D01*
X38705460Y-5978285D01*
X38705100Y-5966833D01*
X38643216Y-5848638D01*
X38484533Y-5818666D01*
X38253633Y-5745691D01*
X37986937Y-5540870D01*
X37965963Y-5520230D01*
X37790051Y-5329764D01*
X37708506Y-5171632D01*
X37695587Y-4980024D01*
X37802813Y-4980024D01*
X37903708Y-5283192D01*
X38089163Y-5522767D01*
X38330426Y-5676685D01*
X38598748Y-5722883D01*
X38865377Y-5639295D01*
X38992341Y-5538689D01*
X39147001Y-5364080D01*
X39242492Y-5221189D01*
X39297585Y-5141335D01*
X39352174Y-5221189D01*
X39529948Y-5471103D01*
X39781726Y-5657797D01*
X40043005Y-5733919D01*
X40050763Y-5734000D01*
X40356393Y-5662585D01*
X40588308Y-5473742D01*
X40739752Y-5205575D01*
X40803974Y-4896186D01*
X40774220Y-4583679D01*
X40643737Y-4306155D01*
X40405771Y-4101719D01*
X40345131Y-4073141D01*
X40023880Y-4007522D01*
X39734827Y-4100749D01*
X39466296Y-4351843D01*
X39324116Y-4494384D01*
X39242985Y-4498853D01*
X39236833Y-4486299D01*
X39062030Y-4219682D01*
X38790309Y-4032756D01*
X38656577Y-3991087D01*
X38386300Y-4016958D01*
X38121085Y-4167878D01*
X37910862Y-4405613D01*
X37815228Y-4635328D01*
X37802813Y-4980024D01*
X37695587Y-4980024D01*
X37694912Y-4970027D01*
X37709552Y-4784425D01*
X37760090Y-4482176D01*
X37863069Y-4272132D01*
X38017791Y-4109195D01*
X38247827Y-3962143D01*
X38508488Y-3878325D01*
X38745057Y-3867069D01*
X38902815Y-3937708D01*
X38916323Y-3955982D01*
X39006317Y-3957174D01*
X39181535Y-3861292D01*
X39310841Y-3765482D01*
X39457584Y-3651958D01*
X39589168Y-3573600D01*
X39741881Y-3522300D01*
X39952015Y-3489947D01*
X40255860Y-3468432D01*
X40689706Y-3449645D01*
X40731565Y-3448000D01*
X41810087Y-3405666D01*
X42268210Y-3055289D01*
X43057482Y-2550826D01*
X43890098Y-2208836D01*
X44760049Y-2029814D01*
X45661326Y-2014251D01*
X46587919Y-2162640D01*
G36*
X182587919Y-2162640D02*
X183533817Y-2475473D01*
X183817897Y-2600277D01*
X184461726Y-2963902D01*
X184963271Y-3397037D01*
X185341455Y-3917376D01*
X185449105Y-4125333D01*
X185542579Y-4337867D01*
X185605184Y-4533714D01*
X185642999Y-4755008D01*
X185662106Y-5043888D01*
X185668583Y-5442488D01*
X185669000Y-5649333D01*
X185656755Y-6240491D01*
X185609333Y-6725422D01*
X185510705Y-7135255D01*
X185344844Y-7501121D01*
X185095719Y-7854150D01*
X184747301Y-8225471D01*
X184283563Y-8646215D01*
X184002718Y-8885456D01*
X183724360Y-9151906D01*
X183483992Y-9438996D01*
X183349370Y-9653020D01*
X183223194Y-10001007D01*
X183176915Y-10330932D01*
X183212718Y-10596732D01*
X183298333Y-10729333D01*
X183414614Y-10867107D01*
X183370273Y-10952538D01*
X183166241Y-10984024D01*
X183150167Y-10984160D01*
X182917125Y-11020896D01*
X182617622Y-11114176D01*
X182430500Y-11191932D01*
X181986000Y-11398876D01*
X181986000Y-11179447D01*
X181977846Y-11055307D01*
X181925923Y-10996079D01*
X181789037Y-10987194D01*
X181525998Y-11014083D01*
X181520333Y-11014749D01*
X181214506Y-11032497D01*
X181061604Y-11000446D01*
X181055241Y-10926196D01*
X181189036Y-10817347D01*
X181456602Y-10681499D01*
X181851557Y-10526252D01*
X181963331Y-10487379D01*
X182621000Y-10263666D01*
X182646269Y-9732089D01*
X182653571Y-9431290D01*
X182627955Y-9238641D01*
X182551626Y-9093637D01*
X182414247Y-8943221D01*
X182146932Y-8752804D01*
X181899540Y-8720999D01*
X181684188Y-8837266D01*
X181512992Y-9091062D01*
X181398071Y-9471848D01*
X181354605Y-9865035D01*
X181333200Y-10348333D01*
X181008198Y-10401171D01*
X180662159Y-10535425D01*
X180488352Y-10697504D01*
X180293508Y-10941000D01*
X180293087Y-10660127D01*
X180279886Y-10472971D01*
X180218368Y-10414741D01*
X180102167Y-10437025D01*
X179897207Y-10537971D01*
X179721167Y-10669156D01*
X179530667Y-10843517D01*
X179530667Y-10665921D01*
X179607019Y-10416871D01*
X179808837Y-10175469D01*
X180095265Y-9981145D01*
X180332423Y-9892147D01*
X180514137Y-9843428D01*
X180635376Y-9784764D01*
X180715647Y-9682372D01*
X180774460Y-9502469D01*
X180831324Y-9211271D01*
X180875594Y-8951541D01*
X180912082Y-8636404D01*
X180892707Y-8461178D01*
X180871301Y-8434660D01*
X180765110Y-8404500D01*
X180519487Y-8351391D01*
X180161940Y-8280762D01*
X179719976Y-8198042D01*
X179221102Y-8108660D01*
X179206883Y-8106167D01*
X178264163Y-7931097D01*
X177472947Y-7761267D01*
X176815737Y-7591284D01*
X176275039Y-7415755D01*
X175833355Y-7229289D01*
X175473190Y-7026494D01*
X175297333Y-6901269D01*
X175101039Y-6705169D01*
X174912215Y-6446924D01*
X174767981Y-6185106D01*
X174705460Y-5978285D01*
X174705100Y-5966833D01*
X174643216Y-5848638D01*
X174484533Y-5818666D01*
X174253633Y-5745691D01*
X173986937Y-5540870D01*
X173965963Y-5520230D01*
X173790051Y-5329764D01*
X173708506Y-5171632D01*
X173695587Y-4980024D01*
X173802813Y-4980024D01*
X173903708Y-5283192D01*
X174089163Y-5522767D01*
X174330426Y-5676685D01*
X174598748Y-5722883D01*
X174865377Y-5639295D01*
X174992341Y-5538689D01*
X175147001Y-5364080D01*
X175242492Y-5221189D01*
X175297585Y-5141335D01*
X175352174Y-5221189D01*
X175529948Y-5471103D01*
X175781726Y-5657797D01*
X176043005Y-5733919D01*
X176050763Y-5734000D01*
X176356393Y-5662585D01*
X176588308Y-5473742D01*
X176739752Y-5205575D01*
X176803974Y-4896186D01*
X176774220Y-4583679D01*
X176643737Y-4306155D01*
X176405771Y-4101719D01*
X176345131Y-4073141D01*
X176023880Y-4007522D01*
X175734827Y-4100749D01*
X175466296Y-4351843D01*
X175324116Y-4494384D01*
X175242985Y-4498853D01*
X175236833Y-4486299D01*
X175062030Y-4219682D01*
X174790309Y-4032756D01*
X174656577Y-3991087D01*
X174386300Y-4016958D01*
X174121085Y-4167878D01*
X173910862Y-4405613D01*
X173815228Y-4635328D01*
X173802813Y-4980024D01*
X173695587Y-4980024D01*
X173694912Y-4970027D01*
X173709552Y-4784425D01*
X173760090Y-4482176D01*
X173863069Y-4272132D01*
X174017791Y-4109195D01*
X174247827Y-3962143D01*
X174508488Y-3878325D01*
X174745057Y-3867069D01*
X174902815Y-3937708D01*
X174916323Y-3955982D01*
X175006317Y-3957174D01*
X175181535Y-3861292D01*
X175310841Y-3765482D01*
X175457584Y-3651958D01*
X175589168Y-3573600D01*
X175741881Y-3522300D01*
X175952015Y-3489947D01*
X176255860Y-3468432D01*
X176689706Y-3449645D01*
X176731565Y-3448000D01*
X177810087Y-3405666D01*
X178268210Y-3055289D01*
X179057482Y-2550826D01*
X179890098Y-2208836D01*
X180760049Y-2029814D01*
X181661326Y-2014251D01*
X182587919Y-2162640D01*
X182587919Y-2162640D01*
G37*
X182587919Y-2162640D02*
X183533817Y-2475473D01*
X183817897Y-2600277D01*
X184461726Y-2963902D01*
X184963271Y-3397037D01*
X185341455Y-3917376D01*
X185449105Y-4125333D01*
X185542579Y-4337867D01*
X185605184Y-4533714D01*
X185642999Y-4755008D01*
X185662106Y-5043888D01*
X185668583Y-5442488D01*
X185669000Y-5649333D01*
X185656755Y-6240491D01*
X185609333Y-6725422D01*
X185510705Y-7135255D01*
X185344844Y-7501121D01*
X185095719Y-7854150D01*
X184747301Y-8225471D01*
X184283563Y-8646215D01*
X184002718Y-8885456D01*
X183724360Y-9151906D01*
X183483992Y-9438996D01*
X183349370Y-9653020D01*
X183223194Y-10001007D01*
X183176915Y-10330932D01*
X183212718Y-10596732D01*
X183298333Y-10729333D01*
X183414614Y-10867107D01*
X183370273Y-10952538D01*
X183166241Y-10984024D01*
X183150167Y-10984160D01*
X182917125Y-11020896D01*
X182617622Y-11114176D01*
X182430500Y-11191932D01*
X181986000Y-11398876D01*
X181986000Y-11179447D01*
X181977846Y-11055307D01*
X181925923Y-10996079D01*
X181789037Y-10987194D01*
X181525998Y-11014083D01*
X181520333Y-11014749D01*
X181214506Y-11032497D01*
X181061604Y-11000446D01*
X181055241Y-10926196D01*
X181189036Y-10817347D01*
X181456602Y-10681499D01*
X181851557Y-10526252D01*
X181963331Y-10487379D01*
X182621000Y-10263666D01*
X182646269Y-9732089D01*
X182653571Y-9431290D01*
X182627955Y-9238641D01*
X182551626Y-9093637D01*
X182414247Y-8943221D01*
X182146932Y-8752804D01*
X181899540Y-8720999D01*
X181684188Y-8837266D01*
X181512992Y-9091062D01*
X181398071Y-9471848D01*
X181354605Y-9865035D01*
X181333200Y-10348333D01*
X181008198Y-10401171D01*
X180662159Y-10535425D01*
X180488352Y-10697504D01*
X180293508Y-10941000D01*
X180293087Y-10660127D01*
X180279886Y-10472971D01*
X180218368Y-10414741D01*
X180102167Y-10437025D01*
X179897207Y-10537971D01*
X179721167Y-10669156D01*
X179530667Y-10843517D01*
X179530667Y-10665921D01*
X179607019Y-10416871D01*
X179808837Y-10175469D01*
X180095265Y-9981145D01*
X180332423Y-9892147D01*
X180514137Y-9843428D01*
X180635376Y-9784764D01*
X180715647Y-9682372D01*
X180774460Y-9502469D01*
X180831324Y-9211271D01*
X180875594Y-8951541D01*
X180912082Y-8636404D01*
X180892707Y-8461178D01*
X180871301Y-8434660D01*
X180765110Y-8404500D01*
X180519487Y-8351391D01*
X180161940Y-8280762D01*
X179719976Y-8198042D01*
X179221102Y-8108660D01*
X179206883Y-8106167D01*
X178264163Y-7931097D01*
X177472947Y-7761267D01*
X176815737Y-7591284D01*
X176275039Y-7415755D01*
X175833355Y-7229289D01*
X175473190Y-7026494D01*
X175297333Y-6901269D01*
X175101039Y-6705169D01*
X174912215Y-6446924D01*
X174767981Y-6185106D01*
X174705460Y-5978285D01*
X174705100Y-5966833D01*
X174643216Y-5848638D01*
X174484533Y-5818666D01*
X174253633Y-5745691D01*
X173986937Y-5540870D01*
X173965963Y-5520230D01*
X173790051Y-5329764D01*
X173708506Y-5171632D01*
X173695587Y-4980024D01*
X173802813Y-4980024D01*
X173903708Y-5283192D01*
X174089163Y-5522767D01*
X174330426Y-5676685D01*
X174598748Y-5722883D01*
X174865377Y-5639295D01*
X174992341Y-5538689D01*
X175147001Y-5364080D01*
X175242492Y-5221189D01*
X175297585Y-5141335D01*
X175352174Y-5221189D01*
X175529948Y-5471103D01*
X175781726Y-5657797D01*
X176043005Y-5733919D01*
X176050763Y-5734000D01*
X176356393Y-5662585D01*
X176588308Y-5473742D01*
X176739752Y-5205575D01*
X176803974Y-4896186D01*
X176774220Y-4583679D01*
X176643737Y-4306155D01*
X176405771Y-4101719D01*
X176345131Y-4073141D01*
X176023880Y-4007522D01*
X175734827Y-4100749D01*
X175466296Y-4351843D01*
X175324116Y-4494384D01*
X175242985Y-4498853D01*
X175236833Y-4486299D01*
X175062030Y-4219682D01*
X174790309Y-4032756D01*
X174656577Y-3991087D01*
X174386300Y-4016958D01*
X174121085Y-4167878D01*
X173910862Y-4405613D01*
X173815228Y-4635328D01*
X173802813Y-4980024D01*
X173695587Y-4980024D01*
X173694912Y-4970027D01*
X173709552Y-4784425D01*
X173760090Y-4482176D01*
X173863069Y-4272132D01*
X174017791Y-4109195D01*
X174247827Y-3962143D01*
X174508488Y-3878325D01*
X174745057Y-3867069D01*
X174902815Y-3937708D01*
X174916323Y-3955982D01*
X175006317Y-3957174D01*
X175181535Y-3861292D01*
X175310841Y-3765482D01*
X175457584Y-3651958D01*
X175589168Y-3573600D01*
X175741881Y-3522300D01*
X175952015Y-3489947D01*
X176255860Y-3468432D01*
X176689706Y-3449645D01*
X176731565Y-3448000D01*
X177810087Y-3405666D01*
X178268210Y-3055289D01*
X179057482Y-2550826D01*
X179890098Y-2208836D01*
X180760049Y-2029814D01*
X181661326Y-2014251D01*
X182587919Y-2162640D01*
G36*
X174881477Y-4696842D02*
X175032006Y-4840593D01*
X175122698Y-4994418D01*
X175128000Y-5029044D01*
X175064510Y-5156230D01*
X174921001Y-5297052D01*
X174767909Y-5387457D01*
X174725214Y-5395333D01*
X174595490Y-5340710D01*
X174499047Y-5262285D01*
X174391094Y-5106386D01*
X174366000Y-5014333D01*
X174431721Y-4850494D01*
X174580867Y-4699034D01*
X174739925Y-4633333D01*
X174881477Y-4696842D01*
X174881477Y-4696842D01*
G37*
X174881477Y-4696842D02*
X175032006Y-4840593D01*
X175122698Y-4994418D01*
X175128000Y-5029044D01*
X175064510Y-5156230D01*
X174921001Y-5297052D01*
X174767909Y-5387457D01*
X174725214Y-5395333D01*
X174595490Y-5340710D01*
X174499047Y-5262285D01*
X174391094Y-5106386D01*
X174366000Y-5014333D01*
X174431721Y-4850494D01*
X174580867Y-4699034D01*
X174739925Y-4633333D01*
X174881477Y-4696842D01*
G36*
X176006148Y-4685709D02*
X176157675Y-4835617D01*
X176195591Y-4936409D01*
X176190035Y-5174006D01*
X176069597Y-5333970D01*
X175880419Y-5391067D01*
X175668640Y-5320063D01*
X175599714Y-5262285D01*
X175487686Y-5118433D01*
X175494031Y-4985259D01*
X175620089Y-4801290D01*
X175809649Y-4670204D01*
X176006148Y-4685709D01*
X176006148Y-4685709D01*
G37*
X176006148Y-4685709D02*
X176157675Y-4835617D01*
X176195591Y-4936409D01*
X176190035Y-5174006D01*
X176069597Y-5333970D01*
X175880419Y-5391067D01*
X175668640Y-5320063D01*
X175599714Y-5262285D01*
X175487686Y-5118433D01*
X175494031Y-4985259D01*
X175620089Y-4801290D01*
X175809649Y-4670204D01*
X176006148Y-4685709D01*
D11*
X45060000Y-21930000D03*
X51410000Y-19390000D03*
D12*
X42520000Y-16850000D03*
X52680000Y-16850000D03*
D13*
X47600000Y-16850000D03*
D11*
X26010000Y-60030000D03*
X32360000Y-57490000D03*
D12*
X23470000Y-54950000D03*
X33630000Y-54950000D03*
D13*
X28550000Y-54950000D03*
D11*
X26010000Y-21930000D03*
X32360000Y-19390000D03*
D12*
X23470000Y-16850000D03*
X33630000Y-16850000D03*
D13*
X28550000Y-16850000D03*
D11*
X102210000Y-60030000D03*
X108560000Y-57490000D03*
D12*
X99670000Y-54950000D03*
X109830000Y-54950000D03*
D13*
X104750000Y-54950000D03*
D11*
X45060000Y-40980000D03*
X51410000Y-38440000D03*
D12*
X42520000Y-35900000D03*
X52680000Y-35900000D03*
D13*
X47600000Y-35900000D03*
D11*
X6960000Y-40980000D03*
X13310000Y-38440000D03*
D12*
X4420000Y-35900000D03*
X14580000Y-35900000D03*
D13*
X9500000Y-35900000D03*
D11*
X83160000Y-40980000D03*
X89510000Y-38440000D03*
D12*
X80620000Y-35900000D03*
X90780000Y-35900000D03*
D13*
X85700000Y-35900000D03*
D11*
X64110000Y-40980000D03*
X70460000Y-38440000D03*
D12*
X61570000Y-35900000D03*
X71730000Y-35900000D03*
D13*
X66650000Y-35900000D03*
D11*
X26010000Y-40980000D03*
X32360000Y-38440000D03*
D12*
X23470000Y-35900000D03*
X33630000Y-35900000D03*
D13*
X28550000Y-35900000D03*
D11*
X83160000Y-60030000D03*
X89510000Y-57490000D03*
D12*
X80620000Y-54950000D03*
X90780000Y-54950000D03*
D13*
X85700000Y-54950000D03*
D11*
X64110000Y-60030000D03*
X70460000Y-57490000D03*
D12*
X61570000Y-54950000D03*
X71730000Y-54950000D03*
D13*
X66650000Y-54950000D03*
D11*
X69190000Y-68920000D03*
X62840000Y-71460000D03*
D12*
X71730000Y-74000000D03*
X61570000Y-74000000D03*
D13*
X66650000Y-74000000D03*
D11*
X6960000Y-21930000D03*
X13310000Y-19390000D03*
D12*
X4420000Y-16850000D03*
X14580000Y-16850000D03*
D13*
X9500000Y-16850000D03*
D11*
X128290000Y-68920000D03*
X121940000Y-71460000D03*
D12*
X130830000Y-74000000D03*
X120670000Y-74000000D03*
D13*
X125750000Y-74000000D03*
D11*
X180360000Y-60030000D03*
X186710000Y-57490000D03*
D12*
X177820000Y-54950000D03*
X187980000Y-54950000D03*
D13*
X182900000Y-54950000D03*
D11*
X218460000Y-40980000D03*
X224810000Y-38440000D03*
D12*
X215920000Y-35900000D03*
X226080000Y-35900000D03*
D13*
X221000000Y-35900000D03*
D11*
X199410000Y-60030000D03*
X205760000Y-57490000D03*
D12*
X196870000Y-54950000D03*
X207030000Y-54950000D03*
D13*
X201950000Y-54950000D03*
D11*
X132735000Y-79080000D03*
X139085000Y-76540000D03*
D12*
X130195000Y-74000000D03*
X140355000Y-74000000D03*
D13*
X135275000Y-74000000D03*
D11*
X147340000Y-68920000D03*
X140990000Y-71460000D03*
D12*
X149880000Y-74000000D03*
X139720000Y-74000000D03*
D13*
X144800000Y-74000000D03*
D11*
X218460000Y-60030000D03*
X224810000Y-57490000D03*
D12*
X215920000Y-54950000D03*
X226080000Y-54950000D03*
D13*
X221000000Y-54950000D03*
D11*
X166390000Y-68920000D03*
X160040000Y-71460000D03*
D12*
X168930000Y-74000000D03*
X158770000Y-74000000D03*
D13*
X163850000Y-74000000D03*
D11*
X199410000Y-40980000D03*
X205760000Y-38440000D03*
D12*
X196870000Y-35900000D03*
X207030000Y-35900000D03*
D13*
X201950000Y-35900000D03*
D11*
X180360000Y-21930000D03*
X186710000Y-19390000D03*
D12*
X177820000Y-16850000D03*
X187980000Y-16850000D03*
D13*
X182900000Y-16850000D03*
D11*
X180360000Y-40980000D03*
X186710000Y-38440000D03*
D12*
X177820000Y-35900000D03*
X187980000Y-35900000D03*
D13*
X182900000Y-35900000D03*
D11*
X223540000Y-68920000D03*
X217190000Y-71460000D03*
D12*
X226080000Y-74000000D03*
X215920000Y-74000000D03*
D13*
X221000000Y-74000000D03*
D11*
X204490000Y-68920000D03*
X198140000Y-71460000D03*
D12*
X207030000Y-74000000D03*
X196870000Y-74000000D03*
D13*
X201950000Y-74000000D03*
D11*
X161310000Y-40980000D03*
X167660000Y-38440000D03*
D12*
X158770000Y-35900000D03*
X168930000Y-35900000D03*
D13*
X163850000Y-35900000D03*
D11*
X161310000Y-60030000D03*
X167660000Y-57490000D03*
D12*
X158770000Y-54950000D03*
X168930000Y-54950000D03*
D13*
X163850000Y-54950000D03*
D11*
X142260000Y-40980000D03*
X148610000Y-38440000D03*
D12*
X139720000Y-35900000D03*
X149880000Y-35900000D03*
D13*
X144800000Y-35900000D03*
D11*
X142260000Y-21930000D03*
X148610000Y-19390000D03*
D12*
X139720000Y-16850000D03*
X149880000Y-16850000D03*
D13*
X144800000Y-16850000D03*
D11*
X199410000Y-21930000D03*
X205760000Y-19390000D03*
D12*
X196870000Y-16850000D03*
X207030000Y-16850000D03*
D13*
X201950000Y-16850000D03*
D11*
X185440000Y-68920000D03*
X179090000Y-71460000D03*
D12*
X187980000Y-74000000D03*
X177820000Y-74000000D03*
D13*
X182900000Y-74000000D03*
D11*
X218460000Y-21930000D03*
X224810000Y-19390000D03*
D12*
X215920000Y-16850000D03*
X226080000Y-16850000D03*
D13*
X221000000Y-16850000D03*
D11*
X142260000Y-60030000D03*
X148610000Y-57490000D03*
D12*
X139720000Y-54950000D03*
X149880000Y-54950000D03*
D13*
X144800000Y-54950000D03*
D11*
X161310000Y-21930000D03*
X167660000Y-19390000D03*
D12*
X158770000Y-16850000D03*
X168930000Y-16850000D03*
D13*
X163850000Y-16850000D03*
D11*
X123210000Y-40980000D03*
X129560000Y-38440000D03*
D12*
X120670000Y-35900000D03*
X130830000Y-35900000D03*
D13*
X125750000Y-35900000D03*
D11*
X123210000Y-21930000D03*
X129560000Y-19390000D03*
D12*
X120670000Y-16850000D03*
X130830000Y-16850000D03*
D13*
X125750000Y-16850000D03*
D11*
X123210000Y-60030000D03*
X129560000Y-57490000D03*
D12*
X120670000Y-54950000D03*
X130830000Y-54950000D03*
D13*
X125750000Y-54950000D03*
D11*
X12040000Y-68920000D03*
X5690000Y-71460000D03*
D12*
X14580000Y-74000000D03*
X4420000Y-74000000D03*
D13*
X9500000Y-74000000D03*
D11*
X102210000Y-40980000D03*
X108560000Y-38440000D03*
D12*
X99670000Y-35900000D03*
X109830000Y-35900000D03*
D13*
X104750000Y-35900000D03*
D11*
X50140000Y-68920000D03*
X43790000Y-71460000D03*
D12*
X52680000Y-74000000D03*
X42520000Y-74000000D03*
D13*
X47600000Y-74000000D03*
D11*
X88240000Y-68920000D03*
X81890000Y-71460000D03*
D12*
X90780000Y-74000000D03*
X80620000Y-74000000D03*
D13*
X85700000Y-74000000D03*
D11*
X92685000Y-79080000D03*
X99035000Y-76540000D03*
D12*
X90145000Y-74000000D03*
X100305000Y-74000000D03*
D13*
X95225000Y-74000000D03*
D11*
X107290000Y-68920000D03*
X100940000Y-71460000D03*
D12*
X109830000Y-74000000D03*
X99670000Y-74000000D03*
D13*
X104750000Y-74000000D03*
D11*
X102210000Y-21930000D03*
X108560000Y-19390000D03*
D12*
X99670000Y-16850000D03*
X109830000Y-16850000D03*
D13*
X104750000Y-16850000D03*
D11*
X45060000Y-60030000D03*
X51410000Y-57490000D03*
D12*
X42520000Y-54950000D03*
X52680000Y-54950000D03*
D13*
X47600000Y-54950000D03*
D11*
X64110000Y-21930000D03*
X70460000Y-19390000D03*
D12*
X61570000Y-16850000D03*
X71730000Y-16850000D03*
D13*
X66650000Y-16850000D03*
D11*
X83160000Y-21930000D03*
X89510000Y-19390000D03*
D12*
X80620000Y-16850000D03*
X90780000Y-16850000D03*
D13*
X85700000Y-16850000D03*
D11*
X6960000Y-60030000D03*
X13310000Y-57490000D03*
D12*
X4420000Y-54950000D03*
X14580000Y-54950000D03*
D13*
X9500000Y-54950000D03*
D11*
X31090000Y-68920000D03*
X24740000Y-71460000D03*
D12*
X33630000Y-74000000D03*
X23470000Y-74000000D03*
D13*
X28550000Y-74000000D03*
D14*
X19000000Y-27000000D03*
X211500000Y-27000000D03*
D15*
X203050000Y-5250000D03*
X198650000Y-5250000D03*
D12*
X135307500Y-5628000D03*
X135307500Y-12628000D03*
D14*
X135500000Y-27000000D03*
X211500000Y-64500000D03*
X135500000Y-64473000D03*
D16*
X173426000Y-32896000D03*
D17*
X173426000Y-26296000D03*
D14*
X95000000Y-27000000D03*
X95000000Y-64500000D03*
D15*
X27450000Y-5250000D03*
X31850000Y-5250000D03*
D17*
X57176000Y-26296000D03*
D16*
X57176000Y-32896000D03*
D12*
X95192500Y-12628000D03*
X95192500Y-5628000D03*
D14*
X19000000Y-64500000D03*
D18*
X76250000Y-10960000D03*
X77266000Y-16040000D03*
X75234000Y-16040000D03*
X191484000Y-16040000D03*
X193516000Y-16040000D03*
X192500000Y-10960000D03*
M02*
