G04 #@! TF.GenerationSoftware,KiCad,Pcbnew,5.0-dev-unknown-9241a39~61~ubuntu17.10.1*
G04 #@! TF.CreationDate,2018-07-19T12:56:27+02:00*
G04 #@! TF.ProjectId,vitamins_included,766974616D696E735F696E636C756465,rev?*
G04 #@! TF.SameCoordinates,Original*
G04 #@! TF.FileFunction,Paste,Bot*
G04 #@! TF.FilePolarity,Positive*
%FSLAX46Y46*%
G04 Gerber Fmt 4.6, Leading zero omitted, Abs format (unit mm)*
G04 Created by KiCad (PCBNEW 5.0-dev-unknown-9241a39~61~ubuntu17.10.1) date Thu Jul 19 12:56:27 2018*
%MOMM*%
%LPD*%
G01*
G04 APERTURE LIST*
%ADD10R,2.550000X2.500000*%
%ADD11C,1.000000*%
%ADD12C,0.100000*%
%ADD13R,0.750000X0.800000*%
%ADD14R,0.500000X2.300000*%
%ADD15R,2.000000X2.500000*%
%ADD16R,0.800000X0.900000*%
%ADD17R,0.500000X0.900000*%
%ADD18R,2.400000X1.900000*%
%ADD19R,2.800000X2.800000*%
%ADD20R,2.800000X2.200000*%
%ADD21R,2.800000X2.000000*%
%ADD22R,5.080000X5.080000*%
%ADD23R,0.998220X0.299720*%
%ADD24R,0.299720X0.998220*%
%ADD25R,0.900000X0.500000*%
%ADD26R,1.500000X1.000000*%
%ADD27R,2.500000X1.800000*%
G04 APERTURE END LIST*
D10*
X54960000Y-19390000D03*
X41510000Y-21930000D03*
X35910000Y-57490000D03*
X22460000Y-60030000D03*
X35910000Y-19390000D03*
X22460000Y-21930000D03*
X112110000Y-57490000D03*
X98660000Y-60030000D03*
X54960000Y-38440000D03*
X41510000Y-40980000D03*
X16860000Y-38440000D03*
X3410000Y-40980000D03*
X93060000Y-38440000D03*
X79610000Y-40980000D03*
X74010000Y-38440000D03*
X60560000Y-40980000D03*
X35910000Y-38440000D03*
X22460000Y-40980000D03*
X93060000Y-57490000D03*
X79610000Y-60030000D03*
X74010000Y-57490000D03*
X60560000Y-60030000D03*
X59290000Y-71460000D03*
X72740000Y-68920000D03*
X16860000Y-19390000D03*
X3410000Y-21930000D03*
X118390000Y-71460000D03*
X131840000Y-68920000D03*
X190260000Y-57490000D03*
X176810000Y-60030000D03*
X228360000Y-38440000D03*
X214910000Y-40980000D03*
X209310000Y-57490000D03*
X195860000Y-60030000D03*
D11*
X142635000Y-76540000D03*
D12*
G36*
X143910000Y-76540000D02*
X143910000Y-77790000D01*
X141360000Y-77790000D01*
X141360000Y-75290000D01*
X142635000Y-75290000D01*
X143910000Y-76540000D01*
X143910000Y-76540000D01*
G37*
D10*
X129185000Y-79080000D03*
D11*
X137440000Y-71460000D03*
D12*
G36*
X136165000Y-71460000D02*
X136165000Y-70210000D01*
X138715000Y-70210000D01*
X138715000Y-72710000D01*
X137440000Y-72710000D01*
X136165000Y-71460000D01*
X136165000Y-71460000D01*
G37*
D10*
X150890000Y-68920000D03*
X228360000Y-57490000D03*
X214910000Y-60030000D03*
X156490000Y-71460000D03*
X169940000Y-68920000D03*
X209310000Y-38440000D03*
X195860000Y-40980000D03*
X190260000Y-19390000D03*
X176810000Y-21930000D03*
X190260000Y-38440000D03*
X176810000Y-40980000D03*
X213640000Y-71460000D03*
X227090000Y-68920000D03*
X194590000Y-71460000D03*
X208040000Y-68920000D03*
X171210000Y-38440000D03*
X157760000Y-40980000D03*
X171210000Y-57490000D03*
X157760000Y-60030000D03*
X152160000Y-38440000D03*
X138710000Y-40980000D03*
X152160000Y-19390000D03*
X138710000Y-21930000D03*
X209310000Y-19390000D03*
X195860000Y-21930000D03*
X175540000Y-71460000D03*
X188990000Y-68920000D03*
X228360000Y-19390000D03*
X214910000Y-21930000D03*
X152160000Y-57490000D03*
X138710000Y-60030000D03*
X171210000Y-19390000D03*
X157760000Y-21930000D03*
X133110000Y-38440000D03*
X119660000Y-40980000D03*
X133110000Y-19390000D03*
X119660000Y-21930000D03*
X133110000Y-57490000D03*
X119660000Y-60030000D03*
X2140000Y-71460000D03*
X15590000Y-68920000D03*
X112110000Y-38440000D03*
X98660000Y-40980000D03*
X40240000Y-71460000D03*
X53690000Y-68920000D03*
X78340000Y-71460000D03*
X91790000Y-68920000D03*
D11*
X102585000Y-76540000D03*
D12*
G36*
X103860000Y-76540000D02*
X103860000Y-77790000D01*
X101310000Y-77790000D01*
X101310000Y-75290000D01*
X102585000Y-75290000D01*
X103860000Y-76540000D01*
X103860000Y-76540000D01*
G37*
D10*
X89135000Y-79080000D03*
D11*
X97390000Y-71460000D03*
D12*
G36*
X96115000Y-71460000D02*
X96115000Y-70210000D01*
X98665000Y-70210000D01*
X98665000Y-72710000D01*
X97390000Y-72710000D01*
X96115000Y-71460000D01*
X96115000Y-71460000D01*
G37*
D10*
X110840000Y-68920000D03*
X112110000Y-19390000D03*
X98660000Y-21930000D03*
X54960000Y-57490000D03*
X41510000Y-60030000D03*
X74010000Y-19390000D03*
X60560000Y-21930000D03*
X93060000Y-19390000D03*
X79610000Y-21930000D03*
X16860000Y-57490000D03*
X3410000Y-60030000D03*
X21190000Y-71460000D03*
X34640000Y-68920000D03*
D13*
X51334000Y-9139000D03*
X51334000Y-7639000D03*
D14*
X202450000Y-8150000D03*
X201650000Y-8150000D03*
X200850000Y-8150000D03*
X200050000Y-8150000D03*
X199250000Y-8150000D03*
D15*
X196400000Y-2250000D03*
X205300000Y-2250000D03*
X205300000Y-7750000D03*
X196400000Y-7750000D03*
D16*
X204981000Y-65269000D03*
X205931000Y-63269000D03*
X204031000Y-63269000D03*
X135512000Y-45965000D03*
X136462000Y-43965000D03*
X134562000Y-43965000D03*
D17*
X180228000Y-3436000D03*
X181728000Y-3436000D03*
X181728000Y-4960000D03*
X180228000Y-4960000D03*
D18*
X162750000Y-8450000D03*
X162750000Y-12550000D03*
D19*
X139007500Y-13928000D03*
D20*
X139007500Y-4528000D03*
X131607500Y-6428000D03*
D21*
X139007500Y-1728000D03*
D13*
X165750000Y-13000000D03*
X165750000Y-11500000D03*
D16*
X173358000Y-77207000D03*
X174308000Y-75207000D03*
X172408000Y-75207000D03*
X181044000Y-24788000D03*
X182944000Y-24788000D03*
X181994000Y-26788000D03*
D13*
X148409000Y-7877000D03*
X148409000Y-9377000D03*
D16*
X172408000Y-63269000D03*
X174308000Y-63269000D03*
X173358000Y-65269000D03*
X152723000Y-75334000D03*
X154623000Y-75334000D03*
X153673000Y-77334000D03*
D22*
X154142518Y-11411000D03*
D23*
X150794798Y-8911640D03*
X150794798Y-9412020D03*
X150794798Y-9912400D03*
X150794798Y-10412780D03*
X150794798Y-10913160D03*
X150794798Y-11411000D03*
X150794798Y-11908840D03*
X150794798Y-12409220D03*
X150794798Y-12909600D03*
X150794798Y-13409980D03*
X150794798Y-13910360D03*
D24*
X151643158Y-14758720D03*
X152143538Y-14758720D03*
X152643918Y-14758720D03*
X153144298Y-14758720D03*
X153644678Y-14758720D03*
X154142518Y-14758720D03*
X154640358Y-14758720D03*
X155140738Y-14758720D03*
X155641118Y-14758720D03*
X156141498Y-14758720D03*
X156641878Y-14758720D03*
D23*
X157490238Y-13910360D03*
X157490238Y-13409980D03*
X157490238Y-12909600D03*
X157490238Y-12409220D03*
X157490238Y-11908840D03*
X157490238Y-11411000D03*
X157490238Y-10913160D03*
X157490238Y-10412780D03*
X157490238Y-9912400D03*
X157490238Y-9412020D03*
X157490238Y-8911640D03*
D24*
X156641878Y-8063280D03*
X156141498Y-8063280D03*
X155641118Y-8063280D03*
X155140738Y-8063280D03*
X154640358Y-8063280D03*
X154142518Y-8063280D03*
X153644678Y-8063280D03*
X153144298Y-8063280D03*
X152643918Y-8063280D03*
X152143538Y-8063280D03*
X151643158Y-8063280D03*
D17*
X162932000Y-26423000D03*
X161432000Y-26423000D03*
D16*
X144275000Y-65269000D03*
X145225000Y-63269000D03*
X143325000Y-63269000D03*
X211458000Y-77207000D03*
X212408000Y-75207000D03*
X210508000Y-75207000D03*
D17*
X158384000Y-5595000D03*
X159884000Y-5595000D03*
D16*
X173297000Y-43965000D03*
X175197000Y-43965000D03*
X174247000Y-45965000D03*
X206085000Y-25988000D03*
X207035000Y-23988000D03*
X205135000Y-23988000D03*
D13*
X153743000Y-5338400D03*
X153743000Y-3838400D03*
D16*
X144910000Y-26788000D03*
X145860000Y-24788000D03*
X143960000Y-24788000D03*
D13*
X165750000Y-8250000D03*
X165750000Y-9750000D03*
D16*
X205235000Y-45965000D03*
X206185000Y-43965000D03*
X204285000Y-43965000D03*
X65281000Y-26915000D03*
X66231000Y-24915000D03*
X64331000Y-24915000D03*
X57026000Y-65015000D03*
X57976000Y-63015000D03*
X56076000Y-63015000D03*
X94049000Y-43838000D03*
X95949000Y-43838000D03*
X94999000Y-45838000D03*
D25*
X75146500Y-34666000D03*
X75146500Y-33166000D03*
D26*
X75146500Y-30233000D03*
X75146500Y-28963000D03*
D16*
X76076000Y-77207000D03*
X77026000Y-75207000D03*
X75126000Y-75207000D03*
D17*
X49862500Y-3880500D03*
X51362500Y-3880500D03*
D16*
X88334000Y-24788000D03*
X90234000Y-24788000D03*
X89284000Y-26788000D03*
X27181000Y-65015000D03*
X28131000Y-63015000D03*
X26231000Y-63015000D03*
D24*
X54568158Y-7825280D03*
X55068538Y-7825280D03*
X55568918Y-7825280D03*
X56069298Y-7825280D03*
X56569678Y-7825280D03*
X57067518Y-7825280D03*
X57565358Y-7825280D03*
X58065738Y-7825280D03*
X58566118Y-7825280D03*
X59066498Y-7825280D03*
X59566878Y-7825280D03*
D23*
X60415238Y-8673640D03*
X60415238Y-9174020D03*
X60415238Y-9674400D03*
X60415238Y-10174780D03*
X60415238Y-10675160D03*
X60415238Y-11173000D03*
X60415238Y-11670840D03*
X60415238Y-12171220D03*
X60415238Y-12671600D03*
X60415238Y-13171980D03*
X60415238Y-13672360D03*
D24*
X59566878Y-14520720D03*
X59066498Y-14520720D03*
X58566118Y-14520720D03*
X58065738Y-14520720D03*
X57565358Y-14520720D03*
X57067518Y-14520720D03*
X56569678Y-14520720D03*
X56069298Y-14520720D03*
X55568918Y-14520720D03*
X55068538Y-14520720D03*
X54568158Y-14520720D03*
D23*
X53719798Y-13672360D03*
X53719798Y-13171980D03*
X53719798Y-12671600D03*
X53719798Y-12171220D03*
X53719798Y-11670840D03*
X53719798Y-11173000D03*
X53719798Y-10675160D03*
X53719798Y-10174780D03*
X53719798Y-9674400D03*
X53719798Y-9174020D03*
X53719798Y-8673640D03*
D22*
X57067518Y-11173000D03*
D16*
X18103000Y-75207000D03*
X20003000Y-75207000D03*
X19053000Y-77207000D03*
D17*
X51362500Y-5404500D03*
X49862500Y-5404500D03*
D16*
X19307000Y-45965000D03*
X20257000Y-43965000D03*
X18357000Y-43965000D03*
D25*
X77559500Y-33166000D03*
X77559500Y-34666000D03*
D16*
X89538000Y-65142000D03*
X90488000Y-63142000D03*
X88588000Y-63142000D03*
X57153000Y-77207000D03*
X58103000Y-75207000D03*
X56203000Y-75207000D03*
D15*
X25200000Y-7750000D03*
X34100000Y-7750000D03*
X34100000Y-2250000D03*
X25200000Y-2250000D03*
D14*
X28050000Y-8150000D03*
X28850000Y-8150000D03*
X29650000Y-8150000D03*
X30450000Y-8150000D03*
X31250000Y-8150000D03*
D16*
X57407000Y-45838000D03*
X58357000Y-43838000D03*
X56457000Y-43838000D03*
X27882000Y-25042000D03*
X29782000Y-25042000D03*
X28832000Y-27042000D03*
D13*
X56668000Y-3600400D03*
X56668000Y-5100400D03*
X68000000Y-12000000D03*
X68000000Y-13500000D03*
D26*
X77559500Y-28963000D03*
X77559500Y-30233000D03*
D25*
X57684000Y-20950000D03*
X57684000Y-19450000D03*
D17*
X61229000Y-5087000D03*
X62729000Y-5087000D03*
D18*
X65250000Y-12550000D03*
X65250000Y-8450000D03*
D21*
X98892500Y-1728000D03*
D20*
X91492500Y-6428000D03*
X98892500Y-4528000D03*
D19*
X98892500Y-13928000D03*
D13*
X68000000Y-9520000D03*
X68000000Y-8020000D03*
D27*
X26400000Y-12000000D03*
X22400000Y-12000000D03*
X206600000Y-11800000D03*
X202600000Y-11800000D03*
M02*
