G04 #@! TF.GenerationSoftware,KiCad,Pcbnew,5.0-dev-unknown-9241a39~61~ubuntu17.10.1*
G04 #@! TF.CreationDate,2018-07-19T12:56:27+02:00*
G04 #@! TF.ProjectId,vitamins_included,766974616D696E735F696E636C756465,rev?*
G04 #@! TF.SameCoordinates,Original*
G04 #@! TF.FileFunction,Legend,Top*
G04 #@! TF.FilePolarity,Positive*
%FSLAX46Y46*%
G04 Gerber Fmt 4.6, Leading zero omitted, Abs format (unit mm)*
G04 Created by KiCad (PCBNEW 5.0-dev-unknown-9241a39~61~ubuntu17.10.1) date Thu Jul 19 12:56:27 2018*
%MOMM*%
%LPD*%
G01*
G04 APERTURE LIST*
%ADD10C,0.200000*%
%ADD11C,0.300000*%
G04 APERTURE END LIST*
D10*
X174070464Y-30986799D02*
G75*
G03X174061000Y-29217000I-771464J880799D01*
G01*
X172537000Y-30106000D02*
X172537000Y-31376000D01*
X174442567Y-31375489D02*
G75*
G03X174442000Y-28836000I-1143567J1269489D01*
G01*
X171902000Y-31376000D02*
X171902000Y-30106000D01*
X172537000Y-30106000D02*
X172537000Y-28836000D01*
X172537000Y-28836000D02*
X171902000Y-28836000D01*
X171902000Y-28836000D02*
X171902000Y-30106000D01*
X172537000Y-30852128D02*
X173299000Y-31487128D01*
X173679646Y-30614264D02*
G75*
G03X173680000Y-29598001I-380646J508264D01*
G01*
X172537000Y-31376000D02*
X171902000Y-31376000D01*
X173299000Y-28709000D02*
X173299000Y-30106000D01*
X173299000Y-31487128D02*
X173299000Y-30106000D01*
X172537000Y-29344000D02*
X173299000Y-28709000D01*
D11*
X163548142Y-49274809D02*
X164262428Y-49512904D01*
X165452904Y-49512904D01*
X165929095Y-49274809D01*
X166167190Y-49036714D01*
X166405285Y-48560523D01*
X166405285Y-48084333D01*
X166167190Y-47608142D01*
X165929095Y-47370047D01*
X165452904Y-47131952D01*
X164500523Y-46893857D01*
X164024333Y-46655761D01*
X163786238Y-46417666D01*
X163548142Y-45941476D01*
X163548142Y-45465285D01*
X163786238Y-44989095D01*
X164024333Y-44751000D01*
X164500523Y-44512904D01*
X165691000Y-44512904D01*
X166405285Y-44751000D01*
X168548142Y-49512904D02*
X168548142Y-44512904D01*
X170452904Y-44512904D01*
X170929095Y-44751000D01*
X171167190Y-44989095D01*
X171405285Y-45465285D01*
X171405285Y-46179571D01*
X171167190Y-46655761D01*
X170929095Y-46893857D01*
X170452904Y-47131952D01*
X168548142Y-47131952D01*
X175929095Y-49512904D02*
X173548142Y-49512904D01*
X173548142Y-44512904D01*
X177595761Y-49512904D02*
X177595761Y-44512904D01*
X179262428Y-44512904D02*
X182119571Y-44512904D01*
X180691000Y-49512904D02*
X180691000Y-44512904D01*
X172295761Y-28171642D02*
X173286238Y-28171642D01*
X172791000Y-27676404D02*
X172791000Y-28666880D01*
D10*
X56287000Y-30852128D02*
X57049000Y-31487128D01*
X58192567Y-31375489D02*
G75*
G03X58192000Y-28836000I-1143567J1269489D01*
G01*
X56287000Y-29344000D02*
X57049000Y-28709000D01*
X57820464Y-30986799D02*
G75*
G03X57811000Y-29217000I-771464J880799D01*
G01*
X56287000Y-30106000D02*
X56287000Y-28836000D01*
X57049000Y-31487128D02*
X57049000Y-30106000D01*
X56287000Y-30106000D02*
X56287000Y-31376000D01*
X57049000Y-28709000D02*
X57049000Y-30106000D01*
X56287000Y-28836000D02*
X55652000Y-28836000D01*
X55652000Y-31376000D02*
X55652000Y-30106000D01*
X55652000Y-28836000D02*
X55652000Y-30106000D01*
X56287000Y-31376000D02*
X55652000Y-31376000D01*
X57429646Y-30614264D02*
G75*
G03X57430000Y-29598001I-380646J508264D01*
G01*
D11*
X56045761Y-28171642D02*
X57036238Y-28171642D01*
X56541000Y-27676404D02*
X56541000Y-28666880D01*
X51216523Y-49512904D02*
X48835571Y-49512904D01*
X48835571Y-44512904D01*
X52883190Y-46893857D02*
X54549857Y-46893857D01*
X55264142Y-49512904D02*
X52883190Y-49512904D01*
X52883190Y-44512904D01*
X55264142Y-44512904D01*
X56692714Y-44512904D02*
X59549857Y-44512904D01*
X58121285Y-49512904D02*
X58121285Y-44512904D01*
X61454619Y-44512904D02*
X60978428Y-45465285D01*
X63359380Y-49274809D02*
X64073666Y-49512904D01*
X65264142Y-49512904D01*
X65740333Y-49274809D01*
X65978428Y-49036714D01*
X66216523Y-48560523D01*
X66216523Y-48084333D01*
X65978428Y-47608142D01*
X65740333Y-47370047D01*
X65264142Y-47131952D01*
X64311761Y-46893857D01*
X63835571Y-46655761D01*
X63597476Y-46417666D01*
X63359380Y-45941476D01*
X63359380Y-45465285D01*
X63597476Y-44989095D01*
X63835571Y-44751000D01*
X64311761Y-44512904D01*
X65502238Y-44512904D01*
X66216523Y-44751000D01*
M02*
