M48
;DRILL file {KiCad 5.0-dev-unknown-9241a39~61~ubuntu17.10.1} date Thu Jul 19 12:56:28 2018
;FORMAT={-:-/ absolute / inch / decimal}
FMAT,2
INCH,TZ
T1C0.0157
T2C0.0354
T3C0.0394
T4C0.0390
T5C0.0669
T6C0.1181
T7C0.1260
T8C0.1575
%
G90
G05
M72
T1
X0.1201Y-2.7103
X0.274Y-0.4983
X0.374Y-0.4983
X0.591Y-0.5503
X0.6101Y-2.3653
X0.676Y-0.6353
X0.6851Y-1.6103
X0.7201Y-2.7403
X0.8751Y-0.7753
X0.8751Y-1.5253
X0.9101Y-2.4653
X0.9901Y-2.9953
X1.1457Y-0.4646
X1.2251Y-2.3853
X1.2551Y-2.9953
X1.378Y-0.5709
X1.3951Y-1.0053
X1.4801Y-3.0396
X1.5401Y-1.8096
X1.541Y-0.6403
X1.5851Y-2.7053
X1.5951Y-0.7553
X1.7001Y-1.0203
X1.7992Y-2.6772
X1.9701Y-0.8803
X2.041Y-0.5383
X2.0709Y-0.3307
X2.1339Y-0.252
X2.1651Y-0.8503
X2.1651Y-1.4203
X2.1651Y-2.3453
X2.186Y-0.6653
X2.248Y-2.6772
X2.2851Y-0.4403
X2.3031Y-0.1811
X2.3235Y-0.2178
X2.3351Y-0.2553
X2.3351Y-0.9553
X2.3751Y-0.2553
X2.3819Y-2.5596
X2.3851Y-1.6953
X2.3901Y-2.4503
X2.4035Y-0.2878
X2.426Y-0.5803
X2.436Y-0.4853
X2.471Y-0.6128
X2.4801Y-2.9853
X2.5354Y-0.2126
X2.6401Y-0.2153
X2.7264Y-0.4232
X2.7651Y-0.8803
X2.7756Y-0.3937
X2.8101Y-0.4253
X2.8301Y-0.8453
X2.8551Y-2.6153
X2.8801Y-1.3253
X2.8901Y-1.1403
X2.9094Y-0.5669
X2.9701Y-0.2503
X3.0201Y-0.7903
X3.0201Y-2.6053
X3.0224Y-0.3653
X3.0801Y-1.0103
X3.0827Y-0.4291
X3.0851Y-2.7153
X3.1142Y-0.5079
X3.1801Y-1.0903
X3.2362Y-0.4902
X3.2451Y-3.0353
X3.286Y-0.2603
X3.3001Y-0.0886
X3.3301Y-2.7803
X3.4451Y-1.1053
X3.4501Y-0.8753
X3.5001Y-0.6253
X3.5551Y-0.4803
X3.5751Y-2.3753
X3.6151Y-0.8453
X3.6651Y-1.4303
X3.7927Y-0.1495
X3.8451Y-1.5203
X3.9051Y-0.9753
X3.9151Y-2.4653
X3.9451Y-2.6853
X5.1801Y-2.6203
X5.2401Y-0.5203
X5.2401Y-0.8553
X5.2501Y-1.4253
X5.2501Y-2.1703
X5.3001Y-2.7353
X5.3351Y-1.9903
X5.3451Y-1.3603
X5.3551Y-0.7203
X5.4351Y-1.5203
X5.4901Y-0.9753
X5.4951Y-2.4527
X5.5001Y-0.2653
X5.5351Y-1.3003
X5.5801Y-0.5403
X5.6051Y-0.7553
X5.6551Y-0.4853
X5.6951Y-0.4603
X5.7001Y-0.3653
X5.7701Y-2.3853
X5.8051Y-0.5703
X5.8301Y-0.5153
X5.8351Y-0.8803
X5.8551Y-0.1753
X5.8701Y-0.5153
X5.8976Y-0.3189
X5.9051Y-1.1053
X5.9409Y-0.2402
X6.0151Y-0.6703
X6.0651Y-0.6653
X6.0686Y-0.4493
X6.0801Y-1.8096
X6.1201Y-0.9853
X6.122Y-0.189
X6.1454Y-0.2271
X6.1614Y-0.2657
X6.1651Y-2.5696
X6.1701Y-3.0446
X6.1732Y-0.6339
X6.1801Y-0.1953
X6.2051Y-2.6953
X6.2254Y-0.2971
X6.2401Y-0.5853
X6.3101Y-0.9703
X6.3201Y-0.6003
X6.3401Y-0.7353
X6.3651Y-0.1703
X6.4501Y-0.8253
X6.5001Y-0.7953
X6.5101Y-0.7553
X6.6376Y-1.0828
X6.6901Y-0.9803
X6.7201Y-2.3753
X6.7401Y-1.4003
X6.7551Y-0.8503
X6.7717Y-0.3819
X6.7717Y-0.5906
X6.8251Y-2.6653
X6.8501Y-0.7803
X6.8801Y-0.8403
X6.8898Y-0.3819
X6.8898Y-0.5906
X6.9351Y-1.5203
X6.9501Y-2.2603
X6.9951Y-1.0703
X7.0601Y-2.9903
X7.0801Y-0.7453
X7.3001Y-0.8803
X7.3248Y-0.4232
X7.3251Y-0.2803
X7.4213Y-0.2815
X7.4401Y-2.6253
X7.5039Y-0.5433
X7.5827Y-0.9882
X7.6673Y-0.5
X7.6673Y-0.5394
X7.6673Y-0.5846
X7.6951Y-2.7003
X7.811Y-0.7402
X7.9051Y-0.2053
X8.0079Y-0.8701
X8.1901Y-2.3603
X8.2244Y-0.4646
X8.2451Y-0.6803
X8.2451Y-1.4203
X8.4251Y-0.7723
X8.4301Y-1.5203
X8.4901Y-2.4453
X8.9051Y-3.1153
T2
X1.0807Y-0.2067
X1.2539Y-0.2067
X7.8209Y-0.2067
X7.9941Y-0.2067
T3
X2.251Y-1.0353
X2.251Y-1.2951
X6.8278Y-1.0353
X6.8278Y-1.2951
T4
X2.962Y-0.6315
X3.002Y-0.4315
X3.042Y-0.6315
X7.5387Y-0.6315
X7.5787Y-0.4315
X7.6187Y-0.6315
T5
X0.174Y-2.1634
X0.574Y-2.1634
X5.5008Y-2.9134
X5.9008Y-2.9134
X3.924Y-0.6634
X4.324Y-0.6634
X7.7508Y-2.1634
X8.1508Y-2.1634
X0.924Y-1.4134
X1.324Y-1.4134
X7.0008Y-1.4134
X7.4008Y-1.4134
X7.0008Y-0.6634
X7.4008Y-0.6634
X4.7508Y-2.9134
X5.1508Y-2.9134
X1.674Y-2.9134
X2.074Y-2.9134
X8.5008Y-0.6634
X8.9008Y-0.6634
X4.7508Y-0.6634
X5.1508Y-0.6634
X3.174Y-2.1634
X3.574Y-2.1634
X8.5008Y-1.4134
X8.9008Y-1.4134
X7.0008Y-2.1634
X7.4008Y-2.1634
X0.924Y-2.9134
X1.324Y-2.9134
X6.2508Y-2.9134
X6.6508Y-2.9134
X5.1258Y-2.9134
X5.5258Y-2.9134
X7.7508Y-0.6634
X8.1508Y-0.6634
X2.424Y-2.1634
X2.824Y-2.1634
X3.174Y-2.9134
X3.574Y-2.9134
X5.5008Y-2.1634
X5.9008Y-2.1634
X0.924Y-0.6634
X1.324Y-0.6634
X6.2508Y-1.4134
X6.6508Y-1.4134
X0.924Y-2.1634
X1.324Y-2.1634
X1.674Y-2.1634
X2.074Y-2.1634
X1.674Y-1.4134
X2.074Y-1.4134
X3.924Y-2.1634
X4.324Y-2.1634
X1.674Y-0.6634
X2.074Y-0.6634
X5.5008Y-0.6634
X5.9008Y-0.6634
X5.3271Y-0.2216
X5.3271Y-0.4972
X5.5008Y-1.4134
X5.9008Y-1.4134
X7.0008Y-2.9134
X7.4008Y-2.9134
X3.549Y-2.9134
X3.949Y-2.9134
X6.2508Y-0.6634
X6.6508Y-0.6634
X0.174Y-0.6634
X0.574Y-0.6634
X3.924Y-1.4134
X4.324Y-1.4134
X8.5008Y-2.9134
X8.9008Y-2.9134
X2.424Y-0.6634
X2.824Y-0.6634
X3.7477Y-0.2216
X3.7477Y-0.4972
X4.7508Y-2.1634
X5.1508Y-2.1634
X0.174Y-2.9134
X0.574Y-2.9134
X3.174Y-1.4134
X3.574Y-1.4134
X0.174Y-1.4134
X0.574Y-1.4134
X7.7508Y-2.9134
X8.1508Y-2.9134
X3.924Y-2.9134
X4.324Y-2.9134
X8.5008Y-2.1634
X8.9008Y-2.1634
X3.174Y-0.6634
X3.574Y-0.6634
X7.7508Y-1.4134
X8.1508Y-1.4134
X2.424Y-2.9134
X2.824Y-2.9134
X4.7508Y-1.4134
X5.1508Y-1.4134
X6.2508Y-2.1634
X6.6508Y-2.1634
X2.424Y-1.4134
X2.824Y-1.4134
T6
X4.8508Y-0.8634
X5.1008Y-0.7634
X3.274Y-2.3634
X3.524Y-2.2634
X8.6008Y-1.6134
X8.8508Y-1.5134
X7.1008Y-2.3634
X7.3508Y-2.2634
X0.974Y-2.8134
X1.224Y-2.7134
X6.3008Y-2.8134
X6.5508Y-2.7134
X5.2258Y-3.1134
X5.4758Y-3.0134
X7.8508Y-0.8634
X8.1008Y-0.7634
X2.524Y-2.3634
X2.774Y-2.2634
X3.224Y-2.8134
X3.474Y-2.7134
X5.6008Y-2.3634
X5.8508Y-2.2634
X1.024Y-0.8634
X1.274Y-0.7634
X6.3508Y-1.6134
X6.6008Y-1.5134
X1.024Y-2.3634
X1.274Y-2.2634
X1.774Y-2.3634
X2.024Y-2.2634
X1.774Y-1.6134
X2.024Y-1.5134
X4.024Y-2.3634
X4.274Y-2.2634
X1.774Y-0.8634
X2.024Y-0.7634
X5.6008Y-0.8634
X5.8508Y-0.7634
X5.6008Y-1.6134
X5.8508Y-1.5134
X7.0508Y-2.8134
X7.3008Y-2.7134
X3.649Y-3.1134
X3.899Y-3.0134
X6.3508Y-0.8634
X6.6008Y-0.7634
X0.274Y-0.8634
X0.524Y-0.7634
X4.024Y-1.6134
X4.274Y-1.5134
X8.5508Y-2.8134
X8.8008Y-2.7134
X2.524Y-0.8634
X2.774Y-0.7634
X4.8508Y-2.3634
X5.1008Y-2.2634
X0.224Y-2.8134
X0.474Y-2.7134
X3.274Y-1.6134
X3.524Y-1.5134
X0.274Y-1.6134
X0.524Y-1.5134
X7.8008Y-2.8134
X8.0508Y-2.7134
X3.974Y-2.8134
X4.224Y-2.7134
X8.6008Y-2.3634
X8.8508Y-2.2634
X3.274Y-0.8634
X3.524Y-0.7634
X7.8508Y-1.6134
X8.1008Y-1.5134
X2.474Y-2.8134
X2.724Y-2.7134
X4.8508Y-1.6134
X5.1008Y-1.5134
X6.3508Y-2.3634
X6.6008Y-2.2634
X2.524Y-1.6134
X2.774Y-1.5134
X0.274Y-2.3634
X0.524Y-2.2634
X5.5508Y-2.8134
X5.8008Y-2.7134
X4.024Y-0.8634
X4.274Y-0.7634
X7.8508Y-2.3634
X8.1008Y-2.2634
X1.024Y-1.6134
X1.274Y-1.5134
X7.1008Y-1.6134
X7.3508Y-1.5134
X7.1008Y-0.8634
X7.3508Y-0.7634
X4.8008Y-2.8134
X5.0508Y-2.7134
X1.724Y-2.8134
X1.974Y-2.7134
X8.6008Y-0.8634
X8.8508Y-0.7634
T7
X8.3268Y-1.063
X8.3268Y-2.5394
X0.748Y-1.063
X5.3346Y-2.5383
X3.7402Y-1.063
X0.748Y-2.5394
X3.7402Y-2.5394
X5.3346Y-1.063
T8
X4.9508Y-1.4134
X6.4508Y-2.1634
X2.624Y-1.4134
X0.374Y-2.1634
X5.7008Y-2.9134
X4.124Y-0.6634
X7.9508Y-2.1634
X1.124Y-1.4134
X7.2008Y-1.4134
X7.2008Y-0.6634
X4.9508Y-2.9134
X1.874Y-2.9134
X8.7008Y-0.6634
X4.9508Y-0.6634
X3.374Y-2.1634
X8.7008Y-1.4134
X7.2008Y-2.1634
X1.124Y-2.9134
X6.4508Y-2.9134
X5.3258Y-2.9134
X7.9508Y-0.6634
X2.624Y-2.1634
X3.374Y-2.9134
X5.7008Y-2.1634
X1.124Y-0.6634
X6.4508Y-1.4134
X1.124Y-2.1634
X1.874Y-2.1634
X1.874Y-1.4134
X4.124Y-2.1634
X1.874Y-0.6634
X5.7008Y-0.6634
X5.7008Y-1.4134
X7.2008Y-2.9134
X3.749Y-2.9134
X6.4508Y-0.6634
X0.374Y-0.6634
X4.124Y-1.4134
X8.7008Y-2.9134
X2.624Y-0.6634
X4.9508Y-2.1634
X0.374Y-2.9134
X3.374Y-1.4134
X0.374Y-1.4134
X7.9508Y-2.9134
X4.124Y-2.9134
X8.7008Y-2.1634
X3.374Y-0.6634
X7.9508Y-1.4134
X2.624Y-2.9134
T0
M30
