%TF.GenerationSoftware,KiCad,Pcbnew,5.0.2-5.fc29*%
%TF.CreationDate,2019-03-27T11:45:22+01:00*%
%TF.ProjectId,vitamins_included,76697461-6d69-46e7-935f-696e636c7564,rev?*%
%TF.SameCoordinates,Original*%
%TF.FileFunction,Plated,1,2,PTH,Mixed*%
%TF.FilePolarity,Positive*%
%FSLAX46Y46*%
G04 Gerber Fmt 4.6, Leading zero omitted, Abs format (unit mm)*
G04 Created by KiCad (PCBNEW 5.0.2-5.fc29) date 2019-03-27T11:45:22 CET*
%MOMM*%
%LPD*%
G01*
G04 APERTURE LIST*
%TA.AperFunction,ViaDrill*%
%ADD10C,0.400000*%
%TD*%
%TA.AperFunction,Slot*%
%ADD11C,0.600000*%
%TD*%
%TA.AperFunction,ComponentDrill*%
%ADD12C,1.000000*%
%TD*%
G04 APERTURE END LIST*
D10*
X1200000Y-67400000D03*
X1200000Y-74000000D03*
X1800000Y-16600000D03*
X2500000Y-26400000D03*
X3051000Y-68841000D03*
X5400000Y-26400000D03*
X6960000Y-12658000D03*
X7000000Y-67800000D03*
X12150000Y-15200000D03*
X12400000Y-48900000D03*
X12750000Y-34550000D03*
X13900000Y-77100000D03*
X15012000Y-13977000D03*
X15497000Y-60078000D03*
X17171000Y-16136000D03*
X17402000Y-40901000D03*
X18100000Y-22200000D03*
X18291000Y-69603000D03*
X18900000Y-10500000D03*
X20100000Y-43900000D03*
X20100000Y-46200000D03*
X20200000Y-22200000D03*
X20300000Y-17800000D03*
X20400000Y-10500000D03*
X21900000Y-76100000D03*
X22228000Y-19692000D03*
X22228000Y-38742000D03*
X23500000Y-43800000D03*
X23900000Y-62600000D03*
X24000000Y-38500000D03*
X24400000Y-24000000D03*
X25149000Y-76080000D03*
X25300000Y-34000000D03*
X25450000Y-37700000D03*
X27150000Y-31700000D03*
X27200000Y-8650000D03*
X27200000Y-9500000D03*
X27400000Y-11900000D03*
X28500000Y-8500000D03*
X29100000Y-10400000D03*
X29300000Y-65800000D03*
X30100000Y-10400000D03*
X30600000Y-11900000D03*
X30600000Y-30200000D03*
X30700000Y-8500000D03*
X31118000Y-60586000D03*
X31200000Y-14850000D03*
X31500000Y-50300000D03*
X31880000Y-76080000D03*
X31900000Y-41900000D03*
X32000000Y-8650000D03*
X32000000Y-9500000D03*
X33100000Y-29000000D03*
X35000000Y-12200000D03*
X35000000Y-14500000D03*
X35500000Y-24000000D03*
X36800000Y-34700000D03*
X37595000Y-77207000D03*
X37900001Y-28000000D03*
X38300000Y-25800000D03*
X38500000Y-65800000D03*
X38900000Y-2150000D03*
X39000000Y-62800000D03*
X39119000Y-45965000D03*
X39650000Y-24100000D03*
X39850000Y-7850000D03*
X40262000Y-68714000D03*
X40516000Y-19184000D03*
X42000000Y-25800000D03*
X42000000Y-44800000D03*
X42100000Y-38200000D03*
X44400000Y-24500000D03*
X45100000Y-76100000D03*
X45500000Y-9100000D03*
X45600000Y-14800000D03*
X45700000Y-68000000D03*
X45900000Y-30900000D03*
X46300000Y-49600000D03*
X47600000Y-6900000D03*
X48500000Y-25400000D03*
X48900000Y-9100000D03*
X50041000Y-22359000D03*
X51500000Y-28200000D03*
X52500000Y-14100000D03*
X52600000Y-8400000D03*
X52700000Y-42300000D03*
X52700000Y-44900000D03*
X53300000Y-25400000D03*
X53900000Y-15800000D03*
X54200000Y-6400000D03*
X54994000Y-21597000D03*
X54994000Y-36075000D03*
X54994000Y-59570000D03*
X55400000Y-17300000D03*
X56700000Y-16200000D03*
X56700000Y-72100000D03*
X57067518Y-11173000D03*
X57100000Y-68000000D03*
X57800000Y-17100000D03*
X58500000Y-3800000D03*
X59000000Y-4700000D03*
X59312000Y-24264000D03*
X59400000Y-5800000D03*
X59800000Y-16200000D03*
X60400000Y-6500000D03*
X60500000Y-65015000D03*
X60582000Y-43060000D03*
X60709000Y-62237000D03*
X61250000Y-24850000D03*
X61875000Y-12326000D03*
X61900000Y-27900000D03*
X61975000Y-6375000D03*
X62995000Y-75826000D03*
X63200000Y-15200000D03*
X64300000Y-10500000D03*
X64400000Y-5400000D03*
X65300000Y-10500000D03*
X65500000Y-29150000D03*
X65700000Y-70700000D03*
X66800000Y-31100000D03*
X67100000Y-5000000D03*
X67400000Y-6000000D03*
X67850000Y-29900000D03*
X67900000Y-49200000D03*
X68800000Y-22800000D03*
X69150000Y-29950000D03*
X69450000Y-32450000D03*
X69600000Y-11100000D03*
X69700000Y-66100000D03*
X69750000Y-35850000D03*
X69900000Y-72900000D03*
X69900000Y-75900000D03*
X70300000Y-22300000D03*
X70500000Y-10000000D03*
X71800000Y-8600000D03*
X72100000Y-21400000D03*
X73600000Y-35100000D03*
X73700000Y-12700000D03*
X73800000Y-26400000D03*
X73800000Y-29500000D03*
X73900000Y-14400000D03*
X74500000Y-22700000D03*
X74800000Y-5900000D03*
X75600000Y-66250000D03*
X76000000Y-19300000D03*
X76000000Y-71100000D03*
X76400000Y-49300000D03*
X76700000Y-42800000D03*
X76850000Y-8400000D03*
X76900000Y-66250000D03*
X77100000Y-62950000D03*
X77500000Y-26400000D03*
X77600000Y-29500000D03*
X78200000Y-18300000D03*
X78300000Y-10900000D03*
X78400000Y-35400000D03*
X79100000Y-12900000D03*
X79300000Y-32100000D03*
X79800000Y-15300000D03*
X80400000Y-34100000D03*
X80900000Y-26800000D03*
X80900000Y-68800000D03*
X81700000Y-31400000D03*
X82426000Y-77096000D03*
X82600000Y-53200000D03*
X82600000Y-57000000D03*
X82650000Y-17550000D03*
X83000000Y-13200000D03*
X83000000Y-28400000D03*
X83700000Y-33300000D03*
X83823000Y-2250000D03*
X84585000Y-70619000D03*
X85117400Y-6611000D03*
X85400000Y-13800000D03*
X85400000Y-22700000D03*
X85400000Y-26100000D03*
X86300000Y-38900000D03*
X86600000Y-23200000D03*
X86600000Y-31400000D03*
X86600000Y-58500000D03*
X87600000Y-14600000D03*
X88300000Y-23400000D03*
X88800000Y-36000000D03*
X88900000Y-30700000D03*
X88900000Y-53500000D03*
X88903000Y-15882000D03*
X90594000Y-22700000D03*
X90808000Y-60332000D03*
X91500000Y-41000000D03*
X92900000Y-8900000D03*
X93094000Y-36329000D03*
X94450000Y-47100000D03*
X95050000Y-42700000D03*
X95300000Y-51800000D03*
X96000000Y-47050000D03*
X96050000Y-44200000D03*
X96335500Y-3798000D03*
X97666000Y-38615000D03*
X98700000Y-29800000D03*
X98700000Y-57400000D03*
X99300000Y-26900000D03*
X100206000Y-68206000D03*
X100600000Y-25000000D03*
X101500000Y-18100000D03*
X101800000Y-46900000D03*
X104100000Y-30200000D03*
X105000000Y-21600000D03*
X105400000Y-46900000D03*
X109100000Y-46900000D03*
X112600000Y-16500000D03*
X112600000Y-42600000D03*
X112800000Y-21800000D03*
X112800000Y-35800000D03*
X112800000Y-54800000D03*
X112800000Y-60400000D03*
D11*
%TO.C,J9*%
X25280000Y-2540000D02*
X25280000Y-1740000D01*
X25280000Y-6860000D02*
X25280000Y-5760000D01*
X33920000Y-2540000D02*
X33920000Y-1740000D01*
X33920000Y-6860000D02*
X33920000Y-5760000D01*
D12*
%TO.C,J2*%
X69400000Y-5400000D03*
X71940000Y-5400000D03*
%TO.C,J1*%
X57176000Y-26296000D03*
X57176000Y-32896000D03*
M02*
