%TF.GenerationSoftware,KiCad,Pcbnew,5.0.2-5.fc29*%
%TF.CreationDate,2019-03-27T11:45:22+01:00*%
%TF.ProjectId,vitamins_included,76697461-6d69-46e7-935f-696e636c7564,rev?*%
%TF.SameCoordinates,Original*%
%TF.FileFunction,NonPlated,1,2,NPTH,Drill*%
%TF.FilePolarity,Positive*%
%FSLAX46Y46*%
G04 Gerber Fmt 4.6, Leading zero omitted, Abs format (unit mm)*
G04 Created by KiCad (PCBNEW 5.0.2-5.fc29) date 2019-03-27T11:45:22 CET*
%MOMM*%
%LPD*%
G01*
G04 APERTURE LIST*
%TA.AperFunction,ComponentDrill*%
%ADD10C,0.600000*%
%TD*%
%TA.AperFunction,ComponentDrill*%
%ADD11C,0.990600*%
%TD*%
%TA.AperFunction,ComponentDrill*%
%ADD12C,1.700000*%
%TD*%
%TA.AperFunction,ComponentDrill*%
%ADD13C,2.200000*%
%TD*%
%TA.AperFunction,ComponentDrill*%
%ADD14C,3.000000*%
%TD*%
%TA.AperFunction,ComponentDrill*%
%ADD15C,3.200000*%
%TD*%
%TA.AperFunction,ComponentDrill*%
%ADD16C,4.000000*%
%TD*%
G04 APERTURE END LIST*
D10*
%TO.C,J9*%
X26710000Y-5830000D03*
X32490000Y-5830000D03*
D11*
%TO.C,J3*%
X75234000Y-16040000D03*
X76250000Y-10960000D03*
X77266000Y-16040000D03*
D12*
%TO.C,SW10*%
X61570000Y-35900000D03*
X71730000Y-35900000D03*
%TO.C,SW22*%
X61570000Y-74000000D03*
X71730000Y-74000000D03*
%TO.C,SW7*%
X4420000Y-35900000D03*
X14580000Y-35900000D03*
%TO.C,SW1*%
X4420000Y-16850000D03*
X14580000Y-16850000D03*
%TO.C,SW9*%
X42520000Y-35900000D03*
X52680000Y-35900000D03*
%TO.C,SW14*%
X23470000Y-54950000D03*
X33630000Y-54950000D03*
%TO.C,SW6*%
X99670000Y-16850000D03*
X109830000Y-16850000D03*
%TO.C,SW11*%
X80620000Y-35900000D03*
X90780000Y-35900000D03*
%TO.C,SW21*%
X42520000Y-74000000D03*
X52680000Y-74000000D03*
%TO.C,SW17*%
X80620000Y-54950000D03*
X90780000Y-54950000D03*
%TO.C,SW16*%
X61570000Y-54950000D03*
X71730000Y-54950000D03*
%TO.C,SW4*%
X61570000Y-16850000D03*
X71730000Y-16850000D03*
%TO.C,P4*%
X95192500Y-5628000D03*
X95192500Y-12628000D03*
%TO.C,SW12*%
X99670000Y-35900000D03*
X109830000Y-35900000D03*
%TO.C,SW23*%
X80620000Y-74000000D03*
X90780000Y-74000000D03*
%TO.C,SW24*%
X99670000Y-74000000D03*
X109830000Y-74000000D03*
%TO.C,SW19*%
X4420000Y-74000000D03*
X14580000Y-74000000D03*
%TO.C,SW2*%
X23470000Y-16850000D03*
X33630000Y-16850000D03*
%TO.C,SW18*%
X99670000Y-54950000D03*
X109830000Y-54950000D03*
%TO.C,SW5*%
X80620000Y-16850000D03*
X90780000Y-16850000D03*
%TO.C,SW13*%
X4420000Y-54950000D03*
X14580000Y-54950000D03*
%TO.C,SW8*%
X23470000Y-35900000D03*
X33630000Y-35900000D03*
%TO.C,SW3*%
X42520000Y-16850000D03*
X52680000Y-16850000D03*
%TO.C,SW24*%
X90145000Y-74000000D03*
X100305000Y-74000000D03*
%TO.C,SW15*%
X42520000Y-54950000D03*
X52680000Y-54950000D03*
%TO.C,SW20*%
X23470000Y-74000000D03*
X33630000Y-74000000D03*
D13*
%TO.C,REF\002A\002A*%
X104750000Y-64475000D03*
X104750000Y-26375000D03*
X9500000Y-26375000D03*
X9500000Y-64475000D03*
D14*
%TO.C,SW14*%
X26010000Y-60030000D03*
X32360000Y-57490000D03*
%TO.C,SW6*%
X102210000Y-21930000D03*
X108560000Y-19390000D03*
%TO.C,SW11*%
X83160000Y-40980000D03*
X89510000Y-38440000D03*
%TO.C,SW21*%
X43790000Y-71460000D03*
X50140000Y-68920000D03*
%TO.C,SW17*%
X83160000Y-60030000D03*
X89510000Y-57490000D03*
%TO.C,SW16*%
X64110000Y-60030000D03*
X70460000Y-57490000D03*
%TO.C,SW4*%
X64110000Y-21930000D03*
X70460000Y-19390000D03*
%TO.C,SW12*%
X102210000Y-40980000D03*
X108560000Y-38440000D03*
%TO.C,SW23*%
X81890000Y-71460000D03*
X88240000Y-68920000D03*
%TO.C,SW24*%
X100940000Y-71460000D03*
X107290000Y-68920000D03*
%TO.C,SW19*%
X5690000Y-71460000D03*
X12040000Y-68920000D03*
%TO.C,SW2*%
X26010000Y-21930000D03*
X32360000Y-19390000D03*
%TO.C,SW18*%
X102210000Y-60030000D03*
X108560000Y-57490000D03*
%TO.C,SW5*%
X83160000Y-21930000D03*
X89510000Y-19390000D03*
%TO.C,SW13*%
X6960000Y-60030000D03*
X13310000Y-57490000D03*
%TO.C,SW8*%
X26010000Y-40980000D03*
X32360000Y-38440000D03*
%TO.C,SW3*%
X45060000Y-21930000D03*
X51410000Y-19390000D03*
%TO.C,SW24*%
X92685000Y-79080000D03*
X99035000Y-76540000D03*
%TO.C,SW15*%
X45060000Y-60030000D03*
X51410000Y-57490000D03*
%TO.C,SW20*%
X24740000Y-71460000D03*
X31090000Y-68920000D03*
%TO.C,SW10*%
X64110000Y-40980000D03*
X70460000Y-38440000D03*
%TO.C,SW22*%
X62840000Y-71460000D03*
X69190000Y-68920000D03*
%TO.C,SW7*%
X6960000Y-40980000D03*
X13310000Y-38440000D03*
%TO.C,SW1*%
X6960000Y-21930000D03*
X13310000Y-19390000D03*
%TO.C,SW9*%
X45060000Y-40980000D03*
X51410000Y-38440000D03*
D15*
%TO.C,REF\002A\002A*%
X19000000Y-64500000D03*
X95000000Y-27000000D03*
X19000000Y-27000000D03*
X95000000Y-64500000D03*
D16*
%TO.C,SW24*%
X95225000Y-74000000D03*
%TO.C,SW15*%
X47600000Y-54950000D03*
%TO.C,SW20*%
X28550000Y-74000000D03*
%TO.C,SW10*%
X66650000Y-35900000D03*
%TO.C,SW22*%
X66650000Y-74000000D03*
%TO.C,SW7*%
X9500000Y-35900000D03*
%TO.C,SW1*%
X9500000Y-16850000D03*
%TO.C,SW9*%
X47600000Y-35900000D03*
%TO.C,SW14*%
X28550000Y-54950000D03*
%TO.C,SW6*%
X104750000Y-16850000D03*
%TO.C,SW11*%
X85700000Y-35900000D03*
%TO.C,SW21*%
X47600000Y-74000000D03*
%TO.C,SW17*%
X85700000Y-54950000D03*
%TO.C,SW16*%
X66650000Y-54950000D03*
%TO.C,SW4*%
X66650000Y-16850000D03*
%TO.C,SW12*%
X104750000Y-35900000D03*
%TO.C,SW23*%
X85700000Y-74000000D03*
%TO.C,SW24*%
X104750000Y-74000000D03*
%TO.C,SW19*%
X9500000Y-74000000D03*
%TO.C,SW2*%
X28550000Y-16850000D03*
%TO.C,SW18*%
X104750000Y-54950000D03*
%TO.C,SW5*%
X85700000Y-16850000D03*
%TO.C,SW13*%
X9500000Y-54950000D03*
%TO.C,SW8*%
X28550000Y-35900000D03*
%TO.C,SW3*%
X47600000Y-16850000D03*
M02*
