%TF.GenerationSoftware,KiCad,Pcbnew,5.0.2-5.fc29*%
%TF.CreationDate,2019-03-27T11:45:15+01:00*%
%TF.ProjectId,vitamins_included,76697461-6d69-46e7-935f-696e636c7564,rev?*%
%TF.SameCoordinates,Original*%
%TF.FileFunction,Soldermask,Top*%
%TF.FilePolarity,Negative*%
%FSLAX46Y46*%
G04 Gerber Fmt 4.6, Leading zero omitted, Abs format (unit mm)*
G04 Created by KiCad (PCBNEW 5.0.2-5.fc29) date 2019-03-27T11:45:15 CET*
%MOMM*%
%LPD*%
G01*
G04 APERTURE LIST*
%ADD10C,0.010000*%
%ADD11C,0.100000*%
G04 APERTURE END LIST*
D10*
G36*
X40406148Y-4685709D02*
X40557675Y-4835617D01*
X40595591Y-4936409D01*
X40590035Y-5174006D01*
X40469597Y-5333970D01*
X40280419Y-5391067D01*
X40068640Y-5320063D01*
X39999714Y-5262285D01*
X39887686Y-5118433D01*
X39894031Y-4985259D01*
X40020089Y-4801290D01*
X40209649Y-4670204D01*
X40406148Y-4685709D01*
X40406148Y-4685709D01*
G37*
X40406148Y-4685709D02*
X40557675Y-4835617D01*
X40595591Y-4936409D01*
X40590035Y-5174006D01*
X40469597Y-5333970D01*
X40280419Y-5391067D01*
X40068640Y-5320063D01*
X39999714Y-5262285D01*
X39887686Y-5118433D01*
X39894031Y-4985259D01*
X40020089Y-4801290D01*
X40209649Y-4670204D01*
X40406148Y-4685709D01*
G36*
X39281477Y-4696842D02*
X39432006Y-4840593D01*
X39522698Y-4994418D01*
X39528000Y-5029044D01*
X39464510Y-5156230D01*
X39321001Y-5297052D01*
X39167909Y-5387457D01*
X39125214Y-5395333D01*
X38995490Y-5340710D01*
X38899047Y-5262285D01*
X38791094Y-5106386D01*
X38766000Y-5014333D01*
X38831721Y-4850494D01*
X38980867Y-4699034D01*
X39139925Y-4633333D01*
X39281477Y-4696842D01*
X39281477Y-4696842D01*
G37*
X39281477Y-4696842D02*
X39432006Y-4840593D01*
X39522698Y-4994418D01*
X39528000Y-5029044D01*
X39464510Y-5156230D01*
X39321001Y-5297052D01*
X39167909Y-5387457D01*
X39125214Y-5395333D01*
X38995490Y-5340710D01*
X38899047Y-5262285D01*
X38791094Y-5106386D01*
X38766000Y-5014333D01*
X38831721Y-4850494D01*
X38980867Y-4699034D01*
X39139925Y-4633333D01*
X39281477Y-4696842D01*
G36*
X46987919Y-2162640D02*
X47933817Y-2475473D01*
X48217897Y-2600277D01*
X48861726Y-2963902D01*
X49363271Y-3397037D01*
X49741455Y-3917376D01*
X49849105Y-4125333D01*
X49942579Y-4337867D01*
X50005184Y-4533714D01*
X50042999Y-4755008D01*
X50062106Y-5043888D01*
X50068583Y-5442488D01*
X50069000Y-5649333D01*
X50056755Y-6240491D01*
X50009333Y-6725422D01*
X49910705Y-7135255D01*
X49744844Y-7501121D01*
X49495719Y-7854150D01*
X49147301Y-8225471D01*
X48683563Y-8646215D01*
X48402718Y-8885456D01*
X48124360Y-9151906D01*
X47883992Y-9438996D01*
X47749370Y-9653020D01*
X47623194Y-10001007D01*
X47576915Y-10330932D01*
X47612718Y-10596732D01*
X47698333Y-10729333D01*
X47814614Y-10867107D01*
X47770273Y-10952538D01*
X47566241Y-10984024D01*
X47550167Y-10984160D01*
X47317125Y-11020896D01*
X47017622Y-11114176D01*
X46830500Y-11191932D01*
X46386000Y-11398876D01*
X46386000Y-11179447D01*
X46377846Y-11055307D01*
X46325923Y-10996079D01*
X46189037Y-10987194D01*
X45925998Y-11014083D01*
X45920333Y-11014749D01*
X45614506Y-11032497D01*
X45461604Y-11000446D01*
X45455241Y-10926196D01*
X45589036Y-10817347D01*
X45856602Y-10681499D01*
X46251557Y-10526252D01*
X46363331Y-10487379D01*
X47021000Y-10263666D01*
X47046269Y-9732089D01*
X47053571Y-9431290D01*
X47027955Y-9238641D01*
X46951626Y-9093637D01*
X46814247Y-8943221D01*
X46546932Y-8752804D01*
X46299540Y-8720999D01*
X46084188Y-8837266D01*
X45912992Y-9091062D01*
X45798071Y-9471848D01*
X45754605Y-9865035D01*
X45733200Y-10348333D01*
X45408198Y-10401171D01*
X45062159Y-10535425D01*
X44888352Y-10697504D01*
X44693508Y-10941000D01*
X44693087Y-10660127D01*
X44679886Y-10472971D01*
X44618368Y-10414741D01*
X44502167Y-10437025D01*
X44297207Y-10537971D01*
X44121167Y-10669156D01*
X43930667Y-10843517D01*
X43930667Y-10665921D01*
X44007019Y-10416871D01*
X44208837Y-10175469D01*
X44495265Y-9981145D01*
X44732423Y-9892147D01*
X44914137Y-9843428D01*
X45035376Y-9784764D01*
X45115647Y-9682372D01*
X45174460Y-9502469D01*
X45231324Y-9211271D01*
X45275594Y-8951541D01*
X45312082Y-8636404D01*
X45292707Y-8461178D01*
X45271301Y-8434660D01*
X45165110Y-8404500D01*
X44919487Y-8351391D01*
X44561940Y-8280762D01*
X44119976Y-8198042D01*
X43621102Y-8108660D01*
X43606883Y-8106167D01*
X42664163Y-7931097D01*
X41872947Y-7761267D01*
X41215737Y-7591284D01*
X40675039Y-7415755D01*
X40233355Y-7229289D01*
X39873190Y-7026494D01*
X39697333Y-6901269D01*
X39501039Y-6705169D01*
X39312215Y-6446924D01*
X39167981Y-6185106D01*
X39105460Y-5978285D01*
X39105100Y-5966833D01*
X39043216Y-5848638D01*
X38884533Y-5818666D01*
X38653633Y-5745691D01*
X38386937Y-5540870D01*
X38365963Y-5520230D01*
X38190051Y-5329764D01*
X38108506Y-5171632D01*
X38095587Y-4980024D01*
X38202813Y-4980024D01*
X38303708Y-5283192D01*
X38489163Y-5522767D01*
X38730426Y-5676685D01*
X38998748Y-5722883D01*
X39265377Y-5639295D01*
X39392341Y-5538689D01*
X39547001Y-5364080D01*
X39642492Y-5221189D01*
X39697585Y-5141335D01*
X39752174Y-5221189D01*
X39929948Y-5471103D01*
X40181726Y-5657797D01*
X40443005Y-5733919D01*
X40450763Y-5734000D01*
X40756393Y-5662585D01*
X40988308Y-5473742D01*
X41139752Y-5205575D01*
X41203974Y-4896186D01*
X41174220Y-4583679D01*
X41043737Y-4306155D01*
X40805771Y-4101719D01*
X40745131Y-4073141D01*
X40423880Y-4007522D01*
X40134827Y-4100749D01*
X39866296Y-4351843D01*
X39724116Y-4494384D01*
X39642985Y-4498853D01*
X39636833Y-4486299D01*
X39462030Y-4219682D01*
X39190309Y-4032756D01*
X39056577Y-3991087D01*
X38786300Y-4016958D01*
X38521085Y-4167878D01*
X38310862Y-4405613D01*
X38215228Y-4635328D01*
X38202813Y-4980024D01*
X38095587Y-4980024D01*
X38094912Y-4970027D01*
X38109552Y-4784425D01*
X38160090Y-4482176D01*
X38263069Y-4272132D01*
X38417791Y-4109195D01*
X38647827Y-3962143D01*
X38908488Y-3878325D01*
X39145057Y-3867069D01*
X39302815Y-3937708D01*
X39316323Y-3955982D01*
X39406317Y-3957174D01*
X39581535Y-3861292D01*
X39710841Y-3765482D01*
X39857584Y-3651958D01*
X39989168Y-3573600D01*
X40141881Y-3522300D01*
X40352015Y-3489947D01*
X40655860Y-3468432D01*
X41089706Y-3449645D01*
X41131565Y-3448000D01*
X42210087Y-3405666D01*
X42668210Y-3055289D01*
X43457482Y-2550826D01*
X44290098Y-2208836D01*
X45160049Y-2029814D01*
X46061326Y-2014251D01*
X46987919Y-2162640D01*
X46987919Y-2162640D01*
G37*
X46987919Y-2162640D02*
X47933817Y-2475473D01*
X48217897Y-2600277D01*
X48861726Y-2963902D01*
X49363271Y-3397037D01*
X49741455Y-3917376D01*
X49849105Y-4125333D01*
X49942579Y-4337867D01*
X50005184Y-4533714D01*
X50042999Y-4755008D01*
X50062106Y-5043888D01*
X50068583Y-5442488D01*
X50069000Y-5649333D01*
X50056755Y-6240491D01*
X50009333Y-6725422D01*
X49910705Y-7135255D01*
X49744844Y-7501121D01*
X49495719Y-7854150D01*
X49147301Y-8225471D01*
X48683563Y-8646215D01*
X48402718Y-8885456D01*
X48124360Y-9151906D01*
X47883992Y-9438996D01*
X47749370Y-9653020D01*
X47623194Y-10001007D01*
X47576915Y-10330932D01*
X47612718Y-10596732D01*
X47698333Y-10729333D01*
X47814614Y-10867107D01*
X47770273Y-10952538D01*
X47566241Y-10984024D01*
X47550167Y-10984160D01*
X47317125Y-11020896D01*
X47017622Y-11114176D01*
X46830500Y-11191932D01*
X46386000Y-11398876D01*
X46386000Y-11179447D01*
X46377846Y-11055307D01*
X46325923Y-10996079D01*
X46189037Y-10987194D01*
X45925998Y-11014083D01*
X45920333Y-11014749D01*
X45614506Y-11032497D01*
X45461604Y-11000446D01*
X45455241Y-10926196D01*
X45589036Y-10817347D01*
X45856602Y-10681499D01*
X46251557Y-10526252D01*
X46363331Y-10487379D01*
X47021000Y-10263666D01*
X47046269Y-9732089D01*
X47053571Y-9431290D01*
X47027955Y-9238641D01*
X46951626Y-9093637D01*
X46814247Y-8943221D01*
X46546932Y-8752804D01*
X46299540Y-8720999D01*
X46084188Y-8837266D01*
X45912992Y-9091062D01*
X45798071Y-9471848D01*
X45754605Y-9865035D01*
X45733200Y-10348333D01*
X45408198Y-10401171D01*
X45062159Y-10535425D01*
X44888352Y-10697504D01*
X44693508Y-10941000D01*
X44693087Y-10660127D01*
X44679886Y-10472971D01*
X44618368Y-10414741D01*
X44502167Y-10437025D01*
X44297207Y-10537971D01*
X44121167Y-10669156D01*
X43930667Y-10843517D01*
X43930667Y-10665921D01*
X44007019Y-10416871D01*
X44208837Y-10175469D01*
X44495265Y-9981145D01*
X44732423Y-9892147D01*
X44914137Y-9843428D01*
X45035376Y-9784764D01*
X45115647Y-9682372D01*
X45174460Y-9502469D01*
X45231324Y-9211271D01*
X45275594Y-8951541D01*
X45312082Y-8636404D01*
X45292707Y-8461178D01*
X45271301Y-8434660D01*
X45165110Y-8404500D01*
X44919487Y-8351391D01*
X44561940Y-8280762D01*
X44119976Y-8198042D01*
X43621102Y-8108660D01*
X43606883Y-8106167D01*
X42664163Y-7931097D01*
X41872947Y-7761267D01*
X41215737Y-7591284D01*
X40675039Y-7415755D01*
X40233355Y-7229289D01*
X39873190Y-7026494D01*
X39697333Y-6901269D01*
X39501039Y-6705169D01*
X39312215Y-6446924D01*
X39167981Y-6185106D01*
X39105460Y-5978285D01*
X39105100Y-5966833D01*
X39043216Y-5848638D01*
X38884533Y-5818666D01*
X38653633Y-5745691D01*
X38386937Y-5540870D01*
X38365963Y-5520230D01*
X38190051Y-5329764D01*
X38108506Y-5171632D01*
X38095587Y-4980024D01*
X38202813Y-4980024D01*
X38303708Y-5283192D01*
X38489163Y-5522767D01*
X38730426Y-5676685D01*
X38998748Y-5722883D01*
X39265377Y-5639295D01*
X39392341Y-5538689D01*
X39547001Y-5364080D01*
X39642492Y-5221189D01*
X39697585Y-5141335D01*
X39752174Y-5221189D01*
X39929948Y-5471103D01*
X40181726Y-5657797D01*
X40443005Y-5733919D01*
X40450763Y-5734000D01*
X40756393Y-5662585D01*
X40988308Y-5473742D01*
X41139752Y-5205575D01*
X41203974Y-4896186D01*
X41174220Y-4583679D01*
X41043737Y-4306155D01*
X40805771Y-4101719D01*
X40745131Y-4073141D01*
X40423880Y-4007522D01*
X40134827Y-4100749D01*
X39866296Y-4351843D01*
X39724116Y-4494384D01*
X39642985Y-4498853D01*
X39636833Y-4486299D01*
X39462030Y-4219682D01*
X39190309Y-4032756D01*
X39056577Y-3991087D01*
X38786300Y-4016958D01*
X38521085Y-4167878D01*
X38310862Y-4405613D01*
X38215228Y-4635328D01*
X38202813Y-4980024D01*
X38095587Y-4980024D01*
X38094912Y-4970027D01*
X38109552Y-4784425D01*
X38160090Y-4482176D01*
X38263069Y-4272132D01*
X38417791Y-4109195D01*
X38647827Y-3962143D01*
X38908488Y-3878325D01*
X39145057Y-3867069D01*
X39302815Y-3937708D01*
X39316323Y-3955982D01*
X39406317Y-3957174D01*
X39581535Y-3861292D01*
X39710841Y-3765482D01*
X39857584Y-3651958D01*
X39989168Y-3573600D01*
X40141881Y-3522300D01*
X40352015Y-3489947D01*
X40655860Y-3468432D01*
X41089706Y-3449645D01*
X41131565Y-3448000D01*
X42210087Y-3405666D01*
X42668210Y-3055289D01*
X43457482Y-2550826D01*
X44290098Y-2208836D01*
X45160049Y-2029814D01*
X46061326Y-2014251D01*
X46987919Y-2162640D01*
D11*
G36*
X93151703Y-77541486D02*
X93442883Y-77662097D01*
X93704944Y-77837201D01*
X93927799Y-78060056D01*
X94102903Y-78322117D01*
X94223514Y-78613297D01*
X94285000Y-78922412D01*
X94285000Y-79237588D01*
X94223514Y-79546703D01*
X94102903Y-79837883D01*
X93927799Y-80099944D01*
X93704944Y-80322799D01*
X93442883Y-80497903D01*
X93151703Y-80618514D01*
X92842588Y-80680000D01*
X92527412Y-80680000D01*
X92218297Y-80618514D01*
X91927117Y-80497903D01*
X91665056Y-80322799D01*
X91442201Y-80099944D01*
X91267097Y-79837883D01*
X91146486Y-79546703D01*
X91085000Y-79237588D01*
X91085000Y-78922412D01*
X91146486Y-78613297D01*
X91267097Y-78322117D01*
X91442201Y-78060056D01*
X91665056Y-77837201D01*
X91927117Y-77662097D01*
X92218297Y-77541486D01*
X92527412Y-77480000D01*
X92842588Y-77480000D01*
X93151703Y-77541486D01*
X93151703Y-77541486D01*
G37*
G36*
X101406703Y-69921486D02*
X101697883Y-70042097D01*
X101959944Y-70217201D01*
X102182799Y-70440056D01*
X102357903Y-70702117D01*
X102478514Y-70993297D01*
X102540000Y-71302412D01*
X102540000Y-71617588D01*
X102478514Y-71926703D01*
X102357903Y-72217883D01*
X102182799Y-72479944D01*
X101959944Y-72702799D01*
X101697883Y-72877903D01*
X101406703Y-72998514D01*
X101097588Y-73060000D01*
X101010279Y-73060000D01*
X100985893Y-73062402D01*
X100962444Y-73069515D01*
X100940833Y-73081066D01*
X100921891Y-73096612D01*
X100906345Y-73115554D01*
X100894794Y-73137165D01*
X100887681Y-73160614D01*
X100885279Y-73185000D01*
X100887681Y-73209386D01*
X100894794Y-73232835D01*
X100906345Y-73254446D01*
X100921891Y-73273388D01*
X101042913Y-73394410D01*
X101146879Y-73550006D01*
X101218492Y-73722895D01*
X101255000Y-73906433D01*
X101255000Y-74093567D01*
X101218492Y-74277105D01*
X101146879Y-74449994D01*
X101042913Y-74605590D01*
X100910590Y-74737913D01*
X100754994Y-74841879D01*
X100582105Y-74913492D01*
X100460916Y-74937598D01*
X100398568Y-74950000D01*
X100211432Y-74950000D01*
X100149084Y-74937598D01*
X100027895Y-74913492D01*
X100027892Y-74913491D01*
X100020010Y-74911923D01*
X100011899Y-74909462D01*
X99987513Y-74907058D01*
X99963127Y-74909457D01*
X99955010Y-74911919D01*
X99947108Y-74913491D01*
X99947105Y-74913492D01*
X99883657Y-74926113D01*
X99860210Y-74933225D01*
X99838600Y-74944776D01*
X99819657Y-74960322D01*
X99804112Y-74979264D01*
X99792561Y-75000875D01*
X99785448Y-75024324D01*
X99783046Y-75048710D01*
X99785448Y-75073097D01*
X99792561Y-75096546D01*
X99804112Y-75118156D01*
X99819658Y-75137099D01*
X99838600Y-75152644D01*
X100054944Y-75297201D01*
X100277799Y-75520056D01*
X100452903Y-75782117D01*
X100573514Y-76073297D01*
X100635000Y-76382412D01*
X100635000Y-76697588D01*
X100573514Y-77006703D01*
X100452903Y-77297883D01*
X100277799Y-77559944D01*
X100054944Y-77782799D01*
X99792883Y-77957903D01*
X99501703Y-78078514D01*
X99192588Y-78140000D01*
X98877412Y-78140000D01*
X98568297Y-78078514D01*
X98277117Y-77957903D01*
X98015056Y-77782799D01*
X97792201Y-77559944D01*
X97617097Y-77297883D01*
X97496486Y-77006703D01*
X97435000Y-76697588D01*
X97435000Y-76382412D01*
X97496486Y-76073297D01*
X97617097Y-75782117D01*
X97792201Y-75520056D01*
X98015056Y-75297201D01*
X98277117Y-75122097D01*
X98568297Y-75001486D01*
X98877412Y-74940000D01*
X98964721Y-74940000D01*
X98989107Y-74937598D01*
X99012556Y-74930485D01*
X99034167Y-74918934D01*
X99053109Y-74903388D01*
X99068655Y-74884446D01*
X99080206Y-74862835D01*
X99087319Y-74839386D01*
X99089721Y-74815000D01*
X99087319Y-74790614D01*
X99080206Y-74767165D01*
X99068655Y-74745554D01*
X99053109Y-74726612D01*
X98932087Y-74605590D01*
X98828121Y-74449994D01*
X98756508Y-74277105D01*
X98720000Y-74093567D01*
X98720000Y-73906433D01*
X98756508Y-73722895D01*
X98828121Y-73550006D01*
X98932087Y-73394410D01*
X99064410Y-73262087D01*
X99220006Y-73158121D01*
X99392895Y-73086508D01*
X99550170Y-73055224D01*
X99576432Y-73050000D01*
X99763568Y-73050000D01*
X99789830Y-73055224D01*
X99947105Y-73086508D01*
X99947108Y-73086509D01*
X99954990Y-73088077D01*
X99963101Y-73090538D01*
X99987487Y-73092942D01*
X100011873Y-73090543D01*
X100019990Y-73088081D01*
X100027892Y-73086509D01*
X100027895Y-73086508D01*
X100091343Y-73073887D01*
X100114790Y-73066775D01*
X100136400Y-73055224D01*
X100155343Y-73039678D01*
X100170888Y-73020736D01*
X100182439Y-72999125D01*
X100189552Y-72975676D01*
X100191954Y-72951290D01*
X100189552Y-72926903D01*
X100182439Y-72903454D01*
X100170888Y-72881844D01*
X100155342Y-72862901D01*
X100136400Y-72847356D01*
X99920056Y-72702799D01*
X99697201Y-72479944D01*
X99522097Y-72217883D01*
X99401486Y-71926703D01*
X99340000Y-71617588D01*
X99340000Y-71302412D01*
X99401486Y-70993297D01*
X99522097Y-70702117D01*
X99697201Y-70440056D01*
X99920056Y-70217201D01*
X100182117Y-70042097D01*
X100473297Y-69921486D01*
X100782412Y-69860000D01*
X101097588Y-69860000D01*
X101406703Y-69921486D01*
X101406703Y-69921486D01*
G37*
G36*
X10112547Y-71980701D02*
X10494722Y-72139003D01*
X10494723Y-72139004D01*
X10838672Y-72368823D01*
X11131177Y-72661328D01*
X11275887Y-72877902D01*
X11360997Y-73005278D01*
X11519299Y-73387453D01*
X11600000Y-73793167D01*
X11600000Y-74206833D01*
X11519299Y-74612547D01*
X11360997Y-74994722D01*
X11324923Y-75048710D01*
X11131177Y-75338672D01*
X10838672Y-75631177D01*
X10612775Y-75782116D01*
X10494722Y-75860997D01*
X10112547Y-76019299D01*
X9706833Y-76100000D01*
X9293167Y-76100000D01*
X8887453Y-76019299D01*
X8505278Y-75860997D01*
X8387225Y-75782116D01*
X8161328Y-75631177D01*
X7868823Y-75338672D01*
X7675077Y-75048710D01*
X7639003Y-74994722D01*
X7480701Y-74612547D01*
X7400000Y-74206833D01*
X7400000Y-73793167D01*
X7480701Y-73387453D01*
X7639003Y-73005278D01*
X7724113Y-72877902D01*
X7868823Y-72661328D01*
X8161328Y-72368823D01*
X8505277Y-72139004D01*
X8505278Y-72139003D01*
X8887453Y-71980701D01*
X9293167Y-71900000D01*
X9706833Y-71900000D01*
X10112547Y-71980701D01*
X10112547Y-71980701D01*
G37*
G36*
X48212547Y-71980701D02*
X48594722Y-72139003D01*
X48594723Y-72139004D01*
X48938672Y-72368823D01*
X49231177Y-72661328D01*
X49375887Y-72877902D01*
X49460997Y-73005278D01*
X49619299Y-73387453D01*
X49700000Y-73793167D01*
X49700000Y-74206833D01*
X49619299Y-74612547D01*
X49460997Y-74994722D01*
X49424923Y-75048710D01*
X49231177Y-75338672D01*
X48938672Y-75631177D01*
X48712775Y-75782116D01*
X48594722Y-75860997D01*
X48212547Y-76019299D01*
X47806833Y-76100000D01*
X47393167Y-76100000D01*
X46987453Y-76019299D01*
X46605278Y-75860997D01*
X46487225Y-75782116D01*
X46261328Y-75631177D01*
X45968823Y-75338672D01*
X45775077Y-75048710D01*
X45739003Y-74994722D01*
X45580701Y-74612547D01*
X45500000Y-74206833D01*
X45500000Y-73793167D01*
X45580701Y-73387453D01*
X45739003Y-73005278D01*
X45824113Y-72877902D01*
X45968823Y-72661328D01*
X46261328Y-72368823D01*
X46605277Y-72139004D01*
X46605278Y-72139003D01*
X46987453Y-71980701D01*
X47393167Y-71900000D01*
X47806833Y-71900000D01*
X48212547Y-71980701D01*
X48212547Y-71980701D01*
G37*
G36*
X67262547Y-71980701D02*
X67644722Y-72139003D01*
X67644723Y-72139004D01*
X67988672Y-72368823D01*
X68281177Y-72661328D01*
X68425887Y-72877902D01*
X68510997Y-73005278D01*
X68669299Y-73387453D01*
X68750000Y-73793167D01*
X68750000Y-74206833D01*
X68669299Y-74612547D01*
X68510997Y-74994722D01*
X68474923Y-75048710D01*
X68281177Y-75338672D01*
X67988672Y-75631177D01*
X67762775Y-75782116D01*
X67644722Y-75860997D01*
X67262547Y-76019299D01*
X66856833Y-76100000D01*
X66443167Y-76100000D01*
X66037453Y-76019299D01*
X65655278Y-75860997D01*
X65537225Y-75782116D01*
X65311328Y-75631177D01*
X65018823Y-75338672D01*
X64825077Y-75048710D01*
X64789003Y-74994722D01*
X64630701Y-74612547D01*
X64550000Y-74206833D01*
X64550000Y-73793167D01*
X64630701Y-73387453D01*
X64789003Y-73005278D01*
X64874113Y-72877902D01*
X65018823Y-72661328D01*
X65311328Y-72368823D01*
X65655277Y-72139004D01*
X65655278Y-72139003D01*
X66037453Y-71980701D01*
X66443167Y-71900000D01*
X66856833Y-71900000D01*
X67262547Y-71980701D01*
X67262547Y-71980701D01*
G37*
G36*
X95837547Y-71980701D02*
X96219722Y-72139003D01*
X96219723Y-72139004D01*
X96563672Y-72368823D01*
X96856177Y-72661328D01*
X97000887Y-72877902D01*
X97085997Y-73005278D01*
X97244299Y-73387453D01*
X97325000Y-73793167D01*
X97325000Y-74206833D01*
X97244299Y-74612547D01*
X97085997Y-74994722D01*
X97049923Y-75048710D01*
X96856177Y-75338672D01*
X96563672Y-75631177D01*
X96337775Y-75782116D01*
X96219722Y-75860997D01*
X95837547Y-76019299D01*
X95431833Y-76100000D01*
X95018167Y-76100000D01*
X94612453Y-76019299D01*
X94230278Y-75860997D01*
X94112225Y-75782116D01*
X93886328Y-75631177D01*
X93593823Y-75338672D01*
X93400077Y-75048710D01*
X93364003Y-74994722D01*
X93205701Y-74612547D01*
X93125000Y-74206833D01*
X93125000Y-73793167D01*
X93205701Y-73387453D01*
X93364003Y-73005278D01*
X93449113Y-72877902D01*
X93593823Y-72661328D01*
X93886328Y-72368823D01*
X94230277Y-72139004D01*
X94230278Y-72139003D01*
X94612453Y-71980701D01*
X95018167Y-71900000D01*
X95431833Y-71900000D01*
X95837547Y-71980701D01*
X95837547Y-71980701D01*
G37*
G36*
X29162547Y-71980701D02*
X29544722Y-72139003D01*
X29544723Y-72139004D01*
X29888672Y-72368823D01*
X30181177Y-72661328D01*
X30325887Y-72877902D01*
X30410997Y-73005278D01*
X30569299Y-73387453D01*
X30650000Y-73793167D01*
X30650000Y-74206833D01*
X30569299Y-74612547D01*
X30410997Y-74994722D01*
X30374923Y-75048710D01*
X30181177Y-75338672D01*
X29888672Y-75631177D01*
X29662775Y-75782116D01*
X29544722Y-75860997D01*
X29162547Y-76019299D01*
X28756833Y-76100000D01*
X28343167Y-76100000D01*
X27937453Y-76019299D01*
X27555278Y-75860997D01*
X27437225Y-75782116D01*
X27211328Y-75631177D01*
X26918823Y-75338672D01*
X26725077Y-75048710D01*
X26689003Y-74994722D01*
X26530701Y-74612547D01*
X26450000Y-74206833D01*
X26450000Y-73793167D01*
X26530701Y-73387453D01*
X26689003Y-73005278D01*
X26774113Y-72877902D01*
X26918823Y-72661328D01*
X27211328Y-72368823D01*
X27555277Y-72139004D01*
X27555278Y-72139003D01*
X27937453Y-71980701D01*
X28343167Y-71900000D01*
X28756833Y-71900000D01*
X29162547Y-71980701D01*
X29162547Y-71980701D01*
G37*
G36*
X86312547Y-71980701D02*
X86694722Y-72139003D01*
X86694723Y-72139004D01*
X87038672Y-72368823D01*
X87331177Y-72661328D01*
X87475887Y-72877902D01*
X87560997Y-73005278D01*
X87719299Y-73387453D01*
X87800000Y-73793167D01*
X87800000Y-74206833D01*
X87719299Y-74612547D01*
X87560997Y-74994722D01*
X87524923Y-75048710D01*
X87331177Y-75338672D01*
X87038672Y-75631177D01*
X86812775Y-75782116D01*
X86694722Y-75860997D01*
X86312547Y-76019299D01*
X85906833Y-76100000D01*
X85493167Y-76100000D01*
X85087453Y-76019299D01*
X84705278Y-75860997D01*
X84587225Y-75782116D01*
X84361328Y-75631177D01*
X84068823Y-75338672D01*
X83875077Y-75048710D01*
X83839003Y-74994722D01*
X83680701Y-74612547D01*
X83600000Y-74206833D01*
X83600000Y-73793167D01*
X83680701Y-73387453D01*
X83839003Y-73005278D01*
X83924113Y-72877902D01*
X84068823Y-72661328D01*
X84361328Y-72368823D01*
X84705277Y-72139004D01*
X84705278Y-72139003D01*
X85087453Y-71980701D01*
X85493167Y-71900000D01*
X85906833Y-71900000D01*
X86312547Y-71980701D01*
X86312547Y-71980701D01*
G37*
G36*
X105362547Y-71980701D02*
X105744722Y-72139003D01*
X105744723Y-72139004D01*
X106088672Y-72368823D01*
X106381177Y-72661328D01*
X106525887Y-72877902D01*
X106610997Y-73005278D01*
X106769299Y-73387453D01*
X106850000Y-73793167D01*
X106850000Y-74206833D01*
X106769299Y-74612547D01*
X106610997Y-74994722D01*
X106574923Y-75048710D01*
X106381177Y-75338672D01*
X106088672Y-75631177D01*
X105862775Y-75782116D01*
X105744722Y-75860997D01*
X105362547Y-76019299D01*
X104956833Y-76100000D01*
X104543167Y-76100000D01*
X104137453Y-76019299D01*
X103755278Y-75860997D01*
X103637225Y-75782116D01*
X103411328Y-75631177D01*
X103118823Y-75338672D01*
X102925077Y-75048710D01*
X102889003Y-74994722D01*
X102730701Y-74612547D01*
X102650000Y-74206833D01*
X102650000Y-73793167D01*
X102730701Y-73387453D01*
X102889003Y-73005278D01*
X102974113Y-72877902D01*
X103118823Y-72661328D01*
X103411328Y-72368823D01*
X103755277Y-72139004D01*
X103755278Y-72139003D01*
X104137453Y-71980701D01*
X104543167Y-71900000D01*
X104956833Y-71900000D01*
X105362547Y-71980701D01*
X105362547Y-71980701D01*
G37*
G36*
X80739830Y-73055224D02*
X80897105Y-73086508D01*
X81069994Y-73158121D01*
X81225590Y-73262087D01*
X81357913Y-73394410D01*
X81461879Y-73550006D01*
X81533492Y-73722895D01*
X81570000Y-73906433D01*
X81570000Y-74093567D01*
X81533492Y-74277105D01*
X81461879Y-74449994D01*
X81357913Y-74605590D01*
X81225590Y-74737913D01*
X81069994Y-74841879D01*
X80897105Y-74913492D01*
X80775916Y-74937598D01*
X80713568Y-74950000D01*
X80526432Y-74950000D01*
X80464084Y-74937598D01*
X80342895Y-74913492D01*
X80170006Y-74841879D01*
X80014410Y-74737913D01*
X79882087Y-74605590D01*
X79778121Y-74449994D01*
X79706508Y-74277105D01*
X79670000Y-74093567D01*
X79670000Y-73906433D01*
X79706508Y-73722895D01*
X79778121Y-73550006D01*
X79882087Y-73394410D01*
X80014410Y-73262087D01*
X80170006Y-73158121D01*
X80342895Y-73086508D01*
X80500170Y-73055224D01*
X80526432Y-73050000D01*
X80713568Y-73050000D01*
X80739830Y-73055224D01*
X80739830Y-73055224D01*
G37*
G36*
X33749830Y-73055224D02*
X33907105Y-73086508D01*
X34079994Y-73158121D01*
X34235590Y-73262087D01*
X34367913Y-73394410D01*
X34471879Y-73550006D01*
X34543492Y-73722895D01*
X34580000Y-73906433D01*
X34580000Y-74093567D01*
X34543492Y-74277105D01*
X34471879Y-74449994D01*
X34367913Y-74605590D01*
X34235590Y-74737913D01*
X34079994Y-74841879D01*
X33907105Y-74913492D01*
X33785916Y-74937598D01*
X33723568Y-74950000D01*
X33536432Y-74950000D01*
X33474084Y-74937598D01*
X33352895Y-74913492D01*
X33180006Y-74841879D01*
X33024410Y-74737913D01*
X32892087Y-74605590D01*
X32788121Y-74449994D01*
X32716508Y-74277105D01*
X32680000Y-74093567D01*
X32680000Y-73906433D01*
X32716508Y-73722895D01*
X32788121Y-73550006D01*
X32892087Y-73394410D01*
X33024410Y-73262087D01*
X33180006Y-73158121D01*
X33352895Y-73086508D01*
X33510170Y-73055224D01*
X33536432Y-73050000D01*
X33723568Y-73050000D01*
X33749830Y-73055224D01*
X33749830Y-73055224D01*
G37*
G36*
X23589830Y-73055224D02*
X23747105Y-73086508D01*
X23919994Y-73158121D01*
X24075590Y-73262087D01*
X24207913Y-73394410D01*
X24311879Y-73550006D01*
X24383492Y-73722895D01*
X24420000Y-73906433D01*
X24420000Y-74093567D01*
X24383492Y-74277105D01*
X24311879Y-74449994D01*
X24207913Y-74605590D01*
X24075590Y-74737913D01*
X23919994Y-74841879D01*
X23747105Y-74913492D01*
X23625916Y-74937598D01*
X23563568Y-74950000D01*
X23376432Y-74950000D01*
X23314084Y-74937598D01*
X23192895Y-74913492D01*
X23020006Y-74841879D01*
X22864410Y-74737913D01*
X22732087Y-74605590D01*
X22628121Y-74449994D01*
X22556508Y-74277105D01*
X22520000Y-74093567D01*
X22520000Y-73906433D01*
X22556508Y-73722895D01*
X22628121Y-73550006D01*
X22732087Y-73394410D01*
X22864410Y-73262087D01*
X23020006Y-73158121D01*
X23192895Y-73086508D01*
X23350170Y-73055224D01*
X23376432Y-73050000D01*
X23563568Y-73050000D01*
X23589830Y-73055224D01*
X23589830Y-73055224D01*
G37*
G36*
X71849830Y-73055224D02*
X72007105Y-73086508D01*
X72179994Y-73158121D01*
X72335590Y-73262087D01*
X72467913Y-73394410D01*
X72571879Y-73550006D01*
X72643492Y-73722895D01*
X72680000Y-73906433D01*
X72680000Y-74093567D01*
X72643492Y-74277105D01*
X72571879Y-74449994D01*
X72467913Y-74605590D01*
X72335590Y-74737913D01*
X72179994Y-74841879D01*
X72007105Y-74913492D01*
X71885916Y-74937598D01*
X71823568Y-74950000D01*
X71636432Y-74950000D01*
X71574084Y-74937598D01*
X71452895Y-74913492D01*
X71280006Y-74841879D01*
X71124410Y-74737913D01*
X70992087Y-74605590D01*
X70888121Y-74449994D01*
X70816508Y-74277105D01*
X70780000Y-74093567D01*
X70780000Y-73906433D01*
X70816508Y-73722895D01*
X70888121Y-73550006D01*
X70992087Y-73394410D01*
X71124410Y-73262087D01*
X71280006Y-73158121D01*
X71452895Y-73086508D01*
X71610170Y-73055224D01*
X71636432Y-73050000D01*
X71823568Y-73050000D01*
X71849830Y-73055224D01*
X71849830Y-73055224D01*
G37*
G36*
X52799830Y-73055224D02*
X52957105Y-73086508D01*
X53129994Y-73158121D01*
X53285590Y-73262087D01*
X53417913Y-73394410D01*
X53521879Y-73550006D01*
X53593492Y-73722895D01*
X53630000Y-73906433D01*
X53630000Y-74093567D01*
X53593492Y-74277105D01*
X53521879Y-74449994D01*
X53417913Y-74605590D01*
X53285590Y-74737913D01*
X53129994Y-74841879D01*
X52957105Y-74913492D01*
X52835916Y-74937598D01*
X52773568Y-74950000D01*
X52586432Y-74950000D01*
X52524084Y-74937598D01*
X52402895Y-74913492D01*
X52230006Y-74841879D01*
X52074410Y-74737913D01*
X51942087Y-74605590D01*
X51838121Y-74449994D01*
X51766508Y-74277105D01*
X51730000Y-74093567D01*
X51730000Y-73906433D01*
X51766508Y-73722895D01*
X51838121Y-73550006D01*
X51942087Y-73394410D01*
X52074410Y-73262087D01*
X52230006Y-73158121D01*
X52402895Y-73086508D01*
X52560170Y-73055224D01*
X52586432Y-73050000D01*
X52773568Y-73050000D01*
X52799830Y-73055224D01*
X52799830Y-73055224D01*
G37*
G36*
X42639830Y-73055224D02*
X42797105Y-73086508D01*
X42969994Y-73158121D01*
X43125590Y-73262087D01*
X43257913Y-73394410D01*
X43361879Y-73550006D01*
X43433492Y-73722895D01*
X43470000Y-73906433D01*
X43470000Y-74093567D01*
X43433492Y-74277105D01*
X43361879Y-74449994D01*
X43257913Y-74605590D01*
X43125590Y-74737913D01*
X42969994Y-74841879D01*
X42797105Y-74913492D01*
X42675916Y-74937598D01*
X42613568Y-74950000D01*
X42426432Y-74950000D01*
X42364084Y-74937598D01*
X42242895Y-74913492D01*
X42070006Y-74841879D01*
X41914410Y-74737913D01*
X41782087Y-74605590D01*
X41678121Y-74449994D01*
X41606508Y-74277105D01*
X41570000Y-74093567D01*
X41570000Y-73906433D01*
X41606508Y-73722895D01*
X41678121Y-73550006D01*
X41782087Y-73394410D01*
X41914410Y-73262087D01*
X42070006Y-73158121D01*
X42242895Y-73086508D01*
X42400170Y-73055224D01*
X42426432Y-73050000D01*
X42613568Y-73050000D01*
X42639830Y-73055224D01*
X42639830Y-73055224D01*
G37*
G36*
X14699830Y-73055224D02*
X14857105Y-73086508D01*
X15029994Y-73158121D01*
X15185590Y-73262087D01*
X15317913Y-73394410D01*
X15421879Y-73550006D01*
X15493492Y-73722895D01*
X15530000Y-73906433D01*
X15530000Y-74093567D01*
X15493492Y-74277105D01*
X15421879Y-74449994D01*
X15317913Y-74605590D01*
X15185590Y-74737913D01*
X15029994Y-74841879D01*
X14857105Y-74913492D01*
X14735916Y-74937598D01*
X14673568Y-74950000D01*
X14486432Y-74950000D01*
X14424084Y-74937598D01*
X14302895Y-74913492D01*
X14130006Y-74841879D01*
X13974410Y-74737913D01*
X13842087Y-74605590D01*
X13738121Y-74449994D01*
X13666508Y-74277105D01*
X13630000Y-74093567D01*
X13630000Y-73906433D01*
X13666508Y-73722895D01*
X13738121Y-73550006D01*
X13842087Y-73394410D01*
X13974410Y-73262087D01*
X14130006Y-73158121D01*
X14302895Y-73086508D01*
X14460170Y-73055224D01*
X14486432Y-73050000D01*
X14673568Y-73050000D01*
X14699830Y-73055224D01*
X14699830Y-73055224D01*
G37*
G36*
X61689830Y-73055224D02*
X61847105Y-73086508D01*
X62019994Y-73158121D01*
X62175590Y-73262087D01*
X62307913Y-73394410D01*
X62411879Y-73550006D01*
X62483492Y-73722895D01*
X62520000Y-73906433D01*
X62520000Y-74093567D01*
X62483492Y-74277105D01*
X62411879Y-74449994D01*
X62307913Y-74605590D01*
X62175590Y-74737913D01*
X62019994Y-74841879D01*
X61847105Y-74913492D01*
X61725916Y-74937598D01*
X61663568Y-74950000D01*
X61476432Y-74950000D01*
X61414084Y-74937598D01*
X61292895Y-74913492D01*
X61120006Y-74841879D01*
X60964410Y-74737913D01*
X60832087Y-74605590D01*
X60728121Y-74449994D01*
X60656508Y-74277105D01*
X60620000Y-74093567D01*
X60620000Y-73906433D01*
X60656508Y-73722895D01*
X60728121Y-73550006D01*
X60832087Y-73394410D01*
X60964410Y-73262087D01*
X61120006Y-73158121D01*
X61292895Y-73086508D01*
X61450170Y-73055224D01*
X61476432Y-73050000D01*
X61663568Y-73050000D01*
X61689830Y-73055224D01*
X61689830Y-73055224D01*
G37*
G36*
X90264830Y-73055224D02*
X90422105Y-73086508D01*
X90422108Y-73086509D01*
X90429990Y-73088077D01*
X90438101Y-73090538D01*
X90462487Y-73092942D01*
X90486873Y-73090543D01*
X90494992Y-73088080D01*
X90686432Y-73050000D01*
X90873568Y-73050000D01*
X90899830Y-73055224D01*
X91057105Y-73086508D01*
X91229994Y-73158121D01*
X91385590Y-73262087D01*
X91517913Y-73394410D01*
X91621879Y-73550006D01*
X91693492Y-73722895D01*
X91730000Y-73906433D01*
X91730000Y-74093567D01*
X91693492Y-74277105D01*
X91621879Y-74449994D01*
X91517913Y-74605590D01*
X91385590Y-74737913D01*
X91229994Y-74841879D01*
X91057105Y-74913492D01*
X90935916Y-74937598D01*
X90873568Y-74950000D01*
X90686432Y-74950000D01*
X90624084Y-74937598D01*
X90502895Y-74913492D01*
X90502892Y-74913491D01*
X90495010Y-74911923D01*
X90486899Y-74909462D01*
X90462513Y-74907058D01*
X90438127Y-74909457D01*
X90430008Y-74911920D01*
X90238568Y-74950000D01*
X90051432Y-74950000D01*
X89989084Y-74937598D01*
X89867895Y-74913492D01*
X89695006Y-74841879D01*
X89539410Y-74737913D01*
X89407087Y-74605590D01*
X89303121Y-74449994D01*
X89231508Y-74277105D01*
X89195000Y-74093567D01*
X89195000Y-73906433D01*
X89231508Y-73722895D01*
X89303121Y-73550006D01*
X89407087Y-73394410D01*
X89539410Y-73262087D01*
X89695006Y-73158121D01*
X89867895Y-73086508D01*
X90025170Y-73055224D01*
X90051432Y-73050000D01*
X90238568Y-73050000D01*
X90264830Y-73055224D01*
X90264830Y-73055224D01*
G37*
G36*
X109949830Y-73055224D02*
X110107105Y-73086508D01*
X110279994Y-73158121D01*
X110435590Y-73262087D01*
X110567913Y-73394410D01*
X110671879Y-73550006D01*
X110743492Y-73722895D01*
X110780000Y-73906433D01*
X110780000Y-74093567D01*
X110743492Y-74277105D01*
X110671879Y-74449994D01*
X110567913Y-74605590D01*
X110435590Y-74737913D01*
X110279994Y-74841879D01*
X110107105Y-74913492D01*
X109985916Y-74937598D01*
X109923568Y-74950000D01*
X109736432Y-74950000D01*
X109674084Y-74937598D01*
X109552895Y-74913492D01*
X109380006Y-74841879D01*
X109224410Y-74737913D01*
X109092087Y-74605590D01*
X108988121Y-74449994D01*
X108916508Y-74277105D01*
X108880000Y-74093567D01*
X108880000Y-73906433D01*
X108916508Y-73722895D01*
X108988121Y-73550006D01*
X109092087Y-73394410D01*
X109224410Y-73262087D01*
X109380006Y-73158121D01*
X109552895Y-73086508D01*
X109710170Y-73055224D01*
X109736432Y-73050000D01*
X109923568Y-73050000D01*
X109949830Y-73055224D01*
X109949830Y-73055224D01*
G37*
G36*
X4539830Y-73055224D02*
X4697105Y-73086508D01*
X4869994Y-73158121D01*
X5025590Y-73262087D01*
X5157913Y-73394410D01*
X5261879Y-73550006D01*
X5333492Y-73722895D01*
X5370000Y-73906433D01*
X5370000Y-74093567D01*
X5333492Y-74277105D01*
X5261879Y-74449994D01*
X5157913Y-74605590D01*
X5025590Y-74737913D01*
X4869994Y-74841879D01*
X4697105Y-74913492D01*
X4575916Y-74937598D01*
X4513568Y-74950000D01*
X4326432Y-74950000D01*
X4264084Y-74937598D01*
X4142895Y-74913492D01*
X3970006Y-74841879D01*
X3814410Y-74737913D01*
X3682087Y-74605590D01*
X3578121Y-74449994D01*
X3506508Y-74277105D01*
X3470000Y-74093567D01*
X3470000Y-73906433D01*
X3506508Y-73722895D01*
X3578121Y-73550006D01*
X3682087Y-73394410D01*
X3814410Y-73262087D01*
X3970006Y-73158121D01*
X4142895Y-73086508D01*
X4300170Y-73055224D01*
X4326432Y-73050000D01*
X4513568Y-73050000D01*
X4539830Y-73055224D01*
X4539830Y-73055224D01*
G37*
G36*
X25206703Y-69921486D02*
X25497883Y-70042097D01*
X25759944Y-70217201D01*
X25982799Y-70440056D01*
X26157903Y-70702117D01*
X26278514Y-70993297D01*
X26340000Y-71302412D01*
X26340000Y-71617588D01*
X26278514Y-71926703D01*
X26157903Y-72217883D01*
X25982799Y-72479944D01*
X25759944Y-72702799D01*
X25497883Y-72877903D01*
X25206703Y-72998514D01*
X24897588Y-73060000D01*
X24582412Y-73060000D01*
X24273297Y-72998514D01*
X23982117Y-72877903D01*
X23720056Y-72702799D01*
X23497201Y-72479944D01*
X23322097Y-72217883D01*
X23201486Y-71926703D01*
X23140000Y-71617588D01*
X23140000Y-71302412D01*
X23201486Y-70993297D01*
X23322097Y-70702117D01*
X23497201Y-70440056D01*
X23720056Y-70217201D01*
X23982117Y-70042097D01*
X24273297Y-69921486D01*
X24582412Y-69860000D01*
X24897588Y-69860000D01*
X25206703Y-69921486D01*
X25206703Y-69921486D01*
G37*
G36*
X82356703Y-69921486D02*
X82647883Y-70042097D01*
X82909944Y-70217201D01*
X83132799Y-70440056D01*
X83307903Y-70702117D01*
X83428514Y-70993297D01*
X83490000Y-71302412D01*
X83490000Y-71617588D01*
X83428514Y-71926703D01*
X83307903Y-72217883D01*
X83132799Y-72479944D01*
X82909944Y-72702799D01*
X82647883Y-72877903D01*
X82356703Y-72998514D01*
X82047588Y-73060000D01*
X81732412Y-73060000D01*
X81423297Y-72998514D01*
X81132117Y-72877903D01*
X80870056Y-72702799D01*
X80647201Y-72479944D01*
X80472097Y-72217883D01*
X80351486Y-71926703D01*
X80290000Y-71617588D01*
X80290000Y-71302412D01*
X80351486Y-70993297D01*
X80472097Y-70702117D01*
X80647201Y-70440056D01*
X80870056Y-70217201D01*
X81132117Y-70042097D01*
X81423297Y-69921486D01*
X81732412Y-69860000D01*
X82047588Y-69860000D01*
X82356703Y-69921486D01*
X82356703Y-69921486D01*
G37*
G36*
X6156703Y-69921486D02*
X6447883Y-70042097D01*
X6709944Y-70217201D01*
X6932799Y-70440056D01*
X7107903Y-70702117D01*
X7228514Y-70993297D01*
X7290000Y-71302412D01*
X7290000Y-71617588D01*
X7228514Y-71926703D01*
X7107903Y-72217883D01*
X6932799Y-72479944D01*
X6709944Y-72702799D01*
X6447883Y-72877903D01*
X6156703Y-72998514D01*
X5847588Y-73060000D01*
X5532412Y-73060000D01*
X5223297Y-72998514D01*
X4932117Y-72877903D01*
X4670056Y-72702799D01*
X4447201Y-72479944D01*
X4272097Y-72217883D01*
X4151486Y-71926703D01*
X4090000Y-71617588D01*
X4090000Y-71302412D01*
X4151486Y-70993297D01*
X4272097Y-70702117D01*
X4447201Y-70440056D01*
X4670056Y-70217201D01*
X4932117Y-70042097D01*
X5223297Y-69921486D01*
X5532412Y-69860000D01*
X5847588Y-69860000D01*
X6156703Y-69921486D01*
X6156703Y-69921486D01*
G37*
G36*
X63306703Y-69921486D02*
X63597883Y-70042097D01*
X63859944Y-70217201D01*
X64082799Y-70440056D01*
X64257903Y-70702117D01*
X64378514Y-70993297D01*
X64440000Y-71302412D01*
X64440000Y-71617588D01*
X64378514Y-71926703D01*
X64257903Y-72217883D01*
X64082799Y-72479944D01*
X63859944Y-72702799D01*
X63597883Y-72877903D01*
X63306703Y-72998514D01*
X62997588Y-73060000D01*
X62682412Y-73060000D01*
X62373297Y-72998514D01*
X62082117Y-72877903D01*
X61820056Y-72702799D01*
X61597201Y-72479944D01*
X61422097Y-72217883D01*
X61301486Y-71926703D01*
X61240000Y-71617588D01*
X61240000Y-71302412D01*
X61301486Y-70993297D01*
X61422097Y-70702117D01*
X61597201Y-70440056D01*
X61820056Y-70217201D01*
X62082117Y-70042097D01*
X62373297Y-69921486D01*
X62682412Y-69860000D01*
X62997588Y-69860000D01*
X63306703Y-69921486D01*
X63306703Y-69921486D01*
G37*
G36*
X44256703Y-69921486D02*
X44547883Y-70042097D01*
X44809944Y-70217201D01*
X45032799Y-70440056D01*
X45207903Y-70702117D01*
X45328514Y-70993297D01*
X45390000Y-71302412D01*
X45390000Y-71617588D01*
X45328514Y-71926703D01*
X45207903Y-72217883D01*
X45032799Y-72479944D01*
X44809944Y-72702799D01*
X44547883Y-72877903D01*
X44256703Y-72998514D01*
X43947588Y-73060000D01*
X43632412Y-73060000D01*
X43323297Y-72998514D01*
X43032117Y-72877903D01*
X42770056Y-72702799D01*
X42547201Y-72479944D01*
X42372097Y-72217883D01*
X42251486Y-71926703D01*
X42190000Y-71617588D01*
X42190000Y-71302412D01*
X42251486Y-70993297D01*
X42372097Y-70702117D01*
X42547201Y-70440056D01*
X42770056Y-70217201D01*
X43032117Y-70042097D01*
X43323297Y-69921486D01*
X43632412Y-69860000D01*
X43947588Y-69860000D01*
X44256703Y-69921486D01*
X44256703Y-69921486D01*
G37*
G36*
X50606703Y-67381486D02*
X50897883Y-67502097D01*
X51159944Y-67677201D01*
X51382799Y-67900056D01*
X51557903Y-68162117D01*
X51678514Y-68453297D01*
X51740000Y-68762412D01*
X51740000Y-69077588D01*
X51678514Y-69386703D01*
X51557903Y-69677883D01*
X51382799Y-69939944D01*
X51159944Y-70162799D01*
X50897883Y-70337903D01*
X50606703Y-70458514D01*
X50297588Y-70520000D01*
X49982412Y-70520000D01*
X49673297Y-70458514D01*
X49382117Y-70337903D01*
X49120056Y-70162799D01*
X48897201Y-69939944D01*
X48722097Y-69677883D01*
X48601486Y-69386703D01*
X48540000Y-69077588D01*
X48540000Y-68762412D01*
X48601486Y-68453297D01*
X48722097Y-68162117D01*
X48897201Y-67900056D01*
X49120056Y-67677201D01*
X49382117Y-67502097D01*
X49673297Y-67381486D01*
X49982412Y-67320000D01*
X50297588Y-67320000D01*
X50606703Y-67381486D01*
X50606703Y-67381486D01*
G37*
G36*
X107756703Y-67381486D02*
X108047883Y-67502097D01*
X108309944Y-67677201D01*
X108532799Y-67900056D01*
X108707903Y-68162117D01*
X108828514Y-68453297D01*
X108890000Y-68762412D01*
X108890000Y-69077588D01*
X108828514Y-69386703D01*
X108707903Y-69677883D01*
X108532799Y-69939944D01*
X108309944Y-70162799D01*
X108047883Y-70337903D01*
X107756703Y-70458514D01*
X107447588Y-70520000D01*
X107132412Y-70520000D01*
X106823297Y-70458514D01*
X106532117Y-70337903D01*
X106270056Y-70162799D01*
X106047201Y-69939944D01*
X105872097Y-69677883D01*
X105751486Y-69386703D01*
X105690000Y-69077588D01*
X105690000Y-68762412D01*
X105751486Y-68453297D01*
X105872097Y-68162117D01*
X106047201Y-67900056D01*
X106270056Y-67677201D01*
X106532117Y-67502097D01*
X106823297Y-67381486D01*
X107132412Y-67320000D01*
X107447588Y-67320000D01*
X107756703Y-67381486D01*
X107756703Y-67381486D01*
G37*
G36*
X88706703Y-67381486D02*
X88997883Y-67502097D01*
X89259944Y-67677201D01*
X89482799Y-67900056D01*
X89657903Y-68162117D01*
X89778514Y-68453297D01*
X89840000Y-68762412D01*
X89840000Y-69077588D01*
X89778514Y-69386703D01*
X89657903Y-69677883D01*
X89482799Y-69939944D01*
X89259944Y-70162799D01*
X88997883Y-70337903D01*
X88706703Y-70458514D01*
X88397588Y-70520000D01*
X88082412Y-70520000D01*
X87773297Y-70458514D01*
X87482117Y-70337903D01*
X87220056Y-70162799D01*
X86997201Y-69939944D01*
X86822097Y-69677883D01*
X86701486Y-69386703D01*
X86640000Y-69077588D01*
X86640000Y-68762412D01*
X86701486Y-68453297D01*
X86822097Y-68162117D01*
X86997201Y-67900056D01*
X87220056Y-67677201D01*
X87482117Y-67502097D01*
X87773297Y-67381486D01*
X88082412Y-67320000D01*
X88397588Y-67320000D01*
X88706703Y-67381486D01*
X88706703Y-67381486D01*
G37*
G36*
X31556703Y-67381486D02*
X31847883Y-67502097D01*
X32109944Y-67677201D01*
X32332799Y-67900056D01*
X32507903Y-68162117D01*
X32628514Y-68453297D01*
X32690000Y-68762412D01*
X32690000Y-69077588D01*
X32628514Y-69386703D01*
X32507903Y-69677883D01*
X32332799Y-69939944D01*
X32109944Y-70162799D01*
X31847883Y-70337903D01*
X31556703Y-70458514D01*
X31247588Y-70520000D01*
X30932412Y-70520000D01*
X30623297Y-70458514D01*
X30332117Y-70337903D01*
X30070056Y-70162799D01*
X29847201Y-69939944D01*
X29672097Y-69677883D01*
X29551486Y-69386703D01*
X29490000Y-69077588D01*
X29490000Y-68762412D01*
X29551486Y-68453297D01*
X29672097Y-68162117D01*
X29847201Y-67900056D01*
X30070056Y-67677201D01*
X30332117Y-67502097D01*
X30623297Y-67381486D01*
X30932412Y-67320000D01*
X31247588Y-67320000D01*
X31556703Y-67381486D01*
X31556703Y-67381486D01*
G37*
G36*
X69656703Y-67381486D02*
X69947883Y-67502097D01*
X70209944Y-67677201D01*
X70432799Y-67900056D01*
X70607903Y-68162117D01*
X70728514Y-68453297D01*
X70790000Y-68762412D01*
X70790000Y-69077588D01*
X70728514Y-69386703D01*
X70607903Y-69677883D01*
X70432799Y-69939944D01*
X70209944Y-70162799D01*
X69947883Y-70337903D01*
X69656703Y-70458514D01*
X69347588Y-70520000D01*
X69032412Y-70520000D01*
X68723297Y-70458514D01*
X68432117Y-70337903D01*
X68170056Y-70162799D01*
X67947201Y-69939944D01*
X67772097Y-69677883D01*
X67651486Y-69386703D01*
X67590000Y-69077588D01*
X67590000Y-68762412D01*
X67651486Y-68453297D01*
X67772097Y-68162117D01*
X67947201Y-67900056D01*
X68170056Y-67677201D01*
X68432117Y-67502097D01*
X68723297Y-67381486D01*
X69032412Y-67320000D01*
X69347588Y-67320000D01*
X69656703Y-67381486D01*
X69656703Y-67381486D01*
G37*
G36*
X12506703Y-67381486D02*
X12797883Y-67502097D01*
X13059944Y-67677201D01*
X13282799Y-67900056D01*
X13457903Y-68162117D01*
X13578514Y-68453297D01*
X13640000Y-68762412D01*
X13640000Y-69077588D01*
X13578514Y-69386703D01*
X13457903Y-69677883D01*
X13282799Y-69939944D01*
X13059944Y-70162799D01*
X12797883Y-70337903D01*
X12506703Y-70458514D01*
X12197588Y-70520000D01*
X11882412Y-70520000D01*
X11573297Y-70458514D01*
X11282117Y-70337903D01*
X11020056Y-70162799D01*
X10797201Y-69939944D01*
X10622097Y-69677883D01*
X10501486Y-69386703D01*
X10440000Y-69077588D01*
X10440000Y-68762412D01*
X10501486Y-68453297D01*
X10622097Y-68162117D01*
X10797201Y-67900056D01*
X11020056Y-67677201D01*
X11282117Y-67502097D01*
X11573297Y-67381486D01*
X11882412Y-67320000D01*
X12197588Y-67320000D01*
X12506703Y-67381486D01*
X12506703Y-67381486D01*
G37*
G36*
X95704599Y-61479421D02*
X95904237Y-61519131D01*
X96468401Y-61752815D01*
X96976135Y-62092072D01*
X97407928Y-62523865D01*
X97747185Y-63031599D01*
X97980869Y-63595763D01*
X97980869Y-63595764D01*
X98086136Y-64124974D01*
X98100000Y-64194677D01*
X98100000Y-64805323D01*
X97980869Y-65404237D01*
X97747185Y-65968401D01*
X97407928Y-66476135D01*
X96976135Y-66907928D01*
X96468401Y-67247185D01*
X95904237Y-67480869D01*
X95797516Y-67502097D01*
X95305325Y-67600000D01*
X94694675Y-67600000D01*
X94202484Y-67502097D01*
X94095763Y-67480869D01*
X93531599Y-67247185D01*
X93023865Y-66907928D01*
X92592072Y-66476135D01*
X92252815Y-65968401D01*
X92019131Y-65404237D01*
X91900000Y-64805323D01*
X91900000Y-64194677D01*
X91913865Y-64124974D01*
X92019131Y-63595764D01*
X92019131Y-63595763D01*
X92252815Y-63031599D01*
X92592072Y-62523865D01*
X93023865Y-62092072D01*
X93531599Y-61752815D01*
X94095763Y-61519131D01*
X94295401Y-61479421D01*
X94694675Y-61400000D01*
X95305325Y-61400000D01*
X95704599Y-61479421D01*
X95704599Y-61479421D01*
G37*
G36*
X19704599Y-61479421D02*
X19904237Y-61519131D01*
X20468401Y-61752815D01*
X20976135Y-62092072D01*
X21407928Y-62523865D01*
X21747185Y-63031599D01*
X21980869Y-63595763D01*
X21980869Y-63595764D01*
X22086136Y-64124974D01*
X22100000Y-64194677D01*
X22100000Y-64805323D01*
X21980869Y-65404237D01*
X21747185Y-65968401D01*
X21407928Y-66476135D01*
X20976135Y-66907928D01*
X20468401Y-67247185D01*
X19904237Y-67480869D01*
X19797516Y-67502097D01*
X19305325Y-67600000D01*
X18694675Y-67600000D01*
X18202484Y-67502097D01*
X18095763Y-67480869D01*
X17531599Y-67247185D01*
X17023865Y-66907928D01*
X16592072Y-66476135D01*
X16252815Y-65968401D01*
X16019131Y-65404237D01*
X15900000Y-64805323D01*
X15900000Y-64194677D01*
X15913865Y-64124974D01*
X16019131Y-63595764D01*
X16019131Y-63595763D01*
X16252815Y-63031599D01*
X16592072Y-62523865D01*
X17023865Y-62092072D01*
X17531599Y-61752815D01*
X18095763Y-61519131D01*
X18295401Y-61479421D01*
X18694675Y-61400000D01*
X19305325Y-61400000D01*
X19704599Y-61479421D01*
X19704599Y-61479421D01*
G37*
G36*
X9850026Y-63321115D02*
X10068412Y-63411573D01*
X10264958Y-63542901D01*
X10432099Y-63710042D01*
X10563427Y-63906588D01*
X10653885Y-64124974D01*
X10700000Y-64356809D01*
X10700000Y-64593191D01*
X10653885Y-64825026D01*
X10563427Y-65043412D01*
X10432099Y-65239958D01*
X10264958Y-65407099D01*
X10068412Y-65538427D01*
X9850026Y-65628885D01*
X9618191Y-65675000D01*
X9381809Y-65675000D01*
X9149974Y-65628885D01*
X8931588Y-65538427D01*
X8735042Y-65407099D01*
X8567901Y-65239958D01*
X8436573Y-65043412D01*
X8346115Y-64825026D01*
X8300000Y-64593191D01*
X8300000Y-64356809D01*
X8346115Y-64124974D01*
X8436573Y-63906588D01*
X8567901Y-63710042D01*
X8735042Y-63542901D01*
X8931588Y-63411573D01*
X9149974Y-63321115D01*
X9381809Y-63275000D01*
X9618191Y-63275000D01*
X9850026Y-63321115D01*
X9850026Y-63321115D01*
G37*
G36*
X105100026Y-63321115D02*
X105318412Y-63411573D01*
X105514958Y-63542901D01*
X105682099Y-63710042D01*
X105813427Y-63906588D01*
X105903885Y-64124974D01*
X105950000Y-64356809D01*
X105950000Y-64593191D01*
X105903885Y-64825026D01*
X105813427Y-65043412D01*
X105682099Y-65239958D01*
X105514958Y-65407099D01*
X105318412Y-65538427D01*
X105100026Y-65628885D01*
X104868191Y-65675000D01*
X104631809Y-65675000D01*
X104399974Y-65628885D01*
X104181588Y-65538427D01*
X103985042Y-65407099D01*
X103817901Y-65239958D01*
X103686573Y-65043412D01*
X103596115Y-64825026D01*
X103550000Y-64593191D01*
X103550000Y-64356809D01*
X103596115Y-64124974D01*
X103686573Y-63906588D01*
X103817901Y-63710042D01*
X103985042Y-63542901D01*
X104181588Y-63411573D01*
X104399974Y-63321115D01*
X104631809Y-63275000D01*
X104868191Y-63275000D01*
X105100026Y-63321115D01*
X105100026Y-63321115D01*
G37*
G36*
X7426703Y-58491486D02*
X7717883Y-58612097D01*
X7979944Y-58787201D01*
X8202799Y-59010056D01*
X8377903Y-59272117D01*
X8498514Y-59563297D01*
X8560000Y-59872412D01*
X8560000Y-60187588D01*
X8498514Y-60496703D01*
X8377903Y-60787883D01*
X8202799Y-61049944D01*
X7979944Y-61272799D01*
X7717883Y-61447903D01*
X7426703Y-61568514D01*
X7117588Y-61630000D01*
X6802412Y-61630000D01*
X6493297Y-61568514D01*
X6202117Y-61447903D01*
X5940056Y-61272799D01*
X5717201Y-61049944D01*
X5542097Y-60787883D01*
X5421486Y-60496703D01*
X5360000Y-60187588D01*
X5360000Y-59872412D01*
X5421486Y-59563297D01*
X5542097Y-59272117D01*
X5717201Y-59010056D01*
X5940056Y-58787201D01*
X6202117Y-58612097D01*
X6493297Y-58491486D01*
X6802412Y-58430000D01*
X7117588Y-58430000D01*
X7426703Y-58491486D01*
X7426703Y-58491486D01*
G37*
G36*
X102676703Y-58491486D02*
X102967883Y-58612097D01*
X103229944Y-58787201D01*
X103452799Y-59010056D01*
X103627903Y-59272117D01*
X103748514Y-59563297D01*
X103810000Y-59872412D01*
X103810000Y-60187588D01*
X103748514Y-60496703D01*
X103627903Y-60787883D01*
X103452799Y-61049944D01*
X103229944Y-61272799D01*
X102967883Y-61447903D01*
X102676703Y-61568514D01*
X102367588Y-61630000D01*
X102052412Y-61630000D01*
X101743297Y-61568514D01*
X101452117Y-61447903D01*
X101190056Y-61272799D01*
X100967201Y-61049944D01*
X100792097Y-60787883D01*
X100671486Y-60496703D01*
X100610000Y-60187588D01*
X100610000Y-59872412D01*
X100671486Y-59563297D01*
X100792097Y-59272117D01*
X100967201Y-59010056D01*
X101190056Y-58787201D01*
X101452117Y-58612097D01*
X101743297Y-58491486D01*
X102052412Y-58430000D01*
X102367588Y-58430000D01*
X102676703Y-58491486D01*
X102676703Y-58491486D01*
G37*
G36*
X64576703Y-58491486D02*
X64867883Y-58612097D01*
X65129944Y-58787201D01*
X65352799Y-59010056D01*
X65527903Y-59272117D01*
X65648514Y-59563297D01*
X65710000Y-59872412D01*
X65710000Y-60187588D01*
X65648514Y-60496703D01*
X65527903Y-60787883D01*
X65352799Y-61049944D01*
X65129944Y-61272799D01*
X64867883Y-61447903D01*
X64576703Y-61568514D01*
X64267588Y-61630000D01*
X63952412Y-61630000D01*
X63643297Y-61568514D01*
X63352117Y-61447903D01*
X63090056Y-61272799D01*
X62867201Y-61049944D01*
X62692097Y-60787883D01*
X62571486Y-60496703D01*
X62510000Y-60187588D01*
X62510000Y-59872412D01*
X62571486Y-59563297D01*
X62692097Y-59272117D01*
X62867201Y-59010056D01*
X63090056Y-58787201D01*
X63352117Y-58612097D01*
X63643297Y-58491486D01*
X63952412Y-58430000D01*
X64267588Y-58430000D01*
X64576703Y-58491486D01*
X64576703Y-58491486D01*
G37*
G36*
X45526703Y-58491486D02*
X45817883Y-58612097D01*
X46079944Y-58787201D01*
X46302799Y-59010056D01*
X46477903Y-59272117D01*
X46598514Y-59563297D01*
X46660000Y-59872412D01*
X46660000Y-60187588D01*
X46598514Y-60496703D01*
X46477903Y-60787883D01*
X46302799Y-61049944D01*
X46079944Y-61272799D01*
X45817883Y-61447903D01*
X45526703Y-61568514D01*
X45217588Y-61630000D01*
X44902412Y-61630000D01*
X44593297Y-61568514D01*
X44302117Y-61447903D01*
X44040056Y-61272799D01*
X43817201Y-61049944D01*
X43642097Y-60787883D01*
X43521486Y-60496703D01*
X43460000Y-60187588D01*
X43460000Y-59872412D01*
X43521486Y-59563297D01*
X43642097Y-59272117D01*
X43817201Y-59010056D01*
X44040056Y-58787201D01*
X44302117Y-58612097D01*
X44593297Y-58491486D01*
X44902412Y-58430000D01*
X45217588Y-58430000D01*
X45526703Y-58491486D01*
X45526703Y-58491486D01*
G37*
G36*
X26476703Y-58491486D02*
X26767883Y-58612097D01*
X27029944Y-58787201D01*
X27252799Y-59010056D01*
X27427903Y-59272117D01*
X27548514Y-59563297D01*
X27610000Y-59872412D01*
X27610000Y-60187588D01*
X27548514Y-60496703D01*
X27427903Y-60787883D01*
X27252799Y-61049944D01*
X27029944Y-61272799D01*
X26767883Y-61447903D01*
X26476703Y-61568514D01*
X26167588Y-61630000D01*
X25852412Y-61630000D01*
X25543297Y-61568514D01*
X25252117Y-61447903D01*
X24990056Y-61272799D01*
X24767201Y-61049944D01*
X24592097Y-60787883D01*
X24471486Y-60496703D01*
X24410000Y-60187588D01*
X24410000Y-59872412D01*
X24471486Y-59563297D01*
X24592097Y-59272117D01*
X24767201Y-59010056D01*
X24990056Y-58787201D01*
X25252117Y-58612097D01*
X25543297Y-58491486D01*
X25852412Y-58430000D01*
X26167588Y-58430000D01*
X26476703Y-58491486D01*
X26476703Y-58491486D01*
G37*
G36*
X83626703Y-58491486D02*
X83917883Y-58612097D01*
X84179944Y-58787201D01*
X84402799Y-59010056D01*
X84577903Y-59272117D01*
X84698514Y-59563297D01*
X84760000Y-59872412D01*
X84760000Y-60187588D01*
X84698514Y-60496703D01*
X84577903Y-60787883D01*
X84402799Y-61049944D01*
X84179944Y-61272799D01*
X83917883Y-61447903D01*
X83626703Y-61568514D01*
X83317588Y-61630000D01*
X83002412Y-61630000D01*
X82693297Y-61568514D01*
X82402117Y-61447903D01*
X82140056Y-61272799D01*
X81917201Y-61049944D01*
X81742097Y-60787883D01*
X81621486Y-60496703D01*
X81560000Y-60187588D01*
X81560000Y-59872412D01*
X81621486Y-59563297D01*
X81742097Y-59272117D01*
X81917201Y-59010056D01*
X82140056Y-58787201D01*
X82402117Y-58612097D01*
X82693297Y-58491486D01*
X83002412Y-58430000D01*
X83317588Y-58430000D01*
X83626703Y-58491486D01*
X83626703Y-58491486D01*
G37*
G36*
X13776703Y-55951486D02*
X14067883Y-56072097D01*
X14329944Y-56247201D01*
X14552799Y-56470056D01*
X14727903Y-56732117D01*
X14848514Y-57023297D01*
X14910000Y-57332412D01*
X14910000Y-57647588D01*
X14848514Y-57956703D01*
X14727903Y-58247883D01*
X14552799Y-58509944D01*
X14329944Y-58732799D01*
X14067883Y-58907903D01*
X13776703Y-59028514D01*
X13467588Y-59090000D01*
X13152412Y-59090000D01*
X12843297Y-59028514D01*
X12552117Y-58907903D01*
X12290056Y-58732799D01*
X12067201Y-58509944D01*
X11892097Y-58247883D01*
X11771486Y-57956703D01*
X11710000Y-57647588D01*
X11710000Y-57332412D01*
X11771486Y-57023297D01*
X11892097Y-56732117D01*
X12067201Y-56470056D01*
X12290056Y-56247201D01*
X12552117Y-56072097D01*
X12843297Y-55951486D01*
X13152412Y-55890000D01*
X13467588Y-55890000D01*
X13776703Y-55951486D01*
X13776703Y-55951486D01*
G37*
G36*
X70926703Y-55951486D02*
X71217883Y-56072097D01*
X71479944Y-56247201D01*
X71702799Y-56470056D01*
X71877903Y-56732117D01*
X71998514Y-57023297D01*
X72060000Y-57332412D01*
X72060000Y-57647588D01*
X71998514Y-57956703D01*
X71877903Y-58247883D01*
X71702799Y-58509944D01*
X71479944Y-58732799D01*
X71217883Y-58907903D01*
X70926703Y-59028514D01*
X70617588Y-59090000D01*
X70302412Y-59090000D01*
X69993297Y-59028514D01*
X69702117Y-58907903D01*
X69440056Y-58732799D01*
X69217201Y-58509944D01*
X69042097Y-58247883D01*
X68921486Y-57956703D01*
X68860000Y-57647588D01*
X68860000Y-57332412D01*
X68921486Y-57023297D01*
X69042097Y-56732117D01*
X69217201Y-56470056D01*
X69440056Y-56247201D01*
X69702117Y-56072097D01*
X69993297Y-55951486D01*
X70302412Y-55890000D01*
X70617588Y-55890000D01*
X70926703Y-55951486D01*
X70926703Y-55951486D01*
G37*
G36*
X51876703Y-55951486D02*
X52167883Y-56072097D01*
X52429944Y-56247201D01*
X52652799Y-56470056D01*
X52827903Y-56732117D01*
X52948514Y-57023297D01*
X53010000Y-57332412D01*
X53010000Y-57647588D01*
X52948514Y-57956703D01*
X52827903Y-58247883D01*
X52652799Y-58509944D01*
X52429944Y-58732799D01*
X52167883Y-58907903D01*
X51876703Y-59028514D01*
X51567588Y-59090000D01*
X51252412Y-59090000D01*
X50943297Y-59028514D01*
X50652117Y-58907903D01*
X50390056Y-58732799D01*
X50167201Y-58509944D01*
X49992097Y-58247883D01*
X49871486Y-57956703D01*
X49810000Y-57647588D01*
X49810000Y-57332412D01*
X49871486Y-57023297D01*
X49992097Y-56732117D01*
X50167201Y-56470056D01*
X50390056Y-56247201D01*
X50652117Y-56072097D01*
X50943297Y-55951486D01*
X51252412Y-55890000D01*
X51567588Y-55890000D01*
X51876703Y-55951486D01*
X51876703Y-55951486D01*
G37*
G36*
X32826703Y-55951486D02*
X33117883Y-56072097D01*
X33379944Y-56247201D01*
X33602799Y-56470056D01*
X33777903Y-56732117D01*
X33898514Y-57023297D01*
X33960000Y-57332412D01*
X33960000Y-57647588D01*
X33898514Y-57956703D01*
X33777903Y-58247883D01*
X33602799Y-58509944D01*
X33379944Y-58732799D01*
X33117883Y-58907903D01*
X32826703Y-59028514D01*
X32517588Y-59090000D01*
X32202412Y-59090000D01*
X31893297Y-59028514D01*
X31602117Y-58907903D01*
X31340056Y-58732799D01*
X31117201Y-58509944D01*
X30942097Y-58247883D01*
X30821486Y-57956703D01*
X30760000Y-57647588D01*
X30760000Y-57332412D01*
X30821486Y-57023297D01*
X30942097Y-56732117D01*
X31117201Y-56470056D01*
X31340056Y-56247201D01*
X31602117Y-56072097D01*
X31893297Y-55951486D01*
X32202412Y-55890000D01*
X32517588Y-55890000D01*
X32826703Y-55951486D01*
X32826703Y-55951486D01*
G37*
G36*
X109026703Y-55951486D02*
X109317883Y-56072097D01*
X109579944Y-56247201D01*
X109802799Y-56470056D01*
X109977903Y-56732117D01*
X110098514Y-57023297D01*
X110160000Y-57332412D01*
X110160000Y-57647588D01*
X110098514Y-57956703D01*
X109977903Y-58247883D01*
X109802799Y-58509944D01*
X109579944Y-58732799D01*
X109317883Y-58907903D01*
X109026703Y-59028514D01*
X108717588Y-59090000D01*
X108402412Y-59090000D01*
X108093297Y-59028514D01*
X107802117Y-58907903D01*
X107540056Y-58732799D01*
X107317201Y-58509944D01*
X107142097Y-58247883D01*
X107021486Y-57956703D01*
X106960000Y-57647588D01*
X106960000Y-57332412D01*
X107021486Y-57023297D01*
X107142097Y-56732117D01*
X107317201Y-56470056D01*
X107540056Y-56247201D01*
X107802117Y-56072097D01*
X108093297Y-55951486D01*
X108402412Y-55890000D01*
X108717588Y-55890000D01*
X109026703Y-55951486D01*
X109026703Y-55951486D01*
G37*
G36*
X89976703Y-55951486D02*
X90267883Y-56072097D01*
X90529944Y-56247201D01*
X90752799Y-56470056D01*
X90927903Y-56732117D01*
X91048514Y-57023297D01*
X91110000Y-57332412D01*
X91110000Y-57647588D01*
X91048514Y-57956703D01*
X90927903Y-58247883D01*
X90752799Y-58509944D01*
X90529944Y-58732799D01*
X90267883Y-58907903D01*
X89976703Y-59028514D01*
X89667588Y-59090000D01*
X89352412Y-59090000D01*
X89043297Y-59028514D01*
X88752117Y-58907903D01*
X88490056Y-58732799D01*
X88267201Y-58509944D01*
X88092097Y-58247883D01*
X87971486Y-57956703D01*
X87910000Y-57647588D01*
X87910000Y-57332412D01*
X87971486Y-57023297D01*
X88092097Y-56732117D01*
X88267201Y-56470056D01*
X88490056Y-56247201D01*
X88752117Y-56072097D01*
X89043297Y-55951486D01*
X89352412Y-55890000D01*
X89667588Y-55890000D01*
X89976703Y-55951486D01*
X89976703Y-55951486D01*
G37*
G36*
X105362547Y-52930701D02*
X105744722Y-53089003D01*
X105744723Y-53089004D01*
X106088672Y-53318823D01*
X106381177Y-53611328D01*
X106534390Y-53840627D01*
X106610997Y-53955278D01*
X106769299Y-54337453D01*
X106850000Y-54743167D01*
X106850000Y-55156833D01*
X106769299Y-55562547D01*
X106610997Y-55944722D01*
X106534390Y-56059373D01*
X106381177Y-56288672D01*
X106088672Y-56581177D01*
X105862775Y-56732116D01*
X105744722Y-56810997D01*
X105362547Y-56969299D01*
X104956833Y-57050000D01*
X104543167Y-57050000D01*
X104137453Y-56969299D01*
X103755278Y-56810997D01*
X103637225Y-56732116D01*
X103411328Y-56581177D01*
X103118823Y-56288672D01*
X102965610Y-56059373D01*
X102889003Y-55944722D01*
X102730701Y-55562547D01*
X102650000Y-55156833D01*
X102650000Y-54743167D01*
X102730701Y-54337453D01*
X102889003Y-53955278D01*
X102965610Y-53840627D01*
X103118823Y-53611328D01*
X103411328Y-53318823D01*
X103755277Y-53089004D01*
X103755278Y-53089003D01*
X104137453Y-52930701D01*
X104543167Y-52850000D01*
X104956833Y-52850000D01*
X105362547Y-52930701D01*
X105362547Y-52930701D01*
G37*
G36*
X86312547Y-52930701D02*
X86694722Y-53089003D01*
X86694723Y-53089004D01*
X87038672Y-53318823D01*
X87331177Y-53611328D01*
X87484390Y-53840627D01*
X87560997Y-53955278D01*
X87719299Y-54337453D01*
X87800000Y-54743167D01*
X87800000Y-55156833D01*
X87719299Y-55562547D01*
X87560997Y-55944722D01*
X87484390Y-56059373D01*
X87331177Y-56288672D01*
X87038672Y-56581177D01*
X86812775Y-56732116D01*
X86694722Y-56810997D01*
X86312547Y-56969299D01*
X85906833Y-57050000D01*
X85493167Y-57050000D01*
X85087453Y-56969299D01*
X84705278Y-56810997D01*
X84587225Y-56732116D01*
X84361328Y-56581177D01*
X84068823Y-56288672D01*
X83915610Y-56059373D01*
X83839003Y-55944722D01*
X83680701Y-55562547D01*
X83600000Y-55156833D01*
X83600000Y-54743167D01*
X83680701Y-54337453D01*
X83839003Y-53955278D01*
X83915610Y-53840627D01*
X84068823Y-53611328D01*
X84361328Y-53318823D01*
X84705277Y-53089004D01*
X84705278Y-53089003D01*
X85087453Y-52930701D01*
X85493167Y-52850000D01*
X85906833Y-52850000D01*
X86312547Y-52930701D01*
X86312547Y-52930701D01*
G37*
G36*
X29162547Y-52930701D02*
X29544722Y-53089003D01*
X29544723Y-53089004D01*
X29888672Y-53318823D01*
X30181177Y-53611328D01*
X30334390Y-53840627D01*
X30410997Y-53955278D01*
X30569299Y-54337453D01*
X30650000Y-54743167D01*
X30650000Y-55156833D01*
X30569299Y-55562547D01*
X30410997Y-55944722D01*
X30334390Y-56059373D01*
X30181177Y-56288672D01*
X29888672Y-56581177D01*
X29662775Y-56732116D01*
X29544722Y-56810997D01*
X29162547Y-56969299D01*
X28756833Y-57050000D01*
X28343167Y-57050000D01*
X27937453Y-56969299D01*
X27555278Y-56810997D01*
X27437225Y-56732116D01*
X27211328Y-56581177D01*
X26918823Y-56288672D01*
X26765610Y-56059373D01*
X26689003Y-55944722D01*
X26530701Y-55562547D01*
X26450000Y-55156833D01*
X26450000Y-54743167D01*
X26530701Y-54337453D01*
X26689003Y-53955278D01*
X26765610Y-53840627D01*
X26918823Y-53611328D01*
X27211328Y-53318823D01*
X27555277Y-53089004D01*
X27555278Y-53089003D01*
X27937453Y-52930701D01*
X28343167Y-52850000D01*
X28756833Y-52850000D01*
X29162547Y-52930701D01*
X29162547Y-52930701D01*
G37*
G36*
X48212547Y-52930701D02*
X48594722Y-53089003D01*
X48594723Y-53089004D01*
X48938672Y-53318823D01*
X49231177Y-53611328D01*
X49384390Y-53840627D01*
X49460997Y-53955278D01*
X49619299Y-54337453D01*
X49700000Y-54743167D01*
X49700000Y-55156833D01*
X49619299Y-55562547D01*
X49460997Y-55944722D01*
X49384390Y-56059373D01*
X49231177Y-56288672D01*
X48938672Y-56581177D01*
X48712775Y-56732116D01*
X48594722Y-56810997D01*
X48212547Y-56969299D01*
X47806833Y-57050000D01*
X47393167Y-57050000D01*
X46987453Y-56969299D01*
X46605278Y-56810997D01*
X46487225Y-56732116D01*
X46261328Y-56581177D01*
X45968823Y-56288672D01*
X45815610Y-56059373D01*
X45739003Y-55944722D01*
X45580701Y-55562547D01*
X45500000Y-55156833D01*
X45500000Y-54743167D01*
X45580701Y-54337453D01*
X45739003Y-53955278D01*
X45815610Y-53840627D01*
X45968823Y-53611328D01*
X46261328Y-53318823D01*
X46605277Y-53089004D01*
X46605278Y-53089003D01*
X46987453Y-52930701D01*
X47393167Y-52850000D01*
X47806833Y-52850000D01*
X48212547Y-52930701D01*
X48212547Y-52930701D01*
G37*
G36*
X67262547Y-52930701D02*
X67644722Y-53089003D01*
X67644723Y-53089004D01*
X67988672Y-53318823D01*
X68281177Y-53611328D01*
X68434390Y-53840627D01*
X68510997Y-53955278D01*
X68669299Y-54337453D01*
X68750000Y-54743167D01*
X68750000Y-55156833D01*
X68669299Y-55562547D01*
X68510997Y-55944722D01*
X68434390Y-56059373D01*
X68281177Y-56288672D01*
X67988672Y-56581177D01*
X67762775Y-56732116D01*
X67644722Y-56810997D01*
X67262547Y-56969299D01*
X66856833Y-57050000D01*
X66443167Y-57050000D01*
X66037453Y-56969299D01*
X65655278Y-56810997D01*
X65537225Y-56732116D01*
X65311328Y-56581177D01*
X65018823Y-56288672D01*
X64865610Y-56059373D01*
X64789003Y-55944722D01*
X64630701Y-55562547D01*
X64550000Y-55156833D01*
X64550000Y-54743167D01*
X64630701Y-54337453D01*
X64789003Y-53955278D01*
X64865610Y-53840627D01*
X65018823Y-53611328D01*
X65311328Y-53318823D01*
X65655277Y-53089004D01*
X65655278Y-53089003D01*
X66037453Y-52930701D01*
X66443167Y-52850000D01*
X66856833Y-52850000D01*
X67262547Y-52930701D01*
X67262547Y-52930701D01*
G37*
G36*
X10112547Y-52930701D02*
X10494722Y-53089003D01*
X10494723Y-53089004D01*
X10838672Y-53318823D01*
X11131177Y-53611328D01*
X11284390Y-53840627D01*
X11360997Y-53955278D01*
X11519299Y-54337453D01*
X11600000Y-54743167D01*
X11600000Y-55156833D01*
X11519299Y-55562547D01*
X11360997Y-55944722D01*
X11284390Y-56059373D01*
X11131177Y-56288672D01*
X10838672Y-56581177D01*
X10612775Y-56732116D01*
X10494722Y-56810997D01*
X10112547Y-56969299D01*
X9706833Y-57050000D01*
X9293167Y-57050000D01*
X8887453Y-56969299D01*
X8505278Y-56810997D01*
X8387225Y-56732116D01*
X8161328Y-56581177D01*
X7868823Y-56288672D01*
X7715610Y-56059373D01*
X7639003Y-55944722D01*
X7480701Y-55562547D01*
X7400000Y-55156833D01*
X7400000Y-54743167D01*
X7480701Y-54337453D01*
X7639003Y-53955278D01*
X7715610Y-53840627D01*
X7868823Y-53611328D01*
X8161328Y-53318823D01*
X8505277Y-53089004D01*
X8505278Y-53089003D01*
X8887453Y-52930701D01*
X9293167Y-52850000D01*
X9706833Y-52850000D01*
X10112547Y-52930701D01*
X10112547Y-52930701D01*
G37*
G36*
X23609452Y-54009127D02*
X23747105Y-54036508D01*
X23919994Y-54108121D01*
X24075590Y-54212087D01*
X24207913Y-54344410D01*
X24311879Y-54500006D01*
X24383492Y-54672895D01*
X24420000Y-54856433D01*
X24420000Y-55043567D01*
X24383492Y-55227105D01*
X24311879Y-55399994D01*
X24207913Y-55555590D01*
X24075590Y-55687913D01*
X23919994Y-55791879D01*
X23747105Y-55863492D01*
X23613840Y-55890000D01*
X23563568Y-55900000D01*
X23376432Y-55900000D01*
X23326160Y-55890000D01*
X23192895Y-55863492D01*
X23020006Y-55791879D01*
X22864410Y-55687913D01*
X22732087Y-55555590D01*
X22628121Y-55399994D01*
X22556508Y-55227105D01*
X22520000Y-55043567D01*
X22520000Y-54856433D01*
X22556508Y-54672895D01*
X22628121Y-54500006D01*
X22732087Y-54344410D01*
X22864410Y-54212087D01*
X23020006Y-54108121D01*
X23192895Y-54036508D01*
X23330548Y-54009127D01*
X23376432Y-54000000D01*
X23563568Y-54000000D01*
X23609452Y-54009127D01*
X23609452Y-54009127D01*
G37*
G36*
X109969452Y-54009127D02*
X110107105Y-54036508D01*
X110279994Y-54108121D01*
X110435590Y-54212087D01*
X110567913Y-54344410D01*
X110671879Y-54500006D01*
X110743492Y-54672895D01*
X110780000Y-54856433D01*
X110780000Y-55043567D01*
X110743492Y-55227105D01*
X110671879Y-55399994D01*
X110567913Y-55555590D01*
X110435590Y-55687913D01*
X110279994Y-55791879D01*
X110107105Y-55863492D01*
X109973840Y-55890000D01*
X109923568Y-55900000D01*
X109736432Y-55900000D01*
X109686160Y-55890000D01*
X109552895Y-55863492D01*
X109380006Y-55791879D01*
X109224410Y-55687913D01*
X109092087Y-55555590D01*
X108988121Y-55399994D01*
X108916508Y-55227105D01*
X108880000Y-55043567D01*
X108880000Y-54856433D01*
X108916508Y-54672895D01*
X108988121Y-54500006D01*
X109092087Y-54344410D01*
X109224410Y-54212087D01*
X109380006Y-54108121D01*
X109552895Y-54036508D01*
X109690548Y-54009127D01*
X109736432Y-54000000D01*
X109923568Y-54000000D01*
X109969452Y-54009127D01*
X109969452Y-54009127D01*
G37*
G36*
X99809452Y-54009127D02*
X99947105Y-54036508D01*
X100119994Y-54108121D01*
X100275590Y-54212087D01*
X100407913Y-54344410D01*
X100511879Y-54500006D01*
X100583492Y-54672895D01*
X100620000Y-54856433D01*
X100620000Y-55043567D01*
X100583492Y-55227105D01*
X100511879Y-55399994D01*
X100407913Y-55555590D01*
X100275590Y-55687913D01*
X100119994Y-55791879D01*
X99947105Y-55863492D01*
X99813840Y-55890000D01*
X99763568Y-55900000D01*
X99576432Y-55900000D01*
X99526160Y-55890000D01*
X99392895Y-55863492D01*
X99220006Y-55791879D01*
X99064410Y-55687913D01*
X98932087Y-55555590D01*
X98828121Y-55399994D01*
X98756508Y-55227105D01*
X98720000Y-55043567D01*
X98720000Y-54856433D01*
X98756508Y-54672895D01*
X98828121Y-54500006D01*
X98932087Y-54344410D01*
X99064410Y-54212087D01*
X99220006Y-54108121D01*
X99392895Y-54036508D01*
X99530548Y-54009127D01*
X99576432Y-54000000D01*
X99763568Y-54000000D01*
X99809452Y-54009127D01*
X99809452Y-54009127D01*
G37*
G36*
X80759452Y-54009127D02*
X80897105Y-54036508D01*
X81069994Y-54108121D01*
X81225590Y-54212087D01*
X81357913Y-54344410D01*
X81461879Y-54500006D01*
X81533492Y-54672895D01*
X81570000Y-54856433D01*
X81570000Y-55043567D01*
X81533492Y-55227105D01*
X81461879Y-55399994D01*
X81357913Y-55555590D01*
X81225590Y-55687913D01*
X81069994Y-55791879D01*
X80897105Y-55863492D01*
X80763840Y-55890000D01*
X80713568Y-55900000D01*
X80526432Y-55900000D01*
X80476160Y-55890000D01*
X80342895Y-55863492D01*
X80170006Y-55791879D01*
X80014410Y-55687913D01*
X79882087Y-55555590D01*
X79778121Y-55399994D01*
X79706508Y-55227105D01*
X79670000Y-55043567D01*
X79670000Y-54856433D01*
X79706508Y-54672895D01*
X79778121Y-54500006D01*
X79882087Y-54344410D01*
X80014410Y-54212087D01*
X80170006Y-54108121D01*
X80342895Y-54036508D01*
X80480548Y-54009127D01*
X80526432Y-54000000D01*
X80713568Y-54000000D01*
X80759452Y-54009127D01*
X80759452Y-54009127D01*
G37*
G36*
X90919452Y-54009127D02*
X91057105Y-54036508D01*
X91229994Y-54108121D01*
X91385590Y-54212087D01*
X91517913Y-54344410D01*
X91621879Y-54500006D01*
X91693492Y-54672895D01*
X91730000Y-54856433D01*
X91730000Y-55043567D01*
X91693492Y-55227105D01*
X91621879Y-55399994D01*
X91517913Y-55555590D01*
X91385590Y-55687913D01*
X91229994Y-55791879D01*
X91057105Y-55863492D01*
X90923840Y-55890000D01*
X90873568Y-55900000D01*
X90686432Y-55900000D01*
X90636160Y-55890000D01*
X90502895Y-55863492D01*
X90330006Y-55791879D01*
X90174410Y-55687913D01*
X90042087Y-55555590D01*
X89938121Y-55399994D01*
X89866508Y-55227105D01*
X89830000Y-55043567D01*
X89830000Y-54856433D01*
X89866508Y-54672895D01*
X89938121Y-54500006D01*
X90042087Y-54344410D01*
X90174410Y-54212087D01*
X90330006Y-54108121D01*
X90502895Y-54036508D01*
X90640548Y-54009127D01*
X90686432Y-54000000D01*
X90873568Y-54000000D01*
X90919452Y-54009127D01*
X90919452Y-54009127D01*
G37*
G36*
X52819452Y-54009127D02*
X52957105Y-54036508D01*
X53129994Y-54108121D01*
X53285590Y-54212087D01*
X53417913Y-54344410D01*
X53521879Y-54500006D01*
X53593492Y-54672895D01*
X53630000Y-54856433D01*
X53630000Y-55043567D01*
X53593492Y-55227105D01*
X53521879Y-55399994D01*
X53417913Y-55555590D01*
X53285590Y-55687913D01*
X53129994Y-55791879D01*
X52957105Y-55863492D01*
X52823840Y-55890000D01*
X52773568Y-55900000D01*
X52586432Y-55900000D01*
X52536160Y-55890000D01*
X52402895Y-55863492D01*
X52230006Y-55791879D01*
X52074410Y-55687913D01*
X51942087Y-55555590D01*
X51838121Y-55399994D01*
X51766508Y-55227105D01*
X51730000Y-55043567D01*
X51730000Y-54856433D01*
X51766508Y-54672895D01*
X51838121Y-54500006D01*
X51942087Y-54344410D01*
X52074410Y-54212087D01*
X52230006Y-54108121D01*
X52402895Y-54036508D01*
X52540548Y-54009127D01*
X52586432Y-54000000D01*
X52773568Y-54000000D01*
X52819452Y-54009127D01*
X52819452Y-54009127D01*
G37*
G36*
X61709452Y-54009127D02*
X61847105Y-54036508D01*
X62019994Y-54108121D01*
X62175590Y-54212087D01*
X62307913Y-54344410D01*
X62411879Y-54500006D01*
X62483492Y-54672895D01*
X62520000Y-54856433D01*
X62520000Y-55043567D01*
X62483492Y-55227105D01*
X62411879Y-55399994D01*
X62307913Y-55555590D01*
X62175590Y-55687913D01*
X62019994Y-55791879D01*
X61847105Y-55863492D01*
X61713840Y-55890000D01*
X61663568Y-55900000D01*
X61476432Y-55900000D01*
X61426160Y-55890000D01*
X61292895Y-55863492D01*
X61120006Y-55791879D01*
X60964410Y-55687913D01*
X60832087Y-55555590D01*
X60728121Y-55399994D01*
X60656508Y-55227105D01*
X60620000Y-55043567D01*
X60620000Y-54856433D01*
X60656508Y-54672895D01*
X60728121Y-54500006D01*
X60832087Y-54344410D01*
X60964410Y-54212087D01*
X61120006Y-54108121D01*
X61292895Y-54036508D01*
X61430548Y-54009127D01*
X61476432Y-54000000D01*
X61663568Y-54000000D01*
X61709452Y-54009127D01*
X61709452Y-54009127D01*
G37*
G36*
X71869452Y-54009127D02*
X72007105Y-54036508D01*
X72179994Y-54108121D01*
X72335590Y-54212087D01*
X72467913Y-54344410D01*
X72571879Y-54500006D01*
X72643492Y-54672895D01*
X72680000Y-54856433D01*
X72680000Y-55043567D01*
X72643492Y-55227105D01*
X72571879Y-55399994D01*
X72467913Y-55555590D01*
X72335590Y-55687913D01*
X72179994Y-55791879D01*
X72007105Y-55863492D01*
X71873840Y-55890000D01*
X71823568Y-55900000D01*
X71636432Y-55900000D01*
X71586160Y-55890000D01*
X71452895Y-55863492D01*
X71280006Y-55791879D01*
X71124410Y-55687913D01*
X70992087Y-55555590D01*
X70888121Y-55399994D01*
X70816508Y-55227105D01*
X70780000Y-55043567D01*
X70780000Y-54856433D01*
X70816508Y-54672895D01*
X70888121Y-54500006D01*
X70992087Y-54344410D01*
X71124410Y-54212087D01*
X71280006Y-54108121D01*
X71452895Y-54036508D01*
X71590548Y-54009127D01*
X71636432Y-54000000D01*
X71823568Y-54000000D01*
X71869452Y-54009127D01*
X71869452Y-54009127D01*
G37*
G36*
X14719452Y-54009127D02*
X14857105Y-54036508D01*
X15029994Y-54108121D01*
X15185590Y-54212087D01*
X15317913Y-54344410D01*
X15421879Y-54500006D01*
X15493492Y-54672895D01*
X15530000Y-54856433D01*
X15530000Y-55043567D01*
X15493492Y-55227105D01*
X15421879Y-55399994D01*
X15317913Y-55555590D01*
X15185590Y-55687913D01*
X15029994Y-55791879D01*
X14857105Y-55863492D01*
X14723840Y-55890000D01*
X14673568Y-55900000D01*
X14486432Y-55900000D01*
X14436160Y-55890000D01*
X14302895Y-55863492D01*
X14130006Y-55791879D01*
X13974410Y-55687913D01*
X13842087Y-55555590D01*
X13738121Y-55399994D01*
X13666508Y-55227105D01*
X13630000Y-55043567D01*
X13630000Y-54856433D01*
X13666508Y-54672895D01*
X13738121Y-54500006D01*
X13842087Y-54344410D01*
X13974410Y-54212087D01*
X14130006Y-54108121D01*
X14302895Y-54036508D01*
X14440548Y-54009127D01*
X14486432Y-54000000D01*
X14673568Y-54000000D01*
X14719452Y-54009127D01*
X14719452Y-54009127D01*
G37*
G36*
X33769452Y-54009127D02*
X33907105Y-54036508D01*
X34079994Y-54108121D01*
X34235590Y-54212087D01*
X34367913Y-54344410D01*
X34471879Y-54500006D01*
X34543492Y-54672895D01*
X34580000Y-54856433D01*
X34580000Y-55043567D01*
X34543492Y-55227105D01*
X34471879Y-55399994D01*
X34367913Y-55555590D01*
X34235590Y-55687913D01*
X34079994Y-55791879D01*
X33907105Y-55863492D01*
X33773840Y-55890000D01*
X33723568Y-55900000D01*
X33536432Y-55900000D01*
X33486160Y-55890000D01*
X33352895Y-55863492D01*
X33180006Y-55791879D01*
X33024410Y-55687913D01*
X32892087Y-55555590D01*
X32788121Y-55399994D01*
X32716508Y-55227105D01*
X32680000Y-55043567D01*
X32680000Y-54856433D01*
X32716508Y-54672895D01*
X32788121Y-54500006D01*
X32892087Y-54344410D01*
X33024410Y-54212087D01*
X33180006Y-54108121D01*
X33352895Y-54036508D01*
X33490548Y-54009127D01*
X33536432Y-54000000D01*
X33723568Y-54000000D01*
X33769452Y-54009127D01*
X33769452Y-54009127D01*
G37*
G36*
X4559452Y-54009127D02*
X4697105Y-54036508D01*
X4869994Y-54108121D01*
X5025590Y-54212087D01*
X5157913Y-54344410D01*
X5261879Y-54500006D01*
X5333492Y-54672895D01*
X5370000Y-54856433D01*
X5370000Y-55043567D01*
X5333492Y-55227105D01*
X5261879Y-55399994D01*
X5157913Y-55555590D01*
X5025590Y-55687913D01*
X4869994Y-55791879D01*
X4697105Y-55863492D01*
X4563840Y-55890000D01*
X4513568Y-55900000D01*
X4326432Y-55900000D01*
X4276160Y-55890000D01*
X4142895Y-55863492D01*
X3970006Y-55791879D01*
X3814410Y-55687913D01*
X3682087Y-55555590D01*
X3578121Y-55399994D01*
X3506508Y-55227105D01*
X3470000Y-55043567D01*
X3470000Y-54856433D01*
X3506508Y-54672895D01*
X3578121Y-54500006D01*
X3682087Y-54344410D01*
X3814410Y-54212087D01*
X3970006Y-54108121D01*
X4142895Y-54036508D01*
X4280548Y-54009127D01*
X4326432Y-54000000D01*
X4513568Y-54000000D01*
X4559452Y-54009127D01*
X4559452Y-54009127D01*
G37*
G36*
X42659452Y-54009127D02*
X42797105Y-54036508D01*
X42969994Y-54108121D01*
X43125590Y-54212087D01*
X43257913Y-54344410D01*
X43361879Y-54500006D01*
X43433492Y-54672895D01*
X43470000Y-54856433D01*
X43470000Y-55043567D01*
X43433492Y-55227105D01*
X43361879Y-55399994D01*
X43257913Y-55555590D01*
X43125590Y-55687913D01*
X42969994Y-55791879D01*
X42797105Y-55863492D01*
X42663840Y-55890000D01*
X42613568Y-55900000D01*
X42426432Y-55900000D01*
X42376160Y-55890000D01*
X42242895Y-55863492D01*
X42070006Y-55791879D01*
X41914410Y-55687913D01*
X41782087Y-55555590D01*
X41678121Y-55399994D01*
X41606508Y-55227105D01*
X41570000Y-55043567D01*
X41570000Y-54856433D01*
X41606508Y-54672895D01*
X41678121Y-54500006D01*
X41782087Y-54344410D01*
X41914410Y-54212087D01*
X42070006Y-54108121D01*
X42242895Y-54036508D01*
X42380548Y-54009127D01*
X42426432Y-54000000D01*
X42613568Y-54000000D01*
X42659452Y-54009127D01*
X42659452Y-54009127D01*
G37*
G36*
X102676703Y-39441486D02*
X102967883Y-39562097D01*
X103229944Y-39737201D01*
X103452799Y-39960056D01*
X103627903Y-40222117D01*
X103748514Y-40513297D01*
X103810000Y-40822412D01*
X103810000Y-41137588D01*
X103748514Y-41446703D01*
X103627903Y-41737883D01*
X103452799Y-41999944D01*
X103229944Y-42222799D01*
X102967883Y-42397903D01*
X102676703Y-42518514D01*
X102367588Y-42580000D01*
X102052412Y-42580000D01*
X101743297Y-42518514D01*
X101452117Y-42397903D01*
X101190056Y-42222799D01*
X100967201Y-41999944D01*
X100792097Y-41737883D01*
X100671486Y-41446703D01*
X100610000Y-41137588D01*
X100610000Y-40822412D01*
X100671486Y-40513297D01*
X100792097Y-40222117D01*
X100967201Y-39960056D01*
X101190056Y-39737201D01*
X101452117Y-39562097D01*
X101743297Y-39441486D01*
X102052412Y-39380000D01*
X102367588Y-39380000D01*
X102676703Y-39441486D01*
X102676703Y-39441486D01*
G37*
G36*
X7426703Y-39441486D02*
X7717883Y-39562097D01*
X7979944Y-39737201D01*
X8202799Y-39960056D01*
X8377903Y-40222117D01*
X8498514Y-40513297D01*
X8560000Y-40822412D01*
X8560000Y-41137588D01*
X8498514Y-41446703D01*
X8377903Y-41737883D01*
X8202799Y-41999944D01*
X7979944Y-42222799D01*
X7717883Y-42397903D01*
X7426703Y-42518514D01*
X7117588Y-42580000D01*
X6802412Y-42580000D01*
X6493297Y-42518514D01*
X6202117Y-42397903D01*
X5940056Y-42222799D01*
X5717201Y-41999944D01*
X5542097Y-41737883D01*
X5421486Y-41446703D01*
X5360000Y-41137588D01*
X5360000Y-40822412D01*
X5421486Y-40513297D01*
X5542097Y-40222117D01*
X5717201Y-39960056D01*
X5940056Y-39737201D01*
X6202117Y-39562097D01*
X6493297Y-39441486D01*
X6802412Y-39380000D01*
X7117588Y-39380000D01*
X7426703Y-39441486D01*
X7426703Y-39441486D01*
G37*
G36*
X83626703Y-39441486D02*
X83917883Y-39562097D01*
X84179944Y-39737201D01*
X84402799Y-39960056D01*
X84577903Y-40222117D01*
X84698514Y-40513297D01*
X84760000Y-40822412D01*
X84760000Y-41137588D01*
X84698514Y-41446703D01*
X84577903Y-41737883D01*
X84402799Y-41999944D01*
X84179944Y-42222799D01*
X83917883Y-42397903D01*
X83626703Y-42518514D01*
X83317588Y-42580000D01*
X83002412Y-42580000D01*
X82693297Y-42518514D01*
X82402117Y-42397903D01*
X82140056Y-42222799D01*
X81917201Y-41999944D01*
X81742097Y-41737883D01*
X81621486Y-41446703D01*
X81560000Y-41137588D01*
X81560000Y-40822412D01*
X81621486Y-40513297D01*
X81742097Y-40222117D01*
X81917201Y-39960056D01*
X82140056Y-39737201D01*
X82402117Y-39562097D01*
X82693297Y-39441486D01*
X83002412Y-39380000D01*
X83317588Y-39380000D01*
X83626703Y-39441486D01*
X83626703Y-39441486D01*
G37*
G36*
X45526703Y-39441486D02*
X45817883Y-39562097D01*
X46079944Y-39737201D01*
X46302799Y-39960056D01*
X46477903Y-40222117D01*
X46598514Y-40513297D01*
X46660000Y-40822412D01*
X46660000Y-41137588D01*
X46598514Y-41446703D01*
X46477903Y-41737883D01*
X46302799Y-41999944D01*
X46079944Y-42222799D01*
X45817883Y-42397903D01*
X45526703Y-42518514D01*
X45217588Y-42580000D01*
X44902412Y-42580000D01*
X44593297Y-42518514D01*
X44302117Y-42397903D01*
X44040056Y-42222799D01*
X43817201Y-41999944D01*
X43642097Y-41737883D01*
X43521486Y-41446703D01*
X43460000Y-41137588D01*
X43460000Y-40822412D01*
X43521486Y-40513297D01*
X43642097Y-40222117D01*
X43817201Y-39960056D01*
X44040056Y-39737201D01*
X44302117Y-39562097D01*
X44593297Y-39441486D01*
X44902412Y-39380000D01*
X45217588Y-39380000D01*
X45526703Y-39441486D01*
X45526703Y-39441486D01*
G37*
G36*
X26476703Y-39441486D02*
X26767883Y-39562097D01*
X27029944Y-39737201D01*
X27252799Y-39960056D01*
X27427903Y-40222117D01*
X27548514Y-40513297D01*
X27610000Y-40822412D01*
X27610000Y-41137588D01*
X27548514Y-41446703D01*
X27427903Y-41737883D01*
X27252799Y-41999944D01*
X27029944Y-42222799D01*
X26767883Y-42397903D01*
X26476703Y-42518514D01*
X26167588Y-42580000D01*
X25852412Y-42580000D01*
X25543297Y-42518514D01*
X25252117Y-42397903D01*
X24990056Y-42222799D01*
X24767201Y-41999944D01*
X24592097Y-41737883D01*
X24471486Y-41446703D01*
X24410000Y-41137588D01*
X24410000Y-40822412D01*
X24471486Y-40513297D01*
X24592097Y-40222117D01*
X24767201Y-39960056D01*
X24990056Y-39737201D01*
X25252117Y-39562097D01*
X25543297Y-39441486D01*
X25852412Y-39380000D01*
X26167588Y-39380000D01*
X26476703Y-39441486D01*
X26476703Y-39441486D01*
G37*
G36*
X64576703Y-39441486D02*
X64867883Y-39562097D01*
X65129944Y-39737201D01*
X65352799Y-39960056D01*
X65527903Y-40222117D01*
X65648514Y-40513297D01*
X65710000Y-40822412D01*
X65710000Y-41137588D01*
X65648514Y-41446703D01*
X65527903Y-41737883D01*
X65352799Y-41999944D01*
X65129944Y-42222799D01*
X64867883Y-42397903D01*
X64576703Y-42518514D01*
X64267588Y-42580000D01*
X63952412Y-42580000D01*
X63643297Y-42518514D01*
X63352117Y-42397903D01*
X63090056Y-42222799D01*
X62867201Y-41999944D01*
X62692097Y-41737883D01*
X62571486Y-41446703D01*
X62510000Y-41137588D01*
X62510000Y-40822412D01*
X62571486Y-40513297D01*
X62692097Y-40222117D01*
X62867201Y-39960056D01*
X63090056Y-39737201D01*
X63352117Y-39562097D01*
X63643297Y-39441486D01*
X63952412Y-39380000D01*
X64267588Y-39380000D01*
X64576703Y-39441486D01*
X64576703Y-39441486D01*
G37*
G36*
X89976703Y-36901486D02*
X90267883Y-37022097D01*
X90529944Y-37197201D01*
X90752799Y-37420056D01*
X90927903Y-37682117D01*
X91048514Y-37973297D01*
X91110000Y-38282412D01*
X91110000Y-38597588D01*
X91048514Y-38906703D01*
X90927903Y-39197883D01*
X90752799Y-39459944D01*
X90529944Y-39682799D01*
X90267883Y-39857903D01*
X89976703Y-39978514D01*
X89667588Y-40040000D01*
X89352412Y-40040000D01*
X89043297Y-39978514D01*
X88752117Y-39857903D01*
X88490056Y-39682799D01*
X88267201Y-39459944D01*
X88092097Y-39197883D01*
X87971486Y-38906703D01*
X87910000Y-38597588D01*
X87910000Y-38282412D01*
X87971486Y-37973297D01*
X88092097Y-37682117D01*
X88267201Y-37420056D01*
X88490056Y-37197201D01*
X88752117Y-37022097D01*
X89043297Y-36901486D01*
X89352412Y-36840000D01*
X89667588Y-36840000D01*
X89976703Y-36901486D01*
X89976703Y-36901486D01*
G37*
G36*
X32826703Y-36901486D02*
X33117883Y-37022097D01*
X33379944Y-37197201D01*
X33602799Y-37420056D01*
X33777903Y-37682117D01*
X33898514Y-37973297D01*
X33960000Y-38282412D01*
X33960000Y-38597588D01*
X33898514Y-38906703D01*
X33777903Y-39197883D01*
X33602799Y-39459944D01*
X33379944Y-39682799D01*
X33117883Y-39857903D01*
X32826703Y-39978514D01*
X32517588Y-40040000D01*
X32202412Y-40040000D01*
X31893297Y-39978514D01*
X31602117Y-39857903D01*
X31340056Y-39682799D01*
X31117201Y-39459944D01*
X30942097Y-39197883D01*
X30821486Y-38906703D01*
X30760000Y-38597588D01*
X30760000Y-38282412D01*
X30821486Y-37973297D01*
X30942097Y-37682117D01*
X31117201Y-37420056D01*
X31340056Y-37197201D01*
X31602117Y-37022097D01*
X31893297Y-36901486D01*
X32202412Y-36840000D01*
X32517588Y-36840000D01*
X32826703Y-36901486D01*
X32826703Y-36901486D01*
G37*
G36*
X13776703Y-36901486D02*
X14067883Y-37022097D01*
X14329944Y-37197201D01*
X14552799Y-37420056D01*
X14727903Y-37682117D01*
X14848514Y-37973297D01*
X14910000Y-38282412D01*
X14910000Y-38597588D01*
X14848514Y-38906703D01*
X14727903Y-39197883D01*
X14552799Y-39459944D01*
X14329944Y-39682799D01*
X14067883Y-39857903D01*
X13776703Y-39978514D01*
X13467588Y-40040000D01*
X13152412Y-40040000D01*
X12843297Y-39978514D01*
X12552117Y-39857903D01*
X12290056Y-39682799D01*
X12067201Y-39459944D01*
X11892097Y-39197883D01*
X11771486Y-38906703D01*
X11710000Y-38597588D01*
X11710000Y-38282412D01*
X11771486Y-37973297D01*
X11892097Y-37682117D01*
X12067201Y-37420056D01*
X12290056Y-37197201D01*
X12552117Y-37022097D01*
X12843297Y-36901486D01*
X13152412Y-36840000D01*
X13467588Y-36840000D01*
X13776703Y-36901486D01*
X13776703Y-36901486D01*
G37*
G36*
X70926703Y-36901486D02*
X71217883Y-37022097D01*
X71479944Y-37197201D01*
X71702799Y-37420056D01*
X71877903Y-37682117D01*
X71998514Y-37973297D01*
X72060000Y-38282412D01*
X72060000Y-38597588D01*
X71998514Y-38906703D01*
X71877903Y-39197883D01*
X71702799Y-39459944D01*
X71479944Y-39682799D01*
X71217883Y-39857903D01*
X70926703Y-39978514D01*
X70617588Y-40040000D01*
X70302412Y-40040000D01*
X69993297Y-39978514D01*
X69702117Y-39857903D01*
X69440056Y-39682799D01*
X69217201Y-39459944D01*
X69042097Y-39197883D01*
X68921486Y-38906703D01*
X68860000Y-38597588D01*
X68860000Y-38282412D01*
X68921486Y-37973297D01*
X69042097Y-37682117D01*
X69217201Y-37420056D01*
X69440056Y-37197201D01*
X69702117Y-37022097D01*
X69993297Y-36901486D01*
X70302412Y-36840000D01*
X70617588Y-36840000D01*
X70926703Y-36901486D01*
X70926703Y-36901486D01*
G37*
G36*
X51876703Y-36901486D02*
X52167883Y-37022097D01*
X52429944Y-37197201D01*
X52652799Y-37420056D01*
X52827903Y-37682117D01*
X52948514Y-37973297D01*
X53010000Y-38282412D01*
X53010000Y-38597588D01*
X52948514Y-38906703D01*
X52827903Y-39197883D01*
X52652799Y-39459944D01*
X52429944Y-39682799D01*
X52167883Y-39857903D01*
X51876703Y-39978514D01*
X51567588Y-40040000D01*
X51252412Y-40040000D01*
X50943297Y-39978514D01*
X50652117Y-39857903D01*
X50390056Y-39682799D01*
X50167201Y-39459944D01*
X49992097Y-39197883D01*
X49871486Y-38906703D01*
X49810000Y-38597588D01*
X49810000Y-38282412D01*
X49871486Y-37973297D01*
X49992097Y-37682117D01*
X50167201Y-37420056D01*
X50390056Y-37197201D01*
X50652117Y-37022097D01*
X50943297Y-36901486D01*
X51252412Y-36840000D01*
X51567588Y-36840000D01*
X51876703Y-36901486D01*
X51876703Y-36901486D01*
G37*
G36*
X109026703Y-36901486D02*
X109317883Y-37022097D01*
X109579944Y-37197201D01*
X109802799Y-37420056D01*
X109977903Y-37682117D01*
X110098514Y-37973297D01*
X110160000Y-38282412D01*
X110160000Y-38597588D01*
X110098514Y-38906703D01*
X109977903Y-39197883D01*
X109802799Y-39459944D01*
X109579944Y-39682799D01*
X109317883Y-39857903D01*
X109026703Y-39978514D01*
X108717588Y-40040000D01*
X108402412Y-40040000D01*
X108093297Y-39978514D01*
X107802117Y-39857903D01*
X107540056Y-39682799D01*
X107317201Y-39459944D01*
X107142097Y-39197883D01*
X107021486Y-38906703D01*
X106960000Y-38597588D01*
X106960000Y-38282412D01*
X107021486Y-37973297D01*
X107142097Y-37682117D01*
X107317201Y-37420056D01*
X107540056Y-37197201D01*
X107802117Y-37022097D01*
X108093297Y-36901486D01*
X108402412Y-36840000D01*
X108717588Y-36840000D01*
X109026703Y-36901486D01*
X109026703Y-36901486D01*
G37*
G36*
X67262547Y-33880701D02*
X67644722Y-34039003D01*
X67644723Y-34039004D01*
X67988672Y-34268823D01*
X68281177Y-34561328D01*
X68434390Y-34790627D01*
X68510997Y-34905278D01*
X68669299Y-35287453D01*
X68750000Y-35693167D01*
X68750000Y-36106833D01*
X68669299Y-36512547D01*
X68510997Y-36894722D01*
X68434390Y-37009373D01*
X68281177Y-37238672D01*
X67988672Y-37531177D01*
X67762775Y-37682116D01*
X67644722Y-37760997D01*
X67262547Y-37919299D01*
X66856833Y-38000000D01*
X66443167Y-38000000D01*
X66037453Y-37919299D01*
X65655278Y-37760997D01*
X65537225Y-37682116D01*
X65311328Y-37531177D01*
X65018823Y-37238672D01*
X64865610Y-37009373D01*
X64789003Y-36894722D01*
X64630701Y-36512547D01*
X64550000Y-36106833D01*
X64550000Y-35693167D01*
X64630701Y-35287453D01*
X64789003Y-34905278D01*
X64865610Y-34790627D01*
X65018823Y-34561328D01*
X65311328Y-34268823D01*
X65655277Y-34039004D01*
X65655278Y-34039003D01*
X66037453Y-33880701D01*
X66443167Y-33800000D01*
X66856833Y-33800000D01*
X67262547Y-33880701D01*
X67262547Y-33880701D01*
G37*
G36*
X105362547Y-33880701D02*
X105744722Y-34039003D01*
X105744723Y-34039004D01*
X106088672Y-34268823D01*
X106381177Y-34561328D01*
X106534390Y-34790627D01*
X106610997Y-34905278D01*
X106769299Y-35287453D01*
X106850000Y-35693167D01*
X106850000Y-36106833D01*
X106769299Y-36512547D01*
X106610997Y-36894722D01*
X106534390Y-37009373D01*
X106381177Y-37238672D01*
X106088672Y-37531177D01*
X105862775Y-37682116D01*
X105744722Y-37760997D01*
X105362547Y-37919299D01*
X104956833Y-38000000D01*
X104543167Y-38000000D01*
X104137453Y-37919299D01*
X103755278Y-37760997D01*
X103637225Y-37682116D01*
X103411328Y-37531177D01*
X103118823Y-37238672D01*
X102965610Y-37009373D01*
X102889003Y-36894722D01*
X102730701Y-36512547D01*
X102650000Y-36106833D01*
X102650000Y-35693167D01*
X102730701Y-35287453D01*
X102889003Y-34905278D01*
X102965610Y-34790627D01*
X103118823Y-34561328D01*
X103411328Y-34268823D01*
X103755277Y-34039004D01*
X103755278Y-34039003D01*
X104137453Y-33880701D01*
X104543167Y-33800000D01*
X104956833Y-33800000D01*
X105362547Y-33880701D01*
X105362547Y-33880701D01*
G37*
G36*
X48212547Y-33880701D02*
X48594722Y-34039003D01*
X48594723Y-34039004D01*
X48938672Y-34268823D01*
X49231177Y-34561328D01*
X49384390Y-34790627D01*
X49460997Y-34905278D01*
X49619299Y-35287453D01*
X49700000Y-35693167D01*
X49700000Y-36106833D01*
X49619299Y-36512547D01*
X49460997Y-36894722D01*
X49384390Y-37009373D01*
X49231177Y-37238672D01*
X48938672Y-37531177D01*
X48712775Y-37682116D01*
X48594722Y-37760997D01*
X48212547Y-37919299D01*
X47806833Y-38000000D01*
X47393167Y-38000000D01*
X46987453Y-37919299D01*
X46605278Y-37760997D01*
X46487225Y-37682116D01*
X46261328Y-37531177D01*
X45968823Y-37238672D01*
X45815610Y-37009373D01*
X45739003Y-36894722D01*
X45580701Y-36512547D01*
X45500000Y-36106833D01*
X45500000Y-35693167D01*
X45580701Y-35287453D01*
X45739003Y-34905278D01*
X45815610Y-34790627D01*
X45968823Y-34561328D01*
X46261328Y-34268823D01*
X46605277Y-34039004D01*
X46605278Y-34039003D01*
X46987453Y-33880701D01*
X47393167Y-33800000D01*
X47806833Y-33800000D01*
X48212547Y-33880701D01*
X48212547Y-33880701D01*
G37*
G36*
X29162547Y-33880701D02*
X29544722Y-34039003D01*
X29544723Y-34039004D01*
X29888672Y-34268823D01*
X30181177Y-34561328D01*
X30334390Y-34790627D01*
X30410997Y-34905278D01*
X30569299Y-35287453D01*
X30650000Y-35693167D01*
X30650000Y-36106833D01*
X30569299Y-36512547D01*
X30410997Y-36894722D01*
X30334390Y-37009373D01*
X30181177Y-37238672D01*
X29888672Y-37531177D01*
X29662775Y-37682116D01*
X29544722Y-37760997D01*
X29162547Y-37919299D01*
X28756833Y-38000000D01*
X28343167Y-38000000D01*
X27937453Y-37919299D01*
X27555278Y-37760997D01*
X27437225Y-37682116D01*
X27211328Y-37531177D01*
X26918823Y-37238672D01*
X26765610Y-37009373D01*
X26689003Y-36894722D01*
X26530701Y-36512547D01*
X26450000Y-36106833D01*
X26450000Y-35693167D01*
X26530701Y-35287453D01*
X26689003Y-34905278D01*
X26765610Y-34790627D01*
X26918823Y-34561328D01*
X27211328Y-34268823D01*
X27555277Y-34039004D01*
X27555278Y-34039003D01*
X27937453Y-33880701D01*
X28343167Y-33800000D01*
X28756833Y-33800000D01*
X29162547Y-33880701D01*
X29162547Y-33880701D01*
G37*
G36*
X10112547Y-33880701D02*
X10494722Y-34039003D01*
X10494723Y-34039004D01*
X10838672Y-34268823D01*
X11131177Y-34561328D01*
X11284390Y-34790627D01*
X11360997Y-34905278D01*
X11519299Y-35287453D01*
X11600000Y-35693167D01*
X11600000Y-36106833D01*
X11519299Y-36512547D01*
X11360997Y-36894722D01*
X11284390Y-37009373D01*
X11131177Y-37238672D01*
X10838672Y-37531177D01*
X10612775Y-37682116D01*
X10494722Y-37760997D01*
X10112547Y-37919299D01*
X9706833Y-38000000D01*
X9293167Y-38000000D01*
X8887453Y-37919299D01*
X8505278Y-37760997D01*
X8387225Y-37682116D01*
X8161328Y-37531177D01*
X7868823Y-37238672D01*
X7715610Y-37009373D01*
X7639003Y-36894722D01*
X7480701Y-36512547D01*
X7400000Y-36106833D01*
X7400000Y-35693167D01*
X7480701Y-35287453D01*
X7639003Y-34905278D01*
X7715610Y-34790627D01*
X7868823Y-34561328D01*
X8161328Y-34268823D01*
X8505277Y-34039004D01*
X8505278Y-34039003D01*
X8887453Y-33880701D01*
X9293167Y-33800000D01*
X9706833Y-33800000D01*
X10112547Y-33880701D01*
X10112547Y-33880701D01*
G37*
G36*
X86312547Y-33880701D02*
X86694722Y-34039003D01*
X86694723Y-34039004D01*
X87038672Y-34268823D01*
X87331177Y-34561328D01*
X87484390Y-34790627D01*
X87560997Y-34905278D01*
X87719299Y-35287453D01*
X87800000Y-35693167D01*
X87800000Y-36106833D01*
X87719299Y-36512547D01*
X87560997Y-36894722D01*
X87484390Y-37009373D01*
X87331177Y-37238672D01*
X87038672Y-37531177D01*
X86812775Y-37682116D01*
X86694722Y-37760997D01*
X86312547Y-37919299D01*
X85906833Y-38000000D01*
X85493167Y-38000000D01*
X85087453Y-37919299D01*
X84705278Y-37760997D01*
X84587225Y-37682116D01*
X84361328Y-37531177D01*
X84068823Y-37238672D01*
X83915610Y-37009373D01*
X83839003Y-36894722D01*
X83680701Y-36512547D01*
X83600000Y-36106833D01*
X83600000Y-35693167D01*
X83680701Y-35287453D01*
X83839003Y-34905278D01*
X83915610Y-34790627D01*
X84068823Y-34561328D01*
X84361328Y-34268823D01*
X84705277Y-34039004D01*
X84705278Y-34039003D01*
X85087453Y-33880701D01*
X85493167Y-33800000D01*
X85906833Y-33800000D01*
X86312547Y-33880701D01*
X86312547Y-33880701D01*
G37*
G36*
X14719452Y-34959127D02*
X14857105Y-34986508D01*
X15029994Y-35058121D01*
X15185590Y-35162087D01*
X15317913Y-35294410D01*
X15421879Y-35450006D01*
X15493492Y-35622895D01*
X15530000Y-35806433D01*
X15530000Y-35993567D01*
X15493492Y-36177105D01*
X15421879Y-36349994D01*
X15317913Y-36505590D01*
X15185590Y-36637913D01*
X15029994Y-36741879D01*
X14857105Y-36813492D01*
X14723840Y-36840000D01*
X14673568Y-36850000D01*
X14486432Y-36850000D01*
X14436160Y-36840000D01*
X14302895Y-36813492D01*
X14130006Y-36741879D01*
X13974410Y-36637913D01*
X13842087Y-36505590D01*
X13738121Y-36349994D01*
X13666508Y-36177105D01*
X13630000Y-35993567D01*
X13630000Y-35806433D01*
X13666508Y-35622895D01*
X13738121Y-35450006D01*
X13842087Y-35294410D01*
X13974410Y-35162087D01*
X14130006Y-35058121D01*
X14302895Y-34986508D01*
X14440548Y-34959127D01*
X14486432Y-34950000D01*
X14673568Y-34950000D01*
X14719452Y-34959127D01*
X14719452Y-34959127D01*
G37*
G36*
X109969452Y-34959127D02*
X110107105Y-34986508D01*
X110279994Y-35058121D01*
X110435590Y-35162087D01*
X110567913Y-35294410D01*
X110671879Y-35450006D01*
X110743492Y-35622895D01*
X110780000Y-35806433D01*
X110780000Y-35993567D01*
X110743492Y-36177105D01*
X110671879Y-36349994D01*
X110567913Y-36505590D01*
X110435590Y-36637913D01*
X110279994Y-36741879D01*
X110107105Y-36813492D01*
X109973840Y-36840000D01*
X109923568Y-36850000D01*
X109736432Y-36850000D01*
X109686160Y-36840000D01*
X109552895Y-36813492D01*
X109380006Y-36741879D01*
X109224410Y-36637913D01*
X109092087Y-36505590D01*
X108988121Y-36349994D01*
X108916508Y-36177105D01*
X108880000Y-35993567D01*
X108880000Y-35806433D01*
X108916508Y-35622895D01*
X108988121Y-35450006D01*
X109092087Y-35294410D01*
X109224410Y-35162087D01*
X109380006Y-35058121D01*
X109552895Y-34986508D01*
X109690548Y-34959127D01*
X109736432Y-34950000D01*
X109923568Y-34950000D01*
X109969452Y-34959127D01*
X109969452Y-34959127D01*
G37*
G36*
X99809452Y-34959127D02*
X99947105Y-34986508D01*
X100119994Y-35058121D01*
X100275590Y-35162087D01*
X100407913Y-35294410D01*
X100511879Y-35450006D01*
X100583492Y-35622895D01*
X100620000Y-35806433D01*
X100620000Y-35993567D01*
X100583492Y-36177105D01*
X100511879Y-36349994D01*
X100407913Y-36505590D01*
X100275590Y-36637913D01*
X100119994Y-36741879D01*
X99947105Y-36813492D01*
X99813840Y-36840000D01*
X99763568Y-36850000D01*
X99576432Y-36850000D01*
X99526160Y-36840000D01*
X99392895Y-36813492D01*
X99220006Y-36741879D01*
X99064410Y-36637913D01*
X98932087Y-36505590D01*
X98828121Y-36349994D01*
X98756508Y-36177105D01*
X98720000Y-35993567D01*
X98720000Y-35806433D01*
X98756508Y-35622895D01*
X98828121Y-35450006D01*
X98932087Y-35294410D01*
X99064410Y-35162087D01*
X99220006Y-35058121D01*
X99392895Y-34986508D01*
X99530548Y-34959127D01*
X99576432Y-34950000D01*
X99763568Y-34950000D01*
X99809452Y-34959127D01*
X99809452Y-34959127D01*
G37*
G36*
X90919452Y-34959127D02*
X91057105Y-34986508D01*
X91229994Y-35058121D01*
X91385590Y-35162087D01*
X91517913Y-35294410D01*
X91621879Y-35450006D01*
X91693492Y-35622895D01*
X91730000Y-35806433D01*
X91730000Y-35993567D01*
X91693492Y-36177105D01*
X91621879Y-36349994D01*
X91517913Y-36505590D01*
X91385590Y-36637913D01*
X91229994Y-36741879D01*
X91057105Y-36813492D01*
X90923840Y-36840000D01*
X90873568Y-36850000D01*
X90686432Y-36850000D01*
X90636160Y-36840000D01*
X90502895Y-36813492D01*
X90330006Y-36741879D01*
X90174410Y-36637913D01*
X90042087Y-36505590D01*
X89938121Y-36349994D01*
X89866508Y-36177105D01*
X89830000Y-35993567D01*
X89830000Y-35806433D01*
X89866508Y-35622895D01*
X89938121Y-35450006D01*
X90042087Y-35294410D01*
X90174410Y-35162087D01*
X90330006Y-35058121D01*
X90502895Y-34986508D01*
X90640548Y-34959127D01*
X90686432Y-34950000D01*
X90873568Y-34950000D01*
X90919452Y-34959127D01*
X90919452Y-34959127D01*
G37*
G36*
X80759452Y-34959127D02*
X80897105Y-34986508D01*
X81069994Y-35058121D01*
X81225590Y-35162087D01*
X81357913Y-35294410D01*
X81461879Y-35450006D01*
X81533492Y-35622895D01*
X81570000Y-35806433D01*
X81570000Y-35993567D01*
X81533492Y-36177105D01*
X81461879Y-36349994D01*
X81357913Y-36505590D01*
X81225590Y-36637913D01*
X81069994Y-36741879D01*
X80897105Y-36813492D01*
X80763840Y-36840000D01*
X80713568Y-36850000D01*
X80526432Y-36850000D01*
X80476160Y-36840000D01*
X80342895Y-36813492D01*
X80170006Y-36741879D01*
X80014410Y-36637913D01*
X79882087Y-36505590D01*
X79778121Y-36349994D01*
X79706508Y-36177105D01*
X79670000Y-35993567D01*
X79670000Y-35806433D01*
X79706508Y-35622895D01*
X79778121Y-35450006D01*
X79882087Y-35294410D01*
X80014410Y-35162087D01*
X80170006Y-35058121D01*
X80342895Y-34986508D01*
X80480548Y-34959127D01*
X80526432Y-34950000D01*
X80713568Y-34950000D01*
X80759452Y-34959127D01*
X80759452Y-34959127D01*
G37*
G36*
X4559452Y-34959127D02*
X4697105Y-34986508D01*
X4869994Y-35058121D01*
X5025590Y-35162087D01*
X5157913Y-35294410D01*
X5261879Y-35450006D01*
X5333492Y-35622895D01*
X5370000Y-35806433D01*
X5370000Y-35993567D01*
X5333492Y-36177105D01*
X5261879Y-36349994D01*
X5157913Y-36505590D01*
X5025590Y-36637913D01*
X4869994Y-36741879D01*
X4697105Y-36813492D01*
X4563840Y-36840000D01*
X4513568Y-36850000D01*
X4326432Y-36850000D01*
X4276160Y-36840000D01*
X4142895Y-36813492D01*
X3970006Y-36741879D01*
X3814410Y-36637913D01*
X3682087Y-36505590D01*
X3578121Y-36349994D01*
X3506508Y-36177105D01*
X3470000Y-35993567D01*
X3470000Y-35806433D01*
X3506508Y-35622895D01*
X3578121Y-35450006D01*
X3682087Y-35294410D01*
X3814410Y-35162087D01*
X3970006Y-35058121D01*
X4142895Y-34986508D01*
X4280548Y-34959127D01*
X4326432Y-34950000D01*
X4513568Y-34950000D01*
X4559452Y-34959127D01*
X4559452Y-34959127D01*
G37*
G36*
X52819452Y-34959127D02*
X52957105Y-34986508D01*
X53129994Y-35058121D01*
X53285590Y-35162087D01*
X53417913Y-35294410D01*
X53521879Y-35450006D01*
X53593492Y-35622895D01*
X53630000Y-35806433D01*
X53630000Y-35993567D01*
X53593492Y-36177105D01*
X53521879Y-36349994D01*
X53417913Y-36505590D01*
X53285590Y-36637913D01*
X53129994Y-36741879D01*
X52957105Y-36813492D01*
X52823840Y-36840000D01*
X52773568Y-36850000D01*
X52586432Y-36850000D01*
X52536160Y-36840000D01*
X52402895Y-36813492D01*
X52230006Y-36741879D01*
X52074410Y-36637913D01*
X51942087Y-36505590D01*
X51838121Y-36349994D01*
X51766508Y-36177105D01*
X51730000Y-35993567D01*
X51730000Y-35806433D01*
X51766508Y-35622895D01*
X51838121Y-35450006D01*
X51942087Y-35294410D01*
X52074410Y-35162087D01*
X52230006Y-35058121D01*
X52402895Y-34986508D01*
X52540548Y-34959127D01*
X52586432Y-34950000D01*
X52773568Y-34950000D01*
X52819452Y-34959127D01*
X52819452Y-34959127D01*
G37*
G36*
X42659452Y-34959127D02*
X42797105Y-34986508D01*
X42969994Y-35058121D01*
X43125590Y-35162087D01*
X43257913Y-35294410D01*
X43361879Y-35450006D01*
X43433492Y-35622895D01*
X43470000Y-35806433D01*
X43470000Y-35993567D01*
X43433492Y-36177105D01*
X43361879Y-36349994D01*
X43257913Y-36505590D01*
X43125590Y-36637913D01*
X42969994Y-36741879D01*
X42797105Y-36813492D01*
X42663840Y-36840000D01*
X42613568Y-36850000D01*
X42426432Y-36850000D01*
X42376160Y-36840000D01*
X42242895Y-36813492D01*
X42070006Y-36741879D01*
X41914410Y-36637913D01*
X41782087Y-36505590D01*
X41678121Y-36349994D01*
X41606508Y-36177105D01*
X41570000Y-35993567D01*
X41570000Y-35806433D01*
X41606508Y-35622895D01*
X41678121Y-35450006D01*
X41782087Y-35294410D01*
X41914410Y-35162087D01*
X42070006Y-35058121D01*
X42242895Y-34986508D01*
X42380548Y-34959127D01*
X42426432Y-34950000D01*
X42613568Y-34950000D01*
X42659452Y-34959127D01*
X42659452Y-34959127D01*
G37*
G36*
X33769452Y-34959127D02*
X33907105Y-34986508D01*
X34079994Y-35058121D01*
X34235590Y-35162087D01*
X34367913Y-35294410D01*
X34471879Y-35450006D01*
X34543492Y-35622895D01*
X34580000Y-35806433D01*
X34580000Y-35993567D01*
X34543492Y-36177105D01*
X34471879Y-36349994D01*
X34367913Y-36505590D01*
X34235590Y-36637913D01*
X34079994Y-36741879D01*
X33907105Y-36813492D01*
X33773840Y-36840000D01*
X33723568Y-36850000D01*
X33536432Y-36850000D01*
X33486160Y-36840000D01*
X33352895Y-36813492D01*
X33180006Y-36741879D01*
X33024410Y-36637913D01*
X32892087Y-36505590D01*
X32788121Y-36349994D01*
X32716508Y-36177105D01*
X32680000Y-35993567D01*
X32680000Y-35806433D01*
X32716508Y-35622895D01*
X32788121Y-35450006D01*
X32892087Y-35294410D01*
X33024410Y-35162087D01*
X33180006Y-35058121D01*
X33352895Y-34986508D01*
X33490548Y-34959127D01*
X33536432Y-34950000D01*
X33723568Y-34950000D01*
X33769452Y-34959127D01*
X33769452Y-34959127D01*
G37*
G36*
X23609452Y-34959127D02*
X23747105Y-34986508D01*
X23919994Y-35058121D01*
X24075590Y-35162087D01*
X24207913Y-35294410D01*
X24311879Y-35450006D01*
X24383492Y-35622895D01*
X24420000Y-35806433D01*
X24420000Y-35993567D01*
X24383492Y-36177105D01*
X24311879Y-36349994D01*
X24207913Y-36505590D01*
X24075590Y-36637913D01*
X23919994Y-36741879D01*
X23747105Y-36813492D01*
X23613840Y-36840000D01*
X23563568Y-36850000D01*
X23376432Y-36850000D01*
X23326160Y-36840000D01*
X23192895Y-36813492D01*
X23020006Y-36741879D01*
X22864410Y-36637913D01*
X22732087Y-36505590D01*
X22628121Y-36349994D01*
X22556508Y-36177105D01*
X22520000Y-35993567D01*
X22520000Y-35806433D01*
X22556508Y-35622895D01*
X22628121Y-35450006D01*
X22732087Y-35294410D01*
X22864410Y-35162087D01*
X23020006Y-35058121D01*
X23192895Y-34986508D01*
X23330548Y-34959127D01*
X23376432Y-34950000D01*
X23563568Y-34950000D01*
X23609452Y-34959127D01*
X23609452Y-34959127D01*
G37*
G36*
X71869452Y-34959127D02*
X72007105Y-34986508D01*
X72179994Y-35058121D01*
X72335590Y-35162087D01*
X72467913Y-35294410D01*
X72571879Y-35450006D01*
X72643492Y-35622895D01*
X72680000Y-35806433D01*
X72680000Y-35993567D01*
X72643492Y-36177105D01*
X72571879Y-36349994D01*
X72467913Y-36505590D01*
X72335590Y-36637913D01*
X72179994Y-36741879D01*
X72007105Y-36813492D01*
X71873840Y-36840000D01*
X71823568Y-36850000D01*
X71636432Y-36850000D01*
X71586160Y-36840000D01*
X71452895Y-36813492D01*
X71280006Y-36741879D01*
X71124410Y-36637913D01*
X70992087Y-36505590D01*
X70888121Y-36349994D01*
X70816508Y-36177105D01*
X70780000Y-35993567D01*
X70780000Y-35806433D01*
X70816508Y-35622895D01*
X70888121Y-35450006D01*
X70992087Y-35294410D01*
X71124410Y-35162087D01*
X71280006Y-35058121D01*
X71452895Y-34986508D01*
X71590548Y-34959127D01*
X71636432Y-34950000D01*
X71823568Y-34950000D01*
X71869452Y-34959127D01*
X71869452Y-34959127D01*
G37*
G36*
X61709452Y-34959127D02*
X61847105Y-34986508D01*
X62019994Y-35058121D01*
X62175590Y-35162087D01*
X62307913Y-35294410D01*
X62411879Y-35450006D01*
X62483492Y-35622895D01*
X62520000Y-35806433D01*
X62520000Y-35993567D01*
X62483492Y-36177105D01*
X62411879Y-36349994D01*
X62307913Y-36505590D01*
X62175590Y-36637913D01*
X62019994Y-36741879D01*
X61847105Y-36813492D01*
X61713840Y-36840000D01*
X61663568Y-36850000D01*
X61476432Y-36850000D01*
X61426160Y-36840000D01*
X61292895Y-36813492D01*
X61120006Y-36741879D01*
X60964410Y-36637913D01*
X60832087Y-36505590D01*
X60728121Y-36349994D01*
X60656508Y-36177105D01*
X60620000Y-35993567D01*
X60620000Y-35806433D01*
X60656508Y-35622895D01*
X60728121Y-35450006D01*
X60832087Y-35294410D01*
X60964410Y-35162087D01*
X61120006Y-35058121D01*
X61292895Y-34986508D01*
X61430548Y-34959127D01*
X61476432Y-34950000D01*
X61663568Y-34950000D01*
X61709452Y-34959127D01*
X61709452Y-34959127D01*
G37*
G36*
X57496857Y-31838272D02*
X57697042Y-31921191D01*
X57877213Y-32041578D01*
X58030422Y-32194787D01*
X58150809Y-32374958D01*
X58233728Y-32575143D01*
X58276000Y-32787658D01*
X58276000Y-33004342D01*
X58233728Y-33216857D01*
X58150809Y-33417042D01*
X58030422Y-33597213D01*
X57877213Y-33750422D01*
X57697042Y-33870809D01*
X57496857Y-33953728D01*
X57284342Y-33996000D01*
X57067658Y-33996000D01*
X56855143Y-33953728D01*
X56654958Y-33870809D01*
X56474787Y-33750422D01*
X56321578Y-33597213D01*
X56201191Y-33417042D01*
X56118272Y-33216857D01*
X56076000Y-33004342D01*
X56076000Y-32787658D01*
X56118272Y-32575143D01*
X56201191Y-32374958D01*
X56321578Y-32194787D01*
X56474787Y-32041578D01*
X56654958Y-31921191D01*
X56855143Y-31838272D01*
X57067658Y-31796000D01*
X57284342Y-31796000D01*
X57496857Y-31838272D01*
X57496857Y-31838272D01*
G37*
G36*
X19704599Y-23979421D02*
X19904237Y-24019131D01*
X20468401Y-24252815D01*
X20976135Y-24592072D01*
X21407928Y-25023865D01*
X21747185Y-25531599D01*
X21951547Y-26024974D01*
X21980869Y-26095764D01*
X22100000Y-26694675D01*
X22100000Y-27305325D01*
X22073524Y-27438427D01*
X21980869Y-27904237D01*
X21747185Y-28468401D01*
X21407928Y-28976135D01*
X20976135Y-29407928D01*
X20468401Y-29747185D01*
X19904237Y-29980869D01*
X19704599Y-30020579D01*
X19305325Y-30100000D01*
X18694675Y-30100000D01*
X18295401Y-30020579D01*
X18095763Y-29980869D01*
X17531599Y-29747185D01*
X17023865Y-29407928D01*
X16592072Y-28976135D01*
X16252815Y-28468401D01*
X16019131Y-27904237D01*
X15926476Y-27438427D01*
X15900000Y-27305325D01*
X15900000Y-26694675D01*
X16019131Y-26095764D01*
X16048453Y-26024974D01*
X16252815Y-25531599D01*
X16592072Y-25023865D01*
X17023865Y-24592072D01*
X17531599Y-24252815D01*
X18095763Y-24019131D01*
X18295401Y-23979421D01*
X18694675Y-23900000D01*
X19305325Y-23900000D01*
X19704599Y-23979421D01*
X19704599Y-23979421D01*
G37*
G36*
X95704599Y-23979421D02*
X95904237Y-24019131D01*
X96468401Y-24252815D01*
X96976135Y-24592072D01*
X97407928Y-25023865D01*
X97747185Y-25531599D01*
X97951547Y-26024974D01*
X97980869Y-26095764D01*
X98100000Y-26694675D01*
X98100000Y-27305325D01*
X98073524Y-27438427D01*
X97980869Y-27904237D01*
X97747185Y-28468401D01*
X97407928Y-28976135D01*
X96976135Y-29407928D01*
X96468401Y-29747185D01*
X95904237Y-29980869D01*
X95704599Y-30020579D01*
X95305325Y-30100000D01*
X94694675Y-30100000D01*
X94295401Y-30020579D01*
X94095763Y-29980869D01*
X93531599Y-29747185D01*
X93023865Y-29407928D01*
X92592072Y-28976135D01*
X92252815Y-28468401D01*
X92019131Y-27904237D01*
X91926476Y-27438427D01*
X91900000Y-27305325D01*
X91900000Y-26694675D01*
X92019131Y-26095764D01*
X92048453Y-26024974D01*
X92252815Y-25531599D01*
X92592072Y-25023865D01*
X93023865Y-24592072D01*
X93531599Y-24252815D01*
X94095763Y-24019131D01*
X94295401Y-23979421D01*
X94694675Y-23900000D01*
X95305325Y-23900000D01*
X95704599Y-23979421D01*
X95704599Y-23979421D01*
G37*
G36*
X69012749Y-26750771D02*
X69037254Y-26750771D01*
X69041130Y-26750000D01*
X70471558Y-26750000D01*
X70487251Y-26750771D01*
X70506138Y-26748911D01*
X71043860Y-26748911D01*
X71062198Y-26750717D01*
X71074450Y-26751319D01*
X71092871Y-26751319D01*
X71124754Y-26754459D01*
X71208836Y-26771184D01*
X71225531Y-26776249D01*
X71233595Y-26778695D01*
X71233597Y-26778696D01*
X71239501Y-26780487D01*
X71318708Y-26813295D01*
X71346965Y-26828398D01*
X71418250Y-26876029D01*
X71423022Y-26879946D01*
X71423023Y-26879946D01*
X71438250Y-26892442D01*
X71438253Y-26892445D01*
X71443027Y-26896363D01*
X71503637Y-26956973D01*
X71507555Y-26961747D01*
X71507558Y-26961750D01*
X71520054Y-26976977D01*
X71523971Y-26981750D01*
X71571602Y-27053035D01*
X71586705Y-27081292D01*
X71619513Y-27160499D01*
X71628816Y-27191164D01*
X71645541Y-27275246D01*
X71648681Y-27307129D01*
X71648681Y-27325550D01*
X71649283Y-27337802D01*
X71651089Y-27356140D01*
X71651089Y-27843861D01*
X71649283Y-27862198D01*
X71648681Y-27874450D01*
X71648681Y-27892871D01*
X71645541Y-27924754D01*
X71628816Y-28008836D01*
X71619513Y-28039501D01*
X71586705Y-28118708D01*
X71571602Y-28146965D01*
X71523971Y-28218250D01*
X71520054Y-28223022D01*
X71520054Y-28223023D01*
X71507558Y-28238250D01*
X71507555Y-28238253D01*
X71503637Y-28243027D01*
X71443027Y-28303637D01*
X71438253Y-28307555D01*
X71438250Y-28307558D01*
X71423023Y-28320054D01*
X71418250Y-28323971D01*
X71346965Y-28371602D01*
X71318708Y-28386705D01*
X71239501Y-28419513D01*
X71233597Y-28421304D01*
X71233595Y-28421305D01*
X71225531Y-28423751D01*
X71208836Y-28428816D01*
X71124754Y-28445541D01*
X71092871Y-28448681D01*
X71074450Y-28448681D01*
X71062198Y-28449283D01*
X71043861Y-28451089D01*
X70506138Y-28451089D01*
X70487251Y-28449229D01*
X70462746Y-28449229D01*
X70458870Y-28450000D01*
X69028442Y-28450000D01*
X69012749Y-28449229D01*
X68993862Y-28451089D01*
X68456139Y-28451089D01*
X68437802Y-28449283D01*
X68425550Y-28448681D01*
X68407129Y-28448681D01*
X68375246Y-28445541D01*
X68291164Y-28428816D01*
X68274469Y-28423751D01*
X68266405Y-28421305D01*
X68266403Y-28421304D01*
X68260499Y-28419513D01*
X68181292Y-28386705D01*
X68153035Y-28371602D01*
X68081750Y-28323971D01*
X68076977Y-28320054D01*
X68061750Y-28307558D01*
X68061747Y-28307555D01*
X68056973Y-28303637D01*
X67996363Y-28243027D01*
X67992445Y-28238253D01*
X67992442Y-28238250D01*
X67979946Y-28223023D01*
X67979946Y-28223022D01*
X67976029Y-28218250D01*
X67928398Y-28146965D01*
X67913295Y-28118708D01*
X67880487Y-28039501D01*
X67871184Y-28008836D01*
X67854459Y-27924754D01*
X67851319Y-27892871D01*
X67851319Y-27874450D01*
X67850717Y-27862198D01*
X67848911Y-27843861D01*
X67848911Y-27356140D01*
X67850717Y-27337802D01*
X67851319Y-27325550D01*
X67851319Y-27307129D01*
X67854459Y-27275246D01*
X67871184Y-27191164D01*
X67880487Y-27160499D01*
X67913295Y-27081292D01*
X67928398Y-27053035D01*
X67976029Y-26981750D01*
X67979946Y-26976977D01*
X67992442Y-26961750D01*
X67992445Y-26961747D01*
X67996363Y-26956973D01*
X68056973Y-26896363D01*
X68061747Y-26892445D01*
X68061750Y-26892442D01*
X68076977Y-26879946D01*
X68076978Y-26879946D01*
X68081750Y-26876029D01*
X68153035Y-26828398D01*
X68181292Y-26813295D01*
X68260499Y-26780487D01*
X68266403Y-26778696D01*
X68266405Y-26778695D01*
X68274469Y-26776249D01*
X68291164Y-26771184D01*
X68375246Y-26754459D01*
X68407129Y-26751319D01*
X68425550Y-26751319D01*
X68437802Y-26750717D01*
X68456140Y-26748911D01*
X68993862Y-26748911D01*
X69012749Y-26750771D01*
X69012749Y-26750771D01*
G37*
G36*
X9850026Y-25221115D02*
X10068412Y-25311573D01*
X10264958Y-25442901D01*
X10432099Y-25610042D01*
X10563427Y-25806588D01*
X10653885Y-26024974D01*
X10700000Y-26256809D01*
X10700000Y-26493191D01*
X10653885Y-26725026D01*
X10563427Y-26943412D01*
X10432099Y-27139958D01*
X10264958Y-27307099D01*
X10068412Y-27438427D01*
X9850026Y-27528885D01*
X9618191Y-27575000D01*
X9381809Y-27575000D01*
X9149974Y-27528885D01*
X8931588Y-27438427D01*
X8735042Y-27307099D01*
X8567901Y-27139958D01*
X8436573Y-26943412D01*
X8346115Y-26725026D01*
X8300000Y-26493191D01*
X8300000Y-26256809D01*
X8346115Y-26024974D01*
X8436573Y-25806588D01*
X8567901Y-25610042D01*
X8735042Y-25442901D01*
X8931588Y-25311573D01*
X9149974Y-25221115D01*
X9381809Y-25175000D01*
X9618191Y-25175000D01*
X9850026Y-25221115D01*
X9850026Y-25221115D01*
G37*
G36*
X105100026Y-25221115D02*
X105318412Y-25311573D01*
X105514958Y-25442901D01*
X105682099Y-25610042D01*
X105813427Y-25806588D01*
X105903885Y-26024974D01*
X105950000Y-26256809D01*
X105950000Y-26493191D01*
X105903885Y-26725026D01*
X105813427Y-26943412D01*
X105682099Y-27139958D01*
X105514958Y-27307099D01*
X105318412Y-27438427D01*
X105100026Y-27528885D01*
X104868191Y-27575000D01*
X104631809Y-27575000D01*
X104399974Y-27528885D01*
X104181588Y-27438427D01*
X103985042Y-27307099D01*
X103817901Y-27139958D01*
X103686573Y-26943412D01*
X103596115Y-26725026D01*
X103550000Y-26493191D01*
X103550000Y-26256809D01*
X103596115Y-26024974D01*
X103686573Y-25806588D01*
X103817901Y-25610042D01*
X103985042Y-25442901D01*
X104181588Y-25311573D01*
X104399974Y-25221115D01*
X104631809Y-25175000D01*
X104868191Y-25175000D01*
X105100026Y-25221115D01*
X105100026Y-25221115D01*
G37*
G36*
X58276000Y-27396000D02*
X56076000Y-27396000D01*
X56076000Y-25196000D01*
X58276000Y-25196000D01*
X58276000Y-27396000D01*
X58276000Y-27396000D01*
G37*
G36*
X7426703Y-20391486D02*
X7717883Y-20512097D01*
X7979944Y-20687201D01*
X8202799Y-20910056D01*
X8377903Y-21172117D01*
X8498514Y-21463297D01*
X8560000Y-21772412D01*
X8560000Y-22087588D01*
X8498514Y-22396703D01*
X8377903Y-22687883D01*
X8202799Y-22949944D01*
X7979944Y-23172799D01*
X7717883Y-23347903D01*
X7426703Y-23468514D01*
X7117588Y-23530000D01*
X6802412Y-23530000D01*
X6493297Y-23468514D01*
X6202117Y-23347903D01*
X5940056Y-23172799D01*
X5717201Y-22949944D01*
X5542097Y-22687883D01*
X5421486Y-22396703D01*
X5360000Y-22087588D01*
X5360000Y-21772412D01*
X5421486Y-21463297D01*
X5542097Y-21172117D01*
X5717201Y-20910056D01*
X5940056Y-20687201D01*
X6202117Y-20512097D01*
X6493297Y-20391486D01*
X6802412Y-20330000D01*
X7117588Y-20330000D01*
X7426703Y-20391486D01*
X7426703Y-20391486D01*
G37*
G36*
X83626703Y-20391486D02*
X83917883Y-20512097D01*
X84179944Y-20687201D01*
X84402799Y-20910056D01*
X84577903Y-21172117D01*
X84698514Y-21463297D01*
X84760000Y-21772412D01*
X84760000Y-22087588D01*
X84698514Y-22396703D01*
X84577903Y-22687883D01*
X84402799Y-22949944D01*
X84179944Y-23172799D01*
X83917883Y-23347903D01*
X83626703Y-23468514D01*
X83317588Y-23530000D01*
X83002412Y-23530000D01*
X82693297Y-23468514D01*
X82402117Y-23347903D01*
X82140056Y-23172799D01*
X81917201Y-22949944D01*
X81742097Y-22687883D01*
X81621486Y-22396703D01*
X81560000Y-22087588D01*
X81560000Y-21772412D01*
X81621486Y-21463297D01*
X81742097Y-21172117D01*
X81917201Y-20910056D01*
X82140056Y-20687201D01*
X82402117Y-20512097D01*
X82693297Y-20391486D01*
X83002412Y-20330000D01*
X83317588Y-20330000D01*
X83626703Y-20391486D01*
X83626703Y-20391486D01*
G37*
G36*
X64576703Y-20391486D02*
X64867883Y-20512097D01*
X65129944Y-20687201D01*
X65352799Y-20910056D01*
X65527903Y-21172117D01*
X65648514Y-21463297D01*
X65710000Y-21772412D01*
X65710000Y-22087588D01*
X65648514Y-22396703D01*
X65527903Y-22687883D01*
X65352799Y-22949944D01*
X65129944Y-23172799D01*
X64867883Y-23347903D01*
X64576703Y-23468514D01*
X64267588Y-23530000D01*
X63952412Y-23530000D01*
X63643297Y-23468514D01*
X63352117Y-23347903D01*
X63090056Y-23172799D01*
X62867201Y-22949944D01*
X62692097Y-22687883D01*
X62571486Y-22396703D01*
X62510000Y-22087588D01*
X62510000Y-21772412D01*
X62571486Y-21463297D01*
X62692097Y-21172117D01*
X62867201Y-20910056D01*
X63090056Y-20687201D01*
X63352117Y-20512097D01*
X63643297Y-20391486D01*
X63952412Y-20330000D01*
X64267588Y-20330000D01*
X64576703Y-20391486D01*
X64576703Y-20391486D01*
G37*
G36*
X26476703Y-20391486D02*
X26767883Y-20512097D01*
X27029944Y-20687201D01*
X27252799Y-20910056D01*
X27427903Y-21172117D01*
X27548514Y-21463297D01*
X27610000Y-21772412D01*
X27610000Y-22087588D01*
X27548514Y-22396703D01*
X27427903Y-22687883D01*
X27252799Y-22949944D01*
X27029944Y-23172799D01*
X26767883Y-23347903D01*
X26476703Y-23468514D01*
X26167588Y-23530000D01*
X25852412Y-23530000D01*
X25543297Y-23468514D01*
X25252117Y-23347903D01*
X24990056Y-23172799D01*
X24767201Y-22949944D01*
X24592097Y-22687883D01*
X24471486Y-22396703D01*
X24410000Y-22087588D01*
X24410000Y-21772412D01*
X24471486Y-21463297D01*
X24592097Y-21172117D01*
X24767201Y-20910056D01*
X24990056Y-20687201D01*
X25252117Y-20512097D01*
X25543297Y-20391486D01*
X25852412Y-20330000D01*
X26167588Y-20330000D01*
X26476703Y-20391486D01*
X26476703Y-20391486D01*
G37*
G36*
X45526703Y-20391486D02*
X45817883Y-20512097D01*
X46079944Y-20687201D01*
X46302799Y-20910056D01*
X46477903Y-21172117D01*
X46598514Y-21463297D01*
X46660000Y-21772412D01*
X46660000Y-22087588D01*
X46598514Y-22396703D01*
X46477903Y-22687883D01*
X46302799Y-22949944D01*
X46079944Y-23172799D01*
X45817883Y-23347903D01*
X45526703Y-23468514D01*
X45217588Y-23530000D01*
X44902412Y-23530000D01*
X44593297Y-23468514D01*
X44302117Y-23347903D01*
X44040056Y-23172799D01*
X43817201Y-22949944D01*
X43642097Y-22687883D01*
X43521486Y-22396703D01*
X43460000Y-22087588D01*
X43460000Y-21772412D01*
X43521486Y-21463297D01*
X43642097Y-21172117D01*
X43817201Y-20910056D01*
X44040056Y-20687201D01*
X44302117Y-20512097D01*
X44593297Y-20391486D01*
X44902412Y-20330000D01*
X45217588Y-20330000D01*
X45526703Y-20391486D01*
X45526703Y-20391486D01*
G37*
G36*
X102676703Y-20391486D02*
X102967883Y-20512097D01*
X103229944Y-20687201D01*
X103452799Y-20910056D01*
X103627903Y-21172117D01*
X103748514Y-21463297D01*
X103810000Y-21772412D01*
X103810000Y-22087588D01*
X103748514Y-22396703D01*
X103627903Y-22687883D01*
X103452799Y-22949944D01*
X103229944Y-23172799D01*
X102967883Y-23347903D01*
X102676703Y-23468514D01*
X102367588Y-23530000D01*
X102052412Y-23530000D01*
X101743297Y-23468514D01*
X101452117Y-23347903D01*
X101190056Y-23172799D01*
X100967201Y-22949944D01*
X100792097Y-22687883D01*
X100671486Y-22396703D01*
X100610000Y-22087588D01*
X100610000Y-21772412D01*
X100671486Y-21463297D01*
X100792097Y-21172117D01*
X100967201Y-20910056D01*
X101190056Y-20687201D01*
X101452117Y-20512097D01*
X101743297Y-20391486D01*
X102052412Y-20330000D01*
X102367588Y-20330000D01*
X102676703Y-20391486D01*
X102676703Y-20391486D01*
G37*
G36*
X38362198Y-17500717D02*
X38374450Y-17501319D01*
X38392871Y-17501319D01*
X38424754Y-17504459D01*
X38508836Y-17521184D01*
X38525531Y-17526249D01*
X38533595Y-17528695D01*
X38533597Y-17528696D01*
X38539501Y-17530487D01*
X38618708Y-17563295D01*
X38646965Y-17578398D01*
X38718250Y-17626029D01*
X38723022Y-17629946D01*
X38723023Y-17629946D01*
X38738250Y-17642442D01*
X38738253Y-17642445D01*
X38743027Y-17646363D01*
X38803637Y-17706973D01*
X38807555Y-17711747D01*
X38807558Y-17711750D01*
X38820054Y-17726977D01*
X38823971Y-17731750D01*
X38871602Y-17803035D01*
X38886705Y-17831292D01*
X38919513Y-17910499D01*
X38928816Y-17941164D01*
X38945541Y-18025246D01*
X38948681Y-18057129D01*
X38948681Y-18075550D01*
X38949283Y-18087802D01*
X38951089Y-18106140D01*
X38951089Y-18643862D01*
X38949229Y-18662749D01*
X38949229Y-18687254D01*
X38950000Y-18691130D01*
X38950000Y-20121558D01*
X38949229Y-20137251D01*
X38951089Y-20156138D01*
X38951089Y-20693861D01*
X38949283Y-20712198D01*
X38948681Y-20724450D01*
X38948681Y-20742871D01*
X38945541Y-20774754D01*
X38928816Y-20858836D01*
X38919513Y-20889501D01*
X38886705Y-20968708D01*
X38871602Y-20996965D01*
X38823971Y-21068250D01*
X38820054Y-21073022D01*
X38820054Y-21073023D01*
X38807558Y-21088250D01*
X38807555Y-21088253D01*
X38803637Y-21093027D01*
X38743027Y-21153637D01*
X38738253Y-21157555D01*
X38738250Y-21157558D01*
X38723023Y-21170054D01*
X38718250Y-21173971D01*
X38646965Y-21221602D01*
X38618708Y-21236705D01*
X38539501Y-21269513D01*
X38533597Y-21271304D01*
X38533595Y-21271305D01*
X38525531Y-21273751D01*
X38508836Y-21278816D01*
X38424754Y-21295541D01*
X38392871Y-21298681D01*
X38374450Y-21298681D01*
X38362198Y-21299283D01*
X38343861Y-21301089D01*
X37856139Y-21301089D01*
X37837802Y-21299283D01*
X37825550Y-21298681D01*
X37807129Y-21298681D01*
X37775246Y-21295541D01*
X37691164Y-21278816D01*
X37674469Y-21273751D01*
X37666405Y-21271305D01*
X37666403Y-21271304D01*
X37660499Y-21269513D01*
X37581292Y-21236705D01*
X37553035Y-21221602D01*
X37481750Y-21173971D01*
X37476977Y-21170054D01*
X37461750Y-21157558D01*
X37461747Y-21157555D01*
X37456973Y-21153637D01*
X37396363Y-21093027D01*
X37392445Y-21088253D01*
X37392442Y-21088250D01*
X37379946Y-21073023D01*
X37379946Y-21073022D01*
X37376029Y-21068250D01*
X37328398Y-20996965D01*
X37313295Y-20968708D01*
X37280487Y-20889501D01*
X37271184Y-20858836D01*
X37254459Y-20774754D01*
X37251319Y-20742871D01*
X37251319Y-20724450D01*
X37250717Y-20712198D01*
X37248911Y-20693861D01*
X37248911Y-20156138D01*
X37250771Y-20137251D01*
X37250771Y-20112746D01*
X37250000Y-20108870D01*
X37250000Y-18678442D01*
X37250771Y-18662749D01*
X37248911Y-18643862D01*
X37248911Y-18106140D01*
X37250717Y-18087802D01*
X37251319Y-18075550D01*
X37251319Y-18057129D01*
X37254459Y-18025246D01*
X37271184Y-17941164D01*
X37280487Y-17910499D01*
X37313295Y-17831292D01*
X37328398Y-17803035D01*
X37376029Y-17731750D01*
X37379946Y-17726977D01*
X37392442Y-17711750D01*
X37392445Y-17711747D01*
X37396363Y-17706973D01*
X37456973Y-17646363D01*
X37461747Y-17642445D01*
X37461750Y-17642442D01*
X37476977Y-17629946D01*
X37476978Y-17629946D01*
X37481750Y-17626029D01*
X37553035Y-17578398D01*
X37581292Y-17563295D01*
X37660499Y-17530487D01*
X37666403Y-17528696D01*
X37666405Y-17528695D01*
X37674469Y-17526249D01*
X37691164Y-17521184D01*
X37775246Y-17504459D01*
X37807129Y-17501319D01*
X37825550Y-17501319D01*
X37837802Y-17500717D01*
X37856140Y-17498911D01*
X38343860Y-17498911D01*
X38362198Y-17500717D01*
X38362198Y-17500717D01*
G37*
G36*
X32826703Y-17851486D02*
X33117883Y-17972097D01*
X33379944Y-18147201D01*
X33602799Y-18370056D01*
X33777903Y-18632117D01*
X33898514Y-18923297D01*
X33960000Y-19232412D01*
X33960000Y-19547588D01*
X33898514Y-19856703D01*
X33777903Y-20147883D01*
X33602799Y-20409944D01*
X33379944Y-20632799D01*
X33117883Y-20807903D01*
X32826703Y-20928514D01*
X32517588Y-20990000D01*
X32202412Y-20990000D01*
X31893297Y-20928514D01*
X31602117Y-20807903D01*
X31340056Y-20632799D01*
X31117201Y-20409944D01*
X30942097Y-20147883D01*
X30821486Y-19856703D01*
X30760000Y-19547588D01*
X30760000Y-19232412D01*
X30821486Y-18923297D01*
X30942097Y-18632117D01*
X31117201Y-18370056D01*
X31340056Y-18147201D01*
X31602117Y-17972097D01*
X31893297Y-17851486D01*
X32202412Y-17790000D01*
X32517588Y-17790000D01*
X32826703Y-17851486D01*
X32826703Y-17851486D01*
G37*
G36*
X51876703Y-17851486D02*
X52167883Y-17972097D01*
X52429944Y-18147201D01*
X52652799Y-18370056D01*
X52827903Y-18632117D01*
X52948514Y-18923297D01*
X53010000Y-19232412D01*
X53010000Y-19547588D01*
X52948514Y-19856703D01*
X52827903Y-20147883D01*
X52652799Y-20409944D01*
X52429944Y-20632799D01*
X52167883Y-20807903D01*
X51876703Y-20928514D01*
X51567588Y-20990000D01*
X51252412Y-20990000D01*
X50943297Y-20928514D01*
X50652117Y-20807903D01*
X50390056Y-20632799D01*
X50167201Y-20409944D01*
X49992097Y-20147883D01*
X49871486Y-19856703D01*
X49810000Y-19547588D01*
X49810000Y-19232412D01*
X49871486Y-18923297D01*
X49992097Y-18632117D01*
X50167201Y-18370056D01*
X50390056Y-18147201D01*
X50652117Y-17972097D01*
X50943297Y-17851486D01*
X51252412Y-17790000D01*
X51567588Y-17790000D01*
X51876703Y-17851486D01*
X51876703Y-17851486D01*
G37*
G36*
X89976703Y-17851486D02*
X90267883Y-17972097D01*
X90529944Y-18147201D01*
X90752799Y-18370056D01*
X90927903Y-18632117D01*
X91048514Y-18923297D01*
X91110000Y-19232412D01*
X91110000Y-19547588D01*
X91048514Y-19856703D01*
X90927903Y-20147883D01*
X90752799Y-20409944D01*
X90529944Y-20632799D01*
X90267883Y-20807903D01*
X89976703Y-20928514D01*
X89667588Y-20990000D01*
X89352412Y-20990000D01*
X89043297Y-20928514D01*
X88752117Y-20807903D01*
X88490056Y-20632799D01*
X88267201Y-20409944D01*
X88092097Y-20147883D01*
X87971486Y-19856703D01*
X87910000Y-19547588D01*
X87910000Y-19232412D01*
X87971486Y-18923297D01*
X88092097Y-18632117D01*
X88267201Y-18370056D01*
X88490056Y-18147201D01*
X88752117Y-17972097D01*
X89043297Y-17851486D01*
X89352412Y-17790000D01*
X89667588Y-17790000D01*
X89976703Y-17851486D01*
X89976703Y-17851486D01*
G37*
G36*
X70926703Y-17851486D02*
X71217883Y-17972097D01*
X71479944Y-18147201D01*
X71702799Y-18370056D01*
X71877903Y-18632117D01*
X71998514Y-18923297D01*
X72060000Y-19232412D01*
X72060000Y-19547588D01*
X71998514Y-19856703D01*
X71877903Y-20147883D01*
X71702799Y-20409944D01*
X71479944Y-20632799D01*
X71217883Y-20807903D01*
X70926703Y-20928514D01*
X70617588Y-20990000D01*
X70302412Y-20990000D01*
X69993297Y-20928514D01*
X69702117Y-20807903D01*
X69440056Y-20632799D01*
X69217201Y-20409944D01*
X69042097Y-20147883D01*
X68921486Y-19856703D01*
X68860000Y-19547588D01*
X68860000Y-19232412D01*
X68921486Y-18923297D01*
X69042097Y-18632117D01*
X69217201Y-18370056D01*
X69440056Y-18147201D01*
X69702117Y-17972097D01*
X69993297Y-17851486D01*
X70302412Y-17790000D01*
X70617588Y-17790000D01*
X70926703Y-17851486D01*
X70926703Y-17851486D01*
G37*
G36*
X13776703Y-17851486D02*
X14067883Y-17972097D01*
X14329944Y-18147201D01*
X14552799Y-18370056D01*
X14727903Y-18632117D01*
X14848514Y-18923297D01*
X14910000Y-19232412D01*
X14910000Y-19547588D01*
X14848514Y-19856703D01*
X14727903Y-20147883D01*
X14552799Y-20409944D01*
X14329944Y-20632799D01*
X14067883Y-20807903D01*
X13776703Y-20928514D01*
X13467588Y-20990000D01*
X13152412Y-20990000D01*
X12843297Y-20928514D01*
X12552117Y-20807903D01*
X12290056Y-20632799D01*
X12067201Y-20409944D01*
X11892097Y-20147883D01*
X11771486Y-19856703D01*
X11710000Y-19547588D01*
X11710000Y-19232412D01*
X11771486Y-18923297D01*
X11892097Y-18632117D01*
X12067201Y-18370056D01*
X12290056Y-18147201D01*
X12552117Y-17972097D01*
X12843297Y-17851486D01*
X13152412Y-17790000D01*
X13467588Y-17790000D01*
X13776703Y-17851486D01*
X13776703Y-17851486D01*
G37*
G36*
X109026703Y-17851486D02*
X109317883Y-17972097D01*
X109579944Y-18147201D01*
X109802799Y-18370056D01*
X109977903Y-18632117D01*
X110098514Y-18923297D01*
X110160000Y-19232412D01*
X110160000Y-19547588D01*
X110098514Y-19856703D01*
X109977903Y-20147883D01*
X109802799Y-20409944D01*
X109579944Y-20632799D01*
X109317883Y-20807903D01*
X109026703Y-20928514D01*
X108717588Y-20990000D01*
X108402412Y-20990000D01*
X108093297Y-20928514D01*
X107802117Y-20807903D01*
X107540056Y-20632799D01*
X107317201Y-20409944D01*
X107142097Y-20147883D01*
X107021486Y-19856703D01*
X106960000Y-19547588D01*
X106960000Y-19232412D01*
X107021486Y-18923297D01*
X107142097Y-18632117D01*
X107317201Y-18370056D01*
X107540056Y-18147201D01*
X107802117Y-17972097D01*
X108093297Y-17851486D01*
X108402412Y-17790000D01*
X108717588Y-17790000D01*
X109026703Y-17851486D01*
X109026703Y-17851486D01*
G37*
G36*
X86312547Y-14830701D02*
X86694722Y-14989003D01*
X86694723Y-14989004D01*
X87038672Y-15218823D01*
X87331177Y-15511328D01*
X87375459Y-15577601D01*
X87560997Y-15855278D01*
X87719299Y-16237453D01*
X87800000Y-16643167D01*
X87800000Y-17056833D01*
X87719299Y-17462547D01*
X87560997Y-17844722D01*
X87517046Y-17910499D01*
X87331177Y-18188672D01*
X87038672Y-18481177D01*
X86812775Y-18632116D01*
X86694722Y-18710997D01*
X86312547Y-18869299D01*
X85906833Y-18950000D01*
X85493167Y-18950000D01*
X85087453Y-18869299D01*
X84705278Y-18710997D01*
X84587225Y-18632116D01*
X84361328Y-18481177D01*
X84068823Y-18188672D01*
X83882954Y-17910499D01*
X83839003Y-17844722D01*
X83680701Y-17462547D01*
X83600000Y-17056833D01*
X83600000Y-16643167D01*
X83680701Y-16237453D01*
X83839003Y-15855278D01*
X84024541Y-15577601D01*
X84068823Y-15511328D01*
X84361328Y-15218823D01*
X84705277Y-14989004D01*
X84705278Y-14989003D01*
X85087453Y-14830701D01*
X85493167Y-14750000D01*
X85906833Y-14750000D01*
X86312547Y-14830701D01*
X86312547Y-14830701D01*
G37*
G36*
X48212547Y-14830701D02*
X48594722Y-14989003D01*
X48594723Y-14989004D01*
X48938672Y-15218823D01*
X49231177Y-15511328D01*
X49275459Y-15577601D01*
X49460997Y-15855278D01*
X49619299Y-16237453D01*
X49700000Y-16643167D01*
X49700000Y-17056833D01*
X49619299Y-17462547D01*
X49460997Y-17844722D01*
X49417046Y-17910499D01*
X49231177Y-18188672D01*
X48938672Y-18481177D01*
X48712775Y-18632116D01*
X48594722Y-18710997D01*
X48212547Y-18869299D01*
X47806833Y-18950000D01*
X47393167Y-18950000D01*
X46987453Y-18869299D01*
X46605278Y-18710997D01*
X46487225Y-18632116D01*
X46261328Y-18481177D01*
X45968823Y-18188672D01*
X45782954Y-17910499D01*
X45739003Y-17844722D01*
X45580701Y-17462547D01*
X45500000Y-17056833D01*
X45500000Y-16643167D01*
X45580701Y-16237453D01*
X45739003Y-15855278D01*
X45924541Y-15577601D01*
X45968823Y-15511328D01*
X46261328Y-15218823D01*
X46605277Y-14989004D01*
X46605278Y-14989003D01*
X46987453Y-14830701D01*
X47393167Y-14750000D01*
X47806833Y-14750000D01*
X48212547Y-14830701D01*
X48212547Y-14830701D01*
G37*
G36*
X10112547Y-14830701D02*
X10494722Y-14989003D01*
X10494723Y-14989004D01*
X10838672Y-15218823D01*
X11131177Y-15511328D01*
X11175459Y-15577601D01*
X11360997Y-15855278D01*
X11519299Y-16237453D01*
X11600000Y-16643167D01*
X11600000Y-17056833D01*
X11519299Y-17462547D01*
X11360997Y-17844722D01*
X11317046Y-17910499D01*
X11131177Y-18188672D01*
X10838672Y-18481177D01*
X10612775Y-18632116D01*
X10494722Y-18710997D01*
X10112547Y-18869299D01*
X9706833Y-18950000D01*
X9293167Y-18950000D01*
X8887453Y-18869299D01*
X8505278Y-18710997D01*
X8387225Y-18632116D01*
X8161328Y-18481177D01*
X7868823Y-18188672D01*
X7682954Y-17910499D01*
X7639003Y-17844722D01*
X7480701Y-17462547D01*
X7400000Y-17056833D01*
X7400000Y-16643167D01*
X7480701Y-16237453D01*
X7639003Y-15855278D01*
X7824541Y-15577601D01*
X7868823Y-15511328D01*
X8161328Y-15218823D01*
X8505277Y-14989004D01*
X8505278Y-14989003D01*
X8887453Y-14830701D01*
X9293167Y-14750000D01*
X9706833Y-14750000D01*
X10112547Y-14830701D01*
X10112547Y-14830701D01*
G37*
G36*
X29162547Y-14830701D02*
X29544722Y-14989003D01*
X29544723Y-14989004D01*
X29888672Y-15218823D01*
X30181177Y-15511328D01*
X30225459Y-15577601D01*
X30410997Y-15855278D01*
X30569299Y-16237453D01*
X30650000Y-16643167D01*
X30650000Y-17056833D01*
X30569299Y-17462547D01*
X30410997Y-17844722D01*
X30367046Y-17910499D01*
X30181177Y-18188672D01*
X29888672Y-18481177D01*
X29662775Y-18632116D01*
X29544722Y-18710997D01*
X29162547Y-18869299D01*
X28756833Y-18950000D01*
X28343167Y-18950000D01*
X27937453Y-18869299D01*
X27555278Y-18710997D01*
X27437225Y-18632116D01*
X27211328Y-18481177D01*
X26918823Y-18188672D01*
X26732954Y-17910499D01*
X26689003Y-17844722D01*
X26530701Y-17462547D01*
X26450000Y-17056833D01*
X26450000Y-16643167D01*
X26530701Y-16237453D01*
X26689003Y-15855278D01*
X26874541Y-15577601D01*
X26918823Y-15511328D01*
X27211328Y-15218823D01*
X27555277Y-14989004D01*
X27555278Y-14989003D01*
X27937453Y-14830701D01*
X28343167Y-14750000D01*
X28756833Y-14750000D01*
X29162547Y-14830701D01*
X29162547Y-14830701D01*
G37*
G36*
X67262547Y-14830701D02*
X67644722Y-14989003D01*
X67644723Y-14989004D01*
X67988672Y-15218823D01*
X68281177Y-15511328D01*
X68325459Y-15577601D01*
X68510997Y-15855278D01*
X68669299Y-16237453D01*
X68750000Y-16643167D01*
X68750000Y-17056833D01*
X68669299Y-17462547D01*
X68510997Y-17844722D01*
X68467046Y-17910499D01*
X68281177Y-18188672D01*
X67988672Y-18481177D01*
X67762775Y-18632116D01*
X67644722Y-18710997D01*
X67262547Y-18869299D01*
X66856833Y-18950000D01*
X66443167Y-18950000D01*
X66037453Y-18869299D01*
X65655278Y-18710997D01*
X65537225Y-18632116D01*
X65311328Y-18481177D01*
X65018823Y-18188672D01*
X64832954Y-17910499D01*
X64789003Y-17844722D01*
X64630701Y-17462547D01*
X64550000Y-17056833D01*
X64550000Y-16643167D01*
X64630701Y-16237453D01*
X64789003Y-15855278D01*
X64974541Y-15577601D01*
X65018823Y-15511328D01*
X65311328Y-15218823D01*
X65655277Y-14989004D01*
X65655278Y-14989003D01*
X66037453Y-14830701D01*
X66443167Y-14750000D01*
X66856833Y-14750000D01*
X67262547Y-14830701D01*
X67262547Y-14830701D01*
G37*
G36*
X105362547Y-14830701D02*
X105744722Y-14989003D01*
X105744723Y-14989004D01*
X106088672Y-15218823D01*
X106381177Y-15511328D01*
X106425459Y-15577601D01*
X106610997Y-15855278D01*
X106769299Y-16237453D01*
X106850000Y-16643167D01*
X106850000Y-17056833D01*
X106769299Y-17462547D01*
X106610997Y-17844722D01*
X106567046Y-17910499D01*
X106381177Y-18188672D01*
X106088672Y-18481177D01*
X105862775Y-18632116D01*
X105744722Y-18710997D01*
X105362547Y-18869299D01*
X104956833Y-18950000D01*
X104543167Y-18950000D01*
X104137453Y-18869299D01*
X103755278Y-18710997D01*
X103637225Y-18632116D01*
X103411328Y-18481177D01*
X103118823Y-18188672D01*
X102932954Y-17910499D01*
X102889003Y-17844722D01*
X102730701Y-17462547D01*
X102650000Y-17056833D01*
X102650000Y-16643167D01*
X102730701Y-16237453D01*
X102889003Y-15855278D01*
X103074541Y-15577601D01*
X103118823Y-15511328D01*
X103411328Y-15218823D01*
X103755277Y-14989004D01*
X103755278Y-14989003D01*
X104137453Y-14830701D01*
X104543167Y-14750000D01*
X104956833Y-14750000D01*
X105362547Y-14830701D01*
X105362547Y-14830701D01*
G37*
G36*
X4559451Y-15909127D02*
X4697105Y-15936508D01*
X4869994Y-16008121D01*
X5025590Y-16112087D01*
X5157913Y-16244410D01*
X5261879Y-16400006D01*
X5333492Y-16572895D01*
X5370000Y-16756433D01*
X5370000Y-16943567D01*
X5333492Y-17127105D01*
X5261879Y-17299994D01*
X5157913Y-17455590D01*
X5025590Y-17587913D01*
X4869994Y-17691879D01*
X4697105Y-17763492D01*
X4563840Y-17790000D01*
X4513568Y-17800000D01*
X4326432Y-17800000D01*
X4276160Y-17790000D01*
X4142895Y-17763492D01*
X3970006Y-17691879D01*
X3814410Y-17587913D01*
X3682087Y-17455590D01*
X3578121Y-17299994D01*
X3506508Y-17127105D01*
X3470000Y-16943567D01*
X3470000Y-16756433D01*
X3506508Y-16572895D01*
X3578121Y-16400006D01*
X3682087Y-16244410D01*
X3814410Y-16112087D01*
X3970006Y-16008121D01*
X4142895Y-15936508D01*
X4280549Y-15909127D01*
X4326432Y-15900000D01*
X4513568Y-15900000D01*
X4559451Y-15909127D01*
X4559451Y-15909127D01*
G37*
G36*
X90919451Y-15909127D02*
X91057105Y-15936508D01*
X91229994Y-16008121D01*
X91385590Y-16112087D01*
X91517913Y-16244410D01*
X91621879Y-16400006D01*
X91693492Y-16572895D01*
X91730000Y-16756433D01*
X91730000Y-16943567D01*
X91693492Y-17127105D01*
X91621879Y-17299994D01*
X91517913Y-17455590D01*
X91385590Y-17587913D01*
X91229994Y-17691879D01*
X91057105Y-17763492D01*
X90923840Y-17790000D01*
X90873568Y-17800000D01*
X90686432Y-17800000D01*
X90636160Y-17790000D01*
X90502895Y-17763492D01*
X90330006Y-17691879D01*
X90174410Y-17587913D01*
X90042087Y-17455590D01*
X89938121Y-17299994D01*
X89866508Y-17127105D01*
X89830000Y-16943567D01*
X89830000Y-16756433D01*
X89866508Y-16572895D01*
X89938121Y-16400006D01*
X90042087Y-16244410D01*
X90174410Y-16112087D01*
X90330006Y-16008121D01*
X90502895Y-15936508D01*
X90640549Y-15909127D01*
X90686432Y-15900000D01*
X90873568Y-15900000D01*
X90919451Y-15909127D01*
X90919451Y-15909127D01*
G37*
G36*
X99809451Y-15909127D02*
X99947105Y-15936508D01*
X100119994Y-16008121D01*
X100275590Y-16112087D01*
X100407913Y-16244410D01*
X100511879Y-16400006D01*
X100583492Y-16572895D01*
X100620000Y-16756433D01*
X100620000Y-16943567D01*
X100583492Y-17127105D01*
X100511879Y-17299994D01*
X100407913Y-17455590D01*
X100275590Y-17587913D01*
X100119994Y-17691879D01*
X99947105Y-17763492D01*
X99813840Y-17790000D01*
X99763568Y-17800000D01*
X99576432Y-17800000D01*
X99526160Y-17790000D01*
X99392895Y-17763492D01*
X99220006Y-17691879D01*
X99064410Y-17587913D01*
X98932087Y-17455590D01*
X98828121Y-17299994D01*
X98756508Y-17127105D01*
X98720000Y-16943567D01*
X98720000Y-16756433D01*
X98756508Y-16572895D01*
X98828121Y-16400006D01*
X98932087Y-16244410D01*
X99064410Y-16112087D01*
X99220006Y-16008121D01*
X99392895Y-15936508D01*
X99530549Y-15909127D01*
X99576432Y-15900000D01*
X99763568Y-15900000D01*
X99809451Y-15909127D01*
X99809451Y-15909127D01*
G37*
G36*
X33769451Y-15909127D02*
X33907105Y-15936508D01*
X34079994Y-16008121D01*
X34235590Y-16112087D01*
X34367913Y-16244410D01*
X34471879Y-16400006D01*
X34543492Y-16572895D01*
X34580000Y-16756433D01*
X34580000Y-16943567D01*
X34543492Y-17127105D01*
X34471879Y-17299994D01*
X34367913Y-17455590D01*
X34235590Y-17587913D01*
X34079994Y-17691879D01*
X33907105Y-17763492D01*
X33773840Y-17790000D01*
X33723568Y-17800000D01*
X33536432Y-17800000D01*
X33486160Y-17790000D01*
X33352895Y-17763492D01*
X33180006Y-17691879D01*
X33024410Y-17587913D01*
X32892087Y-17455590D01*
X32788121Y-17299994D01*
X32716508Y-17127105D01*
X32680000Y-16943567D01*
X32680000Y-16756433D01*
X32716508Y-16572895D01*
X32788121Y-16400006D01*
X32892087Y-16244410D01*
X33024410Y-16112087D01*
X33180006Y-16008121D01*
X33352895Y-15936508D01*
X33490549Y-15909127D01*
X33536432Y-15900000D01*
X33723568Y-15900000D01*
X33769451Y-15909127D01*
X33769451Y-15909127D01*
G37*
G36*
X23609451Y-15909127D02*
X23747105Y-15936508D01*
X23919994Y-16008121D01*
X24075590Y-16112087D01*
X24207913Y-16244410D01*
X24311879Y-16400006D01*
X24383492Y-16572895D01*
X24420000Y-16756433D01*
X24420000Y-16943567D01*
X24383492Y-17127105D01*
X24311879Y-17299994D01*
X24207913Y-17455590D01*
X24075590Y-17587913D01*
X23919994Y-17691879D01*
X23747105Y-17763492D01*
X23613840Y-17790000D01*
X23563568Y-17800000D01*
X23376432Y-17800000D01*
X23326160Y-17790000D01*
X23192895Y-17763492D01*
X23020006Y-17691879D01*
X22864410Y-17587913D01*
X22732087Y-17455590D01*
X22628121Y-17299994D01*
X22556508Y-17127105D01*
X22520000Y-16943567D01*
X22520000Y-16756433D01*
X22556508Y-16572895D01*
X22628121Y-16400006D01*
X22732087Y-16244410D01*
X22864410Y-16112087D01*
X23020006Y-16008121D01*
X23192895Y-15936508D01*
X23330549Y-15909127D01*
X23376432Y-15900000D01*
X23563568Y-15900000D01*
X23609451Y-15909127D01*
X23609451Y-15909127D01*
G37*
G36*
X42659451Y-15909127D02*
X42797105Y-15936508D01*
X42969994Y-16008121D01*
X43125590Y-16112087D01*
X43257913Y-16244410D01*
X43361879Y-16400006D01*
X43433492Y-16572895D01*
X43470000Y-16756433D01*
X43470000Y-16943567D01*
X43433492Y-17127105D01*
X43361879Y-17299994D01*
X43257913Y-17455590D01*
X43125590Y-17587913D01*
X42969994Y-17691879D01*
X42797105Y-17763492D01*
X42663840Y-17790000D01*
X42613568Y-17800000D01*
X42426432Y-17800000D01*
X42376160Y-17790000D01*
X42242895Y-17763492D01*
X42070006Y-17691879D01*
X41914410Y-17587913D01*
X41782087Y-17455590D01*
X41678121Y-17299994D01*
X41606508Y-17127105D01*
X41570000Y-16943567D01*
X41570000Y-16756433D01*
X41606508Y-16572895D01*
X41678121Y-16400006D01*
X41782087Y-16244410D01*
X41914410Y-16112087D01*
X42070006Y-16008121D01*
X42242895Y-15936508D01*
X42380549Y-15909127D01*
X42426432Y-15900000D01*
X42613568Y-15900000D01*
X42659451Y-15909127D01*
X42659451Y-15909127D01*
G37*
G36*
X109969451Y-15909127D02*
X110107105Y-15936508D01*
X110279994Y-16008121D01*
X110435590Y-16112087D01*
X110567913Y-16244410D01*
X110671879Y-16400006D01*
X110743492Y-16572895D01*
X110780000Y-16756433D01*
X110780000Y-16943567D01*
X110743492Y-17127105D01*
X110671879Y-17299994D01*
X110567913Y-17455590D01*
X110435590Y-17587913D01*
X110279994Y-17691879D01*
X110107105Y-17763492D01*
X109973840Y-17790000D01*
X109923568Y-17800000D01*
X109736432Y-17800000D01*
X109686160Y-17790000D01*
X109552895Y-17763492D01*
X109380006Y-17691879D01*
X109224410Y-17587913D01*
X109092087Y-17455590D01*
X108988121Y-17299994D01*
X108916508Y-17127105D01*
X108880000Y-16943567D01*
X108880000Y-16756433D01*
X108916508Y-16572895D01*
X108988121Y-16400006D01*
X109092087Y-16244410D01*
X109224410Y-16112087D01*
X109380006Y-16008121D01*
X109552895Y-15936508D01*
X109690549Y-15909127D01*
X109736432Y-15900000D01*
X109923568Y-15900000D01*
X109969451Y-15909127D01*
X109969451Y-15909127D01*
G37*
G36*
X71869451Y-15909127D02*
X72007105Y-15936508D01*
X72179994Y-16008121D01*
X72335590Y-16112087D01*
X72467913Y-16244410D01*
X72571879Y-16400006D01*
X72643492Y-16572895D01*
X72680000Y-16756433D01*
X72680000Y-16943567D01*
X72643492Y-17127105D01*
X72571879Y-17299994D01*
X72467913Y-17455590D01*
X72335590Y-17587913D01*
X72179994Y-17691879D01*
X72007105Y-17763492D01*
X71873840Y-17790000D01*
X71823568Y-17800000D01*
X71636432Y-17800000D01*
X71586160Y-17790000D01*
X71452895Y-17763492D01*
X71280006Y-17691879D01*
X71124410Y-17587913D01*
X70992087Y-17455590D01*
X70888121Y-17299994D01*
X70816508Y-17127105D01*
X70780000Y-16943567D01*
X70780000Y-16756433D01*
X70816508Y-16572895D01*
X70888121Y-16400006D01*
X70992087Y-16244410D01*
X71124410Y-16112087D01*
X71280006Y-16008121D01*
X71452895Y-15936508D01*
X71590549Y-15909127D01*
X71636432Y-15900000D01*
X71823568Y-15900000D01*
X71869451Y-15909127D01*
X71869451Y-15909127D01*
G37*
G36*
X80759451Y-15909127D02*
X80897105Y-15936508D01*
X81069994Y-16008121D01*
X81225590Y-16112087D01*
X81357913Y-16244410D01*
X81461879Y-16400006D01*
X81533492Y-16572895D01*
X81570000Y-16756433D01*
X81570000Y-16943567D01*
X81533492Y-17127105D01*
X81461879Y-17299994D01*
X81357913Y-17455590D01*
X81225590Y-17587913D01*
X81069994Y-17691879D01*
X80897105Y-17763492D01*
X80763840Y-17790000D01*
X80713568Y-17800000D01*
X80526432Y-17800000D01*
X80476160Y-17790000D01*
X80342895Y-17763492D01*
X80170006Y-17691879D01*
X80014410Y-17587913D01*
X79882087Y-17455590D01*
X79778121Y-17299994D01*
X79706508Y-17127105D01*
X79670000Y-16943567D01*
X79670000Y-16756433D01*
X79706508Y-16572895D01*
X79778121Y-16400006D01*
X79882087Y-16244410D01*
X80014410Y-16112087D01*
X80170006Y-16008121D01*
X80342895Y-15936508D01*
X80480549Y-15909127D01*
X80526432Y-15900000D01*
X80713568Y-15900000D01*
X80759451Y-15909127D01*
X80759451Y-15909127D01*
G37*
G36*
X61709451Y-15909127D02*
X61847105Y-15936508D01*
X62019994Y-16008121D01*
X62175590Y-16112087D01*
X62307913Y-16244410D01*
X62411879Y-16400006D01*
X62483492Y-16572895D01*
X62520000Y-16756433D01*
X62520000Y-16943567D01*
X62483492Y-17127105D01*
X62411879Y-17299994D01*
X62307913Y-17455590D01*
X62175590Y-17587913D01*
X62019994Y-17691879D01*
X61847105Y-17763492D01*
X61713840Y-17790000D01*
X61663568Y-17800000D01*
X61476432Y-17800000D01*
X61426160Y-17790000D01*
X61292895Y-17763492D01*
X61120006Y-17691879D01*
X60964410Y-17587913D01*
X60832087Y-17455590D01*
X60728121Y-17299994D01*
X60656508Y-17127105D01*
X60620000Y-16943567D01*
X60620000Y-16756433D01*
X60656508Y-16572895D01*
X60728121Y-16400006D01*
X60832087Y-16244410D01*
X60964410Y-16112087D01*
X61120006Y-16008121D01*
X61292895Y-15936508D01*
X61430549Y-15909127D01*
X61476432Y-15900000D01*
X61663568Y-15900000D01*
X61709451Y-15909127D01*
X61709451Y-15909127D01*
G37*
G36*
X52819451Y-15909127D02*
X52957105Y-15936508D01*
X53129994Y-16008121D01*
X53285590Y-16112087D01*
X53417913Y-16244410D01*
X53521879Y-16400006D01*
X53593492Y-16572895D01*
X53630000Y-16756433D01*
X53630000Y-16943567D01*
X53593492Y-17127105D01*
X53521879Y-17299994D01*
X53417913Y-17455590D01*
X53285590Y-17587913D01*
X53129994Y-17691879D01*
X52957105Y-17763492D01*
X52823840Y-17790000D01*
X52773568Y-17800000D01*
X52586432Y-17800000D01*
X52536160Y-17790000D01*
X52402895Y-17763492D01*
X52230006Y-17691879D01*
X52074410Y-17587913D01*
X51942087Y-17455590D01*
X51838121Y-17299994D01*
X51766508Y-17127105D01*
X51730000Y-16943567D01*
X51730000Y-16756433D01*
X51766508Y-16572895D01*
X51838121Y-16400006D01*
X51942087Y-16244410D01*
X52074410Y-16112087D01*
X52230006Y-16008121D01*
X52402895Y-15936508D01*
X52540549Y-15909127D01*
X52586432Y-15900000D01*
X52773568Y-15900000D01*
X52819451Y-15909127D01*
X52819451Y-15909127D01*
G37*
G36*
X14719451Y-15909127D02*
X14857105Y-15936508D01*
X15029994Y-16008121D01*
X15185590Y-16112087D01*
X15317913Y-16244410D01*
X15421879Y-16400006D01*
X15493492Y-16572895D01*
X15530000Y-16756433D01*
X15530000Y-16943567D01*
X15493492Y-17127105D01*
X15421879Y-17299994D01*
X15317913Y-17455590D01*
X15185590Y-17587913D01*
X15029994Y-17691879D01*
X14857105Y-17763492D01*
X14723840Y-17790000D01*
X14673568Y-17800000D01*
X14486432Y-17800000D01*
X14436160Y-17790000D01*
X14302895Y-17763492D01*
X14130006Y-17691879D01*
X13974410Y-17587913D01*
X13842087Y-17455590D01*
X13738121Y-17299994D01*
X13666508Y-17127105D01*
X13630000Y-16943567D01*
X13630000Y-16756433D01*
X13666508Y-16572895D01*
X13738121Y-16400006D01*
X13842087Y-16244410D01*
X13974410Y-16112087D01*
X14130006Y-16008121D01*
X14302895Y-15936508D01*
X14440549Y-15909127D01*
X14486432Y-15900000D01*
X14673568Y-15900000D01*
X14719451Y-15909127D01*
X14719451Y-15909127D01*
G37*
G36*
X75330969Y-15452326D02*
X75407642Y-15467577D01*
X75515980Y-15512452D01*
X75515981Y-15512453D01*
X75613484Y-15577603D01*
X75696397Y-15660516D01*
X75696399Y-15660519D01*
X75761548Y-15758020D01*
X75806423Y-15866358D01*
X75829300Y-15981368D01*
X75829300Y-16098632D01*
X75806423Y-16213642D01*
X75761548Y-16321980D01*
X75761547Y-16321981D01*
X75696397Y-16419484D01*
X75613484Y-16502397D01*
X75613481Y-16502399D01*
X75515980Y-16567548D01*
X75407642Y-16612423D01*
X75330969Y-16627674D01*
X75292633Y-16635300D01*
X75175367Y-16635300D01*
X75137031Y-16627674D01*
X75060358Y-16612423D01*
X74952020Y-16567548D01*
X74854519Y-16502399D01*
X74854516Y-16502397D01*
X74771603Y-16419484D01*
X74706453Y-16321981D01*
X74706452Y-16321980D01*
X74661577Y-16213642D01*
X74638700Y-16098632D01*
X74638700Y-15981368D01*
X74661577Y-15866358D01*
X74706452Y-15758020D01*
X74771601Y-15660519D01*
X74771603Y-15660516D01*
X74854516Y-15577603D01*
X74952019Y-15512453D01*
X74952020Y-15512452D01*
X75060358Y-15467577D01*
X75137031Y-15452326D01*
X75175367Y-15444700D01*
X75292633Y-15444700D01*
X75330969Y-15452326D01*
X75330969Y-15452326D01*
G37*
G36*
X77362969Y-15452326D02*
X77439642Y-15467577D01*
X77547980Y-15512452D01*
X77547981Y-15512453D01*
X77645484Y-15577603D01*
X77728397Y-15660516D01*
X77728399Y-15660519D01*
X77793548Y-15758020D01*
X77838423Y-15866358D01*
X77861300Y-15981368D01*
X77861300Y-16098632D01*
X77838423Y-16213642D01*
X77793548Y-16321980D01*
X77793547Y-16321981D01*
X77728397Y-16419484D01*
X77645484Y-16502397D01*
X77645481Y-16502399D01*
X77547980Y-16567548D01*
X77439642Y-16612423D01*
X77362969Y-16627674D01*
X77324633Y-16635300D01*
X77207367Y-16635300D01*
X77169031Y-16627674D01*
X77092358Y-16612423D01*
X76984020Y-16567548D01*
X76886519Y-16502399D01*
X76886516Y-16502397D01*
X76803603Y-16419484D01*
X76738453Y-16321981D01*
X76738452Y-16321980D01*
X76693577Y-16213642D01*
X76670700Y-16098632D01*
X76670700Y-15981368D01*
X76693577Y-15866358D01*
X76738452Y-15758020D01*
X76803601Y-15660519D01*
X76803603Y-15660516D01*
X76886516Y-15577603D01*
X76984019Y-15512453D01*
X76984020Y-15512452D01*
X77092358Y-15467577D01*
X77169031Y-15452326D01*
X77207367Y-15444700D01*
X77324633Y-15444700D01*
X77362969Y-15452326D01*
X77362969Y-15452326D01*
G37*
G36*
X95331951Y-11687127D02*
X95469605Y-11714508D01*
X95642494Y-11786121D01*
X95798090Y-11890087D01*
X95930413Y-12022410D01*
X96034379Y-12178006D01*
X96105992Y-12350895D01*
X96142500Y-12534433D01*
X96142500Y-12721567D01*
X96105992Y-12905105D01*
X96034379Y-13077994D01*
X95930413Y-13233590D01*
X95798090Y-13365913D01*
X95642494Y-13469879D01*
X95469605Y-13541492D01*
X95331951Y-13568873D01*
X95286068Y-13578000D01*
X95098932Y-13578000D01*
X95053048Y-13568873D01*
X94915395Y-13541492D01*
X94742506Y-13469879D01*
X94586910Y-13365913D01*
X94454587Y-13233590D01*
X94350621Y-13077994D01*
X94279008Y-12905105D01*
X94242500Y-12721567D01*
X94242500Y-12534433D01*
X94279008Y-12350895D01*
X94350621Y-12178006D01*
X94454587Y-12022410D01*
X94586910Y-11890087D01*
X94742506Y-11786121D01*
X94915395Y-11714508D01*
X95053048Y-11687127D01*
X95098932Y-11678000D01*
X95286068Y-11678000D01*
X95331951Y-11687127D01*
X95331951Y-11687127D01*
G37*
G36*
X76346969Y-10372326D02*
X76423642Y-10387577D01*
X76531980Y-10432452D01*
X76531981Y-10432453D01*
X76629484Y-10497603D01*
X76712397Y-10580516D01*
X76712399Y-10580519D01*
X76777548Y-10678020D01*
X76822423Y-10786358D01*
X76845300Y-10901368D01*
X76845300Y-11018632D01*
X76822423Y-11133642D01*
X76777548Y-11241980D01*
X76777547Y-11241981D01*
X76712397Y-11339484D01*
X76629484Y-11422397D01*
X76629481Y-11422399D01*
X76531980Y-11487548D01*
X76423642Y-11532423D01*
X76346969Y-11547674D01*
X76308633Y-11555300D01*
X76191367Y-11555300D01*
X76153031Y-11547674D01*
X76076358Y-11532423D01*
X75968020Y-11487548D01*
X75870519Y-11422399D01*
X75870516Y-11422397D01*
X75787603Y-11339484D01*
X75722453Y-11241981D01*
X75722452Y-11241980D01*
X75677577Y-11133642D01*
X75654700Y-11018632D01*
X75654700Y-10901368D01*
X75677577Y-10786358D01*
X75722452Y-10678020D01*
X75787601Y-10580519D01*
X75787603Y-10580516D01*
X75870516Y-10497603D01*
X75968019Y-10432453D01*
X75968020Y-10432452D01*
X76076358Y-10387577D01*
X76153031Y-10372326D01*
X76191367Y-10364700D01*
X76308633Y-10364700D01*
X76346969Y-10372326D01*
X76346969Y-10372326D01*
G37*
G36*
X25397621Y-5168682D02*
X25510721Y-5202990D01*
X25614955Y-5258704D01*
X25706317Y-5333683D01*
X25781296Y-5425045D01*
X25837010Y-5529279D01*
X25871318Y-5642379D01*
X25880000Y-5730526D01*
X25880000Y-6889474D01*
X25871318Y-6977621D01*
X25837010Y-7090721D01*
X25781296Y-7194955D01*
X25706317Y-7286317D01*
X25614954Y-7361296D01*
X25510720Y-7417010D01*
X25397620Y-7451318D01*
X25280000Y-7462903D01*
X25162379Y-7451318D01*
X25049279Y-7417010D01*
X24945045Y-7361296D01*
X24853683Y-7286317D01*
X24778704Y-7194954D01*
X24722990Y-7090720D01*
X24688682Y-6977620D01*
X24680000Y-6889473D01*
X24680001Y-5730526D01*
X24688683Y-5642379D01*
X24722991Y-5529279D01*
X24778705Y-5425045D01*
X24853684Y-5333683D01*
X24945046Y-5258704D01*
X25049280Y-5202990D01*
X25162380Y-5168682D01*
X25280000Y-5157097D01*
X25397621Y-5168682D01*
X25397621Y-5168682D01*
G37*
G36*
X34037621Y-5168682D02*
X34150721Y-5202990D01*
X34254955Y-5258704D01*
X34346317Y-5333683D01*
X34421296Y-5425045D01*
X34477010Y-5529279D01*
X34511318Y-5642379D01*
X34520000Y-5730526D01*
X34520000Y-6889474D01*
X34511318Y-6977621D01*
X34477010Y-7090721D01*
X34421296Y-7194955D01*
X34346317Y-7286317D01*
X34254954Y-7361296D01*
X34150720Y-7417010D01*
X34037620Y-7451318D01*
X33920000Y-7462903D01*
X33802379Y-7451318D01*
X33689279Y-7417010D01*
X33585045Y-7361296D01*
X33493683Y-7286317D01*
X33418704Y-7194954D01*
X33362990Y-7090720D01*
X33328682Y-6977620D01*
X33320000Y-6889473D01*
X33320001Y-5730526D01*
X33328683Y-5642379D01*
X33362991Y-5529279D01*
X33418705Y-5425045D01*
X33493684Y-5333683D01*
X33585046Y-5258704D01*
X33689280Y-5202990D01*
X33802380Y-5168682D01*
X33920000Y-5157097D01*
X34037621Y-5168682D01*
X34037621Y-5168682D01*
G37*
G36*
X95331951Y-4687127D02*
X95469605Y-4714508D01*
X95642494Y-4786121D01*
X95798090Y-4890087D01*
X95930413Y-5022410D01*
X96034379Y-5178006D01*
X96105992Y-5350895D01*
X96130782Y-5475523D01*
X96139491Y-5519303D01*
X96142500Y-5534433D01*
X96142500Y-5721567D01*
X96105992Y-5905105D01*
X96034379Y-6077994D01*
X95930413Y-6233590D01*
X95798090Y-6365913D01*
X95642494Y-6469879D01*
X95469605Y-6541492D01*
X95331952Y-6568873D01*
X95286068Y-6578000D01*
X95098932Y-6578000D01*
X95053048Y-6568873D01*
X94915395Y-6541492D01*
X94742506Y-6469879D01*
X94586910Y-6365913D01*
X94454587Y-6233590D01*
X94350621Y-6077994D01*
X94279008Y-5905105D01*
X94242500Y-5721567D01*
X94242500Y-5534433D01*
X94245510Y-5519303D01*
X94254218Y-5475523D01*
X94279008Y-5350895D01*
X94350621Y-5178006D01*
X94454587Y-5022410D01*
X94586910Y-4890087D01*
X94742506Y-4786121D01*
X94915395Y-4714508D01*
X95053049Y-4687127D01*
X95098932Y-4678000D01*
X95286068Y-4678000D01*
X95331951Y-4687127D01*
X95331951Y-4687127D01*
G37*
G36*
X72056448Y-4456873D02*
X72126232Y-4463746D01*
X72215770Y-4490907D01*
X72305309Y-4518068D01*
X72470347Y-4606283D01*
X72615001Y-4724999D01*
X72733717Y-4869653D01*
X72821932Y-5034691D01*
X72821932Y-5034692D01*
X72876254Y-5213768D01*
X72894596Y-5400000D01*
X72887158Y-5475525D01*
X72876254Y-5586231D01*
X72821932Y-5765309D01*
X72733717Y-5930347D01*
X72615001Y-6075001D01*
X72470347Y-6193717D01*
X72305309Y-6281932D01*
X72215770Y-6309093D01*
X72126232Y-6336254D01*
X71986666Y-6350000D01*
X71893334Y-6350000D01*
X71753768Y-6336254D01*
X71664230Y-6309093D01*
X71574691Y-6281932D01*
X71409653Y-6193717D01*
X71264999Y-6075001D01*
X71146283Y-5930347D01*
X71058068Y-5765309D01*
X71003746Y-5586231D01*
X70992843Y-5475525D01*
X70985404Y-5400000D01*
X71003746Y-5213768D01*
X71058068Y-5034692D01*
X71058068Y-5034691D01*
X71146283Y-4869653D01*
X71264999Y-4724999D01*
X71409653Y-4606283D01*
X71574691Y-4518068D01*
X71664230Y-4490907D01*
X71753768Y-4463746D01*
X71823552Y-4456873D01*
X71893334Y-4450000D01*
X71986666Y-4450000D01*
X72056448Y-4456873D01*
X72056448Y-4456873D01*
G37*
G36*
X70350000Y-6350000D02*
X68450000Y-6350000D01*
X68450000Y-4450000D01*
X70350000Y-4450000D01*
X70350000Y-6350000D01*
X70350000Y-6350000D01*
G37*
G36*
X26826676Y-5445372D02*
X26899468Y-5475523D01*
X26964989Y-5519303D01*
X27020697Y-5575011D01*
X27064477Y-5640532D01*
X27094628Y-5713324D01*
X27104969Y-5765309D01*
X27110000Y-5790604D01*
X27110000Y-5869396D01*
X27094628Y-5946676D01*
X27064477Y-6019468D01*
X27020697Y-6084989D01*
X26964989Y-6140697D01*
X26899468Y-6184477D01*
X26826676Y-6214628D01*
X26749397Y-6230000D01*
X26670603Y-6230000D01*
X26593324Y-6214628D01*
X26520532Y-6184477D01*
X26455011Y-6140697D01*
X26399303Y-6084989D01*
X26355523Y-6019468D01*
X26325372Y-5946676D01*
X26310000Y-5869396D01*
X26310000Y-5790604D01*
X26315032Y-5765309D01*
X26325372Y-5713324D01*
X26355523Y-5640532D01*
X26399303Y-5575011D01*
X26455011Y-5519303D01*
X26520532Y-5475523D01*
X26593324Y-5445372D01*
X26670603Y-5430000D01*
X26749397Y-5430000D01*
X26826676Y-5445372D01*
X26826676Y-5445372D01*
G37*
G36*
X32606676Y-5445372D02*
X32679468Y-5475523D01*
X32744989Y-5519303D01*
X32800697Y-5575011D01*
X32844477Y-5640532D01*
X32874628Y-5713324D01*
X32884969Y-5765309D01*
X32890000Y-5790604D01*
X32890000Y-5869396D01*
X32874628Y-5946676D01*
X32844477Y-6019468D01*
X32800697Y-6084989D01*
X32744989Y-6140697D01*
X32679468Y-6184477D01*
X32606676Y-6214628D01*
X32529397Y-6230000D01*
X32450603Y-6230000D01*
X32373324Y-6214628D01*
X32300532Y-6184477D01*
X32235011Y-6140697D01*
X32179303Y-6084989D01*
X32135523Y-6019468D01*
X32105372Y-5946676D01*
X32090000Y-5869396D01*
X32090000Y-5790604D01*
X32095032Y-5765309D01*
X32105372Y-5713324D01*
X32135523Y-5640532D01*
X32179303Y-5575011D01*
X32235011Y-5519303D01*
X32300532Y-5475523D01*
X32373324Y-5445372D01*
X32450603Y-5430000D01*
X32529397Y-5430000D01*
X32606676Y-5445372D01*
X32606676Y-5445372D01*
G37*
G36*
X34057224Y-1050128D02*
X34189175Y-1090155D01*
X34310781Y-1155155D01*
X34417370Y-1242630D01*
X34504845Y-1349219D01*
X34569845Y-1470825D01*
X34609872Y-1602776D01*
X34620000Y-1705610D01*
X34620000Y-2574390D01*
X34609872Y-2677224D01*
X34569845Y-2809175D01*
X34504845Y-2930781D01*
X34417369Y-3037370D01*
X34310780Y-3124845D01*
X34189174Y-3189845D01*
X34057223Y-3229872D01*
X33920000Y-3243387D01*
X33782776Y-3229872D01*
X33650825Y-3189845D01*
X33529219Y-3124845D01*
X33422630Y-3037369D01*
X33335155Y-2930780D01*
X33270155Y-2809174D01*
X33230128Y-2677223D01*
X33220000Y-2574389D01*
X33220000Y-1705610D01*
X33230128Y-1602776D01*
X33270156Y-1470825D01*
X33335156Y-1349219D01*
X33422631Y-1242630D01*
X33529220Y-1155155D01*
X33650826Y-1090155D01*
X33782777Y-1050128D01*
X33920000Y-1036613D01*
X34057224Y-1050128D01*
X34057224Y-1050128D01*
G37*
G36*
X25417224Y-1050128D02*
X25549175Y-1090155D01*
X25670781Y-1155155D01*
X25777370Y-1242630D01*
X25864845Y-1349219D01*
X25929845Y-1470825D01*
X25969872Y-1602776D01*
X25980000Y-1705610D01*
X25980000Y-2574390D01*
X25969872Y-2677224D01*
X25929845Y-2809175D01*
X25864845Y-2930781D01*
X25777369Y-3037370D01*
X25670780Y-3124845D01*
X25549174Y-3189845D01*
X25417223Y-3229872D01*
X25280000Y-3243387D01*
X25142776Y-3229872D01*
X25010825Y-3189845D01*
X24889219Y-3124845D01*
X24782630Y-3037369D01*
X24695155Y-2930780D01*
X24630155Y-2809174D01*
X24590128Y-2677223D01*
X24580000Y-2574389D01*
X24580000Y-1705610D01*
X24590128Y-1602776D01*
X24630156Y-1470825D01*
X24695156Y-1349219D01*
X24782631Y-1242630D01*
X24889220Y-1155155D01*
X25010826Y-1090155D01*
X25142777Y-1050128D01*
X25280000Y-1036613D01*
X25417224Y-1050128D01*
X25417224Y-1050128D01*
G37*
M02*
