M48
;DRILL file {KiCad 5.0.2-5.fc29} date 2019-03-27T11:56:38 CET
;FORMAT={-:-/ absolute / inch / decimal}
FMAT,2
INCH,TZ
T1C0.0157
T2C0.0236
T3C0.0394
%
G90
G05
T1
X0.0472Y-2.6535
X0.0472Y-2.9134
X0.0709Y-0.6535
X0.0984Y-1.0394
X0.1201Y-2.7103
X0.2126Y-1.0394
X0.274Y-0.4983
X0.2756Y-2.6693
X0.4783Y-0.5984
X0.4882Y-1.9252
X0.502Y-1.3602
X0.5472Y-3.0354
X0.591Y-0.5503
X0.6101Y-2.3653
X0.676Y-0.6353
X0.6851Y-1.6103
X0.7126Y-0.874
X0.7201Y-2.7403
X0.7441Y-0.4134
X0.7913Y-1.7283
X0.7913Y-1.8189
X0.7953Y-0.874
X0.7992Y-0.7008
X0.8031Y-0.4134
X0.8622Y-2.9961
X0.8751Y-0.7753
X0.8751Y-1.5253
X0.9252Y-1.7244
X0.9409Y-2.4646
X0.9449Y-1.5157
X0.9606Y-0.9449
X0.9901Y-2.9953
X0.9961Y-1.3386
X1.002Y-1.4843
X1.0689Y-1.248
X1.0709Y-0.3406
X1.0709Y-0.374
X1.0787Y-0.4685
X1.122Y-0.3346
X1.1457Y-0.4094
X1.1535Y-2.5906
X1.185Y-0.4094
X1.2047Y-0.4685
X1.2047Y-1.189
X1.2087Y-0.3346
X1.2251Y-2.3853
X1.2283Y-0.5846
X1.2402Y-1.9803
X1.2551Y-2.9953
X1.2559Y-1.6496
X1.2598Y-0.3406
X1.2598Y-0.374
X1.3031Y-1.1417
X1.378Y-0.4803
X1.378Y-0.5709
X1.3976Y-0.9449
X1.4488Y-1.3661
X1.4801Y-3.0396
X1.4921Y-1.1024
X1.5079Y-1.0157
X1.5157Y-2.5906
X1.5315Y-0.0846
X1.5354Y-2.4724
X1.5401Y-1.8096
X1.561Y-0.9488
X1.5689Y-0.3091
X1.5851Y-2.7053
X1.5951Y-0.7553
X1.6535Y-1.0157
X1.6535Y-1.7638
X1.6575Y-1.5039
X1.748Y-0.9646
X1.7756Y-2.9961
X1.7913Y-0.3583
X1.7953Y-0.5827
X1.7992Y-2.6772
X1.8071Y-1.2165
X1.8228Y-1.9528
X1.874Y-0.2717
X1.9094Y-1.
X1.9252Y-0.3583
X1.9701Y-0.8803
X2.0276Y-1.1102
X2.0669Y-0.5551
X2.0709Y-0.3307
X2.0748Y-1.6654
X2.0748Y-1.7677
X2.0984Y-1.
X2.122Y-0.622
X2.1339Y-0.252
X2.1651Y-0.8503
X2.1651Y-1.4203
X2.1651Y-2.3453
X2.1811Y-0.6811
X2.2323Y-0.6378
X2.2323Y-2.8386
X2.2468Y-0.4399
X2.248Y-2.6772
X2.2756Y-0.6732
X2.3031Y-0.1496
X2.3228Y-0.185
X2.3351Y-0.9553
X2.3386Y-0.2283
X2.3543Y-0.6378
X2.378Y-0.2559
X2.3819Y-2.5596
X2.3851Y-1.6953
X2.3901Y-2.4503
X2.4114Y-0.9783
X2.436Y-0.4853
X2.437Y-1.0984
X2.44Y-0.251
X2.4801Y-2.9853
X2.4882Y-0.5984
X2.5315Y-0.4134
X2.5354Y-0.2126
X2.5709Y-0.4134
X2.5787Y-1.1476
X2.5866Y-2.7835
X2.6299Y-1.2244
X2.6417Y-0.1969
X2.6535Y-0.2362
X2.6713Y-1.1772
X2.6732Y-1.937
X2.7087Y-0.8976
X2.7224Y-1.1791
X2.7343Y-1.2776
X2.7402Y-0.437
X2.7441Y-2.6024
X2.7461Y-1.4114
X2.752Y-2.8701
X2.752Y-2.9882
X2.7677Y-0.878
X2.7756Y-0.3937
X2.8268Y-0.3386
X2.8386Y-0.8425
X2.8976Y-1.3819
X2.9016Y-0.5
X2.9055Y-1.0394
X2.9055Y-1.1614
X2.9094Y-0.5669
X2.9331Y-0.8937
X2.9449Y-0.2323
X2.9764Y-2.6083
X2.9921Y-0.7598
X2.9921Y-2.7992
X3.0079Y-1.9409
X3.0197Y-1.685
X3.0256Y-0.3307
X3.0276Y-2.6083
X3.0354Y-2.4783
X3.0512Y-1.0394
X3.0551Y-1.1614
X3.0787Y-0.7205
X3.0827Y-0.4291
X3.0866Y-1.3937
X3.1142Y-0.5079
X3.122Y-1.2638
X3.1417Y-0.6024
X3.1654Y-1.3425
X3.185Y-1.0551
X3.185Y-2.7087
X3.2165Y-1.2362
X3.2451Y-3.0353
X3.252Y-2.0945
X3.252Y-2.2441
X3.2539Y-0.6909
X3.2677Y-0.5197
X3.2677Y-1.1181
X3.2953Y-1.311
X3.3001Y-0.0886
X3.3301Y-2.7803
X3.3511Y-0.2603
X3.3622Y-0.5433
X3.3622Y-0.8937
X3.3622Y-1.0276
X3.3976Y-1.5315
X3.4094Y-0.9134
X3.4094Y-1.2362
X3.4094Y-2.3031
X3.4488Y-0.5748
X3.4764Y-0.9213
X3.4961Y-1.4173
X3.5Y-1.2087
X3.5Y-2.1063
X3.5001Y-0.6253
X3.5667Y-0.8937
X3.5751Y-2.3753
X3.6024Y-1.6142
X3.6575Y-0.3504
X3.6651Y-1.4303
X3.7185Y-1.8543
X3.7421Y-1.6811
X3.752Y-2.0394
X3.7795Y-1.8524
X3.7815Y-1.7402
X3.7927Y-0.1495
X3.8451Y-1.5203
X3.8858Y-1.1732
X3.8858Y-2.2598
X3.9094Y-1.0591
X3.9451Y-2.6853
X3.9606Y-0.9843
X3.9961Y-0.7126
X4.0079Y-1.8465
X4.0984Y-1.189
X4.1339Y-0.8504
X4.1496Y-1.8465
X4.2953Y-1.8465
X4.4331Y-0.6496
X4.4331Y-1.6772
X4.4409Y-0.8583
X4.4409Y-1.4094
X4.4409Y-2.1575
X4.4409Y-2.378
T3
X2.7323Y-0.2126
X2.8323Y-0.2126
X2.251Y-1.0353
X2.251Y-1.2951
T2
X0.9953Y-0.0685G85X0.9953Y-0.1
G05
X0.9953Y-0.2268G85X0.9953Y-0.2701
G05
X1.3354Y-0.0685G85X1.3354Y-0.1
G05
X1.3354Y-0.2268G85X1.3354Y-0.2701
G05
T0
M30
