G04 #@! TF.GenerationSoftware,KiCad,Pcbnew,(5.1.2)-2*
G04 #@! TF.CreationDate,2019-10-07T16:48:37+02:00*
G04 #@! TF.ProjectId,vitamins_included,76697461-6d69-46e7-935f-696e636c7564,rev?*
G04 #@! TF.SameCoordinates,Original*
G04 #@! TF.FileFunction,Soldermask,Top*
G04 #@! TF.FilePolarity,Negative*
%FSLAX46Y46*%
G04 Gerber Fmt 4.6, Leading zero omitted, Abs format (unit mm)*
G04 Created by KiCad (PCBNEW (5.1.2)-2) date 2019-10-07 16:48:37*
%MOMM*%
%LPD*%
G04 APERTURE LIST*
%ADD10C,0.400000*%
%ADD11C,0.100000*%
G04 APERTURE END LIST*
D10*
X38950333Y-4980000D02*
G75*
G03X38950333Y-4980000I-150333J0D01*
G01*
D11*
G36*
X40205511Y-5767910D02*
G01*
X39708985Y-5372260D01*
X39930932Y-5543442D01*
X40199258Y-5607446D01*
X40205511Y-5607446D01*
X40471705Y-5548536D01*
X40690359Y-5387776D01*
X40839286Y-5149121D01*
X40896302Y-4856528D01*
X40845308Y-4561415D01*
X40700277Y-4319084D01*
X40483248Y-4154337D01*
X40216261Y-4091975D01*
X40210205Y-4091975D01*
X39942878Y-4152163D01*
X39719454Y-4318508D01*
X39568856Y-4569681D01*
X39488347Y-4623660D01*
X39407245Y-4568024D01*
X39260900Y-4312409D01*
X39038995Y-4141499D01*
X38770582Y-4077606D01*
X38764328Y-4077606D01*
X38498134Y-4136516D01*
X38279481Y-4297276D01*
X38130553Y-4535930D01*
X38073537Y-4828524D01*
X38124531Y-5123611D01*
X38269562Y-5365898D01*
X38486591Y-5530636D01*
X38753578Y-5593077D01*
X38759441Y-5593077D01*
X39026818Y-5532779D01*
X39250337Y-5366161D01*
X39400988Y-5114633D01*
X39481500Y-5060650D01*
X39482283Y-5060650D01*
X39562598Y-5116290D01*
X39708985Y-5372260D01*
X40205511Y-5767910D01*
X40197302Y-5767724D01*
X39914285Y-5712736D01*
X39668049Y-5564118D01*
X39479351Y-5337549D01*
X39287621Y-5558719D01*
X39040741Y-5702349D01*
X38759251Y-5753537D01*
X38751824Y-5753355D01*
X38481238Y-5703725D01*
X38247046Y-5570847D01*
X38063317Y-5370116D01*
X37944123Y-5116929D01*
X37903532Y-4826680D01*
X37950132Y-4538815D01*
X38073686Y-4289090D01*
X38260019Y-4092344D01*
X38494959Y-3963415D01*
X38764332Y-3917142D01*
X38772541Y-3917324D01*
X39055559Y-3972251D01*
X39301796Y-4120686D01*
X39490492Y-4346948D01*
X39682208Y-4126084D01*
X39928987Y-3982638D01*
X40210205Y-3931510D01*
X40218216Y-3931693D01*
X40488708Y-3981235D01*
X40722842Y-4114068D01*
X40906541Y-4314798D01*
X41025725Y-4568030D01*
X41066315Y-4858368D01*
X41019694Y-5146216D01*
X40896103Y-5395905D01*
X40709741Y-5592626D01*
X40474810Y-5721564D01*
X40205511Y-5767910D01*
X40205511Y-5767910D01*
G37*
G36*
X40279789Y-5916520D02*
G01*
X39849792Y-5570753D01*
X40049350Y-5687358D01*
X40272950Y-5730373D01*
X40279789Y-5730373D01*
X40516072Y-5686043D01*
X40722185Y-5562539D01*
X40885705Y-5374090D01*
X40994209Y-5134923D01*
X41035276Y-4859267D01*
X40999659Y-4581412D01*
X40895137Y-4339061D01*
X40734050Y-4146946D01*
X40528739Y-4019797D01*
X40291546Y-3972344D01*
X40284922Y-3972344D01*
X40062384Y-4012199D01*
X39862405Y-4124803D01*
X39698332Y-4299720D01*
X39583507Y-4526510D01*
X39495458Y-4589128D01*
X39406761Y-4524587D01*
X39295710Y-4293990D01*
X39133710Y-4115026D01*
X38934162Y-3998615D01*
X38710470Y-3955676D01*
X38703631Y-3955676D01*
X38467348Y-4000005D01*
X38261236Y-4123509D01*
X38097716Y-4311958D01*
X37989211Y-4551125D01*
X37948144Y-4826781D01*
X37983761Y-5104616D01*
X38088283Y-5346925D01*
X38249371Y-5539009D01*
X38454682Y-5666169D01*
X38691875Y-5713704D01*
X38698286Y-5713704D01*
X38920858Y-5673776D01*
X39120910Y-5560978D01*
X39285057Y-5385787D01*
X39399917Y-5158683D01*
X39487971Y-5096061D01*
X39488826Y-5096061D01*
X39576663Y-5160606D01*
X39687742Y-5391516D01*
X39849792Y-5570753D01*
X40279789Y-5916520D01*
X40270811Y-5916304D01*
X40035785Y-5879356D01*
X39820193Y-5778753D01*
X39633612Y-5622169D01*
X39485620Y-5417278D01*
X39334887Y-5617463D01*
X39147068Y-5769481D01*
X38931640Y-5866040D01*
X38698079Y-5899847D01*
X38689956Y-5899635D01*
X38441001Y-5858847D01*
X38217905Y-5748926D01*
X38029574Y-5580210D01*
X37884912Y-5363034D01*
X37792825Y-5107733D01*
X37762217Y-4824642D01*
X37798424Y-4543752D01*
X37894870Y-4291595D01*
X38042585Y-4078132D01*
X38232598Y-3913326D01*
X38455938Y-3807138D01*
X38703635Y-3769528D01*
X38712614Y-3769740D01*
X38947641Y-3806648D01*
X39163234Y-3907132D01*
X39349814Y-4063516D01*
X39497804Y-4268126D01*
X39648531Y-4068222D01*
X39836303Y-3916404D01*
X40051606Y-3819964D01*
X40284922Y-3786197D01*
X40293684Y-3786408D01*
X40542550Y-3827109D01*
X40765586Y-3936976D01*
X40953880Y-4105673D01*
X41098523Y-4322867D01*
X41190604Y-4578222D01*
X41221212Y-4861402D01*
X41184988Y-5142278D01*
X41088508Y-5394402D01*
X40940761Y-5607833D01*
X40750733Y-5772625D01*
X40527413Y-5878835D01*
X40279789Y-5916520D01*
X40279789Y-5916520D01*
G37*
G36*
X45379619Y-8520470D02*
G01*
X45141632Y-10014492D01*
X44899212Y-10048731D01*
X44648534Y-10105245D01*
X44407826Y-10191341D01*
X44195316Y-10314325D01*
X44029229Y-10481503D01*
X43927793Y-10700183D01*
X43909234Y-10977669D01*
X44121087Y-10747948D01*
X44387690Y-10620945D01*
X44692103Y-10543350D01*
X44679366Y-10812552D01*
X44687290Y-11081557D01*
X44880784Y-10807771D01*
X45114576Y-10620902D01*
X45379617Y-10530129D01*
X45633190Y-10521584D01*
X45796267Y-10469639D01*
X45758737Y-10368508D01*
X45683711Y-10265699D01*
X45691362Y-10104471D01*
X45718478Y-9866118D01*
X45771302Y-9581490D01*
X45856078Y-9281436D01*
X45979049Y-8996808D01*
X46146460Y-8758454D01*
X46212629Y-8755639D01*
X46380529Y-8766779D01*
X46604253Y-8821257D01*
X46837893Y-8948452D01*
X47035541Y-9177746D01*
X47151290Y-9538520D01*
X47178972Y-10060354D01*
X47114930Y-10361555D01*
X47006266Y-10509057D01*
X46900082Y-10569793D01*
X46663664Y-10655098D01*
X46389888Y-10728115D01*
X46105784Y-10807254D01*
X45838384Y-10910926D01*
X45614717Y-11057544D01*
X45461814Y-11265517D01*
X45719128Y-11210700D01*
X45978733Y-11174029D01*
X46240285Y-11151302D01*
X46503439Y-11138316D01*
X46440708Y-11375518D01*
X46398195Y-11616695D01*
X46575569Y-11516745D01*
X46816059Y-11384117D01*
X47098692Y-11261404D01*
X47402496Y-11191202D01*
X47679914Y-11189512D01*
X47855909Y-11133999D01*
X47760635Y-11003928D01*
X47614041Y-10715230D01*
X47606450Y-10456922D01*
X47641462Y-10195676D01*
X47726422Y-9928554D01*
X47868675Y-9652618D01*
X48075566Y-9364929D01*
X48354441Y-9062549D01*
X48534013Y-8901601D01*
X48723666Y-8752434D01*
X48919045Y-8607141D01*
X49115797Y-8457815D01*
X49309569Y-8296549D01*
X49496005Y-8115435D01*
X49670753Y-7906567D01*
X49829458Y-7662037D01*
X49967766Y-7373938D01*
X50081324Y-7034363D01*
X50165778Y-6635405D01*
X50222616Y-6213503D01*
X50254401Y-5822812D01*
X50261689Y-5461187D01*
X50245038Y-5126483D01*
X50205006Y-4816556D01*
X50142149Y-4529259D01*
X50057026Y-4262450D01*
X49950193Y-4013982D01*
X49822209Y-3781711D01*
X49673630Y-3563492D01*
X49505014Y-3357180D01*
X49316919Y-3160631D01*
X49102274Y-2974674D01*
X48857664Y-2802290D01*
X48588414Y-2643863D01*
X48299847Y-2499779D01*
X47997290Y-2370424D01*
X47686066Y-2256184D01*
X47371501Y-2157445D01*
X47058919Y-2074591D01*
X46753645Y-2008008D01*
X46461004Y-1958083D01*
X46186320Y-1925201D01*
X45934918Y-1909748D01*
X45628449Y-1906157D01*
X45340043Y-1914318D01*
X45064261Y-1936191D01*
X44795660Y-1973734D01*
X44528801Y-2028905D01*
X44258243Y-2103663D01*
X43978543Y-2199967D01*
X43684262Y-2319776D01*
X43369958Y-2465049D01*
X43040971Y-2646999D01*
X42775819Y-2829878D01*
X42556529Y-3004701D01*
X42365128Y-3162480D01*
X42183643Y-3294230D01*
X41994101Y-3390963D01*
X41778530Y-3443694D01*
X41518955Y-3443435D01*
X41139630Y-3396666D01*
X40795607Y-3374731D01*
X40485386Y-3378777D01*
X40207466Y-3409952D01*
X39960346Y-3469404D01*
X39742525Y-3558280D01*
X39552504Y-3677729D01*
X39388780Y-3828898D01*
X39249855Y-4012936D01*
X39490000Y-4420000D01*
X39860000Y-4110000D01*
X40550000Y-4000000D01*
X41100000Y-4750000D01*
X40730000Y-5620000D01*
X39930000Y-5660000D01*
X39460000Y-5240000D01*
X38861660Y-5710171D01*
X38879778Y-5937343D01*
X38927524Y-6148608D01*
X39003404Y-6344738D01*
X39105924Y-6526505D01*
X39233590Y-6694682D01*
X39384907Y-6850043D01*
X39558380Y-6993359D01*
X39752517Y-7125404D01*
X39965822Y-7246950D01*
X40196800Y-7358770D01*
X40443959Y-7461637D01*
X40705803Y-7556324D01*
X40980839Y-7643603D01*
X41267571Y-7724248D01*
X41564507Y-7799030D01*
X41870150Y-7868723D01*
X42183008Y-7934100D01*
X42501585Y-7995933D01*
X42824388Y-8054995D01*
X43149923Y-8112059D01*
X43476694Y-8167897D01*
X43803208Y-8223283D01*
X44127971Y-8278989D01*
X44449487Y-8335788D01*
X44766263Y-8394453D01*
X45076805Y-8455756D01*
X45379619Y-8520470D01*
X45379619Y-8520470D01*
G37*
D10*
X40250333Y-4970000D02*
G75*
G03X40250333Y-4970000I-150333J0D01*
G01*
D11*
G36*
X93151703Y-77541486D02*
G01*
X93442883Y-77662097D01*
X93704940Y-77837198D01*
X93927802Y-78060060D01*
X94102903Y-78322117D01*
X94223514Y-78613297D01*
X94285000Y-78922412D01*
X94285000Y-79237588D01*
X94223514Y-79546703D01*
X94102903Y-79837883D01*
X93927802Y-80099940D01*
X93704940Y-80322802D01*
X93442883Y-80497903D01*
X93151703Y-80618514D01*
X92842588Y-80680000D01*
X92527412Y-80680000D01*
X92218297Y-80618514D01*
X91927117Y-80497903D01*
X91665060Y-80322802D01*
X91442198Y-80099940D01*
X91267097Y-79837883D01*
X91146486Y-79546703D01*
X91085000Y-79237588D01*
X91085000Y-78922412D01*
X91146486Y-78613297D01*
X91267097Y-78322117D01*
X91442198Y-78060060D01*
X91665060Y-77837198D01*
X91927117Y-77662097D01*
X92218297Y-77541486D01*
X92527412Y-77480000D01*
X92842588Y-77480000D01*
X93151703Y-77541486D01*
X93151703Y-77541486D01*
G37*
G36*
X101406703Y-69921486D02*
G01*
X101697883Y-70042097D01*
X101959940Y-70217198D01*
X102182802Y-70440060D01*
X102357903Y-70702117D01*
X102478514Y-70993297D01*
X102540000Y-71302412D01*
X102540000Y-71617588D01*
X102478514Y-71926703D01*
X102357903Y-72217883D01*
X102182802Y-72479940D01*
X101959940Y-72702802D01*
X101697883Y-72877903D01*
X101406703Y-72998514D01*
X101097588Y-73060000D01*
X101010277Y-73060000D01*
X100985891Y-73062402D01*
X100962442Y-73069515D01*
X100940831Y-73081066D01*
X100921889Y-73096611D01*
X100906344Y-73115553D01*
X100894793Y-73137164D01*
X100887680Y-73160613D01*
X100885278Y-73184999D01*
X100887680Y-73209385D01*
X100894793Y-73232834D01*
X100906344Y-73254445D01*
X100921884Y-73273381D01*
X101042913Y-73394410D01*
X101146879Y-73550006D01*
X101218492Y-73722895D01*
X101255000Y-73906433D01*
X101255000Y-74093567D01*
X101218492Y-74277105D01*
X101146879Y-74449994D01*
X101042913Y-74605590D01*
X100910590Y-74737913D01*
X100754994Y-74841879D01*
X100582105Y-74913492D01*
X100554746Y-74918934D01*
X100398568Y-74950000D01*
X100211432Y-74950000D01*
X100145217Y-74936829D01*
X100027895Y-74913492D01*
X100027893Y-74913491D01*
X100020009Y-74911923D01*
X100011899Y-74909462D01*
X99987513Y-74907058D01*
X99963127Y-74909457D01*
X99955009Y-74911920D01*
X99930909Y-74916714D01*
X99883654Y-74926113D01*
X99860209Y-74933225D01*
X99838599Y-74944776D01*
X99819657Y-74960321D01*
X99804111Y-74979263D01*
X99792560Y-75000874D01*
X99785447Y-75024322D01*
X99783045Y-75048709D01*
X99785447Y-75073095D01*
X99792560Y-75096544D01*
X99804111Y-75118154D01*
X99819656Y-75137096D01*
X99838598Y-75152642D01*
X100054939Y-75297197D01*
X100277802Y-75520060D01*
X100452903Y-75782117D01*
X100573514Y-76073297D01*
X100635000Y-76382412D01*
X100635000Y-76697588D01*
X100573514Y-77006703D01*
X100452903Y-77297883D01*
X100277802Y-77559940D01*
X100054940Y-77782802D01*
X99792883Y-77957903D01*
X99501703Y-78078514D01*
X99192588Y-78140000D01*
X98877412Y-78140000D01*
X98568297Y-78078514D01*
X98277117Y-77957903D01*
X98015060Y-77782802D01*
X97792198Y-77559940D01*
X97617097Y-77297883D01*
X97496486Y-77006703D01*
X97435000Y-76697588D01*
X97435000Y-76382412D01*
X97496486Y-76073297D01*
X97617097Y-75782117D01*
X97792198Y-75520060D01*
X98015060Y-75297198D01*
X98277117Y-75122097D01*
X98568297Y-75001486D01*
X98877412Y-74940000D01*
X98964723Y-74940000D01*
X98989109Y-74937598D01*
X99012558Y-74930485D01*
X99034169Y-74918934D01*
X99053111Y-74903389D01*
X99068656Y-74884447D01*
X99080207Y-74862836D01*
X99087320Y-74839387D01*
X99089722Y-74815001D01*
X99087320Y-74790615D01*
X99080207Y-74767166D01*
X99068656Y-74745555D01*
X99053116Y-74726619D01*
X98932087Y-74605590D01*
X98828121Y-74449994D01*
X98756508Y-74277105D01*
X98720000Y-74093567D01*
X98720000Y-73906433D01*
X98756508Y-73722895D01*
X98828121Y-73550006D01*
X98932087Y-73394410D01*
X99064410Y-73262087D01*
X99220006Y-73158121D01*
X99392895Y-73086508D01*
X99514084Y-73062402D01*
X99576432Y-73050000D01*
X99763568Y-73050000D01*
X99825916Y-73062402D01*
X99947105Y-73086508D01*
X99947107Y-73086509D01*
X99954991Y-73088077D01*
X99963101Y-73090538D01*
X99987487Y-73092942D01*
X100011873Y-73090543D01*
X100019991Y-73088080D01*
X100055254Y-73081066D01*
X100091346Y-73073887D01*
X100114791Y-73066775D01*
X100136401Y-73055224D01*
X100155343Y-73039679D01*
X100170889Y-73020737D01*
X100182440Y-72999126D01*
X100189553Y-72975678D01*
X100191955Y-72951291D01*
X100189553Y-72926905D01*
X100182440Y-72903456D01*
X100170889Y-72881846D01*
X100155344Y-72862904D01*
X100136402Y-72847358D01*
X99920061Y-72702803D01*
X99697198Y-72479940D01*
X99522097Y-72217883D01*
X99401486Y-71926703D01*
X99340000Y-71617588D01*
X99340000Y-71302412D01*
X99401486Y-70993297D01*
X99522097Y-70702117D01*
X99697198Y-70440060D01*
X99920060Y-70217198D01*
X100182117Y-70042097D01*
X100473297Y-69921486D01*
X100782412Y-69860000D01*
X101097588Y-69860000D01*
X101406703Y-69921486D01*
X101406703Y-69921486D01*
G37*
G36*
X86312546Y-71980701D02*
G01*
X86694721Y-72139003D01*
X86694723Y-72139004D01*
X87038672Y-72368823D01*
X87331177Y-72661328D01*
X87556476Y-72998513D01*
X87560997Y-73005279D01*
X87719299Y-73387454D01*
X87800000Y-73793167D01*
X87800000Y-74206833D01*
X87719299Y-74612546D01*
X87606674Y-74884447D01*
X87560996Y-74994723D01*
X87331177Y-75338672D01*
X87038672Y-75631177D01*
X86694723Y-75860996D01*
X86694722Y-75860997D01*
X86694721Y-75860997D01*
X86312546Y-76019299D01*
X85906833Y-76100000D01*
X85493167Y-76100000D01*
X85087454Y-76019299D01*
X84705279Y-75860997D01*
X84705278Y-75860997D01*
X84705277Y-75860996D01*
X84361328Y-75631177D01*
X84068823Y-75338672D01*
X83839004Y-74994723D01*
X83793326Y-74884447D01*
X83680701Y-74612546D01*
X83600000Y-74206833D01*
X83600000Y-73793167D01*
X83680701Y-73387454D01*
X83839003Y-73005279D01*
X83843524Y-72998513D01*
X84068823Y-72661328D01*
X84361328Y-72368823D01*
X84705277Y-72139004D01*
X84705279Y-72139003D01*
X85087454Y-71980701D01*
X85493167Y-71900000D01*
X85906833Y-71900000D01*
X86312546Y-71980701D01*
X86312546Y-71980701D01*
G37*
G36*
X48212546Y-71980701D02*
G01*
X48594721Y-72139003D01*
X48594723Y-72139004D01*
X48938672Y-72368823D01*
X49231177Y-72661328D01*
X49456476Y-72998513D01*
X49460997Y-73005279D01*
X49619299Y-73387454D01*
X49700000Y-73793167D01*
X49700000Y-74206833D01*
X49619299Y-74612546D01*
X49506674Y-74884447D01*
X49460996Y-74994723D01*
X49231177Y-75338672D01*
X48938672Y-75631177D01*
X48594723Y-75860996D01*
X48594722Y-75860997D01*
X48594721Y-75860997D01*
X48212546Y-76019299D01*
X47806833Y-76100000D01*
X47393167Y-76100000D01*
X46987454Y-76019299D01*
X46605279Y-75860997D01*
X46605278Y-75860997D01*
X46605277Y-75860996D01*
X46261328Y-75631177D01*
X45968823Y-75338672D01*
X45739004Y-74994723D01*
X45693326Y-74884447D01*
X45580701Y-74612546D01*
X45500000Y-74206833D01*
X45500000Y-73793167D01*
X45580701Y-73387454D01*
X45739003Y-73005279D01*
X45743524Y-72998513D01*
X45968823Y-72661328D01*
X46261328Y-72368823D01*
X46605277Y-72139004D01*
X46605279Y-72139003D01*
X46987454Y-71980701D01*
X47393167Y-71900000D01*
X47806833Y-71900000D01*
X48212546Y-71980701D01*
X48212546Y-71980701D01*
G37*
G36*
X29162546Y-71980701D02*
G01*
X29544721Y-72139003D01*
X29544723Y-72139004D01*
X29888672Y-72368823D01*
X30181177Y-72661328D01*
X30406476Y-72998513D01*
X30410997Y-73005279D01*
X30569299Y-73387454D01*
X30650000Y-73793167D01*
X30650000Y-74206833D01*
X30569299Y-74612546D01*
X30456674Y-74884447D01*
X30410996Y-74994723D01*
X30181177Y-75338672D01*
X29888672Y-75631177D01*
X29544723Y-75860996D01*
X29544722Y-75860997D01*
X29544721Y-75860997D01*
X29162546Y-76019299D01*
X28756833Y-76100000D01*
X28343167Y-76100000D01*
X27937454Y-76019299D01*
X27555279Y-75860997D01*
X27555278Y-75860997D01*
X27555277Y-75860996D01*
X27211328Y-75631177D01*
X26918823Y-75338672D01*
X26689004Y-74994723D01*
X26643326Y-74884447D01*
X26530701Y-74612546D01*
X26450000Y-74206833D01*
X26450000Y-73793167D01*
X26530701Y-73387454D01*
X26689003Y-73005279D01*
X26693524Y-72998513D01*
X26918823Y-72661328D01*
X27211328Y-72368823D01*
X27555277Y-72139004D01*
X27555279Y-72139003D01*
X27937454Y-71980701D01*
X28343167Y-71900000D01*
X28756833Y-71900000D01*
X29162546Y-71980701D01*
X29162546Y-71980701D01*
G37*
G36*
X105362546Y-71980701D02*
G01*
X105744721Y-72139003D01*
X105744723Y-72139004D01*
X106088672Y-72368823D01*
X106381177Y-72661328D01*
X106606476Y-72998513D01*
X106610997Y-73005279D01*
X106769299Y-73387454D01*
X106850000Y-73793167D01*
X106850000Y-74206833D01*
X106769299Y-74612546D01*
X106656674Y-74884447D01*
X106610996Y-74994723D01*
X106381177Y-75338672D01*
X106088672Y-75631177D01*
X105744723Y-75860996D01*
X105744722Y-75860997D01*
X105744721Y-75860997D01*
X105362546Y-76019299D01*
X104956833Y-76100000D01*
X104543167Y-76100000D01*
X104137454Y-76019299D01*
X103755279Y-75860997D01*
X103755278Y-75860997D01*
X103755277Y-75860996D01*
X103411328Y-75631177D01*
X103118823Y-75338672D01*
X102889004Y-74994723D01*
X102843326Y-74884447D01*
X102730701Y-74612546D01*
X102650000Y-74206833D01*
X102650000Y-73793167D01*
X102730701Y-73387454D01*
X102889003Y-73005279D01*
X102893524Y-72998513D01*
X103118823Y-72661328D01*
X103411328Y-72368823D01*
X103755277Y-72139004D01*
X103755279Y-72139003D01*
X104137454Y-71980701D01*
X104543167Y-71900000D01*
X104956833Y-71900000D01*
X105362546Y-71980701D01*
X105362546Y-71980701D01*
G37*
G36*
X67262546Y-71980701D02*
G01*
X67644721Y-72139003D01*
X67644723Y-72139004D01*
X67988672Y-72368823D01*
X68281177Y-72661328D01*
X68506476Y-72998513D01*
X68510997Y-73005279D01*
X68669299Y-73387454D01*
X68750000Y-73793167D01*
X68750000Y-74206833D01*
X68669299Y-74612546D01*
X68556674Y-74884447D01*
X68510996Y-74994723D01*
X68281177Y-75338672D01*
X67988672Y-75631177D01*
X67644723Y-75860996D01*
X67644722Y-75860997D01*
X67644721Y-75860997D01*
X67262546Y-76019299D01*
X66856833Y-76100000D01*
X66443167Y-76100000D01*
X66037454Y-76019299D01*
X65655279Y-75860997D01*
X65655278Y-75860997D01*
X65655277Y-75860996D01*
X65311328Y-75631177D01*
X65018823Y-75338672D01*
X64789004Y-74994723D01*
X64743326Y-74884447D01*
X64630701Y-74612546D01*
X64550000Y-74206833D01*
X64550000Y-73793167D01*
X64630701Y-73387454D01*
X64789003Y-73005279D01*
X64793524Y-72998513D01*
X65018823Y-72661328D01*
X65311328Y-72368823D01*
X65655277Y-72139004D01*
X65655279Y-72139003D01*
X66037454Y-71980701D01*
X66443167Y-71900000D01*
X66856833Y-71900000D01*
X67262546Y-71980701D01*
X67262546Y-71980701D01*
G37*
G36*
X10112546Y-71980701D02*
G01*
X10494721Y-72139003D01*
X10494723Y-72139004D01*
X10838672Y-72368823D01*
X11131177Y-72661328D01*
X11356476Y-72998513D01*
X11360997Y-73005279D01*
X11519299Y-73387454D01*
X11600000Y-73793167D01*
X11600000Y-74206833D01*
X11519299Y-74612546D01*
X11406674Y-74884447D01*
X11360996Y-74994723D01*
X11131177Y-75338672D01*
X10838672Y-75631177D01*
X10494723Y-75860996D01*
X10494722Y-75860997D01*
X10494721Y-75860997D01*
X10112546Y-76019299D01*
X9706833Y-76100000D01*
X9293167Y-76100000D01*
X8887454Y-76019299D01*
X8505279Y-75860997D01*
X8505278Y-75860997D01*
X8505277Y-75860996D01*
X8161328Y-75631177D01*
X7868823Y-75338672D01*
X7639004Y-74994723D01*
X7593326Y-74884447D01*
X7480701Y-74612546D01*
X7400000Y-74206833D01*
X7400000Y-73793167D01*
X7480701Y-73387454D01*
X7639003Y-73005279D01*
X7643524Y-72998513D01*
X7868823Y-72661328D01*
X8161328Y-72368823D01*
X8505277Y-72139004D01*
X8505279Y-72139003D01*
X8887454Y-71980701D01*
X9293167Y-71900000D01*
X9706833Y-71900000D01*
X10112546Y-71980701D01*
X10112546Y-71980701D01*
G37*
G36*
X95837546Y-71980701D02*
G01*
X96219721Y-72139003D01*
X96219723Y-72139004D01*
X96563672Y-72368823D01*
X96856177Y-72661328D01*
X97081476Y-72998513D01*
X97085997Y-73005279D01*
X97244299Y-73387454D01*
X97325000Y-73793167D01*
X97325000Y-74206833D01*
X97244299Y-74612546D01*
X97131674Y-74884447D01*
X97085996Y-74994723D01*
X96856177Y-75338672D01*
X96563672Y-75631177D01*
X96219723Y-75860996D01*
X96219722Y-75860997D01*
X96219721Y-75860997D01*
X95837546Y-76019299D01*
X95431833Y-76100000D01*
X95018167Y-76100000D01*
X94612454Y-76019299D01*
X94230279Y-75860997D01*
X94230278Y-75860997D01*
X94230277Y-75860996D01*
X93886328Y-75631177D01*
X93593823Y-75338672D01*
X93364004Y-74994723D01*
X93318326Y-74884447D01*
X93205701Y-74612546D01*
X93125000Y-74206833D01*
X93125000Y-73793167D01*
X93205701Y-73387454D01*
X93364003Y-73005279D01*
X93368524Y-72998513D01*
X93593823Y-72661328D01*
X93886328Y-72368823D01*
X94230277Y-72139004D01*
X94230279Y-72139003D01*
X94612454Y-71980701D01*
X95018167Y-71900000D01*
X95431833Y-71900000D01*
X95837546Y-71980701D01*
X95837546Y-71980701D01*
G37*
G36*
X4575916Y-73062402D02*
G01*
X4697105Y-73086508D01*
X4869994Y-73158121D01*
X5025590Y-73262087D01*
X5157913Y-73394410D01*
X5261879Y-73550006D01*
X5333492Y-73722895D01*
X5370000Y-73906433D01*
X5370000Y-74093567D01*
X5333492Y-74277105D01*
X5261879Y-74449994D01*
X5157913Y-74605590D01*
X5025590Y-74737913D01*
X4869994Y-74841879D01*
X4697105Y-74913492D01*
X4669746Y-74918934D01*
X4513568Y-74950000D01*
X4326432Y-74950000D01*
X4170254Y-74918934D01*
X4142895Y-74913492D01*
X3970006Y-74841879D01*
X3814410Y-74737913D01*
X3682087Y-74605590D01*
X3578121Y-74449994D01*
X3506508Y-74277105D01*
X3470000Y-74093567D01*
X3470000Y-73906433D01*
X3506508Y-73722895D01*
X3578121Y-73550006D01*
X3682087Y-73394410D01*
X3814410Y-73262087D01*
X3970006Y-73158121D01*
X4142895Y-73086508D01*
X4264084Y-73062402D01*
X4326432Y-73050000D01*
X4513568Y-73050000D01*
X4575916Y-73062402D01*
X4575916Y-73062402D01*
G37*
G36*
X14735916Y-73062402D02*
G01*
X14857105Y-73086508D01*
X15029994Y-73158121D01*
X15185590Y-73262087D01*
X15317913Y-73394410D01*
X15421879Y-73550006D01*
X15493492Y-73722895D01*
X15530000Y-73906433D01*
X15530000Y-74093567D01*
X15493492Y-74277105D01*
X15421879Y-74449994D01*
X15317913Y-74605590D01*
X15185590Y-74737913D01*
X15029994Y-74841879D01*
X14857105Y-74913492D01*
X14829746Y-74918934D01*
X14673568Y-74950000D01*
X14486432Y-74950000D01*
X14330254Y-74918934D01*
X14302895Y-74913492D01*
X14130006Y-74841879D01*
X13974410Y-74737913D01*
X13842087Y-74605590D01*
X13738121Y-74449994D01*
X13666508Y-74277105D01*
X13630000Y-74093567D01*
X13630000Y-73906433D01*
X13666508Y-73722895D01*
X13738121Y-73550006D01*
X13842087Y-73394410D01*
X13974410Y-73262087D01*
X14130006Y-73158121D01*
X14302895Y-73086508D01*
X14424084Y-73062402D01*
X14486432Y-73050000D01*
X14673568Y-73050000D01*
X14735916Y-73062402D01*
X14735916Y-73062402D01*
G37*
G36*
X109985916Y-73062402D02*
G01*
X110107105Y-73086508D01*
X110279994Y-73158121D01*
X110435590Y-73262087D01*
X110567913Y-73394410D01*
X110671879Y-73550006D01*
X110743492Y-73722895D01*
X110780000Y-73906433D01*
X110780000Y-74093567D01*
X110743492Y-74277105D01*
X110671879Y-74449994D01*
X110567913Y-74605590D01*
X110435590Y-74737913D01*
X110279994Y-74841879D01*
X110107105Y-74913492D01*
X110079746Y-74918934D01*
X109923568Y-74950000D01*
X109736432Y-74950000D01*
X109580254Y-74918934D01*
X109552895Y-74913492D01*
X109380006Y-74841879D01*
X109224410Y-74737913D01*
X109092087Y-74605590D01*
X108988121Y-74449994D01*
X108916508Y-74277105D01*
X108880000Y-74093567D01*
X108880000Y-73906433D01*
X108916508Y-73722895D01*
X108988121Y-73550006D01*
X109092087Y-73394410D01*
X109224410Y-73262087D01*
X109380006Y-73158121D01*
X109552895Y-73086508D01*
X109674084Y-73062402D01*
X109736432Y-73050000D01*
X109923568Y-73050000D01*
X109985916Y-73062402D01*
X109985916Y-73062402D01*
G37*
G36*
X42675916Y-73062402D02*
G01*
X42797105Y-73086508D01*
X42969994Y-73158121D01*
X43125590Y-73262087D01*
X43257913Y-73394410D01*
X43361879Y-73550006D01*
X43433492Y-73722895D01*
X43470000Y-73906433D01*
X43470000Y-74093567D01*
X43433492Y-74277105D01*
X43361879Y-74449994D01*
X43257913Y-74605590D01*
X43125590Y-74737913D01*
X42969994Y-74841879D01*
X42797105Y-74913492D01*
X42769746Y-74918934D01*
X42613568Y-74950000D01*
X42426432Y-74950000D01*
X42270254Y-74918934D01*
X42242895Y-74913492D01*
X42070006Y-74841879D01*
X41914410Y-74737913D01*
X41782087Y-74605590D01*
X41678121Y-74449994D01*
X41606508Y-74277105D01*
X41570000Y-74093567D01*
X41570000Y-73906433D01*
X41606508Y-73722895D01*
X41678121Y-73550006D01*
X41782087Y-73394410D01*
X41914410Y-73262087D01*
X42070006Y-73158121D01*
X42242895Y-73086508D01*
X42364084Y-73062402D01*
X42426432Y-73050000D01*
X42613568Y-73050000D01*
X42675916Y-73062402D01*
X42675916Y-73062402D01*
G37*
G36*
X52835916Y-73062402D02*
G01*
X52957105Y-73086508D01*
X53129994Y-73158121D01*
X53285590Y-73262087D01*
X53417913Y-73394410D01*
X53521879Y-73550006D01*
X53593492Y-73722895D01*
X53630000Y-73906433D01*
X53630000Y-74093567D01*
X53593492Y-74277105D01*
X53521879Y-74449994D01*
X53417913Y-74605590D01*
X53285590Y-74737913D01*
X53129994Y-74841879D01*
X52957105Y-74913492D01*
X52929746Y-74918934D01*
X52773568Y-74950000D01*
X52586432Y-74950000D01*
X52430254Y-74918934D01*
X52402895Y-74913492D01*
X52230006Y-74841879D01*
X52074410Y-74737913D01*
X51942087Y-74605590D01*
X51838121Y-74449994D01*
X51766508Y-74277105D01*
X51730000Y-74093567D01*
X51730000Y-73906433D01*
X51766508Y-73722895D01*
X51838121Y-73550006D01*
X51942087Y-73394410D01*
X52074410Y-73262087D01*
X52230006Y-73158121D01*
X52402895Y-73086508D01*
X52524084Y-73062402D01*
X52586432Y-73050000D01*
X52773568Y-73050000D01*
X52835916Y-73062402D01*
X52835916Y-73062402D01*
G37*
G36*
X71885916Y-73062402D02*
G01*
X72007105Y-73086508D01*
X72179994Y-73158121D01*
X72335590Y-73262087D01*
X72467913Y-73394410D01*
X72571879Y-73550006D01*
X72643492Y-73722895D01*
X72680000Y-73906433D01*
X72680000Y-74093567D01*
X72643492Y-74277105D01*
X72571879Y-74449994D01*
X72467913Y-74605590D01*
X72335590Y-74737913D01*
X72179994Y-74841879D01*
X72007105Y-74913492D01*
X71979746Y-74918934D01*
X71823568Y-74950000D01*
X71636432Y-74950000D01*
X71480254Y-74918934D01*
X71452895Y-74913492D01*
X71280006Y-74841879D01*
X71124410Y-74737913D01*
X70992087Y-74605590D01*
X70888121Y-74449994D01*
X70816508Y-74277105D01*
X70780000Y-74093567D01*
X70780000Y-73906433D01*
X70816508Y-73722895D01*
X70888121Y-73550006D01*
X70992087Y-73394410D01*
X71124410Y-73262087D01*
X71280006Y-73158121D01*
X71452895Y-73086508D01*
X71574084Y-73062402D01*
X71636432Y-73050000D01*
X71823568Y-73050000D01*
X71885916Y-73062402D01*
X71885916Y-73062402D01*
G37*
G36*
X80775916Y-73062402D02*
G01*
X80897105Y-73086508D01*
X81069994Y-73158121D01*
X81225590Y-73262087D01*
X81357913Y-73394410D01*
X81461879Y-73550006D01*
X81533492Y-73722895D01*
X81570000Y-73906433D01*
X81570000Y-74093567D01*
X81533492Y-74277105D01*
X81461879Y-74449994D01*
X81357913Y-74605590D01*
X81225590Y-74737913D01*
X81069994Y-74841879D01*
X80897105Y-74913492D01*
X80869746Y-74918934D01*
X80713568Y-74950000D01*
X80526432Y-74950000D01*
X80370254Y-74918934D01*
X80342895Y-74913492D01*
X80170006Y-74841879D01*
X80014410Y-74737913D01*
X79882087Y-74605590D01*
X79778121Y-74449994D01*
X79706508Y-74277105D01*
X79670000Y-74093567D01*
X79670000Y-73906433D01*
X79706508Y-73722895D01*
X79778121Y-73550006D01*
X79882087Y-73394410D01*
X80014410Y-73262087D01*
X80170006Y-73158121D01*
X80342895Y-73086508D01*
X80464084Y-73062402D01*
X80526432Y-73050000D01*
X80713568Y-73050000D01*
X80775916Y-73062402D01*
X80775916Y-73062402D01*
G37*
G36*
X90300916Y-73062402D02*
G01*
X90422105Y-73086508D01*
X90422107Y-73086509D01*
X90429991Y-73088077D01*
X90438101Y-73090538D01*
X90462487Y-73092942D01*
X90486873Y-73090543D01*
X90494991Y-73088080D01*
X90686432Y-73050000D01*
X90873568Y-73050000D01*
X90935916Y-73062402D01*
X91057105Y-73086508D01*
X91229994Y-73158121D01*
X91385590Y-73262087D01*
X91517913Y-73394410D01*
X91621879Y-73550006D01*
X91693492Y-73722895D01*
X91730000Y-73906433D01*
X91730000Y-74093567D01*
X91693492Y-74277105D01*
X91621879Y-74449994D01*
X91517913Y-74605590D01*
X91385590Y-74737913D01*
X91229994Y-74841879D01*
X91057105Y-74913492D01*
X91029746Y-74918934D01*
X90873568Y-74950000D01*
X90686432Y-74950000D01*
X90620217Y-74936829D01*
X90502895Y-74913492D01*
X90502893Y-74913491D01*
X90495009Y-74911923D01*
X90486899Y-74909462D01*
X90462513Y-74907058D01*
X90438127Y-74909457D01*
X90430009Y-74911920D01*
X90238568Y-74950000D01*
X90051432Y-74950000D01*
X89895254Y-74918934D01*
X89867895Y-74913492D01*
X89695006Y-74841879D01*
X89539410Y-74737913D01*
X89407087Y-74605590D01*
X89303121Y-74449994D01*
X89231508Y-74277105D01*
X89195000Y-74093567D01*
X89195000Y-73906433D01*
X89231508Y-73722895D01*
X89303121Y-73550006D01*
X89407087Y-73394410D01*
X89539410Y-73262087D01*
X89695006Y-73158121D01*
X89867895Y-73086508D01*
X89989084Y-73062402D01*
X90051432Y-73050000D01*
X90238568Y-73050000D01*
X90300916Y-73062402D01*
X90300916Y-73062402D01*
G37*
G36*
X23625916Y-73062402D02*
G01*
X23747105Y-73086508D01*
X23919994Y-73158121D01*
X24075590Y-73262087D01*
X24207913Y-73394410D01*
X24311879Y-73550006D01*
X24383492Y-73722895D01*
X24420000Y-73906433D01*
X24420000Y-74093567D01*
X24383492Y-74277105D01*
X24311879Y-74449994D01*
X24207913Y-74605590D01*
X24075590Y-74737913D01*
X23919994Y-74841879D01*
X23747105Y-74913492D01*
X23719746Y-74918934D01*
X23563568Y-74950000D01*
X23376432Y-74950000D01*
X23220254Y-74918934D01*
X23192895Y-74913492D01*
X23020006Y-74841879D01*
X22864410Y-74737913D01*
X22732087Y-74605590D01*
X22628121Y-74449994D01*
X22556508Y-74277105D01*
X22520000Y-74093567D01*
X22520000Y-73906433D01*
X22556508Y-73722895D01*
X22628121Y-73550006D01*
X22732087Y-73394410D01*
X22864410Y-73262087D01*
X23020006Y-73158121D01*
X23192895Y-73086508D01*
X23314084Y-73062402D01*
X23376432Y-73050000D01*
X23563568Y-73050000D01*
X23625916Y-73062402D01*
X23625916Y-73062402D01*
G37*
G36*
X33785916Y-73062402D02*
G01*
X33907105Y-73086508D01*
X34079994Y-73158121D01*
X34235590Y-73262087D01*
X34367913Y-73394410D01*
X34471879Y-73550006D01*
X34543492Y-73722895D01*
X34580000Y-73906433D01*
X34580000Y-74093567D01*
X34543492Y-74277105D01*
X34471879Y-74449994D01*
X34367913Y-74605590D01*
X34235590Y-74737913D01*
X34079994Y-74841879D01*
X33907105Y-74913492D01*
X33879746Y-74918934D01*
X33723568Y-74950000D01*
X33536432Y-74950000D01*
X33380254Y-74918934D01*
X33352895Y-74913492D01*
X33180006Y-74841879D01*
X33024410Y-74737913D01*
X32892087Y-74605590D01*
X32788121Y-74449994D01*
X32716508Y-74277105D01*
X32680000Y-74093567D01*
X32680000Y-73906433D01*
X32716508Y-73722895D01*
X32788121Y-73550006D01*
X32892087Y-73394410D01*
X33024410Y-73262087D01*
X33180006Y-73158121D01*
X33352895Y-73086508D01*
X33474084Y-73062402D01*
X33536432Y-73050000D01*
X33723568Y-73050000D01*
X33785916Y-73062402D01*
X33785916Y-73062402D01*
G37*
G36*
X61725916Y-73062402D02*
G01*
X61847105Y-73086508D01*
X62019994Y-73158121D01*
X62175590Y-73262087D01*
X62307913Y-73394410D01*
X62411879Y-73550006D01*
X62483492Y-73722895D01*
X62520000Y-73906433D01*
X62520000Y-74093567D01*
X62483492Y-74277105D01*
X62411879Y-74449994D01*
X62307913Y-74605590D01*
X62175590Y-74737913D01*
X62019994Y-74841879D01*
X61847105Y-74913492D01*
X61819746Y-74918934D01*
X61663568Y-74950000D01*
X61476432Y-74950000D01*
X61320254Y-74918934D01*
X61292895Y-74913492D01*
X61120006Y-74841879D01*
X60964410Y-74737913D01*
X60832087Y-74605590D01*
X60728121Y-74449994D01*
X60656508Y-74277105D01*
X60620000Y-74093567D01*
X60620000Y-73906433D01*
X60656508Y-73722895D01*
X60728121Y-73550006D01*
X60832087Y-73394410D01*
X60964410Y-73262087D01*
X61120006Y-73158121D01*
X61292895Y-73086508D01*
X61414084Y-73062402D01*
X61476432Y-73050000D01*
X61663568Y-73050000D01*
X61725916Y-73062402D01*
X61725916Y-73062402D01*
G37*
G36*
X63306703Y-69921486D02*
G01*
X63597883Y-70042097D01*
X63859940Y-70217198D01*
X64082802Y-70440060D01*
X64257903Y-70702117D01*
X64378514Y-70993297D01*
X64440000Y-71302412D01*
X64440000Y-71617588D01*
X64378514Y-71926703D01*
X64257903Y-72217883D01*
X64082802Y-72479940D01*
X63859940Y-72702802D01*
X63597883Y-72877903D01*
X63306703Y-72998514D01*
X62997588Y-73060000D01*
X62682412Y-73060000D01*
X62373297Y-72998514D01*
X62082117Y-72877903D01*
X61820060Y-72702802D01*
X61597198Y-72479940D01*
X61422097Y-72217883D01*
X61301486Y-71926703D01*
X61240000Y-71617588D01*
X61240000Y-71302412D01*
X61301486Y-70993297D01*
X61422097Y-70702117D01*
X61597198Y-70440060D01*
X61820060Y-70217198D01*
X62082117Y-70042097D01*
X62373297Y-69921486D01*
X62682412Y-69860000D01*
X62997588Y-69860000D01*
X63306703Y-69921486D01*
X63306703Y-69921486D01*
G37*
G36*
X25206703Y-69921486D02*
G01*
X25497883Y-70042097D01*
X25759940Y-70217198D01*
X25982802Y-70440060D01*
X26157903Y-70702117D01*
X26278514Y-70993297D01*
X26340000Y-71302412D01*
X26340000Y-71617588D01*
X26278514Y-71926703D01*
X26157903Y-72217883D01*
X25982802Y-72479940D01*
X25759940Y-72702802D01*
X25497883Y-72877903D01*
X25206703Y-72998514D01*
X24897588Y-73060000D01*
X24582412Y-73060000D01*
X24273297Y-72998514D01*
X23982117Y-72877903D01*
X23720060Y-72702802D01*
X23497198Y-72479940D01*
X23322097Y-72217883D01*
X23201486Y-71926703D01*
X23140000Y-71617588D01*
X23140000Y-71302412D01*
X23201486Y-70993297D01*
X23322097Y-70702117D01*
X23497198Y-70440060D01*
X23720060Y-70217198D01*
X23982117Y-70042097D01*
X24273297Y-69921486D01*
X24582412Y-69860000D01*
X24897588Y-69860000D01*
X25206703Y-69921486D01*
X25206703Y-69921486D01*
G37*
G36*
X6156703Y-69921486D02*
G01*
X6447883Y-70042097D01*
X6709940Y-70217198D01*
X6932802Y-70440060D01*
X7107903Y-70702117D01*
X7228514Y-70993297D01*
X7290000Y-71302412D01*
X7290000Y-71617588D01*
X7228514Y-71926703D01*
X7107903Y-72217883D01*
X6932802Y-72479940D01*
X6709940Y-72702802D01*
X6447883Y-72877903D01*
X6156703Y-72998514D01*
X5847588Y-73060000D01*
X5532412Y-73060000D01*
X5223297Y-72998514D01*
X4932117Y-72877903D01*
X4670060Y-72702802D01*
X4447198Y-72479940D01*
X4272097Y-72217883D01*
X4151486Y-71926703D01*
X4090000Y-71617588D01*
X4090000Y-71302412D01*
X4151486Y-70993297D01*
X4272097Y-70702117D01*
X4447198Y-70440060D01*
X4670060Y-70217198D01*
X4932117Y-70042097D01*
X5223297Y-69921486D01*
X5532412Y-69860000D01*
X5847588Y-69860000D01*
X6156703Y-69921486D01*
X6156703Y-69921486D01*
G37*
G36*
X82356703Y-69921486D02*
G01*
X82647883Y-70042097D01*
X82909940Y-70217198D01*
X83132802Y-70440060D01*
X83307903Y-70702117D01*
X83428514Y-70993297D01*
X83490000Y-71302412D01*
X83490000Y-71617588D01*
X83428514Y-71926703D01*
X83307903Y-72217883D01*
X83132802Y-72479940D01*
X82909940Y-72702802D01*
X82647883Y-72877903D01*
X82356703Y-72998514D01*
X82047588Y-73060000D01*
X81732412Y-73060000D01*
X81423297Y-72998514D01*
X81132117Y-72877903D01*
X80870060Y-72702802D01*
X80647198Y-72479940D01*
X80472097Y-72217883D01*
X80351486Y-71926703D01*
X80290000Y-71617588D01*
X80290000Y-71302412D01*
X80351486Y-70993297D01*
X80472097Y-70702117D01*
X80647198Y-70440060D01*
X80870060Y-70217198D01*
X81132117Y-70042097D01*
X81423297Y-69921486D01*
X81732412Y-69860000D01*
X82047588Y-69860000D01*
X82356703Y-69921486D01*
X82356703Y-69921486D01*
G37*
G36*
X44256703Y-69921486D02*
G01*
X44547883Y-70042097D01*
X44809940Y-70217198D01*
X45032802Y-70440060D01*
X45207903Y-70702117D01*
X45328514Y-70993297D01*
X45390000Y-71302412D01*
X45390000Y-71617588D01*
X45328514Y-71926703D01*
X45207903Y-72217883D01*
X45032802Y-72479940D01*
X44809940Y-72702802D01*
X44547883Y-72877903D01*
X44256703Y-72998514D01*
X43947588Y-73060000D01*
X43632412Y-73060000D01*
X43323297Y-72998514D01*
X43032117Y-72877903D01*
X42770060Y-72702802D01*
X42547198Y-72479940D01*
X42372097Y-72217883D01*
X42251486Y-71926703D01*
X42190000Y-71617588D01*
X42190000Y-71302412D01*
X42251486Y-70993297D01*
X42372097Y-70702117D01*
X42547198Y-70440060D01*
X42770060Y-70217198D01*
X43032117Y-70042097D01*
X43323297Y-69921486D01*
X43632412Y-69860000D01*
X43947588Y-69860000D01*
X44256703Y-69921486D01*
X44256703Y-69921486D01*
G37*
G36*
X50606703Y-67381486D02*
G01*
X50897883Y-67502097D01*
X51159940Y-67677198D01*
X51382802Y-67900060D01*
X51557903Y-68162117D01*
X51678514Y-68453297D01*
X51740000Y-68762412D01*
X51740000Y-69077588D01*
X51678514Y-69386703D01*
X51557903Y-69677883D01*
X51382802Y-69939940D01*
X51159940Y-70162802D01*
X50897883Y-70337903D01*
X50606703Y-70458514D01*
X50297588Y-70520000D01*
X49982412Y-70520000D01*
X49673297Y-70458514D01*
X49382117Y-70337903D01*
X49120060Y-70162802D01*
X48897198Y-69939940D01*
X48722097Y-69677883D01*
X48601486Y-69386703D01*
X48540000Y-69077588D01*
X48540000Y-68762412D01*
X48601486Y-68453297D01*
X48722097Y-68162117D01*
X48897198Y-67900060D01*
X49120060Y-67677198D01*
X49382117Y-67502097D01*
X49673297Y-67381486D01*
X49982412Y-67320000D01*
X50297588Y-67320000D01*
X50606703Y-67381486D01*
X50606703Y-67381486D01*
G37*
G36*
X69656703Y-67381486D02*
G01*
X69947883Y-67502097D01*
X70209940Y-67677198D01*
X70432802Y-67900060D01*
X70607903Y-68162117D01*
X70728514Y-68453297D01*
X70790000Y-68762412D01*
X70790000Y-69077588D01*
X70728514Y-69386703D01*
X70607903Y-69677883D01*
X70432802Y-69939940D01*
X70209940Y-70162802D01*
X69947883Y-70337903D01*
X69656703Y-70458514D01*
X69347588Y-70520000D01*
X69032412Y-70520000D01*
X68723297Y-70458514D01*
X68432117Y-70337903D01*
X68170060Y-70162802D01*
X67947198Y-69939940D01*
X67772097Y-69677883D01*
X67651486Y-69386703D01*
X67590000Y-69077588D01*
X67590000Y-68762412D01*
X67651486Y-68453297D01*
X67772097Y-68162117D01*
X67947198Y-67900060D01*
X68170060Y-67677198D01*
X68432117Y-67502097D01*
X68723297Y-67381486D01*
X69032412Y-67320000D01*
X69347588Y-67320000D01*
X69656703Y-67381486D01*
X69656703Y-67381486D01*
G37*
G36*
X31556703Y-67381486D02*
G01*
X31847883Y-67502097D01*
X32109940Y-67677198D01*
X32332802Y-67900060D01*
X32507903Y-68162117D01*
X32628514Y-68453297D01*
X32690000Y-68762412D01*
X32690000Y-69077588D01*
X32628514Y-69386703D01*
X32507903Y-69677883D01*
X32332802Y-69939940D01*
X32109940Y-70162802D01*
X31847883Y-70337903D01*
X31556703Y-70458514D01*
X31247588Y-70520000D01*
X30932412Y-70520000D01*
X30623297Y-70458514D01*
X30332117Y-70337903D01*
X30070060Y-70162802D01*
X29847198Y-69939940D01*
X29672097Y-69677883D01*
X29551486Y-69386703D01*
X29490000Y-69077588D01*
X29490000Y-68762412D01*
X29551486Y-68453297D01*
X29672097Y-68162117D01*
X29847198Y-67900060D01*
X30070060Y-67677198D01*
X30332117Y-67502097D01*
X30623297Y-67381486D01*
X30932412Y-67320000D01*
X31247588Y-67320000D01*
X31556703Y-67381486D01*
X31556703Y-67381486D01*
G37*
G36*
X107756703Y-67381486D02*
G01*
X108047883Y-67502097D01*
X108309940Y-67677198D01*
X108532802Y-67900060D01*
X108707903Y-68162117D01*
X108828514Y-68453297D01*
X108890000Y-68762412D01*
X108890000Y-69077588D01*
X108828514Y-69386703D01*
X108707903Y-69677883D01*
X108532802Y-69939940D01*
X108309940Y-70162802D01*
X108047883Y-70337903D01*
X107756703Y-70458514D01*
X107447588Y-70520000D01*
X107132412Y-70520000D01*
X106823297Y-70458514D01*
X106532117Y-70337903D01*
X106270060Y-70162802D01*
X106047198Y-69939940D01*
X105872097Y-69677883D01*
X105751486Y-69386703D01*
X105690000Y-69077588D01*
X105690000Y-68762412D01*
X105751486Y-68453297D01*
X105872097Y-68162117D01*
X106047198Y-67900060D01*
X106270060Y-67677198D01*
X106532117Y-67502097D01*
X106823297Y-67381486D01*
X107132412Y-67320000D01*
X107447588Y-67320000D01*
X107756703Y-67381486D01*
X107756703Y-67381486D01*
G37*
G36*
X12506703Y-67381486D02*
G01*
X12797883Y-67502097D01*
X13059940Y-67677198D01*
X13282802Y-67900060D01*
X13457903Y-68162117D01*
X13578514Y-68453297D01*
X13640000Y-68762412D01*
X13640000Y-69077588D01*
X13578514Y-69386703D01*
X13457903Y-69677883D01*
X13282802Y-69939940D01*
X13059940Y-70162802D01*
X12797883Y-70337903D01*
X12506703Y-70458514D01*
X12197588Y-70520000D01*
X11882412Y-70520000D01*
X11573297Y-70458514D01*
X11282117Y-70337903D01*
X11020060Y-70162802D01*
X10797198Y-69939940D01*
X10622097Y-69677883D01*
X10501486Y-69386703D01*
X10440000Y-69077588D01*
X10440000Y-68762412D01*
X10501486Y-68453297D01*
X10622097Y-68162117D01*
X10797198Y-67900060D01*
X11020060Y-67677198D01*
X11282117Y-67502097D01*
X11573297Y-67381486D01*
X11882412Y-67320000D01*
X12197588Y-67320000D01*
X12506703Y-67381486D01*
X12506703Y-67381486D01*
G37*
G36*
X88706703Y-67381486D02*
G01*
X88997883Y-67502097D01*
X89259940Y-67677198D01*
X89482802Y-67900060D01*
X89657903Y-68162117D01*
X89778514Y-68453297D01*
X89840000Y-68762412D01*
X89840000Y-69077588D01*
X89778514Y-69386703D01*
X89657903Y-69677883D01*
X89482802Y-69939940D01*
X89259940Y-70162802D01*
X88997883Y-70337903D01*
X88706703Y-70458514D01*
X88397588Y-70520000D01*
X88082412Y-70520000D01*
X87773297Y-70458514D01*
X87482117Y-70337903D01*
X87220060Y-70162802D01*
X86997198Y-69939940D01*
X86822097Y-69677883D01*
X86701486Y-69386703D01*
X86640000Y-69077588D01*
X86640000Y-68762412D01*
X86701486Y-68453297D01*
X86822097Y-68162117D01*
X86997198Y-67900060D01*
X87220060Y-67677198D01*
X87482117Y-67502097D01*
X87773297Y-67381486D01*
X88082412Y-67320000D01*
X88397588Y-67320000D01*
X88706703Y-67381486D01*
X88706703Y-67381486D01*
G37*
G36*
X95604780Y-61459566D02*
G01*
X95904237Y-61519131D01*
X96468401Y-61752815D01*
X96976135Y-62092072D01*
X97407928Y-62523865D01*
X97747185Y-63031599D01*
X97980869Y-63595763D01*
X97980869Y-63595765D01*
X98086136Y-64124974D01*
X98100000Y-64194677D01*
X98100000Y-64805323D01*
X97980869Y-65404237D01*
X97747185Y-65968401D01*
X97407928Y-66476135D01*
X96976135Y-66907928D01*
X96468401Y-67247185D01*
X95904237Y-67480869D01*
X95604780Y-67540434D01*
X95305325Y-67600000D01*
X94694675Y-67600000D01*
X94395220Y-67540434D01*
X94095763Y-67480869D01*
X93531599Y-67247185D01*
X93023865Y-66907928D01*
X92592072Y-66476135D01*
X92252815Y-65968401D01*
X92019131Y-65404237D01*
X91900000Y-64805323D01*
X91900000Y-64194677D01*
X91913865Y-64124974D01*
X92019131Y-63595765D01*
X92019131Y-63595763D01*
X92252815Y-63031599D01*
X92592072Y-62523865D01*
X93023865Y-62092072D01*
X93531599Y-61752815D01*
X94095763Y-61519131D01*
X94395220Y-61459566D01*
X94694675Y-61400000D01*
X95305325Y-61400000D01*
X95604780Y-61459566D01*
X95604780Y-61459566D01*
G37*
G36*
X19604780Y-61459566D02*
G01*
X19904237Y-61519131D01*
X20468401Y-61752815D01*
X20976135Y-62092072D01*
X21407928Y-62523865D01*
X21747185Y-63031599D01*
X21980869Y-63595763D01*
X21980869Y-63595765D01*
X22086136Y-64124974D01*
X22100000Y-64194677D01*
X22100000Y-64805323D01*
X21980869Y-65404237D01*
X21747185Y-65968401D01*
X21407928Y-66476135D01*
X20976135Y-66907928D01*
X20468401Y-67247185D01*
X19904237Y-67480869D01*
X19604780Y-67540434D01*
X19305325Y-67600000D01*
X18694675Y-67600000D01*
X18395220Y-67540434D01*
X18095763Y-67480869D01*
X17531599Y-67247185D01*
X17023865Y-66907928D01*
X16592072Y-66476135D01*
X16252815Y-65968401D01*
X16019131Y-65404237D01*
X15900000Y-64805323D01*
X15900000Y-64194677D01*
X15913865Y-64124974D01*
X16019131Y-63595765D01*
X16019131Y-63595763D01*
X16252815Y-63031599D01*
X16592072Y-62523865D01*
X17023865Y-62092072D01*
X17531599Y-61752815D01*
X18095763Y-61519131D01*
X18395220Y-61459566D01*
X18694675Y-61400000D01*
X19305325Y-61400000D01*
X19604780Y-61459566D01*
X19604780Y-61459566D01*
G37*
G36*
X105100026Y-63321115D02*
G01*
X105318411Y-63411573D01*
X105318413Y-63411574D01*
X105514955Y-63542899D01*
X105682101Y-63710045D01*
X105813427Y-63906589D01*
X105903885Y-64124974D01*
X105950000Y-64356809D01*
X105950000Y-64593191D01*
X105903885Y-64825026D01*
X105813427Y-65043411D01*
X105813426Y-65043413D01*
X105682101Y-65239955D01*
X105514955Y-65407101D01*
X105318413Y-65538426D01*
X105318412Y-65538427D01*
X105318411Y-65538427D01*
X105100026Y-65628885D01*
X104868191Y-65675000D01*
X104631809Y-65675000D01*
X104399974Y-65628885D01*
X104181589Y-65538427D01*
X104181588Y-65538427D01*
X104181587Y-65538426D01*
X103985045Y-65407101D01*
X103817899Y-65239955D01*
X103686574Y-65043413D01*
X103686573Y-65043411D01*
X103596115Y-64825026D01*
X103550000Y-64593191D01*
X103550000Y-64356809D01*
X103596115Y-64124974D01*
X103686573Y-63906589D01*
X103817899Y-63710045D01*
X103985045Y-63542899D01*
X104181587Y-63411574D01*
X104181589Y-63411573D01*
X104399974Y-63321115D01*
X104631809Y-63275000D01*
X104868191Y-63275000D01*
X105100026Y-63321115D01*
X105100026Y-63321115D01*
G37*
G36*
X9850026Y-63321115D02*
G01*
X10068411Y-63411573D01*
X10068413Y-63411574D01*
X10264955Y-63542899D01*
X10432101Y-63710045D01*
X10563427Y-63906589D01*
X10653885Y-64124974D01*
X10700000Y-64356809D01*
X10700000Y-64593191D01*
X10653885Y-64825026D01*
X10563427Y-65043411D01*
X10563426Y-65043413D01*
X10432101Y-65239955D01*
X10264955Y-65407101D01*
X10068413Y-65538426D01*
X10068412Y-65538427D01*
X10068411Y-65538427D01*
X9850026Y-65628885D01*
X9618191Y-65675000D01*
X9381809Y-65675000D01*
X9149974Y-65628885D01*
X8931589Y-65538427D01*
X8931588Y-65538427D01*
X8931587Y-65538426D01*
X8735045Y-65407101D01*
X8567899Y-65239955D01*
X8436574Y-65043413D01*
X8436573Y-65043411D01*
X8346115Y-64825026D01*
X8300000Y-64593191D01*
X8300000Y-64356809D01*
X8346115Y-64124974D01*
X8436573Y-63906589D01*
X8567899Y-63710045D01*
X8735045Y-63542899D01*
X8931587Y-63411574D01*
X8931589Y-63411573D01*
X9149974Y-63321115D01*
X9381809Y-63275000D01*
X9618191Y-63275000D01*
X9850026Y-63321115D01*
X9850026Y-63321115D01*
G37*
G36*
X64576703Y-58491486D02*
G01*
X64867883Y-58612097D01*
X65129940Y-58787198D01*
X65352802Y-59010060D01*
X65527903Y-59272117D01*
X65648514Y-59563297D01*
X65710000Y-59872412D01*
X65710000Y-60187588D01*
X65648514Y-60496703D01*
X65527903Y-60787883D01*
X65352802Y-61049940D01*
X65129940Y-61272802D01*
X64867883Y-61447903D01*
X64576703Y-61568514D01*
X64267588Y-61630000D01*
X63952412Y-61630000D01*
X63643297Y-61568514D01*
X63352117Y-61447903D01*
X63090060Y-61272802D01*
X62867198Y-61049940D01*
X62692097Y-60787883D01*
X62571486Y-60496703D01*
X62510000Y-60187588D01*
X62510000Y-59872412D01*
X62571486Y-59563297D01*
X62692097Y-59272117D01*
X62867198Y-59010060D01*
X63090060Y-58787198D01*
X63352117Y-58612097D01*
X63643297Y-58491486D01*
X63952412Y-58430000D01*
X64267588Y-58430000D01*
X64576703Y-58491486D01*
X64576703Y-58491486D01*
G37*
G36*
X26476703Y-58491486D02*
G01*
X26767883Y-58612097D01*
X27029940Y-58787198D01*
X27252802Y-59010060D01*
X27427903Y-59272117D01*
X27548514Y-59563297D01*
X27610000Y-59872412D01*
X27610000Y-60187588D01*
X27548514Y-60496703D01*
X27427903Y-60787883D01*
X27252802Y-61049940D01*
X27029940Y-61272802D01*
X26767883Y-61447903D01*
X26476703Y-61568514D01*
X26167588Y-61630000D01*
X25852412Y-61630000D01*
X25543297Y-61568514D01*
X25252117Y-61447903D01*
X24990060Y-61272802D01*
X24767198Y-61049940D01*
X24592097Y-60787883D01*
X24471486Y-60496703D01*
X24410000Y-60187588D01*
X24410000Y-59872412D01*
X24471486Y-59563297D01*
X24592097Y-59272117D01*
X24767198Y-59010060D01*
X24990060Y-58787198D01*
X25252117Y-58612097D01*
X25543297Y-58491486D01*
X25852412Y-58430000D01*
X26167588Y-58430000D01*
X26476703Y-58491486D01*
X26476703Y-58491486D01*
G37*
G36*
X102676703Y-58491486D02*
G01*
X102967883Y-58612097D01*
X103229940Y-58787198D01*
X103452802Y-59010060D01*
X103627903Y-59272117D01*
X103748514Y-59563297D01*
X103810000Y-59872412D01*
X103810000Y-60187588D01*
X103748514Y-60496703D01*
X103627903Y-60787883D01*
X103452802Y-61049940D01*
X103229940Y-61272802D01*
X102967883Y-61447903D01*
X102676703Y-61568514D01*
X102367588Y-61630000D01*
X102052412Y-61630000D01*
X101743297Y-61568514D01*
X101452117Y-61447903D01*
X101190060Y-61272802D01*
X100967198Y-61049940D01*
X100792097Y-60787883D01*
X100671486Y-60496703D01*
X100610000Y-60187588D01*
X100610000Y-59872412D01*
X100671486Y-59563297D01*
X100792097Y-59272117D01*
X100967198Y-59010060D01*
X101190060Y-58787198D01*
X101452117Y-58612097D01*
X101743297Y-58491486D01*
X102052412Y-58430000D01*
X102367588Y-58430000D01*
X102676703Y-58491486D01*
X102676703Y-58491486D01*
G37*
G36*
X83626703Y-58491486D02*
G01*
X83917883Y-58612097D01*
X84179940Y-58787198D01*
X84402802Y-59010060D01*
X84577903Y-59272117D01*
X84698514Y-59563297D01*
X84760000Y-59872412D01*
X84760000Y-60187588D01*
X84698514Y-60496703D01*
X84577903Y-60787883D01*
X84402802Y-61049940D01*
X84179940Y-61272802D01*
X83917883Y-61447903D01*
X83626703Y-61568514D01*
X83317588Y-61630000D01*
X83002412Y-61630000D01*
X82693297Y-61568514D01*
X82402117Y-61447903D01*
X82140060Y-61272802D01*
X81917198Y-61049940D01*
X81742097Y-60787883D01*
X81621486Y-60496703D01*
X81560000Y-60187588D01*
X81560000Y-59872412D01*
X81621486Y-59563297D01*
X81742097Y-59272117D01*
X81917198Y-59010060D01*
X82140060Y-58787198D01*
X82402117Y-58612097D01*
X82693297Y-58491486D01*
X83002412Y-58430000D01*
X83317588Y-58430000D01*
X83626703Y-58491486D01*
X83626703Y-58491486D01*
G37*
G36*
X45526703Y-58491486D02*
G01*
X45817883Y-58612097D01*
X46079940Y-58787198D01*
X46302802Y-59010060D01*
X46477903Y-59272117D01*
X46598514Y-59563297D01*
X46660000Y-59872412D01*
X46660000Y-60187588D01*
X46598514Y-60496703D01*
X46477903Y-60787883D01*
X46302802Y-61049940D01*
X46079940Y-61272802D01*
X45817883Y-61447903D01*
X45526703Y-61568514D01*
X45217588Y-61630000D01*
X44902412Y-61630000D01*
X44593297Y-61568514D01*
X44302117Y-61447903D01*
X44040060Y-61272802D01*
X43817198Y-61049940D01*
X43642097Y-60787883D01*
X43521486Y-60496703D01*
X43460000Y-60187588D01*
X43460000Y-59872412D01*
X43521486Y-59563297D01*
X43642097Y-59272117D01*
X43817198Y-59010060D01*
X44040060Y-58787198D01*
X44302117Y-58612097D01*
X44593297Y-58491486D01*
X44902412Y-58430000D01*
X45217588Y-58430000D01*
X45526703Y-58491486D01*
X45526703Y-58491486D01*
G37*
G36*
X7426703Y-58491486D02*
G01*
X7717883Y-58612097D01*
X7979940Y-58787198D01*
X8202802Y-59010060D01*
X8377903Y-59272117D01*
X8498514Y-59563297D01*
X8560000Y-59872412D01*
X8560000Y-60187588D01*
X8498514Y-60496703D01*
X8377903Y-60787883D01*
X8202802Y-61049940D01*
X7979940Y-61272802D01*
X7717883Y-61447903D01*
X7426703Y-61568514D01*
X7117588Y-61630000D01*
X6802412Y-61630000D01*
X6493297Y-61568514D01*
X6202117Y-61447903D01*
X5940060Y-61272802D01*
X5717198Y-61049940D01*
X5542097Y-60787883D01*
X5421486Y-60496703D01*
X5360000Y-60187588D01*
X5360000Y-59872412D01*
X5421486Y-59563297D01*
X5542097Y-59272117D01*
X5717198Y-59010060D01*
X5940060Y-58787198D01*
X6202117Y-58612097D01*
X6493297Y-58491486D01*
X6802412Y-58430000D01*
X7117588Y-58430000D01*
X7426703Y-58491486D01*
X7426703Y-58491486D01*
G37*
G36*
X13776703Y-55951486D02*
G01*
X14067883Y-56072097D01*
X14329940Y-56247198D01*
X14552802Y-56470060D01*
X14727903Y-56732117D01*
X14848514Y-57023297D01*
X14910000Y-57332412D01*
X14910000Y-57647588D01*
X14848514Y-57956703D01*
X14727903Y-58247883D01*
X14552802Y-58509940D01*
X14329940Y-58732802D01*
X14067883Y-58907903D01*
X13776703Y-59028514D01*
X13467588Y-59090000D01*
X13152412Y-59090000D01*
X12843297Y-59028514D01*
X12552117Y-58907903D01*
X12290060Y-58732802D01*
X12067198Y-58509940D01*
X11892097Y-58247883D01*
X11771486Y-57956703D01*
X11710000Y-57647588D01*
X11710000Y-57332412D01*
X11771486Y-57023297D01*
X11892097Y-56732117D01*
X12067198Y-56470060D01*
X12290060Y-56247198D01*
X12552117Y-56072097D01*
X12843297Y-55951486D01*
X13152412Y-55890000D01*
X13467588Y-55890000D01*
X13776703Y-55951486D01*
X13776703Y-55951486D01*
G37*
G36*
X32826703Y-55951486D02*
G01*
X33117883Y-56072097D01*
X33379940Y-56247198D01*
X33602802Y-56470060D01*
X33777903Y-56732117D01*
X33898514Y-57023297D01*
X33960000Y-57332412D01*
X33960000Y-57647588D01*
X33898514Y-57956703D01*
X33777903Y-58247883D01*
X33602802Y-58509940D01*
X33379940Y-58732802D01*
X33117883Y-58907903D01*
X32826703Y-59028514D01*
X32517588Y-59090000D01*
X32202412Y-59090000D01*
X31893297Y-59028514D01*
X31602117Y-58907903D01*
X31340060Y-58732802D01*
X31117198Y-58509940D01*
X30942097Y-58247883D01*
X30821486Y-57956703D01*
X30760000Y-57647588D01*
X30760000Y-57332412D01*
X30821486Y-57023297D01*
X30942097Y-56732117D01*
X31117198Y-56470060D01*
X31340060Y-56247198D01*
X31602117Y-56072097D01*
X31893297Y-55951486D01*
X32202412Y-55890000D01*
X32517588Y-55890000D01*
X32826703Y-55951486D01*
X32826703Y-55951486D01*
G37*
G36*
X51876703Y-55951486D02*
G01*
X52167883Y-56072097D01*
X52429940Y-56247198D01*
X52652802Y-56470060D01*
X52827903Y-56732117D01*
X52948514Y-57023297D01*
X53010000Y-57332412D01*
X53010000Y-57647588D01*
X52948514Y-57956703D01*
X52827903Y-58247883D01*
X52652802Y-58509940D01*
X52429940Y-58732802D01*
X52167883Y-58907903D01*
X51876703Y-59028514D01*
X51567588Y-59090000D01*
X51252412Y-59090000D01*
X50943297Y-59028514D01*
X50652117Y-58907903D01*
X50390060Y-58732802D01*
X50167198Y-58509940D01*
X49992097Y-58247883D01*
X49871486Y-57956703D01*
X49810000Y-57647588D01*
X49810000Y-57332412D01*
X49871486Y-57023297D01*
X49992097Y-56732117D01*
X50167198Y-56470060D01*
X50390060Y-56247198D01*
X50652117Y-56072097D01*
X50943297Y-55951486D01*
X51252412Y-55890000D01*
X51567588Y-55890000D01*
X51876703Y-55951486D01*
X51876703Y-55951486D01*
G37*
G36*
X70926703Y-55951486D02*
G01*
X71217883Y-56072097D01*
X71479940Y-56247198D01*
X71702802Y-56470060D01*
X71877903Y-56732117D01*
X71998514Y-57023297D01*
X72060000Y-57332412D01*
X72060000Y-57647588D01*
X71998514Y-57956703D01*
X71877903Y-58247883D01*
X71702802Y-58509940D01*
X71479940Y-58732802D01*
X71217883Y-58907903D01*
X70926703Y-59028514D01*
X70617588Y-59090000D01*
X70302412Y-59090000D01*
X69993297Y-59028514D01*
X69702117Y-58907903D01*
X69440060Y-58732802D01*
X69217198Y-58509940D01*
X69042097Y-58247883D01*
X68921486Y-57956703D01*
X68860000Y-57647588D01*
X68860000Y-57332412D01*
X68921486Y-57023297D01*
X69042097Y-56732117D01*
X69217198Y-56470060D01*
X69440060Y-56247198D01*
X69702117Y-56072097D01*
X69993297Y-55951486D01*
X70302412Y-55890000D01*
X70617588Y-55890000D01*
X70926703Y-55951486D01*
X70926703Y-55951486D01*
G37*
G36*
X89976703Y-55951486D02*
G01*
X90267883Y-56072097D01*
X90529940Y-56247198D01*
X90752802Y-56470060D01*
X90927903Y-56732117D01*
X91048514Y-57023297D01*
X91110000Y-57332412D01*
X91110000Y-57647588D01*
X91048514Y-57956703D01*
X90927903Y-58247883D01*
X90752802Y-58509940D01*
X90529940Y-58732802D01*
X90267883Y-58907903D01*
X89976703Y-59028514D01*
X89667588Y-59090000D01*
X89352412Y-59090000D01*
X89043297Y-59028514D01*
X88752117Y-58907903D01*
X88490060Y-58732802D01*
X88267198Y-58509940D01*
X88092097Y-58247883D01*
X87971486Y-57956703D01*
X87910000Y-57647588D01*
X87910000Y-57332412D01*
X87971486Y-57023297D01*
X88092097Y-56732117D01*
X88267198Y-56470060D01*
X88490060Y-56247198D01*
X88752117Y-56072097D01*
X89043297Y-55951486D01*
X89352412Y-55890000D01*
X89667588Y-55890000D01*
X89976703Y-55951486D01*
X89976703Y-55951486D01*
G37*
G36*
X109026703Y-55951486D02*
G01*
X109317883Y-56072097D01*
X109579940Y-56247198D01*
X109802802Y-56470060D01*
X109977903Y-56732117D01*
X110098514Y-57023297D01*
X110160000Y-57332412D01*
X110160000Y-57647588D01*
X110098514Y-57956703D01*
X109977903Y-58247883D01*
X109802802Y-58509940D01*
X109579940Y-58732802D01*
X109317883Y-58907903D01*
X109026703Y-59028514D01*
X108717588Y-59090000D01*
X108402412Y-59090000D01*
X108093297Y-59028514D01*
X107802117Y-58907903D01*
X107540060Y-58732802D01*
X107317198Y-58509940D01*
X107142097Y-58247883D01*
X107021486Y-57956703D01*
X106960000Y-57647588D01*
X106960000Y-57332412D01*
X107021486Y-57023297D01*
X107142097Y-56732117D01*
X107317198Y-56470060D01*
X107540060Y-56247198D01*
X107802117Y-56072097D01*
X108093297Y-55951486D01*
X108402412Y-55890000D01*
X108717588Y-55890000D01*
X109026703Y-55951486D01*
X109026703Y-55951486D01*
G37*
G36*
X10112546Y-52930701D02*
G01*
X10494721Y-53089003D01*
X10494723Y-53089004D01*
X10838672Y-53318823D01*
X11131177Y-53611328D01*
X11360996Y-53955277D01*
X11360997Y-53955279D01*
X11519299Y-54337454D01*
X11600000Y-54743167D01*
X11600000Y-55156833D01*
X11519299Y-55562546D01*
X11467370Y-55687913D01*
X11360996Y-55944723D01*
X11131177Y-56288672D01*
X10838672Y-56581177D01*
X10494723Y-56810996D01*
X10494722Y-56810997D01*
X10494721Y-56810997D01*
X10112546Y-56969299D01*
X9706833Y-57050000D01*
X9293167Y-57050000D01*
X8887454Y-56969299D01*
X8505279Y-56810997D01*
X8505278Y-56810997D01*
X8505277Y-56810996D01*
X8161328Y-56581177D01*
X7868823Y-56288672D01*
X7639004Y-55944723D01*
X7532630Y-55687913D01*
X7480701Y-55562546D01*
X7400000Y-55156833D01*
X7400000Y-54743167D01*
X7480701Y-54337454D01*
X7639003Y-53955279D01*
X7639004Y-53955277D01*
X7868823Y-53611328D01*
X8161328Y-53318823D01*
X8505277Y-53089004D01*
X8505279Y-53089003D01*
X8887454Y-52930701D01*
X9293167Y-52850000D01*
X9706833Y-52850000D01*
X10112546Y-52930701D01*
X10112546Y-52930701D01*
G37*
G36*
X105362546Y-52930701D02*
G01*
X105744721Y-53089003D01*
X105744723Y-53089004D01*
X106088672Y-53318823D01*
X106381177Y-53611328D01*
X106610996Y-53955277D01*
X106610997Y-53955279D01*
X106769299Y-54337454D01*
X106850000Y-54743167D01*
X106850000Y-55156833D01*
X106769299Y-55562546D01*
X106717370Y-55687913D01*
X106610996Y-55944723D01*
X106381177Y-56288672D01*
X106088672Y-56581177D01*
X105744723Y-56810996D01*
X105744722Y-56810997D01*
X105744721Y-56810997D01*
X105362546Y-56969299D01*
X104956833Y-57050000D01*
X104543167Y-57050000D01*
X104137454Y-56969299D01*
X103755279Y-56810997D01*
X103755278Y-56810997D01*
X103755277Y-56810996D01*
X103411328Y-56581177D01*
X103118823Y-56288672D01*
X102889004Y-55944723D01*
X102782630Y-55687913D01*
X102730701Y-55562546D01*
X102650000Y-55156833D01*
X102650000Y-54743167D01*
X102730701Y-54337454D01*
X102889003Y-53955279D01*
X102889004Y-53955277D01*
X103118823Y-53611328D01*
X103411328Y-53318823D01*
X103755277Y-53089004D01*
X103755279Y-53089003D01*
X104137454Y-52930701D01*
X104543167Y-52850000D01*
X104956833Y-52850000D01*
X105362546Y-52930701D01*
X105362546Y-52930701D01*
G37*
G36*
X67262546Y-52930701D02*
G01*
X67644721Y-53089003D01*
X67644723Y-53089004D01*
X67988672Y-53318823D01*
X68281177Y-53611328D01*
X68510996Y-53955277D01*
X68510997Y-53955279D01*
X68669299Y-54337454D01*
X68750000Y-54743167D01*
X68750000Y-55156833D01*
X68669299Y-55562546D01*
X68617370Y-55687913D01*
X68510996Y-55944723D01*
X68281177Y-56288672D01*
X67988672Y-56581177D01*
X67644723Y-56810996D01*
X67644722Y-56810997D01*
X67644721Y-56810997D01*
X67262546Y-56969299D01*
X66856833Y-57050000D01*
X66443167Y-57050000D01*
X66037454Y-56969299D01*
X65655279Y-56810997D01*
X65655278Y-56810997D01*
X65655277Y-56810996D01*
X65311328Y-56581177D01*
X65018823Y-56288672D01*
X64789004Y-55944723D01*
X64682630Y-55687913D01*
X64630701Y-55562546D01*
X64550000Y-55156833D01*
X64550000Y-54743167D01*
X64630701Y-54337454D01*
X64789003Y-53955279D01*
X64789004Y-53955277D01*
X65018823Y-53611328D01*
X65311328Y-53318823D01*
X65655277Y-53089004D01*
X65655279Y-53089003D01*
X66037454Y-52930701D01*
X66443167Y-52850000D01*
X66856833Y-52850000D01*
X67262546Y-52930701D01*
X67262546Y-52930701D01*
G37*
G36*
X86312546Y-52930701D02*
G01*
X86694721Y-53089003D01*
X86694723Y-53089004D01*
X87038672Y-53318823D01*
X87331177Y-53611328D01*
X87560996Y-53955277D01*
X87560997Y-53955279D01*
X87719299Y-54337454D01*
X87800000Y-54743167D01*
X87800000Y-55156833D01*
X87719299Y-55562546D01*
X87667370Y-55687913D01*
X87560996Y-55944723D01*
X87331177Y-56288672D01*
X87038672Y-56581177D01*
X86694723Y-56810996D01*
X86694722Y-56810997D01*
X86694721Y-56810997D01*
X86312546Y-56969299D01*
X85906833Y-57050000D01*
X85493167Y-57050000D01*
X85087454Y-56969299D01*
X84705279Y-56810997D01*
X84705278Y-56810997D01*
X84705277Y-56810996D01*
X84361328Y-56581177D01*
X84068823Y-56288672D01*
X83839004Y-55944723D01*
X83732630Y-55687913D01*
X83680701Y-55562546D01*
X83600000Y-55156833D01*
X83600000Y-54743167D01*
X83680701Y-54337454D01*
X83839003Y-53955279D01*
X83839004Y-53955277D01*
X84068823Y-53611328D01*
X84361328Y-53318823D01*
X84705277Y-53089004D01*
X84705279Y-53089003D01*
X85087454Y-52930701D01*
X85493167Y-52850000D01*
X85906833Y-52850000D01*
X86312546Y-52930701D01*
X86312546Y-52930701D01*
G37*
G36*
X29162546Y-52930701D02*
G01*
X29544721Y-53089003D01*
X29544723Y-53089004D01*
X29888672Y-53318823D01*
X30181177Y-53611328D01*
X30410996Y-53955277D01*
X30410997Y-53955279D01*
X30569299Y-54337454D01*
X30650000Y-54743167D01*
X30650000Y-55156833D01*
X30569299Y-55562546D01*
X30517370Y-55687913D01*
X30410996Y-55944723D01*
X30181177Y-56288672D01*
X29888672Y-56581177D01*
X29544723Y-56810996D01*
X29544722Y-56810997D01*
X29544721Y-56810997D01*
X29162546Y-56969299D01*
X28756833Y-57050000D01*
X28343167Y-57050000D01*
X27937454Y-56969299D01*
X27555279Y-56810997D01*
X27555278Y-56810997D01*
X27555277Y-56810996D01*
X27211328Y-56581177D01*
X26918823Y-56288672D01*
X26689004Y-55944723D01*
X26582630Y-55687913D01*
X26530701Y-55562546D01*
X26450000Y-55156833D01*
X26450000Y-54743167D01*
X26530701Y-54337454D01*
X26689003Y-53955279D01*
X26689004Y-53955277D01*
X26918823Y-53611328D01*
X27211328Y-53318823D01*
X27555277Y-53089004D01*
X27555279Y-53089003D01*
X27937454Y-52930701D01*
X28343167Y-52850000D01*
X28756833Y-52850000D01*
X29162546Y-52930701D01*
X29162546Y-52930701D01*
G37*
G36*
X48212546Y-52930701D02*
G01*
X48594721Y-53089003D01*
X48594723Y-53089004D01*
X48938672Y-53318823D01*
X49231177Y-53611328D01*
X49460996Y-53955277D01*
X49460997Y-53955279D01*
X49619299Y-54337454D01*
X49700000Y-54743167D01*
X49700000Y-55156833D01*
X49619299Y-55562546D01*
X49567370Y-55687913D01*
X49460996Y-55944723D01*
X49231177Y-56288672D01*
X48938672Y-56581177D01*
X48594723Y-56810996D01*
X48594722Y-56810997D01*
X48594721Y-56810997D01*
X48212546Y-56969299D01*
X47806833Y-57050000D01*
X47393167Y-57050000D01*
X46987454Y-56969299D01*
X46605279Y-56810997D01*
X46605278Y-56810997D01*
X46605277Y-56810996D01*
X46261328Y-56581177D01*
X45968823Y-56288672D01*
X45739004Y-55944723D01*
X45632630Y-55687913D01*
X45580701Y-55562546D01*
X45500000Y-55156833D01*
X45500000Y-54743167D01*
X45580701Y-54337454D01*
X45739003Y-53955279D01*
X45739004Y-53955277D01*
X45968823Y-53611328D01*
X46261328Y-53318823D01*
X46605277Y-53089004D01*
X46605279Y-53089003D01*
X46987454Y-52930701D01*
X47393167Y-52850000D01*
X47806833Y-52850000D01*
X48212546Y-52930701D01*
X48212546Y-52930701D01*
G37*
G36*
X33815336Y-54018254D02*
G01*
X33907105Y-54036508D01*
X34079994Y-54108121D01*
X34235590Y-54212087D01*
X34367913Y-54344410D01*
X34471879Y-54500006D01*
X34543492Y-54672895D01*
X34580000Y-54856433D01*
X34580000Y-55043567D01*
X34543492Y-55227105D01*
X34471879Y-55399994D01*
X34367913Y-55555590D01*
X34235590Y-55687913D01*
X34079994Y-55791879D01*
X33907105Y-55863492D01*
X33815336Y-55881746D01*
X33723568Y-55900000D01*
X33536432Y-55900000D01*
X33444664Y-55881746D01*
X33352895Y-55863492D01*
X33180006Y-55791879D01*
X33024410Y-55687913D01*
X32892087Y-55555590D01*
X32788121Y-55399994D01*
X32716508Y-55227105D01*
X32680000Y-55043567D01*
X32680000Y-54856433D01*
X32716508Y-54672895D01*
X32788121Y-54500006D01*
X32892087Y-54344410D01*
X33024410Y-54212087D01*
X33180006Y-54108121D01*
X33352895Y-54036508D01*
X33444664Y-54018254D01*
X33536432Y-54000000D01*
X33723568Y-54000000D01*
X33815336Y-54018254D01*
X33815336Y-54018254D01*
G37*
G36*
X110015336Y-54018254D02*
G01*
X110107105Y-54036508D01*
X110279994Y-54108121D01*
X110435590Y-54212087D01*
X110567913Y-54344410D01*
X110671879Y-54500006D01*
X110743492Y-54672895D01*
X110780000Y-54856433D01*
X110780000Y-55043567D01*
X110743492Y-55227105D01*
X110671879Y-55399994D01*
X110567913Y-55555590D01*
X110435590Y-55687913D01*
X110279994Y-55791879D01*
X110107105Y-55863492D01*
X110015336Y-55881746D01*
X109923568Y-55900000D01*
X109736432Y-55900000D01*
X109644664Y-55881746D01*
X109552895Y-55863492D01*
X109380006Y-55791879D01*
X109224410Y-55687913D01*
X109092087Y-55555590D01*
X108988121Y-55399994D01*
X108916508Y-55227105D01*
X108880000Y-55043567D01*
X108880000Y-54856433D01*
X108916508Y-54672895D01*
X108988121Y-54500006D01*
X109092087Y-54344410D01*
X109224410Y-54212087D01*
X109380006Y-54108121D01*
X109552895Y-54036508D01*
X109644664Y-54018254D01*
X109736432Y-54000000D01*
X109923568Y-54000000D01*
X110015336Y-54018254D01*
X110015336Y-54018254D01*
G37*
G36*
X99855336Y-54018254D02*
G01*
X99947105Y-54036508D01*
X100119994Y-54108121D01*
X100275590Y-54212087D01*
X100407913Y-54344410D01*
X100511879Y-54500006D01*
X100583492Y-54672895D01*
X100620000Y-54856433D01*
X100620000Y-55043567D01*
X100583492Y-55227105D01*
X100511879Y-55399994D01*
X100407913Y-55555590D01*
X100275590Y-55687913D01*
X100119994Y-55791879D01*
X99947105Y-55863492D01*
X99855336Y-55881746D01*
X99763568Y-55900000D01*
X99576432Y-55900000D01*
X99484664Y-55881746D01*
X99392895Y-55863492D01*
X99220006Y-55791879D01*
X99064410Y-55687913D01*
X98932087Y-55555590D01*
X98828121Y-55399994D01*
X98756508Y-55227105D01*
X98720000Y-55043567D01*
X98720000Y-54856433D01*
X98756508Y-54672895D01*
X98828121Y-54500006D01*
X98932087Y-54344410D01*
X99064410Y-54212087D01*
X99220006Y-54108121D01*
X99392895Y-54036508D01*
X99484664Y-54018254D01*
X99576432Y-54000000D01*
X99763568Y-54000000D01*
X99855336Y-54018254D01*
X99855336Y-54018254D01*
G37*
G36*
X71915336Y-54018254D02*
G01*
X72007105Y-54036508D01*
X72179994Y-54108121D01*
X72335590Y-54212087D01*
X72467913Y-54344410D01*
X72571879Y-54500006D01*
X72643492Y-54672895D01*
X72680000Y-54856433D01*
X72680000Y-55043567D01*
X72643492Y-55227105D01*
X72571879Y-55399994D01*
X72467913Y-55555590D01*
X72335590Y-55687913D01*
X72179994Y-55791879D01*
X72007105Y-55863492D01*
X71915336Y-55881746D01*
X71823568Y-55900000D01*
X71636432Y-55900000D01*
X71544664Y-55881746D01*
X71452895Y-55863492D01*
X71280006Y-55791879D01*
X71124410Y-55687913D01*
X70992087Y-55555590D01*
X70888121Y-55399994D01*
X70816508Y-55227105D01*
X70780000Y-55043567D01*
X70780000Y-54856433D01*
X70816508Y-54672895D01*
X70888121Y-54500006D01*
X70992087Y-54344410D01*
X71124410Y-54212087D01*
X71280006Y-54108121D01*
X71452895Y-54036508D01*
X71544664Y-54018254D01*
X71636432Y-54000000D01*
X71823568Y-54000000D01*
X71915336Y-54018254D01*
X71915336Y-54018254D01*
G37*
G36*
X61755336Y-54018254D02*
G01*
X61847105Y-54036508D01*
X62019994Y-54108121D01*
X62175590Y-54212087D01*
X62307913Y-54344410D01*
X62411879Y-54500006D01*
X62483492Y-54672895D01*
X62520000Y-54856433D01*
X62520000Y-55043567D01*
X62483492Y-55227105D01*
X62411879Y-55399994D01*
X62307913Y-55555590D01*
X62175590Y-55687913D01*
X62019994Y-55791879D01*
X61847105Y-55863492D01*
X61755336Y-55881746D01*
X61663568Y-55900000D01*
X61476432Y-55900000D01*
X61384664Y-55881746D01*
X61292895Y-55863492D01*
X61120006Y-55791879D01*
X60964410Y-55687913D01*
X60832087Y-55555590D01*
X60728121Y-55399994D01*
X60656508Y-55227105D01*
X60620000Y-55043567D01*
X60620000Y-54856433D01*
X60656508Y-54672895D01*
X60728121Y-54500006D01*
X60832087Y-54344410D01*
X60964410Y-54212087D01*
X61120006Y-54108121D01*
X61292895Y-54036508D01*
X61384664Y-54018254D01*
X61476432Y-54000000D01*
X61663568Y-54000000D01*
X61755336Y-54018254D01*
X61755336Y-54018254D01*
G37*
G36*
X52865336Y-54018254D02*
G01*
X52957105Y-54036508D01*
X53129994Y-54108121D01*
X53285590Y-54212087D01*
X53417913Y-54344410D01*
X53521879Y-54500006D01*
X53593492Y-54672895D01*
X53630000Y-54856433D01*
X53630000Y-55043567D01*
X53593492Y-55227105D01*
X53521879Y-55399994D01*
X53417913Y-55555590D01*
X53285590Y-55687913D01*
X53129994Y-55791879D01*
X52957105Y-55863492D01*
X52865336Y-55881746D01*
X52773568Y-55900000D01*
X52586432Y-55900000D01*
X52494664Y-55881746D01*
X52402895Y-55863492D01*
X52230006Y-55791879D01*
X52074410Y-55687913D01*
X51942087Y-55555590D01*
X51838121Y-55399994D01*
X51766508Y-55227105D01*
X51730000Y-55043567D01*
X51730000Y-54856433D01*
X51766508Y-54672895D01*
X51838121Y-54500006D01*
X51942087Y-54344410D01*
X52074410Y-54212087D01*
X52230006Y-54108121D01*
X52402895Y-54036508D01*
X52494664Y-54018254D01*
X52586432Y-54000000D01*
X52773568Y-54000000D01*
X52865336Y-54018254D01*
X52865336Y-54018254D01*
G37*
G36*
X90965336Y-54018254D02*
G01*
X91057105Y-54036508D01*
X91229994Y-54108121D01*
X91385590Y-54212087D01*
X91517913Y-54344410D01*
X91621879Y-54500006D01*
X91693492Y-54672895D01*
X91730000Y-54856433D01*
X91730000Y-55043567D01*
X91693492Y-55227105D01*
X91621879Y-55399994D01*
X91517913Y-55555590D01*
X91385590Y-55687913D01*
X91229994Y-55791879D01*
X91057105Y-55863492D01*
X90965336Y-55881746D01*
X90873568Y-55900000D01*
X90686432Y-55900000D01*
X90594664Y-55881746D01*
X90502895Y-55863492D01*
X90330006Y-55791879D01*
X90174410Y-55687913D01*
X90042087Y-55555590D01*
X89938121Y-55399994D01*
X89866508Y-55227105D01*
X89830000Y-55043567D01*
X89830000Y-54856433D01*
X89866508Y-54672895D01*
X89938121Y-54500006D01*
X90042087Y-54344410D01*
X90174410Y-54212087D01*
X90330006Y-54108121D01*
X90502895Y-54036508D01*
X90594664Y-54018254D01*
X90686432Y-54000000D01*
X90873568Y-54000000D01*
X90965336Y-54018254D01*
X90965336Y-54018254D01*
G37*
G36*
X80805336Y-54018254D02*
G01*
X80897105Y-54036508D01*
X81069994Y-54108121D01*
X81225590Y-54212087D01*
X81357913Y-54344410D01*
X81461879Y-54500006D01*
X81533492Y-54672895D01*
X81570000Y-54856433D01*
X81570000Y-55043567D01*
X81533492Y-55227105D01*
X81461879Y-55399994D01*
X81357913Y-55555590D01*
X81225590Y-55687913D01*
X81069994Y-55791879D01*
X80897105Y-55863492D01*
X80805336Y-55881746D01*
X80713568Y-55900000D01*
X80526432Y-55900000D01*
X80434664Y-55881746D01*
X80342895Y-55863492D01*
X80170006Y-55791879D01*
X80014410Y-55687913D01*
X79882087Y-55555590D01*
X79778121Y-55399994D01*
X79706508Y-55227105D01*
X79670000Y-55043567D01*
X79670000Y-54856433D01*
X79706508Y-54672895D01*
X79778121Y-54500006D01*
X79882087Y-54344410D01*
X80014410Y-54212087D01*
X80170006Y-54108121D01*
X80342895Y-54036508D01*
X80434664Y-54018254D01*
X80526432Y-54000000D01*
X80713568Y-54000000D01*
X80805336Y-54018254D01*
X80805336Y-54018254D01*
G37*
G36*
X42705336Y-54018254D02*
G01*
X42797105Y-54036508D01*
X42969994Y-54108121D01*
X43125590Y-54212087D01*
X43257913Y-54344410D01*
X43361879Y-54500006D01*
X43433492Y-54672895D01*
X43470000Y-54856433D01*
X43470000Y-55043567D01*
X43433492Y-55227105D01*
X43361879Y-55399994D01*
X43257913Y-55555590D01*
X43125590Y-55687913D01*
X42969994Y-55791879D01*
X42797105Y-55863492D01*
X42705336Y-55881746D01*
X42613568Y-55900000D01*
X42426432Y-55900000D01*
X42334664Y-55881746D01*
X42242895Y-55863492D01*
X42070006Y-55791879D01*
X41914410Y-55687913D01*
X41782087Y-55555590D01*
X41678121Y-55399994D01*
X41606508Y-55227105D01*
X41570000Y-55043567D01*
X41570000Y-54856433D01*
X41606508Y-54672895D01*
X41678121Y-54500006D01*
X41782087Y-54344410D01*
X41914410Y-54212087D01*
X42070006Y-54108121D01*
X42242895Y-54036508D01*
X42334664Y-54018254D01*
X42426432Y-54000000D01*
X42613568Y-54000000D01*
X42705336Y-54018254D01*
X42705336Y-54018254D01*
G37*
G36*
X23655336Y-54018254D02*
G01*
X23747105Y-54036508D01*
X23919994Y-54108121D01*
X24075590Y-54212087D01*
X24207913Y-54344410D01*
X24311879Y-54500006D01*
X24383492Y-54672895D01*
X24420000Y-54856433D01*
X24420000Y-55043567D01*
X24383492Y-55227105D01*
X24311879Y-55399994D01*
X24207913Y-55555590D01*
X24075590Y-55687913D01*
X23919994Y-55791879D01*
X23747105Y-55863492D01*
X23655336Y-55881746D01*
X23563568Y-55900000D01*
X23376432Y-55900000D01*
X23284664Y-55881746D01*
X23192895Y-55863492D01*
X23020006Y-55791879D01*
X22864410Y-55687913D01*
X22732087Y-55555590D01*
X22628121Y-55399994D01*
X22556508Y-55227105D01*
X22520000Y-55043567D01*
X22520000Y-54856433D01*
X22556508Y-54672895D01*
X22628121Y-54500006D01*
X22732087Y-54344410D01*
X22864410Y-54212087D01*
X23020006Y-54108121D01*
X23192895Y-54036508D01*
X23284664Y-54018254D01*
X23376432Y-54000000D01*
X23563568Y-54000000D01*
X23655336Y-54018254D01*
X23655336Y-54018254D01*
G37*
G36*
X14765336Y-54018254D02*
G01*
X14857105Y-54036508D01*
X15029994Y-54108121D01*
X15185590Y-54212087D01*
X15317913Y-54344410D01*
X15421879Y-54500006D01*
X15493492Y-54672895D01*
X15530000Y-54856433D01*
X15530000Y-55043567D01*
X15493492Y-55227105D01*
X15421879Y-55399994D01*
X15317913Y-55555590D01*
X15185590Y-55687913D01*
X15029994Y-55791879D01*
X14857105Y-55863492D01*
X14765336Y-55881746D01*
X14673568Y-55900000D01*
X14486432Y-55900000D01*
X14394664Y-55881746D01*
X14302895Y-55863492D01*
X14130006Y-55791879D01*
X13974410Y-55687913D01*
X13842087Y-55555590D01*
X13738121Y-55399994D01*
X13666508Y-55227105D01*
X13630000Y-55043567D01*
X13630000Y-54856433D01*
X13666508Y-54672895D01*
X13738121Y-54500006D01*
X13842087Y-54344410D01*
X13974410Y-54212087D01*
X14130006Y-54108121D01*
X14302895Y-54036508D01*
X14394664Y-54018254D01*
X14486432Y-54000000D01*
X14673568Y-54000000D01*
X14765336Y-54018254D01*
X14765336Y-54018254D01*
G37*
G36*
X4605336Y-54018254D02*
G01*
X4697105Y-54036508D01*
X4869994Y-54108121D01*
X5025590Y-54212087D01*
X5157913Y-54344410D01*
X5261879Y-54500006D01*
X5333492Y-54672895D01*
X5370000Y-54856433D01*
X5370000Y-55043567D01*
X5333492Y-55227105D01*
X5261879Y-55399994D01*
X5157913Y-55555590D01*
X5025590Y-55687913D01*
X4869994Y-55791879D01*
X4697105Y-55863492D01*
X4605336Y-55881746D01*
X4513568Y-55900000D01*
X4326432Y-55900000D01*
X4234664Y-55881746D01*
X4142895Y-55863492D01*
X3970006Y-55791879D01*
X3814410Y-55687913D01*
X3682087Y-55555590D01*
X3578121Y-55399994D01*
X3506508Y-55227105D01*
X3470000Y-55043567D01*
X3470000Y-54856433D01*
X3506508Y-54672895D01*
X3578121Y-54500006D01*
X3682087Y-54344410D01*
X3814410Y-54212087D01*
X3970006Y-54108121D01*
X4142895Y-54036508D01*
X4234664Y-54018254D01*
X4326432Y-54000000D01*
X4513568Y-54000000D01*
X4605336Y-54018254D01*
X4605336Y-54018254D01*
G37*
G36*
X83626703Y-39441486D02*
G01*
X83917883Y-39562097D01*
X84179940Y-39737198D01*
X84402802Y-39960060D01*
X84577903Y-40222117D01*
X84698514Y-40513297D01*
X84760000Y-40822412D01*
X84760000Y-41137588D01*
X84698514Y-41446703D01*
X84577903Y-41737883D01*
X84402802Y-41999940D01*
X84179940Y-42222802D01*
X83917883Y-42397903D01*
X83626703Y-42518514D01*
X83317588Y-42580000D01*
X83002412Y-42580000D01*
X82693297Y-42518514D01*
X82402117Y-42397903D01*
X82140060Y-42222802D01*
X81917198Y-41999940D01*
X81742097Y-41737883D01*
X81621486Y-41446703D01*
X81560000Y-41137588D01*
X81560000Y-40822412D01*
X81621486Y-40513297D01*
X81742097Y-40222117D01*
X81917198Y-39960060D01*
X82140060Y-39737198D01*
X82402117Y-39562097D01*
X82693297Y-39441486D01*
X83002412Y-39380000D01*
X83317588Y-39380000D01*
X83626703Y-39441486D01*
X83626703Y-39441486D01*
G37*
G36*
X45526703Y-39441486D02*
G01*
X45817883Y-39562097D01*
X46079940Y-39737198D01*
X46302802Y-39960060D01*
X46477903Y-40222117D01*
X46598514Y-40513297D01*
X46660000Y-40822412D01*
X46660000Y-41137588D01*
X46598514Y-41446703D01*
X46477903Y-41737883D01*
X46302802Y-41999940D01*
X46079940Y-42222802D01*
X45817883Y-42397903D01*
X45526703Y-42518514D01*
X45217588Y-42580000D01*
X44902412Y-42580000D01*
X44593297Y-42518514D01*
X44302117Y-42397903D01*
X44040060Y-42222802D01*
X43817198Y-41999940D01*
X43642097Y-41737883D01*
X43521486Y-41446703D01*
X43460000Y-41137588D01*
X43460000Y-40822412D01*
X43521486Y-40513297D01*
X43642097Y-40222117D01*
X43817198Y-39960060D01*
X44040060Y-39737198D01*
X44302117Y-39562097D01*
X44593297Y-39441486D01*
X44902412Y-39380000D01*
X45217588Y-39380000D01*
X45526703Y-39441486D01*
X45526703Y-39441486D01*
G37*
G36*
X102676703Y-39441486D02*
G01*
X102967883Y-39562097D01*
X103229940Y-39737198D01*
X103452802Y-39960060D01*
X103627903Y-40222117D01*
X103748514Y-40513297D01*
X103810000Y-40822412D01*
X103810000Y-41137588D01*
X103748514Y-41446703D01*
X103627903Y-41737883D01*
X103452802Y-41999940D01*
X103229940Y-42222802D01*
X102967883Y-42397903D01*
X102676703Y-42518514D01*
X102367588Y-42580000D01*
X102052412Y-42580000D01*
X101743297Y-42518514D01*
X101452117Y-42397903D01*
X101190060Y-42222802D01*
X100967198Y-41999940D01*
X100792097Y-41737883D01*
X100671486Y-41446703D01*
X100610000Y-41137588D01*
X100610000Y-40822412D01*
X100671486Y-40513297D01*
X100792097Y-40222117D01*
X100967198Y-39960060D01*
X101190060Y-39737198D01*
X101452117Y-39562097D01*
X101743297Y-39441486D01*
X102052412Y-39380000D01*
X102367588Y-39380000D01*
X102676703Y-39441486D01*
X102676703Y-39441486D01*
G37*
G36*
X7426703Y-39441486D02*
G01*
X7717883Y-39562097D01*
X7979940Y-39737198D01*
X8202802Y-39960060D01*
X8377903Y-40222117D01*
X8498514Y-40513297D01*
X8560000Y-40822412D01*
X8560000Y-41137588D01*
X8498514Y-41446703D01*
X8377903Y-41737883D01*
X8202802Y-41999940D01*
X7979940Y-42222802D01*
X7717883Y-42397903D01*
X7426703Y-42518514D01*
X7117588Y-42580000D01*
X6802412Y-42580000D01*
X6493297Y-42518514D01*
X6202117Y-42397903D01*
X5940060Y-42222802D01*
X5717198Y-41999940D01*
X5542097Y-41737883D01*
X5421486Y-41446703D01*
X5360000Y-41137588D01*
X5360000Y-40822412D01*
X5421486Y-40513297D01*
X5542097Y-40222117D01*
X5717198Y-39960060D01*
X5940060Y-39737198D01*
X6202117Y-39562097D01*
X6493297Y-39441486D01*
X6802412Y-39380000D01*
X7117588Y-39380000D01*
X7426703Y-39441486D01*
X7426703Y-39441486D01*
G37*
G36*
X26476703Y-39441486D02*
G01*
X26767883Y-39562097D01*
X27029940Y-39737198D01*
X27252802Y-39960060D01*
X27427903Y-40222117D01*
X27548514Y-40513297D01*
X27610000Y-40822412D01*
X27610000Y-41137588D01*
X27548514Y-41446703D01*
X27427903Y-41737883D01*
X27252802Y-41999940D01*
X27029940Y-42222802D01*
X26767883Y-42397903D01*
X26476703Y-42518514D01*
X26167588Y-42580000D01*
X25852412Y-42580000D01*
X25543297Y-42518514D01*
X25252117Y-42397903D01*
X24990060Y-42222802D01*
X24767198Y-41999940D01*
X24592097Y-41737883D01*
X24471486Y-41446703D01*
X24410000Y-41137588D01*
X24410000Y-40822412D01*
X24471486Y-40513297D01*
X24592097Y-40222117D01*
X24767198Y-39960060D01*
X24990060Y-39737198D01*
X25252117Y-39562097D01*
X25543297Y-39441486D01*
X25852412Y-39380000D01*
X26167588Y-39380000D01*
X26476703Y-39441486D01*
X26476703Y-39441486D01*
G37*
G36*
X64576703Y-39441486D02*
G01*
X64867883Y-39562097D01*
X65129940Y-39737198D01*
X65352802Y-39960060D01*
X65527903Y-40222117D01*
X65648514Y-40513297D01*
X65710000Y-40822412D01*
X65710000Y-41137588D01*
X65648514Y-41446703D01*
X65527903Y-41737883D01*
X65352802Y-41999940D01*
X65129940Y-42222802D01*
X64867883Y-42397903D01*
X64576703Y-42518514D01*
X64267588Y-42580000D01*
X63952412Y-42580000D01*
X63643297Y-42518514D01*
X63352117Y-42397903D01*
X63090060Y-42222802D01*
X62867198Y-41999940D01*
X62692097Y-41737883D01*
X62571486Y-41446703D01*
X62510000Y-41137588D01*
X62510000Y-40822412D01*
X62571486Y-40513297D01*
X62692097Y-40222117D01*
X62867198Y-39960060D01*
X63090060Y-39737198D01*
X63352117Y-39562097D01*
X63643297Y-39441486D01*
X63952412Y-39380000D01*
X64267588Y-39380000D01*
X64576703Y-39441486D01*
X64576703Y-39441486D01*
G37*
G36*
X70926703Y-36901486D02*
G01*
X71217883Y-37022097D01*
X71479940Y-37197198D01*
X71702802Y-37420060D01*
X71877903Y-37682117D01*
X71998514Y-37973297D01*
X72060000Y-38282412D01*
X72060000Y-38597588D01*
X71998514Y-38906703D01*
X71877903Y-39197883D01*
X71702802Y-39459940D01*
X71479940Y-39682802D01*
X71217883Y-39857903D01*
X70926703Y-39978514D01*
X70617588Y-40040000D01*
X70302412Y-40040000D01*
X69993297Y-39978514D01*
X69702117Y-39857903D01*
X69440060Y-39682802D01*
X69217198Y-39459940D01*
X69042097Y-39197883D01*
X68921486Y-38906703D01*
X68860000Y-38597588D01*
X68860000Y-38282412D01*
X68921486Y-37973297D01*
X69042097Y-37682117D01*
X69217198Y-37420060D01*
X69440060Y-37197198D01*
X69702117Y-37022097D01*
X69993297Y-36901486D01*
X70302412Y-36840000D01*
X70617588Y-36840000D01*
X70926703Y-36901486D01*
X70926703Y-36901486D01*
G37*
G36*
X32826703Y-36901486D02*
G01*
X33117883Y-37022097D01*
X33379940Y-37197198D01*
X33602802Y-37420060D01*
X33777903Y-37682117D01*
X33898514Y-37973297D01*
X33960000Y-38282412D01*
X33960000Y-38597588D01*
X33898514Y-38906703D01*
X33777903Y-39197883D01*
X33602802Y-39459940D01*
X33379940Y-39682802D01*
X33117883Y-39857903D01*
X32826703Y-39978514D01*
X32517588Y-40040000D01*
X32202412Y-40040000D01*
X31893297Y-39978514D01*
X31602117Y-39857903D01*
X31340060Y-39682802D01*
X31117198Y-39459940D01*
X30942097Y-39197883D01*
X30821486Y-38906703D01*
X30760000Y-38597588D01*
X30760000Y-38282412D01*
X30821486Y-37973297D01*
X30942097Y-37682117D01*
X31117198Y-37420060D01*
X31340060Y-37197198D01*
X31602117Y-37022097D01*
X31893297Y-36901486D01*
X32202412Y-36840000D01*
X32517588Y-36840000D01*
X32826703Y-36901486D01*
X32826703Y-36901486D01*
G37*
G36*
X51876703Y-36901486D02*
G01*
X52167883Y-37022097D01*
X52429940Y-37197198D01*
X52652802Y-37420060D01*
X52827903Y-37682117D01*
X52948514Y-37973297D01*
X53010000Y-38282412D01*
X53010000Y-38597588D01*
X52948514Y-38906703D01*
X52827903Y-39197883D01*
X52652802Y-39459940D01*
X52429940Y-39682802D01*
X52167883Y-39857903D01*
X51876703Y-39978514D01*
X51567588Y-40040000D01*
X51252412Y-40040000D01*
X50943297Y-39978514D01*
X50652117Y-39857903D01*
X50390060Y-39682802D01*
X50167198Y-39459940D01*
X49992097Y-39197883D01*
X49871486Y-38906703D01*
X49810000Y-38597588D01*
X49810000Y-38282412D01*
X49871486Y-37973297D01*
X49992097Y-37682117D01*
X50167198Y-37420060D01*
X50390060Y-37197198D01*
X50652117Y-37022097D01*
X50943297Y-36901486D01*
X51252412Y-36840000D01*
X51567588Y-36840000D01*
X51876703Y-36901486D01*
X51876703Y-36901486D01*
G37*
G36*
X109026703Y-36901486D02*
G01*
X109317883Y-37022097D01*
X109579940Y-37197198D01*
X109802802Y-37420060D01*
X109977903Y-37682117D01*
X110098514Y-37973297D01*
X110160000Y-38282412D01*
X110160000Y-38597588D01*
X110098514Y-38906703D01*
X109977903Y-39197883D01*
X109802802Y-39459940D01*
X109579940Y-39682802D01*
X109317883Y-39857903D01*
X109026703Y-39978514D01*
X108717588Y-40040000D01*
X108402412Y-40040000D01*
X108093297Y-39978514D01*
X107802117Y-39857903D01*
X107540060Y-39682802D01*
X107317198Y-39459940D01*
X107142097Y-39197883D01*
X107021486Y-38906703D01*
X106960000Y-38597588D01*
X106960000Y-38282412D01*
X107021486Y-37973297D01*
X107142097Y-37682117D01*
X107317198Y-37420060D01*
X107540060Y-37197198D01*
X107802117Y-37022097D01*
X108093297Y-36901486D01*
X108402412Y-36840000D01*
X108717588Y-36840000D01*
X109026703Y-36901486D01*
X109026703Y-36901486D01*
G37*
G36*
X13776703Y-36901486D02*
G01*
X14067883Y-37022097D01*
X14329940Y-37197198D01*
X14552802Y-37420060D01*
X14727903Y-37682117D01*
X14848514Y-37973297D01*
X14910000Y-38282412D01*
X14910000Y-38597588D01*
X14848514Y-38906703D01*
X14727903Y-39197883D01*
X14552802Y-39459940D01*
X14329940Y-39682802D01*
X14067883Y-39857903D01*
X13776703Y-39978514D01*
X13467588Y-40040000D01*
X13152412Y-40040000D01*
X12843297Y-39978514D01*
X12552117Y-39857903D01*
X12290060Y-39682802D01*
X12067198Y-39459940D01*
X11892097Y-39197883D01*
X11771486Y-38906703D01*
X11710000Y-38597588D01*
X11710000Y-38282412D01*
X11771486Y-37973297D01*
X11892097Y-37682117D01*
X12067198Y-37420060D01*
X12290060Y-37197198D01*
X12552117Y-37022097D01*
X12843297Y-36901486D01*
X13152412Y-36840000D01*
X13467588Y-36840000D01*
X13776703Y-36901486D01*
X13776703Y-36901486D01*
G37*
G36*
X89976703Y-36901486D02*
G01*
X90267883Y-37022097D01*
X90529940Y-37197198D01*
X90752802Y-37420060D01*
X90927903Y-37682117D01*
X91048514Y-37973297D01*
X91110000Y-38282412D01*
X91110000Y-38597588D01*
X91048514Y-38906703D01*
X90927903Y-39197883D01*
X90752802Y-39459940D01*
X90529940Y-39682802D01*
X90267883Y-39857903D01*
X89976703Y-39978514D01*
X89667588Y-40040000D01*
X89352412Y-40040000D01*
X89043297Y-39978514D01*
X88752117Y-39857903D01*
X88490060Y-39682802D01*
X88267198Y-39459940D01*
X88092097Y-39197883D01*
X87971486Y-38906703D01*
X87910000Y-38597588D01*
X87910000Y-38282412D01*
X87971486Y-37973297D01*
X88092097Y-37682117D01*
X88267198Y-37420060D01*
X88490060Y-37197198D01*
X88752117Y-37022097D01*
X89043297Y-36901486D01*
X89352412Y-36840000D01*
X89667588Y-36840000D01*
X89976703Y-36901486D01*
X89976703Y-36901486D01*
G37*
G36*
X67262546Y-33880701D02*
G01*
X67644721Y-34039003D01*
X67644723Y-34039004D01*
X67988672Y-34268823D01*
X68281177Y-34561328D01*
X68510996Y-34905277D01*
X68510997Y-34905279D01*
X68669299Y-35287454D01*
X68750000Y-35693167D01*
X68750000Y-36106833D01*
X68669299Y-36512546D01*
X68617370Y-36637913D01*
X68510996Y-36894723D01*
X68281177Y-37238672D01*
X67988672Y-37531177D01*
X67644723Y-37760996D01*
X67644722Y-37760997D01*
X67644721Y-37760997D01*
X67262546Y-37919299D01*
X66856833Y-38000000D01*
X66443167Y-38000000D01*
X66037454Y-37919299D01*
X65655279Y-37760997D01*
X65655278Y-37760997D01*
X65655277Y-37760996D01*
X65311328Y-37531177D01*
X65018823Y-37238672D01*
X64789004Y-36894723D01*
X64682630Y-36637913D01*
X64630701Y-36512546D01*
X64550000Y-36106833D01*
X64550000Y-35693167D01*
X64630701Y-35287454D01*
X64789003Y-34905279D01*
X64789004Y-34905277D01*
X65018823Y-34561328D01*
X65311328Y-34268823D01*
X65655277Y-34039004D01*
X65655279Y-34039003D01*
X66037454Y-33880701D01*
X66443167Y-33800000D01*
X66856833Y-33800000D01*
X67262546Y-33880701D01*
X67262546Y-33880701D01*
G37*
G36*
X105362546Y-33880701D02*
G01*
X105744721Y-34039003D01*
X105744723Y-34039004D01*
X106088672Y-34268823D01*
X106381177Y-34561328D01*
X106610996Y-34905277D01*
X106610997Y-34905279D01*
X106769299Y-35287454D01*
X106850000Y-35693167D01*
X106850000Y-36106833D01*
X106769299Y-36512546D01*
X106717370Y-36637913D01*
X106610996Y-36894723D01*
X106381177Y-37238672D01*
X106088672Y-37531177D01*
X105744723Y-37760996D01*
X105744722Y-37760997D01*
X105744721Y-37760997D01*
X105362546Y-37919299D01*
X104956833Y-38000000D01*
X104543167Y-38000000D01*
X104137454Y-37919299D01*
X103755279Y-37760997D01*
X103755278Y-37760997D01*
X103755277Y-37760996D01*
X103411328Y-37531177D01*
X103118823Y-37238672D01*
X102889004Y-36894723D01*
X102782630Y-36637913D01*
X102730701Y-36512546D01*
X102650000Y-36106833D01*
X102650000Y-35693167D01*
X102730701Y-35287454D01*
X102889003Y-34905279D01*
X102889004Y-34905277D01*
X103118823Y-34561328D01*
X103411328Y-34268823D01*
X103755277Y-34039004D01*
X103755279Y-34039003D01*
X104137454Y-33880701D01*
X104543167Y-33800000D01*
X104956833Y-33800000D01*
X105362546Y-33880701D01*
X105362546Y-33880701D01*
G37*
G36*
X48212546Y-33880701D02*
G01*
X48594721Y-34039003D01*
X48594723Y-34039004D01*
X48938672Y-34268823D01*
X49231177Y-34561328D01*
X49460996Y-34905277D01*
X49460997Y-34905279D01*
X49619299Y-35287454D01*
X49700000Y-35693167D01*
X49700000Y-36106833D01*
X49619299Y-36512546D01*
X49567370Y-36637913D01*
X49460996Y-36894723D01*
X49231177Y-37238672D01*
X48938672Y-37531177D01*
X48594723Y-37760996D01*
X48594722Y-37760997D01*
X48594721Y-37760997D01*
X48212546Y-37919299D01*
X47806833Y-38000000D01*
X47393167Y-38000000D01*
X46987454Y-37919299D01*
X46605279Y-37760997D01*
X46605278Y-37760997D01*
X46605277Y-37760996D01*
X46261328Y-37531177D01*
X45968823Y-37238672D01*
X45739004Y-36894723D01*
X45632630Y-36637913D01*
X45580701Y-36512546D01*
X45500000Y-36106833D01*
X45500000Y-35693167D01*
X45580701Y-35287454D01*
X45739003Y-34905279D01*
X45739004Y-34905277D01*
X45968823Y-34561328D01*
X46261328Y-34268823D01*
X46605277Y-34039004D01*
X46605279Y-34039003D01*
X46987454Y-33880701D01*
X47393167Y-33800000D01*
X47806833Y-33800000D01*
X48212546Y-33880701D01*
X48212546Y-33880701D01*
G37*
G36*
X10112546Y-33880701D02*
G01*
X10494721Y-34039003D01*
X10494723Y-34039004D01*
X10838672Y-34268823D01*
X11131177Y-34561328D01*
X11360996Y-34905277D01*
X11360997Y-34905279D01*
X11519299Y-35287454D01*
X11600000Y-35693167D01*
X11600000Y-36106833D01*
X11519299Y-36512546D01*
X11467370Y-36637913D01*
X11360996Y-36894723D01*
X11131177Y-37238672D01*
X10838672Y-37531177D01*
X10494723Y-37760996D01*
X10494722Y-37760997D01*
X10494721Y-37760997D01*
X10112546Y-37919299D01*
X9706833Y-38000000D01*
X9293167Y-38000000D01*
X8887454Y-37919299D01*
X8505279Y-37760997D01*
X8505278Y-37760997D01*
X8505277Y-37760996D01*
X8161328Y-37531177D01*
X7868823Y-37238672D01*
X7639004Y-36894723D01*
X7532630Y-36637913D01*
X7480701Y-36512546D01*
X7400000Y-36106833D01*
X7400000Y-35693167D01*
X7480701Y-35287454D01*
X7639003Y-34905279D01*
X7639004Y-34905277D01*
X7868823Y-34561328D01*
X8161328Y-34268823D01*
X8505277Y-34039004D01*
X8505279Y-34039003D01*
X8887454Y-33880701D01*
X9293167Y-33800000D01*
X9706833Y-33800000D01*
X10112546Y-33880701D01*
X10112546Y-33880701D01*
G37*
G36*
X86312546Y-33880701D02*
G01*
X86694721Y-34039003D01*
X86694723Y-34039004D01*
X87038672Y-34268823D01*
X87331177Y-34561328D01*
X87560996Y-34905277D01*
X87560997Y-34905279D01*
X87719299Y-35287454D01*
X87800000Y-35693167D01*
X87800000Y-36106833D01*
X87719299Y-36512546D01*
X87667370Y-36637913D01*
X87560996Y-36894723D01*
X87331177Y-37238672D01*
X87038672Y-37531177D01*
X86694723Y-37760996D01*
X86694722Y-37760997D01*
X86694721Y-37760997D01*
X86312546Y-37919299D01*
X85906833Y-38000000D01*
X85493167Y-38000000D01*
X85087454Y-37919299D01*
X84705279Y-37760997D01*
X84705278Y-37760997D01*
X84705277Y-37760996D01*
X84361328Y-37531177D01*
X84068823Y-37238672D01*
X83839004Y-36894723D01*
X83732630Y-36637913D01*
X83680701Y-36512546D01*
X83600000Y-36106833D01*
X83600000Y-35693167D01*
X83680701Y-35287454D01*
X83839003Y-34905279D01*
X83839004Y-34905277D01*
X84068823Y-34561328D01*
X84361328Y-34268823D01*
X84705277Y-34039004D01*
X84705279Y-34039003D01*
X85087454Y-33880701D01*
X85493167Y-33800000D01*
X85906833Y-33800000D01*
X86312546Y-33880701D01*
X86312546Y-33880701D01*
G37*
G36*
X29162546Y-33880701D02*
G01*
X29544721Y-34039003D01*
X29544723Y-34039004D01*
X29888672Y-34268823D01*
X30181177Y-34561328D01*
X30410996Y-34905277D01*
X30410997Y-34905279D01*
X30569299Y-35287454D01*
X30650000Y-35693167D01*
X30650000Y-36106833D01*
X30569299Y-36512546D01*
X30517370Y-36637913D01*
X30410996Y-36894723D01*
X30181177Y-37238672D01*
X29888672Y-37531177D01*
X29544723Y-37760996D01*
X29544722Y-37760997D01*
X29544721Y-37760997D01*
X29162546Y-37919299D01*
X28756833Y-38000000D01*
X28343167Y-38000000D01*
X27937454Y-37919299D01*
X27555279Y-37760997D01*
X27555278Y-37760997D01*
X27555277Y-37760996D01*
X27211328Y-37531177D01*
X26918823Y-37238672D01*
X26689004Y-36894723D01*
X26582630Y-36637913D01*
X26530701Y-36512546D01*
X26450000Y-36106833D01*
X26450000Y-35693167D01*
X26530701Y-35287454D01*
X26689003Y-34905279D01*
X26689004Y-34905277D01*
X26918823Y-34561328D01*
X27211328Y-34268823D01*
X27555277Y-34039004D01*
X27555279Y-34039003D01*
X27937454Y-33880701D01*
X28343167Y-33800000D01*
X28756833Y-33800000D01*
X29162546Y-33880701D01*
X29162546Y-33880701D01*
G37*
G36*
X42705336Y-34968254D02*
G01*
X42797105Y-34986508D01*
X42969994Y-35058121D01*
X43125590Y-35162087D01*
X43257913Y-35294410D01*
X43361879Y-35450006D01*
X43433492Y-35622895D01*
X43470000Y-35806433D01*
X43470000Y-35993567D01*
X43433492Y-36177105D01*
X43361879Y-36349994D01*
X43257913Y-36505590D01*
X43125590Y-36637913D01*
X42969994Y-36741879D01*
X42797105Y-36813492D01*
X42705336Y-36831746D01*
X42613568Y-36850000D01*
X42426432Y-36850000D01*
X42334664Y-36831746D01*
X42242895Y-36813492D01*
X42070006Y-36741879D01*
X41914410Y-36637913D01*
X41782087Y-36505590D01*
X41678121Y-36349994D01*
X41606508Y-36177105D01*
X41570000Y-35993567D01*
X41570000Y-35806433D01*
X41606508Y-35622895D01*
X41678121Y-35450006D01*
X41782087Y-35294410D01*
X41914410Y-35162087D01*
X42070006Y-35058121D01*
X42242895Y-34986508D01*
X42334664Y-34968254D01*
X42426432Y-34950000D01*
X42613568Y-34950000D01*
X42705336Y-34968254D01*
X42705336Y-34968254D01*
G37*
G36*
X52865336Y-34968254D02*
G01*
X52957105Y-34986508D01*
X53129994Y-35058121D01*
X53285590Y-35162087D01*
X53417913Y-35294410D01*
X53521879Y-35450006D01*
X53593492Y-35622895D01*
X53630000Y-35806433D01*
X53630000Y-35993567D01*
X53593492Y-36177105D01*
X53521879Y-36349994D01*
X53417913Y-36505590D01*
X53285590Y-36637913D01*
X53129994Y-36741879D01*
X52957105Y-36813492D01*
X52865336Y-36831746D01*
X52773568Y-36850000D01*
X52586432Y-36850000D01*
X52494664Y-36831746D01*
X52402895Y-36813492D01*
X52230006Y-36741879D01*
X52074410Y-36637913D01*
X51942087Y-36505590D01*
X51838121Y-36349994D01*
X51766508Y-36177105D01*
X51730000Y-35993567D01*
X51730000Y-35806433D01*
X51766508Y-35622895D01*
X51838121Y-35450006D01*
X51942087Y-35294410D01*
X52074410Y-35162087D01*
X52230006Y-35058121D01*
X52402895Y-34986508D01*
X52494664Y-34968254D01*
X52586432Y-34950000D01*
X52773568Y-34950000D01*
X52865336Y-34968254D01*
X52865336Y-34968254D01*
G37*
G36*
X61755336Y-34968254D02*
G01*
X61847105Y-34986508D01*
X62019994Y-35058121D01*
X62175590Y-35162087D01*
X62307913Y-35294410D01*
X62411879Y-35450006D01*
X62483492Y-35622895D01*
X62520000Y-35806433D01*
X62520000Y-35993567D01*
X62483492Y-36177105D01*
X62411879Y-36349994D01*
X62307913Y-36505590D01*
X62175590Y-36637913D01*
X62019994Y-36741879D01*
X61847105Y-36813492D01*
X61755336Y-36831746D01*
X61663568Y-36850000D01*
X61476432Y-36850000D01*
X61384664Y-36831746D01*
X61292895Y-36813492D01*
X61120006Y-36741879D01*
X60964410Y-36637913D01*
X60832087Y-36505590D01*
X60728121Y-36349994D01*
X60656508Y-36177105D01*
X60620000Y-35993567D01*
X60620000Y-35806433D01*
X60656508Y-35622895D01*
X60728121Y-35450006D01*
X60832087Y-35294410D01*
X60964410Y-35162087D01*
X61120006Y-35058121D01*
X61292895Y-34986508D01*
X61384664Y-34968254D01*
X61476432Y-34950000D01*
X61663568Y-34950000D01*
X61755336Y-34968254D01*
X61755336Y-34968254D01*
G37*
G36*
X71915336Y-34968254D02*
G01*
X72007105Y-34986508D01*
X72179994Y-35058121D01*
X72335590Y-35162087D01*
X72467913Y-35294410D01*
X72571879Y-35450006D01*
X72643492Y-35622895D01*
X72680000Y-35806433D01*
X72680000Y-35993567D01*
X72643492Y-36177105D01*
X72571879Y-36349994D01*
X72467913Y-36505590D01*
X72335590Y-36637913D01*
X72179994Y-36741879D01*
X72007105Y-36813492D01*
X71915336Y-36831746D01*
X71823568Y-36850000D01*
X71636432Y-36850000D01*
X71544664Y-36831746D01*
X71452895Y-36813492D01*
X71280006Y-36741879D01*
X71124410Y-36637913D01*
X70992087Y-36505590D01*
X70888121Y-36349994D01*
X70816508Y-36177105D01*
X70780000Y-35993567D01*
X70780000Y-35806433D01*
X70816508Y-35622895D01*
X70888121Y-35450006D01*
X70992087Y-35294410D01*
X71124410Y-35162087D01*
X71280006Y-35058121D01*
X71452895Y-34986508D01*
X71544664Y-34968254D01*
X71636432Y-34950000D01*
X71823568Y-34950000D01*
X71915336Y-34968254D01*
X71915336Y-34968254D01*
G37*
G36*
X14765336Y-34968254D02*
G01*
X14857105Y-34986508D01*
X15029994Y-35058121D01*
X15185590Y-35162087D01*
X15317913Y-35294410D01*
X15421879Y-35450006D01*
X15493492Y-35622895D01*
X15530000Y-35806433D01*
X15530000Y-35993567D01*
X15493492Y-36177105D01*
X15421879Y-36349994D01*
X15317913Y-36505590D01*
X15185590Y-36637913D01*
X15029994Y-36741879D01*
X14857105Y-36813492D01*
X14765336Y-36831746D01*
X14673568Y-36850000D01*
X14486432Y-36850000D01*
X14394664Y-36831746D01*
X14302895Y-36813492D01*
X14130006Y-36741879D01*
X13974410Y-36637913D01*
X13842087Y-36505590D01*
X13738121Y-36349994D01*
X13666508Y-36177105D01*
X13630000Y-35993567D01*
X13630000Y-35806433D01*
X13666508Y-35622895D01*
X13738121Y-35450006D01*
X13842087Y-35294410D01*
X13974410Y-35162087D01*
X14130006Y-35058121D01*
X14302895Y-34986508D01*
X14394664Y-34968254D01*
X14486432Y-34950000D01*
X14673568Y-34950000D01*
X14765336Y-34968254D01*
X14765336Y-34968254D01*
G37*
G36*
X4605336Y-34968254D02*
G01*
X4697105Y-34986508D01*
X4869994Y-35058121D01*
X5025590Y-35162087D01*
X5157913Y-35294410D01*
X5261879Y-35450006D01*
X5333492Y-35622895D01*
X5370000Y-35806433D01*
X5370000Y-35993567D01*
X5333492Y-36177105D01*
X5261879Y-36349994D01*
X5157913Y-36505590D01*
X5025590Y-36637913D01*
X4869994Y-36741879D01*
X4697105Y-36813492D01*
X4605336Y-36831746D01*
X4513568Y-36850000D01*
X4326432Y-36850000D01*
X4234664Y-36831746D01*
X4142895Y-36813492D01*
X3970006Y-36741879D01*
X3814410Y-36637913D01*
X3682087Y-36505590D01*
X3578121Y-36349994D01*
X3506508Y-36177105D01*
X3470000Y-35993567D01*
X3470000Y-35806433D01*
X3506508Y-35622895D01*
X3578121Y-35450006D01*
X3682087Y-35294410D01*
X3814410Y-35162087D01*
X3970006Y-35058121D01*
X4142895Y-34986508D01*
X4234664Y-34968254D01*
X4326432Y-34950000D01*
X4513568Y-34950000D01*
X4605336Y-34968254D01*
X4605336Y-34968254D01*
G37*
G36*
X99855336Y-34968254D02*
G01*
X99947105Y-34986508D01*
X100119994Y-35058121D01*
X100275590Y-35162087D01*
X100407913Y-35294410D01*
X100511879Y-35450006D01*
X100583492Y-35622895D01*
X100620000Y-35806433D01*
X100620000Y-35993567D01*
X100583492Y-36177105D01*
X100511879Y-36349994D01*
X100407913Y-36505590D01*
X100275590Y-36637913D01*
X100119994Y-36741879D01*
X99947105Y-36813492D01*
X99855336Y-36831746D01*
X99763568Y-36850000D01*
X99576432Y-36850000D01*
X99484664Y-36831746D01*
X99392895Y-36813492D01*
X99220006Y-36741879D01*
X99064410Y-36637913D01*
X98932087Y-36505590D01*
X98828121Y-36349994D01*
X98756508Y-36177105D01*
X98720000Y-35993567D01*
X98720000Y-35806433D01*
X98756508Y-35622895D01*
X98828121Y-35450006D01*
X98932087Y-35294410D01*
X99064410Y-35162087D01*
X99220006Y-35058121D01*
X99392895Y-34986508D01*
X99484664Y-34968254D01*
X99576432Y-34950000D01*
X99763568Y-34950000D01*
X99855336Y-34968254D01*
X99855336Y-34968254D01*
G37*
G36*
X110015336Y-34968254D02*
G01*
X110107105Y-34986508D01*
X110279994Y-35058121D01*
X110435590Y-35162087D01*
X110567913Y-35294410D01*
X110671879Y-35450006D01*
X110743492Y-35622895D01*
X110780000Y-35806433D01*
X110780000Y-35993567D01*
X110743492Y-36177105D01*
X110671879Y-36349994D01*
X110567913Y-36505590D01*
X110435590Y-36637913D01*
X110279994Y-36741879D01*
X110107105Y-36813492D01*
X110015336Y-36831746D01*
X109923568Y-36850000D01*
X109736432Y-36850000D01*
X109644664Y-36831746D01*
X109552895Y-36813492D01*
X109380006Y-36741879D01*
X109224410Y-36637913D01*
X109092087Y-36505590D01*
X108988121Y-36349994D01*
X108916508Y-36177105D01*
X108880000Y-35993567D01*
X108880000Y-35806433D01*
X108916508Y-35622895D01*
X108988121Y-35450006D01*
X109092087Y-35294410D01*
X109224410Y-35162087D01*
X109380006Y-35058121D01*
X109552895Y-34986508D01*
X109644664Y-34968254D01*
X109736432Y-34950000D01*
X109923568Y-34950000D01*
X110015336Y-34968254D01*
X110015336Y-34968254D01*
G37*
G36*
X33815336Y-34968254D02*
G01*
X33907105Y-34986508D01*
X34079994Y-35058121D01*
X34235590Y-35162087D01*
X34367913Y-35294410D01*
X34471879Y-35450006D01*
X34543492Y-35622895D01*
X34580000Y-35806433D01*
X34580000Y-35993567D01*
X34543492Y-36177105D01*
X34471879Y-36349994D01*
X34367913Y-36505590D01*
X34235590Y-36637913D01*
X34079994Y-36741879D01*
X33907105Y-36813492D01*
X33815336Y-36831746D01*
X33723568Y-36850000D01*
X33536432Y-36850000D01*
X33444664Y-36831746D01*
X33352895Y-36813492D01*
X33180006Y-36741879D01*
X33024410Y-36637913D01*
X32892087Y-36505590D01*
X32788121Y-36349994D01*
X32716508Y-36177105D01*
X32680000Y-35993567D01*
X32680000Y-35806433D01*
X32716508Y-35622895D01*
X32788121Y-35450006D01*
X32892087Y-35294410D01*
X33024410Y-35162087D01*
X33180006Y-35058121D01*
X33352895Y-34986508D01*
X33444664Y-34968254D01*
X33536432Y-34950000D01*
X33723568Y-34950000D01*
X33815336Y-34968254D01*
X33815336Y-34968254D01*
G37*
G36*
X90965336Y-34968254D02*
G01*
X91057105Y-34986508D01*
X91229994Y-35058121D01*
X91385590Y-35162087D01*
X91517913Y-35294410D01*
X91621879Y-35450006D01*
X91693492Y-35622895D01*
X91730000Y-35806433D01*
X91730000Y-35993567D01*
X91693492Y-36177105D01*
X91621879Y-36349994D01*
X91517913Y-36505590D01*
X91385590Y-36637913D01*
X91229994Y-36741879D01*
X91057105Y-36813492D01*
X90965336Y-36831746D01*
X90873568Y-36850000D01*
X90686432Y-36850000D01*
X90594664Y-36831746D01*
X90502895Y-36813492D01*
X90330006Y-36741879D01*
X90174410Y-36637913D01*
X90042087Y-36505590D01*
X89938121Y-36349994D01*
X89866508Y-36177105D01*
X89830000Y-35993567D01*
X89830000Y-35806433D01*
X89866508Y-35622895D01*
X89938121Y-35450006D01*
X90042087Y-35294410D01*
X90174410Y-35162087D01*
X90330006Y-35058121D01*
X90502895Y-34986508D01*
X90594664Y-34968254D01*
X90686432Y-34950000D01*
X90873568Y-34950000D01*
X90965336Y-34968254D01*
X90965336Y-34968254D01*
G37*
G36*
X80805336Y-34968254D02*
G01*
X80897105Y-34986508D01*
X81069994Y-35058121D01*
X81225590Y-35162087D01*
X81357913Y-35294410D01*
X81461879Y-35450006D01*
X81533492Y-35622895D01*
X81570000Y-35806433D01*
X81570000Y-35993567D01*
X81533492Y-36177105D01*
X81461879Y-36349994D01*
X81357913Y-36505590D01*
X81225590Y-36637913D01*
X81069994Y-36741879D01*
X80897105Y-36813492D01*
X80805336Y-36831746D01*
X80713568Y-36850000D01*
X80526432Y-36850000D01*
X80434664Y-36831746D01*
X80342895Y-36813492D01*
X80170006Y-36741879D01*
X80014410Y-36637913D01*
X79882087Y-36505590D01*
X79778121Y-36349994D01*
X79706508Y-36177105D01*
X79670000Y-35993567D01*
X79670000Y-35806433D01*
X79706508Y-35622895D01*
X79778121Y-35450006D01*
X79882087Y-35294410D01*
X80014410Y-35162087D01*
X80170006Y-35058121D01*
X80342895Y-34986508D01*
X80434664Y-34968254D01*
X80526432Y-34950000D01*
X80713568Y-34950000D01*
X80805336Y-34968254D01*
X80805336Y-34968254D01*
G37*
G36*
X23655336Y-34968254D02*
G01*
X23747105Y-34986508D01*
X23919994Y-35058121D01*
X24075590Y-35162087D01*
X24207913Y-35294410D01*
X24311879Y-35450006D01*
X24383492Y-35622895D01*
X24420000Y-35806433D01*
X24420000Y-35993567D01*
X24383492Y-36177105D01*
X24311879Y-36349994D01*
X24207913Y-36505590D01*
X24075590Y-36637913D01*
X23919994Y-36741879D01*
X23747105Y-36813492D01*
X23655336Y-36831746D01*
X23563568Y-36850000D01*
X23376432Y-36850000D01*
X23284664Y-36831746D01*
X23192895Y-36813492D01*
X23020006Y-36741879D01*
X22864410Y-36637913D01*
X22732087Y-36505590D01*
X22628121Y-36349994D01*
X22556508Y-36177105D01*
X22520000Y-35993567D01*
X22520000Y-35806433D01*
X22556508Y-35622895D01*
X22628121Y-35450006D01*
X22732087Y-35294410D01*
X22864410Y-35162087D01*
X23020006Y-35058121D01*
X23192895Y-34986508D01*
X23284664Y-34968254D01*
X23376432Y-34950000D01*
X23563568Y-34950000D01*
X23655336Y-34968254D01*
X23655336Y-34968254D01*
G37*
G36*
X57496857Y-31838272D02*
G01*
X57697043Y-31921192D01*
X57697045Y-31921193D01*
X57787738Y-31981792D01*
X57877208Y-32041574D01*
X58030426Y-32194792D01*
X58150808Y-32374957D01*
X58233728Y-32575143D01*
X58276000Y-32787658D01*
X58276000Y-33004342D01*
X58233728Y-33216857D01*
X58150808Y-33417043D01*
X58150807Y-33417045D01*
X58030425Y-33597209D01*
X57877209Y-33750425D01*
X57697045Y-33870807D01*
X57697044Y-33870808D01*
X57697043Y-33870808D01*
X57496857Y-33953728D01*
X57284342Y-33996000D01*
X57067658Y-33996000D01*
X56855143Y-33953728D01*
X56654957Y-33870808D01*
X56654956Y-33870808D01*
X56654955Y-33870807D01*
X56474791Y-33750425D01*
X56321575Y-33597209D01*
X56201193Y-33417045D01*
X56201192Y-33417043D01*
X56118272Y-33216857D01*
X56076000Y-33004342D01*
X56076000Y-32787658D01*
X56118272Y-32575143D01*
X56201192Y-32374957D01*
X56321574Y-32194792D01*
X56474792Y-32041574D01*
X56564262Y-31981792D01*
X56654955Y-31921193D01*
X56654957Y-31921192D01*
X56855143Y-31838272D01*
X57067658Y-31796000D01*
X57284342Y-31796000D01*
X57496857Y-31838272D01*
X57496857Y-31838272D01*
G37*
G36*
X95604780Y-23959566D02*
G01*
X95904237Y-24019131D01*
X96468401Y-24252815D01*
X96976135Y-24592072D01*
X97407928Y-25023865D01*
X97747185Y-25531599D01*
X97980869Y-26095763D01*
X97980869Y-26095765D01*
X98100000Y-26694675D01*
X98100000Y-27305325D01*
X98073524Y-27438426D01*
X97980869Y-27904237D01*
X97747185Y-28468401D01*
X97407928Y-28976135D01*
X96976135Y-29407928D01*
X96468401Y-29747185D01*
X95904237Y-29980869D01*
X95604780Y-30040435D01*
X95305325Y-30100000D01*
X94694675Y-30100000D01*
X94395220Y-30040435D01*
X94095763Y-29980869D01*
X93531599Y-29747185D01*
X93023865Y-29407928D01*
X92592072Y-28976135D01*
X92252815Y-28468401D01*
X92019131Y-27904237D01*
X91926476Y-27438426D01*
X91900000Y-27305325D01*
X91900000Y-26694675D01*
X92019131Y-26095765D01*
X92019131Y-26095763D01*
X92252815Y-25531599D01*
X92592072Y-25023865D01*
X93023865Y-24592072D01*
X93531599Y-24252815D01*
X94095763Y-24019131D01*
X94395220Y-23959565D01*
X94694675Y-23900000D01*
X95305325Y-23900000D01*
X95604780Y-23959566D01*
X95604780Y-23959566D01*
G37*
G36*
X19604780Y-23959566D02*
G01*
X19904237Y-24019131D01*
X20468401Y-24252815D01*
X20976135Y-24592072D01*
X21407928Y-25023865D01*
X21747185Y-25531599D01*
X21980869Y-26095763D01*
X21980869Y-26095765D01*
X22100000Y-26694675D01*
X22100000Y-27305325D01*
X22073524Y-27438426D01*
X21980869Y-27904237D01*
X21747185Y-28468401D01*
X21407928Y-28976135D01*
X20976135Y-29407928D01*
X20468401Y-29747185D01*
X19904237Y-29980869D01*
X19604780Y-30040435D01*
X19305325Y-30100000D01*
X18694675Y-30100000D01*
X18395220Y-30040435D01*
X18095763Y-29980869D01*
X17531599Y-29747185D01*
X17023865Y-29407928D01*
X16592072Y-28976135D01*
X16252815Y-28468401D01*
X16019131Y-27904237D01*
X15926476Y-27438426D01*
X15900000Y-27305325D01*
X15900000Y-26694675D01*
X16019131Y-26095765D01*
X16019131Y-26095763D01*
X16252815Y-25531599D01*
X16592072Y-25023865D01*
X17023865Y-24592072D01*
X17531599Y-24252815D01*
X18095763Y-24019131D01*
X18395220Y-23959565D01*
X18694675Y-23900000D01*
X19305325Y-23900000D01*
X19604780Y-23959566D01*
X19604780Y-23959566D01*
G37*
G36*
X69012751Y-26750771D02*
G01*
X69037255Y-26750771D01*
X69041131Y-26750000D01*
X70471557Y-26750000D01*
X70487249Y-26750771D01*
X70506137Y-26748911D01*
X71043861Y-26748911D01*
X71062199Y-26750717D01*
X71074450Y-26751319D01*
X71092869Y-26751319D01*
X71124754Y-26754459D01*
X71208839Y-26771185D01*
X71239505Y-26780487D01*
X71318703Y-26813291D01*
X71346965Y-26828398D01*
X71418256Y-26876033D01*
X71443014Y-26896352D01*
X71503648Y-26956986D01*
X71523967Y-26981744D01*
X71571602Y-27053035D01*
X71586709Y-27081297D01*
X71619513Y-27160495D01*
X71628815Y-27191161D01*
X71645541Y-27275246D01*
X71648681Y-27307131D01*
X71648681Y-27325550D01*
X71649283Y-27337801D01*
X71651089Y-27356139D01*
X71651089Y-27843862D01*
X71649283Y-27862199D01*
X71648681Y-27874450D01*
X71648681Y-27892869D01*
X71645541Y-27924754D01*
X71628815Y-28008839D01*
X71619513Y-28039505D01*
X71586709Y-28118703D01*
X71571602Y-28146965D01*
X71523967Y-28218256D01*
X71503648Y-28243014D01*
X71443014Y-28303648D01*
X71418256Y-28323967D01*
X71346965Y-28371602D01*
X71318703Y-28386709D01*
X71239505Y-28419513D01*
X71208839Y-28428815D01*
X71124754Y-28445541D01*
X71092869Y-28448681D01*
X71074450Y-28448681D01*
X71062199Y-28449283D01*
X71043862Y-28451089D01*
X70506137Y-28451089D01*
X70487249Y-28449229D01*
X70462745Y-28449229D01*
X70458869Y-28450000D01*
X69028443Y-28450000D01*
X69012751Y-28449229D01*
X68993863Y-28451089D01*
X68456138Y-28451089D01*
X68437801Y-28449283D01*
X68425550Y-28448681D01*
X68407131Y-28448681D01*
X68375246Y-28445541D01*
X68291161Y-28428815D01*
X68260495Y-28419513D01*
X68181297Y-28386709D01*
X68153035Y-28371602D01*
X68081744Y-28323967D01*
X68056986Y-28303648D01*
X67996352Y-28243014D01*
X67976033Y-28218256D01*
X67928398Y-28146965D01*
X67913291Y-28118703D01*
X67880487Y-28039505D01*
X67871185Y-28008839D01*
X67854459Y-27924754D01*
X67851319Y-27892869D01*
X67851319Y-27874450D01*
X67850717Y-27862199D01*
X67848911Y-27843862D01*
X67848911Y-27356139D01*
X67850717Y-27337801D01*
X67851319Y-27325550D01*
X67851319Y-27307131D01*
X67854459Y-27275246D01*
X67871185Y-27191161D01*
X67880487Y-27160495D01*
X67913291Y-27081297D01*
X67928398Y-27053035D01*
X67976033Y-26981744D01*
X67996352Y-26956986D01*
X68056986Y-26896352D01*
X68081744Y-26876033D01*
X68153035Y-26828398D01*
X68181297Y-26813291D01*
X68260495Y-26780487D01*
X68291161Y-26771185D01*
X68375246Y-26754459D01*
X68407131Y-26751319D01*
X68425550Y-26751319D01*
X68437801Y-26750717D01*
X68456139Y-26748911D01*
X68993863Y-26748911D01*
X69012751Y-26750771D01*
X69012751Y-26750771D01*
G37*
G36*
X105100026Y-25221115D02*
G01*
X105318411Y-25311573D01*
X105318413Y-25311574D01*
X105514955Y-25442899D01*
X105682101Y-25610045D01*
X105813427Y-25806589D01*
X105903885Y-26024974D01*
X105950000Y-26256809D01*
X105950000Y-26493191D01*
X105903885Y-26725026D01*
X105862271Y-26825490D01*
X105813426Y-26943413D01*
X105682101Y-27139955D01*
X105514955Y-27307101D01*
X105318413Y-27438426D01*
X105318412Y-27438427D01*
X105318411Y-27438427D01*
X105100026Y-27528885D01*
X104868191Y-27575000D01*
X104631809Y-27575000D01*
X104399974Y-27528885D01*
X104181589Y-27438427D01*
X104181588Y-27438427D01*
X104181587Y-27438426D01*
X103985045Y-27307101D01*
X103817899Y-27139955D01*
X103686574Y-26943413D01*
X103637729Y-26825490D01*
X103596115Y-26725026D01*
X103550000Y-26493191D01*
X103550000Y-26256809D01*
X103596115Y-26024974D01*
X103686573Y-25806589D01*
X103817899Y-25610045D01*
X103985045Y-25442899D01*
X104181587Y-25311574D01*
X104181589Y-25311573D01*
X104399974Y-25221115D01*
X104631809Y-25175000D01*
X104868191Y-25175000D01*
X105100026Y-25221115D01*
X105100026Y-25221115D01*
G37*
G36*
X9850026Y-25221115D02*
G01*
X10068411Y-25311573D01*
X10068413Y-25311574D01*
X10264955Y-25442899D01*
X10432101Y-25610045D01*
X10563427Y-25806589D01*
X10653885Y-26024974D01*
X10700000Y-26256809D01*
X10700000Y-26493191D01*
X10653885Y-26725026D01*
X10612271Y-26825490D01*
X10563426Y-26943413D01*
X10432101Y-27139955D01*
X10264955Y-27307101D01*
X10068413Y-27438426D01*
X10068412Y-27438427D01*
X10068411Y-27438427D01*
X9850026Y-27528885D01*
X9618191Y-27575000D01*
X9381809Y-27575000D01*
X9149974Y-27528885D01*
X8931589Y-27438427D01*
X8931588Y-27438427D01*
X8931587Y-27438426D01*
X8735045Y-27307101D01*
X8567899Y-27139955D01*
X8436574Y-26943413D01*
X8387729Y-26825490D01*
X8346115Y-26725026D01*
X8300000Y-26493191D01*
X8300000Y-26256809D01*
X8346115Y-26024974D01*
X8436573Y-25806589D01*
X8567899Y-25610045D01*
X8735045Y-25442899D01*
X8931587Y-25311574D01*
X8931589Y-25311573D01*
X9149974Y-25221115D01*
X9381809Y-25175000D01*
X9618191Y-25175000D01*
X9850026Y-25221115D01*
X9850026Y-25221115D01*
G37*
G36*
X58276000Y-27396000D02*
G01*
X56076000Y-27396000D01*
X56076000Y-25196000D01*
X58276000Y-25196000D01*
X58276000Y-27396000D01*
X58276000Y-27396000D01*
G37*
G36*
X83626703Y-20391486D02*
G01*
X83917883Y-20512097D01*
X84179940Y-20687198D01*
X84402802Y-20910060D01*
X84577903Y-21172117D01*
X84698514Y-21463297D01*
X84760000Y-21772412D01*
X84760000Y-22087588D01*
X84698514Y-22396703D01*
X84577903Y-22687883D01*
X84402802Y-22949940D01*
X84179940Y-23172802D01*
X83917883Y-23347903D01*
X83626703Y-23468514D01*
X83317588Y-23530000D01*
X83002412Y-23530000D01*
X82693297Y-23468514D01*
X82402117Y-23347903D01*
X82140060Y-23172802D01*
X81917198Y-22949940D01*
X81742097Y-22687883D01*
X81621486Y-22396703D01*
X81560000Y-22087588D01*
X81560000Y-21772412D01*
X81621486Y-21463297D01*
X81742097Y-21172117D01*
X81917198Y-20910060D01*
X82140060Y-20687198D01*
X82402117Y-20512097D01*
X82693297Y-20391486D01*
X83002412Y-20330000D01*
X83317588Y-20330000D01*
X83626703Y-20391486D01*
X83626703Y-20391486D01*
G37*
G36*
X45526703Y-20391486D02*
G01*
X45817883Y-20512097D01*
X46079940Y-20687198D01*
X46302802Y-20910060D01*
X46477903Y-21172117D01*
X46598514Y-21463297D01*
X46660000Y-21772412D01*
X46660000Y-22087588D01*
X46598514Y-22396703D01*
X46477903Y-22687883D01*
X46302802Y-22949940D01*
X46079940Y-23172802D01*
X45817883Y-23347903D01*
X45526703Y-23468514D01*
X45217588Y-23530000D01*
X44902412Y-23530000D01*
X44593297Y-23468514D01*
X44302117Y-23347903D01*
X44040060Y-23172802D01*
X43817198Y-22949940D01*
X43642097Y-22687883D01*
X43521486Y-22396703D01*
X43460000Y-22087588D01*
X43460000Y-21772412D01*
X43521486Y-21463297D01*
X43642097Y-21172117D01*
X43817198Y-20910060D01*
X44040060Y-20687198D01*
X44302117Y-20512097D01*
X44593297Y-20391486D01*
X44902412Y-20330000D01*
X45217588Y-20330000D01*
X45526703Y-20391486D01*
X45526703Y-20391486D01*
G37*
G36*
X7426703Y-20391486D02*
G01*
X7717883Y-20512097D01*
X7979940Y-20687198D01*
X8202802Y-20910060D01*
X8377903Y-21172117D01*
X8498514Y-21463297D01*
X8560000Y-21772412D01*
X8560000Y-22087588D01*
X8498514Y-22396703D01*
X8377903Y-22687883D01*
X8202802Y-22949940D01*
X7979940Y-23172802D01*
X7717883Y-23347903D01*
X7426703Y-23468514D01*
X7117588Y-23530000D01*
X6802412Y-23530000D01*
X6493297Y-23468514D01*
X6202117Y-23347903D01*
X5940060Y-23172802D01*
X5717198Y-22949940D01*
X5542097Y-22687883D01*
X5421486Y-22396703D01*
X5360000Y-22087588D01*
X5360000Y-21772412D01*
X5421486Y-21463297D01*
X5542097Y-21172117D01*
X5717198Y-20910060D01*
X5940060Y-20687198D01*
X6202117Y-20512097D01*
X6493297Y-20391486D01*
X6802412Y-20330000D01*
X7117588Y-20330000D01*
X7426703Y-20391486D01*
X7426703Y-20391486D01*
G37*
G36*
X102676703Y-20391486D02*
G01*
X102967883Y-20512097D01*
X103229940Y-20687198D01*
X103452802Y-20910060D01*
X103627903Y-21172117D01*
X103748514Y-21463297D01*
X103810000Y-21772412D01*
X103810000Y-22087588D01*
X103748514Y-22396703D01*
X103627903Y-22687883D01*
X103452802Y-22949940D01*
X103229940Y-23172802D01*
X102967883Y-23347903D01*
X102676703Y-23468514D01*
X102367588Y-23530000D01*
X102052412Y-23530000D01*
X101743297Y-23468514D01*
X101452117Y-23347903D01*
X101190060Y-23172802D01*
X100967198Y-22949940D01*
X100792097Y-22687883D01*
X100671486Y-22396703D01*
X100610000Y-22087588D01*
X100610000Y-21772412D01*
X100671486Y-21463297D01*
X100792097Y-21172117D01*
X100967198Y-20910060D01*
X101190060Y-20687198D01*
X101452117Y-20512097D01*
X101743297Y-20391486D01*
X102052412Y-20330000D01*
X102367588Y-20330000D01*
X102676703Y-20391486D01*
X102676703Y-20391486D01*
G37*
G36*
X26476703Y-20391486D02*
G01*
X26767883Y-20512097D01*
X27029940Y-20687198D01*
X27252802Y-20910060D01*
X27427903Y-21172117D01*
X27548514Y-21463297D01*
X27610000Y-21772412D01*
X27610000Y-22087588D01*
X27548514Y-22396703D01*
X27427903Y-22687883D01*
X27252802Y-22949940D01*
X27029940Y-23172802D01*
X26767883Y-23347903D01*
X26476703Y-23468514D01*
X26167588Y-23530000D01*
X25852412Y-23530000D01*
X25543297Y-23468514D01*
X25252117Y-23347903D01*
X24990060Y-23172802D01*
X24767198Y-22949940D01*
X24592097Y-22687883D01*
X24471486Y-22396703D01*
X24410000Y-22087588D01*
X24410000Y-21772412D01*
X24471486Y-21463297D01*
X24592097Y-21172117D01*
X24767198Y-20910060D01*
X24990060Y-20687198D01*
X25252117Y-20512097D01*
X25543297Y-20391486D01*
X25852412Y-20330000D01*
X26167588Y-20330000D01*
X26476703Y-20391486D01*
X26476703Y-20391486D01*
G37*
G36*
X64576703Y-20391486D02*
G01*
X64867883Y-20512097D01*
X65129940Y-20687198D01*
X65352802Y-20910060D01*
X65527903Y-21172117D01*
X65648514Y-21463297D01*
X65710000Y-21772412D01*
X65710000Y-22087588D01*
X65648514Y-22396703D01*
X65527903Y-22687883D01*
X65352802Y-22949940D01*
X65129940Y-23172802D01*
X64867883Y-23347903D01*
X64576703Y-23468514D01*
X64267588Y-23530000D01*
X63952412Y-23530000D01*
X63643297Y-23468514D01*
X63352117Y-23347903D01*
X63090060Y-23172802D01*
X62867198Y-22949940D01*
X62692097Y-22687883D01*
X62571486Y-22396703D01*
X62510000Y-22087588D01*
X62510000Y-21772412D01*
X62571486Y-21463297D01*
X62692097Y-21172117D01*
X62867198Y-20910060D01*
X63090060Y-20687198D01*
X63352117Y-20512097D01*
X63643297Y-20391486D01*
X63952412Y-20330000D01*
X64267588Y-20330000D01*
X64576703Y-20391486D01*
X64576703Y-20391486D01*
G37*
G36*
X38362199Y-17500717D02*
G01*
X38374450Y-17501319D01*
X38392869Y-17501319D01*
X38424754Y-17504459D01*
X38508839Y-17521185D01*
X38539505Y-17530487D01*
X38618703Y-17563291D01*
X38646965Y-17578398D01*
X38718256Y-17626033D01*
X38743014Y-17646352D01*
X38803648Y-17706986D01*
X38823967Y-17731744D01*
X38871602Y-17803035D01*
X38886709Y-17831297D01*
X38919513Y-17910495D01*
X38928815Y-17941161D01*
X38945541Y-18025246D01*
X38948681Y-18057131D01*
X38948681Y-18075550D01*
X38949283Y-18087801D01*
X38951089Y-18106139D01*
X38951089Y-18643863D01*
X38949229Y-18662751D01*
X38949229Y-18687255D01*
X38950000Y-18691131D01*
X38950000Y-20121557D01*
X38949229Y-20137249D01*
X38951089Y-20156137D01*
X38951089Y-20693862D01*
X38949283Y-20712199D01*
X38948681Y-20724450D01*
X38948681Y-20742869D01*
X38945541Y-20774754D01*
X38928815Y-20858839D01*
X38919513Y-20889505D01*
X38886709Y-20968703D01*
X38871602Y-20996965D01*
X38823967Y-21068256D01*
X38803648Y-21093014D01*
X38743014Y-21153648D01*
X38718256Y-21173967D01*
X38646965Y-21221602D01*
X38618703Y-21236709D01*
X38539505Y-21269513D01*
X38508839Y-21278815D01*
X38424754Y-21295541D01*
X38392869Y-21298681D01*
X38374450Y-21298681D01*
X38362199Y-21299283D01*
X38343862Y-21301089D01*
X37856138Y-21301089D01*
X37837801Y-21299283D01*
X37825550Y-21298681D01*
X37807131Y-21298681D01*
X37775246Y-21295541D01*
X37691161Y-21278815D01*
X37660495Y-21269513D01*
X37581297Y-21236709D01*
X37553035Y-21221602D01*
X37481744Y-21173967D01*
X37456986Y-21153648D01*
X37396352Y-21093014D01*
X37376033Y-21068256D01*
X37328398Y-20996965D01*
X37313291Y-20968703D01*
X37280487Y-20889505D01*
X37271185Y-20858839D01*
X37254459Y-20774754D01*
X37251319Y-20742869D01*
X37251319Y-20724450D01*
X37250717Y-20712199D01*
X37248911Y-20693862D01*
X37248911Y-20156137D01*
X37250771Y-20137249D01*
X37250771Y-20112745D01*
X37250000Y-20108869D01*
X37250000Y-18678443D01*
X37250771Y-18662751D01*
X37248911Y-18643863D01*
X37248911Y-18106139D01*
X37250717Y-18087801D01*
X37251319Y-18075550D01*
X37251319Y-18057131D01*
X37254459Y-18025246D01*
X37271185Y-17941161D01*
X37280487Y-17910495D01*
X37313291Y-17831297D01*
X37328398Y-17803035D01*
X37376033Y-17731744D01*
X37396352Y-17706986D01*
X37456986Y-17646352D01*
X37481744Y-17626033D01*
X37553035Y-17578398D01*
X37581297Y-17563291D01*
X37660495Y-17530487D01*
X37691161Y-17521185D01*
X37775246Y-17504459D01*
X37807131Y-17501319D01*
X37825550Y-17501319D01*
X37837801Y-17500717D01*
X37856139Y-17498911D01*
X38343861Y-17498911D01*
X38362199Y-17500717D01*
X38362199Y-17500717D01*
G37*
G36*
X13776703Y-17851486D02*
G01*
X14067883Y-17972097D01*
X14329940Y-18147198D01*
X14552802Y-18370060D01*
X14727903Y-18632117D01*
X14848514Y-18923297D01*
X14910000Y-19232412D01*
X14910000Y-19547588D01*
X14848514Y-19856703D01*
X14727903Y-20147883D01*
X14552802Y-20409940D01*
X14329940Y-20632802D01*
X14067883Y-20807903D01*
X13776703Y-20928514D01*
X13467588Y-20990000D01*
X13152412Y-20990000D01*
X12843297Y-20928514D01*
X12552117Y-20807903D01*
X12290060Y-20632802D01*
X12067198Y-20409940D01*
X11892097Y-20147883D01*
X11771486Y-19856703D01*
X11710000Y-19547588D01*
X11710000Y-19232412D01*
X11771486Y-18923297D01*
X11892097Y-18632117D01*
X12067198Y-18370060D01*
X12290060Y-18147198D01*
X12552117Y-17972097D01*
X12843297Y-17851486D01*
X13152412Y-17790000D01*
X13467588Y-17790000D01*
X13776703Y-17851486D01*
X13776703Y-17851486D01*
G37*
G36*
X89976703Y-17851486D02*
G01*
X90267883Y-17972097D01*
X90529940Y-18147198D01*
X90752802Y-18370060D01*
X90927903Y-18632117D01*
X91048514Y-18923297D01*
X91110000Y-19232412D01*
X91110000Y-19547588D01*
X91048514Y-19856703D01*
X90927903Y-20147883D01*
X90752802Y-20409940D01*
X90529940Y-20632802D01*
X90267883Y-20807903D01*
X89976703Y-20928514D01*
X89667588Y-20990000D01*
X89352412Y-20990000D01*
X89043297Y-20928514D01*
X88752117Y-20807903D01*
X88490060Y-20632802D01*
X88267198Y-20409940D01*
X88092097Y-20147883D01*
X87971486Y-19856703D01*
X87910000Y-19547588D01*
X87910000Y-19232412D01*
X87971486Y-18923297D01*
X88092097Y-18632117D01*
X88267198Y-18370060D01*
X88490060Y-18147198D01*
X88752117Y-17972097D01*
X89043297Y-17851486D01*
X89352412Y-17790000D01*
X89667588Y-17790000D01*
X89976703Y-17851486D01*
X89976703Y-17851486D01*
G37*
G36*
X51876703Y-17851486D02*
G01*
X52167883Y-17972097D01*
X52429940Y-18147198D01*
X52652802Y-18370060D01*
X52827903Y-18632117D01*
X52948514Y-18923297D01*
X53010000Y-19232412D01*
X53010000Y-19547588D01*
X52948514Y-19856703D01*
X52827903Y-20147883D01*
X52652802Y-20409940D01*
X52429940Y-20632802D01*
X52167883Y-20807903D01*
X51876703Y-20928514D01*
X51567588Y-20990000D01*
X51252412Y-20990000D01*
X50943297Y-20928514D01*
X50652117Y-20807903D01*
X50390060Y-20632802D01*
X50167198Y-20409940D01*
X49992097Y-20147883D01*
X49871486Y-19856703D01*
X49810000Y-19547588D01*
X49810000Y-19232412D01*
X49871486Y-18923297D01*
X49992097Y-18632117D01*
X50167198Y-18370060D01*
X50390060Y-18147198D01*
X50652117Y-17972097D01*
X50943297Y-17851486D01*
X51252412Y-17790000D01*
X51567588Y-17790000D01*
X51876703Y-17851486D01*
X51876703Y-17851486D01*
G37*
G36*
X70926703Y-17851486D02*
G01*
X71217883Y-17972097D01*
X71479940Y-18147198D01*
X71702802Y-18370060D01*
X71877903Y-18632117D01*
X71998514Y-18923297D01*
X72060000Y-19232412D01*
X72060000Y-19547588D01*
X71998514Y-19856703D01*
X71877903Y-20147883D01*
X71702802Y-20409940D01*
X71479940Y-20632802D01*
X71217883Y-20807903D01*
X70926703Y-20928514D01*
X70617588Y-20990000D01*
X70302412Y-20990000D01*
X69993297Y-20928514D01*
X69702117Y-20807903D01*
X69440060Y-20632802D01*
X69217198Y-20409940D01*
X69042097Y-20147883D01*
X68921486Y-19856703D01*
X68860000Y-19547588D01*
X68860000Y-19232412D01*
X68921486Y-18923297D01*
X69042097Y-18632117D01*
X69217198Y-18370060D01*
X69440060Y-18147198D01*
X69702117Y-17972097D01*
X69993297Y-17851486D01*
X70302412Y-17790000D01*
X70617588Y-17790000D01*
X70926703Y-17851486D01*
X70926703Y-17851486D01*
G37*
G36*
X32826703Y-17851486D02*
G01*
X33117883Y-17972097D01*
X33379940Y-18147198D01*
X33602802Y-18370060D01*
X33777903Y-18632117D01*
X33898514Y-18923297D01*
X33960000Y-19232412D01*
X33960000Y-19547588D01*
X33898514Y-19856703D01*
X33777903Y-20147883D01*
X33602802Y-20409940D01*
X33379940Y-20632802D01*
X33117883Y-20807903D01*
X32826703Y-20928514D01*
X32517588Y-20990000D01*
X32202412Y-20990000D01*
X31893297Y-20928514D01*
X31602117Y-20807903D01*
X31340060Y-20632802D01*
X31117198Y-20409940D01*
X30942097Y-20147883D01*
X30821486Y-19856703D01*
X30760000Y-19547588D01*
X30760000Y-19232412D01*
X30821486Y-18923297D01*
X30942097Y-18632117D01*
X31117198Y-18370060D01*
X31340060Y-18147198D01*
X31602117Y-17972097D01*
X31893297Y-17851486D01*
X32202412Y-17790000D01*
X32517588Y-17790000D01*
X32826703Y-17851486D01*
X32826703Y-17851486D01*
G37*
G36*
X109026703Y-17851486D02*
G01*
X109317883Y-17972097D01*
X109579940Y-18147198D01*
X109802802Y-18370060D01*
X109977903Y-18632117D01*
X110098514Y-18923297D01*
X110160000Y-19232412D01*
X110160000Y-19547588D01*
X110098514Y-19856703D01*
X109977903Y-20147883D01*
X109802802Y-20409940D01*
X109579940Y-20632802D01*
X109317883Y-20807903D01*
X109026703Y-20928514D01*
X108717588Y-20990000D01*
X108402412Y-20990000D01*
X108093297Y-20928514D01*
X107802117Y-20807903D01*
X107540060Y-20632802D01*
X107317198Y-20409940D01*
X107142097Y-20147883D01*
X107021486Y-19856703D01*
X106960000Y-19547588D01*
X106960000Y-19232412D01*
X107021486Y-18923297D01*
X107142097Y-18632117D01*
X107317198Y-18370060D01*
X107540060Y-18147198D01*
X107802117Y-17972097D01*
X108093297Y-17851486D01*
X108402412Y-17790000D01*
X108717588Y-17790000D01*
X109026703Y-17851486D01*
X109026703Y-17851486D01*
G37*
G36*
X86312546Y-14830701D02*
G01*
X86694721Y-14989003D01*
X86694723Y-14989004D01*
X87038672Y-15218823D01*
X87331177Y-15511328D01*
X87375457Y-15577598D01*
X87560997Y-15855279D01*
X87719299Y-16237454D01*
X87800000Y-16643167D01*
X87800000Y-17056833D01*
X87719299Y-17462546D01*
X87594643Y-17763492D01*
X87560996Y-17844723D01*
X87331177Y-18188672D01*
X87038672Y-18481177D01*
X86694723Y-18710996D01*
X86694722Y-18710997D01*
X86694721Y-18710997D01*
X86312546Y-18869299D01*
X85906833Y-18950000D01*
X85493167Y-18950000D01*
X85087454Y-18869299D01*
X84705279Y-18710997D01*
X84705278Y-18710997D01*
X84705277Y-18710996D01*
X84361328Y-18481177D01*
X84068823Y-18188672D01*
X83839004Y-17844723D01*
X83805357Y-17763492D01*
X83680701Y-17462546D01*
X83600000Y-17056833D01*
X83600000Y-16643167D01*
X83680701Y-16237454D01*
X83839003Y-15855279D01*
X84024543Y-15577598D01*
X84068823Y-15511328D01*
X84361328Y-15218823D01*
X84705277Y-14989004D01*
X84705279Y-14989003D01*
X85087454Y-14830701D01*
X85493167Y-14750000D01*
X85906833Y-14750000D01*
X86312546Y-14830701D01*
X86312546Y-14830701D01*
G37*
G36*
X105362546Y-14830701D02*
G01*
X105744721Y-14989003D01*
X105744723Y-14989004D01*
X106088672Y-15218823D01*
X106381177Y-15511328D01*
X106425457Y-15577598D01*
X106610997Y-15855279D01*
X106769299Y-16237454D01*
X106850000Y-16643167D01*
X106850000Y-17056833D01*
X106769299Y-17462546D01*
X106644643Y-17763492D01*
X106610996Y-17844723D01*
X106381177Y-18188672D01*
X106088672Y-18481177D01*
X105744723Y-18710996D01*
X105744722Y-18710997D01*
X105744721Y-18710997D01*
X105362546Y-18869299D01*
X104956833Y-18950000D01*
X104543167Y-18950000D01*
X104137454Y-18869299D01*
X103755279Y-18710997D01*
X103755278Y-18710997D01*
X103755277Y-18710996D01*
X103411328Y-18481177D01*
X103118823Y-18188672D01*
X102889004Y-17844723D01*
X102855357Y-17763492D01*
X102730701Y-17462546D01*
X102650000Y-17056833D01*
X102650000Y-16643167D01*
X102730701Y-16237454D01*
X102889003Y-15855279D01*
X103074543Y-15577598D01*
X103118823Y-15511328D01*
X103411328Y-15218823D01*
X103755277Y-14989004D01*
X103755279Y-14989003D01*
X104137454Y-14830701D01*
X104543167Y-14750000D01*
X104956833Y-14750000D01*
X105362546Y-14830701D01*
X105362546Y-14830701D01*
G37*
G36*
X48212546Y-14830701D02*
G01*
X48594721Y-14989003D01*
X48594723Y-14989004D01*
X48938672Y-15218823D01*
X49231177Y-15511328D01*
X49275457Y-15577598D01*
X49460997Y-15855279D01*
X49619299Y-16237454D01*
X49700000Y-16643167D01*
X49700000Y-17056833D01*
X49619299Y-17462546D01*
X49494643Y-17763492D01*
X49460996Y-17844723D01*
X49231177Y-18188672D01*
X48938672Y-18481177D01*
X48594723Y-18710996D01*
X48594722Y-18710997D01*
X48594721Y-18710997D01*
X48212546Y-18869299D01*
X47806833Y-18950000D01*
X47393167Y-18950000D01*
X46987454Y-18869299D01*
X46605279Y-18710997D01*
X46605278Y-18710997D01*
X46605277Y-18710996D01*
X46261328Y-18481177D01*
X45968823Y-18188672D01*
X45739004Y-17844723D01*
X45705357Y-17763492D01*
X45580701Y-17462546D01*
X45500000Y-17056833D01*
X45500000Y-16643167D01*
X45580701Y-16237454D01*
X45739003Y-15855279D01*
X45924543Y-15577598D01*
X45968823Y-15511328D01*
X46261328Y-15218823D01*
X46605277Y-14989004D01*
X46605279Y-14989003D01*
X46987454Y-14830701D01*
X47393167Y-14750000D01*
X47806833Y-14750000D01*
X48212546Y-14830701D01*
X48212546Y-14830701D01*
G37*
G36*
X67262546Y-14830701D02*
G01*
X67644721Y-14989003D01*
X67644723Y-14989004D01*
X67988672Y-15218823D01*
X68281177Y-15511328D01*
X68325457Y-15577598D01*
X68510997Y-15855279D01*
X68669299Y-16237454D01*
X68750000Y-16643167D01*
X68750000Y-17056833D01*
X68669299Y-17462546D01*
X68544643Y-17763492D01*
X68510996Y-17844723D01*
X68281177Y-18188672D01*
X67988672Y-18481177D01*
X67644723Y-18710996D01*
X67644722Y-18710997D01*
X67644721Y-18710997D01*
X67262546Y-18869299D01*
X66856833Y-18950000D01*
X66443167Y-18950000D01*
X66037454Y-18869299D01*
X65655279Y-18710997D01*
X65655278Y-18710997D01*
X65655277Y-18710996D01*
X65311328Y-18481177D01*
X65018823Y-18188672D01*
X64789004Y-17844723D01*
X64755357Y-17763492D01*
X64630701Y-17462546D01*
X64550000Y-17056833D01*
X64550000Y-16643167D01*
X64630701Y-16237454D01*
X64789003Y-15855279D01*
X64974543Y-15577598D01*
X65018823Y-15511328D01*
X65311328Y-15218823D01*
X65655277Y-14989004D01*
X65655279Y-14989003D01*
X66037454Y-14830701D01*
X66443167Y-14750000D01*
X66856833Y-14750000D01*
X67262546Y-14830701D01*
X67262546Y-14830701D01*
G37*
G36*
X29162546Y-14830701D02*
G01*
X29544721Y-14989003D01*
X29544723Y-14989004D01*
X29888672Y-15218823D01*
X30181177Y-15511328D01*
X30225457Y-15577598D01*
X30410997Y-15855279D01*
X30569299Y-16237454D01*
X30650000Y-16643167D01*
X30650000Y-17056833D01*
X30569299Y-17462546D01*
X30444643Y-17763492D01*
X30410996Y-17844723D01*
X30181177Y-18188672D01*
X29888672Y-18481177D01*
X29544723Y-18710996D01*
X29544722Y-18710997D01*
X29544721Y-18710997D01*
X29162546Y-18869299D01*
X28756833Y-18950000D01*
X28343167Y-18950000D01*
X27937454Y-18869299D01*
X27555279Y-18710997D01*
X27555278Y-18710997D01*
X27555277Y-18710996D01*
X27211328Y-18481177D01*
X26918823Y-18188672D01*
X26689004Y-17844723D01*
X26655357Y-17763492D01*
X26530701Y-17462546D01*
X26450000Y-17056833D01*
X26450000Y-16643167D01*
X26530701Y-16237454D01*
X26689003Y-15855279D01*
X26874543Y-15577598D01*
X26918823Y-15511328D01*
X27211328Y-15218823D01*
X27555277Y-14989004D01*
X27555279Y-14989003D01*
X27937454Y-14830701D01*
X28343167Y-14750000D01*
X28756833Y-14750000D01*
X29162546Y-14830701D01*
X29162546Y-14830701D01*
G37*
G36*
X10112546Y-14830701D02*
G01*
X10494721Y-14989003D01*
X10494723Y-14989004D01*
X10838672Y-15218823D01*
X11131177Y-15511328D01*
X11175457Y-15577598D01*
X11360997Y-15855279D01*
X11519299Y-16237454D01*
X11600000Y-16643167D01*
X11600000Y-17056833D01*
X11519299Y-17462546D01*
X11394643Y-17763492D01*
X11360996Y-17844723D01*
X11131177Y-18188672D01*
X10838672Y-18481177D01*
X10494723Y-18710996D01*
X10494722Y-18710997D01*
X10494721Y-18710997D01*
X10112546Y-18869299D01*
X9706833Y-18950000D01*
X9293167Y-18950000D01*
X8887454Y-18869299D01*
X8505279Y-18710997D01*
X8505278Y-18710997D01*
X8505277Y-18710996D01*
X8161328Y-18481177D01*
X7868823Y-18188672D01*
X7639004Y-17844723D01*
X7605357Y-17763492D01*
X7480701Y-17462546D01*
X7400000Y-17056833D01*
X7400000Y-16643167D01*
X7480701Y-16237454D01*
X7639003Y-15855279D01*
X7824543Y-15577598D01*
X7868823Y-15511328D01*
X8161328Y-15218823D01*
X8505277Y-14989004D01*
X8505279Y-14989003D01*
X8887454Y-14830701D01*
X9293167Y-14750000D01*
X9706833Y-14750000D01*
X10112546Y-14830701D01*
X10112546Y-14830701D01*
G37*
G36*
X61755336Y-15918254D02*
G01*
X61847105Y-15936508D01*
X62019994Y-16008121D01*
X62175590Y-16112087D01*
X62307913Y-16244410D01*
X62411879Y-16400006D01*
X62483492Y-16572895D01*
X62520000Y-16756433D01*
X62520000Y-16943567D01*
X62483492Y-17127105D01*
X62411879Y-17299994D01*
X62307913Y-17455590D01*
X62175590Y-17587913D01*
X62019994Y-17691879D01*
X61847105Y-17763492D01*
X61755336Y-17781746D01*
X61663568Y-17800000D01*
X61476432Y-17800000D01*
X61384664Y-17781746D01*
X61292895Y-17763492D01*
X61120006Y-17691879D01*
X60964410Y-17587913D01*
X60832087Y-17455590D01*
X60728121Y-17299994D01*
X60656508Y-17127105D01*
X60620000Y-16943567D01*
X60620000Y-16756433D01*
X60656508Y-16572895D01*
X60728121Y-16400006D01*
X60832087Y-16244410D01*
X60964410Y-16112087D01*
X61120006Y-16008121D01*
X61292895Y-15936508D01*
X61384664Y-15918254D01*
X61476432Y-15900000D01*
X61663568Y-15900000D01*
X61755336Y-15918254D01*
X61755336Y-15918254D01*
G37*
G36*
X71915336Y-15918254D02*
G01*
X72007105Y-15936508D01*
X72179994Y-16008121D01*
X72335590Y-16112087D01*
X72467913Y-16244410D01*
X72571879Y-16400006D01*
X72643492Y-16572895D01*
X72680000Y-16756433D01*
X72680000Y-16943567D01*
X72643492Y-17127105D01*
X72571879Y-17299994D01*
X72467913Y-17455590D01*
X72335590Y-17587913D01*
X72179994Y-17691879D01*
X72007105Y-17763492D01*
X71915336Y-17781746D01*
X71823568Y-17800000D01*
X71636432Y-17800000D01*
X71544664Y-17781746D01*
X71452895Y-17763492D01*
X71280006Y-17691879D01*
X71124410Y-17587913D01*
X70992087Y-17455590D01*
X70888121Y-17299994D01*
X70816508Y-17127105D01*
X70780000Y-16943567D01*
X70780000Y-16756433D01*
X70816508Y-16572895D01*
X70888121Y-16400006D01*
X70992087Y-16244410D01*
X71124410Y-16112087D01*
X71280006Y-16008121D01*
X71452895Y-15936508D01*
X71544664Y-15918254D01*
X71636432Y-15900000D01*
X71823568Y-15900000D01*
X71915336Y-15918254D01*
X71915336Y-15918254D01*
G37*
G36*
X110015336Y-15918254D02*
G01*
X110107105Y-15936508D01*
X110279994Y-16008121D01*
X110435590Y-16112087D01*
X110567913Y-16244410D01*
X110671879Y-16400006D01*
X110743492Y-16572895D01*
X110780000Y-16756433D01*
X110780000Y-16943567D01*
X110743492Y-17127105D01*
X110671879Y-17299994D01*
X110567913Y-17455590D01*
X110435590Y-17587913D01*
X110279994Y-17691879D01*
X110107105Y-17763492D01*
X110015336Y-17781746D01*
X109923568Y-17800000D01*
X109736432Y-17800000D01*
X109644664Y-17781746D01*
X109552895Y-17763492D01*
X109380006Y-17691879D01*
X109224410Y-17587913D01*
X109092087Y-17455590D01*
X108988121Y-17299994D01*
X108916508Y-17127105D01*
X108880000Y-16943567D01*
X108880000Y-16756433D01*
X108916508Y-16572895D01*
X108988121Y-16400006D01*
X109092087Y-16244410D01*
X109224410Y-16112087D01*
X109380006Y-16008121D01*
X109552895Y-15936508D01*
X109644664Y-15918254D01*
X109736432Y-15900000D01*
X109923568Y-15900000D01*
X110015336Y-15918254D01*
X110015336Y-15918254D01*
G37*
G36*
X99855336Y-15918254D02*
G01*
X99947105Y-15936508D01*
X100119994Y-16008121D01*
X100275590Y-16112087D01*
X100407913Y-16244410D01*
X100511879Y-16400006D01*
X100583492Y-16572895D01*
X100620000Y-16756433D01*
X100620000Y-16943567D01*
X100583492Y-17127105D01*
X100511879Y-17299994D01*
X100407913Y-17455590D01*
X100275590Y-17587913D01*
X100119994Y-17691879D01*
X99947105Y-17763492D01*
X99855336Y-17781746D01*
X99763568Y-17800000D01*
X99576432Y-17800000D01*
X99484664Y-17781746D01*
X99392895Y-17763492D01*
X99220006Y-17691879D01*
X99064410Y-17587913D01*
X98932087Y-17455590D01*
X98828121Y-17299994D01*
X98756508Y-17127105D01*
X98720000Y-16943567D01*
X98720000Y-16756433D01*
X98756508Y-16572895D01*
X98828121Y-16400006D01*
X98932087Y-16244410D01*
X99064410Y-16112087D01*
X99220006Y-16008121D01*
X99392895Y-15936508D01*
X99484664Y-15918254D01*
X99576432Y-15900000D01*
X99763568Y-15900000D01*
X99855336Y-15918254D01*
X99855336Y-15918254D01*
G37*
G36*
X33815336Y-15918254D02*
G01*
X33907105Y-15936508D01*
X34079994Y-16008121D01*
X34235590Y-16112087D01*
X34367913Y-16244410D01*
X34471879Y-16400006D01*
X34543492Y-16572895D01*
X34580000Y-16756433D01*
X34580000Y-16943567D01*
X34543492Y-17127105D01*
X34471879Y-17299994D01*
X34367913Y-17455590D01*
X34235590Y-17587913D01*
X34079994Y-17691879D01*
X33907105Y-17763492D01*
X33815336Y-17781746D01*
X33723568Y-17800000D01*
X33536432Y-17800000D01*
X33444664Y-17781746D01*
X33352895Y-17763492D01*
X33180006Y-17691879D01*
X33024410Y-17587913D01*
X32892087Y-17455590D01*
X32788121Y-17299994D01*
X32716508Y-17127105D01*
X32680000Y-16943567D01*
X32680000Y-16756433D01*
X32716508Y-16572895D01*
X32788121Y-16400006D01*
X32892087Y-16244410D01*
X33024410Y-16112087D01*
X33180006Y-16008121D01*
X33352895Y-15936508D01*
X33444664Y-15918254D01*
X33536432Y-15900000D01*
X33723568Y-15900000D01*
X33815336Y-15918254D01*
X33815336Y-15918254D01*
G37*
G36*
X23655336Y-15918254D02*
G01*
X23747105Y-15936508D01*
X23919994Y-16008121D01*
X24075590Y-16112087D01*
X24207913Y-16244410D01*
X24311879Y-16400006D01*
X24383492Y-16572895D01*
X24420000Y-16756433D01*
X24420000Y-16943567D01*
X24383492Y-17127105D01*
X24311879Y-17299994D01*
X24207913Y-17455590D01*
X24075590Y-17587913D01*
X23919994Y-17691879D01*
X23747105Y-17763492D01*
X23655336Y-17781746D01*
X23563568Y-17800000D01*
X23376432Y-17800000D01*
X23284664Y-17781746D01*
X23192895Y-17763492D01*
X23020006Y-17691879D01*
X22864410Y-17587913D01*
X22732087Y-17455590D01*
X22628121Y-17299994D01*
X22556508Y-17127105D01*
X22520000Y-16943567D01*
X22520000Y-16756433D01*
X22556508Y-16572895D01*
X22628121Y-16400006D01*
X22732087Y-16244410D01*
X22864410Y-16112087D01*
X23020006Y-16008121D01*
X23192895Y-15936508D01*
X23284664Y-15918254D01*
X23376432Y-15900000D01*
X23563568Y-15900000D01*
X23655336Y-15918254D01*
X23655336Y-15918254D01*
G37*
G36*
X80805336Y-15918254D02*
G01*
X80897105Y-15936508D01*
X81069994Y-16008121D01*
X81225590Y-16112087D01*
X81357913Y-16244410D01*
X81461879Y-16400006D01*
X81533492Y-16572895D01*
X81570000Y-16756433D01*
X81570000Y-16943567D01*
X81533492Y-17127105D01*
X81461879Y-17299994D01*
X81357913Y-17455590D01*
X81225590Y-17587913D01*
X81069994Y-17691879D01*
X80897105Y-17763492D01*
X80805336Y-17781746D01*
X80713568Y-17800000D01*
X80526432Y-17800000D01*
X80434664Y-17781746D01*
X80342895Y-17763492D01*
X80170006Y-17691879D01*
X80014410Y-17587913D01*
X79882087Y-17455590D01*
X79778121Y-17299994D01*
X79706508Y-17127105D01*
X79670000Y-16943567D01*
X79670000Y-16756433D01*
X79706508Y-16572895D01*
X79778121Y-16400006D01*
X79882087Y-16244410D01*
X80014410Y-16112087D01*
X80170006Y-16008121D01*
X80342895Y-15936508D01*
X80434664Y-15918254D01*
X80526432Y-15900000D01*
X80713568Y-15900000D01*
X80805336Y-15918254D01*
X80805336Y-15918254D01*
G37*
G36*
X42705336Y-15918254D02*
G01*
X42797105Y-15936508D01*
X42969994Y-16008121D01*
X43125590Y-16112087D01*
X43257913Y-16244410D01*
X43361879Y-16400006D01*
X43433492Y-16572895D01*
X43470000Y-16756433D01*
X43470000Y-16943567D01*
X43433492Y-17127105D01*
X43361879Y-17299994D01*
X43257913Y-17455590D01*
X43125590Y-17587913D01*
X42969994Y-17691879D01*
X42797105Y-17763492D01*
X42705336Y-17781746D01*
X42613568Y-17800000D01*
X42426432Y-17800000D01*
X42334664Y-17781746D01*
X42242895Y-17763492D01*
X42070006Y-17691879D01*
X41914410Y-17587913D01*
X41782087Y-17455590D01*
X41678121Y-17299994D01*
X41606508Y-17127105D01*
X41570000Y-16943567D01*
X41570000Y-16756433D01*
X41606508Y-16572895D01*
X41678121Y-16400006D01*
X41782087Y-16244410D01*
X41914410Y-16112087D01*
X42070006Y-16008121D01*
X42242895Y-15936508D01*
X42334664Y-15918254D01*
X42426432Y-15900000D01*
X42613568Y-15900000D01*
X42705336Y-15918254D01*
X42705336Y-15918254D01*
G37*
G36*
X52865336Y-15918254D02*
G01*
X52957105Y-15936508D01*
X53129994Y-16008121D01*
X53285590Y-16112087D01*
X53417913Y-16244410D01*
X53521879Y-16400006D01*
X53593492Y-16572895D01*
X53630000Y-16756433D01*
X53630000Y-16943567D01*
X53593492Y-17127105D01*
X53521879Y-17299994D01*
X53417913Y-17455590D01*
X53285590Y-17587913D01*
X53129994Y-17691879D01*
X52957105Y-17763492D01*
X52865336Y-17781746D01*
X52773568Y-17800000D01*
X52586432Y-17800000D01*
X52494664Y-17781746D01*
X52402895Y-17763492D01*
X52230006Y-17691879D01*
X52074410Y-17587913D01*
X51942087Y-17455590D01*
X51838121Y-17299994D01*
X51766508Y-17127105D01*
X51730000Y-16943567D01*
X51730000Y-16756433D01*
X51766508Y-16572895D01*
X51838121Y-16400006D01*
X51942087Y-16244410D01*
X52074410Y-16112087D01*
X52230006Y-16008121D01*
X52402895Y-15936508D01*
X52494664Y-15918254D01*
X52586432Y-15900000D01*
X52773568Y-15900000D01*
X52865336Y-15918254D01*
X52865336Y-15918254D01*
G37*
G36*
X4605336Y-15918254D02*
G01*
X4697105Y-15936508D01*
X4869994Y-16008121D01*
X5025590Y-16112087D01*
X5157913Y-16244410D01*
X5261879Y-16400006D01*
X5333492Y-16572895D01*
X5370000Y-16756433D01*
X5370000Y-16943567D01*
X5333492Y-17127105D01*
X5261879Y-17299994D01*
X5157913Y-17455590D01*
X5025590Y-17587913D01*
X4869994Y-17691879D01*
X4697105Y-17763492D01*
X4605336Y-17781746D01*
X4513568Y-17800000D01*
X4326432Y-17800000D01*
X4234664Y-17781746D01*
X4142895Y-17763492D01*
X3970006Y-17691879D01*
X3814410Y-17587913D01*
X3682087Y-17455590D01*
X3578121Y-17299994D01*
X3506508Y-17127105D01*
X3470000Y-16943567D01*
X3470000Y-16756433D01*
X3506508Y-16572895D01*
X3578121Y-16400006D01*
X3682087Y-16244410D01*
X3814410Y-16112087D01*
X3970006Y-16008121D01*
X4142895Y-15936508D01*
X4234664Y-15918254D01*
X4326432Y-15900000D01*
X4513568Y-15900000D01*
X4605336Y-15918254D01*
X4605336Y-15918254D01*
G37*
G36*
X14765336Y-15918254D02*
G01*
X14857105Y-15936508D01*
X15029994Y-16008121D01*
X15185590Y-16112087D01*
X15317913Y-16244410D01*
X15421879Y-16400006D01*
X15493492Y-16572895D01*
X15530000Y-16756433D01*
X15530000Y-16943567D01*
X15493492Y-17127105D01*
X15421879Y-17299994D01*
X15317913Y-17455590D01*
X15185590Y-17587913D01*
X15029994Y-17691879D01*
X14857105Y-17763492D01*
X14765336Y-17781746D01*
X14673568Y-17800000D01*
X14486432Y-17800000D01*
X14394664Y-17781746D01*
X14302895Y-17763492D01*
X14130006Y-17691879D01*
X13974410Y-17587913D01*
X13842087Y-17455590D01*
X13738121Y-17299994D01*
X13666508Y-17127105D01*
X13630000Y-16943567D01*
X13630000Y-16756433D01*
X13666508Y-16572895D01*
X13738121Y-16400006D01*
X13842087Y-16244410D01*
X13974410Y-16112087D01*
X14130006Y-16008121D01*
X14302895Y-15936508D01*
X14394664Y-15918254D01*
X14486432Y-15900000D01*
X14673568Y-15900000D01*
X14765336Y-15918254D01*
X14765336Y-15918254D01*
G37*
G36*
X90965336Y-15918254D02*
G01*
X91057105Y-15936508D01*
X91229994Y-16008121D01*
X91385590Y-16112087D01*
X91517913Y-16244410D01*
X91621879Y-16400006D01*
X91693492Y-16572895D01*
X91730000Y-16756433D01*
X91730000Y-16943567D01*
X91693492Y-17127105D01*
X91621879Y-17299994D01*
X91517913Y-17455590D01*
X91385590Y-17587913D01*
X91229994Y-17691879D01*
X91057105Y-17763492D01*
X90965336Y-17781746D01*
X90873568Y-17800000D01*
X90686432Y-17800000D01*
X90594664Y-17781746D01*
X90502895Y-17763492D01*
X90330006Y-17691879D01*
X90174410Y-17587913D01*
X90042087Y-17455590D01*
X89938121Y-17299994D01*
X89866508Y-17127105D01*
X89830000Y-16943567D01*
X89830000Y-16756433D01*
X89866508Y-16572895D01*
X89938121Y-16400006D01*
X90042087Y-16244410D01*
X90174410Y-16112087D01*
X90330006Y-16008121D01*
X90502895Y-15936508D01*
X90594664Y-15918254D01*
X90686432Y-15900000D01*
X90873568Y-15900000D01*
X90965336Y-15918254D01*
X90965336Y-15918254D01*
G37*
G36*
X75350137Y-15456139D02*
G01*
X75407642Y-15467577D01*
X75461811Y-15490014D01*
X75515981Y-15512452D01*
X75613479Y-15577598D01*
X75696402Y-15660521D01*
X75761548Y-15758019D01*
X75806423Y-15866359D01*
X75829300Y-15981367D01*
X75829300Y-16098633D01*
X75806423Y-16213641D01*
X75761548Y-16321981D01*
X75696402Y-16419479D01*
X75613479Y-16502402D01*
X75515981Y-16567548D01*
X75461811Y-16589985D01*
X75407642Y-16612423D01*
X75350137Y-16623862D01*
X75292633Y-16635300D01*
X75175367Y-16635300D01*
X75117863Y-16623862D01*
X75060358Y-16612423D01*
X75006189Y-16589986D01*
X74952019Y-16567548D01*
X74854521Y-16502402D01*
X74771598Y-16419479D01*
X74706452Y-16321981D01*
X74661577Y-16213641D01*
X74638700Y-16098633D01*
X74638700Y-15981367D01*
X74661577Y-15866359D01*
X74706452Y-15758019D01*
X74771598Y-15660521D01*
X74854521Y-15577598D01*
X74952019Y-15512452D01*
X75006189Y-15490014D01*
X75060358Y-15467577D01*
X75117863Y-15456138D01*
X75175367Y-15444700D01*
X75292633Y-15444700D01*
X75350137Y-15456139D01*
X75350137Y-15456139D01*
G37*
G36*
X77382137Y-15456139D02*
G01*
X77439642Y-15467577D01*
X77493811Y-15490014D01*
X77547981Y-15512452D01*
X77645479Y-15577598D01*
X77728402Y-15660521D01*
X77793548Y-15758019D01*
X77838423Y-15866359D01*
X77861300Y-15981367D01*
X77861300Y-16098633D01*
X77838423Y-16213641D01*
X77793548Y-16321981D01*
X77728402Y-16419479D01*
X77645479Y-16502402D01*
X77547981Y-16567548D01*
X77493811Y-16589985D01*
X77439642Y-16612423D01*
X77382137Y-16623862D01*
X77324633Y-16635300D01*
X77207367Y-16635300D01*
X77149863Y-16623862D01*
X77092358Y-16612423D01*
X77038189Y-16589986D01*
X76984019Y-16567548D01*
X76886521Y-16502402D01*
X76803598Y-16419479D01*
X76738452Y-16321981D01*
X76693577Y-16213641D01*
X76670700Y-16098633D01*
X76670700Y-15981367D01*
X76693577Y-15866359D01*
X76738452Y-15758019D01*
X76803598Y-15660521D01*
X76886521Y-15577598D01*
X76984019Y-15512452D01*
X77038189Y-15490014D01*
X77092358Y-15467577D01*
X77149863Y-15456138D01*
X77207367Y-15444700D01*
X77324633Y-15444700D01*
X77382137Y-15456139D01*
X77382137Y-15456139D01*
G37*
G36*
X95377836Y-11696254D02*
G01*
X95469605Y-11714508D01*
X95642494Y-11786121D01*
X95798090Y-11890087D01*
X95930413Y-12022410D01*
X96034379Y-12178006D01*
X96105992Y-12350895D01*
X96142500Y-12534433D01*
X96142500Y-12721567D01*
X96105992Y-12905105D01*
X96034379Y-13077994D01*
X95930413Y-13233590D01*
X95798090Y-13365913D01*
X95642494Y-13469879D01*
X95469605Y-13541492D01*
X95377836Y-13559746D01*
X95286068Y-13578000D01*
X95098932Y-13578000D01*
X95007164Y-13559746D01*
X94915395Y-13541492D01*
X94742506Y-13469879D01*
X94586910Y-13365913D01*
X94454587Y-13233590D01*
X94350621Y-13077994D01*
X94279008Y-12905105D01*
X94242500Y-12721567D01*
X94242500Y-12534433D01*
X94279008Y-12350895D01*
X94350621Y-12178006D01*
X94454587Y-12022410D01*
X94586910Y-11890087D01*
X94742506Y-11786121D01*
X94915395Y-11714508D01*
X95007164Y-11696254D01*
X95098932Y-11678000D01*
X95286068Y-11678000D01*
X95377836Y-11696254D01*
X95377836Y-11696254D01*
G37*
G36*
X76366137Y-10376139D02*
G01*
X76423642Y-10387577D01*
X76477811Y-10410014D01*
X76531981Y-10432452D01*
X76629479Y-10497598D01*
X76712402Y-10580521D01*
X76777548Y-10678019D01*
X76822423Y-10786359D01*
X76845300Y-10901367D01*
X76845300Y-11018633D01*
X76822423Y-11133641D01*
X76777548Y-11241981D01*
X76712402Y-11339479D01*
X76629479Y-11422402D01*
X76531981Y-11487548D01*
X76477811Y-11509985D01*
X76423642Y-11532423D01*
X76366137Y-11543862D01*
X76308633Y-11555300D01*
X76191367Y-11555300D01*
X76133863Y-11543862D01*
X76076358Y-11532423D01*
X76022189Y-11509985D01*
X75968019Y-11487548D01*
X75870521Y-11422402D01*
X75787598Y-11339479D01*
X75722452Y-11241981D01*
X75677577Y-11133641D01*
X75654700Y-11018633D01*
X75654700Y-10901367D01*
X75677577Y-10786359D01*
X75722452Y-10678019D01*
X75787598Y-10580521D01*
X75870521Y-10497598D01*
X75968019Y-10432452D01*
X76022189Y-10410015D01*
X76076358Y-10387577D01*
X76133863Y-10376139D01*
X76191367Y-10364700D01*
X76308633Y-10364700D01*
X76366137Y-10376139D01*
X76366137Y-10376139D01*
G37*
G36*
X34037621Y-5168682D02*
G01*
X34150721Y-5202990D01*
X34254955Y-5258704D01*
X34346317Y-5333683D01*
X34421296Y-5425045D01*
X34477010Y-5529279D01*
X34511318Y-5642379D01*
X34520000Y-5730526D01*
X34520000Y-6889474D01*
X34511318Y-6977621D01*
X34477010Y-7090721D01*
X34421296Y-7194955D01*
X34346317Y-7286317D01*
X34254954Y-7361296D01*
X34150720Y-7417010D01*
X34037620Y-7451318D01*
X33920000Y-7462903D01*
X33802379Y-7451318D01*
X33689279Y-7417010D01*
X33585045Y-7361296D01*
X33493683Y-7286317D01*
X33418704Y-7194954D01*
X33362990Y-7090720D01*
X33328682Y-6977620D01*
X33320000Y-6889473D01*
X33320001Y-5730526D01*
X33328683Y-5642379D01*
X33362991Y-5529279D01*
X33418705Y-5425045D01*
X33493684Y-5333683D01*
X33585046Y-5258704D01*
X33689280Y-5202990D01*
X33802380Y-5168682D01*
X33920000Y-5157097D01*
X34037621Y-5168682D01*
X34037621Y-5168682D01*
G37*
G36*
X25397621Y-5168682D02*
G01*
X25510721Y-5202990D01*
X25614955Y-5258704D01*
X25706317Y-5333683D01*
X25781296Y-5425045D01*
X25837010Y-5529279D01*
X25871318Y-5642379D01*
X25880000Y-5730526D01*
X25880000Y-6889474D01*
X25871318Y-6977621D01*
X25837010Y-7090721D01*
X25781296Y-7194955D01*
X25706317Y-7286317D01*
X25614954Y-7361296D01*
X25510720Y-7417010D01*
X25397620Y-7451318D01*
X25280000Y-7462903D01*
X25162379Y-7451318D01*
X25049279Y-7417010D01*
X24945045Y-7361296D01*
X24853683Y-7286317D01*
X24778704Y-7194954D01*
X24722990Y-7090720D01*
X24688682Y-6977620D01*
X24680000Y-6889473D01*
X24680001Y-5730526D01*
X24688683Y-5642379D01*
X24722991Y-5529279D01*
X24778705Y-5425045D01*
X24853684Y-5333683D01*
X24945046Y-5258704D01*
X25049280Y-5202990D01*
X25162380Y-5168682D01*
X25280000Y-5157097D01*
X25397621Y-5168682D01*
X25397621Y-5168682D01*
G37*
G36*
X95377836Y-4696254D02*
G01*
X95469605Y-4714508D01*
X95642494Y-4786121D01*
X95798090Y-4890087D01*
X95930413Y-5022410D01*
X96034379Y-5178006D01*
X96105992Y-5350895D01*
X96105992Y-5350896D01*
X96130783Y-5475525D01*
X96142500Y-5534433D01*
X96142500Y-5721567D01*
X96105992Y-5905105D01*
X96034379Y-6077994D01*
X95930413Y-6233590D01*
X95798090Y-6365913D01*
X95642494Y-6469879D01*
X95469605Y-6541492D01*
X95377836Y-6559746D01*
X95286068Y-6578000D01*
X95098932Y-6578000D01*
X95007164Y-6559746D01*
X94915395Y-6541492D01*
X94742506Y-6469879D01*
X94586910Y-6365913D01*
X94454587Y-6233590D01*
X94350621Y-6077994D01*
X94279008Y-5905105D01*
X94242500Y-5721567D01*
X94242500Y-5534433D01*
X94254218Y-5475525D01*
X94279008Y-5350896D01*
X94279008Y-5350895D01*
X94350621Y-5178006D01*
X94454587Y-5022410D01*
X94586910Y-4890087D01*
X94742506Y-4786121D01*
X94915395Y-4714508D01*
X95007164Y-4696254D01*
X95098932Y-4678000D01*
X95286068Y-4678000D01*
X95377836Y-4696254D01*
X95377836Y-4696254D01*
G37*
G36*
X70350000Y-6350000D02*
G01*
X68450000Y-6350000D01*
X68450000Y-4450000D01*
X70350000Y-4450000D01*
X70350000Y-6350000D01*
X70350000Y-6350000D01*
G37*
G36*
X72056448Y-4456873D02*
G01*
X72126232Y-4463746D01*
X72215770Y-4490907D01*
X72305309Y-4518068D01*
X72393523Y-4565220D01*
X72470345Y-4606282D01*
X72470347Y-4606283D01*
X72470346Y-4606283D01*
X72615002Y-4724998D01*
X72733717Y-4869654D01*
X72821932Y-5034691D01*
X72821932Y-5034692D01*
X72876254Y-5213768D01*
X72894596Y-5400000D01*
X72877359Y-5575017D01*
X72876254Y-5586231D01*
X72821932Y-5765309D01*
X72808412Y-5790603D01*
X72747210Y-5905104D01*
X72733717Y-5930346D01*
X72615002Y-6075002D01*
X72483316Y-6183073D01*
X72470345Y-6193718D01*
X72395750Y-6233590D01*
X72305309Y-6281932D01*
X72215770Y-6309093D01*
X72126232Y-6336254D01*
X71986666Y-6350000D01*
X71893334Y-6350000D01*
X71753768Y-6336254D01*
X71664230Y-6309093D01*
X71574691Y-6281932D01*
X71484250Y-6233590D01*
X71409655Y-6193718D01*
X71396685Y-6183073D01*
X71264998Y-6075002D01*
X71146283Y-5930346D01*
X71132791Y-5905104D01*
X71071588Y-5790603D01*
X71058068Y-5765309D01*
X71003746Y-5586231D01*
X71002642Y-5575017D01*
X70985404Y-5400000D01*
X71003746Y-5213768D01*
X71058068Y-5034692D01*
X71058068Y-5034691D01*
X71146283Y-4869654D01*
X71264998Y-4724998D01*
X71409654Y-4606283D01*
X71409653Y-4606283D01*
X71409655Y-4606282D01*
X71486477Y-4565220D01*
X71574691Y-4518068D01*
X71664230Y-4490907D01*
X71753768Y-4463746D01*
X71823552Y-4456873D01*
X71893334Y-4450000D01*
X71986666Y-4450000D01*
X72056448Y-4456873D01*
X72056448Y-4456873D01*
G37*
G36*
X32606676Y-5445372D02*
G01*
X32638424Y-5458522D01*
X32679468Y-5475523D01*
X32679471Y-5475525D01*
X32744985Y-5519300D01*
X32800700Y-5575015D01*
X32800701Y-5575017D01*
X32844477Y-5640532D01*
X32845243Y-5642382D01*
X32874628Y-5713324D01*
X32890000Y-5790603D01*
X32890000Y-5869397D01*
X32874628Y-5946676D01*
X32861478Y-5978424D01*
X32844477Y-6019468D01*
X32844475Y-6019471D01*
X32800700Y-6084985D01*
X32744985Y-6140700D01*
X32679471Y-6184475D01*
X32679468Y-6184477D01*
X32657157Y-6193718D01*
X32606676Y-6214628D01*
X32529397Y-6230000D01*
X32450603Y-6230000D01*
X32373324Y-6214628D01*
X32322843Y-6193718D01*
X32300532Y-6184477D01*
X32300529Y-6184475D01*
X32235015Y-6140700D01*
X32179300Y-6084985D01*
X32135525Y-6019471D01*
X32135523Y-6019468D01*
X32118522Y-5978424D01*
X32105372Y-5946676D01*
X32090000Y-5869397D01*
X32090000Y-5790603D01*
X32105372Y-5713324D01*
X32134757Y-5642382D01*
X32135523Y-5640532D01*
X32179299Y-5575017D01*
X32179300Y-5575015D01*
X32235015Y-5519300D01*
X32300529Y-5475525D01*
X32300532Y-5475523D01*
X32341576Y-5458522D01*
X32373324Y-5445372D01*
X32450603Y-5430000D01*
X32529397Y-5430000D01*
X32606676Y-5445372D01*
X32606676Y-5445372D01*
G37*
G36*
X26826676Y-5445372D02*
G01*
X26858424Y-5458522D01*
X26899468Y-5475523D01*
X26899471Y-5475525D01*
X26964985Y-5519300D01*
X27020700Y-5575015D01*
X27020701Y-5575017D01*
X27064477Y-5640532D01*
X27065243Y-5642382D01*
X27094628Y-5713324D01*
X27110000Y-5790603D01*
X27110000Y-5869397D01*
X27094628Y-5946676D01*
X27081478Y-5978424D01*
X27064477Y-6019468D01*
X27064475Y-6019471D01*
X27020700Y-6084985D01*
X26964985Y-6140700D01*
X26899471Y-6184475D01*
X26899468Y-6184477D01*
X26877157Y-6193718D01*
X26826676Y-6214628D01*
X26749397Y-6230000D01*
X26670603Y-6230000D01*
X26593324Y-6214628D01*
X26542843Y-6193718D01*
X26520532Y-6184477D01*
X26520529Y-6184475D01*
X26455015Y-6140700D01*
X26399300Y-6084985D01*
X26355525Y-6019471D01*
X26355523Y-6019468D01*
X26338522Y-5978424D01*
X26325372Y-5946676D01*
X26310000Y-5869397D01*
X26310000Y-5790603D01*
X26325372Y-5713324D01*
X26354757Y-5642382D01*
X26355523Y-5640532D01*
X26399299Y-5575017D01*
X26399300Y-5575015D01*
X26455015Y-5519300D01*
X26520529Y-5475525D01*
X26520532Y-5475523D01*
X26561576Y-5458522D01*
X26593324Y-5445372D01*
X26670603Y-5430000D01*
X26749397Y-5430000D01*
X26826676Y-5445372D01*
X26826676Y-5445372D01*
G37*
G36*
X34057224Y-1050128D02*
G01*
X34189175Y-1090155D01*
X34310781Y-1155155D01*
X34417370Y-1242630D01*
X34504845Y-1349219D01*
X34569845Y-1470825D01*
X34609872Y-1602776D01*
X34620000Y-1705610D01*
X34620000Y-2574390D01*
X34609872Y-2677224D01*
X34569845Y-2809175D01*
X34504845Y-2930781D01*
X34417369Y-3037370D01*
X34310780Y-3124845D01*
X34189174Y-3189845D01*
X34057223Y-3229872D01*
X33920000Y-3243387D01*
X33782776Y-3229872D01*
X33650825Y-3189845D01*
X33529219Y-3124845D01*
X33422630Y-3037369D01*
X33335155Y-2930780D01*
X33270155Y-2809174D01*
X33230128Y-2677223D01*
X33220000Y-2574389D01*
X33220000Y-1705610D01*
X33230128Y-1602776D01*
X33270156Y-1470825D01*
X33335156Y-1349219D01*
X33422631Y-1242630D01*
X33529220Y-1155155D01*
X33650826Y-1090155D01*
X33782777Y-1050128D01*
X33920000Y-1036613D01*
X34057224Y-1050128D01*
X34057224Y-1050128D01*
G37*
G36*
X25417224Y-1050128D02*
G01*
X25549175Y-1090155D01*
X25670781Y-1155155D01*
X25777370Y-1242630D01*
X25864845Y-1349219D01*
X25929845Y-1470825D01*
X25969872Y-1602776D01*
X25980000Y-1705610D01*
X25980000Y-2574390D01*
X25969872Y-2677224D01*
X25929845Y-2809175D01*
X25864845Y-2930781D01*
X25777369Y-3037370D01*
X25670780Y-3124845D01*
X25549174Y-3189845D01*
X25417223Y-3229872D01*
X25280000Y-3243387D01*
X25142776Y-3229872D01*
X25010825Y-3189845D01*
X24889219Y-3124845D01*
X24782630Y-3037369D01*
X24695155Y-2930780D01*
X24630155Y-2809174D01*
X24590128Y-2677223D01*
X24580000Y-2574389D01*
X24580000Y-1705610D01*
X24590128Y-1602776D01*
X24630156Y-1470825D01*
X24695156Y-1349219D01*
X24782631Y-1242630D01*
X24889220Y-1155155D01*
X25010826Y-1090155D01*
X25142777Y-1050128D01*
X25280000Y-1036613D01*
X25417224Y-1050128D01*
X25417224Y-1050128D01*
G37*
M02*
