M48
; DRILL file {KiCad (5.1.2)-2} date 2019-10-07 16:48:42
; FORMAT={2:4/ absolute / inch / suppress leading zeros}
; #@! TF.CreationDate,2019-10-07T16:48:42+02:00
; #@! TF.GenerationSoftware,Kicad,Pcbnew,(5.1.2)-2
; #@! TF.FileFunction,Plated,1,2,PTH
FMAT,2
INCH,TZ
T1C0.0157
T2C0.0236
T3C0.0394
%
G90
G05
T1
X472Y-26535
X472Y-29134
X709Y-6535
X984Y-10394
X1201Y-27103
X2126Y-10394
X2740Y-4983
X2756Y-26693
X4783Y-5984
X4882Y-19252
X5020Y-13602
X5354Y-8661
X5394Y-5984
X5472Y-30354
X5787Y-8622
X5827Y-10039
X5827Y-11220
X5910Y-5503
X6101Y-23653
X6760Y-6353
X6851Y-16103
X7126Y-8740
X7201Y-27403
X7441Y-4134
X7913Y-17283
X7913Y-18189
X7953Y-8740
X7992Y-7008
X8031Y-4134
X8622Y-29961
X8751Y-7753
X8751Y-15253
X9055Y-10276
X9055Y-11969
X9252Y-17244
X9409Y-24646
X9449Y-15157
X9606Y-9449
X9901Y-29953
X9961Y-13386
X10020Y-14843
X10689Y-12480
X10709Y-3406
X10709Y-3740
X10709Y-10787
X10787Y-4685
X11102Y-8189
X11220Y-3346
X11339Y-9370
X11457Y-4094
X11535Y-25906
X11850Y-4094
X11850Y-8031
X12047Y-4685
X12047Y-11890
X12087Y-3346
X12251Y-23853
X12283Y-5846
X12402Y-19803
X12551Y-29953
X12559Y-16496
X12598Y-3406
X12598Y-3740
X12677Y-9055
X13031Y-11417
X13346Y-8386
X13780Y-4803
X13780Y-5709
X13976Y-9449
X14488Y-13661
X14801Y-30396
X14921Y-11024
X15079Y-10157
X15157Y-25906
X15354Y-24724
X15401Y-18096
X15591Y-630
X15610Y-9488
X15689Y-3091
X15851Y-27053
X15951Y-7553
X16024Y-5787
X16024Y-7008
X16535Y-10157
X16535Y-17638
X16575Y-11102
X16575Y-15039
X17047Y-5787
X17441Y-7717
X17480Y-9646
X17638Y-12244
X17756Y-29961
X17913Y-3583
X17953Y-5827
X17992Y-26772
X18228Y-19528
X18740Y-2717
X19094Y-10000
X19252Y-3583
X19701Y-8803
X19724Y-10945
X19961Y-9843
X20669Y-5551
X20709Y-3307
X20748Y-16654
X20748Y-17677
X20787Y-11890
X20984Y-10000
X21220Y-6220
X21339Y-2520
X21651Y-8503
X21651Y-14203
X21651Y-23453
X21811Y-6811
X22323Y-6378
X22323Y-28386
X22468Y-4399
X22480Y-26772
X22559Y-1575
X22743Y-6734
X23228Y-1850
X23351Y-9553
X23465Y-6181
X23504Y-2362
X23819Y-25596
X23851Y-16953
X23901Y-24503
X24114Y-9783
X24360Y-4853
X24370Y-5866
X24429Y-17657
X24724Y-2520
X24801Y-29853
X24882Y-5984
X25315Y-4134
X25354Y-2126
X25709Y-4134
X25748Y-1811
X25866Y-27835
X25984Y-12205
X26417Y-1969
X26535Y-2362
X26693Y-12244
X26713Y-11772
X26732Y-19370
X26890Y-9370
X27224Y-11791
X27343Y-12776
X27402Y-4370
X27441Y-9094
X27441Y-26024
X27461Y-14114
X27520Y-6142
X27520Y-28701
X27520Y-29882
X27677Y-8780
X27756Y-3937
X27894Y-17638
X28268Y-3386
X28386Y-8425
X28976Y-13819
X29016Y-5000
X29055Y-10394
X29055Y-11614
X29094Y-5669
X29331Y-8937
X29449Y-2323
X29764Y-26083
X29921Y-7598
X29921Y-27992
X30236Y-15650
X30256Y-3307
X30276Y-26083
X30354Y-19370
X30354Y-24783
X30433Y-17638
X30512Y-10394
X30551Y-11614
X30787Y-7205
X30827Y-4291
X30866Y-13937
X31142Y-5079
X31220Y-12638
X31417Y-6024
X31654Y-13425
X31850Y-10551
X31850Y-27087
X32165Y-12362
X32362Y-5276
X32451Y-30353
X32520Y-20945
X32520Y-22441
X32539Y-6909
X32677Y-11181
X32953Y-13110
X33001Y-886
X33301Y-27803
X33511Y-2603
X33583Y-5472
X33622Y-8937
X33622Y-10276
X33701Y-17657
X33976Y-15315
X34094Y-9134
X34094Y-12362
X34094Y-23031
X34764Y-9213
X34961Y-14173
X35000Y-12087
X35000Y-21063
X35001Y-6253
X35667Y-8937
X35751Y-23753
X35906Y-19331
X36024Y-16142
X36575Y-3504
X36651Y-14303
X37185Y-18543
X37421Y-16811
X37520Y-20394
X37795Y-18524
X37815Y-17402
X37927Y-1495
X38451Y-15203
X38858Y-11732
X38858Y-22598
X39094Y-10591
X39451Y-26853
X39606Y-9843
X39961Y-7126
X40079Y-18465
X40984Y-11890
X41339Y-8504
X41496Y-18465
X42953Y-18465
X44331Y-6496
X44331Y-16772
X44409Y-8583
X44409Y-14094
X44409Y-21575
X44409Y-23780
T3
X22510Y-10353
X22510Y-12951
X27323Y-2126
X28323Y-2126
T2
G00X9953Y-685
M15
G01X9953Y-1000
M16
G05
G00X9953Y-2268
M15
G01X9953Y-2701
M16
G05
G00X13354Y-685
M15
G01X13354Y-1000
M16
G05
G00X13354Y-2268
M15
G01X13354Y-2701
M16
G05
T0
M30
