M48
;DRILL file {KiCad 5.0.2-5.fc29} date 2019-03-27T11:46:30 CET
;FORMAT={-:-/ absolute / inch / decimal}
FMAT,2
INCH,TZ
T1C0.0236
T2C0.0390
T3C0.0669
T4C0.0866
T5C0.1181
T6C0.1260
T7C0.1575
%
G90
G05
T1
X3.2189Y-0.2295
X3.4465Y-0.2295
T2
X2.962Y-0.6315
X3.002Y-0.4315
X3.042Y-0.6315
T3
X3.924Y-2.1634
X4.324Y-2.1634
X0.174Y-0.6634
X0.574Y-0.6634
X0.549Y-2.9134
X0.949Y-2.9134
X3.174Y-0.6634
X3.574Y-0.6634
X0.924Y-1.4134
X1.324Y-1.4134
X1.674Y-2.1634
X2.074Y-2.1634
X2.424Y-2.9134
X2.824Y-2.9134
X0.174Y-1.4134
X0.574Y-1.4134
X1.674Y-0.6634
X2.074Y-0.6634
X1.674Y-1.4134
X2.074Y-1.4134
X0.174Y-2.9134
X0.574Y-2.9134
X2.424Y-1.4134
X2.824Y-1.4134
X0.924Y-0.6634
X1.324Y-0.6634
X1.674Y-2.9134
X2.074Y-2.9134
X2.424Y-2.1634
X2.824Y-2.1634
X0.7503Y-0.2216
X0.7503Y-0.4972
X3.924Y-0.6634
X4.324Y-0.6634
X3.174Y-2.1634
X3.574Y-2.1634
X0.924Y-2.1634
X1.324Y-2.1634
X3.174Y-1.4134
X3.574Y-1.4134
X3.174Y-2.9134
X3.574Y-2.9134
X2.424Y-0.6634
X2.824Y-0.6634
X3.924Y-2.9134
X4.324Y-2.9134
X3.924Y-1.4134
X4.324Y-1.4134
X0.174Y-2.1634
X0.574Y-2.1634
X0.924Y-2.9134
X1.324Y-2.9134
T4
X4.124Y-1.0384
X0.374Y-1.0384
X0.374Y-2.5384
X4.124Y-2.5384
T5
X0.224Y-2.8134
X0.474Y-2.7134
X2.524Y-1.6134
X2.774Y-1.5134
X1.024Y-0.8634
X1.274Y-0.7634
X1.724Y-2.8134
X1.974Y-2.7134
X2.524Y-2.3634
X2.774Y-2.2634
X4.024Y-0.8634
X4.274Y-0.7634
X3.274Y-2.3634
X3.524Y-2.2634
X1.024Y-2.3634
X1.274Y-2.2634
X3.274Y-1.6134
X3.524Y-1.5134
X3.224Y-2.8134
X3.474Y-2.7134
X2.524Y-0.8634
X2.774Y-0.7634
X3.974Y-2.8134
X4.224Y-2.7134
X4.024Y-1.6134
X4.274Y-1.5134
X0.274Y-2.3634
X0.524Y-2.2634
X0.974Y-2.8134
X1.224Y-2.7134
X4.024Y-2.3634
X4.274Y-2.2634
X0.274Y-0.8634
X0.524Y-0.7634
X0.649Y-3.1134
X0.899Y-3.0134
X3.274Y-0.8634
X3.524Y-0.7634
X1.024Y-1.6134
X1.274Y-1.5134
X1.774Y-2.3634
X2.024Y-2.2634
X2.474Y-2.8134
X2.724Y-2.7134
X0.274Y-1.6134
X0.524Y-1.5134
X1.774Y-0.8634
X2.024Y-0.7634
X1.774Y-1.6134
X2.024Y-1.5134
T6
X0.7579Y-1.063
X0.7579Y-2.5383
X3.75Y-1.063
X3.75Y-2.5394
T7
X1.124Y-2.9134
X4.124Y-2.1634
X0.374Y-0.6634
X0.749Y-2.9134
X3.374Y-0.6634
X1.124Y-1.4134
X1.874Y-2.1634
X2.624Y-2.9134
X0.374Y-1.4134
X1.874Y-0.6634
X1.874Y-1.4134
X0.374Y-2.9134
X2.624Y-1.4134
X1.124Y-0.6634
X1.874Y-2.9134
X2.624Y-2.1634
X4.124Y-0.6634
X3.374Y-2.1634
X1.124Y-2.1634
X3.374Y-1.4134
X3.374Y-2.9134
X2.624Y-0.6634
X4.124Y-2.9134
X4.124Y-1.4134
X0.374Y-2.1634
T0
M30
