M48
;DRILL file {KiCad 5.0.2-5.fc29} date 2019-03-27T11:46:30 CET
;FORMAT={-:-/ absolute / inch / decimal}
FMAT,2
INCH,TZ
T1C0.0157
T2C0.0236
T3C0.0394
%
G90
G05
T1
X0.0413Y-2.9094
X0.0531Y-2.685
X0.2224Y-3.0709
X0.4744Y-2.4409
X0.4941Y-2.9843
X0.5531Y-2.5906
X0.6004Y-2.5512
X0.6633Y-0.8553
X0.6733Y-1.4253
X0.6733Y-2.1703
X0.7205Y-1.2677
X0.7233Y-2.7353
X0.7583Y-2.0315
X0.7683Y-1.3603
X0.7815Y-1.7283
X0.7815Y-1.8425
X0.8583Y-1.5203
X0.8839Y-0.7323
X0.9114Y-0.4173
X0.9114Y-2.6142
X0.9232Y-2.5
X0.9233Y-0.2653
X0.9469Y-0.4173
X0.9508Y-1.0197
X0.9626Y-2.7008
X0.9744Y-2.563
X0.9862Y-0.3931
X0.9862Y-1.2362
X0.9902Y-0.5236
X1.0138Y-2.4606
X1.0163Y-0.3583
X1.0335Y-2.6142
X1.0413Y-1.1122
X1.1233Y-0.3653
X1.128Y-0.4862
X1.1319Y-3.0906
X1.1634Y-1.5945
X1.1909Y-0.4961
X1.1933Y-2.3853
X1.2067Y-0.8504
X1.2264Y-1.9921
X1.2343Y-1.3268
X1.2461Y-1.6496
X1.2533Y-0.5153
X1.2657Y-0.5709
X1.2657Y-0.6299
X1.2783Y-0.1753
X1.2933Y-0.5153
X1.3209Y-0.3189
X1.3283Y-1.1053
X1.3642Y-0.2402
X1.3799Y-0.9134
X1.3996Y-3.0354
X1.4376Y-0.6704
X1.4918Y-0.4493
X1.502Y-1.878
X1.502Y-2.5709
X1.5059Y-2.4843
X1.5098Y-1.311
X1.5229Y-0.7462
X1.5295Y-0.815
X1.5453Y-0.189
X1.5453Y-0.6811
X1.5453Y-1.8096
X1.5686Y-0.2271
X1.5807Y-0.752
X1.5846Y-0.2657
X1.5933Y-3.0446
X1.5965Y-0.6339
X1.6033Y-0.1953
X1.6043Y-2.8976
X1.628Y-0.752
X1.6283Y-2.6953
X1.6486Y-0.2971
X1.6791Y-2.5354
X1.687Y-0.5039
X1.6909Y-1.2402
X1.7224Y-1.0157
X1.7264Y-0.5
X1.7736Y-3.
X1.7972Y-0.4134
X1.8041Y-0.186
X1.8327Y-2.7874
X1.8366Y-0.186
X1.8602Y-1.9921
X1.8642Y-0.4134
X1.8733Y-0.8253
X1.8839Y-1.0866
X1.9193Y-1.7717
X1.9232Y-1.3031
X1.9233Y-0.7953
X1.9333Y-0.7553
X1.9429Y-0.9606
X1.9626Y-3.
X1.998Y-0.6063
X1.998Y-0.6535
X2.0591Y-0.4665
X2.0709Y-1.122
X2.0748Y-1.2106
X2.0925Y-0.9567
X2.124Y-1.3189
X2.124Y-2.9961
X2.1433Y-2.3753
X2.1633Y-1.4003
X2.1783Y-0.8503
X2.1949Y-0.3819
X2.1949Y-0.6496
X2.1988Y-1.7717
X2.2483Y-2.6653
X2.2618Y-0.8504
X2.2733Y-0.7803
X2.313Y-0.3819
X2.3583Y-1.5203
X2.3654Y-0.7382
X2.3733Y-2.2603
X2.4114Y-1.7717
X2.4183Y-1.0703
X2.4823Y-1.0315
X2.4833Y-2.9903
X2.4941Y-2.0079
X2.5033Y-0.7453
X2.5177Y-2.6811
X2.6201Y-1.2441
X2.7233Y-0.8803
X2.748Y-0.4232
X2.75Y-0.2756
X2.75Y-2.0472
X2.7657Y-2.6102
X2.8839Y-2.9921
X2.8917Y-1.7677
X2.9193Y-0.9016
X2.9272Y-0.5433
X2.9646Y-2.5925
X3.0098Y-0.7323
X3.0217Y-2.6063
X3.0256Y-1.0945
X3.0413Y-0.7992
X3.0413Y-1.878
X3.0709Y-2.9921
X3.0906Y-0.5
X3.0906Y-0.5394
X3.0906Y-0.5846
X3.1183Y-2.7003
X3.128Y-1.9528
X3.1437Y-0.5866
X3.187Y-2.5
X3.2303Y-0.4449
X3.2382Y-0.3406
X3.2382Y-0.374
X3.25Y-0.6378
X3.25Y-0.6772
X3.25Y-0.7126
X3.25Y-2.2323
X3.25Y-2.9921
X3.2579Y-1.252
X3.2894Y-0.3346
X3.313Y-0.4094
X3.313Y-2.6929
X3.3524Y-0.4094
X3.3602Y-2.5315
X3.376Y-0.3346
X3.4272Y-0.3406
X3.4272Y-0.374
X3.4311Y-0.4252
X3.502Y-2.4134
X3.5098Y-2.8425
X3.5335Y-0.4252
X3.6133Y-2.3603
X3.6417Y-0.4882
X3.6417Y-0.5217
X3.6683Y-1.4203
X3.6713Y-0.8504
X3.7303Y-2.8543
X3.7402Y-1.7343
X3.7421Y-1.8189
X3.7598Y-2.1102
X3.7657Y-0.752
X3.7657Y-0.7874
X3.7657Y-0.8228
X3.7657Y-1.3346
X3.7854Y-2.374
X3.8483Y-0.7723
X3.8533Y-1.5203
X3.9035Y-2.2677
X3.9114Y-2.4921
X3.9526Y-2.4488
X4.0217Y-2.2677
X4.0295Y-2.6496
X4.0886Y-1.9213
X4.1319Y-0.9213
X4.1319Y-2.378
X4.1358Y-1.7205
X4.2343Y-0.9213
X4.3283Y-3.1153
X4.439Y-2.3937
X4.4469Y-0.6535
X4.4469Y-0.8819
X4.4469Y-1.4173
X4.4469Y-1.622
X4.4469Y-2.1654
T3
X2.251Y-1.0353
X2.251Y-1.2951
X2.0811Y-0.2657
X2.1811Y-0.2657
T2
X3.1626Y-0.0685G85X3.1626Y-0.1
G05
X3.1626Y-0.2268G85X3.1626Y-0.2701
G05
X3.5028Y-0.0685G85X3.5028Y-0.1
G05
X3.5028Y-0.2268G85X3.5028Y-0.2701
G05
T0
M30
