G04 #@! TF.GenerationSoftware,KiCad,Pcbnew,(5.0.1-dev-70-gb7b125d83)*
G04 #@! TF.CreationDate,2019-07-04T18:30:50+02:00*
G04 #@! TF.ProjectId,vitamins_included,766974616D696E735F696E636C756465,rev?*
G04 #@! TF.SameCoordinates,Original*
G04 #@! TF.FileFunction,Legend,Bot*
G04 #@! TF.FilePolarity,Positive*
%FSLAX46Y46*%
G04 Gerber Fmt 4.6, Leading zero omitted, Abs format (unit mm)*
G04 Created by KiCad (PCBNEW (5.0.1-dev-70-gb7b125d83)) date 07/04/19 18:30:50*
%MOMM*%
%LPD*%
G01*
G04 APERTURE LIST*
%ADD10C,0.200000*%
%ADD11C,0.300000*%
%ADD12C,0.150000*%
%ADD13C,0.350000*%
%ADD14C,0.120000*%
%ADD15C,0.100000*%
%ADD16C,0.127000*%
%ADD17C,0.066040*%
%ADD18C,0.010000*%
%ADD19C,0.101600*%
G04 APERTURE END LIST*
D10*
X58128500Y-31376000D02*
X58763500Y-31376000D01*
X58128500Y-30852128D02*
X57366500Y-31487128D01*
X56286433Y-31375489D02*
G75*
G02X56287000Y-28836000I1143567J1269489D01*
G01*
X56658536Y-30986799D02*
G75*
G02X56668000Y-29217000I771464J880799D01*
G01*
X58128500Y-29344000D02*
X57366500Y-28709000D01*
X58763500Y-31376000D02*
X58763500Y-30106000D01*
X57366500Y-31487128D02*
X57366500Y-30106000D01*
X57366500Y-28709000D02*
X57366500Y-30106000D01*
X58128500Y-28836000D02*
X58763500Y-28836000D01*
X58128500Y-30106000D02*
X58128500Y-28836000D01*
X58763500Y-28836000D02*
X58763500Y-30106000D01*
X57049354Y-30614264D02*
G75*
G02X57049000Y-29598001I380646J508264D01*
G01*
X58128500Y-30106000D02*
X58128500Y-31376000D01*
D11*
X113197857Y-30203571D02*
X113197857Y-28703571D01*
X112697857Y-29775000D01*
X112197857Y-28703571D01*
X112197857Y-30203571D01*
X110840714Y-30203571D02*
X110840714Y-29417857D01*
X110912142Y-29275000D01*
X111055000Y-29203571D01*
X111340714Y-29203571D01*
X111483571Y-29275000D01*
X110840714Y-30132142D02*
X110983571Y-30203571D01*
X111340714Y-30203571D01*
X111483571Y-30132142D01*
X111555000Y-29989285D01*
X111555000Y-29846428D01*
X111483571Y-29703571D01*
X111340714Y-29632142D01*
X110983571Y-29632142D01*
X110840714Y-29560714D01*
X109483571Y-30203571D02*
X109483571Y-28703571D01*
X109483571Y-30132142D02*
X109626428Y-30203571D01*
X109912142Y-30203571D01*
X110055000Y-30132142D01*
X110126428Y-30060714D01*
X110197857Y-29917857D01*
X110197857Y-29489285D01*
X110126428Y-29346428D01*
X110055000Y-29275000D01*
X109912142Y-29203571D01*
X109626428Y-29203571D01*
X109483571Y-29275000D01*
X108197857Y-30132142D02*
X108340714Y-30203571D01*
X108626428Y-30203571D01*
X108769285Y-30132142D01*
X108840714Y-29989285D01*
X108840714Y-29417857D01*
X108769285Y-29275000D01*
X108626428Y-29203571D01*
X108340714Y-29203571D01*
X108197857Y-29275000D01*
X108126428Y-29417857D01*
X108126428Y-29560714D01*
X108840714Y-29703571D01*
X106340714Y-30203571D02*
X106340714Y-29203571D01*
X106340714Y-28703571D02*
X106412142Y-28775000D01*
X106340714Y-28846428D01*
X106269285Y-28775000D01*
X106340714Y-28703571D01*
X106340714Y-28846428D01*
X105626428Y-29203571D02*
X105626428Y-30203571D01*
X105626428Y-29346428D02*
X105555000Y-29275000D01*
X105412142Y-29203571D01*
X105197857Y-29203571D01*
X105055000Y-29275000D01*
X104983571Y-29417857D01*
X104983571Y-30203571D01*
X113197857Y-31753571D02*
X113197857Y-33253571D01*
X113197857Y-31825000D02*
X113055000Y-31753571D01*
X112769285Y-31753571D01*
X112626428Y-31825000D01*
X112555000Y-31896428D01*
X112483571Y-32039285D01*
X112483571Y-32467857D01*
X112555000Y-32610714D01*
X112626428Y-32682142D01*
X112769285Y-32753571D01*
X113055000Y-32753571D01*
X113197857Y-32682142D01*
X111197857Y-32753571D02*
X111197857Y-31967857D01*
X111269285Y-31825000D01*
X111412142Y-31753571D01*
X111697857Y-31753571D01*
X111840714Y-31825000D01*
X111197857Y-32682142D02*
X111340714Y-32753571D01*
X111697857Y-32753571D01*
X111840714Y-32682142D01*
X111912142Y-32539285D01*
X111912142Y-32396428D01*
X111840714Y-32253571D01*
X111697857Y-32182142D01*
X111340714Y-32182142D01*
X111197857Y-32110714D01*
X110483571Y-32753571D02*
X110483571Y-31753571D01*
X110483571Y-32039285D02*
X110412142Y-31896428D01*
X110340714Y-31825000D01*
X110197857Y-31753571D01*
X110055000Y-31753571D01*
X109769285Y-31753571D02*
X109197857Y-31753571D01*
X109555000Y-31253571D02*
X109555000Y-32539285D01*
X109483571Y-32682142D01*
X109340714Y-32753571D01*
X109197857Y-32753571D01*
X108697857Y-31753571D02*
X108697857Y-32753571D01*
X108697857Y-31896428D02*
X108626428Y-31825000D01*
X108483571Y-31753571D01*
X108269285Y-31753571D01*
X108126428Y-31825000D01*
X108055000Y-31967857D01*
X108055000Y-32753571D01*
X106769285Y-32682142D02*
X106912142Y-32753571D01*
X107197857Y-32753571D01*
X107340714Y-32682142D01*
X107412142Y-32539285D01*
X107412142Y-31967857D01*
X107340714Y-31825000D01*
X107197857Y-31753571D01*
X106912142Y-31753571D01*
X106769285Y-31825000D01*
X106697857Y-31967857D01*
X106697857Y-32110714D01*
X107412142Y-32253571D01*
X106055000Y-32753571D02*
X106055000Y-31753571D01*
X106055000Y-32039285D02*
X105983571Y-31896428D01*
X105912142Y-31825000D01*
X105769285Y-31753571D01*
X105626428Y-31753571D01*
X105197857Y-32682142D02*
X105055000Y-32753571D01*
X104769285Y-32753571D01*
X104626428Y-32682142D01*
X104555000Y-32539285D01*
X104555000Y-32467857D01*
X104626428Y-32325000D01*
X104769285Y-32253571D01*
X104983571Y-32253571D01*
X105126428Y-32182142D01*
X105197857Y-32039285D01*
X105197857Y-31967857D01*
X105126428Y-31825000D01*
X104983571Y-31753571D01*
X104769285Y-31753571D01*
X104626428Y-31825000D01*
X103912142Y-32753571D02*
X103912142Y-31253571D01*
X103269285Y-32753571D02*
X103269285Y-31967857D01*
X103340714Y-31825000D01*
X103483571Y-31753571D01*
X103697857Y-31753571D01*
X103840714Y-31825000D01*
X103912142Y-31896428D01*
X102555000Y-32753571D02*
X102555000Y-31753571D01*
X102555000Y-31253571D02*
X102626428Y-31325000D01*
X102555000Y-31396428D01*
X102483571Y-31325000D01*
X102555000Y-31253571D01*
X102555000Y-31396428D01*
X101840714Y-31753571D02*
X101840714Y-33253571D01*
X101840714Y-31825000D02*
X101697857Y-31753571D01*
X101412142Y-31753571D01*
X101269285Y-31825000D01*
X101197857Y-31896428D01*
X101126428Y-32039285D01*
X101126428Y-32467857D01*
X101197857Y-32610714D01*
X101269285Y-32682142D01*
X101412142Y-32753571D01*
X101697857Y-32753571D01*
X101840714Y-32682142D01*
X99483571Y-31753571D02*
X99197857Y-32753571D01*
X98912142Y-32039285D01*
X98626428Y-32753571D01*
X98340714Y-31753571D01*
X97769285Y-32753571D02*
X97769285Y-31753571D01*
X97769285Y-31253571D02*
X97840714Y-31325000D01*
X97769285Y-31396428D01*
X97697857Y-31325000D01*
X97769285Y-31253571D01*
X97769285Y-31396428D01*
X97269285Y-31753571D02*
X96697857Y-31753571D01*
X97055000Y-31253571D02*
X97055000Y-32539285D01*
X96983571Y-32682142D01*
X96840714Y-32753571D01*
X96697857Y-32753571D01*
X96197857Y-32753571D02*
X96197857Y-31253571D01*
X95555000Y-32753571D02*
X95555000Y-31967857D01*
X95626428Y-31825000D01*
X95769285Y-31753571D01*
X95983571Y-31753571D01*
X96126428Y-31825000D01*
X96197857Y-31896428D01*
X74712142Y-3128571D02*
X74426428Y-3128571D01*
X74283571Y-3200000D01*
X74140714Y-3342857D01*
X74069285Y-3628571D01*
X74069285Y-4128571D01*
X74140714Y-4414285D01*
X74283571Y-4557142D01*
X74426428Y-4628571D01*
X74712142Y-4628571D01*
X74855000Y-4557142D01*
X74997857Y-4414285D01*
X75069285Y-4128571D01*
X75069285Y-3628571D01*
X74997857Y-3342857D01*
X74855000Y-3200000D01*
X74712142Y-3128571D01*
X73426428Y-4628571D02*
X73426428Y-3628571D01*
X73426428Y-3914285D02*
X73355000Y-3771428D01*
X73283571Y-3700000D01*
X73140714Y-3628571D01*
X72997857Y-3628571D01*
X72497857Y-4628571D02*
X72497857Y-3628571D01*
X72497857Y-3128571D02*
X72569285Y-3200000D01*
X72497857Y-3271428D01*
X72426428Y-3200000D01*
X72497857Y-3128571D01*
X72497857Y-3271428D01*
X71140714Y-3628571D02*
X71140714Y-4842857D01*
X71212142Y-4985714D01*
X71283571Y-5057142D01*
X71426428Y-5128571D01*
X71640714Y-5128571D01*
X71783571Y-5057142D01*
X71140714Y-4557142D02*
X71283571Y-4628571D01*
X71569285Y-4628571D01*
X71712142Y-4557142D01*
X71783571Y-4485714D01*
X71855000Y-4342857D01*
X71855000Y-3914285D01*
X71783571Y-3771428D01*
X71712142Y-3700000D01*
X71569285Y-3628571D01*
X71283571Y-3628571D01*
X71140714Y-3700000D01*
X70426428Y-4628571D02*
X70426428Y-3628571D01*
X70426428Y-3128571D02*
X70497857Y-3200000D01*
X70426428Y-3271428D01*
X70355000Y-3200000D01*
X70426428Y-3128571D01*
X70426428Y-3271428D01*
X69712142Y-3628571D02*
X69712142Y-4628571D01*
X69712142Y-3771428D02*
X69640714Y-3700000D01*
X69497857Y-3628571D01*
X69283571Y-3628571D01*
X69140714Y-3700000D01*
X69069285Y-3842857D01*
X69069285Y-4628571D01*
X67712142Y-4628571D02*
X67712142Y-3842857D01*
X67783571Y-3700000D01*
X67926428Y-3628571D01*
X68212142Y-3628571D01*
X68355000Y-3700000D01*
X67712142Y-4557142D02*
X67855000Y-4628571D01*
X68212142Y-4628571D01*
X68355000Y-4557142D01*
X68426428Y-4414285D01*
X68426428Y-4271428D01*
X68355000Y-4128571D01*
X68212142Y-4057142D01*
X67855000Y-4057142D01*
X67712142Y-3985714D01*
X66783571Y-4628571D02*
X66926428Y-4557142D01*
X66997857Y-4414285D01*
X66997857Y-3128571D01*
X74997857Y-7178571D02*
X74997857Y-5678571D01*
X74997857Y-6250000D02*
X74855000Y-6178571D01*
X74569285Y-6178571D01*
X74426428Y-6250000D01*
X74355000Y-6321428D01*
X74283571Y-6464285D01*
X74283571Y-6892857D01*
X74355000Y-7035714D01*
X74426428Y-7107142D01*
X74569285Y-7178571D01*
X74855000Y-7178571D01*
X74997857Y-7107142D01*
X73783571Y-6178571D02*
X73426428Y-7178571D01*
X73069285Y-6178571D02*
X73426428Y-7178571D01*
X73569285Y-7535714D01*
X73640714Y-7607142D01*
X73783571Y-7678571D01*
X75140714Y-8228571D02*
X74783571Y-9728571D01*
X74497857Y-8657142D01*
X74212142Y-9728571D01*
X73855000Y-8228571D01*
X73069285Y-9728571D02*
X73212142Y-9657142D01*
X73283571Y-9585714D01*
X73355000Y-9442857D01*
X73355000Y-9014285D01*
X73283571Y-8871428D01*
X73212142Y-8800000D01*
X73069285Y-8728571D01*
X72855000Y-8728571D01*
X72712142Y-8800000D01*
X72640714Y-8871428D01*
X72569285Y-9014285D01*
X72569285Y-9442857D01*
X72640714Y-9585714D01*
X72712142Y-9657142D01*
X72855000Y-9728571D01*
X73069285Y-9728571D01*
X71712142Y-9728571D02*
X71855000Y-9657142D01*
X71926428Y-9585714D01*
X71997857Y-9442857D01*
X71997857Y-9014285D01*
X71926428Y-8871428D01*
X71855000Y-8800000D01*
X71712142Y-8728571D01*
X71497857Y-8728571D01*
X71355000Y-8800000D01*
X71283571Y-8871428D01*
X71212142Y-9014285D01*
X71212142Y-9442857D01*
X71283571Y-9585714D01*
X71355000Y-9657142D01*
X71497857Y-9728571D01*
X71712142Y-9728571D01*
X70783571Y-8728571D02*
X70212142Y-8728571D01*
X70569285Y-8228571D02*
X70569285Y-9514285D01*
X70497857Y-9657142D01*
X70355000Y-9728571D01*
X70212142Y-9728571D01*
X69712142Y-8728571D02*
X69712142Y-10228571D01*
X69712142Y-8800000D02*
X69569285Y-8728571D01*
X69283571Y-8728571D01*
X69140714Y-8800000D01*
X69069285Y-8871428D01*
X68997857Y-9014285D01*
X68997857Y-9442857D01*
X69069285Y-9585714D01*
X69140714Y-9657142D01*
X69283571Y-9728571D01*
X69569285Y-9728571D01*
X69712142Y-9657142D01*
X67712142Y-9728571D02*
X67712142Y-8942857D01*
X67783571Y-8800000D01*
X67926428Y-8728571D01*
X68212142Y-8728571D01*
X68355000Y-8800000D01*
X67712142Y-9657142D02*
X67855000Y-9728571D01*
X68212142Y-9728571D01*
X68355000Y-9657142D01*
X68426428Y-9514285D01*
X68426428Y-9371428D01*
X68355000Y-9228571D01*
X68212142Y-9157142D01*
X67855000Y-9157142D01*
X67712142Y-9085714D01*
X67212142Y-8728571D02*
X66640714Y-8728571D01*
X66997857Y-8228571D02*
X66997857Y-9514285D01*
X66926428Y-9657142D01*
X66783571Y-9728571D01*
X66640714Y-9728571D01*
X65926428Y-9728571D02*
X66069285Y-9657142D01*
X66140714Y-9585714D01*
X66212142Y-9442857D01*
X66212142Y-9014285D01*
X66140714Y-8871428D01*
X66069285Y-8800000D01*
X65926428Y-8728571D01*
X65712142Y-8728571D01*
X65569285Y-8800000D01*
X65497857Y-8871428D01*
X65426428Y-9014285D01*
X65426428Y-9442857D01*
X65497857Y-9585714D01*
X65569285Y-9657142D01*
X65712142Y-9728571D01*
X65926428Y-9728571D01*
X64569285Y-9728571D02*
X64712142Y-9657142D01*
X64783571Y-9585714D01*
X64854999Y-9442857D01*
X64854999Y-9014285D01*
X64783571Y-8871428D01*
X64712142Y-8800000D01*
X64569285Y-8728571D01*
X64355000Y-8728571D01*
X64212142Y-8800000D01*
X64140714Y-8871428D01*
X64069285Y-9014285D01*
X64069285Y-9442857D01*
X64140714Y-9585714D01*
X64212142Y-9657142D01*
X64355000Y-9728571D01*
X64569285Y-9728571D01*
X63640714Y-8728571D02*
X63069285Y-8728571D01*
X63426428Y-8228571D02*
X63426428Y-9514285D01*
X63354999Y-9657142D01*
X63212142Y-9728571D01*
X63069285Y-9728571D01*
X64568476Y-52433904D02*
X66949428Y-52433904D01*
X66949428Y-47433904D01*
X62901809Y-49814857D02*
X61235142Y-49814857D01*
X60520857Y-52433904D02*
X62901809Y-52433904D01*
X62901809Y-47433904D01*
X60520857Y-47433904D01*
X59092285Y-47433904D02*
X56235142Y-47433904D01*
X57663714Y-52433904D02*
X57663714Y-47433904D01*
X54330380Y-47433904D02*
X54806571Y-48386285D01*
X52425619Y-52195809D02*
X51711333Y-52433904D01*
X50520857Y-52433904D01*
X50044666Y-52195809D01*
X49806571Y-51957714D01*
X49568476Y-51481523D01*
X49568476Y-51005333D01*
X49806571Y-50529142D01*
X50044666Y-50291047D01*
X50520857Y-50052952D01*
X51473238Y-49814857D01*
X51949428Y-49576761D01*
X52187523Y-49338666D01*
X52425619Y-48862476D01*
X52425619Y-48386285D01*
X52187523Y-47910095D01*
X51949428Y-47672000D01*
X51473238Y-47433904D01*
X50282761Y-47433904D01*
X49568476Y-47672000D01*
X55885714Y-79278571D02*
X55885714Y-80492857D01*
X55957142Y-80635714D01*
X56028571Y-80707142D01*
X56171428Y-80778571D01*
X56385714Y-80778571D01*
X56528571Y-80707142D01*
X55885714Y-80207142D02*
X56028571Y-80278571D01*
X56314285Y-80278571D01*
X56457142Y-80207142D01*
X56528571Y-80135714D01*
X56600000Y-79992857D01*
X56600000Y-79564285D01*
X56528571Y-79421428D01*
X56457142Y-79350000D01*
X56314285Y-79278571D01*
X56028571Y-79278571D01*
X55885714Y-79350000D01*
X55171428Y-80278571D02*
X55171428Y-79278571D01*
X55171428Y-78778571D02*
X55242857Y-78850000D01*
X55171428Y-78921428D01*
X55100000Y-78850000D01*
X55171428Y-78778571D01*
X55171428Y-78921428D01*
X54671428Y-79278571D02*
X54100000Y-79278571D01*
X54457142Y-78778571D02*
X54457142Y-80064285D01*
X54385714Y-80207142D01*
X54242857Y-80278571D01*
X54100000Y-80278571D01*
X53600000Y-80135714D02*
X53528571Y-80207142D01*
X53600000Y-80278571D01*
X53671428Y-80207142D01*
X53600000Y-80135714D01*
X53600000Y-80278571D01*
X52885714Y-80278571D02*
X52885714Y-79278571D01*
X52885714Y-78778571D02*
X52957142Y-78850000D01*
X52885714Y-78921428D01*
X52814285Y-78850000D01*
X52885714Y-78778571D01*
X52885714Y-78921428D01*
X51957142Y-80278571D02*
X52100000Y-80207142D01*
X52171428Y-80135714D01*
X52242857Y-79992857D01*
X52242857Y-79564285D01*
X52171428Y-79421428D01*
X52100000Y-79350000D01*
X51957142Y-79278571D01*
X51742857Y-79278571D01*
X51600000Y-79350000D01*
X51528571Y-79421428D01*
X51457142Y-79564285D01*
X51457142Y-79992857D01*
X51528571Y-80135714D01*
X51600000Y-80207142D01*
X51742857Y-80278571D01*
X51957142Y-80278571D01*
X49742857Y-78707142D02*
X51028571Y-80635714D01*
X49385714Y-79278571D02*
X49028571Y-80278571D01*
X48671428Y-79278571D01*
X48100000Y-80278571D02*
X48100000Y-79278571D01*
X48100000Y-78778571D02*
X48171428Y-78850000D01*
X48100000Y-78921428D01*
X48028571Y-78850000D01*
X48100000Y-78778571D01*
X48100000Y-78921428D01*
X47600000Y-79278571D02*
X47028571Y-79278571D01*
X47385714Y-78778571D02*
X47385714Y-80064285D01*
X47314285Y-80207142D01*
X47171428Y-80278571D01*
X47028571Y-80278571D01*
X45885714Y-80278571D02*
X45885714Y-79492857D01*
X45957142Y-79350000D01*
X46100000Y-79278571D01*
X46385714Y-79278571D01*
X46528571Y-79350000D01*
X45885714Y-80207142D02*
X46028571Y-80278571D01*
X46385714Y-80278571D01*
X46528571Y-80207142D01*
X46600000Y-80064285D01*
X46600000Y-79921428D01*
X46528571Y-79778571D01*
X46385714Y-79707142D01*
X46028571Y-79707142D01*
X45885714Y-79635714D01*
X45171428Y-79707142D02*
X44028571Y-79707142D01*
X43314285Y-80278571D02*
X43314285Y-79278571D01*
X43314285Y-78778571D02*
X43385714Y-78850000D01*
X43314285Y-78921428D01*
X43242857Y-78850000D01*
X43314285Y-78778571D01*
X43314285Y-78921428D01*
X42600000Y-79278571D02*
X42600000Y-80278571D01*
X42600000Y-79421428D02*
X42528571Y-79350000D01*
X42385714Y-79278571D01*
X42171428Y-79278571D01*
X42028571Y-79350000D01*
X41957142Y-79492857D01*
X41957142Y-80278571D01*
X40600000Y-80207142D02*
X40742857Y-80278571D01*
X41028571Y-80278571D01*
X41171428Y-80207142D01*
X41242857Y-80135714D01*
X41314285Y-79992857D01*
X41314285Y-79564285D01*
X41242857Y-79421428D01*
X41171428Y-79350000D01*
X41028571Y-79278571D01*
X40742857Y-79278571D01*
X40600000Y-79350000D01*
D12*
X68392857Y-14742857D02*
X68792857Y-14171428D01*
X69078571Y-14742857D02*
X69078571Y-13542857D01*
X68621428Y-13542857D01*
X68507142Y-13600000D01*
X68450000Y-13657142D01*
X68392857Y-13771428D01*
X68392857Y-13942857D01*
X68450000Y-14057142D01*
X68507142Y-14114285D01*
X68621428Y-14171428D01*
X69078571Y-14171428D01*
X67878571Y-14114285D02*
X67478571Y-14114285D01*
X67307142Y-14742857D02*
X67878571Y-14742857D01*
X67878571Y-13542857D01*
X67307142Y-13542857D01*
X66850000Y-14685714D02*
X66678571Y-14742857D01*
X66392857Y-14742857D01*
X66278571Y-14685714D01*
X66221428Y-14628571D01*
X66164285Y-14514285D01*
X66164285Y-14400000D01*
X66221428Y-14285714D01*
X66278571Y-14228571D01*
X66392857Y-14171428D01*
X66621428Y-14114285D01*
X66735714Y-14057142D01*
X66792857Y-14000000D01*
X66850000Y-13885714D01*
X66850000Y-13771428D01*
X66792857Y-13657142D01*
X66735714Y-13600000D01*
X66621428Y-13542857D01*
X66335714Y-13542857D01*
X66164285Y-13600000D01*
X65650000Y-14114285D02*
X65250000Y-14114285D01*
X65078571Y-14742857D02*
X65650000Y-14742857D01*
X65650000Y-13542857D01*
X65078571Y-13542857D01*
X64735714Y-13542857D02*
X64050000Y-13542857D01*
X64392857Y-14742857D02*
X64392857Y-13542857D01*
D13*
X94862833Y-79597809D02*
X94862833Y-78759714D01*
X94939023Y-78607333D01*
X95091404Y-78531142D01*
X95396166Y-78531142D01*
X95548547Y-78607333D01*
X94862833Y-79521619D02*
X95015214Y-79597809D01*
X95396166Y-79597809D01*
X95548547Y-79521619D01*
X95624738Y-79369238D01*
X95624738Y-79216857D01*
X95548547Y-79064476D01*
X95396166Y-78988285D01*
X95015214Y-78988285D01*
X94862833Y-78912095D01*
X94100928Y-78531142D02*
X94100928Y-79597809D01*
X94100928Y-78683523D02*
X94024738Y-78607333D01*
X93872357Y-78531142D01*
X93643785Y-78531142D01*
X93491404Y-78607333D01*
X93415214Y-78759714D01*
X93415214Y-79597809D01*
X91967595Y-79597809D02*
X91967595Y-77997809D01*
X91967595Y-79521619D02*
X92119976Y-79597809D01*
X92424738Y-79597809D01*
X92577119Y-79521619D01*
X92653309Y-79445428D01*
X92729500Y-79293047D01*
X92729500Y-78835904D01*
X92653309Y-78683523D01*
X92577119Y-78607333D01*
X92424738Y-78531142D01*
X92119976Y-78531142D01*
X91967595Y-78607333D01*
D11*
X57379261Y-28166857D02*
X58369738Y-28166857D01*
X57874500Y-28662095D02*
X57874500Y-27671619D01*
D10*
X106337857Y-79552571D02*
X106337857Y-78052571D01*
X105980714Y-78052571D01*
X105766428Y-78124000D01*
X105623571Y-78266857D01*
X105552142Y-78409714D01*
X105480714Y-78695428D01*
X105480714Y-78909714D01*
X105552142Y-79195428D01*
X105623571Y-79338285D01*
X105766428Y-79481142D01*
X105980714Y-79552571D01*
X106337857Y-79552571D01*
X104266428Y-79481142D02*
X104409285Y-79552571D01*
X104695000Y-79552571D01*
X104837857Y-79481142D01*
X104909285Y-79338285D01*
X104909285Y-78766857D01*
X104837857Y-78624000D01*
X104695000Y-78552571D01*
X104409285Y-78552571D01*
X104266428Y-78624000D01*
X104195000Y-78766857D01*
X104195000Y-78909714D01*
X104909285Y-79052571D01*
X103623571Y-79481142D02*
X103480714Y-79552571D01*
X103195000Y-79552571D01*
X103052142Y-79481142D01*
X102980714Y-79338285D01*
X102980714Y-79266857D01*
X103052142Y-79124000D01*
X103195000Y-79052571D01*
X103409285Y-79052571D01*
X103552142Y-78981142D01*
X103623571Y-78838285D01*
X103623571Y-78766857D01*
X103552142Y-78624000D01*
X103409285Y-78552571D01*
X103195000Y-78552571D01*
X103052142Y-78624000D01*
X102337857Y-79552571D02*
X102337857Y-78552571D01*
X102337857Y-78052571D02*
X102409285Y-78124000D01*
X102337857Y-78195428D01*
X102266428Y-78124000D01*
X102337857Y-78052571D01*
X102337857Y-78195428D01*
X100980714Y-78552571D02*
X100980714Y-79766857D01*
X101052142Y-79909714D01*
X101123571Y-79981142D01*
X101266428Y-80052571D01*
X101480714Y-80052571D01*
X101623571Y-79981142D01*
X100980714Y-79481142D02*
X101123571Y-79552571D01*
X101409285Y-79552571D01*
X101552142Y-79481142D01*
X101623571Y-79409714D01*
X101695000Y-79266857D01*
X101695000Y-78838285D01*
X101623571Y-78695428D01*
X101552142Y-78624000D01*
X101409285Y-78552571D01*
X101123571Y-78552571D01*
X100980714Y-78624000D01*
X100266428Y-78552571D02*
X100266428Y-79552571D01*
X100266428Y-78695428D02*
X100195000Y-78624000D01*
X100052142Y-78552571D01*
X99837857Y-78552571D01*
X99695000Y-78624000D01*
X99623571Y-78766857D01*
X99623571Y-79552571D01*
X98337857Y-79481142D02*
X98480714Y-79552571D01*
X98766428Y-79552571D01*
X98909285Y-79481142D01*
X98980714Y-79338285D01*
X98980714Y-78766857D01*
X98909285Y-78624000D01*
X98766428Y-78552571D01*
X98480714Y-78552571D01*
X98337857Y-78624000D01*
X98266428Y-78766857D01*
X98266428Y-78909714D01*
X98980714Y-79052571D01*
X96980714Y-79552571D02*
X96980714Y-78052571D01*
X96980714Y-79481142D02*
X97123571Y-79552571D01*
X97409285Y-79552571D01*
X97552142Y-79481142D01*
X97623571Y-79409714D01*
X97695000Y-79266857D01*
X97695000Y-78838285D01*
X97623571Y-78695428D01*
X97552142Y-78624000D01*
X97409285Y-78552571D01*
X97123571Y-78552571D01*
X96980714Y-78624000D01*
X90552142Y-79552571D02*
X90552142Y-78552571D01*
X90552142Y-78695428D02*
X90480714Y-78624000D01*
X90337857Y-78552571D01*
X90123571Y-78552571D01*
X89980714Y-78624000D01*
X89909285Y-78766857D01*
X89909285Y-79552571D01*
X89909285Y-78766857D02*
X89837857Y-78624000D01*
X89695000Y-78552571D01*
X89480714Y-78552571D01*
X89337857Y-78624000D01*
X89266428Y-78766857D01*
X89266428Y-79552571D01*
X87909285Y-79552571D02*
X87909285Y-78766857D01*
X87980714Y-78624000D01*
X88123571Y-78552571D01*
X88409285Y-78552571D01*
X88552142Y-78624000D01*
X87909285Y-79481142D02*
X88052142Y-79552571D01*
X88409285Y-79552571D01*
X88552142Y-79481142D01*
X88623571Y-79338285D01*
X88623571Y-79195428D01*
X88552142Y-79052571D01*
X88409285Y-78981142D01*
X88052142Y-78981142D01*
X87909285Y-78909714D01*
X86552142Y-79552571D02*
X86552142Y-78052571D01*
X86552142Y-79481142D02*
X86695000Y-79552571D01*
X86980714Y-79552571D01*
X87123571Y-79481142D01*
X87195000Y-79409714D01*
X87266428Y-79266857D01*
X87266428Y-78838285D01*
X87195000Y-78695428D01*
X87123571Y-78624000D01*
X86980714Y-78552571D01*
X86695000Y-78552571D01*
X86552142Y-78624000D01*
X85266428Y-79481142D02*
X85409285Y-79552571D01*
X85695000Y-79552571D01*
X85837857Y-79481142D01*
X85909285Y-79338285D01*
X85909285Y-78766857D01*
X85837857Y-78624000D01*
X85695000Y-78552571D01*
X85409285Y-78552571D01*
X85266428Y-78624000D01*
X85195000Y-78766857D01*
X85195000Y-78909714D01*
X85909285Y-79052571D01*
X83409285Y-79552571D02*
X83409285Y-78552571D01*
X83409285Y-78052571D02*
X83480714Y-78124000D01*
X83409285Y-78195428D01*
X83337857Y-78124000D01*
X83409285Y-78052571D01*
X83409285Y-78195428D01*
X82695000Y-78552571D02*
X82695000Y-79552571D01*
X82695000Y-78695428D02*
X82623571Y-78624000D01*
X82480714Y-78552571D01*
X82266428Y-78552571D01*
X82123571Y-78624000D01*
X82052142Y-78766857D01*
X82052142Y-79552571D01*
X80195000Y-79552571D02*
X80195000Y-78052571D01*
X79837857Y-78052571D01*
X79623571Y-78124000D01*
X79480714Y-78266857D01*
X79409285Y-78409714D01*
X79337857Y-78695428D01*
X79337857Y-78909714D01*
X79409285Y-79195428D01*
X79480714Y-79338285D01*
X79623571Y-79481142D01*
X79837857Y-79552571D01*
X80195000Y-79552571D01*
X78123571Y-79481142D02*
X78266428Y-79552571D01*
X78552142Y-79552571D01*
X78695000Y-79481142D01*
X78766428Y-79338285D01*
X78766428Y-78766857D01*
X78695000Y-78624000D01*
X78552142Y-78552571D01*
X78266428Y-78552571D01*
X78123571Y-78624000D01*
X78052142Y-78766857D01*
X78052142Y-78909714D01*
X78766428Y-79052571D01*
X77409285Y-78552571D02*
X77409285Y-79552571D01*
X77409285Y-78695428D02*
X77337857Y-78624000D01*
X77195000Y-78552571D01*
X76980714Y-78552571D01*
X76837857Y-78624000D01*
X76766428Y-78766857D01*
X76766428Y-79552571D01*
X76052142Y-79552571D02*
X76052142Y-78552571D01*
X76052142Y-78695428D02*
X75980714Y-78624000D01*
X75837857Y-78552571D01*
X75623571Y-78552571D01*
X75480714Y-78624000D01*
X75409285Y-78766857D01*
X75409285Y-79552571D01*
X75409285Y-78766857D02*
X75337857Y-78624000D01*
X75195000Y-78552571D01*
X74980714Y-78552571D01*
X74837857Y-78624000D01*
X74766428Y-78766857D01*
X74766428Y-79552571D01*
X73409285Y-79552571D02*
X73409285Y-78766857D01*
X73480714Y-78624000D01*
X73623571Y-78552571D01*
X73909285Y-78552571D01*
X74052142Y-78624000D01*
X73409285Y-79481142D02*
X73552142Y-79552571D01*
X73909285Y-79552571D01*
X74052142Y-79481142D01*
X74123571Y-79338285D01*
X74123571Y-79195428D01*
X74052142Y-79052571D01*
X73909285Y-78981142D01*
X73552142Y-78981142D01*
X73409285Y-78909714D01*
X72695000Y-79552571D02*
X72695000Y-78552571D01*
X72695000Y-78838285D02*
X72623571Y-78695428D01*
X72552142Y-78624000D01*
X72409285Y-78552571D01*
X72266428Y-78552571D01*
X71766428Y-79552571D02*
X71766428Y-78052571D01*
X71623571Y-78981142D02*
X71195000Y-79552571D01*
X71195000Y-78552571D02*
X71766428Y-79124000D01*
X70480714Y-79481142D02*
X70480714Y-79552571D01*
X70552142Y-79695428D01*
X70623571Y-79766857D01*
X68695000Y-78766857D02*
X68195000Y-78766857D01*
X67980714Y-79552571D02*
X68695000Y-79552571D01*
X68695000Y-78052571D01*
X67980714Y-78052571D01*
X67337857Y-78052571D02*
X67337857Y-79266857D01*
X67266428Y-79409714D01*
X67195000Y-79481142D01*
X67052142Y-79552571D01*
X66766428Y-79552571D01*
X66623571Y-79481142D01*
X66552142Y-79409714D01*
X66480714Y-79266857D01*
X66480714Y-78052571D01*
D11*
X74283571Y-2178571D02*
X74997857Y-2178571D01*
X74997857Y-678571D01*
X73212142Y-2107142D02*
X73355000Y-2178571D01*
X73640714Y-2178571D01*
X73783571Y-2107142D01*
X73855000Y-1964285D01*
X73855000Y-1392857D01*
X73783571Y-1250000D01*
X73640714Y-1178571D01*
X73355000Y-1178571D01*
X73212142Y-1250000D01*
X73140714Y-1392857D01*
X73140714Y-1535714D01*
X73855000Y-1678571D01*
X72712142Y-1178571D02*
X72140714Y-1178571D01*
X72497857Y-678571D02*
X72497857Y-1964285D01*
X72426428Y-2107142D01*
X72283571Y-2178571D01*
X72140714Y-2178571D01*
X71569285Y-678571D02*
X71712142Y-964285D01*
X70997857Y-2107142D02*
X70855000Y-2178571D01*
X70569285Y-2178571D01*
X70426428Y-2107142D01*
X70355000Y-1964285D01*
X70355000Y-1892857D01*
X70426428Y-1750000D01*
X70569285Y-1678571D01*
X70783571Y-1678571D01*
X70926428Y-1607142D01*
X70997857Y-1464285D01*
X70997857Y-1392857D01*
X70926428Y-1250000D01*
X70783571Y-1178571D01*
X70569285Y-1178571D01*
X70426428Y-1250000D01*
X68640714Y-2107142D02*
X68426428Y-2178571D01*
X68069285Y-2178571D01*
X67926428Y-2107142D01*
X67855000Y-2035714D01*
X67783571Y-1892857D01*
X67783571Y-1750000D01*
X67855000Y-1607142D01*
X67926428Y-1535714D01*
X68069285Y-1464285D01*
X68355000Y-1392857D01*
X68497857Y-1321428D01*
X68569285Y-1250000D01*
X68640714Y-1107142D01*
X68640714Y-964285D01*
X68569285Y-821428D01*
X68497857Y-750000D01*
X68355000Y-678571D01*
X67997857Y-678571D01*
X67783571Y-750000D01*
X67140714Y-1178571D02*
X67140714Y-2678571D01*
X67140714Y-1250000D02*
X66997857Y-1178571D01*
X66712142Y-1178571D01*
X66569285Y-1250000D01*
X66497857Y-1321428D01*
X66426428Y-1464285D01*
X66426428Y-1892857D01*
X66497857Y-2035714D01*
X66569285Y-2107142D01*
X66712142Y-2178571D01*
X66997857Y-2178571D01*
X67140714Y-2107142D01*
X65569285Y-2178571D02*
X65712142Y-2107142D01*
X65783571Y-1964285D01*
X65783571Y-678571D01*
X64997857Y-2178571D02*
X64997857Y-1178571D01*
X64997857Y-678571D02*
X65069285Y-750000D01*
X64997857Y-821428D01*
X64926428Y-750000D01*
X64997857Y-678571D01*
X64997857Y-821428D01*
X64497857Y-1178571D02*
X63926428Y-1178571D01*
X64283571Y-678571D02*
X64283571Y-1964285D01*
X64212142Y-2107142D01*
X64069285Y-2178571D01*
X63926428Y-2178571D01*
X63355000Y-2107142D02*
X63355000Y-2178571D01*
X63426428Y-2321428D01*
X63497857Y-2392857D01*
X61712142Y-1178571D02*
X61354999Y-2178571D01*
X60997857Y-1178571D01*
X60426428Y-2178571D02*
X60426428Y-1178571D01*
X60426428Y-678571D02*
X60497857Y-750000D01*
X60426428Y-821428D01*
X60355000Y-750000D01*
X60426428Y-678571D01*
X60426428Y-821428D01*
X59926428Y-1178571D02*
X59355000Y-1178571D01*
X59712142Y-678571D02*
X59712142Y-1964285D01*
X59640714Y-2107142D01*
X59497857Y-2178571D01*
X59355000Y-2178571D01*
X58212142Y-2178571D02*
X58212142Y-1392857D01*
X58283571Y-1250000D01*
X58426428Y-1178571D01*
X58712142Y-1178571D01*
X58855000Y-1250000D01*
X58212142Y-2107142D02*
X58355000Y-2178571D01*
X58712142Y-2178571D01*
X58855000Y-2107142D01*
X58926428Y-1964285D01*
X58926428Y-1821428D01*
X58855000Y-1678571D01*
X58712142Y-1607142D01*
X58355000Y-1607142D01*
X58212142Y-1535714D01*
X57497857Y-2178571D02*
X57497857Y-1178571D01*
X57497857Y-1321428D02*
X57426428Y-1250000D01*
X57283571Y-1178571D01*
X57069285Y-1178571D01*
X56926428Y-1250000D01*
X56855000Y-1392857D01*
X56855000Y-2178571D01*
X56855000Y-1392857D02*
X56783571Y-1250000D01*
X56640714Y-1178571D01*
X56426428Y-1178571D01*
X56283571Y-1250000D01*
X56212142Y-1392857D01*
X56212142Y-2178571D01*
X55497857Y-2178571D02*
X55497857Y-1178571D01*
X55497857Y-678571D02*
X55569285Y-750000D01*
X55497857Y-821428D01*
X55426428Y-750000D01*
X55497857Y-678571D01*
X55497857Y-821428D01*
X54783571Y-1178571D02*
X54783571Y-2178571D01*
X54783571Y-1321428D02*
X54712142Y-1250000D01*
X54569285Y-1178571D01*
X54355000Y-1178571D01*
X54212142Y-1250000D01*
X54140714Y-1392857D01*
X54140714Y-2178571D01*
X53497857Y-2107142D02*
X53355000Y-2178571D01*
X53069285Y-2178571D01*
X52926428Y-2107142D01*
X52855000Y-1964285D01*
X52855000Y-1892857D01*
X52926428Y-1750000D01*
X53069285Y-1678571D01*
X53283571Y-1678571D01*
X53426428Y-1607142D01*
X53497857Y-1464285D01*
X53497857Y-1392857D01*
X53426428Y-1250000D01*
X53283571Y-1178571D01*
X53069285Y-1178571D01*
X52926428Y-1250000D01*
X51069285Y-2178571D02*
X51069285Y-1178571D01*
X51069285Y-678571D02*
X51140714Y-750000D01*
X51069285Y-821428D01*
X50997857Y-750000D01*
X51069285Y-678571D01*
X51069285Y-821428D01*
X50355000Y-1178571D02*
X50355000Y-2178571D01*
X50355000Y-1321428D02*
X50283571Y-1250000D01*
X50140714Y-1178571D01*
X49926428Y-1178571D01*
X49783571Y-1250000D01*
X49712142Y-1392857D01*
X49712142Y-2178571D01*
X48355000Y-2107142D02*
X48497857Y-2178571D01*
X48783571Y-2178571D01*
X48926428Y-2107142D01*
X48997857Y-2035714D01*
X49069285Y-1892857D01*
X49069285Y-1464285D01*
X48997857Y-1321428D01*
X48926428Y-1250000D01*
X48783571Y-1178571D01*
X48497857Y-1178571D01*
X48355000Y-1250000D01*
X47497857Y-2178571D02*
X47640714Y-2107142D01*
X47712142Y-1964285D01*
X47712142Y-678571D01*
X46283571Y-1178571D02*
X46283571Y-2178571D01*
X46926428Y-1178571D02*
X46926428Y-1964285D01*
X46855000Y-2107142D01*
X46712142Y-2178571D01*
X46497857Y-2178571D01*
X46355000Y-2107142D01*
X46283571Y-2035714D01*
X44926428Y-2178571D02*
X44926428Y-678571D01*
X44926428Y-2107142D02*
X45069285Y-2178571D01*
X45355000Y-2178571D01*
X45497857Y-2107142D01*
X45569285Y-2035714D01*
X45640714Y-1892857D01*
X45640714Y-1464285D01*
X45569285Y-1321428D01*
X45497857Y-1250000D01*
X45355000Y-1178571D01*
X45069285Y-1178571D01*
X44926428Y-1250000D01*
X43640714Y-2107142D02*
X43783571Y-2178571D01*
X44069285Y-2178571D01*
X44212142Y-2107142D01*
X44283571Y-1964285D01*
X44283571Y-1392857D01*
X44212142Y-1250000D01*
X44069285Y-1178571D01*
X43783571Y-1178571D01*
X43640714Y-1250000D01*
X43569285Y-1392857D01*
X43569285Y-1535714D01*
X44283571Y-1678571D01*
X42283571Y-2178571D02*
X42283571Y-678571D01*
X42283571Y-2107142D02*
X42426428Y-2178571D01*
X42712142Y-2178571D01*
X42854999Y-2107142D01*
X42926428Y-2035714D01*
X42997857Y-1892857D01*
X42997857Y-1464285D01*
X42926428Y-1321428D01*
X42854999Y-1250000D01*
X42712142Y-1178571D01*
X42426428Y-1178571D01*
X42283571Y-1250000D01*
X40426428Y-2178571D02*
X40426428Y-678571D01*
X40426428Y-1250000D02*
X40283571Y-1178571D01*
X39997857Y-1178571D01*
X39855000Y-1250000D01*
X39783571Y-1321428D01*
X39712142Y-1464285D01*
X39712142Y-1892857D01*
X39783571Y-2035714D01*
X39855000Y-2107142D01*
X39997857Y-2178571D01*
X40283571Y-2178571D01*
X40426428Y-2107142D01*
X39212142Y-1178571D02*
X38855000Y-2178571D01*
X38497857Y-1178571D02*
X38855000Y-2178571D01*
X38997857Y-2535714D01*
X39069285Y-2607142D01*
X39212142Y-2678571D01*
X36783571Y-2178571D02*
X36783571Y-678571D01*
X36426428Y-678571D01*
X36212142Y-750000D01*
X36069285Y-892857D01*
X35997857Y-1035714D01*
X35926428Y-1321428D01*
X35926428Y-1535714D01*
X35997857Y-1821428D01*
X36069285Y-1964285D01*
X36212142Y-2107142D01*
X36426428Y-2178571D01*
X36783571Y-2178571D01*
X34640714Y-1178571D02*
X34640714Y-2178571D01*
X35283571Y-1178571D02*
X35283571Y-1964285D01*
X35212142Y-2107142D01*
X35069285Y-2178571D01*
X34855000Y-2178571D01*
X34712142Y-2107142D01*
X34640714Y-2035714D01*
X33283571Y-2107142D02*
X33426428Y-2178571D01*
X33712142Y-2178571D01*
X33855000Y-2107142D01*
X33926428Y-2035714D01*
X33997857Y-1892857D01*
X33997857Y-1464285D01*
X33926428Y-1321428D01*
X33855000Y-1250000D01*
X33712142Y-1178571D01*
X33426428Y-1178571D01*
X33283571Y-1250000D01*
X32640714Y-2178571D02*
X32640714Y-678571D01*
X32497857Y-1607142D02*
X32069285Y-2178571D01*
X32069285Y-1178571D02*
X32640714Y-1750000D01*
X31212142Y-2178571D02*
X31355000Y-2107142D01*
X31426428Y-1964285D01*
X31426428Y-678571D01*
X30069285Y-2107142D02*
X30212142Y-2178571D01*
X30497857Y-2178571D01*
X30640714Y-2107142D01*
X30712142Y-1964285D01*
X30712142Y-1392857D01*
X30640714Y-1250000D01*
X30497857Y-1178571D01*
X30212142Y-1178571D01*
X30069285Y-1250000D01*
X29997857Y-1392857D01*
X29997857Y-1535714D01*
X30712142Y-1678571D01*
X29426428Y-821428D02*
X29355000Y-750000D01*
X29212142Y-678571D01*
X28855000Y-678571D01*
X28712142Y-750000D01*
X28640714Y-821428D01*
X28569285Y-964285D01*
X28569285Y-1107142D01*
X28640714Y-1321428D01*
X29497857Y-2178571D01*
X28569285Y-2178571D01*
X27855000Y-2178571D02*
X27569285Y-2178571D01*
X27426428Y-2107142D01*
X27355000Y-2035714D01*
X27212142Y-1821428D01*
X27140714Y-1535714D01*
X27140714Y-964285D01*
X27212142Y-821428D01*
X27283571Y-750000D01*
X27426428Y-678571D01*
X27712142Y-678571D01*
X27855000Y-750000D01*
X27926428Y-821428D01*
X27997857Y-964285D01*
X27997857Y-1321428D01*
X27926428Y-1464285D01*
X27855000Y-1535714D01*
X27712142Y-1607142D01*
X27426428Y-1607142D01*
X27283571Y-1535714D01*
X27212142Y-1464285D01*
X27140714Y-1321428D01*
X33342857Y-7000000D02*
X32200000Y-7000000D01*
X32771428Y-7533333D02*
X32771428Y-6466666D01*
X30342857Y-7533333D02*
X30342857Y-6133333D01*
X29985714Y-6133333D01*
X29771428Y-6200000D01*
X29628571Y-6333333D01*
X29557142Y-6466666D01*
X29485714Y-6733333D01*
X29485714Y-6933333D01*
X29557142Y-7200000D01*
X29628571Y-7333333D01*
X29771428Y-7466666D01*
X29985714Y-7533333D01*
X30342857Y-7533333D01*
X27700000Y-7000000D02*
X26557142Y-7000000D01*
D14*
G04 #@! TO.C,D18*
X90565000Y-45725000D02*
X90565000Y-44265000D01*
X87405000Y-45725000D02*
X87405000Y-43565000D01*
X87405000Y-45725000D02*
X88335000Y-45725000D01*
X90565000Y-45725000D02*
X89635000Y-45725000D01*
G04 #@! TO.C,C6*
X48990000Y-12412779D02*
X48990000Y-12087221D01*
X50010000Y-12412779D02*
X50010000Y-12087221D01*
G04 #@! TO.C,R7*
X64890779Y-3946000D02*
X64565221Y-3946000D01*
X64890779Y-2926000D02*
X64565221Y-2926000D01*
G04 #@! TO.C,SW50*
X56890000Y-9890000D02*
X56890000Y-13510000D01*
X63010000Y-9890000D02*
X56890000Y-9890000D01*
X63010000Y-13510000D02*
X63010000Y-9890000D01*
X56890000Y-13510000D02*
X63010000Y-13510000D01*
G04 #@! TO.C,D23*
X58688000Y-76967000D02*
X58688000Y-75507000D01*
X55528000Y-76967000D02*
X55528000Y-74807000D01*
X55528000Y-76967000D02*
X56458000Y-76967000D01*
X58688000Y-76967000D02*
X57758000Y-76967000D01*
D15*
G04 #@! TO.C,U2*
X34986926Y-7601000D02*
G75*
G03X34986926Y-7601000I-269408J0D01*
G01*
D16*
X34394938Y-14908580D02*
X34394938Y-14210080D01*
X35093438Y-14908580D02*
X34394938Y-14908580D01*
X41390098Y-14908580D02*
X40691598Y-14908580D01*
X41390098Y-14210080D02*
X41390098Y-14908580D01*
X41390098Y-7913420D02*
X41390098Y-8611920D01*
X40691598Y-7913420D02*
X41390098Y-7913420D01*
X35184878Y-7913420D02*
X34394938Y-8703360D01*
D17*
X41390098Y-7913420D02*
X34394938Y-7913420D01*
X34394938Y-7913420D02*
X34394938Y-14908580D01*
X41390098Y-14908580D02*
X34394938Y-14908580D01*
X41390098Y-7913420D02*
X41390098Y-14908580D01*
D14*
G04 #@! TO.C,D28*
X56822500Y-15735000D02*
X54337500Y-15735000D01*
X56822500Y-14365000D02*
X56822500Y-15735000D01*
X54337500Y-14365000D02*
X56822500Y-14365000D01*
G04 #@! TO.C,C18*
X76600279Y-22390000D02*
X76274721Y-22390000D01*
X76600279Y-23410000D02*
X76274721Y-23410000D01*
G04 #@! TO.C,P6*
X26060000Y-5782000D02*
X26060000Y-3122000D01*
X31200000Y-5782000D02*
X26060000Y-5782000D01*
X31200000Y-3122000D02*
X26060000Y-3122000D01*
X31200000Y-5782000D02*
X31200000Y-3122000D01*
X32470000Y-5782000D02*
X33800000Y-5782000D01*
X33800000Y-5782000D02*
X33800000Y-4452000D01*
G04 #@! TO.C,D21*
X90311000Y-65029000D02*
X90311000Y-63569000D01*
X87151000Y-65029000D02*
X87151000Y-62869000D01*
X87151000Y-65029000D02*
X88081000Y-65029000D01*
X90311000Y-65029000D02*
X89381000Y-65029000D01*
G04 #@! TO.C,C7*
X48990000Y-8837221D02*
X48990000Y-9162779D01*
X50010000Y-8837221D02*
X50010000Y-9162779D01*
G04 #@! TO.C,C19*
X95037221Y-49410000D02*
X95362779Y-49410000D01*
X95037221Y-48390000D02*
X95362779Y-48390000D01*
G04 #@! TO.C,D35*
X34300000Y-30150000D02*
X34300000Y-29000000D01*
X41600000Y-30150000D02*
X34300000Y-30150000D01*
X41600000Y-24650000D02*
X34300000Y-24650000D01*
G04 #@! TO.C,D22*
X39003000Y-77094000D02*
X38073000Y-77094000D01*
X35843000Y-77094000D02*
X36773000Y-77094000D01*
X35843000Y-77094000D02*
X35843000Y-74934000D01*
X39003000Y-77094000D02*
X39003000Y-75634000D01*
G04 #@! TO.C,D26*
X84950000Y-14500000D02*
X90350000Y-14500000D01*
X84950000Y-11200000D02*
X90350000Y-11200000D01*
X84950000Y-14500000D02*
X84950000Y-11200000D01*
G04 #@! TO.C,C17*
X38162779Y-67590000D02*
X37837221Y-67590000D01*
X38162779Y-68610000D02*
X37837221Y-68610000D01*
G04 #@! TO.C,C16*
X19562779Y-49510000D02*
X19237221Y-49510000D01*
X19562779Y-48490000D02*
X19237221Y-48490000D01*
G04 #@! TO.C,D24*
X96788000Y-76967000D02*
X96788000Y-75507000D01*
X93628000Y-76967000D02*
X93628000Y-74807000D01*
X93628000Y-76967000D02*
X94558000Y-76967000D01*
X96788000Y-76967000D02*
X95858000Y-76967000D01*
D15*
G04 #@! TO.C,J10*
X80180000Y-40000D02*
X89120000Y-40000D01*
D14*
X80180000Y-5050000D02*
X80180000Y-3250000D01*
X80180000Y460000D02*
X80180000Y-1000000D01*
X89120000Y460000D02*
X89120000Y-1000000D01*
X89120000Y-5050000D02*
X89120000Y-3250000D01*
X89120000Y460000D02*
X80180000Y460000D01*
G04 #@! TO.C,D39*
X91650000Y-48150000D02*
X98950000Y-48150000D01*
X91650000Y-42650000D02*
X98950000Y-42650000D01*
X98950000Y-42650000D02*
X98950000Y-43800000D01*
G04 #@! TO.C,D36*
X23050000Y-42650000D02*
X15750000Y-42650000D01*
X23050000Y-48150000D02*
X15750000Y-48150000D01*
X15750000Y-48150000D02*
X15750000Y-47000000D01*
G04 #@! TO.C,D19*
X29605000Y-65029000D02*
X29605000Y-63569000D01*
X26445000Y-65029000D02*
X26445000Y-62869000D01*
X26445000Y-65029000D02*
X27375000Y-65029000D01*
X29605000Y-65029000D02*
X28675000Y-65029000D01*
G04 #@! TO.C,C15*
X38050279Y-31610000D02*
X37724721Y-31610000D01*
X38050279Y-30590000D02*
X37724721Y-30590000D01*
G04 #@! TO.C,D40*
X72550000Y-67250000D02*
X79850000Y-67250000D01*
X72550000Y-61750000D02*
X79850000Y-61750000D01*
X79850000Y-61750000D02*
X79850000Y-62900000D01*
G04 #@! TO.C,R14*
X39360000Y-22437221D02*
X39360000Y-22762779D01*
X38340000Y-22437221D02*
X38340000Y-22762779D01*
G04 #@! TO.C,J6*
X77520000Y-11595000D02*
X76885000Y-11595000D01*
X77520000Y-12230000D02*
X77520000Y-11595000D01*
G04 #@! TO.C,D20*
X58688000Y-65029000D02*
X57758000Y-65029000D01*
X55528000Y-65029000D02*
X56458000Y-65029000D01*
X55528000Y-65029000D02*
X55528000Y-62869000D01*
X58688000Y-65029000D02*
X58688000Y-63569000D01*
G04 #@! TO.C,R16*
X58337221Y-15560000D02*
X58662779Y-15560000D01*
X58337221Y-14540000D02*
X58662779Y-14540000D01*
G04 #@! TO.C,D13*
X30240000Y-26548000D02*
X30240000Y-25088000D01*
X27080000Y-26548000D02*
X27080000Y-24388000D01*
X27080000Y-26548000D02*
X28010000Y-26548000D01*
X30240000Y-26548000D02*
X29310000Y-26548000D01*
G04 #@! TO.C,C8*
X38003000Y-4425621D02*
X38003000Y-4751179D01*
X36983000Y-4425621D02*
X36983000Y-4751179D01*
G04 #@! TO.C,Y2*
X44700000Y-13700000D02*
X44700000Y-7800000D01*
X48300000Y-13700000D02*
X44700000Y-13700000D01*
X48300000Y-7800000D02*
X48300000Y-13700000D01*
G04 #@! TO.C,R12*
X29062779Y-14260000D02*
X28737221Y-14260000D01*
X29062779Y-13240000D02*
X28737221Y-13240000D01*
G04 #@! TO.C,D16*
X27430000Y-45760000D02*
X27430000Y-44300000D01*
X24270000Y-45760000D02*
X24270000Y-43600000D01*
X24270000Y-45760000D02*
X25200000Y-45760000D01*
X27430000Y-45760000D02*
X26500000Y-45760000D01*
G04 #@! TO.C,D38*
X72650000Y-29150000D02*
X79950000Y-29150000D01*
X72650000Y-23650000D02*
X79950000Y-23650000D01*
X79950000Y-23650000D02*
X79950000Y-24800000D01*
G04 #@! TO.C,D37*
X34450000Y-67250000D02*
X34450000Y-66100000D01*
X41750000Y-67250000D02*
X34450000Y-67250000D01*
X41750000Y-61750000D02*
X34450000Y-61750000D01*
G04 #@! TO.C,D17*
X59577000Y-45725000D02*
X58647000Y-45725000D01*
X56417000Y-45725000D02*
X57347000Y-45725000D01*
X56417000Y-45725000D02*
X56417000Y-43565000D01*
X59577000Y-45725000D02*
X59577000Y-44265000D01*
G04 #@! TO.C,C5*
X32669000Y-8464221D02*
X32669000Y-8789779D01*
X31649000Y-8464221D02*
X31649000Y-8789779D01*
G04 #@! TO.C,R10*
X45769221Y-25913000D02*
X46094779Y-25913000D01*
X45769221Y-26933000D02*
X46094779Y-26933000D01*
G04 #@! TO.C,R9*
X42721221Y-5085000D02*
X43046779Y-5085000D01*
X42721221Y-6105000D02*
X43046779Y-6105000D01*
D15*
G04 #@! TO.C,P8*
X22407500Y-1128000D02*
X22407500Y-16628000D01*
X15707500Y-1128000D02*
X15707500Y-16628000D01*
X15707500Y-16628000D02*
X22407500Y-16628000D01*
X15707500Y-1128000D02*
X22407500Y-1128000D01*
X21343500Y-1128000D02*
X21343500Y372000D01*
X21343500Y372000D02*
X17152500Y372000D01*
X17152500Y372000D02*
X17152500Y-1128000D01*
D14*
G04 #@! TO.C,C20*
X76137221Y-67490000D02*
X76462779Y-67490000D01*
X76137221Y-68510000D02*
X76462779Y-68510000D01*
G04 #@! TO.C,D14*
X67324000Y-26548000D02*
X66394000Y-26548000D01*
X64164000Y-26548000D02*
X65094000Y-26548000D01*
X64164000Y-26548000D02*
X64164000Y-24388000D01*
X67324000Y-26548000D02*
X67324000Y-25088000D01*
G04 #@! TO.C,D15*
X91415000Y-26548000D02*
X91415000Y-25088000D01*
X88255000Y-26548000D02*
X88255000Y-24388000D01*
X88255000Y-26548000D02*
X89185000Y-26548000D01*
X91415000Y-26548000D02*
X90485000Y-26548000D01*
G04 #@! TO.C,R8*
X64890779Y-5470000D02*
X64565221Y-5470000D01*
X64890779Y-4450000D02*
X64565221Y-4450000D01*
G04 #@! TO.C,R20*
X77112779Y-3310000D02*
X76787221Y-3310000D01*
X77112779Y-2290000D02*
X76787221Y-2290000D01*
G04 #@! TO.C,R19*
X77112779Y-5090000D02*
X76787221Y-5090000D01*
X77112779Y-6110000D02*
X76787221Y-6110000D01*
D18*
G04 #@! TO.C,G\002A\002A\002A*
G36*
X75427434Y-28352000D02*
X75261881Y-28352401D01*
X75142829Y-28354488D01*
X75060337Y-28359583D01*
X75004464Y-28369009D01*
X74965267Y-28384090D01*
X74932806Y-28406149D01*
X74916185Y-28420045D01*
X74837000Y-28488090D01*
X74818916Y-29368000D01*
X74160807Y-29368000D01*
X73948386Y-29368388D01*
X73785114Y-29369887D01*
X73663700Y-29372999D01*
X73576852Y-29378226D01*
X73517277Y-29386070D01*
X73477685Y-29397033D01*
X73450782Y-29411617D01*
X73443352Y-29417388D01*
X73413747Y-29460906D01*
X73367667Y-29554374D01*
X73306638Y-29694245D01*
X73232185Y-29876973D01*
X73145833Y-30099010D01*
X73112669Y-30186444D01*
X73040008Y-30378444D01*
X72972758Y-30554785D01*
X72913787Y-30708053D01*
X72865965Y-30830832D01*
X72832160Y-30915707D01*
X72815240Y-30955265D01*
X72815117Y-30955500D01*
X72763029Y-30995263D01*
X72694245Y-31004888D01*
X72606275Y-31021257D01*
X72532960Y-31058839D01*
X72493332Y-31100589D01*
X72473173Y-31155385D01*
X72466563Y-31242249D01*
X72466333Y-31272950D01*
X72469968Y-31369975D01*
X72485684Y-31431579D01*
X72520701Y-31478573D01*
X72545518Y-31501221D01*
X72617382Y-31547299D01*
X72687343Y-31569072D01*
X72693685Y-31569333D01*
X72762667Y-31569333D01*
X72762667Y-32206711D01*
X73087556Y-32950544D01*
X73172856Y-33143299D01*
X73253204Y-33320085D01*
X73325281Y-33473971D01*
X73385768Y-33598023D01*
X73431348Y-33685310D01*
X73458701Y-33728901D01*
X73461501Y-33731624D01*
X73491955Y-33744113D01*
X73550172Y-33753757D01*
X73641791Y-33760847D01*
X73772448Y-33765679D01*
X73947783Y-33768544D01*
X74173433Y-33769735D01*
X74194944Y-33769769D01*
X74879333Y-33770666D01*
X74879333Y-33898371D01*
X74891722Y-33985835D01*
X74924334Y-34093906D01*
X74970341Y-34207493D01*
X75022912Y-34311505D01*
X75075218Y-34390852D01*
X75120085Y-34430314D01*
X75167178Y-34437957D01*
X75255751Y-34443939D01*
X75370845Y-34447435D01*
X75441166Y-34448000D01*
X75570410Y-34446816D01*
X75656109Y-34441629D01*
X75711140Y-34429985D01*
X75748383Y-34409431D01*
X75774412Y-34384500D01*
X75853805Y-34274615D01*
X75920875Y-34139641D01*
X75966022Y-34002260D01*
X75980000Y-33898604D01*
X75980000Y-33770666D01*
X76655760Y-33770666D01*
X76868282Y-33770503D01*
X77031718Y-33769596D01*
X77153427Y-33767318D01*
X77240767Y-33763040D01*
X77301095Y-33756136D01*
X77341771Y-33745978D01*
X77370153Y-33731938D01*
X77393599Y-33713390D01*
X77400430Y-33707166D01*
X77432521Y-33661638D01*
X77483142Y-33569080D01*
X77549712Y-33434811D01*
X77629648Y-33264148D01*
X77720369Y-33062408D01*
X77783004Y-32919197D01*
X78096667Y-32194727D01*
X78096667Y-31575615D01*
X78194633Y-31557236D01*
X78289635Y-31519991D01*
X78348910Y-31447208D01*
X78376124Y-31333104D01*
X78378889Y-31266720D01*
X78364517Y-31139052D01*
X78318812Y-31056129D01*
X78237886Y-31013372D01*
X78156584Y-31004888D01*
X78047168Y-31004888D01*
X77759517Y-30235833D01*
X77684491Y-30037523D01*
X77613911Y-29855260D01*
X77550645Y-29696119D01*
X77497565Y-29567180D01*
X77457537Y-29475517D01*
X77433434Y-29428209D01*
X77430541Y-29424444D01*
X77407690Y-29410528D01*
X77365000Y-29399323D01*
X77296053Y-29390329D01*
X77194432Y-29383045D01*
X77053716Y-29376974D01*
X76867489Y-29371613D01*
X76705774Y-29368000D01*
X76022333Y-29353888D01*
X76014569Y-28910879D01*
X76011197Y-28722949D01*
X76003721Y-28582639D01*
X75984847Y-28483005D01*
X75947282Y-28417105D01*
X75883730Y-28377995D01*
X75786898Y-28358732D01*
X75649491Y-28352373D01*
X75464215Y-28351975D01*
X75427434Y-28352000D01*
X75427434Y-28352000D01*
G37*
X75427434Y-28352000D02*
X75261881Y-28352401D01*
X75142829Y-28354488D01*
X75060337Y-28359583D01*
X75004464Y-28369009D01*
X74965267Y-28384090D01*
X74932806Y-28406149D01*
X74916185Y-28420045D01*
X74837000Y-28488090D01*
X74818916Y-29368000D01*
X74160807Y-29368000D01*
X73948386Y-29368388D01*
X73785114Y-29369887D01*
X73663700Y-29372999D01*
X73576852Y-29378226D01*
X73517277Y-29386070D01*
X73477685Y-29397033D01*
X73450782Y-29411617D01*
X73443352Y-29417388D01*
X73413747Y-29460906D01*
X73367667Y-29554374D01*
X73306638Y-29694245D01*
X73232185Y-29876973D01*
X73145833Y-30099010D01*
X73112669Y-30186444D01*
X73040008Y-30378444D01*
X72972758Y-30554785D01*
X72913787Y-30708053D01*
X72865965Y-30830832D01*
X72832160Y-30915707D01*
X72815240Y-30955265D01*
X72815117Y-30955500D01*
X72763029Y-30995263D01*
X72694245Y-31004888D01*
X72606275Y-31021257D01*
X72532960Y-31058839D01*
X72493332Y-31100589D01*
X72473173Y-31155385D01*
X72466563Y-31242249D01*
X72466333Y-31272950D01*
X72469968Y-31369975D01*
X72485684Y-31431579D01*
X72520701Y-31478573D01*
X72545518Y-31501221D01*
X72617382Y-31547299D01*
X72687343Y-31569072D01*
X72693685Y-31569333D01*
X72762667Y-31569333D01*
X72762667Y-32206711D01*
X73087556Y-32950544D01*
X73172856Y-33143299D01*
X73253204Y-33320085D01*
X73325281Y-33473971D01*
X73385768Y-33598023D01*
X73431348Y-33685310D01*
X73458701Y-33728901D01*
X73461501Y-33731624D01*
X73491955Y-33744113D01*
X73550172Y-33753757D01*
X73641791Y-33760847D01*
X73772448Y-33765679D01*
X73947783Y-33768544D01*
X74173433Y-33769735D01*
X74194944Y-33769769D01*
X74879333Y-33770666D01*
X74879333Y-33898371D01*
X74891722Y-33985835D01*
X74924334Y-34093906D01*
X74970341Y-34207493D01*
X75022912Y-34311505D01*
X75075218Y-34390852D01*
X75120085Y-34430314D01*
X75167178Y-34437957D01*
X75255751Y-34443939D01*
X75370845Y-34447435D01*
X75441166Y-34448000D01*
X75570410Y-34446816D01*
X75656109Y-34441629D01*
X75711140Y-34429985D01*
X75748383Y-34409431D01*
X75774412Y-34384500D01*
X75853805Y-34274615D01*
X75920875Y-34139641D01*
X75966022Y-34002260D01*
X75980000Y-33898604D01*
X75980000Y-33770666D01*
X76655760Y-33770666D01*
X76868282Y-33770503D01*
X77031718Y-33769596D01*
X77153427Y-33767318D01*
X77240767Y-33763040D01*
X77301095Y-33756136D01*
X77341771Y-33745978D01*
X77370153Y-33731938D01*
X77393599Y-33713390D01*
X77400430Y-33707166D01*
X77432521Y-33661638D01*
X77483142Y-33569080D01*
X77549712Y-33434811D01*
X77629648Y-33264148D01*
X77720369Y-33062408D01*
X77783004Y-32919197D01*
X78096667Y-32194727D01*
X78096667Y-31575615D01*
X78194633Y-31557236D01*
X78289635Y-31519991D01*
X78348910Y-31447208D01*
X78376124Y-31333104D01*
X78378889Y-31266720D01*
X78364517Y-31139052D01*
X78318812Y-31056129D01*
X78237886Y-31013372D01*
X78156584Y-31004888D01*
X78047168Y-31004888D01*
X77759517Y-30235833D01*
X77684491Y-30037523D01*
X77613911Y-29855260D01*
X77550645Y-29696119D01*
X77497565Y-29567180D01*
X77457537Y-29475517D01*
X77433434Y-29428209D01*
X77430541Y-29424444D01*
X77407690Y-29410528D01*
X77365000Y-29399323D01*
X77296053Y-29390329D01*
X77194432Y-29383045D01*
X77053716Y-29376974D01*
X76867489Y-29371613D01*
X76705774Y-29368000D01*
X76022333Y-29353888D01*
X76014569Y-28910879D01*
X76011197Y-28722949D01*
X76003721Y-28582639D01*
X75984847Y-28483005D01*
X75947282Y-28417105D01*
X75883730Y-28377995D01*
X75786898Y-28358732D01*
X75649491Y-28352373D01*
X75464215Y-28351975D01*
X75427434Y-28352000D01*
G36*
X84992180Y-33573114D02*
X84293875Y-33573134D01*
X83647933Y-33573188D01*
X83052313Y-33573291D01*
X82504975Y-33573459D01*
X82003878Y-33573708D01*
X81546980Y-33574054D01*
X81132242Y-33574514D01*
X80757623Y-33575102D01*
X80421081Y-33575836D01*
X80120577Y-33576732D01*
X79854069Y-33577804D01*
X79619516Y-33579070D01*
X79414879Y-33580545D01*
X79238115Y-33582245D01*
X79087185Y-33584186D01*
X78960048Y-33586385D01*
X78854663Y-33588857D01*
X78768989Y-33591618D01*
X78700986Y-33594684D01*
X78648612Y-33598072D01*
X78609828Y-33601797D01*
X78582592Y-33605875D01*
X78564863Y-33610323D01*
X78554602Y-33615156D01*
X78549766Y-33620390D01*
X78548316Y-33626042D01*
X78548222Y-33629555D01*
X78548636Y-33635459D01*
X78551240Y-33640936D01*
X78558073Y-33646002D01*
X78571177Y-33650673D01*
X78592592Y-33654966D01*
X78624359Y-33658896D01*
X78668518Y-33662480D01*
X78727112Y-33665733D01*
X78802179Y-33668671D01*
X78895761Y-33671310D01*
X79009899Y-33673667D01*
X79146634Y-33675758D01*
X79308005Y-33677597D01*
X79496055Y-33679202D01*
X79712823Y-33680589D01*
X79960350Y-33681772D01*
X80240677Y-33682769D01*
X80555845Y-33683596D01*
X80907895Y-33684268D01*
X81298867Y-33684801D01*
X81730802Y-33685212D01*
X82205740Y-33685516D01*
X82725723Y-33685730D01*
X83292792Y-33685869D01*
X83908986Y-33685949D01*
X84576347Y-33685987D01*
X85296915Y-33685999D01*
X85744889Y-33686000D01*
X86497598Y-33685996D01*
X87195902Y-33685976D01*
X87841844Y-33685922D01*
X88437464Y-33685819D01*
X88984802Y-33685652D01*
X89485900Y-33685402D01*
X89942797Y-33685056D01*
X90357535Y-33684596D01*
X90732155Y-33684008D01*
X91068696Y-33683274D01*
X91369201Y-33682379D01*
X91635709Y-33681306D01*
X91870261Y-33680040D01*
X92074899Y-33678566D01*
X92251662Y-33676865D01*
X92402592Y-33674924D01*
X92529729Y-33672725D01*
X92635114Y-33670253D01*
X92720788Y-33667492D01*
X92788792Y-33664426D01*
X92841165Y-33661038D01*
X92879950Y-33657313D01*
X92907186Y-33653235D01*
X92924914Y-33648787D01*
X92935176Y-33643954D01*
X92940011Y-33638720D01*
X92941461Y-33633069D01*
X92941555Y-33629555D01*
X92941141Y-33623651D01*
X92938538Y-33618175D01*
X92931705Y-33613108D01*
X92918601Y-33608437D01*
X92897186Y-33604144D01*
X92865419Y-33600214D01*
X92821259Y-33596630D01*
X92762666Y-33593377D01*
X92687599Y-33590439D01*
X92594016Y-33587800D01*
X92479878Y-33585443D01*
X92343144Y-33583353D01*
X92181772Y-33581513D01*
X91993723Y-33579908D01*
X91776955Y-33578522D01*
X91529428Y-33577338D01*
X91249101Y-33576341D01*
X90933932Y-33575514D01*
X90581883Y-33574842D01*
X90190911Y-33574309D01*
X89758976Y-33573898D01*
X89284037Y-33573594D01*
X88764054Y-33573380D01*
X88196986Y-33573241D01*
X87580792Y-33573161D01*
X86913431Y-33573123D01*
X86192863Y-33573111D01*
X85744889Y-33573111D01*
X84992180Y-33573114D01*
X84992180Y-33573114D01*
G37*
X84992180Y-33573114D02*
X84293875Y-33573134D01*
X83647933Y-33573188D01*
X83052313Y-33573291D01*
X82504975Y-33573459D01*
X82003878Y-33573708D01*
X81546980Y-33574054D01*
X81132242Y-33574514D01*
X80757623Y-33575102D01*
X80421081Y-33575836D01*
X80120577Y-33576732D01*
X79854069Y-33577804D01*
X79619516Y-33579070D01*
X79414879Y-33580545D01*
X79238115Y-33582245D01*
X79087185Y-33584186D01*
X78960048Y-33586385D01*
X78854663Y-33588857D01*
X78768989Y-33591618D01*
X78700986Y-33594684D01*
X78648612Y-33598072D01*
X78609828Y-33601797D01*
X78582592Y-33605875D01*
X78564863Y-33610323D01*
X78554602Y-33615156D01*
X78549766Y-33620390D01*
X78548316Y-33626042D01*
X78548222Y-33629555D01*
X78548636Y-33635459D01*
X78551240Y-33640936D01*
X78558073Y-33646002D01*
X78571177Y-33650673D01*
X78592592Y-33654966D01*
X78624359Y-33658896D01*
X78668518Y-33662480D01*
X78727112Y-33665733D01*
X78802179Y-33668671D01*
X78895761Y-33671310D01*
X79009899Y-33673667D01*
X79146634Y-33675758D01*
X79308005Y-33677597D01*
X79496055Y-33679202D01*
X79712823Y-33680589D01*
X79960350Y-33681772D01*
X80240677Y-33682769D01*
X80555845Y-33683596D01*
X80907895Y-33684268D01*
X81298867Y-33684801D01*
X81730802Y-33685212D01*
X82205740Y-33685516D01*
X82725723Y-33685730D01*
X83292792Y-33685869D01*
X83908986Y-33685949D01*
X84576347Y-33685987D01*
X85296915Y-33685999D01*
X85744889Y-33686000D01*
X86497598Y-33685996D01*
X87195902Y-33685976D01*
X87841844Y-33685922D01*
X88437464Y-33685819D01*
X88984802Y-33685652D01*
X89485900Y-33685402D01*
X89942797Y-33685056D01*
X90357535Y-33684596D01*
X90732155Y-33684008D01*
X91068696Y-33683274D01*
X91369201Y-33682379D01*
X91635709Y-33681306D01*
X91870261Y-33680040D01*
X92074899Y-33678566D01*
X92251662Y-33676865D01*
X92402592Y-33674924D01*
X92529729Y-33672725D01*
X92635114Y-33670253D01*
X92720788Y-33667492D01*
X92788792Y-33664426D01*
X92841165Y-33661038D01*
X92879950Y-33657313D01*
X92907186Y-33653235D01*
X92924914Y-33648787D01*
X92935176Y-33643954D01*
X92940011Y-33638720D01*
X92941461Y-33633069D01*
X92941555Y-33629555D01*
X92941141Y-33623651D01*
X92938538Y-33618175D01*
X92931705Y-33613108D01*
X92918601Y-33608437D01*
X92897186Y-33604144D01*
X92865419Y-33600214D01*
X92821259Y-33596630D01*
X92762666Y-33593377D01*
X92687599Y-33590439D01*
X92594016Y-33587800D01*
X92479878Y-33585443D01*
X92343144Y-33583353D01*
X92181772Y-33581513D01*
X91993723Y-33579908D01*
X91776955Y-33578522D01*
X91529428Y-33577338D01*
X91249101Y-33576341D01*
X90933932Y-33575514D01*
X90581883Y-33574842D01*
X90190911Y-33574309D01*
X89758976Y-33573898D01*
X89284037Y-33573594D01*
X88764054Y-33573380D01*
X88196986Y-33573241D01*
X87580792Y-33573161D01*
X86913431Y-33573123D01*
X86192863Y-33573111D01*
X85744889Y-33573111D01*
X84992180Y-33573114D01*
G36*
X66101068Y-33573116D02*
X65518959Y-33573150D01*
X64988496Y-33573238D01*
X64507280Y-33573406D01*
X64072912Y-33573680D01*
X63682993Y-33574087D01*
X63335124Y-33574652D01*
X63026905Y-33575401D01*
X62755937Y-33576361D01*
X62519822Y-33577556D01*
X62316160Y-33579015D01*
X62142552Y-33580761D01*
X61996598Y-33582822D01*
X61875901Y-33585223D01*
X61778060Y-33587990D01*
X61700677Y-33591150D01*
X61641352Y-33594728D01*
X61597686Y-33598750D01*
X61567281Y-33603243D01*
X61547736Y-33608232D01*
X61536653Y-33613743D01*
X61531633Y-33619803D01*
X61530277Y-33626437D01*
X61530222Y-33629555D01*
X61530725Y-33636451D01*
X61533832Y-33642761D01*
X61541943Y-33648511D01*
X61557456Y-33653728D01*
X61582772Y-33658436D01*
X61620289Y-33662663D01*
X61672406Y-33666434D01*
X61741522Y-33669775D01*
X61830037Y-33672713D01*
X61940349Y-33675272D01*
X62074858Y-33677480D01*
X62235963Y-33679362D01*
X62426063Y-33680944D01*
X62647557Y-33682252D01*
X62902845Y-33683313D01*
X63194324Y-33684152D01*
X63524396Y-33684795D01*
X63895458Y-33685268D01*
X64309909Y-33685598D01*
X64770150Y-33685810D01*
X65278579Y-33685930D01*
X65837595Y-33685984D01*
X66449597Y-33685999D01*
X66737222Y-33686000D01*
X67373377Y-33685994D01*
X67955486Y-33685960D01*
X68485949Y-33685872D01*
X68967164Y-33685704D01*
X69401532Y-33685430D01*
X69791451Y-33685023D01*
X70139321Y-33684458D01*
X70447540Y-33683709D01*
X70718507Y-33682749D01*
X70954622Y-33681554D01*
X71158285Y-33680096D01*
X71331893Y-33678349D01*
X71477846Y-33676288D01*
X71598543Y-33673887D01*
X71696384Y-33671120D01*
X71773767Y-33667960D01*
X71833092Y-33664382D01*
X71876758Y-33660360D01*
X71907164Y-33655867D01*
X71926708Y-33650878D01*
X71937791Y-33645367D01*
X71942811Y-33639307D01*
X71944168Y-33632673D01*
X71944222Y-33629555D01*
X71943720Y-33622659D01*
X71940612Y-33616349D01*
X71932502Y-33610599D01*
X71916988Y-33605382D01*
X71891672Y-33600674D01*
X71854156Y-33596447D01*
X71802039Y-33592676D01*
X71732922Y-33589335D01*
X71644408Y-33586397D01*
X71534095Y-33583838D01*
X71399586Y-33581630D01*
X71238481Y-33579748D01*
X71048381Y-33578166D01*
X70826887Y-33576858D01*
X70571600Y-33575797D01*
X70280120Y-33574958D01*
X69950049Y-33574315D01*
X69578987Y-33573842D01*
X69164535Y-33573512D01*
X68704294Y-33573300D01*
X68195866Y-33573180D01*
X67636850Y-33573126D01*
X67024848Y-33573111D01*
X66737222Y-33573111D01*
X66101068Y-33573116D01*
X66101068Y-33573116D01*
G37*
X66101068Y-33573116D02*
X65518959Y-33573150D01*
X64988496Y-33573238D01*
X64507280Y-33573406D01*
X64072912Y-33573680D01*
X63682993Y-33574087D01*
X63335124Y-33574652D01*
X63026905Y-33575401D01*
X62755937Y-33576361D01*
X62519822Y-33577556D01*
X62316160Y-33579015D01*
X62142552Y-33580761D01*
X61996598Y-33582822D01*
X61875901Y-33585223D01*
X61778060Y-33587990D01*
X61700677Y-33591150D01*
X61641352Y-33594728D01*
X61597686Y-33598750D01*
X61567281Y-33603243D01*
X61547736Y-33608232D01*
X61536653Y-33613743D01*
X61531633Y-33619803D01*
X61530277Y-33626437D01*
X61530222Y-33629555D01*
X61530725Y-33636451D01*
X61533832Y-33642761D01*
X61541943Y-33648511D01*
X61557456Y-33653728D01*
X61582772Y-33658436D01*
X61620289Y-33662663D01*
X61672406Y-33666434D01*
X61741522Y-33669775D01*
X61830037Y-33672713D01*
X61940349Y-33675272D01*
X62074858Y-33677480D01*
X62235963Y-33679362D01*
X62426063Y-33680944D01*
X62647557Y-33682252D01*
X62902845Y-33683313D01*
X63194324Y-33684152D01*
X63524396Y-33684795D01*
X63895458Y-33685268D01*
X64309909Y-33685598D01*
X64770150Y-33685810D01*
X65278579Y-33685930D01*
X65837595Y-33685984D01*
X66449597Y-33685999D01*
X66737222Y-33686000D01*
X67373377Y-33685994D01*
X67955486Y-33685960D01*
X68485949Y-33685872D01*
X68967164Y-33685704D01*
X69401532Y-33685430D01*
X69791451Y-33685023D01*
X70139321Y-33684458D01*
X70447540Y-33683709D01*
X70718507Y-33682749D01*
X70954622Y-33681554D01*
X71158285Y-33680096D01*
X71331893Y-33678349D01*
X71477846Y-33676288D01*
X71598543Y-33673887D01*
X71696384Y-33671120D01*
X71773767Y-33667960D01*
X71833092Y-33664382D01*
X71876758Y-33660360D01*
X71907164Y-33655867D01*
X71926708Y-33650878D01*
X71937791Y-33645367D01*
X71942811Y-33639307D01*
X71944168Y-33632673D01*
X71944222Y-33629555D01*
X71943720Y-33622659D01*
X71940612Y-33616349D01*
X71932502Y-33610599D01*
X71916988Y-33605382D01*
X71891672Y-33600674D01*
X71854156Y-33596447D01*
X71802039Y-33592676D01*
X71732922Y-33589335D01*
X71644408Y-33586397D01*
X71534095Y-33583838D01*
X71399586Y-33581630D01*
X71238481Y-33579748D01*
X71048381Y-33578166D01*
X70826887Y-33576858D01*
X70571600Y-33575797D01*
X70280120Y-33574958D01*
X69950049Y-33574315D01*
X69578987Y-33573842D01*
X69164535Y-33573512D01*
X68704294Y-33573300D01*
X68195866Y-33573180D01*
X67636850Y-33573126D01*
X67024848Y-33573111D01*
X66737222Y-33573111D01*
X66101068Y-33573116D01*
G36*
X88147348Y-29743230D02*
X87965744Y-29761509D01*
X87807483Y-29789811D01*
X87712413Y-29817966D01*
X87509667Y-29925731D01*
X87333236Y-30081149D01*
X87185869Y-30280582D01*
X87070316Y-30520393D01*
X86996422Y-30765000D01*
X86968699Y-30931028D01*
X86950585Y-31135967D01*
X86942072Y-31363527D01*
X86943149Y-31597420D01*
X86953808Y-31821355D01*
X86974038Y-32019044D01*
X86997233Y-32147888D01*
X87084161Y-32435981D01*
X87199890Y-32676177D01*
X87346378Y-32870231D01*
X87525584Y-33019899D01*
X87739466Y-33126937D01*
X87989980Y-33193100D01*
X88188558Y-33216057D01*
X88321982Y-33220003D01*
X88458042Y-33216448D01*
X88567522Y-33206163D01*
X88568505Y-33206010D01*
X88826572Y-33141918D01*
X89048890Y-33035557D01*
X89236674Y-32885760D01*
X89391140Y-32691361D01*
X89513505Y-32451193D01*
X89588557Y-32227304D01*
X89610997Y-32137846D01*
X89627229Y-32050210D01*
X89638202Y-31952752D01*
X89644867Y-31833823D01*
X89648170Y-31681778D01*
X89649062Y-31484970D01*
X89649062Y-31484666D01*
X89648658Y-31397480D01*
X89421060Y-31397480D01*
X89419575Y-31617061D01*
X89409848Y-31825810D01*
X89391891Y-32007059D01*
X89375100Y-32105555D01*
X89296902Y-32368354D01*
X89185102Y-32590617D01*
X89041587Y-32769908D01*
X88868243Y-32903790D01*
X88698261Y-32980261D01*
X88521674Y-33019468D01*
X88322339Y-33034127D01*
X88119708Y-33024941D01*
X87933237Y-32992616D01*
X87802670Y-32947798D01*
X87624357Y-32841163D01*
X87477640Y-32699315D01*
X87361388Y-32519575D01*
X87274465Y-32299266D01*
X87215739Y-32035709D01*
X87184076Y-31726225D01*
X87177399Y-31470555D01*
X87188616Y-31138753D01*
X87223016Y-30854440D01*
X87281903Y-30613072D01*
X87366583Y-30410105D01*
X87478359Y-30240998D01*
X87554076Y-30158615D01*
X87679659Y-30057089D01*
X87820529Y-29986206D01*
X87987723Y-29942429D01*
X88192280Y-29922219D01*
X88299000Y-29919873D01*
X88441366Y-29920598D01*
X88543923Y-29925914D01*
X88623274Y-29938551D01*
X88696024Y-29961241D01*
X88778776Y-29996713D01*
X88785762Y-29999925D01*
X88975234Y-30114696D01*
X89130132Y-30269523D01*
X89252210Y-30466904D01*
X89343223Y-30709338D01*
X89375950Y-30840402D01*
X89399258Y-30992484D01*
X89414291Y-31183732D01*
X89421060Y-31397480D01*
X89648658Y-31397480D01*
X89648146Y-31287101D01*
X89644779Y-31134401D01*
X89638031Y-31015009D01*
X89626973Y-30917367D01*
X89610676Y-30829918D01*
X89589711Y-30746539D01*
X89489268Y-30464270D01*
X89355606Y-30226858D01*
X89189215Y-30034819D01*
X88990586Y-29888667D01*
X88760208Y-29788917D01*
X88649058Y-29759891D01*
X88507320Y-29741285D01*
X88333978Y-29736110D01*
X88147348Y-29743230D01*
X88147348Y-29743230D01*
G37*
X88147348Y-29743230D02*
X87965744Y-29761509D01*
X87807483Y-29789811D01*
X87712413Y-29817966D01*
X87509667Y-29925731D01*
X87333236Y-30081149D01*
X87185869Y-30280582D01*
X87070316Y-30520393D01*
X86996422Y-30765000D01*
X86968699Y-30931028D01*
X86950585Y-31135967D01*
X86942072Y-31363527D01*
X86943149Y-31597420D01*
X86953808Y-31821355D01*
X86974038Y-32019044D01*
X86997233Y-32147888D01*
X87084161Y-32435981D01*
X87199890Y-32676177D01*
X87346378Y-32870231D01*
X87525584Y-33019899D01*
X87739466Y-33126937D01*
X87989980Y-33193100D01*
X88188558Y-33216057D01*
X88321982Y-33220003D01*
X88458042Y-33216448D01*
X88567522Y-33206163D01*
X88568505Y-33206010D01*
X88826572Y-33141918D01*
X89048890Y-33035557D01*
X89236674Y-32885760D01*
X89391140Y-32691361D01*
X89513505Y-32451193D01*
X89588557Y-32227304D01*
X89610997Y-32137846D01*
X89627229Y-32050210D01*
X89638202Y-31952752D01*
X89644867Y-31833823D01*
X89648170Y-31681778D01*
X89649062Y-31484970D01*
X89649062Y-31484666D01*
X89648658Y-31397480D01*
X89421060Y-31397480D01*
X89419575Y-31617061D01*
X89409848Y-31825810D01*
X89391891Y-32007059D01*
X89375100Y-32105555D01*
X89296902Y-32368354D01*
X89185102Y-32590617D01*
X89041587Y-32769908D01*
X88868243Y-32903790D01*
X88698261Y-32980261D01*
X88521674Y-33019468D01*
X88322339Y-33034127D01*
X88119708Y-33024941D01*
X87933237Y-32992616D01*
X87802670Y-32947798D01*
X87624357Y-32841163D01*
X87477640Y-32699315D01*
X87361388Y-32519575D01*
X87274465Y-32299266D01*
X87215739Y-32035709D01*
X87184076Y-31726225D01*
X87177399Y-31470555D01*
X87188616Y-31138753D01*
X87223016Y-30854440D01*
X87281903Y-30613072D01*
X87366583Y-30410105D01*
X87478359Y-30240998D01*
X87554076Y-30158615D01*
X87679659Y-30057089D01*
X87820529Y-29986206D01*
X87987723Y-29942429D01*
X88192280Y-29922219D01*
X88299000Y-29919873D01*
X88441366Y-29920598D01*
X88543923Y-29925914D01*
X88623274Y-29938551D01*
X88696024Y-29961241D01*
X88778776Y-29996713D01*
X88785762Y-29999925D01*
X88975234Y-30114696D01*
X89130132Y-30269523D01*
X89252210Y-30466904D01*
X89343223Y-30709338D01*
X89375950Y-30840402D01*
X89399258Y-30992484D01*
X89414291Y-31183732D01*
X89421060Y-31397480D01*
X89648658Y-31397480D01*
X89648146Y-31287101D01*
X89644779Y-31134401D01*
X89638031Y-31015009D01*
X89626973Y-30917367D01*
X89610676Y-30829918D01*
X89589711Y-30746539D01*
X89489268Y-30464270D01*
X89355606Y-30226858D01*
X89189215Y-30034819D01*
X88990586Y-29888667D01*
X88760208Y-29788917D01*
X88649058Y-29759891D01*
X88507320Y-29741285D01*
X88333978Y-29736110D01*
X88147348Y-29743230D01*
G36*
X62387785Y-29748451D02*
X62197738Y-29760136D01*
X62027599Y-29781609D01*
X61932389Y-29801428D01*
X61834194Y-29829873D01*
X61761742Y-29857116D01*
X61728545Y-29877940D01*
X61727778Y-29880441D01*
X61739768Y-29922233D01*
X61768689Y-29986134D01*
X61769486Y-29987679D01*
X61811194Y-30068334D01*
X62016430Y-29994183D01*
X62122940Y-29959006D01*
X62219692Y-29936742D01*
X62325986Y-29924584D01*
X62461117Y-29919724D01*
X62532111Y-29919182D01*
X62675790Y-29920205D01*
X62779147Y-29925879D01*
X62858262Y-29938720D01*
X62929218Y-29961244D01*
X63000796Y-29992534D01*
X63154403Y-30092243D01*
X63269140Y-30223989D01*
X63341114Y-30378297D01*
X63366427Y-30545692D01*
X63341185Y-30716700D01*
X63321257Y-30771929D01*
X63275411Y-30862734D01*
X63215453Y-30940886D01*
X63133877Y-31011470D01*
X63023177Y-31079570D01*
X62875847Y-31150271D01*
X62684379Y-31228657D01*
X62598473Y-31261522D01*
X62403956Y-31336337D01*
X62253422Y-31398185D01*
X62137295Y-31451911D01*
X62045999Y-31502360D01*
X61969956Y-31554377D01*
X61899591Y-31612810D01*
X61893647Y-31618153D01*
X61760125Y-31772127D01*
X61671921Y-31954003D01*
X61626561Y-32169254D01*
X61622343Y-32217798D01*
X61628716Y-32459937D01*
X61681797Y-32672771D01*
X61779891Y-32853813D01*
X61921304Y-33000575D01*
X62104345Y-33110571D01*
X62269137Y-33167760D01*
X62421109Y-33196130D01*
X62604579Y-33213965D01*
X62795380Y-33220095D01*
X62969348Y-33213348D01*
X63040111Y-33205140D01*
X63148114Y-33186583D01*
X63266698Y-33162833D01*
X63383014Y-33136924D01*
X63484216Y-33111887D01*
X63557458Y-33090753D01*
X63589891Y-33076554D01*
X63590444Y-33075275D01*
X63580613Y-33043905D01*
X63556364Y-32981866D01*
X63550399Y-32967455D01*
X63510354Y-32871613D01*
X63303455Y-32945395D01*
X63202031Y-32978710D01*
X63109739Y-33000532D01*
X63009185Y-33013272D01*
X62882974Y-33019339D01*
X62757889Y-33020977D01*
X62606627Y-33020493D01*
X62497252Y-33015866D01*
X62415249Y-33005153D01*
X62346103Y-32986415D01*
X62275299Y-32957709D01*
X62271291Y-32955903D01*
X62098801Y-32851226D01*
X61972521Y-32714171D01*
X61892628Y-32545023D01*
X61859297Y-32344062D01*
X61858258Y-32289000D01*
X61883933Y-32099276D01*
X61959100Y-31935777D01*
X62079274Y-31800022D01*
X62138708Y-31750533D01*
X62199194Y-31707983D01*
X62270419Y-31667579D01*
X62362070Y-31624528D01*
X62483834Y-31574037D01*
X62645399Y-31511311D01*
X62719891Y-31483026D01*
X62978711Y-31376516D01*
X63185570Y-31270176D01*
X63344710Y-31158944D01*
X63460372Y-31037760D01*
X63536798Y-30901563D01*
X63578229Y-30745292D01*
X63588907Y-30563888D01*
X63583307Y-30452814D01*
X63541846Y-30253132D01*
X63452466Y-30082834D01*
X63316141Y-29943102D01*
X63133847Y-29835121D01*
X63045129Y-29799980D01*
X62926411Y-29772318D01*
X62767217Y-29754523D01*
X62582643Y-29746574D01*
X62387785Y-29748451D01*
X62387785Y-29748451D01*
G37*
X62387785Y-29748451D02*
X62197738Y-29760136D01*
X62027599Y-29781609D01*
X61932389Y-29801428D01*
X61834194Y-29829873D01*
X61761742Y-29857116D01*
X61728545Y-29877940D01*
X61727778Y-29880441D01*
X61739768Y-29922233D01*
X61768689Y-29986134D01*
X61769486Y-29987679D01*
X61811194Y-30068334D01*
X62016430Y-29994183D01*
X62122940Y-29959006D01*
X62219692Y-29936742D01*
X62325986Y-29924584D01*
X62461117Y-29919724D01*
X62532111Y-29919182D01*
X62675790Y-29920205D01*
X62779147Y-29925879D01*
X62858262Y-29938720D01*
X62929218Y-29961244D01*
X63000796Y-29992534D01*
X63154403Y-30092243D01*
X63269140Y-30223989D01*
X63341114Y-30378297D01*
X63366427Y-30545692D01*
X63341185Y-30716700D01*
X63321257Y-30771929D01*
X63275411Y-30862734D01*
X63215453Y-30940886D01*
X63133877Y-31011470D01*
X63023177Y-31079570D01*
X62875847Y-31150271D01*
X62684379Y-31228657D01*
X62598473Y-31261522D01*
X62403956Y-31336337D01*
X62253422Y-31398185D01*
X62137295Y-31451911D01*
X62045999Y-31502360D01*
X61969956Y-31554377D01*
X61899591Y-31612810D01*
X61893647Y-31618153D01*
X61760125Y-31772127D01*
X61671921Y-31954003D01*
X61626561Y-32169254D01*
X61622343Y-32217798D01*
X61628716Y-32459937D01*
X61681797Y-32672771D01*
X61779891Y-32853813D01*
X61921304Y-33000575D01*
X62104345Y-33110571D01*
X62269137Y-33167760D01*
X62421109Y-33196130D01*
X62604579Y-33213965D01*
X62795380Y-33220095D01*
X62969348Y-33213348D01*
X63040111Y-33205140D01*
X63148114Y-33186583D01*
X63266698Y-33162833D01*
X63383014Y-33136924D01*
X63484216Y-33111887D01*
X63557458Y-33090753D01*
X63589891Y-33076554D01*
X63590444Y-33075275D01*
X63580613Y-33043905D01*
X63556364Y-32981866D01*
X63550399Y-32967455D01*
X63510354Y-32871613D01*
X63303455Y-32945395D01*
X63202031Y-32978710D01*
X63109739Y-33000532D01*
X63009185Y-33013272D01*
X62882974Y-33019339D01*
X62757889Y-33020977D01*
X62606627Y-33020493D01*
X62497252Y-33015866D01*
X62415249Y-33005153D01*
X62346103Y-32986415D01*
X62275299Y-32957709D01*
X62271291Y-32955903D01*
X62098801Y-32851226D01*
X61972521Y-32714171D01*
X61892628Y-32545023D01*
X61859297Y-32344062D01*
X61858258Y-32289000D01*
X61883933Y-32099276D01*
X61959100Y-31935777D01*
X62079274Y-31800022D01*
X62138708Y-31750533D01*
X62199194Y-31707983D01*
X62270419Y-31667579D01*
X62362070Y-31624528D01*
X62483834Y-31574037D01*
X62645399Y-31511311D01*
X62719891Y-31483026D01*
X62978711Y-31376516D01*
X63185570Y-31270176D01*
X63344710Y-31158944D01*
X63460372Y-31037760D01*
X63536798Y-30901563D01*
X63578229Y-30745292D01*
X63588907Y-30563888D01*
X63583307Y-30452814D01*
X63541846Y-30253132D01*
X63452466Y-30082834D01*
X63316141Y-29943102D01*
X63133847Y-29835121D01*
X63045129Y-29799980D01*
X62926411Y-29772318D01*
X62767217Y-29754523D01*
X62582643Y-29746574D01*
X62387785Y-29748451D01*
G36*
X90542667Y-33149777D02*
X90704944Y-33149365D01*
X90867222Y-33148953D01*
X91756222Y-31609716D01*
X92645222Y-30070480D01*
X92652519Y-31610129D01*
X92659815Y-33149777D01*
X92856889Y-33149777D01*
X92856889Y-29791333D01*
X92532333Y-29792935D01*
X91657444Y-31318033D01*
X90782555Y-32843130D01*
X90775257Y-31317231D01*
X90767958Y-29791333D01*
X90542667Y-29791333D01*
X90542667Y-33149777D01*
X90542667Y-33149777D01*
G37*
X90542667Y-33149777D02*
X90704944Y-33149365D01*
X90867222Y-33148953D01*
X91756222Y-31609716D01*
X92645222Y-30070480D01*
X92652519Y-31610129D01*
X92659815Y-33149777D01*
X92856889Y-33149777D01*
X92856889Y-29791333D01*
X92532333Y-29792935D01*
X91657444Y-31318033D01*
X90782555Y-32843130D01*
X90775257Y-31317231D01*
X90767958Y-29791333D01*
X90542667Y-29791333D01*
X90542667Y-33149777D01*
G36*
X86404051Y-29796848D02*
X86273274Y-29805444D01*
X86183071Y-30045333D01*
X86154489Y-30121620D01*
X86108689Y-30244203D01*
X86048137Y-30406474D01*
X85975294Y-30601825D01*
X85892624Y-30823650D01*
X85802591Y-31065340D01*
X85707657Y-31320288D01*
X85632708Y-31521640D01*
X85539288Y-31770955D01*
X85451303Y-32002500D01*
X85370766Y-32211210D01*
X85299691Y-32392018D01*
X85240089Y-32539858D01*
X85193976Y-32649665D01*
X85163363Y-32716373D01*
X85150457Y-32735195D01*
X85137176Y-32704989D01*
X85107008Y-32626430D01*
X85061732Y-32504436D01*
X85003129Y-32343922D01*
X84932978Y-32149806D01*
X84853059Y-31927003D01*
X84765152Y-31680430D01*
X84671038Y-31415002D01*
X84613419Y-31251833D01*
X84098472Y-29791333D01*
X83855420Y-29791333D01*
X83935876Y-30010055D01*
X83960797Y-30078209D01*
X84002831Y-30193642D01*
X84059875Y-30350564D01*
X84129826Y-30543179D01*
X84210581Y-30765697D01*
X84300039Y-31012324D01*
X84396096Y-31277266D01*
X84496650Y-31554733D01*
X84545394Y-31689277D01*
X85074454Y-33149777D01*
X85170668Y-33149777D01*
X85238981Y-33140457D01*
X85277940Y-33117697D01*
X85279476Y-33114500D01*
X85291597Y-33082097D01*
X85321825Y-33001876D01*
X85368284Y-32878805D01*
X85429094Y-32717853D01*
X85502379Y-32523987D01*
X85586259Y-32302177D01*
X85678857Y-32057392D01*
X85778295Y-31794600D01*
X85831508Y-31654000D01*
X85936496Y-31376546D01*
X86037820Y-31108641D01*
X86133270Y-30856137D01*
X86220638Y-30624884D01*
X86297714Y-30420731D01*
X86362289Y-30249530D01*
X86412153Y-30117130D01*
X86445097Y-30029382D01*
X86452887Y-30008515D01*
X86534827Y-29788252D01*
X86404051Y-29796848D01*
X86404051Y-29796848D01*
G37*
X86404051Y-29796848D02*
X86273274Y-29805444D01*
X86183071Y-30045333D01*
X86154489Y-30121620D01*
X86108689Y-30244203D01*
X86048137Y-30406474D01*
X85975294Y-30601825D01*
X85892624Y-30823650D01*
X85802591Y-31065340D01*
X85707657Y-31320288D01*
X85632708Y-31521640D01*
X85539288Y-31770955D01*
X85451303Y-32002500D01*
X85370766Y-32211210D01*
X85299691Y-32392018D01*
X85240089Y-32539858D01*
X85193976Y-32649665D01*
X85163363Y-32716373D01*
X85150457Y-32735195D01*
X85137176Y-32704989D01*
X85107008Y-32626430D01*
X85061732Y-32504436D01*
X85003129Y-32343922D01*
X84932978Y-32149806D01*
X84853059Y-31927003D01*
X84765152Y-31680430D01*
X84671038Y-31415002D01*
X84613419Y-31251833D01*
X84098472Y-29791333D01*
X83855420Y-29791333D01*
X83935876Y-30010055D01*
X83960797Y-30078209D01*
X84002831Y-30193642D01*
X84059875Y-30350564D01*
X84129826Y-30543179D01*
X84210581Y-30765697D01*
X84300039Y-31012324D01*
X84396096Y-31277266D01*
X84496650Y-31554733D01*
X84545394Y-31689277D01*
X85074454Y-33149777D01*
X85170668Y-33149777D01*
X85238981Y-33140457D01*
X85277940Y-33117697D01*
X85279476Y-33114500D01*
X85291597Y-33082097D01*
X85321825Y-33001876D01*
X85368284Y-32878805D01*
X85429094Y-32717853D01*
X85502379Y-32523987D01*
X85586259Y-32302177D01*
X85678857Y-32057392D01*
X85778295Y-31794600D01*
X85831508Y-31654000D01*
X85936496Y-31376546D01*
X86037820Y-31108641D01*
X86133270Y-30856137D01*
X86220638Y-30624884D01*
X86297714Y-30420731D01*
X86362289Y-30249530D01*
X86412153Y-30117130D01*
X86445097Y-30029382D01*
X86452887Y-30008515D01*
X86534827Y-29788252D01*
X86404051Y-29796848D01*
G36*
X81370444Y-29960666D02*
X82922667Y-29960666D01*
X82922667Y-31315333D01*
X81483333Y-31315333D01*
X81483333Y-31484666D01*
X82922667Y-31484666D01*
X82922667Y-32952222D01*
X81314000Y-32952222D01*
X81314000Y-33149777D01*
X83148444Y-33149777D01*
X83148444Y-29791333D01*
X81370444Y-29791333D01*
X81370444Y-29960666D01*
X81370444Y-29960666D01*
G37*
X81370444Y-29960666D02*
X82922667Y-29960666D01*
X82922667Y-31315333D01*
X81483333Y-31315333D01*
X81483333Y-31484666D01*
X82922667Y-31484666D01*
X82922667Y-32952222D01*
X81314000Y-32952222D01*
X81314000Y-33149777D01*
X83148444Y-33149777D01*
X83148444Y-29791333D01*
X81370444Y-29791333D01*
X81370444Y-29960666D01*
G36*
X80241555Y-32952222D02*
X78632889Y-32952222D01*
X78632889Y-33149777D01*
X80467333Y-33149777D01*
X80467333Y-29791333D01*
X80241555Y-29791333D01*
X80241555Y-32952222D01*
X80241555Y-32952222D01*
G37*
X80241555Y-32952222D02*
X78632889Y-32952222D01*
X78632889Y-33149777D01*
X80467333Y-33149777D01*
X80467333Y-29791333D01*
X80241555Y-29791333D01*
X80241555Y-32952222D01*
G36*
X71542502Y-30574500D02*
X71535000Y-31357666D01*
X70741835Y-30574500D01*
X69948671Y-29791333D01*
X69700555Y-29791377D01*
X71327421Y-31380453D01*
X70429321Y-32263600D01*
X69531222Y-33146746D01*
X69681865Y-33148262D01*
X69832507Y-33149777D01*
X70683754Y-32315780D01*
X71535000Y-31481783D01*
X71542475Y-32315780D01*
X71549951Y-33149777D01*
X71774889Y-33149777D01*
X71774889Y-29791333D01*
X71550004Y-29791333D01*
X71542502Y-30574500D01*
X71542502Y-30574500D01*
G37*
X71542502Y-30574500D02*
X71535000Y-31357666D01*
X70741835Y-30574500D01*
X69948671Y-29791333D01*
X69700555Y-29791377D01*
X71327421Y-31380453D01*
X70429321Y-32263600D01*
X69531222Y-33146746D01*
X69681865Y-33148262D01*
X69832507Y-33149777D01*
X70683754Y-32315780D01*
X71535000Y-31481783D01*
X71542475Y-32315780D01*
X71549951Y-33149777D01*
X71774889Y-33149777D01*
X71774889Y-29791333D01*
X71550004Y-29791333D01*
X71542502Y-30574500D01*
G36*
X67118222Y-29960666D02*
X68670444Y-29960666D01*
X68670444Y-31315333D01*
X67231111Y-31315333D01*
X67231111Y-31484666D01*
X68670444Y-31484666D01*
X68670444Y-32952222D01*
X67061778Y-32952222D01*
X67061778Y-33149777D01*
X68896222Y-33149777D01*
X68896222Y-29791333D01*
X67118222Y-29791333D01*
X67118222Y-29960666D01*
X67118222Y-29960666D01*
G37*
X67118222Y-29960666D02*
X68670444Y-29960666D01*
X68670444Y-31315333D01*
X67231111Y-31315333D01*
X67231111Y-31484666D01*
X68670444Y-31484666D01*
X68670444Y-32952222D01*
X67061778Y-32952222D01*
X67061778Y-33149777D01*
X68896222Y-33149777D01*
X68896222Y-29791333D01*
X67118222Y-29791333D01*
X67118222Y-29960666D01*
G36*
X64136406Y-29795279D02*
X64100212Y-29805066D01*
X64098444Y-29808116D01*
X64112794Y-29835073D01*
X64153686Y-29904649D01*
X64217882Y-30011513D01*
X64302144Y-30150333D01*
X64403235Y-30315780D01*
X64517916Y-30502522D01*
X64642951Y-30705229D01*
X64662889Y-30737474D01*
X65227333Y-31650049D01*
X65227333Y-33149777D01*
X65453111Y-33149777D01*
X65453111Y-31637242D01*
X66043845Y-30721343D01*
X66634580Y-29805444D01*
X66534766Y-29796508D01*
X66457656Y-29794057D01*
X66402939Y-29800017D01*
X66399691Y-29801103D01*
X66376386Y-29827235D01*
X66326396Y-29895218D01*
X66253566Y-29999427D01*
X66161740Y-30134235D01*
X66054761Y-30294017D01*
X65936473Y-30473148D01*
X65848821Y-30607317D01*
X65725712Y-30795763D01*
X65612093Y-30968118D01*
X65511654Y-31118902D01*
X65428089Y-31242635D01*
X65365089Y-31333838D01*
X65326347Y-31387032D01*
X65315551Y-31398721D01*
X65297103Y-31375245D01*
X65252822Y-31309181D01*
X65186266Y-31206127D01*
X65100996Y-31071683D01*
X65000569Y-30911448D01*
X64888545Y-30731022D01*
X64804321Y-30594387D01*
X64310754Y-29791333D01*
X64204599Y-29791333D01*
X64136406Y-29795279D01*
X64136406Y-29795279D01*
G37*
X64136406Y-29795279D02*
X64100212Y-29805066D01*
X64098444Y-29808116D01*
X64112794Y-29835073D01*
X64153686Y-29904649D01*
X64217882Y-30011513D01*
X64302144Y-30150333D01*
X64403235Y-30315780D01*
X64517916Y-30502522D01*
X64642951Y-30705229D01*
X64662889Y-30737474D01*
X65227333Y-31650049D01*
X65227333Y-33149777D01*
X65453111Y-33149777D01*
X65453111Y-31637242D01*
X66043845Y-30721343D01*
X66634580Y-29805444D01*
X66534766Y-29796508D01*
X66457656Y-29794057D01*
X66402939Y-29800017D01*
X66399691Y-29801103D01*
X66376386Y-29827235D01*
X66326396Y-29895218D01*
X66253566Y-29999427D01*
X66161740Y-30134235D01*
X66054761Y-30294017D01*
X65936473Y-30473148D01*
X65848821Y-30607317D01*
X65725712Y-30795763D01*
X65612093Y-30968118D01*
X65511654Y-31118902D01*
X65428089Y-31242635D01*
X65365089Y-31333838D01*
X65326347Y-31387032D01*
X65315551Y-31398721D01*
X65297103Y-31375245D01*
X65252822Y-31309181D01*
X65186266Y-31206127D01*
X65100996Y-31071683D01*
X65000569Y-30911448D01*
X64888545Y-30731022D01*
X64804321Y-30594387D01*
X64310754Y-29791333D01*
X64204599Y-29791333D01*
X64136406Y-29795279D01*
G36*
X84985686Y-29396248D02*
X84280948Y-29396335D01*
X83628694Y-29396494D01*
X83026945Y-29396737D01*
X82473719Y-29397075D01*
X81967038Y-29397521D01*
X81504922Y-29398085D01*
X81085389Y-29398780D01*
X80706461Y-29399616D01*
X80366157Y-29400607D01*
X80062498Y-29401763D01*
X79793502Y-29403095D01*
X79557191Y-29404617D01*
X79351584Y-29406338D01*
X79174700Y-29408272D01*
X79024561Y-29410429D01*
X78899186Y-29412822D01*
X78796595Y-29415461D01*
X78714808Y-29418359D01*
X78651845Y-29421527D01*
X78605726Y-29424977D01*
X78574471Y-29428720D01*
X78556100Y-29432768D01*
X78548633Y-29437133D01*
X78548222Y-29438555D01*
X78552707Y-29443021D01*
X78567480Y-29447166D01*
X78594523Y-29451003D01*
X78635815Y-29454543D01*
X78693336Y-29457797D01*
X78769066Y-29460778D01*
X78864986Y-29463496D01*
X78983075Y-29465964D01*
X79125313Y-29468193D01*
X79293680Y-29470195D01*
X79490156Y-29471981D01*
X79716722Y-29473563D01*
X79975358Y-29474953D01*
X80268042Y-29476163D01*
X80596756Y-29477203D01*
X80963480Y-29478086D01*
X81370193Y-29478824D01*
X81818875Y-29479427D01*
X82311507Y-29479908D01*
X82850069Y-29480279D01*
X83436540Y-29480550D01*
X84072900Y-29480734D01*
X84761130Y-29480842D01*
X85503210Y-29480886D01*
X85744889Y-29480888D01*
X86504091Y-29480862D01*
X87208830Y-29480775D01*
X87861084Y-29480616D01*
X88462833Y-29480373D01*
X89016058Y-29480035D01*
X89522739Y-29479589D01*
X89984856Y-29479025D01*
X90404388Y-29478330D01*
X90783316Y-29477494D01*
X91123620Y-29476503D01*
X91427280Y-29475348D01*
X91696275Y-29474015D01*
X91932587Y-29472493D01*
X92138194Y-29470772D01*
X92315077Y-29468838D01*
X92465216Y-29466681D01*
X92590591Y-29464289D01*
X92693182Y-29461649D01*
X92774969Y-29458751D01*
X92837932Y-29455583D01*
X92884051Y-29452134D01*
X92915307Y-29448390D01*
X92933678Y-29444342D01*
X92941145Y-29439977D01*
X92941555Y-29438555D01*
X92937071Y-29434089D01*
X92922297Y-29429944D01*
X92895255Y-29426107D01*
X92853963Y-29422567D01*
X92796442Y-29419313D01*
X92720711Y-29416332D01*
X92624792Y-29413614D01*
X92506703Y-29411146D01*
X92364465Y-29408917D01*
X92196098Y-29406915D01*
X91999621Y-29405129D01*
X91773055Y-29403547D01*
X91514420Y-29402157D01*
X91221735Y-29400947D01*
X90893021Y-29399907D01*
X90526298Y-29399024D01*
X90119585Y-29398286D01*
X89670902Y-29397683D01*
X89178271Y-29397202D01*
X88639709Y-29396831D01*
X88053238Y-29396560D01*
X87416878Y-29396376D01*
X86728647Y-29396268D01*
X85986568Y-29396224D01*
X85744889Y-29396222D01*
X84985686Y-29396248D01*
X84985686Y-29396248D01*
G37*
X84985686Y-29396248D02*
X84280948Y-29396335D01*
X83628694Y-29396494D01*
X83026945Y-29396737D01*
X82473719Y-29397075D01*
X81967038Y-29397521D01*
X81504922Y-29398085D01*
X81085389Y-29398780D01*
X80706461Y-29399616D01*
X80366157Y-29400607D01*
X80062498Y-29401763D01*
X79793502Y-29403095D01*
X79557191Y-29404617D01*
X79351584Y-29406338D01*
X79174700Y-29408272D01*
X79024561Y-29410429D01*
X78899186Y-29412822D01*
X78796595Y-29415461D01*
X78714808Y-29418359D01*
X78651845Y-29421527D01*
X78605726Y-29424977D01*
X78574471Y-29428720D01*
X78556100Y-29432768D01*
X78548633Y-29437133D01*
X78548222Y-29438555D01*
X78552707Y-29443021D01*
X78567480Y-29447166D01*
X78594523Y-29451003D01*
X78635815Y-29454543D01*
X78693336Y-29457797D01*
X78769066Y-29460778D01*
X78864986Y-29463496D01*
X78983075Y-29465964D01*
X79125313Y-29468193D01*
X79293680Y-29470195D01*
X79490156Y-29471981D01*
X79716722Y-29473563D01*
X79975358Y-29474953D01*
X80268042Y-29476163D01*
X80596756Y-29477203D01*
X80963480Y-29478086D01*
X81370193Y-29478824D01*
X81818875Y-29479427D01*
X82311507Y-29479908D01*
X82850069Y-29480279D01*
X83436540Y-29480550D01*
X84072900Y-29480734D01*
X84761130Y-29480842D01*
X85503210Y-29480886D01*
X85744889Y-29480888D01*
X86504091Y-29480862D01*
X87208830Y-29480775D01*
X87861084Y-29480616D01*
X88462833Y-29480373D01*
X89016058Y-29480035D01*
X89522739Y-29479589D01*
X89984856Y-29479025D01*
X90404388Y-29478330D01*
X90783316Y-29477494D01*
X91123620Y-29476503D01*
X91427280Y-29475348D01*
X91696275Y-29474015D01*
X91932587Y-29472493D01*
X92138194Y-29470772D01*
X92315077Y-29468838D01*
X92465216Y-29466681D01*
X92590591Y-29464289D01*
X92693182Y-29461649D01*
X92774969Y-29458751D01*
X92837932Y-29455583D01*
X92884051Y-29452134D01*
X92915307Y-29448390D01*
X92933678Y-29444342D01*
X92941145Y-29439977D01*
X92941555Y-29438555D01*
X92937071Y-29434089D01*
X92922297Y-29429944D01*
X92895255Y-29426107D01*
X92853963Y-29422567D01*
X92796442Y-29419313D01*
X92720711Y-29416332D01*
X92624792Y-29413614D01*
X92506703Y-29411146D01*
X92364465Y-29408917D01*
X92196098Y-29406915D01*
X91999621Y-29405129D01*
X91773055Y-29403547D01*
X91514420Y-29402157D01*
X91221735Y-29400947D01*
X90893021Y-29399907D01*
X90526298Y-29399024D01*
X90119585Y-29398286D01*
X89670902Y-29397683D01*
X89178271Y-29397202D01*
X88639709Y-29396831D01*
X88053238Y-29396560D01*
X87416878Y-29396376D01*
X86728647Y-29396268D01*
X85986568Y-29396224D01*
X85744889Y-29396222D01*
X84985686Y-29396248D01*
G36*
X66095438Y-29396259D02*
X65507772Y-29396384D01*
X64971898Y-29396614D01*
X64485489Y-29396970D01*
X64046221Y-29397470D01*
X63651765Y-29398132D01*
X63299797Y-29398977D01*
X62987990Y-29400022D01*
X62714017Y-29401287D01*
X62475553Y-29402790D01*
X62270271Y-29404551D01*
X62095846Y-29406588D01*
X61949950Y-29408920D01*
X61830258Y-29411567D01*
X61734443Y-29414546D01*
X61660180Y-29417878D01*
X61605142Y-29421580D01*
X61567002Y-29425673D01*
X61543436Y-29430174D01*
X61532115Y-29435103D01*
X61530222Y-29438555D01*
X61534812Y-29443773D01*
X61550131Y-29448551D01*
X61578507Y-29452907D01*
X61622265Y-29456862D01*
X61683732Y-29460433D01*
X61765234Y-29463640D01*
X61869097Y-29466502D01*
X61997647Y-29469037D01*
X62153210Y-29471264D01*
X62338114Y-29473203D01*
X62554683Y-29474872D01*
X62805244Y-29476290D01*
X63092123Y-29477476D01*
X63417647Y-29478449D01*
X63784142Y-29479228D01*
X64193934Y-29479832D01*
X64649349Y-29480279D01*
X65152713Y-29480589D01*
X65706353Y-29480781D01*
X66312594Y-29480873D01*
X66737222Y-29480888D01*
X67379006Y-29480851D01*
X67966672Y-29480727D01*
X68502547Y-29480496D01*
X68988955Y-29480140D01*
X69428224Y-29479640D01*
X69822679Y-29478978D01*
X70174647Y-29478133D01*
X70486455Y-29477088D01*
X70760427Y-29475823D01*
X70998891Y-29474320D01*
X71204173Y-29472559D01*
X71378599Y-29470522D01*
X71524494Y-29468190D01*
X71644186Y-29465543D01*
X71740001Y-29462564D01*
X71814264Y-29459232D01*
X71869303Y-29455530D01*
X71907442Y-29451437D01*
X71931009Y-29446936D01*
X71942329Y-29442007D01*
X71944222Y-29438555D01*
X71939633Y-29433337D01*
X71924313Y-29428560D01*
X71895937Y-29424203D01*
X71852179Y-29420248D01*
X71790712Y-29416677D01*
X71709210Y-29413470D01*
X71605347Y-29410609D01*
X71476797Y-29408073D01*
X71321234Y-29405846D01*
X71136331Y-29403907D01*
X70919762Y-29402238D01*
X70669200Y-29400820D01*
X70382321Y-29399634D01*
X70056797Y-29398661D01*
X69690302Y-29397882D01*
X69280511Y-29397278D01*
X68825096Y-29396831D01*
X68321731Y-29396521D01*
X67768092Y-29396329D01*
X67161850Y-29396237D01*
X66737222Y-29396222D01*
X66095438Y-29396259D01*
X66095438Y-29396259D01*
G37*
X66095438Y-29396259D02*
X65507772Y-29396384D01*
X64971898Y-29396614D01*
X64485489Y-29396970D01*
X64046221Y-29397470D01*
X63651765Y-29398132D01*
X63299797Y-29398977D01*
X62987990Y-29400022D01*
X62714017Y-29401287D01*
X62475553Y-29402790D01*
X62270271Y-29404551D01*
X62095846Y-29406588D01*
X61949950Y-29408920D01*
X61830258Y-29411567D01*
X61734443Y-29414546D01*
X61660180Y-29417878D01*
X61605142Y-29421580D01*
X61567002Y-29425673D01*
X61543436Y-29430174D01*
X61532115Y-29435103D01*
X61530222Y-29438555D01*
X61534812Y-29443773D01*
X61550131Y-29448551D01*
X61578507Y-29452907D01*
X61622265Y-29456862D01*
X61683732Y-29460433D01*
X61765234Y-29463640D01*
X61869097Y-29466502D01*
X61997647Y-29469037D01*
X62153210Y-29471264D01*
X62338114Y-29473203D01*
X62554683Y-29474872D01*
X62805244Y-29476290D01*
X63092123Y-29477476D01*
X63417647Y-29478449D01*
X63784142Y-29479228D01*
X64193934Y-29479832D01*
X64649349Y-29480279D01*
X65152713Y-29480589D01*
X65706353Y-29480781D01*
X66312594Y-29480873D01*
X66737222Y-29480888D01*
X67379006Y-29480851D01*
X67966672Y-29480727D01*
X68502547Y-29480496D01*
X68988955Y-29480140D01*
X69428224Y-29479640D01*
X69822679Y-29478978D01*
X70174647Y-29478133D01*
X70486455Y-29477088D01*
X70760427Y-29475823D01*
X70998891Y-29474320D01*
X71204173Y-29472559D01*
X71378599Y-29470522D01*
X71524494Y-29468190D01*
X71644186Y-29465543D01*
X71740001Y-29462564D01*
X71814264Y-29459232D01*
X71869303Y-29455530D01*
X71907442Y-29451437D01*
X71931009Y-29446936D01*
X71942329Y-29442007D01*
X71944222Y-29438555D01*
X71939633Y-29433337D01*
X71924313Y-29428560D01*
X71895937Y-29424203D01*
X71852179Y-29420248D01*
X71790712Y-29416677D01*
X71709210Y-29413470D01*
X71605347Y-29410609D01*
X71476797Y-29408073D01*
X71321234Y-29405846D01*
X71136331Y-29403907D01*
X70919762Y-29402238D01*
X70669200Y-29400820D01*
X70382321Y-29399634D01*
X70056797Y-29398661D01*
X69690302Y-29397882D01*
X69280511Y-29397278D01*
X68825096Y-29396831D01*
X68321731Y-29396521D01*
X67768092Y-29396329D01*
X67161850Y-29396237D01*
X66737222Y-29396222D01*
X66095438Y-29396259D01*
G04 #@! TO.C,D18*
D12*
X86937380Y-43750714D02*
X85937380Y-43750714D01*
X85937380Y-43988809D01*
X85985000Y-44131666D01*
X86080238Y-44226904D01*
X86175476Y-44274523D01*
X86365952Y-44322142D01*
X86508809Y-44322142D01*
X86699285Y-44274523D01*
X86794523Y-44226904D01*
X86889761Y-44131666D01*
X86937380Y-43988809D01*
X86937380Y-43750714D01*
X86937380Y-45274523D02*
X86937380Y-44703095D01*
X86937380Y-44988809D02*
X85937380Y-44988809D01*
X86080238Y-44893571D01*
X86175476Y-44798333D01*
X86223095Y-44703095D01*
X86365952Y-45845952D02*
X86318333Y-45750714D01*
X86270714Y-45703095D01*
X86175476Y-45655476D01*
X86127857Y-45655476D01*
X86032619Y-45703095D01*
X85985000Y-45750714D01*
X85937380Y-45845952D01*
X85937380Y-46036428D01*
X85985000Y-46131666D01*
X86032619Y-46179285D01*
X86127857Y-46226904D01*
X86175476Y-46226904D01*
X86270714Y-46179285D01*
X86318333Y-46131666D01*
X86365952Y-46036428D01*
X86365952Y-45845952D01*
X86413571Y-45750714D01*
X86461190Y-45703095D01*
X86556428Y-45655476D01*
X86746904Y-45655476D01*
X86842142Y-45703095D01*
X86889761Y-45750714D01*
X86937380Y-45845952D01*
X86937380Y-46036428D01*
X86889761Y-46131666D01*
X86842142Y-46179285D01*
X86746904Y-46226904D01*
X86556428Y-46226904D01*
X86461190Y-46179285D01*
X86413571Y-46131666D01*
X86365952Y-46036428D01*
G04 #@! TO.C,SW38*
X30351123Y-52481761D02*
X30208266Y-52529380D01*
X29970171Y-52529380D01*
X29874933Y-52481761D01*
X29827314Y-52434142D01*
X29779695Y-52338904D01*
X29779695Y-52243666D01*
X29827314Y-52148428D01*
X29874933Y-52100809D01*
X29970171Y-52053190D01*
X30160647Y-52005571D01*
X30255885Y-51957952D01*
X30303504Y-51910333D01*
X30351123Y-51815095D01*
X30351123Y-51719857D01*
X30303504Y-51624619D01*
X30255885Y-51577000D01*
X30160647Y-51529380D01*
X29922552Y-51529380D01*
X29779695Y-51577000D01*
X29446361Y-51529380D02*
X29208266Y-52529380D01*
X29017790Y-51815095D01*
X28827314Y-52529380D01*
X28589219Y-51529380D01*
X28303504Y-51529380D02*
X27684457Y-51529380D01*
X28017790Y-51910333D01*
X27874933Y-51910333D01*
X27779695Y-51957952D01*
X27732076Y-52005571D01*
X27684457Y-52100809D01*
X27684457Y-52338904D01*
X27732076Y-52434142D01*
X27779695Y-52481761D01*
X27874933Y-52529380D01*
X28160647Y-52529380D01*
X28255885Y-52481761D01*
X28303504Y-52434142D01*
X27113028Y-51957952D02*
X27208266Y-51910333D01*
X27255885Y-51862714D01*
X27303504Y-51767476D01*
X27303504Y-51719857D01*
X27255885Y-51624619D01*
X27208266Y-51577000D01*
X27113028Y-51529380D01*
X26922552Y-51529380D01*
X26827314Y-51577000D01*
X26779695Y-51624619D01*
X26732076Y-51719857D01*
X26732076Y-51767476D01*
X26779695Y-51862714D01*
X26827314Y-51910333D01*
X26922552Y-51957952D01*
X27113028Y-51957952D01*
X27208266Y-52005571D01*
X27255885Y-52053190D01*
X27303504Y-52148428D01*
X27303504Y-52338904D01*
X27255885Y-52434142D01*
X27208266Y-52481761D01*
X27113028Y-52529380D01*
X26922552Y-52529380D01*
X26827314Y-52481761D01*
X26779695Y-52434142D01*
X26732076Y-52338904D01*
X26732076Y-52148428D01*
X26779695Y-52053190D01*
X26827314Y-52005571D01*
X26922552Y-51957952D01*
G04 #@! TO.C,C6*
X51287142Y-12083333D02*
X51334761Y-12035714D01*
X51382380Y-11892857D01*
X51382380Y-11797619D01*
X51334761Y-11654761D01*
X51239523Y-11559523D01*
X51144285Y-11511904D01*
X50953809Y-11464285D01*
X50810952Y-11464285D01*
X50620476Y-11511904D01*
X50525238Y-11559523D01*
X50430000Y-11654761D01*
X50382380Y-11797619D01*
X50382380Y-11892857D01*
X50430000Y-12035714D01*
X50477619Y-12083333D01*
X50382380Y-12940476D02*
X50382380Y-12750000D01*
X50430000Y-12654761D01*
X50477619Y-12607142D01*
X50620476Y-12511904D01*
X50810952Y-12464285D01*
X51191904Y-12464285D01*
X51287142Y-12511904D01*
X51334761Y-12559523D01*
X51382380Y-12654761D01*
X51382380Y-12845238D01*
X51334761Y-12940476D01*
X51287142Y-12988095D01*
X51191904Y-13035714D01*
X50953809Y-13035714D01*
X50858571Y-12988095D01*
X50810952Y-12940476D01*
X50763333Y-12845238D01*
X50763333Y-12654761D01*
X50810952Y-12559523D01*
X50858571Y-12511904D01*
X50953809Y-12464285D01*
G04 #@! TO.C,R7*
X62416666Y-3852380D02*
X62750000Y-3376190D01*
X62988095Y-3852380D02*
X62988095Y-2852380D01*
X62607142Y-2852380D01*
X62511904Y-2900000D01*
X62464285Y-2947619D01*
X62416666Y-3042857D01*
X62416666Y-3185714D01*
X62464285Y-3280952D01*
X62511904Y-3328571D01*
X62607142Y-3376190D01*
X62988095Y-3376190D01*
X62083333Y-2852380D02*
X61416666Y-2852380D01*
X61845238Y-3852380D01*
G04 #@! TO.C,SW44*
X32759523Y-66704761D02*
X32616666Y-66752380D01*
X32378571Y-66752380D01*
X32283333Y-66704761D01*
X32235714Y-66657142D01*
X32188095Y-66561904D01*
X32188095Y-66466666D01*
X32235714Y-66371428D01*
X32283333Y-66323809D01*
X32378571Y-66276190D01*
X32569047Y-66228571D01*
X32664285Y-66180952D01*
X32711904Y-66133333D01*
X32759523Y-66038095D01*
X32759523Y-65942857D01*
X32711904Y-65847619D01*
X32664285Y-65800000D01*
X32569047Y-65752380D01*
X32330952Y-65752380D01*
X32188095Y-65800000D01*
X31854761Y-65752380D02*
X31616666Y-66752380D01*
X31426190Y-66038095D01*
X31235714Y-66752380D01*
X30997619Y-65752380D01*
X30188095Y-66085714D02*
X30188095Y-66752380D01*
X30426190Y-65704761D02*
X30664285Y-66419047D01*
X30045238Y-66419047D01*
X29235714Y-66085714D02*
X29235714Y-66752380D01*
X29473809Y-65704761D02*
X29711904Y-66419047D01*
X29092857Y-66419047D01*
G04 #@! TO.C,SW43*
X11326523Y-77399161D02*
X11183666Y-77446780D01*
X10945571Y-77446780D01*
X10850333Y-77399161D01*
X10802714Y-77351542D01*
X10755095Y-77256304D01*
X10755095Y-77161066D01*
X10802714Y-77065828D01*
X10850333Y-77018209D01*
X10945571Y-76970590D01*
X11136047Y-76922971D01*
X11231285Y-76875352D01*
X11278904Y-76827733D01*
X11326523Y-76732495D01*
X11326523Y-76637257D01*
X11278904Y-76542019D01*
X11231285Y-76494400D01*
X11136047Y-76446780D01*
X10897952Y-76446780D01*
X10755095Y-76494400D01*
X10421761Y-76446780D02*
X10183666Y-77446780D01*
X9993190Y-76732495D01*
X9802714Y-77446780D01*
X9564619Y-76446780D01*
X8755095Y-76780114D02*
X8755095Y-77446780D01*
X8993190Y-76399161D02*
X9231285Y-77113447D01*
X8612238Y-77113447D01*
X8326523Y-76446780D02*
X7707476Y-76446780D01*
X8040809Y-76827733D01*
X7897952Y-76827733D01*
X7802714Y-76875352D01*
X7755095Y-76922971D01*
X7707476Y-77018209D01*
X7707476Y-77256304D01*
X7755095Y-77351542D01*
X7802714Y-77399161D01*
X7897952Y-77446780D01*
X8183666Y-77446780D01*
X8278904Y-77399161D01*
X8326523Y-77351542D01*
G04 #@! TO.C,SW30*
X101859523Y-25054761D02*
X101716666Y-25102380D01*
X101478571Y-25102380D01*
X101383333Y-25054761D01*
X101335714Y-25007142D01*
X101288095Y-24911904D01*
X101288095Y-24816666D01*
X101335714Y-24721428D01*
X101383333Y-24673809D01*
X101478571Y-24626190D01*
X101669047Y-24578571D01*
X101764285Y-24530952D01*
X101811904Y-24483333D01*
X101859523Y-24388095D01*
X101859523Y-24292857D01*
X101811904Y-24197619D01*
X101764285Y-24150000D01*
X101669047Y-24102380D01*
X101430952Y-24102380D01*
X101288095Y-24150000D01*
X100954761Y-24102380D02*
X100716666Y-25102380D01*
X100526190Y-24388095D01*
X100335714Y-25102380D01*
X100097619Y-24102380D01*
X99811904Y-24102380D02*
X99192857Y-24102380D01*
X99526190Y-24483333D01*
X99383333Y-24483333D01*
X99288095Y-24530952D01*
X99240476Y-24578571D01*
X99192857Y-24673809D01*
X99192857Y-24911904D01*
X99240476Y-25007142D01*
X99288095Y-25054761D01*
X99383333Y-25102380D01*
X99669047Y-25102380D01*
X99764285Y-25054761D01*
X99811904Y-25007142D01*
X98573809Y-24102380D02*
X98478571Y-24102380D01*
X98383333Y-24150000D01*
X98335714Y-24197619D01*
X98288095Y-24292857D01*
X98240476Y-24483333D01*
X98240476Y-24721428D01*
X98288095Y-24911904D01*
X98335714Y-25007142D01*
X98383333Y-25054761D01*
X98478571Y-25102380D01*
X98573809Y-25102380D01*
X98669047Y-25054761D01*
X98716666Y-25007142D01*
X98764285Y-24911904D01*
X98811904Y-24721428D01*
X98811904Y-24483333D01*
X98764285Y-24292857D01*
X98716666Y-24197619D01*
X98669047Y-24150000D01*
X98573809Y-24102380D01*
G04 #@! TO.C,D23*
X57564285Y-74352380D02*
X57564285Y-73352380D01*
X57326190Y-73352380D01*
X57183333Y-73400000D01*
X57088095Y-73495238D01*
X57040476Y-73590476D01*
X56992857Y-73780952D01*
X56992857Y-73923809D01*
X57040476Y-74114285D01*
X57088095Y-74209523D01*
X57183333Y-74304761D01*
X57326190Y-74352380D01*
X57564285Y-74352380D01*
X56611904Y-73447619D02*
X56564285Y-73400000D01*
X56469047Y-73352380D01*
X56230952Y-73352380D01*
X56135714Y-73400000D01*
X56088095Y-73447619D01*
X56040476Y-73542857D01*
X56040476Y-73638095D01*
X56088095Y-73780952D01*
X56659523Y-74352380D01*
X56040476Y-74352380D01*
X55707142Y-73352380D02*
X55088095Y-73352380D01*
X55421428Y-73733333D01*
X55278571Y-73733333D01*
X55183333Y-73780952D01*
X55135714Y-73828571D01*
X55088095Y-73923809D01*
X55088095Y-74161904D01*
X55135714Y-74257142D01*
X55183333Y-74304761D01*
X55278571Y-74352380D01*
X55564285Y-74352380D01*
X55659523Y-74304761D01*
X55707142Y-74257142D01*
G04 #@! TO.C,U2*
D19*
X40132333Y-15903166D02*
X40132333Y-16622833D01*
X40090000Y-16707500D01*
X40047666Y-16749833D01*
X39963000Y-16792166D01*
X39793666Y-16792166D01*
X39709000Y-16749833D01*
X39666666Y-16707500D01*
X39624333Y-16622833D01*
X39624333Y-15903166D01*
X39243333Y-15987833D02*
X39201000Y-15945500D01*
X39116333Y-15903166D01*
X38904666Y-15903166D01*
X38820000Y-15945500D01*
X38777666Y-15987833D01*
X38735333Y-16072500D01*
X38735333Y-16157166D01*
X38777666Y-16284166D01*
X39285666Y-16792166D01*
X38735333Y-16792166D01*
G04 #@! TO.C,D28*
D12*
X56351785Y-14122380D02*
X56351785Y-13122380D01*
X56113690Y-13122380D01*
X55970833Y-13170000D01*
X55875595Y-13265238D01*
X55827976Y-13360476D01*
X55780357Y-13550952D01*
X55780357Y-13693809D01*
X55827976Y-13884285D01*
X55875595Y-13979523D01*
X55970833Y-14074761D01*
X56113690Y-14122380D01*
X56351785Y-14122380D01*
X55399404Y-13217619D02*
X55351785Y-13170000D01*
X55256547Y-13122380D01*
X55018452Y-13122380D01*
X54923214Y-13170000D01*
X54875595Y-13217619D01*
X54827976Y-13312857D01*
X54827976Y-13408095D01*
X54875595Y-13550952D01*
X55447023Y-14122380D01*
X54827976Y-14122380D01*
X54256547Y-13550952D02*
X54351785Y-13503333D01*
X54399404Y-13455714D01*
X54447023Y-13360476D01*
X54447023Y-13312857D01*
X54399404Y-13217619D01*
X54351785Y-13170000D01*
X54256547Y-13122380D01*
X54066071Y-13122380D01*
X53970833Y-13170000D01*
X53923214Y-13217619D01*
X53875595Y-13312857D01*
X53875595Y-13360476D01*
X53923214Y-13455714D01*
X53970833Y-13503333D01*
X54066071Y-13550952D01*
X54256547Y-13550952D01*
X54351785Y-13598571D01*
X54399404Y-13646190D01*
X54447023Y-13741428D01*
X54447023Y-13931904D01*
X54399404Y-14027142D01*
X54351785Y-14074761D01*
X54256547Y-14122380D01*
X54066071Y-14122380D01*
X53970833Y-14074761D01*
X53923214Y-14027142D01*
X53875595Y-13931904D01*
X53875595Y-13741428D01*
X53923214Y-13646190D01*
X53970833Y-13598571D01*
X54066071Y-13550952D01*
G04 #@! TO.C,C18*
X77080357Y-21827142D02*
X77127976Y-21874761D01*
X77270833Y-21922380D01*
X77366071Y-21922380D01*
X77508928Y-21874761D01*
X77604166Y-21779523D01*
X77651785Y-21684285D01*
X77699404Y-21493809D01*
X77699404Y-21350952D01*
X77651785Y-21160476D01*
X77604166Y-21065238D01*
X77508928Y-20970000D01*
X77366071Y-20922380D01*
X77270833Y-20922380D01*
X77127976Y-20970000D01*
X77080357Y-21017619D01*
X76127976Y-21922380D02*
X76699404Y-21922380D01*
X76413690Y-21922380D02*
X76413690Y-20922380D01*
X76508928Y-21065238D01*
X76604166Y-21160476D01*
X76699404Y-21208095D01*
X75556547Y-21350952D02*
X75651785Y-21303333D01*
X75699404Y-21255714D01*
X75747023Y-21160476D01*
X75747023Y-21112857D01*
X75699404Y-21017619D01*
X75651785Y-20970000D01*
X75556547Y-20922380D01*
X75366071Y-20922380D01*
X75270833Y-20970000D01*
X75223214Y-21017619D01*
X75175595Y-21112857D01*
X75175595Y-21160476D01*
X75223214Y-21255714D01*
X75270833Y-21303333D01*
X75366071Y-21350952D01*
X75556547Y-21350952D01*
X75651785Y-21398571D01*
X75699404Y-21446190D01*
X75747023Y-21541428D01*
X75747023Y-21731904D01*
X75699404Y-21827142D01*
X75651785Y-21874761D01*
X75556547Y-21922380D01*
X75366071Y-21922380D01*
X75270833Y-21874761D01*
X75223214Y-21827142D01*
X75175595Y-21731904D01*
X75175595Y-21541428D01*
X75223214Y-21446190D01*
X75270833Y-21398571D01*
X75366071Y-21350952D01*
G04 #@! TO.C,P6*
X29459523Y-7652380D02*
X29221428Y-8652380D01*
X29030952Y-7938095D01*
X28840476Y-8652380D01*
X28602380Y-7652380D01*
X28269047Y-8604761D02*
X28126190Y-8652380D01*
X27888095Y-8652380D01*
X27792857Y-8604761D01*
X27745238Y-8557142D01*
X27697619Y-8461904D01*
X27697619Y-8366666D01*
X27745238Y-8271428D01*
X27792857Y-8223809D01*
X27888095Y-8176190D01*
X28078571Y-8128571D01*
X28173809Y-8080952D01*
X28221428Y-8033333D01*
X28269047Y-7938095D01*
X28269047Y-7842857D01*
X28221428Y-7747619D01*
X28173809Y-7700000D01*
X28078571Y-7652380D01*
X27840476Y-7652380D01*
X27697619Y-7700000D01*
X27316666Y-7747619D02*
X27269047Y-7700000D01*
X27173809Y-7652380D01*
X26935714Y-7652380D01*
X26840476Y-7700000D01*
X26792857Y-7747619D01*
X26745238Y-7842857D01*
X26745238Y-7938095D01*
X26792857Y-8080952D01*
X27364285Y-8652380D01*
X26745238Y-8652380D01*
X26173809Y-8080952D02*
X26269047Y-8033333D01*
X26316666Y-7985714D01*
X26364285Y-7890476D01*
X26364285Y-7842857D01*
X26316666Y-7747619D01*
X26269047Y-7700000D01*
X26173809Y-7652380D01*
X25983333Y-7652380D01*
X25888095Y-7700000D01*
X25840476Y-7747619D01*
X25792857Y-7842857D01*
X25792857Y-7890476D01*
X25840476Y-7985714D01*
X25888095Y-8033333D01*
X25983333Y-8080952D01*
X26173809Y-8080952D01*
X26269047Y-8128571D01*
X26316666Y-8176190D01*
X26364285Y-8271428D01*
X26364285Y-8461904D01*
X26316666Y-8557142D01*
X26269047Y-8604761D01*
X26173809Y-8652380D01*
X25983333Y-8652380D01*
X25888095Y-8604761D01*
X25840476Y-8557142D01*
X25792857Y-8461904D01*
X25792857Y-8271428D01*
X25840476Y-8176190D01*
X25888095Y-8128571D01*
X25983333Y-8080952D01*
X24840476Y-8652380D02*
X25411904Y-8652380D01*
X25126190Y-8652380D02*
X25126190Y-7652380D01*
X25221428Y-7795238D01*
X25316666Y-7890476D01*
X25411904Y-7938095D01*
X24459523Y-7747619D02*
X24411904Y-7700000D01*
X24316666Y-7652380D01*
X24078571Y-7652380D01*
X23983333Y-7700000D01*
X23935714Y-7747619D01*
X23888095Y-7842857D01*
X23888095Y-7938095D01*
X23935714Y-8080952D01*
X24507142Y-8652380D01*
X23888095Y-8652380D01*
G04 #@! TO.C,SW40*
X72559523Y-52404761D02*
X72416666Y-52452380D01*
X72178571Y-52452380D01*
X72083333Y-52404761D01*
X72035714Y-52357142D01*
X71988095Y-52261904D01*
X71988095Y-52166666D01*
X72035714Y-52071428D01*
X72083333Y-52023809D01*
X72178571Y-51976190D01*
X72369047Y-51928571D01*
X72464285Y-51880952D01*
X72511904Y-51833333D01*
X72559523Y-51738095D01*
X72559523Y-51642857D01*
X72511904Y-51547619D01*
X72464285Y-51500000D01*
X72369047Y-51452380D01*
X72130952Y-51452380D01*
X71988095Y-51500000D01*
X71654761Y-51452380D02*
X71416666Y-52452380D01*
X71226190Y-51738095D01*
X71035714Y-52452380D01*
X70797619Y-51452380D01*
X69988095Y-51785714D02*
X69988095Y-52452380D01*
X70226190Y-51404761D02*
X70464285Y-52119047D01*
X69845238Y-52119047D01*
X69273809Y-51452380D02*
X69178571Y-51452380D01*
X69083333Y-51500000D01*
X69035714Y-51547619D01*
X68988095Y-51642857D01*
X68940476Y-51833333D01*
X68940476Y-52071428D01*
X68988095Y-52261904D01*
X69035714Y-52357142D01*
X69083333Y-52404761D01*
X69178571Y-52452380D01*
X69273809Y-52452380D01*
X69369047Y-52404761D01*
X69416666Y-52357142D01*
X69464285Y-52261904D01*
X69511904Y-52071428D01*
X69511904Y-51833333D01*
X69464285Y-51642857D01*
X69416666Y-51547619D01*
X69369047Y-51500000D01*
X69273809Y-51452380D01*
G04 #@! TO.C,SW28*
X72559523Y-25004761D02*
X72416666Y-25052380D01*
X72178571Y-25052380D01*
X72083333Y-25004761D01*
X72035714Y-24957142D01*
X71988095Y-24861904D01*
X71988095Y-24766666D01*
X72035714Y-24671428D01*
X72083333Y-24623809D01*
X72178571Y-24576190D01*
X72369047Y-24528571D01*
X72464285Y-24480952D01*
X72511904Y-24433333D01*
X72559523Y-24338095D01*
X72559523Y-24242857D01*
X72511904Y-24147619D01*
X72464285Y-24100000D01*
X72369047Y-24052380D01*
X72130952Y-24052380D01*
X71988095Y-24100000D01*
X71654761Y-24052380D02*
X71416666Y-25052380D01*
X71226190Y-24338095D01*
X71035714Y-25052380D01*
X70797619Y-24052380D01*
X70464285Y-24147619D02*
X70416666Y-24100000D01*
X70321428Y-24052380D01*
X70083333Y-24052380D01*
X69988095Y-24100000D01*
X69940476Y-24147619D01*
X69892857Y-24242857D01*
X69892857Y-24338095D01*
X69940476Y-24480952D01*
X70511904Y-25052380D01*
X69892857Y-25052380D01*
X69321428Y-24480952D02*
X69416666Y-24433333D01*
X69464285Y-24385714D01*
X69511904Y-24290476D01*
X69511904Y-24242857D01*
X69464285Y-24147619D01*
X69416666Y-24100000D01*
X69321428Y-24052380D01*
X69130952Y-24052380D01*
X69035714Y-24100000D01*
X68988095Y-24147619D01*
X68940476Y-24242857D01*
X68940476Y-24290476D01*
X68988095Y-24385714D01*
X69035714Y-24433333D01*
X69130952Y-24480952D01*
X69321428Y-24480952D01*
X69416666Y-24528571D01*
X69464285Y-24576190D01*
X69511904Y-24671428D01*
X69511904Y-24861904D01*
X69464285Y-24957142D01*
X69416666Y-25004761D01*
X69321428Y-25052380D01*
X69130952Y-25052380D01*
X69035714Y-25004761D01*
X68988095Y-24957142D01*
X68940476Y-24861904D01*
X68940476Y-24671428D01*
X68988095Y-24576190D01*
X69035714Y-24528571D01*
X69130952Y-24480952D01*
G04 #@! TO.C,D21*
X86683380Y-63054714D02*
X85683380Y-63054714D01*
X85683380Y-63292809D01*
X85731000Y-63435666D01*
X85826238Y-63530904D01*
X85921476Y-63578523D01*
X86111952Y-63626142D01*
X86254809Y-63626142D01*
X86445285Y-63578523D01*
X86540523Y-63530904D01*
X86635761Y-63435666D01*
X86683380Y-63292809D01*
X86683380Y-63054714D01*
X85778619Y-64007095D02*
X85731000Y-64054714D01*
X85683380Y-64149952D01*
X85683380Y-64388047D01*
X85731000Y-64483285D01*
X85778619Y-64530904D01*
X85873857Y-64578523D01*
X85969095Y-64578523D01*
X86111952Y-64530904D01*
X86683380Y-63959476D01*
X86683380Y-64578523D01*
X86683380Y-65530904D02*
X86683380Y-64959476D01*
X86683380Y-65245190D02*
X85683380Y-65245190D01*
X85826238Y-65149952D01*
X85921476Y-65054714D01*
X85969095Y-64959476D01*
G04 #@! TO.C,SW29*
X85859523Y-25004761D02*
X85716666Y-25052380D01*
X85478571Y-25052380D01*
X85383333Y-25004761D01*
X85335714Y-24957142D01*
X85288095Y-24861904D01*
X85288095Y-24766666D01*
X85335714Y-24671428D01*
X85383333Y-24623809D01*
X85478571Y-24576190D01*
X85669047Y-24528571D01*
X85764285Y-24480952D01*
X85811904Y-24433333D01*
X85859523Y-24338095D01*
X85859523Y-24242857D01*
X85811904Y-24147619D01*
X85764285Y-24100000D01*
X85669047Y-24052380D01*
X85430952Y-24052380D01*
X85288095Y-24100000D01*
X84954761Y-24052380D02*
X84716666Y-25052380D01*
X84526190Y-24338095D01*
X84335714Y-25052380D01*
X84097619Y-24052380D01*
X83764285Y-24147619D02*
X83716666Y-24100000D01*
X83621428Y-24052380D01*
X83383333Y-24052380D01*
X83288095Y-24100000D01*
X83240476Y-24147619D01*
X83192857Y-24242857D01*
X83192857Y-24338095D01*
X83240476Y-24480952D01*
X83811904Y-25052380D01*
X83192857Y-25052380D01*
X82716666Y-25052380D02*
X82526190Y-25052380D01*
X82430952Y-25004761D01*
X82383333Y-24957142D01*
X82288095Y-24814285D01*
X82240476Y-24623809D01*
X82240476Y-24242857D01*
X82288095Y-24147619D01*
X82335714Y-24100000D01*
X82430952Y-24052380D01*
X82621428Y-24052380D01*
X82716666Y-24100000D01*
X82764285Y-24147619D01*
X82811904Y-24242857D01*
X82811904Y-24480952D01*
X82764285Y-24576190D01*
X82716666Y-24623809D01*
X82621428Y-24671428D01*
X82430952Y-24671428D01*
X82335714Y-24623809D01*
X82288095Y-24576190D01*
X82240476Y-24480952D01*
G04 #@! TO.C,SW48*
X111659523Y-66704761D02*
X111516666Y-66752380D01*
X111278571Y-66752380D01*
X111183333Y-66704761D01*
X111135714Y-66657142D01*
X111088095Y-66561904D01*
X111088095Y-66466666D01*
X111135714Y-66371428D01*
X111183333Y-66323809D01*
X111278571Y-66276190D01*
X111469047Y-66228571D01*
X111564285Y-66180952D01*
X111611904Y-66133333D01*
X111659523Y-66038095D01*
X111659523Y-65942857D01*
X111611904Y-65847619D01*
X111564285Y-65800000D01*
X111469047Y-65752380D01*
X111230952Y-65752380D01*
X111088095Y-65800000D01*
X110754761Y-65752380D02*
X110516666Y-66752380D01*
X110326190Y-66038095D01*
X110135714Y-66752380D01*
X109897619Y-65752380D01*
X109088095Y-66085714D02*
X109088095Y-66752380D01*
X109326190Y-65704761D02*
X109564285Y-66419047D01*
X108945238Y-66419047D01*
X108421428Y-66180952D02*
X108516666Y-66133333D01*
X108564285Y-66085714D01*
X108611904Y-65990476D01*
X108611904Y-65942857D01*
X108564285Y-65847619D01*
X108516666Y-65800000D01*
X108421428Y-65752380D01*
X108230952Y-65752380D01*
X108135714Y-65800000D01*
X108088095Y-65847619D01*
X108040476Y-65942857D01*
X108040476Y-65990476D01*
X108088095Y-66085714D01*
X108135714Y-66133333D01*
X108230952Y-66180952D01*
X108421428Y-66180952D01*
X108516666Y-66228571D01*
X108564285Y-66276190D01*
X108611904Y-66371428D01*
X108611904Y-66561904D01*
X108564285Y-66657142D01*
X108516666Y-66704761D01*
X108421428Y-66752380D01*
X108230952Y-66752380D01*
X108135714Y-66704761D01*
X108088095Y-66657142D01*
X108040476Y-66561904D01*
X108040476Y-66371428D01*
X108088095Y-66276190D01*
X108135714Y-66228571D01*
X108230952Y-66180952D01*
G04 #@! TO.C,C7*
X51307142Y-8833333D02*
X51354761Y-8785714D01*
X51402380Y-8642857D01*
X51402380Y-8547619D01*
X51354761Y-8404761D01*
X51259523Y-8309523D01*
X51164285Y-8261904D01*
X50973809Y-8214285D01*
X50830952Y-8214285D01*
X50640476Y-8261904D01*
X50545238Y-8309523D01*
X50450000Y-8404761D01*
X50402380Y-8547619D01*
X50402380Y-8642857D01*
X50450000Y-8785714D01*
X50497619Y-8833333D01*
X50402380Y-9166666D02*
X50402380Y-9833333D01*
X51402380Y-9404761D01*
G04 #@! TO.C,C19*
X95792857Y-50657142D02*
X95840476Y-50704761D01*
X95983333Y-50752380D01*
X96078571Y-50752380D01*
X96221428Y-50704761D01*
X96316666Y-50609523D01*
X96364285Y-50514285D01*
X96411904Y-50323809D01*
X96411904Y-50180952D01*
X96364285Y-49990476D01*
X96316666Y-49895238D01*
X96221428Y-49800000D01*
X96078571Y-49752380D01*
X95983333Y-49752380D01*
X95840476Y-49800000D01*
X95792857Y-49847619D01*
X94840476Y-50752380D02*
X95411904Y-50752380D01*
X95126190Y-50752380D02*
X95126190Y-49752380D01*
X95221428Y-49895238D01*
X95316666Y-49990476D01*
X95411904Y-50038095D01*
X94364285Y-50752380D02*
X94173809Y-50752380D01*
X94078571Y-50704761D01*
X94030952Y-50657142D01*
X93935714Y-50514285D01*
X93888095Y-50323809D01*
X93888095Y-49942857D01*
X93935714Y-49847619D01*
X93983333Y-49800000D01*
X94078571Y-49752380D01*
X94269047Y-49752380D01*
X94364285Y-49800000D01*
X94411904Y-49847619D01*
X94459523Y-49942857D01*
X94459523Y-50180952D01*
X94411904Y-50276190D01*
X94364285Y-50323809D01*
X94269047Y-50371428D01*
X94078571Y-50371428D01*
X93983333Y-50323809D01*
X93935714Y-50276190D01*
X93888095Y-50180952D01*
G04 #@! TO.C,SW43*
X6359523Y-66504761D02*
X6216666Y-66552380D01*
X5978571Y-66552380D01*
X5883333Y-66504761D01*
X5835714Y-66457142D01*
X5788095Y-66361904D01*
X5788095Y-66266666D01*
X5835714Y-66171428D01*
X5883333Y-66123809D01*
X5978571Y-66076190D01*
X6169047Y-66028571D01*
X6264285Y-65980952D01*
X6311904Y-65933333D01*
X6359523Y-65838095D01*
X6359523Y-65742857D01*
X6311904Y-65647619D01*
X6264285Y-65600000D01*
X6169047Y-65552380D01*
X5930952Y-65552380D01*
X5788095Y-65600000D01*
X5454761Y-65552380D02*
X5216666Y-66552380D01*
X5026190Y-65838095D01*
X4835714Y-66552380D01*
X4597619Y-65552380D01*
X3788095Y-65885714D02*
X3788095Y-66552380D01*
X4026190Y-65504761D02*
X4264285Y-66219047D01*
X3645238Y-66219047D01*
X3359523Y-65552380D02*
X2740476Y-65552380D01*
X3073809Y-65933333D01*
X2930952Y-65933333D01*
X2835714Y-65980952D01*
X2788095Y-66028571D01*
X2740476Y-66123809D01*
X2740476Y-66361904D01*
X2788095Y-66457142D01*
X2835714Y-66504761D01*
X2930952Y-66552380D01*
X3216666Y-66552380D01*
X3311904Y-66504761D01*
X3359523Y-66457142D01*
G04 #@! TO.C,SW35*
X82409523Y-44154761D02*
X82266666Y-44202380D01*
X82028571Y-44202380D01*
X81933333Y-44154761D01*
X81885714Y-44107142D01*
X81838095Y-44011904D01*
X81838095Y-43916666D01*
X81885714Y-43821428D01*
X81933333Y-43773809D01*
X82028571Y-43726190D01*
X82219047Y-43678571D01*
X82314285Y-43630952D01*
X82361904Y-43583333D01*
X82409523Y-43488095D01*
X82409523Y-43392857D01*
X82361904Y-43297619D01*
X82314285Y-43250000D01*
X82219047Y-43202380D01*
X81980952Y-43202380D01*
X81838095Y-43250000D01*
X81504761Y-43202380D02*
X81266666Y-44202380D01*
X81076190Y-43488095D01*
X80885714Y-44202380D01*
X80647619Y-43202380D01*
X80361904Y-43202380D02*
X79742857Y-43202380D01*
X80076190Y-43583333D01*
X79933333Y-43583333D01*
X79838095Y-43630952D01*
X79790476Y-43678571D01*
X79742857Y-43773809D01*
X79742857Y-44011904D01*
X79790476Y-44107142D01*
X79838095Y-44154761D01*
X79933333Y-44202380D01*
X80219047Y-44202380D01*
X80314285Y-44154761D01*
X80361904Y-44107142D01*
X78838095Y-43202380D02*
X79314285Y-43202380D01*
X79361904Y-43678571D01*
X79314285Y-43630952D01*
X79219047Y-43583333D01*
X78980952Y-43583333D01*
X78885714Y-43630952D01*
X78838095Y-43678571D01*
X78790476Y-43773809D01*
X78790476Y-44011904D01*
X78838095Y-44107142D01*
X78885714Y-44154761D01*
X78980952Y-44202380D01*
X79219047Y-44202380D01*
X79314285Y-44154761D01*
X79361904Y-44107142D01*
G04 #@! TO.C,SW27*
X52509523Y-25054761D02*
X52366666Y-25102380D01*
X52128571Y-25102380D01*
X52033333Y-25054761D01*
X51985714Y-25007142D01*
X51938095Y-24911904D01*
X51938095Y-24816666D01*
X51985714Y-24721428D01*
X52033333Y-24673809D01*
X52128571Y-24626190D01*
X52319047Y-24578571D01*
X52414285Y-24530952D01*
X52461904Y-24483333D01*
X52509523Y-24388095D01*
X52509523Y-24292857D01*
X52461904Y-24197619D01*
X52414285Y-24150000D01*
X52319047Y-24102380D01*
X52080952Y-24102380D01*
X51938095Y-24150000D01*
X51604761Y-24102380D02*
X51366666Y-25102380D01*
X51176190Y-24388095D01*
X50985714Y-25102380D01*
X50747619Y-24102380D01*
X50414285Y-24197619D02*
X50366666Y-24150000D01*
X50271428Y-24102380D01*
X50033333Y-24102380D01*
X49938095Y-24150000D01*
X49890476Y-24197619D01*
X49842857Y-24292857D01*
X49842857Y-24388095D01*
X49890476Y-24530952D01*
X50461904Y-25102380D01*
X49842857Y-25102380D01*
X49509523Y-24102380D02*
X48842857Y-24102380D01*
X49271428Y-25102380D01*
G04 #@! TO.C,D35*
X44314285Y-30052380D02*
X44314285Y-29052380D01*
X44076190Y-29052380D01*
X43933333Y-29100000D01*
X43838095Y-29195238D01*
X43790476Y-29290476D01*
X43742857Y-29480952D01*
X43742857Y-29623809D01*
X43790476Y-29814285D01*
X43838095Y-29909523D01*
X43933333Y-30004761D01*
X44076190Y-30052380D01*
X44314285Y-30052380D01*
X43409523Y-29052380D02*
X42790476Y-29052380D01*
X43123809Y-29433333D01*
X42980952Y-29433333D01*
X42885714Y-29480952D01*
X42838095Y-29528571D01*
X42790476Y-29623809D01*
X42790476Y-29861904D01*
X42838095Y-29957142D01*
X42885714Y-30004761D01*
X42980952Y-30052380D01*
X43266666Y-30052380D01*
X43361904Y-30004761D01*
X43409523Y-29957142D01*
X41885714Y-29052380D02*
X42361904Y-29052380D01*
X42409523Y-29528571D01*
X42361904Y-29480952D01*
X42266666Y-29433333D01*
X42028571Y-29433333D01*
X41933333Y-29480952D01*
X41885714Y-29528571D01*
X41838095Y-29623809D01*
X41838095Y-29861904D01*
X41885714Y-29957142D01*
X41933333Y-30004761D01*
X42028571Y-30052380D01*
X42266666Y-30052380D01*
X42361904Y-30004761D01*
X42409523Y-29957142D01*
X41814285Y-26252380D02*
X42385714Y-26252380D01*
X42100000Y-26252380D02*
X42100000Y-25252380D01*
X42195238Y-25395238D01*
X42290476Y-25490476D01*
X42385714Y-25538095D01*
G04 #@! TO.C,D22*
X38637285Y-79453380D02*
X38637285Y-78453380D01*
X38399190Y-78453380D01*
X38256333Y-78501000D01*
X38161095Y-78596238D01*
X38113476Y-78691476D01*
X38065857Y-78881952D01*
X38065857Y-79024809D01*
X38113476Y-79215285D01*
X38161095Y-79310523D01*
X38256333Y-79405761D01*
X38399190Y-79453380D01*
X38637285Y-79453380D01*
X37684904Y-78548619D02*
X37637285Y-78501000D01*
X37542047Y-78453380D01*
X37303952Y-78453380D01*
X37208714Y-78501000D01*
X37161095Y-78548619D01*
X37113476Y-78643857D01*
X37113476Y-78739095D01*
X37161095Y-78881952D01*
X37732523Y-79453380D01*
X37113476Y-79453380D01*
X36732523Y-78548619D02*
X36684904Y-78501000D01*
X36589666Y-78453380D01*
X36351571Y-78453380D01*
X36256333Y-78501000D01*
X36208714Y-78548619D01*
X36161095Y-78643857D01*
X36161095Y-78739095D01*
X36208714Y-78881952D01*
X36780142Y-79453380D01*
X36161095Y-79453380D01*
G04 #@! TO.C,SW39*
X45859523Y-52404761D02*
X45716666Y-52452380D01*
X45478571Y-52452380D01*
X45383333Y-52404761D01*
X45335714Y-52357142D01*
X45288095Y-52261904D01*
X45288095Y-52166666D01*
X45335714Y-52071428D01*
X45383333Y-52023809D01*
X45478571Y-51976190D01*
X45669047Y-51928571D01*
X45764285Y-51880952D01*
X45811904Y-51833333D01*
X45859523Y-51738095D01*
X45859523Y-51642857D01*
X45811904Y-51547619D01*
X45764285Y-51500000D01*
X45669047Y-51452380D01*
X45430952Y-51452380D01*
X45288095Y-51500000D01*
X44954761Y-51452380D02*
X44716666Y-52452380D01*
X44526190Y-51738095D01*
X44335714Y-52452380D01*
X44097619Y-51452380D01*
X43811904Y-51452380D02*
X43192857Y-51452380D01*
X43526190Y-51833333D01*
X43383333Y-51833333D01*
X43288095Y-51880952D01*
X43240476Y-51928571D01*
X43192857Y-52023809D01*
X43192857Y-52261904D01*
X43240476Y-52357142D01*
X43288095Y-52404761D01*
X43383333Y-52452380D01*
X43669047Y-52452380D01*
X43764285Y-52404761D01*
X43811904Y-52357142D01*
X42716666Y-52452380D02*
X42526190Y-52452380D01*
X42430952Y-52404761D01*
X42383333Y-52357142D01*
X42288095Y-52214285D01*
X42240476Y-52023809D01*
X42240476Y-51642857D01*
X42288095Y-51547619D01*
X42335714Y-51500000D01*
X42430952Y-51452380D01*
X42621428Y-51452380D01*
X42716666Y-51500000D01*
X42764285Y-51547619D01*
X42811904Y-51642857D01*
X42811904Y-51880952D01*
X42764285Y-51976190D01*
X42716666Y-52023809D01*
X42621428Y-52071428D01*
X42430952Y-52071428D01*
X42335714Y-52023809D01*
X42288095Y-51976190D01*
X42240476Y-51880952D01*
G04 #@! TO.C,D26*
X84602380Y-11635714D02*
X83602380Y-11635714D01*
X83602380Y-11873809D01*
X83650000Y-12016666D01*
X83745238Y-12111904D01*
X83840476Y-12159523D01*
X84030952Y-12207142D01*
X84173809Y-12207142D01*
X84364285Y-12159523D01*
X84459523Y-12111904D01*
X84554761Y-12016666D01*
X84602380Y-11873809D01*
X84602380Y-11635714D01*
X83697619Y-12588095D02*
X83650000Y-12635714D01*
X83602380Y-12730952D01*
X83602380Y-12969047D01*
X83650000Y-13064285D01*
X83697619Y-13111904D01*
X83792857Y-13159523D01*
X83888095Y-13159523D01*
X84030952Y-13111904D01*
X84602380Y-12540476D01*
X84602380Y-13159523D01*
X83602380Y-14016666D02*
X83602380Y-13826190D01*
X83650000Y-13730952D01*
X83697619Y-13683333D01*
X83840476Y-13588095D01*
X84030952Y-13540476D01*
X84411904Y-13540476D01*
X84507142Y-13588095D01*
X84554761Y-13635714D01*
X84602380Y-13730952D01*
X84602380Y-13921428D01*
X84554761Y-14016666D01*
X84507142Y-14064285D01*
X84411904Y-14111904D01*
X84173809Y-14111904D01*
X84078571Y-14064285D01*
X84030952Y-14016666D01*
X83983333Y-13921428D01*
X83983333Y-13730952D01*
X84030952Y-13635714D01*
X84078571Y-13588095D01*
X84173809Y-13540476D01*
G04 #@! TO.C,SW33*
X49409523Y-44104761D02*
X49266666Y-44152380D01*
X49028571Y-44152380D01*
X48933333Y-44104761D01*
X48885714Y-44057142D01*
X48838095Y-43961904D01*
X48838095Y-43866666D01*
X48885714Y-43771428D01*
X48933333Y-43723809D01*
X49028571Y-43676190D01*
X49219047Y-43628571D01*
X49314285Y-43580952D01*
X49361904Y-43533333D01*
X49409523Y-43438095D01*
X49409523Y-43342857D01*
X49361904Y-43247619D01*
X49314285Y-43200000D01*
X49219047Y-43152380D01*
X48980952Y-43152380D01*
X48838095Y-43200000D01*
X48504761Y-43152380D02*
X48266666Y-44152380D01*
X48076190Y-43438095D01*
X47885714Y-44152380D01*
X47647619Y-43152380D01*
X47361904Y-43152380D02*
X46742857Y-43152380D01*
X47076190Y-43533333D01*
X46933333Y-43533333D01*
X46838095Y-43580952D01*
X46790476Y-43628571D01*
X46742857Y-43723809D01*
X46742857Y-43961904D01*
X46790476Y-44057142D01*
X46838095Y-44104761D01*
X46933333Y-44152380D01*
X47219047Y-44152380D01*
X47314285Y-44104761D01*
X47361904Y-44057142D01*
X46409523Y-43152380D02*
X45790476Y-43152380D01*
X46123809Y-43533333D01*
X45980952Y-43533333D01*
X45885714Y-43580952D01*
X45838095Y-43628571D01*
X45790476Y-43723809D01*
X45790476Y-43961904D01*
X45838095Y-44057142D01*
X45885714Y-44104761D01*
X45980952Y-44152380D01*
X46266666Y-44152380D01*
X46361904Y-44104761D01*
X46409523Y-44057142D01*
G04 #@! TO.C,C17*
X38592857Y-69757142D02*
X38640476Y-69804761D01*
X38783333Y-69852380D01*
X38878571Y-69852380D01*
X39021428Y-69804761D01*
X39116666Y-69709523D01*
X39164285Y-69614285D01*
X39211904Y-69423809D01*
X39211904Y-69280952D01*
X39164285Y-69090476D01*
X39116666Y-68995238D01*
X39021428Y-68900000D01*
X38878571Y-68852380D01*
X38783333Y-68852380D01*
X38640476Y-68900000D01*
X38592857Y-68947619D01*
X37640476Y-69852380D02*
X38211904Y-69852380D01*
X37926190Y-69852380D02*
X37926190Y-68852380D01*
X38021428Y-68995238D01*
X38116666Y-69090476D01*
X38211904Y-69138095D01*
X37307142Y-68852380D02*
X36640476Y-68852380D01*
X37069047Y-69852380D01*
G04 #@! TO.C,SW46*
X68309523Y-66654761D02*
X68166666Y-66702380D01*
X67928571Y-66702380D01*
X67833333Y-66654761D01*
X67785714Y-66607142D01*
X67738095Y-66511904D01*
X67738095Y-66416666D01*
X67785714Y-66321428D01*
X67833333Y-66273809D01*
X67928571Y-66226190D01*
X68119047Y-66178571D01*
X68214285Y-66130952D01*
X68261904Y-66083333D01*
X68309523Y-65988095D01*
X68309523Y-65892857D01*
X68261904Y-65797619D01*
X68214285Y-65750000D01*
X68119047Y-65702380D01*
X67880952Y-65702380D01*
X67738095Y-65750000D01*
X67404761Y-65702380D02*
X67166666Y-66702380D01*
X66976190Y-65988095D01*
X66785714Y-66702380D01*
X66547619Y-65702380D01*
X65738095Y-66035714D02*
X65738095Y-66702380D01*
X65976190Y-65654761D02*
X66214285Y-66369047D01*
X65595238Y-66369047D01*
X64785714Y-65702380D02*
X64976190Y-65702380D01*
X65071428Y-65750000D01*
X65119047Y-65797619D01*
X65214285Y-65940476D01*
X65261904Y-66130952D01*
X65261904Y-66511904D01*
X65214285Y-66607142D01*
X65166666Y-66654761D01*
X65071428Y-66702380D01*
X64880952Y-66702380D01*
X64785714Y-66654761D01*
X64738095Y-66607142D01*
X64690476Y-66511904D01*
X64690476Y-66273809D01*
X64738095Y-66178571D01*
X64785714Y-66130952D01*
X64880952Y-66083333D01*
X65071428Y-66083333D01*
X65166666Y-66130952D01*
X65214285Y-66178571D01*
X65261904Y-66273809D01*
G04 #@! TO.C,C16*
X20042857Y-50757142D02*
X20090476Y-50804761D01*
X20233333Y-50852380D01*
X20328571Y-50852380D01*
X20471428Y-50804761D01*
X20566666Y-50709523D01*
X20614285Y-50614285D01*
X20661904Y-50423809D01*
X20661904Y-50280952D01*
X20614285Y-50090476D01*
X20566666Y-49995238D01*
X20471428Y-49900000D01*
X20328571Y-49852380D01*
X20233333Y-49852380D01*
X20090476Y-49900000D01*
X20042857Y-49947619D01*
X19090476Y-50852380D02*
X19661904Y-50852380D01*
X19376190Y-50852380D02*
X19376190Y-49852380D01*
X19471428Y-49995238D01*
X19566666Y-50090476D01*
X19661904Y-50138095D01*
X18233333Y-49852380D02*
X18423809Y-49852380D01*
X18519047Y-49900000D01*
X18566666Y-49947619D01*
X18661904Y-50090476D01*
X18709523Y-50280952D01*
X18709523Y-50661904D01*
X18661904Y-50757142D01*
X18614285Y-50804761D01*
X18519047Y-50852380D01*
X18328571Y-50852380D01*
X18233333Y-50804761D01*
X18185714Y-50757142D01*
X18138095Y-50661904D01*
X18138095Y-50423809D01*
X18185714Y-50328571D01*
X18233333Y-50280952D01*
X18328571Y-50233333D01*
X18519047Y-50233333D01*
X18614285Y-50280952D01*
X18661904Y-50328571D01*
X18709523Y-50423809D01*
G04 #@! TO.C,D24*
X93160380Y-74992714D02*
X92160380Y-74992714D01*
X92160380Y-75230809D01*
X92208000Y-75373666D01*
X92303238Y-75468904D01*
X92398476Y-75516523D01*
X92588952Y-75564142D01*
X92731809Y-75564142D01*
X92922285Y-75516523D01*
X93017523Y-75468904D01*
X93112761Y-75373666D01*
X93160380Y-75230809D01*
X93160380Y-74992714D01*
X92255619Y-75945095D02*
X92208000Y-75992714D01*
X92160380Y-76087952D01*
X92160380Y-76326047D01*
X92208000Y-76421285D01*
X92255619Y-76468904D01*
X92350857Y-76516523D01*
X92446095Y-76516523D01*
X92588952Y-76468904D01*
X93160380Y-75897476D01*
X93160380Y-76516523D01*
X92493714Y-77373666D02*
X93160380Y-77373666D01*
X92112761Y-77135571D02*
X92827047Y-76897476D01*
X92827047Y-77516523D01*
G04 #@! TO.C,J10*
X85459523Y-8552380D02*
X85459523Y-9266666D01*
X85507142Y-9409523D01*
X85602380Y-9504761D01*
X85745238Y-9552380D01*
X85840476Y-9552380D01*
X84459523Y-9552380D02*
X85030952Y-9552380D01*
X84745238Y-9552380D02*
X84745238Y-8552380D01*
X84840476Y-8695238D01*
X84935714Y-8790476D01*
X85030952Y-8838095D01*
X83840476Y-8552380D02*
X83745238Y-8552380D01*
X83650000Y-8600000D01*
X83602380Y-8647619D01*
X83554761Y-8742857D01*
X83507142Y-8933333D01*
X83507142Y-9171428D01*
X83554761Y-9361904D01*
X83602380Y-9457142D01*
X83650000Y-9504761D01*
X83745238Y-9552380D01*
X83840476Y-9552380D01*
X83935714Y-9504761D01*
X83983333Y-9457142D01*
X84030952Y-9361904D01*
X84078571Y-9171428D01*
X84078571Y-8933333D01*
X84030952Y-8742857D01*
X83983333Y-8647619D01*
X83935714Y-8600000D01*
X83840476Y-8552380D01*
G04 #@! TO.C,D39*
X96564285Y-42352380D02*
X96564285Y-41352380D01*
X96326190Y-41352380D01*
X96183333Y-41400000D01*
X96088095Y-41495238D01*
X96040476Y-41590476D01*
X95992857Y-41780952D01*
X95992857Y-41923809D01*
X96040476Y-42114285D01*
X96088095Y-42209523D01*
X96183333Y-42304761D01*
X96326190Y-42352380D01*
X96564285Y-42352380D01*
X95659523Y-41352380D02*
X95040476Y-41352380D01*
X95373809Y-41733333D01*
X95230952Y-41733333D01*
X95135714Y-41780952D01*
X95088095Y-41828571D01*
X95040476Y-41923809D01*
X95040476Y-42161904D01*
X95088095Y-42257142D01*
X95135714Y-42304761D01*
X95230952Y-42352380D01*
X95516666Y-42352380D01*
X95611904Y-42304761D01*
X95659523Y-42257142D01*
X94564285Y-42352380D02*
X94373809Y-42352380D01*
X94278571Y-42304761D01*
X94230952Y-42257142D01*
X94135714Y-42114285D01*
X94088095Y-41923809D01*
X94088095Y-41542857D01*
X94135714Y-41447619D01*
X94183333Y-41400000D01*
X94278571Y-41352380D01*
X94469047Y-41352380D01*
X94564285Y-41400000D01*
X94611904Y-41447619D01*
X94659523Y-41542857D01*
X94659523Y-41780952D01*
X94611904Y-41876190D01*
X94564285Y-41923809D01*
X94469047Y-41971428D01*
X94278571Y-41971428D01*
X94183333Y-41923809D01*
X94135714Y-41876190D01*
X94088095Y-41780952D01*
X90864285Y-47452380D02*
X91435714Y-47452380D01*
X91150000Y-47452380D02*
X91150000Y-46452380D01*
X91245238Y-46595238D01*
X91340476Y-46690476D01*
X91435714Y-46738095D01*
G04 #@! TO.C,SW36*
X106559523Y-45404761D02*
X106416666Y-45452380D01*
X106178571Y-45452380D01*
X106083333Y-45404761D01*
X106035714Y-45357142D01*
X105988095Y-45261904D01*
X105988095Y-45166666D01*
X106035714Y-45071428D01*
X106083333Y-45023809D01*
X106178571Y-44976190D01*
X106369047Y-44928571D01*
X106464285Y-44880952D01*
X106511904Y-44833333D01*
X106559523Y-44738095D01*
X106559523Y-44642857D01*
X106511904Y-44547619D01*
X106464285Y-44500000D01*
X106369047Y-44452380D01*
X106130952Y-44452380D01*
X105988095Y-44500000D01*
X105654761Y-44452380D02*
X105416666Y-45452380D01*
X105226190Y-44738095D01*
X105035714Y-45452380D01*
X104797619Y-44452380D01*
X104511904Y-44452380D02*
X103892857Y-44452380D01*
X104226190Y-44833333D01*
X104083333Y-44833333D01*
X103988095Y-44880952D01*
X103940476Y-44928571D01*
X103892857Y-45023809D01*
X103892857Y-45261904D01*
X103940476Y-45357142D01*
X103988095Y-45404761D01*
X104083333Y-45452380D01*
X104369047Y-45452380D01*
X104464285Y-45404761D01*
X104511904Y-45357142D01*
X103035714Y-44452380D02*
X103226190Y-44452380D01*
X103321428Y-44500000D01*
X103369047Y-44547619D01*
X103464285Y-44690476D01*
X103511904Y-44880952D01*
X103511904Y-45261904D01*
X103464285Y-45357142D01*
X103416666Y-45404761D01*
X103321428Y-45452380D01*
X103130952Y-45452380D01*
X103035714Y-45404761D01*
X102988095Y-45357142D01*
X102940476Y-45261904D01*
X102940476Y-45023809D01*
X102988095Y-44928571D01*
X103035714Y-44880952D01*
X103130952Y-44833333D01*
X103321428Y-44833333D01*
X103416666Y-44880952D01*
X103464285Y-44928571D01*
X103511904Y-45023809D01*
G04 #@! TO.C,SW32*
X35359523Y-44104761D02*
X35216666Y-44152380D01*
X34978571Y-44152380D01*
X34883333Y-44104761D01*
X34835714Y-44057142D01*
X34788095Y-43961904D01*
X34788095Y-43866666D01*
X34835714Y-43771428D01*
X34883333Y-43723809D01*
X34978571Y-43676190D01*
X35169047Y-43628571D01*
X35264285Y-43580952D01*
X35311904Y-43533333D01*
X35359523Y-43438095D01*
X35359523Y-43342857D01*
X35311904Y-43247619D01*
X35264285Y-43200000D01*
X35169047Y-43152380D01*
X34930952Y-43152380D01*
X34788095Y-43200000D01*
X34454761Y-43152380D02*
X34216666Y-44152380D01*
X34026190Y-43438095D01*
X33835714Y-44152380D01*
X33597619Y-43152380D01*
X33311904Y-43152380D02*
X32692857Y-43152380D01*
X33026190Y-43533333D01*
X32883333Y-43533333D01*
X32788095Y-43580952D01*
X32740476Y-43628571D01*
X32692857Y-43723809D01*
X32692857Y-43961904D01*
X32740476Y-44057142D01*
X32788095Y-44104761D01*
X32883333Y-44152380D01*
X33169047Y-44152380D01*
X33264285Y-44104761D01*
X33311904Y-44057142D01*
X32311904Y-43247619D02*
X32264285Y-43200000D01*
X32169047Y-43152380D01*
X31930952Y-43152380D01*
X31835714Y-43200000D01*
X31788095Y-43247619D01*
X31740476Y-43342857D01*
X31740476Y-43438095D01*
X31788095Y-43580952D01*
X32359523Y-44152380D01*
X31740476Y-44152380D01*
G04 #@! TO.C,SW26*
X25859523Y-25104761D02*
X25716666Y-25152380D01*
X25478571Y-25152380D01*
X25383333Y-25104761D01*
X25335714Y-25057142D01*
X25288095Y-24961904D01*
X25288095Y-24866666D01*
X25335714Y-24771428D01*
X25383333Y-24723809D01*
X25478571Y-24676190D01*
X25669047Y-24628571D01*
X25764285Y-24580952D01*
X25811904Y-24533333D01*
X25859523Y-24438095D01*
X25859523Y-24342857D01*
X25811904Y-24247619D01*
X25764285Y-24200000D01*
X25669047Y-24152380D01*
X25430952Y-24152380D01*
X25288095Y-24200000D01*
X24954761Y-24152380D02*
X24716666Y-25152380D01*
X24526190Y-24438095D01*
X24335714Y-25152380D01*
X24097619Y-24152380D01*
X23764285Y-24247619D02*
X23716666Y-24200000D01*
X23621428Y-24152380D01*
X23383333Y-24152380D01*
X23288095Y-24200000D01*
X23240476Y-24247619D01*
X23192857Y-24342857D01*
X23192857Y-24438095D01*
X23240476Y-24580952D01*
X23811904Y-25152380D01*
X23192857Y-25152380D01*
X22335714Y-24152380D02*
X22526190Y-24152380D01*
X22621428Y-24200000D01*
X22669047Y-24247619D01*
X22764285Y-24390476D01*
X22811904Y-24580952D01*
X22811904Y-24961904D01*
X22764285Y-25057142D01*
X22716666Y-25104761D01*
X22621428Y-25152380D01*
X22430952Y-25152380D01*
X22335714Y-25104761D01*
X22288095Y-25057142D01*
X22240476Y-24961904D01*
X22240476Y-24723809D01*
X22288095Y-24628571D01*
X22335714Y-24580952D01*
X22430952Y-24533333D01*
X22621428Y-24533333D01*
X22716666Y-24580952D01*
X22764285Y-24628571D01*
X22811904Y-24723809D01*
G04 #@! TO.C,SW34*
X68359523Y-44104761D02*
X68216666Y-44152380D01*
X67978571Y-44152380D01*
X67883333Y-44104761D01*
X67835714Y-44057142D01*
X67788095Y-43961904D01*
X67788095Y-43866666D01*
X67835714Y-43771428D01*
X67883333Y-43723809D01*
X67978571Y-43676190D01*
X68169047Y-43628571D01*
X68264285Y-43580952D01*
X68311904Y-43533333D01*
X68359523Y-43438095D01*
X68359523Y-43342857D01*
X68311904Y-43247619D01*
X68264285Y-43200000D01*
X68169047Y-43152380D01*
X67930952Y-43152380D01*
X67788095Y-43200000D01*
X67454761Y-43152380D02*
X67216666Y-44152380D01*
X67026190Y-43438095D01*
X66835714Y-44152380D01*
X66597619Y-43152380D01*
X66311904Y-43152380D02*
X65692857Y-43152380D01*
X66026190Y-43533333D01*
X65883333Y-43533333D01*
X65788095Y-43580952D01*
X65740476Y-43628571D01*
X65692857Y-43723809D01*
X65692857Y-43961904D01*
X65740476Y-44057142D01*
X65788095Y-44104761D01*
X65883333Y-44152380D01*
X66169047Y-44152380D01*
X66264285Y-44104761D01*
X66311904Y-44057142D01*
X64835714Y-43485714D02*
X64835714Y-44152380D01*
X65073809Y-43104761D02*
X65311904Y-43819047D01*
X64692857Y-43819047D01*
G04 #@! TO.C,D36*
X20614285Y-42352380D02*
X20614285Y-41352380D01*
X20376190Y-41352380D01*
X20233333Y-41400000D01*
X20138095Y-41495238D01*
X20090476Y-41590476D01*
X20042857Y-41780952D01*
X20042857Y-41923809D01*
X20090476Y-42114285D01*
X20138095Y-42209523D01*
X20233333Y-42304761D01*
X20376190Y-42352380D01*
X20614285Y-42352380D01*
X19709523Y-41352380D02*
X19090476Y-41352380D01*
X19423809Y-41733333D01*
X19280952Y-41733333D01*
X19185714Y-41780952D01*
X19138095Y-41828571D01*
X19090476Y-41923809D01*
X19090476Y-42161904D01*
X19138095Y-42257142D01*
X19185714Y-42304761D01*
X19280952Y-42352380D01*
X19566666Y-42352380D01*
X19661904Y-42304761D01*
X19709523Y-42257142D01*
X18233333Y-41352380D02*
X18423809Y-41352380D01*
X18519047Y-41400000D01*
X18566666Y-41447619D01*
X18661904Y-41590476D01*
X18709523Y-41780952D01*
X18709523Y-42161904D01*
X18661904Y-42257142D01*
X18614285Y-42304761D01*
X18519047Y-42352380D01*
X18328571Y-42352380D01*
X18233333Y-42304761D01*
X18185714Y-42257142D01*
X18138095Y-42161904D01*
X18138095Y-41923809D01*
X18185714Y-41828571D01*
X18233333Y-41780952D01*
X18328571Y-41733333D01*
X18519047Y-41733333D01*
X18614285Y-41780952D01*
X18661904Y-41828571D01*
X18709523Y-41923809D01*
X23264285Y-44252380D02*
X23835714Y-44252380D01*
X23550000Y-44252380D02*
X23550000Y-43252380D01*
X23645238Y-43395238D01*
X23740476Y-43490476D01*
X23835714Y-43538095D01*
G04 #@! TO.C,D19*
X32364285Y-64721380D02*
X32364285Y-63721380D01*
X32126190Y-63721380D01*
X31983333Y-63769000D01*
X31888095Y-63864238D01*
X31840476Y-63959476D01*
X31792857Y-64149952D01*
X31792857Y-64292809D01*
X31840476Y-64483285D01*
X31888095Y-64578523D01*
X31983333Y-64673761D01*
X32126190Y-64721380D01*
X32364285Y-64721380D01*
X30840476Y-64721380D02*
X31411904Y-64721380D01*
X31126190Y-64721380D02*
X31126190Y-63721380D01*
X31221428Y-63864238D01*
X31316666Y-63959476D01*
X31411904Y-64007095D01*
X30364285Y-64721380D02*
X30173809Y-64721380D01*
X30078571Y-64673761D01*
X30030952Y-64626142D01*
X29935714Y-64483285D01*
X29888095Y-64292809D01*
X29888095Y-63911857D01*
X29935714Y-63816619D01*
X29983333Y-63769000D01*
X30078571Y-63721380D01*
X30269047Y-63721380D01*
X30364285Y-63769000D01*
X30411904Y-63816619D01*
X30459523Y-63911857D01*
X30459523Y-64149952D01*
X30411904Y-64245190D01*
X30364285Y-64292809D01*
X30269047Y-64340428D01*
X30078571Y-64340428D01*
X29983333Y-64292809D01*
X29935714Y-64245190D01*
X29888095Y-64149952D01*
G04 #@! TO.C,C15*
X35642857Y-31457142D02*
X35690476Y-31504761D01*
X35833333Y-31552380D01*
X35928571Y-31552380D01*
X36071428Y-31504761D01*
X36166666Y-31409523D01*
X36214285Y-31314285D01*
X36261904Y-31123809D01*
X36261904Y-30980952D01*
X36214285Y-30790476D01*
X36166666Y-30695238D01*
X36071428Y-30600000D01*
X35928571Y-30552380D01*
X35833333Y-30552380D01*
X35690476Y-30600000D01*
X35642857Y-30647619D01*
X34690476Y-31552380D02*
X35261904Y-31552380D01*
X34976190Y-31552380D02*
X34976190Y-30552380D01*
X35071428Y-30695238D01*
X35166666Y-30790476D01*
X35261904Y-30838095D01*
X33785714Y-30552380D02*
X34261904Y-30552380D01*
X34309523Y-31028571D01*
X34261904Y-30980952D01*
X34166666Y-30933333D01*
X33928571Y-30933333D01*
X33833333Y-30980952D01*
X33785714Y-31028571D01*
X33738095Y-31123809D01*
X33738095Y-31361904D01*
X33785714Y-31457142D01*
X33833333Y-31504761D01*
X33928571Y-31552380D01*
X34166666Y-31552380D01*
X34261904Y-31504761D01*
X34309523Y-31457142D01*
G04 #@! TO.C,SW31*
X11309523Y-44104761D02*
X11166666Y-44152380D01*
X10928571Y-44152380D01*
X10833333Y-44104761D01*
X10785714Y-44057142D01*
X10738095Y-43961904D01*
X10738095Y-43866666D01*
X10785714Y-43771428D01*
X10833333Y-43723809D01*
X10928571Y-43676190D01*
X11119047Y-43628571D01*
X11214285Y-43580952D01*
X11261904Y-43533333D01*
X11309523Y-43438095D01*
X11309523Y-43342857D01*
X11261904Y-43247619D01*
X11214285Y-43200000D01*
X11119047Y-43152380D01*
X10880952Y-43152380D01*
X10738095Y-43200000D01*
X10404761Y-43152380D02*
X10166666Y-44152380D01*
X9976190Y-43438095D01*
X9785714Y-44152380D01*
X9547619Y-43152380D01*
X9261904Y-43152380D02*
X8642857Y-43152380D01*
X8976190Y-43533333D01*
X8833333Y-43533333D01*
X8738095Y-43580952D01*
X8690476Y-43628571D01*
X8642857Y-43723809D01*
X8642857Y-43961904D01*
X8690476Y-44057142D01*
X8738095Y-44104761D01*
X8833333Y-44152380D01*
X9119047Y-44152380D01*
X9214285Y-44104761D01*
X9261904Y-44057142D01*
X7690476Y-44152380D02*
X8261904Y-44152380D01*
X7976190Y-44152380D02*
X7976190Y-43152380D01*
X8071428Y-43295238D01*
X8166666Y-43390476D01*
X8261904Y-43438095D01*
G04 #@! TO.C,D40*
X77414285Y-61552380D02*
X77414285Y-60552380D01*
X77176190Y-60552380D01*
X77033333Y-60600000D01*
X76938095Y-60695238D01*
X76890476Y-60790476D01*
X76842857Y-60980952D01*
X76842857Y-61123809D01*
X76890476Y-61314285D01*
X76938095Y-61409523D01*
X77033333Y-61504761D01*
X77176190Y-61552380D01*
X77414285Y-61552380D01*
X75985714Y-60885714D02*
X75985714Y-61552380D01*
X76223809Y-60504761D02*
X76461904Y-61219047D01*
X75842857Y-61219047D01*
X75271428Y-60552380D02*
X75176190Y-60552380D01*
X75080952Y-60600000D01*
X75033333Y-60647619D01*
X74985714Y-60742857D01*
X74938095Y-60933333D01*
X74938095Y-61171428D01*
X74985714Y-61361904D01*
X75033333Y-61457142D01*
X75080952Y-61504761D01*
X75176190Y-61552380D01*
X75271428Y-61552380D01*
X75366666Y-61504761D01*
X75414285Y-61457142D01*
X75461904Y-61361904D01*
X75509523Y-61171428D01*
X75509523Y-60933333D01*
X75461904Y-60742857D01*
X75414285Y-60647619D01*
X75366666Y-60600000D01*
X75271428Y-60552380D01*
X71764285Y-66552380D02*
X72335714Y-66552380D01*
X72050000Y-66552380D02*
X72050000Y-65552380D01*
X72145238Y-65695238D01*
X72240476Y-65790476D01*
X72335714Y-65838095D01*
G04 #@! TO.C,R14*
X37872380Y-21957142D02*
X37396190Y-21623809D01*
X37872380Y-21385714D02*
X36872380Y-21385714D01*
X36872380Y-21766666D01*
X36920000Y-21861904D01*
X36967619Y-21909523D01*
X37062857Y-21957142D01*
X37205714Y-21957142D01*
X37300952Y-21909523D01*
X37348571Y-21861904D01*
X37396190Y-21766666D01*
X37396190Y-21385714D01*
X37872380Y-22909523D02*
X37872380Y-22338095D01*
X37872380Y-22623809D02*
X36872380Y-22623809D01*
X37015238Y-22528571D01*
X37110476Y-22433333D01*
X37158095Y-22338095D01*
X37205714Y-23766666D02*
X37872380Y-23766666D01*
X36824761Y-23528571D02*
X37539047Y-23290476D01*
X37539047Y-23909523D01*
G04 #@! TO.C,J6*
X79052380Y-13166666D02*
X79766666Y-13166666D01*
X79909523Y-13119047D01*
X80004761Y-13023809D01*
X80052380Y-12880952D01*
X80052380Y-12785714D01*
X79052380Y-14071428D02*
X79052380Y-13880952D01*
X79100000Y-13785714D01*
X79147619Y-13738095D01*
X79290476Y-13642857D01*
X79480952Y-13595238D01*
X79861904Y-13595238D01*
X79957142Y-13642857D01*
X80004761Y-13690476D01*
X80052380Y-13785714D01*
X80052380Y-13976190D01*
X80004761Y-14071428D01*
X79957142Y-14119047D01*
X79861904Y-14166666D01*
X79623809Y-14166666D01*
X79528571Y-14119047D01*
X79480952Y-14071428D01*
X79433333Y-13976190D01*
X79433333Y-13785714D01*
X79480952Y-13690476D01*
X79528571Y-13642857D01*
X79623809Y-13595238D01*
G04 #@! TO.C,D20*
X55060380Y-63054714D02*
X54060380Y-63054714D01*
X54060380Y-63292809D01*
X54108000Y-63435666D01*
X54203238Y-63530904D01*
X54298476Y-63578523D01*
X54488952Y-63626142D01*
X54631809Y-63626142D01*
X54822285Y-63578523D01*
X54917523Y-63530904D01*
X55012761Y-63435666D01*
X55060380Y-63292809D01*
X55060380Y-63054714D01*
X54155619Y-64007095D02*
X54108000Y-64054714D01*
X54060380Y-64149952D01*
X54060380Y-64388047D01*
X54108000Y-64483285D01*
X54155619Y-64530904D01*
X54250857Y-64578523D01*
X54346095Y-64578523D01*
X54488952Y-64530904D01*
X55060380Y-63959476D01*
X55060380Y-64578523D01*
X54060380Y-65197571D02*
X54060380Y-65292809D01*
X54108000Y-65388047D01*
X54155619Y-65435666D01*
X54250857Y-65483285D01*
X54441333Y-65530904D01*
X54679428Y-65530904D01*
X54869904Y-65483285D01*
X54965142Y-65435666D01*
X55012761Y-65388047D01*
X55060380Y-65292809D01*
X55060380Y-65197571D01*
X55012761Y-65102333D01*
X54965142Y-65054714D01*
X54869904Y-65007095D01*
X54679428Y-64959476D01*
X54441333Y-64959476D01*
X54250857Y-65007095D01*
X54155619Y-65054714D01*
X54108000Y-65102333D01*
X54060380Y-65197571D01*
G04 #@! TO.C,R16*
X59142857Y-16932380D02*
X59476190Y-16456190D01*
X59714285Y-16932380D02*
X59714285Y-15932380D01*
X59333333Y-15932380D01*
X59238095Y-15980000D01*
X59190476Y-16027619D01*
X59142857Y-16122857D01*
X59142857Y-16265714D01*
X59190476Y-16360952D01*
X59238095Y-16408571D01*
X59333333Y-16456190D01*
X59714285Y-16456190D01*
X58190476Y-16932380D02*
X58761904Y-16932380D01*
X58476190Y-16932380D02*
X58476190Y-15932380D01*
X58571428Y-16075238D01*
X58666666Y-16170476D01*
X58761904Y-16218095D01*
X57333333Y-15932380D02*
X57523809Y-15932380D01*
X57619047Y-15980000D01*
X57666666Y-16027619D01*
X57761904Y-16170476D01*
X57809523Y-16360952D01*
X57809523Y-16741904D01*
X57761904Y-16837142D01*
X57714285Y-16884761D01*
X57619047Y-16932380D01*
X57428571Y-16932380D01*
X57333333Y-16884761D01*
X57285714Y-16837142D01*
X57238095Y-16741904D01*
X57238095Y-16503809D01*
X57285714Y-16408571D01*
X57333333Y-16360952D01*
X57428571Y-16313333D01*
X57619047Y-16313333D01*
X57714285Y-16360952D01*
X57761904Y-16408571D01*
X57809523Y-16503809D01*
G04 #@! TO.C,D13*
X29864285Y-28652380D02*
X29864285Y-27652380D01*
X29626190Y-27652380D01*
X29483333Y-27700000D01*
X29388095Y-27795238D01*
X29340476Y-27890476D01*
X29292857Y-28080952D01*
X29292857Y-28223809D01*
X29340476Y-28414285D01*
X29388095Y-28509523D01*
X29483333Y-28604761D01*
X29626190Y-28652380D01*
X29864285Y-28652380D01*
X28340476Y-28652380D02*
X28911904Y-28652380D01*
X28626190Y-28652380D02*
X28626190Y-27652380D01*
X28721428Y-27795238D01*
X28816666Y-27890476D01*
X28911904Y-27938095D01*
X28007142Y-27652380D02*
X27388095Y-27652380D01*
X27721428Y-28033333D01*
X27578571Y-28033333D01*
X27483333Y-28080952D01*
X27435714Y-28128571D01*
X27388095Y-28223809D01*
X27388095Y-28461904D01*
X27435714Y-28557142D01*
X27483333Y-28604761D01*
X27578571Y-28652380D01*
X27864285Y-28652380D01*
X27959523Y-28604761D01*
X28007142Y-28557142D01*
G04 #@! TO.C,C8*
X36420142Y-4421733D02*
X36467761Y-4374114D01*
X36515380Y-4231257D01*
X36515380Y-4136019D01*
X36467761Y-3993161D01*
X36372523Y-3897923D01*
X36277285Y-3850304D01*
X36086809Y-3802685D01*
X35943952Y-3802685D01*
X35753476Y-3850304D01*
X35658238Y-3897923D01*
X35563000Y-3993161D01*
X35515380Y-4136019D01*
X35515380Y-4231257D01*
X35563000Y-4374114D01*
X35610619Y-4421733D01*
X35943952Y-4993161D02*
X35896333Y-4897923D01*
X35848714Y-4850304D01*
X35753476Y-4802685D01*
X35705857Y-4802685D01*
X35610619Y-4850304D01*
X35563000Y-4897923D01*
X35515380Y-4993161D01*
X35515380Y-5183638D01*
X35563000Y-5278876D01*
X35610619Y-5326495D01*
X35705857Y-5374114D01*
X35753476Y-5374114D01*
X35848714Y-5326495D01*
X35896333Y-5278876D01*
X35943952Y-5183638D01*
X35943952Y-4993161D01*
X35991571Y-4897923D01*
X36039190Y-4850304D01*
X36134428Y-4802685D01*
X36324904Y-4802685D01*
X36420142Y-4850304D01*
X36467761Y-4897923D01*
X36515380Y-4993161D01*
X36515380Y-5183638D01*
X36467761Y-5278876D01*
X36420142Y-5326495D01*
X36324904Y-5374114D01*
X36134428Y-5374114D01*
X36039190Y-5326495D01*
X35991571Y-5278876D01*
X35943952Y-5183638D01*
G04 #@! TO.C,Y2*
X48476190Y-5976190D02*
X48476190Y-6452380D01*
X48809523Y-5452380D02*
X48476190Y-5976190D01*
X48142857Y-5452380D01*
X47857142Y-5547619D02*
X47809523Y-5500000D01*
X47714285Y-5452380D01*
X47476190Y-5452380D01*
X47380952Y-5500000D01*
X47333333Y-5547619D01*
X47285714Y-5642857D01*
X47285714Y-5738095D01*
X47333333Y-5880952D01*
X47904761Y-6452380D01*
X47285714Y-6452380D01*
G04 #@! TO.C,R12*
X27152380Y-12707142D02*
X26676190Y-12373809D01*
X27152380Y-12135714D02*
X26152380Y-12135714D01*
X26152380Y-12516666D01*
X26200000Y-12611904D01*
X26247619Y-12659523D01*
X26342857Y-12707142D01*
X26485714Y-12707142D01*
X26580952Y-12659523D01*
X26628571Y-12611904D01*
X26676190Y-12516666D01*
X26676190Y-12135714D01*
X27152380Y-13659523D02*
X27152380Y-13088095D01*
X27152380Y-13373809D02*
X26152380Y-13373809D01*
X26295238Y-13278571D01*
X26390476Y-13183333D01*
X26438095Y-13088095D01*
X26247619Y-14040476D02*
X26200000Y-14088095D01*
X26152380Y-14183333D01*
X26152380Y-14421428D01*
X26200000Y-14516666D01*
X26247619Y-14564285D01*
X26342857Y-14611904D01*
X26438095Y-14611904D01*
X26580952Y-14564285D01*
X27152380Y-13992857D01*
X27152380Y-14611904D01*
G04 #@! TO.C,D16*
X27064285Y-47952380D02*
X27064285Y-46952380D01*
X26826190Y-46952380D01*
X26683333Y-47000000D01*
X26588095Y-47095238D01*
X26540476Y-47190476D01*
X26492857Y-47380952D01*
X26492857Y-47523809D01*
X26540476Y-47714285D01*
X26588095Y-47809523D01*
X26683333Y-47904761D01*
X26826190Y-47952380D01*
X27064285Y-47952380D01*
X25540476Y-47952380D02*
X26111904Y-47952380D01*
X25826190Y-47952380D02*
X25826190Y-46952380D01*
X25921428Y-47095238D01*
X26016666Y-47190476D01*
X26111904Y-47238095D01*
X24683333Y-46952380D02*
X24873809Y-46952380D01*
X24969047Y-47000000D01*
X25016666Y-47047619D01*
X25111904Y-47190476D01*
X25159523Y-47380952D01*
X25159523Y-47761904D01*
X25111904Y-47857142D01*
X25064285Y-47904761D01*
X24969047Y-47952380D01*
X24778571Y-47952380D01*
X24683333Y-47904761D01*
X24635714Y-47857142D01*
X24588095Y-47761904D01*
X24588095Y-47523809D01*
X24635714Y-47428571D01*
X24683333Y-47380952D01*
X24778571Y-47333333D01*
X24969047Y-47333333D01*
X25064285Y-47380952D01*
X25111904Y-47428571D01*
X25159523Y-47523809D01*
G04 #@! TO.C,SW45*
X49359523Y-66654761D02*
X49216666Y-66702380D01*
X48978571Y-66702380D01*
X48883333Y-66654761D01*
X48835714Y-66607142D01*
X48788095Y-66511904D01*
X48788095Y-66416666D01*
X48835714Y-66321428D01*
X48883333Y-66273809D01*
X48978571Y-66226190D01*
X49169047Y-66178571D01*
X49264285Y-66130952D01*
X49311904Y-66083333D01*
X49359523Y-65988095D01*
X49359523Y-65892857D01*
X49311904Y-65797619D01*
X49264285Y-65750000D01*
X49169047Y-65702380D01*
X48930952Y-65702380D01*
X48788095Y-65750000D01*
X48454761Y-65702380D02*
X48216666Y-66702380D01*
X48026190Y-65988095D01*
X47835714Y-66702380D01*
X47597619Y-65702380D01*
X46788095Y-66035714D02*
X46788095Y-66702380D01*
X47026190Y-65654761D02*
X47264285Y-66369047D01*
X46645238Y-66369047D01*
X45788095Y-65702380D02*
X46264285Y-65702380D01*
X46311904Y-66178571D01*
X46264285Y-66130952D01*
X46169047Y-66083333D01*
X45930952Y-66083333D01*
X45835714Y-66130952D01*
X45788095Y-66178571D01*
X45740476Y-66273809D01*
X45740476Y-66511904D01*
X45788095Y-66607142D01*
X45835714Y-66654761D01*
X45930952Y-66702380D01*
X46169047Y-66702380D01*
X46264285Y-66654761D01*
X46311904Y-66607142D01*
G04 #@! TO.C,SW25*
X15759523Y-25304761D02*
X15616666Y-25352380D01*
X15378571Y-25352380D01*
X15283333Y-25304761D01*
X15235714Y-25257142D01*
X15188095Y-25161904D01*
X15188095Y-25066666D01*
X15235714Y-24971428D01*
X15283333Y-24923809D01*
X15378571Y-24876190D01*
X15569047Y-24828571D01*
X15664285Y-24780952D01*
X15711904Y-24733333D01*
X15759523Y-24638095D01*
X15759523Y-24542857D01*
X15711904Y-24447619D01*
X15664285Y-24400000D01*
X15569047Y-24352380D01*
X15330952Y-24352380D01*
X15188095Y-24400000D01*
X14854761Y-24352380D02*
X14616666Y-25352380D01*
X14426190Y-24638095D01*
X14235714Y-25352380D01*
X13997619Y-24352380D01*
X13664285Y-24447619D02*
X13616666Y-24400000D01*
X13521428Y-24352380D01*
X13283333Y-24352380D01*
X13188095Y-24400000D01*
X13140476Y-24447619D01*
X13092857Y-24542857D01*
X13092857Y-24638095D01*
X13140476Y-24780952D01*
X13711904Y-25352380D01*
X13092857Y-25352380D01*
X12188095Y-24352380D02*
X12664285Y-24352380D01*
X12711904Y-24828571D01*
X12664285Y-24780952D01*
X12569047Y-24733333D01*
X12330952Y-24733333D01*
X12235714Y-24780952D01*
X12188095Y-24828571D01*
X12140476Y-24923809D01*
X12140476Y-25161904D01*
X12188095Y-25257142D01*
X12235714Y-25304761D01*
X12330952Y-25352380D01*
X12569047Y-25352380D01*
X12664285Y-25304761D01*
X12711904Y-25257142D01*
G04 #@! TO.C,SW47*
X85159523Y-66704761D02*
X85016666Y-66752380D01*
X84778571Y-66752380D01*
X84683333Y-66704761D01*
X84635714Y-66657142D01*
X84588095Y-66561904D01*
X84588095Y-66466666D01*
X84635714Y-66371428D01*
X84683333Y-66323809D01*
X84778571Y-66276190D01*
X84969047Y-66228571D01*
X85064285Y-66180952D01*
X85111904Y-66133333D01*
X85159523Y-66038095D01*
X85159523Y-65942857D01*
X85111904Y-65847619D01*
X85064285Y-65800000D01*
X84969047Y-65752380D01*
X84730952Y-65752380D01*
X84588095Y-65800000D01*
X84254761Y-65752380D02*
X84016666Y-66752380D01*
X83826190Y-66038095D01*
X83635714Y-66752380D01*
X83397619Y-65752380D01*
X82588095Y-66085714D02*
X82588095Y-66752380D01*
X82826190Y-65704761D02*
X83064285Y-66419047D01*
X82445238Y-66419047D01*
X82159523Y-65752380D02*
X81492857Y-65752380D01*
X81921428Y-66752380D01*
G04 #@! TO.C,D38*
X81402380Y-25185714D02*
X80402380Y-25185714D01*
X80402380Y-25423809D01*
X80450000Y-25566666D01*
X80545238Y-25661904D01*
X80640476Y-25709523D01*
X80830952Y-25757142D01*
X80973809Y-25757142D01*
X81164285Y-25709523D01*
X81259523Y-25661904D01*
X81354761Y-25566666D01*
X81402380Y-25423809D01*
X81402380Y-25185714D01*
X80402380Y-26090476D02*
X80402380Y-26709523D01*
X80783333Y-26376190D01*
X80783333Y-26519047D01*
X80830952Y-26614285D01*
X80878571Y-26661904D01*
X80973809Y-26709523D01*
X81211904Y-26709523D01*
X81307142Y-26661904D01*
X81354761Y-26614285D01*
X81402380Y-26519047D01*
X81402380Y-26233333D01*
X81354761Y-26138095D01*
X81307142Y-26090476D01*
X80830952Y-27280952D02*
X80783333Y-27185714D01*
X80735714Y-27138095D01*
X80640476Y-27090476D01*
X80592857Y-27090476D01*
X80497619Y-27138095D01*
X80450000Y-27185714D01*
X80402380Y-27280952D01*
X80402380Y-27471428D01*
X80450000Y-27566666D01*
X80497619Y-27614285D01*
X80592857Y-27661904D01*
X80640476Y-27661904D01*
X80735714Y-27614285D01*
X80783333Y-27566666D01*
X80830952Y-27471428D01*
X80830952Y-27280952D01*
X80878571Y-27185714D01*
X80926190Y-27138095D01*
X81021428Y-27090476D01*
X81211904Y-27090476D01*
X81307142Y-27138095D01*
X81354761Y-27185714D01*
X81402380Y-27280952D01*
X81402380Y-27471428D01*
X81354761Y-27566666D01*
X81307142Y-27614285D01*
X81211904Y-27661904D01*
X81021428Y-27661904D01*
X80926190Y-27614285D01*
X80878571Y-27566666D01*
X80830952Y-27471428D01*
X71864285Y-28452380D02*
X72435714Y-28452380D01*
X72150000Y-28452380D02*
X72150000Y-27452380D01*
X72245238Y-27595238D01*
X72340476Y-27690476D01*
X72435714Y-27738095D01*
G04 #@! TO.C,D37*
X39314285Y-61452380D02*
X39314285Y-60452380D01*
X39076190Y-60452380D01*
X38933333Y-60500000D01*
X38838095Y-60595238D01*
X38790476Y-60690476D01*
X38742857Y-60880952D01*
X38742857Y-61023809D01*
X38790476Y-61214285D01*
X38838095Y-61309523D01*
X38933333Y-61404761D01*
X39076190Y-61452380D01*
X39314285Y-61452380D01*
X38409523Y-60452380D02*
X37790476Y-60452380D01*
X38123809Y-60833333D01*
X37980952Y-60833333D01*
X37885714Y-60880952D01*
X37838095Y-60928571D01*
X37790476Y-61023809D01*
X37790476Y-61261904D01*
X37838095Y-61357142D01*
X37885714Y-61404761D01*
X37980952Y-61452380D01*
X38266666Y-61452380D01*
X38361904Y-61404761D01*
X38409523Y-61357142D01*
X37457142Y-60452380D02*
X36790476Y-60452380D01*
X37219047Y-61452380D01*
X41964285Y-63352380D02*
X42535714Y-63352380D01*
X42250000Y-63352380D02*
X42250000Y-62352380D01*
X42345238Y-62495238D01*
X42440476Y-62590476D01*
X42535714Y-62638095D01*
G04 #@! TO.C,D17*
X55949380Y-43750714D02*
X54949380Y-43750714D01*
X54949380Y-43988809D01*
X54997000Y-44131666D01*
X55092238Y-44226904D01*
X55187476Y-44274523D01*
X55377952Y-44322142D01*
X55520809Y-44322142D01*
X55711285Y-44274523D01*
X55806523Y-44226904D01*
X55901761Y-44131666D01*
X55949380Y-43988809D01*
X55949380Y-43750714D01*
X55949380Y-45274523D02*
X55949380Y-44703095D01*
X55949380Y-44988809D02*
X54949380Y-44988809D01*
X55092238Y-44893571D01*
X55187476Y-44798333D01*
X55235095Y-44703095D01*
X54949380Y-45607857D02*
X54949380Y-46274523D01*
X55949380Y-45845952D01*
G04 #@! TO.C,C5*
X31086142Y-8460333D02*
X31133761Y-8412714D01*
X31181380Y-8269857D01*
X31181380Y-8174619D01*
X31133761Y-8031761D01*
X31038523Y-7936523D01*
X30943285Y-7888904D01*
X30752809Y-7841285D01*
X30609952Y-7841285D01*
X30419476Y-7888904D01*
X30324238Y-7936523D01*
X30229000Y-8031761D01*
X30181380Y-8174619D01*
X30181380Y-8269857D01*
X30229000Y-8412714D01*
X30276619Y-8460333D01*
X30181380Y-9365095D02*
X30181380Y-8888904D01*
X30657571Y-8841285D01*
X30609952Y-8888904D01*
X30562333Y-8984142D01*
X30562333Y-9222238D01*
X30609952Y-9317476D01*
X30657571Y-9365095D01*
X30752809Y-9412714D01*
X30990904Y-9412714D01*
X31086142Y-9365095D01*
X31133761Y-9317476D01*
X31181380Y-9222238D01*
X31181380Y-8984142D01*
X31133761Y-8888904D01*
X31086142Y-8841285D01*
G04 #@! TO.C,R10*
X46574857Y-28305380D02*
X46908190Y-27829190D01*
X47146285Y-28305380D02*
X47146285Y-27305380D01*
X46765333Y-27305380D01*
X46670095Y-27353000D01*
X46622476Y-27400619D01*
X46574857Y-27495857D01*
X46574857Y-27638714D01*
X46622476Y-27733952D01*
X46670095Y-27781571D01*
X46765333Y-27829190D01*
X47146285Y-27829190D01*
X45622476Y-28305380D02*
X46193904Y-28305380D01*
X45908190Y-28305380D02*
X45908190Y-27305380D01*
X46003428Y-27448238D01*
X46098666Y-27543476D01*
X46193904Y-27591095D01*
X45003428Y-27305380D02*
X44908190Y-27305380D01*
X44812952Y-27353000D01*
X44765333Y-27400619D01*
X44717714Y-27495857D01*
X44670095Y-27686333D01*
X44670095Y-27924428D01*
X44717714Y-28114904D01*
X44765333Y-28210142D01*
X44812952Y-28257761D01*
X44908190Y-28305380D01*
X45003428Y-28305380D01*
X45098666Y-28257761D01*
X45146285Y-28210142D01*
X45193904Y-28114904D01*
X45241523Y-27924428D01*
X45241523Y-27686333D01*
X45193904Y-27495857D01*
X45146285Y-27400619D01*
X45098666Y-27353000D01*
X45003428Y-27305380D01*
G04 #@! TO.C,SW37*
X11301123Y-52354761D02*
X11158266Y-52402380D01*
X10920171Y-52402380D01*
X10824933Y-52354761D01*
X10777314Y-52307142D01*
X10729695Y-52211904D01*
X10729695Y-52116666D01*
X10777314Y-52021428D01*
X10824933Y-51973809D01*
X10920171Y-51926190D01*
X11110647Y-51878571D01*
X11205885Y-51830952D01*
X11253504Y-51783333D01*
X11301123Y-51688095D01*
X11301123Y-51592857D01*
X11253504Y-51497619D01*
X11205885Y-51450000D01*
X11110647Y-51402380D01*
X10872552Y-51402380D01*
X10729695Y-51450000D01*
X10396361Y-51402380D02*
X10158266Y-52402380D01*
X9967790Y-51688095D01*
X9777314Y-52402380D01*
X9539219Y-51402380D01*
X9253504Y-51402380D02*
X8634457Y-51402380D01*
X8967790Y-51783333D01*
X8824933Y-51783333D01*
X8729695Y-51830952D01*
X8682076Y-51878571D01*
X8634457Y-51973809D01*
X8634457Y-52211904D01*
X8682076Y-52307142D01*
X8729695Y-52354761D01*
X8824933Y-52402380D01*
X9110647Y-52402380D01*
X9205885Y-52354761D01*
X9253504Y-52307142D01*
X8301123Y-51402380D02*
X7634457Y-51402380D01*
X8063028Y-52402380D01*
G04 #@! TO.C,R9*
X43050666Y-7477380D02*
X43384000Y-7001190D01*
X43622095Y-7477380D02*
X43622095Y-6477380D01*
X43241142Y-6477380D01*
X43145904Y-6525000D01*
X43098285Y-6572619D01*
X43050666Y-6667857D01*
X43050666Y-6810714D01*
X43098285Y-6905952D01*
X43145904Y-6953571D01*
X43241142Y-7001190D01*
X43622095Y-7001190D01*
X42574476Y-7477380D02*
X42384000Y-7477380D01*
X42288761Y-7429761D01*
X42241142Y-7382142D01*
X42145904Y-7239285D01*
X42098285Y-7048809D01*
X42098285Y-6667857D01*
X42145904Y-6572619D01*
X42193523Y-6525000D01*
X42288761Y-6477380D01*
X42479238Y-6477380D01*
X42574476Y-6525000D01*
X42622095Y-6572619D01*
X42669714Y-6667857D01*
X42669714Y-6905952D01*
X42622095Y-7001190D01*
X42574476Y-7048809D01*
X42479238Y-7096428D01*
X42288761Y-7096428D01*
X42193523Y-7048809D01*
X42145904Y-7001190D01*
X42098285Y-6905952D01*
G04 #@! TO.C,P8*
X15488095Y-11152380D02*
X15488095Y-10152380D01*
X15107142Y-10152380D01*
X15011904Y-10200000D01*
X14964285Y-10247619D01*
X14916666Y-10342857D01*
X14916666Y-10485714D01*
X14964285Y-10580952D01*
X15011904Y-10628571D01*
X15107142Y-10676190D01*
X15488095Y-10676190D01*
X14345238Y-10580952D02*
X14440476Y-10533333D01*
X14488095Y-10485714D01*
X14535714Y-10390476D01*
X14535714Y-10342857D01*
X14488095Y-10247619D01*
X14440476Y-10200000D01*
X14345238Y-10152380D01*
X14154761Y-10152380D01*
X14059523Y-10200000D01*
X14011904Y-10247619D01*
X13964285Y-10342857D01*
X13964285Y-10390476D01*
X14011904Y-10485714D01*
X14059523Y-10533333D01*
X14154761Y-10580952D01*
X14345238Y-10580952D01*
X14440476Y-10628571D01*
X14488095Y-10676190D01*
X14535714Y-10771428D01*
X14535714Y-10961904D01*
X14488095Y-11057142D01*
X14440476Y-11104761D01*
X14345238Y-11152380D01*
X14154761Y-11152380D01*
X14059523Y-11104761D01*
X14011904Y-11057142D01*
X13964285Y-10961904D01*
X13964285Y-10771428D01*
X14011904Y-10676190D01*
X14059523Y-10628571D01*
X14154761Y-10580952D01*
G04 #@! TO.C,C20*
X76942857Y-69657142D02*
X76990476Y-69704761D01*
X77133333Y-69752380D01*
X77228571Y-69752380D01*
X77371428Y-69704761D01*
X77466666Y-69609523D01*
X77514285Y-69514285D01*
X77561904Y-69323809D01*
X77561904Y-69180952D01*
X77514285Y-68990476D01*
X77466666Y-68895238D01*
X77371428Y-68800000D01*
X77228571Y-68752380D01*
X77133333Y-68752380D01*
X76990476Y-68800000D01*
X76942857Y-68847619D01*
X76561904Y-68847619D02*
X76514285Y-68800000D01*
X76419047Y-68752380D01*
X76180952Y-68752380D01*
X76085714Y-68800000D01*
X76038095Y-68847619D01*
X75990476Y-68942857D01*
X75990476Y-69038095D01*
X76038095Y-69180952D01*
X76609523Y-69752380D01*
X75990476Y-69752380D01*
X75371428Y-68752380D02*
X75276190Y-68752380D01*
X75180952Y-68800000D01*
X75133333Y-68847619D01*
X75085714Y-68942857D01*
X75038095Y-69133333D01*
X75038095Y-69371428D01*
X75085714Y-69561904D01*
X75133333Y-69657142D01*
X75180952Y-69704761D01*
X75276190Y-69752380D01*
X75371428Y-69752380D01*
X75466666Y-69704761D01*
X75514285Y-69657142D01*
X75561904Y-69561904D01*
X75609523Y-69371428D01*
X75609523Y-69133333D01*
X75561904Y-68942857D01*
X75514285Y-68847619D01*
X75466666Y-68800000D01*
X75371428Y-68752380D01*
G04 #@! TO.C,D14*
X63696380Y-24573714D02*
X62696380Y-24573714D01*
X62696380Y-24811809D01*
X62744000Y-24954666D01*
X62839238Y-25049904D01*
X62934476Y-25097523D01*
X63124952Y-25145142D01*
X63267809Y-25145142D01*
X63458285Y-25097523D01*
X63553523Y-25049904D01*
X63648761Y-24954666D01*
X63696380Y-24811809D01*
X63696380Y-24573714D01*
X63696380Y-26097523D02*
X63696380Y-25526095D01*
X63696380Y-25811809D02*
X62696380Y-25811809D01*
X62839238Y-25716571D01*
X62934476Y-25621333D01*
X62982095Y-25526095D01*
X63029714Y-26954666D02*
X63696380Y-26954666D01*
X62648761Y-26716571D02*
X63363047Y-26478476D01*
X63363047Y-27097523D01*
G04 #@! TO.C,D15*
X87787380Y-24573714D02*
X86787380Y-24573714D01*
X86787380Y-24811809D01*
X86835000Y-24954666D01*
X86930238Y-25049904D01*
X87025476Y-25097523D01*
X87215952Y-25145142D01*
X87358809Y-25145142D01*
X87549285Y-25097523D01*
X87644523Y-25049904D01*
X87739761Y-24954666D01*
X87787380Y-24811809D01*
X87787380Y-24573714D01*
X87787380Y-26097523D02*
X87787380Y-25526095D01*
X87787380Y-25811809D02*
X86787380Y-25811809D01*
X86930238Y-25716571D01*
X87025476Y-25621333D01*
X87073095Y-25526095D01*
X86787380Y-27002285D02*
X86787380Y-26526095D01*
X87263571Y-26478476D01*
X87215952Y-26526095D01*
X87168333Y-26621333D01*
X87168333Y-26859428D01*
X87215952Y-26954666D01*
X87263571Y-27002285D01*
X87358809Y-27049904D01*
X87596904Y-27049904D01*
X87692142Y-27002285D01*
X87739761Y-26954666D01*
X87787380Y-26859428D01*
X87787380Y-26621333D01*
X87739761Y-26526095D01*
X87692142Y-26478476D01*
G04 #@! TO.C,R8*
X62416666Y-5452380D02*
X62750000Y-4976190D01*
X62988095Y-5452380D02*
X62988095Y-4452380D01*
X62607142Y-4452380D01*
X62511904Y-4500000D01*
X62464285Y-4547619D01*
X62416666Y-4642857D01*
X62416666Y-4785714D01*
X62464285Y-4880952D01*
X62511904Y-4928571D01*
X62607142Y-4976190D01*
X62988095Y-4976190D01*
X61845238Y-4880952D02*
X61940476Y-4833333D01*
X61988095Y-4785714D01*
X62035714Y-4690476D01*
X62035714Y-4642857D01*
X61988095Y-4547619D01*
X61940476Y-4500000D01*
X61845238Y-4452380D01*
X61654761Y-4452380D01*
X61559523Y-4500000D01*
X61511904Y-4547619D01*
X61464285Y-4642857D01*
X61464285Y-4690476D01*
X61511904Y-4785714D01*
X61559523Y-4833333D01*
X61654761Y-4880952D01*
X61845238Y-4880952D01*
X61940476Y-4928571D01*
X61988095Y-4976190D01*
X62035714Y-5071428D01*
X62035714Y-5261904D01*
X61988095Y-5357142D01*
X61940476Y-5404761D01*
X61845238Y-5452380D01*
X61654761Y-5452380D01*
X61559523Y-5404761D01*
X61511904Y-5357142D01*
X61464285Y-5261904D01*
X61464285Y-5071428D01*
X61511904Y-4976190D01*
X61559523Y-4928571D01*
X61654761Y-4880952D01*
G04 #@! TO.C,SW42*
X106551123Y-52354761D02*
X106408266Y-52402380D01*
X106170171Y-52402380D01*
X106074933Y-52354761D01*
X106027314Y-52307142D01*
X105979695Y-52211904D01*
X105979695Y-52116666D01*
X106027314Y-52021428D01*
X106074933Y-51973809D01*
X106170171Y-51926190D01*
X106360647Y-51878571D01*
X106455885Y-51830952D01*
X106503504Y-51783333D01*
X106551123Y-51688095D01*
X106551123Y-51592857D01*
X106503504Y-51497619D01*
X106455885Y-51450000D01*
X106360647Y-51402380D01*
X106122552Y-51402380D01*
X105979695Y-51450000D01*
X105646361Y-51402380D02*
X105408266Y-52402380D01*
X105217790Y-51688095D01*
X105027314Y-52402380D01*
X104789219Y-51402380D01*
X103979695Y-51735714D02*
X103979695Y-52402380D01*
X104217790Y-51354761D02*
X104455885Y-52069047D01*
X103836838Y-52069047D01*
X103503504Y-51497619D02*
X103455885Y-51450000D01*
X103360647Y-51402380D01*
X103122552Y-51402380D01*
X103027314Y-51450000D01*
X102979695Y-51497619D01*
X102932076Y-51592857D01*
X102932076Y-51688095D01*
X102979695Y-51830952D01*
X103551123Y-52402380D01*
X102932076Y-52402380D01*
G04 #@! TO.C,SW41*
X87459523Y-52404761D02*
X87316666Y-52452380D01*
X87078571Y-52452380D01*
X86983333Y-52404761D01*
X86935714Y-52357142D01*
X86888095Y-52261904D01*
X86888095Y-52166666D01*
X86935714Y-52071428D01*
X86983333Y-52023809D01*
X87078571Y-51976190D01*
X87269047Y-51928571D01*
X87364285Y-51880952D01*
X87411904Y-51833333D01*
X87459523Y-51738095D01*
X87459523Y-51642857D01*
X87411904Y-51547619D01*
X87364285Y-51500000D01*
X87269047Y-51452380D01*
X87030952Y-51452380D01*
X86888095Y-51500000D01*
X86554761Y-51452380D02*
X86316666Y-52452380D01*
X86126190Y-51738095D01*
X85935714Y-52452380D01*
X85697619Y-51452380D01*
X84888095Y-51785714D02*
X84888095Y-52452380D01*
X85126190Y-51404761D02*
X85364285Y-52119047D01*
X84745238Y-52119047D01*
X83840476Y-52452380D02*
X84411904Y-52452380D01*
X84126190Y-52452380D02*
X84126190Y-51452380D01*
X84221428Y-51595238D01*
X84316666Y-51690476D01*
X84411904Y-51738095D01*
G04 #@! TO.C,R20*
X77592857Y-4602380D02*
X77926190Y-4126190D01*
X78164285Y-4602380D02*
X78164285Y-3602380D01*
X77783333Y-3602380D01*
X77688095Y-3650000D01*
X77640476Y-3697619D01*
X77592857Y-3792857D01*
X77592857Y-3935714D01*
X77640476Y-4030952D01*
X77688095Y-4078571D01*
X77783333Y-4126190D01*
X78164285Y-4126190D01*
X77211904Y-3697619D02*
X77164285Y-3650000D01*
X77069047Y-3602380D01*
X76830952Y-3602380D01*
X76735714Y-3650000D01*
X76688095Y-3697619D01*
X76640476Y-3792857D01*
X76640476Y-3888095D01*
X76688095Y-4030952D01*
X77259523Y-4602380D01*
X76640476Y-4602380D01*
X76021428Y-3602380D02*
X75926190Y-3602380D01*
X75830952Y-3650000D01*
X75783333Y-3697619D01*
X75735714Y-3792857D01*
X75688095Y-3983333D01*
X75688095Y-4221428D01*
X75735714Y-4411904D01*
X75783333Y-4507142D01*
X75830952Y-4554761D01*
X75926190Y-4602380D01*
X76021428Y-4602380D01*
X76116666Y-4554761D01*
X76164285Y-4507142D01*
X76211904Y-4411904D01*
X76259523Y-4221428D01*
X76259523Y-3983333D01*
X76211904Y-3792857D01*
X76164285Y-3697619D01*
X76116666Y-3650000D01*
X76021428Y-3602380D01*
G04 #@! TO.C,R19*
X77592857Y-7452380D02*
X77926190Y-6976190D01*
X78164285Y-7452380D02*
X78164285Y-6452380D01*
X77783333Y-6452380D01*
X77688095Y-6500000D01*
X77640476Y-6547619D01*
X77592857Y-6642857D01*
X77592857Y-6785714D01*
X77640476Y-6880952D01*
X77688095Y-6928571D01*
X77783333Y-6976190D01*
X78164285Y-6976190D01*
X76640476Y-7452380D02*
X77211904Y-7452380D01*
X76926190Y-7452380D02*
X76926190Y-6452380D01*
X77021428Y-6595238D01*
X77116666Y-6690476D01*
X77211904Y-6738095D01*
X76164285Y-7452380D02*
X75973809Y-7452380D01*
X75878571Y-7404761D01*
X75830952Y-7357142D01*
X75735714Y-7214285D01*
X75688095Y-7023809D01*
X75688095Y-6642857D01*
X75735714Y-6547619D01*
X75783333Y-6500000D01*
X75878571Y-6452380D01*
X76069047Y-6452380D01*
X76164285Y-6500000D01*
X76211904Y-6547619D01*
X76259523Y-6642857D01*
X76259523Y-6880952D01*
X76211904Y-6976190D01*
X76164285Y-7023809D01*
X76069047Y-7071428D01*
X75878571Y-7071428D01*
X75783333Y-7023809D01*
X75735714Y-6976190D01*
X75688095Y-6880952D01*
G04 #@! TD*
M02*
